<svg id="Layer_1" data-name="Layer 1" xmlns="http://www.w3.org/2000/svg" viewBox="0 0 600 600"><defs><style>.cls-1{fill:#231f20;}</style></defs><path class="cls-1" d="M425.67,398.59c0,2.69-1.7,3.68-3.11,4.81l-94.07,74.48c-8.7,7.07-17.4,13.65-25.95,20.65a4.11,4.11,0,0,1-5.78.52,4.26,4.26,0,0,1-.52-.52q-59-47.32-118.18-94.35a7.07,7.07,0,0,1-2.9-9.55q31.54-95.55,62.8-191c7.07-21.22,14.15-42.44,20.65-63.66a17.81,17.81,0,0,1,5.17-7.85c11.31-10,22.63-20,33.73-30.2,2.9-2.68,4.81-2.54,7.64,0,11,10.47,22.35,20.73,33.6,31.05a13.34,13.34,0,0,1,3.89,6.08l74.61,233.4,7.08,22.85A8.49,8.49,0,0,1,425.67,398.59Zm-55.52-14.92-.85-3.33-15.56-55.8q-21.86-78.72-43.57-157.37c-1.27-4.59-5.09-7.07-8.06-10a1.64,1.64,0,0,0-2.26-.43,1.76,1.76,0,0,0-.43.43,26.84,26.84,0,0,0-8,11c-9.76,34.94-19.87,69.81-29.85,104.68L230.46,381.76c-.63,2.26-.91,4.1,1.21,5.8q33.17,27.09,66.06,53.89a3,3,0,0,0,4.18.34,2.19,2.19,0,0,0,.34-.34Q335.07,414.51,368,387.7A4.24,4.24,0,0,0,370.15,383.67Zm-182.26,10.4c3.32-.78,7.07-.78,8.2-5.45q32.46-106.1,65.42-212.18l8.14-26.67a8.07,8.07,0,0,0-4.81-8c-3.26-.42-2.48,3-3,4.67q-23.55,71.3-46.9,142.8L183,386.5a5.3,5.3,0,0,0,2.53,7.06A5.44,5.44,0,0,0,187.89,394.07Zm223.56,0a5.66,5.66,0,0,0,5.95-5.36,5.58,5.58,0,0,0-.5-2.64L346.17,164.63c-2.12-6.65-4.17-13.3-6.43-19.95,0-1.06,0-3.32-2.69-2.12a7.07,7.07,0,0,0-3.82,9.19l14.15,48q28.29,94.41,56.58,189c1.2,3.25,3.39,4.74,7.49,5.09Zm-11.74-3.4-1.2-4.38-69.1-230.57c-.42-1.42,0-4.39-2.4-3.75a6.16,6.16,0,0,0-4.39,4.95,11.61,11.61,0,0,0,.78,3.39Q355.23,270,386,379.57a12.67,12.67,0,0,0,12.66,10.82,4.72,4.72,0,0,0,1.06,0Zm-199.37,0c8.91,0,11-1.56,12.8-7.71l59.12-201.08c2.2-7.63,4.32-15.34,6.72-23a4.88,4.88,0,0,0-2.91-6.26,6.32,6.32,0,0,0-.62-.18c-2.83-1-2.27,2.41-2.76,3.82L207.83,365.63Zm96.89,101.56v-7.07a11.51,11.51,0,0,0-4.74-11.24c-19.66-15.35-39-31.12-58.56-46.75l-35.36-28.65A9.13,9.13,0,0,0,188,399.79c-2.41,3.61,0,5.59,2.47,7.85q51.13,40.89,102.27,82A8.54,8.54,0,0,0,297.23,492.23Zm4.81.64c2-1.41,3.18-2.26,4.31-3.18q24.82-19.53,49.51-39.18L410,407.43a5,5,0,0,0,1.69-6.79A4.72,4.72,0,0,0,410,399a7,7,0,0,0-8.77,0q-48,38.69-96.33,77.3c-1.34,1.06-2.83,2.12-2.9,4.1ZM217.17,386.14a8.76,8.76,0,0,0,9.88-7.49s0-.1,0-.14c10.18-36.78,20.86-73.42,31.33-110.13Q272.54,218,287.26,167.53c.92-3.19.35-6.09-2.62-7.08s-2,2.9-2.47,4.6Q254.37,259,226.79,353c-3.54,11.18-6.65,22-9.9,33.17Zm166.35,0L378,368.46,319.37,164.13c-.36-1.2,0-4-2.19-3.32a4,4,0,0,0-2.83,4.81l.49,1.69,58.92,211.9c1.7,6.23,2.05,6.44,9.47,6.86Zm14.64,9.76a13.44,13.44,0,0,0-16.69,1.56c-25,21.22-50.57,41.45-76,62a8.41,8.41,0,0,0-3.19,8c0,1.34-.77,3.25.78,3.89s2.19-1.06,3.18-1.84l59.56-47.6Zm-195.92-.42a23.47,23.47,0,0,0,2.62,2.26q33,26.67,66.13,53.12c7.5,6.22,15.07,12.45,23.2,18.88.92.78,2.62,2.62,3,0a9.46,9.46,0,0,0-2.76-9.83c-26.52-21.57-52.9-43.35-79.35-65.07a4.25,4.25,0,0,0-4.32-1.34,77.44,77.44,0,0,0-8.77,1.91Zm16.41-3.54,2.34,1.77,63.65,51.91,10.19,8.28c1.55,1.27,2.26,1.2,2.75-1.06a7.06,7.06,0,0,0-3.11-7.92c-21.22-17.33-42.43-34.66-63.65-52.2A9.13,9.13,0,0,0,218.65,391.94Zm163-.42c-3.89-.78-6.51-3.18-9.76-.5q-33.39,27.53-67,54.82a6,6,0,0,0-2.83,5.51c0,1.21-.71,3,.64,3.61s2.26-1,3.18-1.77l65-53.25ZM304.73,108.61l-1.06.57c.7,4-1.7,8.56,1.69,11.95,7.08,7.07,14.15,14.15,21.72,20.65,3.32,3,4.6-1.06,6.58-2.4s1.48-3,0-4.53q-10.62-9.76-21.22-19.66Zm-6.3,0c-1.06.92-1.91,1.49-2.61,2.12l-26.6,23.77c-1.27,1.13-3.82,2.33-1.13,4.24s3.26,6.58,7.43,2.76c5.73-5.38,11.17-11.1,17.33-15.84A15.21,15.21,0,0,0,298.43,108Zm6.23,18.6-1.06.36c.49,4-1.49,8.2,2.19,11.74s7.78,7.42,11.46,11.38c2.33,2.48,3.6,1,5.23-.63s3.47-2.9.92-5.31c-6.29-6.43-12.52-12.3-18.74-18.17Zm-6.3-.63L279,143.69c-1.27,1.2-3.39,2.41-.85,4.39s3.47,4.81,6.58,1.34a57.77,57.77,0,0,1,8.49-8.13,13.36,13.36,0,0,0,5.16-15.35Zm5.45,17.25a12.87,12.87,0,0,0,6.58,15.35c2.12,1,2.83-.78,4-1.7s1.48-1.69.35-2.83Zm-6.58-.56c-3.61,4-6.58,7.07-9.62,10.68-1.55,1.62-.92,2.76.43,4s2.26,2.4,4,.85a12.66,12.66,0,0,0,5.16-16.13Z"/></svg>