<svg id="Layer_1" data-name="Layer 1" xmlns="http://www.w3.org/2000/svg" viewBox="0 0 60 60"><defs><style>.cls-1{fill:#231f20;}</style></defs><path class="cls-1" d="M48.85,44.79c0,.4-.25.55-.47.72L34.27,56.68c-1.3,1.06-2.61,2-3.89,3.1a.63.63,0,0,1-.87.08l-.07-.08q-8.85-7.1-17.73-14.15a1.07,1.07,0,0,1-.44-1.44Q16,29.87,20.69,15.55c1.07-3.18,2.13-6.37,3.1-9.55a2.75,2.75,0,0,1,.78-1.18c1.69-1.49,3.39-3,5.06-4.53a.7.7,0,0,1,1.14,0c1.66,1.57,3.36,3.11,5,4.66a2,2,0,0,1,.59.91l11.19,35,1.06,3.43A1.21,1.21,0,0,1,48.85,44.79Zm-8.33-2.24-.12-.5-2.34-8.37q-3.27-11.8-6.53-23.6c-.19-.69-.77-1.06-1.21-1.5A.24.24,0,0,0,30,8.52a.13.13,0,0,0-.07.06,4.16,4.16,0,0,0-1.2,1.66c-1.46,5.24-3,10.47-4.47,15.7L19.57,42.26c-.1.34-.14.62.18.87l9.91,8.09a.44.44,0,0,0,.63.05l.05-.05c3.28-2.7,6.56-5.38,9.85-8.07A.61.61,0,0,0,40.52,42.55ZM13.18,44.11c.5-.12,1.06-.12,1.23-.82q4.88-15.91,9.82-31.82l1.22-4a1.2,1.2,0,0,0-.72-1.2c-.49-.07-.38.44-.46.7q-3.54,10.7-7,21.42L12.45,43A.79.79,0,0,0,12.83,44,.72.72,0,0,0,13.18,44.11Zm33.54,0a.85.85,0,0,0,.89-.8.89.89,0,0,0-.07-.4L36.93,9.69c-.32-1-.63-2-1-3,0-.16,0-.5-.4-.32A1.06,1.06,0,0,0,35,7.76L37.11,15q4.24,14.16,8.48,28.34a1.14,1.14,0,0,0,1.13.77ZM45,43.6l-.18-.66L34.41,8.36c-.06-.21,0-.66-.36-.56a.92.92,0,0,0-.66.74,2.36,2.36,0,0,0,.12.51q4.77,16.45,9.39,32.88a1.91,1.91,0,0,0,1.9,1.63H45Zm-29.91,0c1.34,0,1.64-.23,1.92-1.16l8.87-30.16c.33-1.14.65-2.3,1-3.45a.72.72,0,0,0-.44-.93l-.09,0c-.43-.15-.34.36-.42.57l-9.73,31.4ZM29.58,58.84V57.77a1.71,1.71,0,0,0-.71-1.68c-2.95-2.3-5.85-4.67-8.78-7l-5.3-4.29a1.38,1.38,0,0,0-1.6.19c-.36.54,0,.84.38,1.18q7.66,6.12,15.34,12.29A1.29,1.29,0,0,0,29.58,58.84Zm.73.09c.3-.21.47-.34.64-.48q3.73-2.93,7.43-5.87l8.13-6.47a.73.73,0,0,0,.25-1,.69.69,0,0,0-.25-.26,1.08,1.08,0,0,0-1.32,0q-7.2,5.8-14.45,11.6c-.2.16-.42.32-.43.61Zm-12.73-16a1.31,1.31,0,0,0,1.48-1.12v0c1.53-5.52,3.13-11,4.7-16.52q2.11-7.57,4.33-15.13c.14-.48.05-.91-.39-1.06s-.3.43-.38.69Q23.17,23.85,19,38c-.53,1.67-1,3.3-1.49,5Zm25,0-.83-2.65L32.91,9.62c-.06-.18,0-.59-.33-.5a.61.61,0,0,0-.43.72l.08.26,8.83,31.78c.26.94.31,1,1.43,1Zm2.19,1.47a2,2,0,0,0-2.5.23c-3.76,3.18-7.59,6.22-11.39,9.29a1.26,1.26,0,0,0-.48,1.2c0,.2-.12.49.12.58s.32-.15.47-.27l8.94-7.14Zm-29.38-.07a3.17,3.17,0,0,0,.39.34q4.95,4,9.92,8c1.12.93,2.26,1.87,3.48,2.83.14.12.39.39.44,0A1.4,1.4,0,0,0,29.16,54c-4-3.24-7.94-6.51-11.9-9.76a.64.64,0,0,0-.65-.21,13.15,13.15,0,0,0-1.32.29Zm2.46-.53.35.27,9.55,7.78,1.52,1.25c.24.19.34.18.42-.16a1.08,1.08,0,0,0-.47-1.19c-3.18-2.6-6.36-5.2-9.55-7.83A1.36,1.36,0,0,0,17.8,43.79Zm24.45-.06c-.58-.12-1-.48-1.46-.08q-5,4.13-10,8.23a.88.88,0,0,0-.42.82c0,.18-.11.45.09.54s.34-.14.48-.26l9.75-8ZM30.71,1.29l-.16.09c.11.6-.25,1.28.25,1.79,1.07,1.06,2.13,2.12,3.26,3.1.5.45.69-.16,1-.36s.22-.45,0-.68l-3.18-3Zm-.94,0c-.16.14-.29.22-.4.32l-4,3.56c-.19.17-.57.35-.17.64s.49,1,1.12.41c.86-.8,1.67-1.66,2.6-2.37a2.28,2.28,0,0,0,.84-2.65Zm.93,2.79-.16,0c.07.6-.22,1.24.33,1.77S32,7,32.59,7.6c.35.38.54.15.78-.09s.52-.44.14-.8c-.94-1-1.88-1.84-2.81-2.72ZM29.75,4l-2.9,2.56c-.19.18-.51.36-.13.66s.52.72,1,.2A9.16,9.16,0,0,1,29,6.19a2,2,0,0,0,.77-2.3Zm.82,2.59a1.93,1.93,0,0,0,1,2.3c.32.15.42-.12.6-.26s.23-.25.06-.42Zm-1-.09c-.54.6-1,1.06-1.44,1.6-.23.25-.14.42.07.6s.33.36.6.12a1.89,1.89,0,0,0,.77-2.42Z"/></svg>