<?xml version="1.0" encoding="UTF-8"?>
<!DOCTYPE svg PUBLIC "-//W3C//DTD SVG 1.1//EN" "http://www.w3.org/Graphics/SVG/1.1/DTD/svg11.dtd">
<!-- Creator: CorelDRAW -->
<svg xmlns="http://www.w3.org/2000/svg" xml:space="preserve" width="3.3867mm" height="3.3867mm" version="1.1" style="shape-rendering:geometricPrecision; text-rendering:geometricPrecision; image-rendering:optimizeQuality; fill-rule:evenodd; clip-rule:evenodd"
viewBox="0 0 4.45 4.45"
 xmlns:xlink="http://www.w3.org/1999/xlink"
 xmlns:xodm="http://www.corel.com/coreldraw/odm/2003">
 <defs>
  <style type="text/css">
   <![CDATA[
    .fil0 {fill:black;fill-rule:nonzero}
   ]]>
  </style>
 </defs>
 <g id="Layer_x0020_1">
  <metadata id="CorelCorpID_0Corel-Layer"/>
  <path class="fil0" d="M4.45 2.23c-0.03,0.11 -0.06,0.23 -0.09,0.35 -0.06,0.21 -0.12,0.42 -0.17,0.63 -0.04,0.11 -0.1,0.21 -0.2,0.29 -0.2,0.2 -0.41,0.4 -0.61,0.61 -0.07,0.07 -0.17,0.07 -0.25,0.1 -0.29,0.08 -0.58,0.16 -0.86,0.23 -0.01,0 -0.02,0 -0.04,0 -0.01,0 -0.02,-0 -0.04,-0l-1.05 -0.28c-0.05,-0.01 -0.08,-0.06 -0.12,-0.1 -0.2,-0.19 -0.38,-0.39 -0.59,-0.57 -0.11,-0.11 -0.19,-0.25 -0.22,-0.4 -0.07,-0.26 -0.14,-0.52 -0.21,-0.78 -0.01,-0.03 -0.01,-0.05 -0.01,-0.08 0,-0.02 0,-0.03 0,-0.05 0.09,-0.34 0.18,-0.69 0.28,-1.03 0.03,-0.1 0.12,-0.15 0.18,-0.22 0.18,-0.18 0.36,-0.36 0.54,-0.54 0.07,-0.07 0.15,-0.12 0.24,-0.14 0.3,-0.08 0.61,-0.16 0.91,-0.25 0.02,-0.01 0.05,-0.01 0.07,-0.01 0.01,0 0.03,0 0.04,0 0.34,0.09 0.68,0.18 1.01,0.27 0.05,0.01 0.09,0.04 0.12,0.07 0.22,0.23 0.45,0.46 0.68,0.68 0.06,0.06 0.1,0.13 0.12,0.2 0.08,0.31 0.16,0.62 0.25,0.93 0.01,0.02 0.01,0.04 0.01,0.07zm-1.56 -0.04l0.52 0c0.1,0 0.1,0 0.05,-0.09 -0.16,-0.28 -0.33,-0.57 -0.5,-0.85 -0.07,-0.12 -0.07,-0.12 -0.14,0 -0.17,0.3 -0.33,0.59 -0.51,0.88 -0.03,0.05 -0.02,0.06 0.03,0.06 0.18,0 0.36,0 0.54,0zm-1.34 0l0 0 0.53 0c0.07,0 0.08,-0.01 0.04,-0.07l-0.53 -0.91c-0.04,-0.07 -0.05,-0.07 -0.09,0 -0.17,0.3 -0.35,0.61 -0.52,0.91 -0.04,0.06 -0.03,0.07 0.04,0.07l0.53 0 0 0zm0.68 1.17l0.54 0c0.05,0 0.07,-0.01 0.03,-0.06 -0.03,-0.05 -0.06,-0.11 -0.09,-0.17 -0.15,-0.26 -0.3,-0.52 -0.45,-0.78 -0.02,-0.03 -0.03,-0.06 -0.06,-0.01 -0.18,0.32 -0.36,0.63 -0.55,0.95 -0.03,0.06 -0.01,0.06 0.04,0.06 0.18,0 0.36,0 0.54,0l-0 -0zm-0.68 -0.03c0.03,-0.04 0.04,-0.07 0.06,-0.1l0.5 -0.87c0.01,-0.02 0.04,-0.04 0.03,-0.07 -0.01,-0.03 -0.05,-0.02 -0.07,-0.02 -0.34,0 -0.68,0 -1.03,0 -0.03,0 -0.06,-0.01 -0.07,0.02 -0.01,0.03 0.01,0.05 0.03,0.07l0.29 0.49c0.09,0.15 0.18,0.3 0.28,0.47l-0.01 0zm0.68 -1.17c0.09,-0.16 0.17,-0.3 0.26,-0.45l0.31 -0.55c0.01,-0.02 0.03,-0.03 0.01,-0.06 -0.01,-0.02 -0.04,-0.01 -0.06,-0.01 -0.12,0 -0.24,0 -0.36,0l-0.68 0c-0.1,0 -0.1,0 -0.05,0.09 0.02,0.04 0.05,0.08 0.07,0.13 0.16,0.27 0.32,0.55 0.49,0.84l0 0zm0.67 1.16c0.01,-0.01 0.02,-0.01 0.02,-0.01 0.19,-0.32 0.37,-0.64 0.56,-0.97 0.03,-0.06 0.01,-0.06 -0.04,-0.06l-1.06 0c-0.07,0 -0.07,0.02 -0.04,0.07 0.12,0.2 0.23,0.4 0.35,0.61 0.07,0.12 0.15,0.24 0.22,0.36zm-0.07 -2.3c-0.2,-0.3 -0.39,-0.59 -0.58,-0.87 -0.03,-0.05 -0.05,-0.02 -0.07,0.01 -0.17,0.26 -0.35,0.53 -0.52,0.79 -0.01,0.02 -0.04,0.04 -0.03,0.06 0.01,0.02 0.05,0.01 0.07,0.01l1.04 0 0.08 -0.01 0 0zm-1.96 1.14c0.03,-0.05 0.06,-0.1 0.08,-0.14l0.48 -0.84c0.03,-0.05 0.02,-0.07 -0.04,-0.07 -0.07,0.01 -0.16,0.01 -0.23,0.02 -0.23,0.02 -0.46,0.03 -0.68,0.05 -0.1,0.01 -0.1,0.02 -0.06,0.1 0.08,0.17 0.17,0.33 0.25,0.5l0.2 0.39zm2.15 1.2c0.32,-0.01 0.65,-0.04 0.97,-0.06 0.06,0 0.06,-0.03 0.04,-0.07 -0.06,-0.12 -0.11,-0.23 -0.17,-0.35l-0.25 -0.5c-0.03,-0.06 -0.05,-0.06 -0.08,0 -0.02,0.04 -0.04,0.08 -0.06,0.12 -0.16,0.27 -0.31,0.54 -0.47,0.8 -0.02,0.03 -0.03,0.06 0.03,0.06l0 -0zm0.04 -2.25c-0.01,0 -0.06,-0.02 -0.07,0.01 -0.02,0.03 0.02,0.06 0.03,0.09 0.16,0.29 0.33,0.59 0.5,0.88 0.03,0.06 0.05,0.06 0.08,0 0.05,-0.1 0.1,-0.2 0.15,-0.3 0.09,-0.18 0.18,-0.36 0.27,-0.54 0.02,-0.04 0.03,-0.08 -0.04,-0.09 -0.3,-0.01 -0.6,-0.03 -0.92,-0.05l0.01 -0.01zm-2.2 1.21c-0.16,0.32 -0.31,0.62 -0.46,0.93 -0.02,0.05 0,0.06 0.04,0.06 0.31,0.03 0.63,0.03 0.94,0.06 0.02,0 0.05,0.01 0.07,-0.01 0.01,-0.02 -0.01,-0.05 -0.02,-0.07l-0.33 -0.56c-0.07,-0.13 -0.15,-0.26 -0.24,-0.4zm1.36 1.13l-0.5 0c-0.03,0 -0.07,-0.02 -0.09,0.01 -0.01,0.03 0.02,0.06 0.04,0.09 0.17,0.25 0.34,0.5 0.5,0.76 0.03,0.05 0.05,0.05 0.08,0 0.17,-0.27 0.35,-0.53 0.52,-0.79 0.04,-0.05 0.02,-0.07 -0.04,-0.07 -0.17,0.01 -0.34,0.01 -0.51,0.01zm-1.83 -2.36c0.11,0 0.18,0 0.26,0 0.25,-0.02 0.49,-0.04 0.74,-0.05 0.06,-0 0.07,-0.02 0.04,-0.07 -0.1,-0.17 -0.2,-0.33 -0.29,-0.5 -0.03,-0.05 -0.05,-0.05 -0.09,-0.01 -0.08,0.08 -0.15,0.15 -0.23,0.23l-0.43 0.42zm1.9 -0.99l0.6 0.9c0.12,-0.2 0.22,-0.39 0.33,-0.57 0.03,-0.05 0.02,-0.07 -0.04,-0.08 -0.13,-0.03 -0.26,-0.07 -0.4,-0.11 -0.16,-0.04 -0.32,-0.08 -0.5,-0.13zm1.7 0.99c0,-0.01 0.01,-0.02 0.01,-0.02l-0.64 -0.63c-0.03,-0.03 -0.05,-0.03 -0.07,0.01 -0.1,0.17 -0.2,0.35 -0.3,0.52 -0.03,0.05 -0.02,0.07 0.04,0.07 0.17,0.01 0.35,0.03 0.52,0.04 0.11,0.01 0.21,0.02 0.32,0.02 0.04,0 0.08,-0 0.12,-0l-0 -0zm-1.93 -0.97l-0.04 0.01c-0.26,0.07 -0.52,0.15 -0.79,0.21 -0.07,0.02 -0.05,0.05 -0.03,0.09 0.1,0.17 0.2,0.33 0.29,0.5 0.03,0.06 0.06,0.05 0.09,0 0.05,-0.07 0.1,-0.15 0.14,-0.22 0.12,-0.18 0.24,-0.36 0.35,-0.54 0.01,-0.01 0.02,-0.03 0.01,-0.04 -0.01,-0.02 -0.02,-0.01 -0.04,-0.01zm-1.73 3.13l0.45 -0.91c0.02,-0.04 0,-0.05 -0.03,-0.05l-0.61 0c-0.05,0 -0.07,0.02 -0.05,0.07 0.02,0.09 0.05,0.18 0.07,0.26l0.17 0.63zm0.11 0.15c0,0.01 0.01,0.02 0.01,0.03l0.64 0.63c0.03,0.03 0.04,0.02 0.06,-0.01 0.1,-0.17 0.19,-0.34 0.29,-0.51 0.04,-0.07 0.04,-0.09 -0.05,-0.09 -0.2,-0.01 -0.4,-0.03 -0.59,-0.03 -0.08,-0.01 -0.16,-0.01 -0.25,-0.01 -0.04,0 -0.07,0 -0.11,0l0 -0zm3.66 -2.14l-0.17 0.34c-0.09,0.18 -0.18,0.35 -0.26,0.53 -0.03,0.06 -0.02,0.08 0.05,0.07 0.19,0 0.37,0 0.56,0 0.07,0 0.09,-0.02 0.07,-0.09 -0.07,-0.24 -0.13,-0.49 -0.19,-0.73 -0.01,-0.04 -0.03,-0.07 -0.05,-0.13zm-1.78 3.1l0.01 0.01 0.07 -0.02 0.77 -0.21c0.07,-0.02 0.08,-0.03 0.04,-0.1 -0.1,-0.17 -0.19,-0.33 -0.29,-0.5 -0.03,-0.06 -0.05,-0.05 -0.08,0 -0.09,0.14 -0.18,0.28 -0.28,0.42l-0.26 0.39zm-0.19 0.02c-0,-0.01 -0.01,-0.02 -0.01,-0.03l-0.52 -0.79c-0.04,-0.06 -0.05,-0.06 -0.09,0 -0.1,0.17 -0.19,0.34 -0.29,0.51 -0.03,0.05 -0.01,0.06 0.04,0.07 0.18,0.05 0.36,0.1 0.54,0.14 0.11,0.03 0.22,0.06 0.34,0.09l0 0zm1.87 -0.95l-0.02 -0.03c-0.01,-0 -0.01,-0.01 -0.02,-0.01 -0.31,0.01 -0.62,0.03 -0.93,0.05 -0.05,0 -0.06,0.03 -0.03,0.07 0.1,0.17 0.19,0.33 0.29,0.5 0.03,0.06 0.06,0.06 0.1,0.01 0.1,-0.1 0.19,-0.2 0.29,-0.29 0.11,-0.1 0.22,-0.21 0.33,-0.31zm-3.68 -2.17c-0.08,0.31 -0.16,0.59 -0.23,0.88 -0.01,0.05 -0.01,0.09 0.06,0.09 0.2,-0.02 0.4,-0.01 0.6,-0.01 0.04,0 0.05,-0.01 0.03,-0.05 -0.06,-0.12 -0.12,-0.25 -0.19,-0.37 -0.09,-0.17 -0.18,-0.35 -0.27,-0.53zm3.78 1.98c0.04,-0.15 0.08,-0.28 0.12,-0.42 0.04,-0.16 0.08,-0.31 0.12,-0.47 0.01,-0.04 0.01,-0.07 -0.04,-0.07l-0.62 -0c-0.04,0 -0.05,0.02 -0.03,0.05 0.01,0.02 0.02,0.04 0.03,0.06 0.1,0.2 0.2,0.41 0.31,0.61 0.03,0.07 0.07,0.14 0.11,0.22z"/>
 </g>
</svg>
