<svg id="Layer_1" data-name="Layer 1" xmlns="http://www.w3.org/2000/svg" viewBox="0 0 512 512"><defs><style>.cls-1{fill:none;stroke:#231f20;stroke-miterlimit:10;stroke-width:4px;}.cls-2{fill:#231f20;}</style></defs><ellipse class="cls-1" cx="131.59" cy="255.64" rx="57.76" ry="56.67"/><ellipse class="cls-1" cx="82.55" cy="189.53" rx="25.06" ry="24.7"/><ellipse class="cls-1" cx="50.22" cy="231.66" rx="25.06" ry="24.7"/><ellipse class="cls-1" cx="51.68" cy="283.97" rx="25.06" ry="24.7"/><ellipse class="cls-1" cx="82.55" cy="322.84" rx="25.06" ry="24.7"/><ellipse class="cls-1" cx="132.32" cy="338.09" rx="25.06" ry="24.7"/><ellipse class="cls-1" cx="132.32" cy="173.91" rx="25.06" ry="24.7"/><ellipse class="cls-1" cx="182.44" cy="189.53" rx="25.06" ry="24.7"/><ellipse class="cls-1" cx="212.96" cy="231.66" rx="25.06" ry="24.7"/><ellipse class="cls-1" cx="212.96" cy="283.97" rx="25.06" ry="24.7"/><ellipse class="cls-1" cx="182.44" cy="322.84" rx="25.06" ry="24.7"/><path class="cls-2" d="M169.6,217.64h0a53.52,53.52,0,0,0-76,0l-.35.35a53.52,53.52,0,0,0,0,76l.35.35a53.52,53.52,0,0,0,76,0L170,294a53.51,53.51,0,0,0,15.84-38A54.63,54.63,0,0,0,169.6,217.64Zm-1.76,53.49-13.37,5.28,8.09-19,5.28,13.72Zm-15.13,6-21.47,8.79-21.47-9.15L101,255.3l9.15-21.47,21.47-8.8,21.47,9.15,8.8,21.47Zm-6.34,15.13h0L133,286.62l19-7.74Zm-29.91-.35-.35-.36v.36l-5.28-13.38,19,8.1ZM95,270.43h0l5.63-13.37,7.74,19Zm.35-30.27,13.37-5.28-8.09,19-5.28-13.73Zm34.84-15.48-19,7.74,5.63-13.37Zm22.17,7.74-19-8.09,13.37-5.28Zm2.47,2.46,13,5.64.35.35h.35l-5.63,13.37Zm-.71-1.4-4.92-12.32,17.59,17.6ZM131.94,224l-12.32-5.27h25Zm-22.52,8.8L97.1,237.7l17.6-17.6Zm-9.5,22.53-5.28,12.31v-25Zm9.15,22.52L114,290.14,96.4,272.54Zm22.17,9.5,12.32,5.28h-25Zm22.52-9.15,12.32-4.93-17.6,17.6Zm9.5-22.17,5.28-12.32v25Zm5.28-17.6-19.71-19.7h19.71Zm-51-21.11,14.08-14.08,14.08,14.08ZM94.64,238.4V218.7h19.71Zm-1.41,31L79.15,255.3l14.08-14.08Zm1.41,3.52,19.71,19.71H94.64Zm51,20.77-14.08,14.07-14.08-14.07Zm22.87-20.77V292.6H148.83ZM170,241.57,184,255.65,170,269.73Zm0-21.82a48.83,48.83,0,0,1,9.85,15.13L170,239.11Zm-21.82-2.46,4.22-10.21a56.42,56.42,0,0,1,15.49,10.21Zm-1.41-.71-13.37-13.37a55.91,55.91,0,0,1,17.6,3.52Zm-30.61.36-4.23-10.21a60.51,60.51,0,0,1,18-3.87Zm-1.41.35H95.34a48.85,48.85,0,0,1,15.13-9.86ZM93.23,239.11l-9.85-4.23a56.19,56.19,0,0,1,10.2-15.48v19.71Zm-.35,1.41L79.15,254.24a55.91,55.91,0,0,1,3.52-17.6Zm0,30.61-10.21,4.23a60.51,60.51,0,0,1-3.87-17.95Zm.35,1.06v19a48.83,48.83,0,0,1-9.85-15.13Zm22.17,21.47-4.22,10.2a56.39,56.39,0,0,1-15.49-10.2Zm1.06.7,13.72,13.73a58.21,58.21,0,0,1-17.59-3.52Zm30.61-.35,4.23,10.2a60.52,60.52,0,0,1-18,3.88Zm1.41-.35h19a49,49,0,0,1-15.14,9.85ZM170,271.84l10.21,4.22A56.45,56.45,0,0,1,170,291.54Zm.7-1.06,13.73-13.72a57.91,57.91,0,0,1-3.52,17.59Zm-.35-30.62,10.21-4.22a60.44,60.44,0,0,1,3.87,17.95Z"/><ellipse class="cls-1" cx="380.41" cy="255.64" rx="57.76" ry="56.67"/><ellipse class="cls-1" cx="331.37" cy="189.53" rx="25.06" ry="24.7"/><ellipse class="cls-1" cx="299.04" cy="231.66" rx="25.06" ry="24.7"/><ellipse class="cls-1" cx="300.5" cy="283.97" rx="25.06" ry="24.7"/><ellipse class="cls-1" cx="331.37" cy="322.84" rx="25.06" ry="24.7"/><ellipse class="cls-1" cx="381.14" cy="338.09" rx="25.06" ry="24.7"/><ellipse class="cls-1" cx="381.14" cy="173.91" rx="25.06" ry="24.7"/><ellipse class="cls-1" cx="431.26" cy="189.53" rx="25.06" ry="24.7"/><ellipse class="cls-1" cx="461.78" cy="231.66" rx="25.06" ry="24.7"/><ellipse class="cls-1" cx="461.78" cy="283.97" rx="25.06" ry="24.7"/><ellipse class="cls-1" cx="431.26" cy="322.84" rx="25.06" ry="24.7"/><path class="cls-2" d="M418.42,217.64h0a53.52,53.52,0,0,0-76,0l-.35.35a53.52,53.52,0,0,0,0,76l.35.35a53.52,53.52,0,0,0,76,0l.35-.35a53.51,53.51,0,0,0,15.84-38A54.63,54.63,0,0,0,418.42,217.64Zm-1.76,53.49-13.37,5.28,8.09-19,5.28,13.72Zm-15.13,6-21.47,8.79-21.47-9.15-8.8-21.46,9.15-21.47,21.47-8.8,21.47,9.15,8.8,21.47Zm-6.34,15.13h0l-13.37-5.63,19-7.74Zm-29.91-.35-.35-.36v.36l-5.28-13.38,19,8.1Zm-21.47-21.47h0l5.63-13.37,7.74,19Zm.35-30.27,13.37-5.28-8.09,19-5.28-13.73ZM379,224.68l-19,7.74,5.63-13.37Zm22.17,7.74-19-8.09,13.37-5.28Zm2.47,2.46,13,5.64.35.35h.35l-5.63,13.37Zm-.71-1.4L398,221.16l17.59,17.6ZM380.76,224l-12.32-5.27h25Zm-22.52,8.8-12.32,4.93,17.6-17.6Zm-9.5,22.53-5.28,12.31v-25Zm9.15,22.52,4.92,12.32-17.59-17.6Zm22.17,9.5,12.32,5.28h-25Zm22.52-9.15,12.32-4.93-17.6,17.6Zm9.5-22.17,5.28-12.32v25Zm5.28-17.6-19.71-19.7h19.71Zm-51-21.11,14.08-14.08,14.08,14.08ZM343.46,238.4V218.7h19.71Zm-1.41,31L328,255.3l14.08-14.08Zm1.41,3.52,19.71,19.71H343.46Zm51,20.77-14.08,14.07-14.08-14.07Zm22.87-20.77V292.6H397.65Zm1.41-31.32,14.08,14.08-14.08,14.08Zm0-21.82a48.83,48.83,0,0,1,9.85,15.13l-9.85,4.23ZM397,217.29l4.22-10.21a56.42,56.42,0,0,1,15.49,10.21Zm-1.41-.71-13.37-13.37a55.91,55.91,0,0,1,17.6,3.52Zm-30.61.36-4.23-10.21a60.51,60.51,0,0,1,17.95-3.87Zm-1.41.35H344.16a48.85,48.85,0,0,1,15.13-9.86Zm-21.47,21.82-9.85-4.23a56.19,56.19,0,0,1,10.2-15.48v19.71Zm-.35,1.41L328,254.24a55.91,55.91,0,0,1,3.52-17.6Zm0,30.61-10.21,4.23a60.51,60.51,0,0,1-3.87-17.95Zm.35,1.06v19a48.83,48.83,0,0,1-9.85-15.13Zm22.17,21.47L360,303.86a56.39,56.39,0,0,1-15.49-10.2Zm1.06.7L379,308.09a58.21,58.21,0,0,1-17.59-3.52Zm30.61-.35,4.23,10.2a60.52,60.52,0,0,1-17.95,3.88Zm1.41-.35h19a49,49,0,0,1-15.14,9.85Zm21.47-21.82L429,276.06a56.45,56.45,0,0,1-10.21,15.48Zm.7-1.06,13.73-13.72a57.91,57.91,0,0,1-3.52,17.59Zm-.35-30.62,10.21-4.22a60.44,60.44,0,0,1,3.87,17.95Z"/></svg>