<svg width="512" height="268" viewBox="0 0 512 268" fill="none" xmlns="http://www.w3.org/2000/svg">
<g style="mix-blend-mode:darken" clip-path="url(#clip0_8473_29)">
<path d="M489.79 158.439H22.6501C20.4526 158.447 18.2753 158.02 16.2438 157.183C14.2122 156.345 12.3665 155.114 10.8131 153.559C9.25971 152.005 8.02937 150.159 7.19302 148.126C6.35666 146.094 5.93084 143.917 5.94009 141.719V130.999C5.93084 128.802 6.35666 126.624 7.19302 124.592C8.02937 122.56 9.25971 120.714 10.8131 119.159C12.3665 117.605 14.2122 116.374 16.2438 115.536C18.2753 114.699 20.4526 114.271 22.6501 114.279H489.33C491.524 114.277 493.697 114.708 495.724 115.548C497.751 116.388 499.592 117.62 501.141 119.174C502.69 120.727 503.917 122.572 504.751 124.602C505.585 126.631 506.009 128.805 506 130.999V141.209C506.156 143.426 505.852 145.651 505.106 147.744C504.36 149.838 503.189 151.754 501.666 153.372C500.143 154.991 498.302 156.276 496.258 157.148C494.214 158.021 492.012 158.46 489.79 158.439Z" stroke="#231F20" stroke-width="1.5" stroke-miterlimit="10"/>
<path d="M374.63 153.331C384.118 153.331 391.81 145.639 391.81 136.151C391.81 126.662 384.118 118.971 374.63 118.971C365.142 118.971 357.45 126.662 357.45 136.151C357.45 145.639 365.142 153.331 374.63 153.331Z" stroke="#231F20" stroke-miterlimit="10"/>
<path d="M410.85 153.331C420.338 153.331 428.03 145.639 428.03 136.151C428.03 126.662 420.338 118.971 410.85 118.971C401.362 118.971 393.67 126.662 393.67 136.151C393.67 145.639 401.362 153.331 410.85 153.331Z" stroke="#231F20" stroke-miterlimit="10"/>
<path d="M448 153.331C457.488 153.331 465.18 145.639 465.18 136.151C465.18 126.662 457.488 118.971 448 118.971C438.512 118.971 430.82 126.662 430.82 136.151C430.82 145.639 438.512 153.331 448 153.331Z" stroke="#231F20" stroke-miterlimit="10"/>
<path d="M484.68 153.331C494.168 153.331 501.86 145.639 501.86 136.151C501.86 126.662 494.168 118.971 484.68 118.971C475.192 118.971 467.5 126.662 467.5 136.151C467.5 145.639 475.192 153.331 484.68 153.331Z" stroke="#231F20" stroke-miterlimit="10"/>
<path d="M28.2298 153.79C37.7181 153.79 45.4098 146.098 45.4098 136.61C45.4098 127.121 37.7181 119.43 28.2298 119.43C18.7416 119.43 11.0498 127.121 11.0498 136.61C11.0498 146.098 18.7416 153.79 28.2298 153.79Z" stroke="#231F20" stroke-miterlimit="10"/>
<path d="M64.4398 153.79C73.928 153.79 81.6198 146.098 81.6198 136.61C81.6198 127.121 73.928 119.43 64.4398 119.43C54.9515 119.43 47.2598 127.121 47.2598 136.61C47.2598 146.098 54.9515 153.79 64.4398 153.79Z" stroke="#231F20" stroke-miterlimit="10"/>
<path d="M101.59 153.79C111.078 153.79 118.77 146.098 118.77 136.61C118.77 127.121 111.078 119.43 101.59 119.43C92.1019 119.43 84.4102 127.121 84.4102 136.61C84.4102 146.098 92.1019 153.79 101.59 153.79Z" stroke="#231F20" stroke-miterlimit="10"/>
<path d="M138.28 153.79C147.768 153.79 155.46 146.098 155.46 136.61C155.46 127.121 147.768 119.43 138.28 119.43C128.792 119.43 121.1 127.121 121.1 136.61C121.1 146.098 128.792 153.79 138.28 153.79Z" stroke="#231F20" stroke-miterlimit="10"/>
<path d="M282.23 95.2896C286.08 95.2896 289.2 92.169 289.2 88.3196C289.2 84.4702 286.08 81.3496 282.23 81.3496C278.381 81.3496 275.26 84.4702 275.26 88.3196C275.26 92.169 278.381 95.2896 282.23 95.2896Z" fill="#231F20"/>
<path d="M308.69 140.79C312.54 140.79 315.66 137.669 315.66 133.82C315.66 129.97 312.54 126.85 308.69 126.85C304.841 126.85 301.72 129.97 301.72 133.82C301.72 137.669 304.841 140.79 308.69 140.79Z" fill="#231F20"/>
<path d="M231.61 96.2193C235.46 96.2193 238.58 93.0987 238.58 89.2493C238.58 85.3999 235.46 82.2793 231.61 82.2793C227.761 82.2793 224.64 85.3999 224.64 89.2493C224.64 93.0987 227.761 96.2193 231.61 96.2193Z" fill="#231F20"/>
<path d="M205.61 140.79C209.46 140.79 212.58 137.669 212.58 133.82C212.58 129.97 209.46 126.85 205.61 126.85C201.761 126.85 198.64 129.97 198.64 133.82C198.64 137.669 201.761 140.79 205.61 140.79Z" fill="#231F20"/>
<path d="M282.23 185.37C286.08 185.37 289.2 182.249 289.2 178.4C289.2 174.55 286.08 171.43 282.23 171.43C278.381 171.43 275.26 174.55 275.26 178.4C275.26 182.249 278.381 185.37 282.23 185.37Z" fill="#231F20"/>
<path d="M231.61 185.37C235.46 185.37 238.58 182.249 238.58 178.4C238.58 174.55 235.46 171.43 231.61 171.43C227.761 171.43 224.64 174.55 224.64 178.4C224.64 182.249 227.761 185.37 231.61 185.37Z" fill="#231F20"/>
<path fill-rule="evenodd" clip-rule="evenodd" d="M222.79 88.7809C222.79 97.414 220.23 105.853 215.433 113.032C210.637 120.21 203.82 125.804 195.844 129.108C187.868 132.412 179.091 133.276 170.624 131.592C162.157 129.908 154.379 125.751 148.275 119.646C142.17 113.542 138.013 105.764 136.328 97.2966C134.644 88.8293 135.509 80.0527 138.812 72.0767C142.116 64.1008 147.711 57.2836 154.889 52.4872C162.067 47.6909 170.507 45.1309 179.14 45.1309C184.874 45.1243 190.553 46.2489 195.852 48.4401C201.151 50.6314 205.965 53.8464 210.02 57.901C214.074 61.9556 217.289 66.7701 219.481 72.069C221.672 77.3678 222.796 83.0468 222.79 88.7809Z" stroke="#231F20" stroke-miterlimit="10"/>
<path d="M179.14 44.8398C170.415 44.8379 161.885 47.4228 154.629 52.2678C147.374 57.1128 141.717 64.0003 138.375 72.0597C135.033 80.1191 134.155 88.9884 135.853 97.5464C137.551 106.104 141.749 113.967 147.915 120.14C154.08 126.313 161.938 130.519 170.494 132.226C179.05 133.934 187.921 133.067 195.984 129.734C204.047 126.401 210.941 120.752 215.794 113.502C220.647 106.251 223.242 97.7247 223.25 88.9999C223.259 83.2023 222.125 77.4598 219.912 72.1012C217.699 66.7426 214.451 61.873 210.354 57.7712C206.257 53.6694 201.391 50.4159 196.035 48.1969C190.678 45.978 184.937 44.8372 179.14 44.8398ZM178.21 46.2399L167.07 60.1699L162.42 48.9999C167.488 47.1894 172.828 46.256 178.21 46.2399ZM180.07 46.2399C185.004 46.1713 189.901 47.1105 194.46 48.9999L190.28 59.2199L180.07 46.2399ZM179.14 46.6998L189.82 60.1699L178.21 65.2799L168 61.0999L179.14 46.6998ZM195.39 49.4899C200.564 51.7017 205.286 54.8475 209.32 58.7699L191.21 59.6998L195.39 49.4899ZM161.96 49.4899L166.14 60.1699L148.49 58.3098C152.507 54.6849 157.065 51.7091 162 49.4899H161.96ZM148.49 59.2399L166.6 61.0999L162 71.7799L149.93 76.8799L148.49 59.2399ZM147.56 59.6998L149.42 76.8799L139.21 72.7099C141.095 67.8584 143.934 63.4344 147.56 59.6998ZM209.79 59.6998L207.93 77.3499L196.32 72.7099L191.21 60.6299L209.79 59.6998ZM210.72 59.6998C214.032 63.6694 216.837 68.0364 219.07 72.6998L208.86 76.8698L210.72 59.6998ZM190.28 61.0999L194.93 71.7799L180.07 65.7799L190.28 61.0999ZM168 61.9999L176.83 65.7099L163.83 71.2799L168 61.9999ZM178.22 66.1698L195.4 73.1698L202.4 89.4198L195.4 105.67L178.22 112.67L162.9 105.67L155.9 89.8899L163.33 72.7099L178.22 66.1698ZM161.5 73.5999L155 88.4899L150.82 78.2799L161.5 73.5999ZM138.75 73.5999L149 77.8098L136 88.4899C135.966 83.4079 136.896 78.3657 138.74 73.6299L138.75 73.5999ZM196.75 74.0699L207 78.2799L202.82 87.9999L196.75 74.0699ZM219.04 74.0699C220.921 78.8217 221.879 83.8891 221.86 88.9999L208.86 78.3199L219.04 74.0699ZM149.86 78.7099L154.5 89.8599L149.86 100.07L136.39 89.3899L149.86 78.7099ZM207.86 78.7099L220.86 89.3899L207.86 100.07L203.29 88.9999L207.86 78.7099ZM135.86 90.3199L149.42 101L139.21 105.18C137.217 100.482 136.128 95.451 136 90.3499L135.86 90.3199ZM221.77 90.3199C221.633 95.4338 220.53 100.476 218.52 105.18L208.86 101L221.77 90.3199ZM202.77 90.7898L206.95 100.54L196.73 104.72L202.77 90.7898ZM155.41 91.2499L161.41 105.18L151.66 100.54L155.41 91.2499ZM150.76 101.47L162 106.6L166.64 117.28L149.46 119.14L150.76 101.47ZM207.41 101.47L208.81 119.11L190.7 118.65L195.81 106.57L207.41 101.47ZM149.84 101.93L148.44 119.57C144.566 115.77 141.557 111.179 139.62 106.11L149.84 101.93ZM208.84 101.93L218.59 106.11C216.525 110.867 213.701 115.257 210.23 119.11L208.84 101.93ZM194.44 107.04L189.8 117.72L179.12 113.07L194.44 107.04ZM163.33 107.04L176.8 113.04L167.51 116.76L163.33 107.04ZM177.73 113.54L189.34 118.65L179.58 131.18L167.51 117.72L177.73 113.54ZM166.12 118.65L162 128.89C157.291 126.991 153.023 124.146 149.46 120.53L166.12 118.65ZM167.05 118.65L178.66 132.11C173.217 132.247 167.816 131.135 162.87 128.86L167.05 118.65ZM191.19 119.58L208.37 120.04C204.449 123.764 199.889 126.751 194.91 128.86L191.19 119.58ZM190.26 120.04L194.44 129.33C190.076 130.754 185.569 131.696 181 132.14L190.26 120.04Z" fill="#231F20" stroke="#231F20" stroke-miterlimit="10"/>
<path fill-rule="evenodd" clip-rule="evenodd" d="M300.34 44.2006C300.342 52.8342 297.784 61.2744 292.989 68.4539C288.193 75.6335 281.377 81.2298 273.401 84.535C265.425 87.8403 256.648 88.7062 248.18 87.0231C239.713 85.34 231.934 81.1835 225.828 75.0793C219.723 68.9752 215.565 61.1975 213.88 52.7299C212.194 44.2624 213.058 35.4853 216.362 27.5088C219.665 19.5322 225.26 12.7144 232.438 7.91763C239.617 3.12087 248.056 0.560576 256.69 0.560576C262.423 0.553998 268.101 1.67822 273.4 3.86889C278.698 6.05955 283.512 9.27363 287.566 13.3272C291.621 17.3807 294.836 22.1941 297.028 27.4917C299.22 32.7894 300.345 38.4674 300.34 44.2006Z" stroke="#231F20" stroke-miterlimit="10"/>
<path d="M256.22 0.269541C247.496 0.271519 238.969 2.86021 231.717 7.70828C224.464 12.5564 218.812 19.4461 215.475 27.5063C212.138 35.5665 211.266 44.4353 212.969 52.9911C214.672 61.547 218.874 69.4057 225.043 75.5736C231.212 81.7415 239.072 85.9415 247.628 87.6427C256.185 89.3439 265.053 88.4698 273.113 85.1309C281.172 81.792 288.061 76.1383 292.907 68.8847C297.753 61.6311 300.34 53.1033 300.34 44.3796C300.343 38.5854 299.203 32.8475 296.987 27.494C294.77 22.1404 291.521 17.2763 287.423 13.1797C283.325 9.08301 278.461 5.83421 273.106 3.61899C267.752 1.40378 262.014 0.265598 256.22 0.269541ZM255.76 1.19954L244.61 15.1295L240 3.99954C245.08 2.58954 250.19 1.19954 255.76 1.19954ZM257.61 1.19954C262.548 1.14028 267.445 2.09321 272 3.99954L267.82 14.2195L257.61 1.19954ZM256.69 2.11955L267.37 15.5895L255.76 20.6995L245.54 16.5195L256.69 2.11955ZM272.94 4.44954C278.116 6.65769 282.839 9.80393 286.87 13.7295L268.76 14.6595L272.94 4.44954ZM239.51 4.90955L243.68 15.5895L226 13.7295C229.815 9.85054 234.424 6.84188 239.51 4.90955ZM226 14.6595L244.11 16.5195L239.47 27.1995L227.39 32.3095L226 14.6595ZM225.07 14.6595L227 31.8395L216.78 27.6595C218.777 22.8732 221.596 18.4734 225.11 14.6595H225.07ZM286.83 14.6595L285 32.3095L273.39 27.6595L268.29 15.5895L286.83 14.6595ZM288.22 15.1295C291.539 19.0968 294.347 23.4641 296.58 28.1295L286.36 32.3095L288.22 15.1295ZM267.33 16.5195L272 27.1995L257.14 21.1995L267.33 16.5195ZM245.04 17.4495L253.86 21.1595L240.86 26.7295L245.04 17.4495ZM255.72 21.6295L272.9 28.6295L279.9 44.8796L272.9 61.1395L255.72 68.1395L240.39 61.1395L233.39 45.3496L240.82 28.1695L255.72 21.6295ZM239 28.6295L232.5 43.4896L228.32 33.2795L239 28.6295ZM216.25 29.0996L226.46 33.2795L213.46 43.9596C213.448 38.8582 214.409 33.8013 216.29 29.0595L216.25 29.0996ZM274.25 29.0996L284.47 33.2795L280.37 42.9995L274.25 29.0996ZM296.54 29.0996C298.403 33.8315 299.35 38.8742 299.33 43.9596L286.33 33.2795L296.54 29.0996ZM227.35 33.7396L232 44.8796L227.35 55.0996L214 44.3796L227.35 33.7396ZM285.4 33.7396L298.4 44.4195L285.4 55.0996L280.75 43.9596L285.4 33.7396ZM213.4 45.3496L227 55.9995L216.78 60.1795C214.545 55.5456 213.422 50.4539 213.5 45.3095L213.4 45.3496ZM299.31 45.3496C299.167 50.4627 298.065 55.5035 296.06 60.2096L286.4 55.9995L299.31 45.3496ZM280.31 45.8095L284.49 55.5595L274.27 59.7396L280.31 45.8095ZM232.48 46.2795L238.48 60.2096L228.73 55.5595L232.48 46.2795ZM228.3 56.9596L239.51 61.9995L244.15 72.6795L227 74.5595L228.3 56.9596ZM284.95 56.9596L286.34 74.5995L268.24 74.1395L273.4 61.9995L284.95 56.9596ZM226.95 56.9596L225.55 74.5995C221.678 70.7978 218.67 66.2071 216.73 61.1395L226.95 56.9596ZM286.38 57.4195L296.14 61.5996C294.075 66.3566 291.252 70.747 287.78 74.5995L286.38 57.4195ZM272 61.9995L267.36 72.6795L256.68 68.0295L272 61.9995ZM240.89 62.4596L254.35 68.4595L245.07 72.1695L240.89 62.4596ZM255.28 68.9595L266.89 74.0695L257.14 86.6095L245.07 73.1395L255.28 68.9595ZM243.21 73.5995L239 83.8495C234.293 81.9484 230.025 79.1033 226.46 75.4895L243.21 73.5995ZM244.6 74.0695L256.21 87.5295C250.767 87.6696 245.365 86.5577 240.42 84.2795L244.6 74.0695ZM268.75 74.5295L285.93 74.9995C282.005 78.7234 277.443 81.7109 272.46 83.8195L268.75 74.5295ZM267.82 74.9995L272 84.2795C267.627 85.7041 263.109 86.6399 258.53 87.0695L267.82 74.9995Z" fill="#231F20" stroke="#231F20" stroke-miterlimit="10"/>
<path fill-rule="evenodd" clip-rule="evenodd" d="M223.72 177.939C223.72 186.572 221.16 195.012 216.364 202.19C211.567 209.368 204.75 214.963 196.774 218.266C188.798 221.57 180.022 222.435 171.554 220.75C163.087 219.066 155.309 214.909 149.205 208.804C143.1 202.7 138.943 194.922 137.259 186.455C135.574 177.987 136.439 169.211 139.743 161.235C143.046 153.259 148.641 146.442 155.819 141.645C162.998 136.849 171.437 134.289 180.07 134.289C185.804 134.284 191.482 135.409 196.78 137.601C202.079 139.793 206.893 143.008 210.947 147.062C215.001 151.116 218.216 155.93 220.408 161.229C222.6 166.527 223.725 172.205 223.72 177.939Z" stroke="#231F20" stroke-miterlimit="10"/>
<path d="M179.6 134C170.873 134 162.343 136.588 155.087 141.436C147.831 146.285 142.177 153.176 138.837 161.238C135.498 169.301 134.625 178.172 136.328 186.731C138.032 195.29 142.235 203.151 148.406 209.321C154.577 215.491 162.44 219.692 170.999 221.393C179.558 223.095 188.429 222.22 196.491 218.879C204.553 215.538 211.443 209.881 216.289 202.624C221.136 195.368 223.722 186.837 223.72 178.11C223.723 172.316 222.583 166.578 220.367 161.224C218.15 155.871 214.9 151.007 210.803 146.91C206.705 142.813 201.84 139.565 196.486 137.349C191.132 135.134 185.394 133.996 179.6 134ZM179.14 134.93L168 148.86L163.36 137.71C168.46 136.32 173.57 134.93 179.14 134.93ZM180.53 134.93C185.469 134.868 190.369 135.814 194.93 137.71L191.21 147.93L180.53 134.93ZM180.07 135.86L190.75 149.32L179.14 154.43L168.92 150.25L180.07 135.86ZM196.32 138.18C201.496 140.392 206.219 143.541 210.25 147.47L192.14 148.4L196.32 138.18ZM162.42 138.64L166.6 149.32L149 147.47C152.947 143.795 157.483 140.81 162.42 138.64ZM149.42 148.39L167.53 150.25L162.89 160.93L150.81 166L149.42 148.39ZM148.03 148.86L149.89 166L139.67 161.82C141.788 157.11 144.595 152.742 148 148.86H148.03ZM210.25 148.86L208.39 166.5L196.78 161.86L191.68 149.79L210.25 148.86ZM211.18 148.86C214.496 152.829 217.305 157.196 219.54 161.86L209.32 166L211.18 148.86ZM190.75 150.25L195.39 160.93L180.53 154.93L190.75 150.25ZM168.46 151.18L177.28 154.9L164.28 160.47L168.46 151.18ZM178.68 155.36L195.86 162.36L202.86 178.61L195.86 194.4L178.68 201.4L163.35 194.4L156.35 178.61L163.78 161.43L178.68 155.36ZM162.42 162.36L155.92 177.21L151.74 167L162.42 162.36ZM139.21 162.82L149.42 167L136.42 177.68C136.42 172.54 137.81 167.43 139.21 162.79V162.82ZM197.21 162.82L207.46 167L203.29 176.75L197.21 162.82ZM219.96 162.82C221.823 167.552 222.769 172.595 222.75 177.68L209.75 167L219.96 162.82ZM150.77 167.46L155.42 178.61L150.77 188.82L137.31 178.14L150.77 167.46ZM208.82 167.93L221.82 178.61L208.82 189.29L204.17 178.14L208.82 167.93ZM136.42 179L149.89 189.68L139.67 193.86C137.827 189.104 136.731 184.091 136.42 179ZM222.79 179C222.653 184.114 221.55 189.156 219.54 193.86L209.79 189.68L222.79 179ZM203.79 179.93L207.97 189.68L197.75 193.86L203.79 179.93ZM155.96 179.93L161.96 193.86L152.21 189.22L155.96 179.93ZM151.78 190.61L162.93 195.72L167.57 206.4L150.39 208.26L151.78 190.61ZM208.43 190.61L209.83 208.26L191.72 207.79L196.82 195.72L208.43 190.61ZM150.43 190.61L149 208.3C145.122 204.498 142.11 199.903 140.17 194.83L150.43 190.61ZM209.43 191.08L219.18 195.25C217.121 200.008 214.301 204.399 210.83 208.25L209.43 191.08ZM195.5 195.72L190.86 206.4L180.18 201.76L195.5 195.72ZM163.93 196.18L177.39 202.18L168 206L163.93 196.18ZM178.79 202.68L190.39 207.79L180.64 220.33L168.46 206.9L178.79 202.68ZM166.71 207.33L162.53 217.54C157.825 215.645 153.56 212.803 150 209.19L166.71 207.33ZM168.1 207.79L179.6 221.3C174.161 221.436 168.763 220.324 163.82 218.05L168.1 207.79ZM192.25 208.26L209.43 208.72C205.51 212.445 200.95 215.433 195.97 217.54L192.25 208.26ZM190.86 208.72L195.04 218.01C190.665 219.425 186.148 220.358 181.57 220.79L190.86 208.72Z" fill="#231F20" stroke="#231F20" stroke-miterlimit="10"/>
<path fill-rule="evenodd" clip-rule="evenodd" d="M299.87 223.441C299.872 232.074 297.313 240.515 292.518 247.694C287.723 254.874 280.907 260.47 272.931 263.775C264.955 267.081 256.178 267.946 247.71 266.263C239.242 264.58 231.464 260.424 225.358 254.32C219.253 248.215 215.094 240.438 213.409 231.97C211.724 223.503 212.588 214.726 215.892 206.749C219.195 198.772 224.79 191.955 231.968 187.158C239.147 182.361 247.586 179.801 256.22 179.801C261.953 179.794 267.631 180.918 272.929 183.109C278.228 185.3 283.042 188.514 287.096 192.567C291.151 196.621 294.366 201.434 296.558 206.732C298.75 212.03 299.875 217.708 299.87 223.441Z" stroke="#231F20" stroke-miterlimit="10"/>
<path d="M255.76 179.51C247.036 179.51 238.508 182.097 231.254 186.944C224 191.791 218.346 198.68 215.008 206.74C211.669 214.8 210.795 223.669 212.497 232.225C214.199 240.782 218.401 248.641 224.569 254.81C230.738 260.979 238.598 265.18 247.154 266.882C255.711 268.584 264.58 267.711 272.64 264.372C280.7 261.033 287.589 255.38 292.436 248.126C297.283 240.872 299.87 232.344 299.87 223.62C299.873 217.826 298.733 212.089 296.518 206.736C294.302 201.384 291.053 196.52 286.956 192.423C282.86 188.327 277.996 185.078 272.643 182.862C267.29 180.646 261.553 179.507 255.76 179.51ZM255.29 180.44L244.15 194.37L239.51 183.22C244.61 181.83 249.72 180.44 255.29 180.44ZM256.69 180.44C261.626 180.374 266.524 181.32 271.08 183.22L266.9 193.44L256.69 180.44ZM256.22 181.36L266.9 194.83L255.29 199.94L245.08 195.76L256.22 181.36ZM272.47 183.69C277.649 185.904 282.373 189.061 286.4 193L268.3 193.93L272.47 183.69ZM238.58 184.15L242.76 194.83L225.11 193C229.071 189.314 233.625 186.322 238.58 184.15ZM225.58 193.9L243.69 195.76L239 206.44L227 211.55L225.58 193.9ZM224.19 194.37L226 211.55L215.78 207.37C217.919 202.643 220.75 198.262 224.18 194.37H224.19ZM286.41 194.37L284.55 212L272.94 207.36L267.83 195.28L286.41 194.37ZM287.34 194.37C290.659 198.337 293.467 202.704 295.7 207.37L285.49 211.55L287.34 194.37ZM266.91 195.76L271.56 206.44L256.7 200.44L266.91 195.76ZM244.62 196.69L253.45 200.4L240.45 205.97L244.62 196.69ZM254.84 200.87L272.02 207.87L279.02 224.12L272.02 240.38L254.84 247.38L239.52 240.38L232.52 224.59L240 207.37L254.84 200.87ZM238.59 207.87L232.09 222.73L227.91 212.52L238.59 207.87ZM215.37 208.34L225.58 212.52L212.58 223.2C212.57 218.05 214 212.94 215.36 208.3L215.37 208.34ZM273.37 208.34L283.59 212.52L279.41 222.27L273.37 208.34ZM296.13 208.34C297.985 213.074 298.928 218.116 298.91 223.2L285.91 212.52L296.13 208.34ZM227 212.94L231.64 224.08L227 234.3L213.5 223.62L227 212.94ZM285 213.4L298 224.08L285 234.76L280.36 223.62L285 213.4ZM212.56 224.55L226 235.23L215.78 239.41C213.961 234.648 212.879 229.637 212.57 224.55H212.56ZM298.93 224.55C298.792 229.664 297.689 234.705 295.68 239.41L285.93 235.23L298.93 224.55ZM279.93 225.48L284.11 235.23L273.9 239.41L279.93 225.48ZM232.11 225.48L238.11 239.41L228.36 234.76L232.11 225.48ZM227.93 236.16L239 241.27L243.68 252L226.5 253.8L227.93 236.16ZM284.58 236.16L285.97 253.8L267.86 253.34L272.97 241.27L284.58 236.16ZM226.53 236.16L225.14 253.8C221.268 249.998 218.26 245.407 216.32 240.34L226.53 236.16ZM285.53 236.62L295.28 240.8C293.215 245.557 290.392 249.947 286.92 253.8L285.53 236.62ZM271.6 241.27L266.9 252L256.22 247.35L271.6 241.27ZM240.02 241.73L253.49 247.73L244.2 251.44L240.02 241.73ZM254.88 248.23L266.49 253.34L256.74 265.88L244.66 252.41L254.88 248.23ZM242.81 252.87L238.63 263.09C233.888 261.204 229.588 258.358 226 254.73L242.81 252.87ZM244.2 253.34L255.81 266.8C250.36 266.944 244.951 265.832 240 263.55L244.2 253.34ZM268.35 253.8L285.53 254.27C281.585 257.997 277.002 260.985 272 263.09L268.35 253.8ZM266.95 254.27L271.13 263.55C266.757 264.974 262.239 265.91 257.66 266.34L266.95 254.27Z" fill="#231F20" stroke="#231F20" stroke-miterlimit="10"/>
<path fill-rule="evenodd" clip-rule="evenodd" d="M377.42 177.939C377.42 186.572 374.86 195.012 370.064 202.19C365.267 209.368 358.45 214.963 350.474 218.266C342.498 221.57 333.722 222.435 325.254 220.75C316.787 219.066 309.009 214.909 302.905 208.804C296.8 202.7 292.643 194.922 290.959 186.455C289.275 177.987 290.139 169.211 293.443 161.235C296.747 153.259 302.341 146.442 309.519 141.645C316.698 136.849 325.137 134.289 333.77 134.289C339.504 134.284 345.182 135.409 350.48 137.601C355.779 139.793 360.593 143.008 364.647 147.062C368.701 151.116 371.916 155.93 374.108 161.229C376.3 166.527 377.425 172.205 377.42 177.939Z" stroke="#231F20" stroke-miterlimit="10"/>
<path d="M333.3 134C324.574 134 316.043 136.588 308.787 141.436C301.532 146.285 295.877 153.176 292.538 161.238C289.199 169.301 288.325 178.172 290.029 186.731C291.732 195.29 295.935 203.151 302.106 209.321C308.277 215.491 316.14 219.692 324.699 221.393C333.258 223.095 342.129 222.22 350.191 218.879C358.253 215.538 365.143 209.881 369.989 202.624C374.836 195.368 377.422 186.837 377.42 178.11C377.423 172.316 376.283 166.578 374.067 161.224C371.85 155.871 368.601 151.007 364.503 146.91C360.405 142.813 355.541 139.565 350.187 137.349C344.833 135.134 339.094 133.996 333.3 134ZM332.84 134.93L321.7 148.86L317.05 137.71C322.16 136.32 327.27 134.93 332.84 134.93ZM334.7 134.93C339.636 134.868 344.533 135.814 349.09 137.71L344.91 147.93L334.7 134.93ZM333.77 135.86L344.45 149.32L332.84 154.43L322.62 150.25L333.77 135.86ZM350 138.18C355.201 140.384 359.948 143.534 364 147.47L345.89 148.4L350 138.18ZM316.57 138.64L320.75 149.32L303.1 147.47C306.908 143.589 311.51 140.577 316.59 138.64H316.57ZM303.1 148.39L321.21 150.25L316.57 160.93L304.51 166L303.1 148.39ZM302.17 148.86L304.05 166L293.83 161.82C295.614 156.93 298.471 152.501 302.19 148.86H302.17ZM363.93 148.86L362.07 166.5L350.47 161.86L345.36 149.79L363.93 148.86ZM365.32 148.86C368.64 152.826 371.449 157.194 373.68 161.86L363.49 166L365.32 148.86ZM344.43 150.25L349.07 160.93L334.21 154.93L344.43 150.25ZM322.14 151.18L331 154.9L318 160.47L322.14 151.18ZM332.82 155.36L350 162.36L357 178.61L350 194.86L332.82 201.86L317.5 194.86L310.5 179.07L318 161.86L332.82 155.36ZM316.1 162.36L309.6 177.21L305.44 167L316.1 162.36ZM293.35 162.82L303.59 167L290.59 177.68C290.564 172.585 291.507 167.532 293.37 162.79L293.35 162.82ZM351.35 162.82L361.63 167L357.45 176.75L351.35 162.82ZM373.64 162.82C375.503 167.552 376.45 172.595 376.43 177.68L363.43 167L373.64 162.82ZM304.45 167.46L309.1 178.61L304.45 188.82L290.99 178.14L304.45 167.46ZM362.5 167.93L375.5 178.61L362.5 189.29L357.85 178.14L362.5 167.93ZM290.5 179.07L303.97 189.75L293.75 193.93C291.495 189.285 290.407 184.16 290.58 179L290.5 179.07ZM376.41 179.54C376.271 184.654 375.168 189.695 373.16 194.4L363.41 190.22L376.41 179.54ZM357.41 180L361.59 189.75L351.37 193.93L357.41 180ZM309.58 180.47L315.58 194.4L305.83 189.75L309.58 180.47ZM305.4 190.68L316.55 195.79L321.19 206.47L304.01 208.33L305.4 190.68ZM362.05 190.68L363.45 208.33L345.34 207.86L350.45 195.79L362.05 190.68ZM304.05 190.68L302.66 208.33C298.782 204.528 295.77 199.933 293.83 194.86L304.05 190.68ZM363.49 191.15L373.24 195.32C371.174 200.077 368.351 204.467 364.88 208.32L363.49 191.15ZM349.09 196.25L344.45 206.93L333.77 202.29L349.09 196.25ZM317.98 196.25L331.45 202.25L322.16 206L317.98 196.25ZM332.38 202.75L343.98 207.86L334.23 220.4L322.16 206.9L332.38 202.75ZM320.3 207.4L316.59 217.61C311.882 215.716 307.613 212.874 304.05 209.26L320.3 207.4ZM321.7 207.86L333.3 221.33C327.861 221.466 322.463 220.354 317.52 218.08L321.7 207.86ZM345.84 208.79L363.02 209.25C359.101 212.978 354.541 215.97 349.56 218.08L345.84 208.79ZM344.91 208.79L349.09 218.08C344.719 219.496 340.205 220.428 335.63 220.86L344.91 208.79Z" fill="#231F20" stroke="#231F20" stroke-miterlimit="10"/>
<path fill-rule="evenodd" clip-rule="evenodd" d="M377 88.7809C377 97.414 374.44 105.853 369.644 113.032C364.848 120.21 358.03 125.804 350.054 129.108C342.078 132.412 333.302 133.276 324.835 131.592C316.367 129.908 308.59 125.751 302.485 119.646C296.38 113.542 292.223 105.764 290.539 97.2966C288.855 88.8293 289.719 80.0527 293.023 72.0767C296.327 64.1008 301.921 57.2836 309.1 52.4872C316.278 47.6909 324.717 45.1309 333.35 45.1309C339.084 45.1243 344.763 46.2489 350.062 48.4401C355.361 50.6314 360.176 53.8464 364.23 57.901C368.285 61.9556 371.5 66.7701 373.691 72.069C375.882 77.3678 377.007 83.0468 377 88.7809Z" stroke="#231F20" stroke-miterlimit="10"/>
<path d="M333.3 44.8399C324.576 44.8399 316.047 47.4265 308.793 52.2727C301.538 57.1189 295.883 64.0071 292.542 72.0666C289.202 80.1262 288.326 88.9952 290.025 97.5525C291.724 106.11 295.922 113.971 302.089 120.143C308.255 126.315 316.113 130.52 324.668 132.227C333.224 133.934 342.094 133.066 350.156 129.733C358.219 126.4 365.112 120.751 369.965 113.501C374.818 106.25 377.412 97.7243 377.42 88.9999C377.429 83.2015 376.295 77.4582 374.081 72.0989C371.868 66.7396 368.619 61.8696 364.521 57.7676C360.422 53.6657 355.555 50.4124 350.198 48.1941C344.841 45.9757 339.099 44.8359 333.3 44.8399ZM332.38 46.2399L321.23 60.1699L316.59 48.9999C321.658 47.1894 326.998 46.256 332.38 46.2399ZM334.23 46.2399C339.169 46.1777 344.069 47.1236 348.63 49.0199L344.45 59.2399L334.23 46.2399ZM333.3 47.1699L344 60.6299L332.4 65.7399L322.18 61.5599L333.3 47.1699ZM349.56 49.4899C354.733 51.7041 359.454 54.8496 363.49 58.7699L345.38 59.6999L349.56 49.4899ZM316.12 49.4899L320.3 60.1699L302.66 58.3099C306.84 55.0599 311 51.8099 316.12 49.4899ZM302.66 59.6999L320.77 61.5599L316.12 72.2399L304.05 77.3499L302.66 59.6999ZM301.73 59.6999L303.59 76.8799L293.37 72.7099C295.259 67.8579 298.102 63.434 301.73 59.6999ZM363.95 59.6999L362.09 77.3499L350.49 72.7099L345.38 60.6299L363.95 59.6999ZM364.88 60.1699C368.197 64.1387 371.005 68.5057 373.24 73.1699L363 77.3499L364.88 60.1699ZM344.45 61.0999L349.09 71.7799L334.23 65.7799L344.45 61.0999ZM322.16 62.0299L330.98 65.7399L317.98 71.3099L322.16 62.0299ZM332.38 66.6699L349.56 73.6699L356.56 89.9299L349.56 106.18L332.38 113.18L317.05 106.18L310.05 90.3899L317.48 73.2099L332.38 66.6699ZM315.66 73.6699L309.16 88.5299L305 78.2799L315.66 73.6699ZM292.91 74.1399L303.12 78.3199L290.12 88.9999C290.052 83.8973 291.001 78.8322 292.91 74.0999V74.1399ZM350.91 74.1399L361.13 78.3199L357 87.9999L350.91 74.1399ZM373.2 74.1399C375.066 78.8711 376.016 83.9139 376 88.9999L363 78.3199L373.2 74.1399ZM304.01 78.7799L308.65 89.9299L304.01 100.14L290.54 89.4599L304.01 78.7799ZM362.01 78.7799L375.01 89.4599L362.01 100.14L357.45 88.9999L362.01 78.7799ZM290.01 90.3899L303.59 101L293.37 105.18C291.364 100.485 290.261 95.4536 290.12 90.3499L290.01 90.3899ZM375.91 90.3899C375.773 95.5038 374.671 100.546 372.66 105.25L363 101L375.91 90.3899ZM356.91 90.8599L361.09 100.61L351 104.75L356.91 90.8599ZM309.54 91.3199L315.54 105.25L305.79 100.61L309.54 91.3199ZM305 102L316.14 107.11L320.79 117.79L303.61 119.64L305 102ZM361.65 102L363 119.6L344.89 119.14L350 107.07L361.65 102ZM304.07 102L302.68 119.64C298.8 115.843 295.788 111.251 293.85 106.18L304.07 102ZM363.07 102.46L372.82 106.64C370.762 111.398 367.941 115.789 364.47 119.64L363.07 102.46ZM348.68 107.11L344 117.75L333.3 113.1L348.68 107.11ZM317.57 107.57L331.03 113.57L321.75 117.28L317.57 107.57ZM331.96 114.07L343.57 119.18L333.82 131.72L321.7 118.21L331.96 114.07ZM320.35 118.72L316.17 128.93C311.464 127.032 307.199 124.186 303.64 120.57L320.35 118.72ZM321.28 119.18L332.89 132.65C327.448 132.785 322.047 131.673 317.1 129.4L321.28 119.18ZM345.43 119.65L362.61 120.11C358.684 123.831 354.121 126.819 349.14 128.93L345.43 119.65ZM344.5 120.11L348.68 129.4C344.305 130.816 339.788 131.749 335.21 132.18L344.5 120.11Z" fill="#231F20" stroke="#231F20" stroke-miterlimit="10"/>
<path fill-rule="evenodd" clip-rule="evenodd" d="M300.34 133.361C300.34 141.994 297.78 150.433 292.984 157.612C288.187 164.79 281.37 170.385 273.394 173.688C265.418 176.992 256.642 177.856 248.174 176.172C239.707 174.488 231.929 170.331 225.825 164.226C219.72 158.122 215.563 150.344 213.879 141.877C212.195 133.409 213.059 124.633 216.363 116.657C219.666 108.681 225.261 101.864 232.439 97.0673C239.618 92.271 248.057 89.711 256.69 89.711C262.424 89.7044 268.103 90.8289 273.402 93.0202C278.701 95.2115 283.515 98.4265 287.57 102.481C291.625 106.536 294.84 111.35 297.031 116.649C299.222 121.948 300.347 127.627 300.34 133.361Z" stroke="#231F20" stroke-miterlimit="10"/>
<path d="M256.22 89.4199C247.494 89.4199 238.964 92.0075 231.708 96.8555C224.453 101.703 218.798 108.594 215.459 116.656C212.119 124.718 211.245 133.589 212.948 142.147C214.65 150.706 218.852 158.567 225.023 164.737C231.193 170.908 239.054 175.11 247.613 176.812C256.171 178.515 265.042 177.641 273.104 174.302C281.166 170.962 288.057 165.307 292.905 158.052C297.753 150.796 300.34 142.266 300.34 133.54C300.344 127.745 299.206 122.006 296.99 116.651C294.774 111.297 291.524 106.431 287.426 102.334C283.329 98.2359 278.463 94.9862 273.109 92.7703C267.754 90.5545 262.015 89.416 256.22 89.4199ZM255.76 90.3499L244.61 104.28L240 93.1399C245.046 91.2796 250.383 90.3348 255.76 90.3499ZM257.61 90.3499C262.55 90.2861 267.451 91.2357 272.01 93.1399L267.83 103.35L257.61 90.3499ZM256.69 91.2799L267.37 104.75L255.76 109.85L245.54 105.67L256.69 91.2799ZM272.94 93.5999C278.116 95.8117 282.839 98.9613 286.87 102.89L268.76 103.82L272.94 93.5999ZM239.51 93.5999L243.68 104.28L226 102.42C230.056 98.8451 234.606 95.8745 239.51 93.5999ZM226 103.82L244.11 105.67L239.47 116.35L227.39 121.46L226 103.82ZM225.07 103.82L227 121L216.78 116.82C218.664 111.975 221.496 107.556 225.11 103.82H225.07ZM286.83 103.82L285 121.46L273.39 116.82L268.29 104.75L286.83 103.82ZM288.22 104.28C291.534 108.25 294.342 112.617 296.58 117.28L286.36 121.46L288.22 104.28ZM267.33 105.67L272 116.35L257.14 110.35L267.33 105.67ZM245.04 106.14L253.86 109.85L240.86 115.43L245.04 106.14ZM255.72 110.78L272.9 117.78L279.4 134.03L272.4 150.28L255.22 157.28L239.9 150.28L232.9 134.49L240.33 117.31L255.72 110.78ZM239 117.78L232.5 132.64L228.32 122.42L239 117.78ZM216.25 118.24L226.46 122.42L213.46 133.1C213.451 128.002 214.411 122.949 216.29 118.21L216.25 118.24ZM274.25 118.24L284.47 122.42L280.29 132.17L274.25 118.24ZM296.54 118.24C298.402 122.972 299.349 128.015 299.33 133.1L286.33 122.42L296.54 118.24ZM227.35 122.89L232.08 134L227.43 144.22L214.43 134L227.35 122.89ZM285.4 122.89L298.4 133.57L285.4 144.25L280.75 133.1L285.4 122.89ZM213.4 134.49L227 145.14L216.78 149.32C214.544 144.69 213.421 139.601 213.5 134.46L213.4 134.49ZM299.31 134.49C299.168 139.603 298.066 144.644 296.06 149.35L286.3 145.17L299.31 134.49ZM280.31 134.96L284.49 144.71L274.27 148.89L280.31 134.96ZM232.48 135.42L238.48 149.35L228.73 144.71L232.48 135.42ZM228.3 146.1L239.45 151.21L244.09 161.89L227 163.72L228.3 146.1ZM284.95 146.1L286.34 163.75L268.24 163.28L273.34 151.21L284.95 146.1ZM226.95 146.1L225.55 163.75C221.678 159.944 218.67 155.351 216.73 150.28L226.95 146.1ZM286.38 146.57L296.14 150.75C294.073 155.506 291.249 159.896 287.78 163.75L286.38 146.57ZM272 151.18L267.36 161.86L256.68 157.22L272 151.18ZM240.89 151.65L254.35 157.65L245.07 161.37L240.89 151.65ZM255.28 158.15L266.89 163.25L257.14 175.79L245.07 162.33L255.28 158.15ZM243.21 162.79L239 173C234.295 171.095 230.028 168.25 226.46 164.64L243.21 162.79ZM244.6 163.25L256.21 176.72C250.768 176.855 245.367 175.743 240.42 173.47L244.6 163.25ZM268.75 163.72L285.93 164.18C282.008 167.902 277.449 170.89 272.47 173L268.75 163.72ZM267.82 164.18L272 173.47C267.624 174.885 263.108 175.821 258.53 176.26L267.82 164.18Z" fill="#231F20" stroke="#231F20" stroke-miterlimit="10"/>
</g>
<defs>
<clipPath id="clip0_8473_29">
<rect width="512" height="268" fill="white"/>
</clipPath>
</defs>
</svg>
