<svg width="512" height="220" viewBox="0 0 512 220" fill="none" xmlns="http://www.w3.org/2000/svg">
<g clip-path="url(#clip0_8473_67)">
<path d="M488.75 132.05H16.8901C14.6695 132.059 12.4691 131.629 10.4157 130.783C8.36231 129.938 6.49669 128.694 4.92646 127.124C3.35624 125.554 2.11248 123.688 1.26696 121.635C0.421436 119.581 -0.00911469 117.381 0.000146283 115.16V104.84C-0.00250838 102.624 0.432918 100.429 1.2814 98.3811C2.12988 96.3335 3.37467 94.4738 4.94424 92.9089C6.51381 91.3439 8.37719 90.1047 10.4273 89.2622C12.4774 88.4198 14.6737 87.9909 16.8901 88.0001H488.28C490.501 87.9909 492.701 88.4214 494.755 89.267C496.808 90.1125 498.674 91.3562 500.244 92.9265C501.814 94.4967 503.058 96.3623 503.903 98.4157C504.749 100.469 505.179 102.67 505.17 104.89V115.21C505.265 117.411 504.908 119.608 504.121 121.666C503.335 123.725 502.136 125.6 500.598 127.177C499.06 128.755 497.215 130.001 495.178 130.839C493.14 131.677 490.953 132.089 488.75 132.05Z" stroke="#231F20" stroke-width="1.5" stroke-miterlimit="10"/>
<path d="M252.82 217.41C312.141 217.41 360.23 169.321 360.23 110C360.23 50.6789 312.141 2.58984 252.82 2.58984C193.499 2.58984 145.41 50.6789 145.41 110C145.41 169.321 193.499 217.41 252.82 217.41Z" stroke="#231F20" stroke-miterlimit="10"/>
<path d="M115.58 132.999C118.516 133.02 121.427 132.458 124.144 131.344C126.861 130.231 129.33 128.589 131.407 126.513C133.483 124.437 135.127 121.969 136.241 119.253C137.356 116.536 137.92 113.625 137.9 110.689C137.869 104.779 135.507 99.1203 131.328 94.9413C127.149 90.7623 121.49 88.4007 115.58 88.3691C109.693 88.4744 104.077 90.8598 99.9139 95.023C95.7507 99.1862 93.3653 104.802 93.2601 110.689C92.8301 122.679 103.14 132.999 115.58 132.999ZM115.58 132.149L121.16 124.849L123.31 130.429C120.937 131.692 118.264 132.28 115.58 132.129V132.149ZM114.72 132.149C112.231 132.177 109.759 131.739 107.43 130.859L109.57 125.709L114.72 132.149ZM115.15 131.719L110 124.829L116 122.249L121.15 124.399L115.15 131.719ZM107 130.409C104.42 129.119 101.85 127.829 100.13 125.689L109.13 125.259L107 130.409ZM124.17 130.409L122 124.829L131 125.689C129.122 127.773 126.783 129.39 124.17 130.409ZM131.03 125.259L121.59 124.399L123.74 118.819L129.74 116.239L131.03 125.259ZM131.46 125.259L130.61 116.669L135.76 118.819C134.632 121.155 133.185 123.322 131.46 125.259ZM99.7 125.259L100.56 116.259L106.56 118.839L109.13 124.839L99.7 125.259ZM99.27 125.259C97.5589 123.318 96.1221 121.151 95.0001 118.819L100.15 116.669L99.27 125.259ZM109.57 124.399L107.43 118.819L115.15 121.819L109.57 124.399ZM121.16 123.969L116.44 122.249L122.88 119.249L121.16 123.969ZM116 121.819L107.42 118.389L103.55 110.239L106.99 102.079L115.99 98.6491L123.72 102.079L127.15 110.239L123.29 118.819L116 121.819ZM124.16 118.389L127.59 110.669L129.74 115.819L124.16 118.389ZM135.75 117.959L130.6 115.819L137.03 110.239C137.533 112.895 137.084 115.643 135.76 117.999L135.75 117.959ZM106.13 117.959L101 115.819L103.15 110.669L106.13 117.959ZM95.0001 117.999C94.0835 115.531 93.6457 112.911 93.71 110.279L100.15 115.859L95.0001 117.999ZM130.2 115.429L127.62 109.849L129.77 104.699L136.63 110.279L130.2 115.429ZM100.58 115.429L93.71 110.279L100.15 104.699L102.73 110.279L100.58 115.429ZM137.49 109.849L130.63 104.269L135.78 102.119C136.61 104.659 137.47 106.799 137.47 109.809L137.49 109.849ZM93.28 109.849C93.224 107.159 93.8138 104.494 95.0001 102.079L100.15 104.229L93.28 109.849ZM103.16 109.419L101 104.229L106.15 102.079L103.16 109.419ZM127.62 109.419L124.62 102.119L129.77 104.269L127.62 109.419ZM129.77 103.839L124.19 101.259L122 95.6391L130.59 94.7791L129.77 103.839ZM100.58 103.839L100.15 94.8391L109.15 95.2691L106.58 101.269L100.58 103.839ZM130.2 103.839L131.05 94.8391C133.005 96.8441 134.605 99.1673 135.78 101.709L130.2 103.839ZM100.15 103.839L95.4301 101.689C96.3508 99.2437 97.8181 97.041 99.7201 95.2491L100.15 103.839ZM107.45 101.259L110.02 95.6791L115.6 98.2591L107.45 101.259ZM123.33 100.829L116.46 97.8291L121.18 96.1091L123.33 100.829ZM116.03 97.8291L110.03 95.2491L115.18 88.8192L121.18 95.6791L116.03 97.8291ZM122.03 95.2491L124.18 90.0992C126.514 91.23 128.681 92.6769 130.62 94.3991L122.03 95.2491ZM121.6 95.2491L115.6 88.3891C118.418 88.2946 121.217 88.8812 123.76 90.0992L121.6 95.2491ZM109.15 94.8192L100.15 94.3991C102.168 92.5713 104.494 91.1155 107.02 90.0992L109.15 94.8192ZM109.58 94.3991L107.44 89.6691C109.624 88.7958 111.958 88.3608 114.31 88.3891L109.58 94.3991Z" fill="#231F20"/>
<path d="M65.0001 132.51C67.8932 132.524 70.7606 131.965 73.4363 130.865C76.1121 129.764 78.5431 128.144 80.5889 126.099C82.6347 124.053 84.2547 121.622 85.3551 118.946C86.4555 116.27 87.0146 113.403 87.0001 110.51C86.9713 104.679 84.6458 99.0951 80.5276 94.9675C76.4094 90.84 70.8305 88.5018 65.0001 88.4598C59.1937 88.5778 53.6587 90.9403 49.5568 95.0516C45.4549 99.1628 43.1049 104.703 43.0001 110.51C42.5001 122.34 52.6701 132.51 65.0001 132.51ZM65.0001 131.67L70.5101 124.46L72.6001 130C70.2653 131.236 67.638 131.813 65.0001 131.67ZM64.1501 131.67C61.688 131.696 59.2426 131.262 56.9401 130.39L59.0001 125.31L64.1501 131.67ZM64.5701 131.24L59.4801 124.46L65.4201 121.92L70.4801 124L64.5701 131.24ZM56.4901 130C53.9401 128.73 51.4001 127.46 49.7001 125.34L58.6101 124.91L56.4901 130ZM73.4401 130L71.3301 124.49L80.2301 125.34C78.3636 127.404 76.0376 129.001 73.4401 130ZM80.2301 124.91L70.9001 124L73.0001 118.52L79.0001 116L80.2301 124.91ZM80.6501 124.91L79.8001 116.43L84.8901 118.55C83.776 120.846 82.3491 122.976 80.6501 124.88V124.91ZM49.2801 124.91L50.1301 116.01L56.0601 118.55L58.6101 124.49L49.2801 124.91ZM48.8601 124.91C47.1554 122.999 45.728 120.858 44.6201 118.55L49.7001 116.43L48.8601 124.91ZM59.0001 124L56.8801 118.48L64.5101 121.48L59.0001 124ZM70.4501 123.57L65.7801 121.88L72.1401 118.88L70.4501 123.57ZM65.3601 121.45L56.8801 118.06L53.0701 110.01L56.4901 102L65.3901 98.6098L73.0001 102L76.3901 110.06L72.5801 118.53L65.3601 121.45ZM73.3601 118.06L76.7601 110.43L79.0001 115.56L73.3601 118.06ZM84.8101 117.64L79.7201 115.52L86.0801 110.01C86.6015 112.627 86.1799 115.344 84.8901 117.68L84.8101 117.64ZM55.5601 117.64L50.4701 115.52L52.5901 110.43L55.5601 117.64ZM44.5601 117.64C43.6532 115.201 43.2188 112.611 43.2801 110.01L49.6401 115.52L44.5601 117.64ZM79.3201 115.09L76.7801 109.58L79.0001 104.53L85.7801 110.05L79.3201 115.09ZM50.0701 115.09L43.2801 110.01L49.6401 104.49L52.1901 110.01L50.0701 115.09ZM86.5301 109.58L79.7401 104.07L84.8901 102C85.7401 104.53 86.5901 106.65 86.5901 109.62L86.5301 109.58ZM42.8601 109.58C42.8086 106.937 43.3915 104.321 44.5601 101.95L49.6401 104.07L42.8601 109.58ZM52.6101 109.16L50.4901 104.07L55.6401 102L52.6101 109.16ZM76.7801 109.16L73.7801 101.95L79.0001 104.11L76.7801 109.16ZM79.0001 103.69L73.4801 101.14L71.3701 95.6298L79.8401 94.7798L79.0001 103.69ZM50.1701 103.69L49.7401 94.7798L58.6501 95.2098L56.1001 101.14L50.1701 103.69ZM79.4201 103.69L80.2701 94.7798C82.2012 96.7593 83.7775 99.0561 84.9301 101.57L79.4201 103.69ZM49.7401 103.69L45.0001 101.57C45.9014 99.1499 47.3529 96.9726 49.2401 95.2098L49.7401 103.69ZM56.9501 101.14L59.4901 95.6298L65.0001 98.1698L56.9501 101.14ZM72.6401 100.72L65.8501 97.7198L70.5201 96.0198L72.6401 100.72ZM65.4301 97.7198L59.4901 95.1798L64.5801 88.8198L70.5201 95.5998L65.4301 97.7198ZM71.3701 95.1798L73.4801 90.0898C75.7864 91.2014 77.9269 92.6284 79.8401 94.3298L71.3701 95.1798ZM70.9401 95.1798L65.0001 88.4198C67.7646 88.3358 70.5086 88.9189 73.0001 90.1198L70.9401 95.1798ZM58.6501 94.7498L49.7401 94.3298C51.7342 92.5252 54.0333 91.0896 56.5301 90.0898L58.6501 94.7498ZM59.0701 94.3298L56.9501 89.6698C59.103 88.7985 61.4076 88.3634 63.7301 88.3898L59.0701 94.3298Z" fill="#231F20"/>
<path d="M136.49 128.761C136.49 128.11 136.683 127.474 137.045 126.933C137.406 126.392 137.92 125.97 138.521 125.721C139.122 125.472 139.784 125.407 140.422 125.534C141.06 125.661 141.646 125.974 142.107 126.434C142.567 126.894 142.88 127.481 143.007 128.119C143.134 128.757 143.069 129.419 142.82 130.02C142.571 130.621 142.149 131.135 141.608 131.496C141.067 131.858 140.431 132.051 139.78 132.051C137.9 132.511 136.49 131.111 136.49 128.761Z" fill="white" stroke="#888888" stroke-width="0.5" stroke-miterlimit="10"/>
<path d="M137.9 92.6496C137.898 91.9985 138.09 91.3614 138.45 90.8191C138.81 90.2767 139.323 89.8535 139.924 89.6029C140.525 89.3524 141.187 89.2858 141.826 89.4116C142.465 89.5374 143.052 89.85 143.513 90.3097C143.974 90.7694 144.288 91.3556 144.416 91.9941C144.544 92.6325 144.479 93.2946 144.231 93.8963C143.982 94.4981 143.56 95.0125 143.019 95.3744C142.478 95.7364 141.841 95.9296 141.19 95.9296C140.756 95.9405 140.324 95.8633 139.921 95.7024C139.517 95.5416 139.151 95.3005 138.843 94.9939C138.535 94.6872 138.293 94.3214 138.131 93.9184C137.969 93.5155 137.891 93.0838 137.9 92.6496Z" fill="white" stroke="#888888" stroke-width="0.5" stroke-miterlimit="10"/>
<path d="M437.63 88C431.8 88.0314 426.218 90.3577 422.091 94.4753C417.964 98.5929 415.625 104.17 415.58 110C415.58 115.847 417.903 121.454 422.037 125.588C426.171 129.722 431.778 132.045 437.625 132.045C443.472 132.045 449.079 129.722 453.213 125.588C457.347 121.454 459.67 115.847 459.67 110C459.625 104.172 457.288 98.5962 453.163 94.4788C449.038 90.3615 443.458 88.034 437.63 88ZM437.2 88.85L431.69 96L429.57 90.49C431.912 89.2414 434.55 88.657 437.2 88.8V88.85ZM438.05 88.85C440.511 88.8261 442.955 89.2567 445.26 90.12L443.14 95.21L438.05 88.85ZM437.63 89.28L442.71 96.06L436.78 98.6L431.69 96.48L437.63 89.28ZM445.68 90.55C448.23 91.82 450.77 93.09 452.47 95.21L443.56 95.64L445.68 90.55ZM428.68 90.55L430.8 96.06L421.9 95.21C423.771 93.1249 426.108 91.5111 428.72 90.5L428.68 90.55ZM421.9 95.64L431.23 96.48L429.11 101.99L423.17 104.54L421.9 95.64ZM421.48 95.64L422.32 104.11L417.24 101.99C418.257 99.6094 419.708 97.439 421.52 95.59L421.48 95.64ZM452.85 95.64L452 104.54L446.07 101.99L443.56 96L452.85 95.64ZM453.27 95.64C454.969 97.5514 456.396 99.6883 457.51 101.99L452.43 104.11L453.27 95.64ZM443.1 96.48L445.64 101.99L437.59 98.6L443.1 96.48ZM431.65 96.91L436.32 98.6L429.53 101.6L431.65 96.91ZM437.2 99L445.68 102.39L449.07 110.44L445.68 118.5L436.78 121.89L429.15 118.89L425.76 110.89L429.57 102.41L437.2 99ZM428.72 102.39L425.33 110L423.21 104.91L428.72 102.39ZM417.28 102.81L422.36 104.93L415.58 110C415.693 107.512 416.269 105.067 417.28 102.79V102.81ZM446.53 102.81L451.62 104.93L449.5 110L446.53 102.81ZM457.53 102.81C458.433 105.25 458.864 107.839 458.8 110.44L452.45 104.93L457.53 102.81ZM422.77 104.93L425.31 110.44L423.19 115.53L416.43 110L422.77 104.93ZM452.02 104.93L458.8 110.44L452.45 115.96L449.9 110.44L452.02 104.93ZM415.56 110.87L422.34 116.38L417.26 118.5C416.5 115.998 415.938 113.44 415.58 110.85L415.56 110.87ZM459.23 110.87C459.277 113.512 458.694 116.128 457.53 118.5L452.45 116.38L459.23 110.87ZM449.48 111.29L451.6 116.38L446.51 118.5L449.48 111.29ZM425.31 111.29L428.31 118.5L423.22 116.38L425.31 111.29ZM423.19 116.8L428.7 119.35L431.25 124.86L422.77 125.71L423.19 116.8ZM452.02 116.8L452.87 125.71L443.54 125.28L446.09 119.35L452.02 116.8ZM422.77 116.8L421.92 125.71C420.125 123.623 418.562 121.346 417.26 118.92L422.77 116.8ZM452.45 116.8L457.53 118.92C456.629 121.34 455.177 123.517 453.29 125.28L452.45 116.8ZM445.24 119.35L442.69 124.86L437.61 122.74L445.24 119.35ZM429.55 119.35L436.34 122.35L431.67 124.05L429.55 119.35ZM436.76 122.74L442.69 125.28L437.61 131.64L431.67 124.86L436.76 122.74ZM430.82 125.28L428.7 130.37C426.16 129.52 424.46 127.83 422.34 126.13L430.82 125.28ZM431.25 125.28L437.18 132.07C434.399 132.162 431.637 131.579 429.13 130.37L431.25 125.28ZM443.54 125.71L452.45 126.13C450.456 127.935 448.157 129.37 445.66 130.37L443.54 125.71ZM443.12 126.13L445.24 130.79C443.084 131.662 440.776 132.098 438.45 132.07L443.12 126.13Z" fill="#231F20"/>
<path d="M391.43 88C385.6 88.0314 380.017 90.3577 375.89 94.4753C371.764 98.5929 369.425 104.17 369.38 110C369.38 115.847 371.702 121.454 375.837 125.588C379.971 129.722 385.578 132.045 391.425 132.045C397.272 132.045 402.879 129.722 407.013 125.588C411.147 121.454 413.47 115.847 413.47 110C413.425 104.172 411.088 98.5962 406.963 94.4788C402.838 90.3615 397.258 88.034 391.43 88ZM391 88.85L385.49 96L383.37 90.49C385.711 89.2404 388.35 88.656 391 88.8V88.85ZM391.85 88.85C394.311 88.8261 396.755 89.2567 399.06 90.12L396.94 95.21L391.85 88.85ZM391.43 89.28L396.51 96.06L390.58 98.6L385.49 96.48L391.43 89.28ZM399.48 90.55C402.02 91.82 404.57 93.09 406.26 95.21L397.36 95.64L399.48 90.55ZM382.48 90.55L384.6 96.06L375.7 95.21C377.571 93.1249 379.907 91.5111 382.52 90.5L382.48 90.55ZM375.7 95.64L385.03 96.48L383 101.94L377 104.49L375.7 95.64ZM375.27 95.64L376.12 104.11L371.04 101.99C372.053 99.6098 373.501 97.4394 375.31 95.59L375.27 95.64ZM406.65 95.64L405.8 104.54L399.86 101.99L397.36 96L406.65 95.64ZM407.07 95.64C408.769 97.5514 410.196 99.6883 411.31 101.99L406.22 104.11L407.07 95.64ZM396.9 96.48L399.44 101.99L391.39 98.6L396.9 96.48ZM385.45 96.91L390.11 98.6L383.33 101.6L385.45 96.91ZM391 99L399.48 102.39L402.87 110.44L399.48 118.5L390.58 121.89L382.95 118.89L379.55 110.89L383.37 102.41L391 99ZM382.52 102.39L379.13 110L377 104.91L382.52 102.39ZM371.08 102.81L376.16 104.93L369.38 110C369.493 107.512 370.069 105.067 371.08 102.79V102.81ZM400.33 102.81L405.42 104.93L403.3 110L400.33 102.81ZM411.33 102.81C412.233 105.25 412.664 107.839 412.6 110.44L406.24 104.93L411.33 102.81ZM376.57 104.93L379.11 110.44L377 115.51L370.23 110L376.57 104.93ZM405.82 104.93L412.6 110.44L406.24 115.96L403.7 110.44L405.82 104.93ZM369.36 110.87L376.14 116.38L371.06 118.5C370.295 115.999 369.733 113.441 369.38 110.85L369.36 110.87ZM413.03 110.87C413.077 113.512 412.494 116.128 411.33 118.5L406.24 116.38L413.03 110.87ZM403.28 111.29L405.4 116.38L400.31 118.5L403.28 111.29ZM379.11 111.29L382.11 118.5L377 116.36L379.11 111.29ZM377 116.78L382.51 119.33L385.06 124.84L376.58 125.69L377 116.78ZM405.83 116.78L406.68 125.69L397.35 125.26L399.89 119.33L405.83 116.78ZM376.58 116.78L375.73 125.69C373.935 123.603 372.372 121.326 371.07 118.9L376.58 116.78ZM406.25 116.78L411.34 118.9C410.439 121.32 408.987 123.497 407.1 125.26L406.25 116.78ZM399.05 119.33L396.5 124.84L391.42 122.72L399.05 119.33ZM383.36 119.33L390.14 122.33L385.48 124.03L383.36 119.33ZM390.57 122.72L396.5 125.26L391.42 131.62L385.48 124.84L390.57 122.72ZM384.63 125.26L382.51 130.35C379.97 129.5 378.27 127.81 376.15 126.11L384.63 125.26ZM385.06 125.26L390.99 132.05C388.208 132.143 385.446 131.56 382.94 130.35L385.06 125.26ZM397.35 125.69L406.25 126.11C404.258 127.912 401.962 129.348 399.47 130.35L397.35 125.69ZM396.93 126.11L399.05 130.77C396.894 131.642 394.586 132.077 392.26 132.05L396.93 126.11Z" fill="#231F20"/>
<path d="M367.27 91.2406C367.28 91.8942 367.095 92.5359 366.739 93.0839C366.382 93.6319 365.871 94.0613 365.269 94.3175C364.668 94.5736 364.004 94.6447 363.362 94.5219C362.72 94.399 362.129 94.0877 361.665 93.6276C361.2 93.1675 360.884 92.5795 360.755 91.9387C360.626 91.2978 360.691 90.6332 360.942 90.0294C361.192 89.4257 361.617 88.9103 362.162 88.5489C362.706 88.1876 363.346 87.9967 364 88.0006C364.429 87.9925 364.856 88.0706 365.254 88.2302C365.652 88.3898 366.015 88.6277 366.32 88.9297C366.624 89.2318 366.866 89.592 367.029 89.9889C367.192 90.3858 367.274 90.8114 367.27 91.2406Z" fill="white" stroke="#888888" stroke-width="0.5" stroke-miterlimit="10"/>
<path d="M365.86 127.82C365.86 128.469 365.667 129.103 365.307 129.642C364.947 130.182 364.434 130.602 363.835 130.85C363.236 131.098 362.576 131.163 361.94 131.037C361.304 130.91 360.719 130.598 360.26 130.139C359.802 129.68 359.489 129.096 359.363 128.46C359.236 127.823 359.301 127.164 359.549 126.565C359.798 125.965 360.218 125.453 360.758 125.093C361.297 124.732 361.931 124.54 362.58 124.54C363.013 124.53 363.444 124.609 363.846 124.77C364.248 124.931 364.614 125.173 364.92 125.479C365.227 125.786 365.468 126.151 365.63 126.553C365.791 126.956 365.869 127.386 365.86 127.82Z" fill="white" stroke="#888888" stroke-width="0.5" stroke-miterlimit="10"/>
<path d="M252.82 0.240234C231.112 0.240234 209.891 6.67754 191.841 18.7381C173.791 30.7987 159.723 47.9409 151.415 67.9969C143.108 88.0529 140.934 110.122 145.169 131.413C149.404 152.705 159.858 172.262 175.208 187.612C190.558 202.962 210.116 213.416 231.407 217.651C252.698 221.886 274.767 219.713 294.823 211.405C314.879 203.098 332.022 189.03 344.082 170.98C356.143 152.93 362.58 131.709 362.58 110C362.543 80.9014 350.967 53.0051 330.391 32.4291C309.815 11.8531 281.919 0.277279 252.82 0.240234ZM251.41 3.06023L224.21 37.7702L213 10.5602C225.214 5.65349 238.248 3.10849 251.41 3.06023ZM255.17 3.06023C267.505 3.43565 279.698 5.79938 291.28 10.0602L281 35.4202L255.17 3.06023ZM253.29 4.93022L279.56 38.2302L250.94 50.4302L226.08 40.1102L253.29 4.93022ZM294.1 11.0002C306.831 16.4962 318.438 24.2933 328.34 34.0002L283.78 36.3502L294.1 11.0002ZM210.61 11.4702L221.39 38.2002L177.77 33.5102C187.449 24.4396 198.541 17.0057 210.61 11.5002V11.4702ZM177.3 36.3602L222.8 41.5202L211.54 67.7902L182 80.4502L177.3 36.3602ZM174.49 36.8302L179.18 79.5102L153.85 69.1902C158.639 57.2041 165.641 46.2264 174.49 36.8302ZM328.81 36.8302L324.12 80.4502L295.5 68.7202L282.84 39.1702L328.81 36.8302ZM331.62 37.3002C340.255 46.8615 347.231 57.7989 352.26 69.6602L327.4 80.0002L331.62 37.3002ZM280.49 40.5802L291.75 67.3202L254.23 51.8402L280.49 40.5802ZM225.15 42.9302L247.66 52.3102L215.3 66.3802L225.15 42.9302ZM250.94 53.2402L293.63 70.6002L311 110.47L293.65 150.34L250.49 167.69L212.49 150.81L195.61 111.41L213.9 69.1902L250.94 53.2402ZM209.67 71.0702L193.72 108.12L182.93 82.7902L209.67 71.0702ZM152.91 72.0102L178.24 82.3302L145.88 109.06C145.763 96.3647 148.152 83.7708 152.91 72.0002V72.0102ZM296.91 72.4802L322.71 83.2602L311.92 107.65L296.91 72.4802ZM353.2 72.4802C357.42 84.2002 360.2 96.4002 360.2 109.53L327.84 82.7902L353.2 72.4802ZM180.59 83.7302L192.31 111.41L181.05 137.21L147.75 110.47L180.59 83.7302ZM325.52 84.2002L357.89 111.41L325.52 138.14L313.8 110.94L325.52 84.2002ZM145.88 112.81L178.71 139.08L153.38 149.4C148.69 138.14 146.34 126 145.88 112.81ZM359.76 112.81C359.3 125.95 356.95 138.14 352.26 149.4L327.87 139.55L359.76 112.81ZM312.39 114.22L323.18 139.08L297.38 149.4L312.39 114.22ZM193.72 115.16L208.26 149.87L183.4 138.61L193.72 115.16ZM182.93 141L210.14 153.19L221.86 180.4L179.65 185.56L182.93 141ZM324.12 141.47L327.4 185.09L282.4 183.21L295.53 153.21L324.12 141.47ZM180.12 141.47L176.83 185.09C167.343 175.469 159.712 164.18 154.32 151.79L180.12 141.47ZM326.93 142.4L351.32 152.25C346.185 164.026 339.042 174.82 330.21 184.15L326.93 142.4ZM291.75 154.6L280 181.77L253.76 170L291.75 154.6ZM213.89 155.07L246.72 170.07L223.72 179.45L213.89 155.07ZM250 171.45L278.61 184.58L254.23 216L224.68 182.22L250 171.45ZM220.45 183.17L210.14 208.5C198.88 203.34 188.14 196.77 179.14 188.33L220.45 183.17ZM223.26 183.64L252.34 216.94C238.856 216.897 225.497 214.354 212.94 209.44L223.26 183.64ZM283.26 185.99L326.41 187.86C316.711 197.014 305.427 204.326 293.11 209.44L283.26 185.99ZM280.91 186.46L290.76 209.91C279.917 213.843 268.527 216.06 257 216.48L280.91 186.46Z" fill="#231F20"/>
<path d="M191.37 168.63L194.19 171.45C195.6 172.85 196.06 175.2 195.13 176.61L187.13 190.21C183.85 195.84 177.28 199.59 173.53 195.84L166 188.33C162.25 184.58 166 178.01 172.1 175.2L186.17 168.2C188.09 166.76 190 167.69 191.37 168.63Z" fill="white" stroke="#888888" stroke-linecap="round"/>
<path d="M313.8 50.9L311 48.08C309.6 46.68 309.13 44.33 310.06 42.93L318.06 29.32C321.34 23.69 327.91 20.41 331.66 23.69L339.17 31.2C342.92 34.95 339.17 41.52 333.07 44.33L319 51.33C318.631 51.6457 318.204 51.8851 317.742 52.0344C317.28 52.1838 316.794 52.2401 316.31 52.2001C315.827 52.1601 315.356 52.0246 314.925 51.8015C314.494 51.5783 314.112 51.2719 313.8 50.9Z" fill="white" stroke="#888888" stroke-linecap="round"/>
<path d="M314.73 168.16L311.92 171C310.51 172.4 310.04 174.75 310.98 176.16L318.98 189.76C322.26 195.39 328.83 199.14 332.58 195.39L340.08 187.88C343.84 184.13 340.08 177.56 333.99 174.75L319.91 167.75C319.167 167.121 318.206 166.812 317.236 166.888C316.266 166.965 315.365 167.422 314.73 168.16Z" fill="white" stroke="#888888" stroke-linecap="round"/>
<path d="M190.9 51.8405L193.72 49.0205C195.13 47.6205 195.6 45.2705 194.66 43.8605L186.66 30.2605C183.38 24.6305 176.81 20.8805 173.06 24.6305L166.06 32.1405C162.31 35.8905 166.06 42.4605 172.16 45.2705L186.23 52.2705C187.15 53.7105 189.5 53.2405 190.9 51.8405Z" fill="white" stroke="#888888" stroke-linecap="round"/>
</g>
<defs>
<clipPath id="clip0_8473_67">
<rect width="512" height="220" fill="white"/>
</clipPath>
</defs>
</svg>
