<svg id="Layer_1" data-name="Layer 1" xmlns="http://www.w3.org/2000/svg" viewBox="0 0 512 250"><defs><style>.cls-1{fill:#231f20;}</style></defs><path class="cls-1" d="M255.07,205.63h-.81l.38-18.59.79,0Z"/><path class="cls-1" d="M255.86,206.47l-2.44-.05.41-20.22,2.44.07Z"/><path class="cls-1" d="M254.66,206.45h-.17l-31-6.42-26.35-17.7-.1-.13-17.44-26.38-6.06-31.21v-.14l6.42-31,17.78-26.34h.13L224.28,49.7l31.2-6.06h.15l31,6.31L313,67.74v.12l17.47,26.39,6.05,31.2v.15l-6.42,31-17.78,26.34h-.13L286,200.39Zm-30.51-7.86,30.51,6.21,30.58-5.93,26-17.12,17.42-25.81,6.23-30.51-6-30.56-17.12-26L286,51.41,255.45,45.2l-30.58,5.93-26,17.12L181.46,94.12l-6.23,30.52,5.88,30.55,17.12,26Z"/><path class="cls-1" d="M254.66,207.11h-.28l-31.24-6.42-26.6-18.13L179,155.94l-6-31.3v-.3l6.42-31.23,18.08-26.59L224.06,49l31.31-6.08h.13l31.37,6.42,26.62,18.08L331,94l6,31.33v.28l-6.42,31.22-18.08,26.62L286,201Zm-30.9-7.62,30.88,6.42,31-6,26.3-17.4,17.63-26.13,6.29-30.86-6-31.07-17.38-26.3L286.29,50.51l-30.88-6.29-30.94,6L198.23,67.61,180.54,93.74l-6.3,30.85,6,31,17.37,26.28Zm30.9,6h-.13L223.78,199l-26-17.5-17.26-26.22-6-30.68v-.13L181,93.76l17.59-26,26.22-17.29,30.69-6h.12l30.69,6.25,26,17.61,17.27,26.19,6,30.71v.13l-6.31,30.73-17.55,26.08-26.22,17.27ZM224.4,198l30.26,6.19L285,198.25l25.67-17.12L328,155.45l6.16-30.26-5.89-30.3L311.11,69.21,285.43,51.94l-30-6.07-30.32,5.88L199.41,68.87,182.12,94.55l-6.23,30.09,5.89,30.3,17.12,25.68Z"/><path class="cls-1" d="M254.66,207.28h-.32l-31.28-6.42L196.5,182.78,178.84,156l-6.09-31.35v-.17L179.17,93l18-26.58L224,48.8l31.35-6.08h.17l31.43,6.42,26.56,18L331.14,94l6.19,31.44v.14L330.91,157l-18.08,26.47L286,201.2Zm-30.19-9.46L254.66,204l30.26-5.86L310.6,181l17.12-25.53,6.16-30.19-5.75-30.15-17-25.68L285.58,52.18,255.41,46,225.15,51.9l-25.68,17L182.35,94.44l-6.29,30.2L182,154.89l17,25.68Z"/><path class="cls-1" d="M254.64,207.94h-.45l-31.5-6.54-26.75-18.17L178.2,156.09l-6.12-31.48v-.32l6.57-31.62,18.19-26.75,27.07-17.74,31.5-6.12h.3l31.67,6.59,26.73,18.17,17.76,27,6.1,31.48v.28l-6.57,31.67L313.21,184l-27,17.76Zm-31.33-7.76,31.35,6.42,31.1-6,26.6-17.5,17.86-26.37,6.42-31.32-6-31.12-17.53-26.6L286.72,49.82,255.37,43.4l-31.07,6L197.72,66.92,179.85,93.29l-6.42,31.32,6,31L197,182.22Zm31.35,4.45h-.13l-30.43-6.19L198.42,181l-17.11-25.93-5.91-30.45v-.13l6.25-30.41,17.4-25.68L225,51.3l30.37-5.91h.13L286,51.64l25.68,17.42L328.77,95l5.9,30.36v.13l-6.24,30.43L311,181.6l-25.94,17.12Zm-30-7.43,30,6.1,30-5.82,25.49-16.84,17.12-25.34,6.1-30-5.82-30L310.64,69.92,285.33,52.8l-30-6.1-30,5.82L199.94,69.38,182.82,94.7l-6,29.94,5.82,30,16.87,25.48Z"/><path class="cls-1" d="M299.32,169.28H210.75V80.75h88.57Zm-87.73-.82h86.94V81.54h-87Z"/><path class="cls-1" d="M300.14,170.09h-90.2V79.91h90.2Zm-87.74-2.44h85.32V82.35H212.38Z"/><path class="cls-1" d="M255.05,187.61,192.41,125l62.64-62.61L317.66,125ZM193.57,125l61.48,61.48L316.51,125,255.05,63.63Z"/><path class="cls-1" d="M255.05,188.77l-.6-.58L191.26,125l.57-.58,63.22-63.19.58.58L318.82,125l-.58.58ZM194.72,125l60.33,60.32L315.35,125l-60.3-60.3Z"/><path class="cls-1" d="M285.76,200.15,255,187.49l-31.42,12.39-12.84-30.69-30.9-13.55,12.69-30.73L180.17,93.59l30.69-12.84,13.46-31,30.73,12.67,31.41-12.39L299.3,80.77l31,13.46L317.6,124.94,330,156.35,299.3,169.19Zm-30.71-13.54,30.28,12.5,13.29-30.63h.13l30-12.49-12.22-31,12.5-30.3L298.51,81.43v-.15L286,51.17,255,63.39,224.7,50.89,211.41,81.43h-.15L181.22,94l12.2,31-12.48,30.3,30.54,13.18v.15L224,198.74Z"/><path class="cls-1" d="M286.18,201.22,255,188.39,223.16,201l-12.94-31.14-31.4-13.65L191.66,125,179.1,93.14,210.24,80.3l13.67-31.52,31.16,12.83,31.86-12.56,12.95,31.14,31.39,13.65L318.43,125l12.48,31.86-31.12,12.95Zm-31.13-15.49.3.13,29.55,12.2L298,167.93h.3l29.51-12.29-12.05-30.53.13-.32,12.19-29.56L298,82.16l-.12-.3L285.56,52.33,255,64.27l-.3-.13L225.17,52,212.08,82.07l-.3.11L182.27,94.46l12,30.56v.3L182.1,154.87,212.21,168l12.41,29.83Z"/><path class="cls-1" d="M210.88,81.41,198,68l.57-.57,12.89,13.41Z"/><path class="cls-1" d="M196.84,68l1.75-1.69,14,14.59-1.76,1.69Z"/><path class="cls-1" d="M255.43,63l-.79,0L255,44.37l.82,0Z"/><path class="cls-1" d="M256.25,63.8l-2.46,0,.42-20.22,2.44,0Z"/><path class="cls-1" d="M298.66,80.84,312,67.91l.57.59L299.23,81.42Z"/><path class="cls-1" d="M297.49,80.8l14.59-14,1.69,1.76-14.6,14Z"/><path class="cls-1" d="M335.66,125.77l-18.6-.36,0-.82,18.58.39Z"/><path class="cls-1" d="M316.22,126.2l0-2.44,20.22.42-.05,2.44Z"/><path class="cls-1" d="M311.5,182.56l-12.88-13.41.57-.56L312.08,182Z"/><path class="cls-1" d="M311.48,183.72l-14-14.59,1.78-1.69,14,14.57Z"/><path class="cls-1" d="M197.47,181.46l13.41-12.86.57.59L198,182.05Z"/><path class="cls-1" d="M196.34,181.45l14.57-14,1.69,1.75-14.57,14Z"/><path class="cls-1" d="M193,125.41l-18.6-.39,0-.79,18.58.36Z"/><path class="cls-1" d="M173.54,125.74l.05-2.44,20.22.41,0,2.44Z"/><path class="cls-1" d="M22.16,88.66H181.63v2.59H22.16Z"/><path class="cls-1" d="M20.83,111.43A11.39,11.39,0,1,1,32.22,100,11,11,0,0,1,29,108a11.58,11.58,0,0,1-8.2,3.44m0-20.16A8.8,8.8,0,1,0,20,108.82a6.32,6.32,0,0,0,.87,0,9,9,0,0,0,6.42-2.67A8.56,8.56,0,0,0,29.63,100a8.8,8.8,0,0,0-8.76-8.82"/><path class="cls-1" d="M20.83,131.72a11.39,11.39,0,1,1,11.39-11.39v0a11.37,11.37,0,0,1-11.37,11.36h0m0-20.16a8.8,8.8,0,1,0,8.8,8.8,8.79,8.79,0,0,0-8.8-8.8h0"/><path class="cls-1" d="M20.83,153.25a11.39,11.39,0,1,1,11.39-11.39h0a11.39,11.39,0,0,1-11.39,11.39m0-20.16a8.8,8.8,0,1,0,8.8,8.79v0a8.8,8.8,0,0,0-8.8-8.77"/><path class="cls-1" d="M41,111.43A11.39,11.39,0,1,1,52.37,100a11,11,0,0,1-3.16,8A11.65,11.65,0,0,1,41,111.41m0-20.16a8.8,8.8,0,1,0-.87,17.57,6.32,6.32,0,0,0,.87,0,9,9,0,0,0,6.42-2.67A8.33,8.33,0,0,0,49.78,100a8.78,8.78,0,0,0-8.73-8.82"/><path class="cls-1" d="M41,131.72A11.39,11.39,0,0,1,41,109a11.37,11.37,0,0,1,11.32,11.34,11,11,0,0,1-3.17,8,11.47,11.47,0,0,1-8.21,3.45m0-20.16a8.8,8.8,0,1,0,6.42,15,8.36,8.36,0,0,0,2.43-6.08,8.81,8.81,0,0,0-8.73-8.81"/><path class="cls-1" d="M41,151.9a11.39,11.39,0,1,1,11.32-11.41,11,11,0,0,1-3.17,8,11.59,11.59,0,0,1-8.21,3.45m0-20.18a8.8,8.8,0,1,0,0,17.59,9,9,0,0,0,6.42-2.68,8.38,8.38,0,0,0,2.43-6.09,8.82,8.82,0,0,0-8.73-8.82"/><path class="cls-1" d="M61.28,111.86a11.39,11.39,0,0,1-1-22.75q.49,0,1,0A11.4,11.4,0,0,1,72.6,100.48a10.93,10.93,0,0,1-3.17,7.94,11.47,11.47,0,0,1-8.15,3.44m0-20.16a8.8,8.8,0,1,0-.87,17.57,6.31,6.31,0,0,0,.87,0,9,9,0,0,0,6.42-2.65,8.46,8.46,0,0,0,2.41-6.1,8.79,8.79,0,0,0-8.77-8.82h-.06"/><path class="cls-1" d="M61.28,132.1a11.38,11.38,0,1,1,11.38-11.38h0A11.4,11.4,0,0,1,61.28,132.1m0-20.15a8.8,8.8,0,1,0,8.77,8.81v0A8.79,8.79,0,0,0,61.28,112"/><path class="cls-1" d="M61.28,153.08a11.39,11.39,0,1,1,11.38-11.39h0a11.39,11.39,0,0,1-11.38,11.39m0-20.16a8.8,8.8,0,1,0,8.77,8.81v0a8.79,8.79,0,0,0-8.77-8.77"/><path class="cls-1" d="M81.33,111.86a11.39,11.39,0,0,1-1-22.75q.5,0,1,0a11.39,11.39,0,0,1,11.32,11.37,11,11,0,0,1-3.19,8,11.58,11.58,0,0,1-8.2,3.42m0-20.16a8.8,8.8,0,0,0-.86,17.57,6.17,6.17,0,0,0,.86,0,8.93,8.93,0,0,0,6.42-2.65,8.57,8.57,0,0,0,2.44-6.1,8.82,8.82,0,0,0-8.73-8.82"/><path class="cls-1" d="M81.33,132.1a11.38,11.38,0,1,1,11.32-11.4,11,11,0,0,1-3.19,8,11.52,11.52,0,0,1-8.13,3.44m0-20.15a8.79,8.79,0,1,0,6.42,15,8.4,8.4,0,0,0,2.46-6.08A8.8,8.8,0,0,0,81.48,112"/><path class="cls-1" d="M81.33,152.33a11.39,11.39,0,0,1-1-22.75q.5,0,1,0a11.36,11.36,0,0,1,11.32,11.34,10.87,10.87,0,0,1-3.19,8,11.57,11.57,0,0,1-8.2,3.45m0-20.16a8.8,8.8,0,1,0,6.42,15,8.39,8.39,0,0,0,2.46-6.08,8.78,8.78,0,0,0-8.62-9h-.13"/><path class="cls-1" d="M102.43,112.1a11.39,11.39,0,1,1,11.38-11.41,11,11,0,0,1-3.19,7.88,11.56,11.56,0,0,1-8.19,3.44m0-20.18a8.8,8.8,0,0,0,0,17.57,9,9,0,0,0,6.42-2.65,8.59,8.59,0,0,0,2.44-6.1,8.82,8.82,0,0,0-8.76-8.82"/><path class="cls-1" d="M102.43,132.38A11.37,11.37,0,1,1,113.77,121a11,11,0,0,1-3.19,8,11.52,11.52,0,0,1-8.2,3.44m0-20.16a8.8,8.8,0,0,0,0,17.57,9,9,0,0,0,6.42-2.65,8.53,8.53,0,0,0,2.44-6.1,8.79,8.79,0,0,0-8.75-8.82"/><path class="cls-1" d="M102.43,152.56a11.39,11.39,0,1,1,11.34-11.42,11,11,0,0,1-3.15,8.08,11.53,11.53,0,0,1-8.19,3.45m0-20.18a8.8,8.8,0,0,0,0,17.57,9,9,0,0,0,6.42-2.65,8.59,8.59,0,0,0,2.44-6.1,8.82,8.82,0,0,0-8.76-8.82"/><path class="cls-1" d="M122.61,111.86a11.39,11.39,0,0,1-1-22.75q.5,0,1,0A11.39,11.39,0,0,1,134,100.45v0a11,11,0,0,1-3.16,7.94,11.48,11.48,0,0,1-8.2,3.44m0-20.16a8.8,8.8,0,1,0-.87,17.57,6.31,6.31,0,0,0,.87,0,8.93,8.93,0,0,0,6.42-2.65,8.57,8.57,0,0,0,2.44-6.1,8.82,8.82,0,0,0-8.73-8.82"/><path class="cls-1" d="M122.61,132.1A11.38,11.38,0,1,1,134,120.76v0a11.37,11.37,0,0,1-11.42,11.32m0-20.15a8.8,8.8,0,1,0,8.77,8.81v0a8.79,8.79,0,0,0-8.77-8.77"/><path class="cls-1" d="M122.61,152.65a11.39,11.39,0,1,1,.06,0m0-20.18a8.8,8.8,0,1,0,8.77,8.81v0a8.8,8.8,0,0,0-8.77-8.79"/><path class="cls-1" d="M142.77,112.55a11.39,11.39,0,0,1,0-22.77h0a11.37,11.37,0,0,1,11.32,11.34,10.92,10.92,0,0,1-3.17,8,11.59,11.59,0,0,1-8.2,3.47m0-20.18a8.79,8.79,0,1,0,6.42,15,8.31,8.31,0,0,0,2.44-6.1,8.76,8.76,0,0,0-8.73-8.82h0"/><path class="cls-1" d="M142.77,132.83a11.39,11.39,0,0,1,0-22.77h0a11.39,11.39,0,0,1,11.36,11.34,10.94,10.94,0,0,1-3.17,8,11.56,11.56,0,0,1-8.19,3.44m0-20.18a8.8,8.8,0,1,0,6.41,15,8.29,8.29,0,0,0,2.36-6.21,8.79,8.79,0,0,0-8.73-8.81"/><path class="cls-1" d="M142.77,153a11.39,11.39,0,0,1,0-22.77h0a11.4,11.4,0,0,1,11.32,11.36,11,11,0,0,1-3.17,8,11.6,11.6,0,0,1-8.2,3.44m0-20.16a8.8,8.8,0,1,0-.87,17.57,6.31,6.31,0,0,0,.87,0,8.89,8.89,0,0,0,6.42-2.67,8.26,8.26,0,0,0,2.44-6.08,8.77,8.77,0,0,0-8.73-8.82h0"/><path class="cls-1" d="M162.92,111.43a11.39,11.39,0,0,1,0-22.77h0A11.4,11.4,0,0,1,174.31,100a11,11,0,0,1-3.19,8,11.6,11.6,0,0,1-8.2,3.44m0-20.16a8.8,8.8,0,0,0,0,17.57,8.89,8.89,0,0,0,6.42-2.67,8.38,8.38,0,0,0,2.38-6.14A8.79,8.79,0,0,0,163,91.19"/><path class="cls-1" d="M163.5,132.1a11.38,11.38,0,1,1,11.34-11.4,10.92,10.92,0,0,1-3.19,8,11.47,11.47,0,0,1-8.15,3.44m0-20.15a8.8,8.8,0,1,0-.87,17.57h.87a9,9,0,0,0,6.42-2.68,8.57,8.57,0,0,0,2.44-6.08,8.79,8.79,0,0,0-8.75-8.81"/><path class="cls-1" d="M164.31,152.56a11.39,11.39,0,1,1,11.35-11.42,11,11,0,0,1-3.11,8.08,11.53,11.53,0,0,1-8.19,3.45m0-20.18a8.8,8.8,0,0,0,0,17.57,9,9,0,0,0,6.42-2.65,8.59,8.59,0,0,0,2.44-6.1,8.82,8.82,0,0,0-8.76-8.82"/><path class="cls-1" d="M20.83,150.66H177.88v2.59h-157Z"/><path class="cls-1" d="M330.4,93.5H489.86v2.59H330.4Z"/><path class="cls-1" d="M491.19,116.25a11.62,11.62,0,0,1-8.2-3.4,10.94,10.94,0,0,1-3.18-8,11.1,11.1,0,1,1,11.32,11.41M482.33,105a8.34,8.34,0,0,0,2.44,6.08,8.91,8.91,0,0,0,6.42,2.67,8.8,8.8,0,1,0,.87-17.57h-.87a8.8,8.8,0,0,0-8.73,8.82"/><path class="cls-1" d="M491.19,136.56a11.39,11.39,0,1,1,11.36-11.41v0a11.39,11.39,0,0,1-11.36,11.39m0-20.18a8.8,8.8,0,1,0,8.77,8.81v0a8.79,8.79,0,0,0-8.77-8.79"/><path class="cls-1" d="M491.19,158.06a11.39,11.39,0,1,1,11.36-11.4v0a11.38,11.38,0,0,1-11.36,11.38m0-20.16a8.8,8.8,0,1,0,8.77,8.82v0a8.8,8.8,0,0,0-8.77-8.78"/><path class="cls-1" d="M471,116.25a11.52,11.52,0,0,1-8.2-3.4,11.06,11.06,0,0,1-3.16-8A11.1,11.1,0,1,1,471,116.29m0-20.16a8.8,8.8,0,0,0-8.73,8.82,8.53,8.53,0,0,0,2.44,6.1A9,9,0,1,0,472,96.13h-1Z"/><path class="cls-1" d="M471,136.56a11.65,11.65,0,0,1-8.2-3.45,11,11,0,0,1-3.16-8A11.35,11.35,0,1,1,471,136.56m0-20.18a8.81,8.81,0,0,0-8.73,8.81,8.39,8.39,0,0,0,2.44,6.1A9,9,0,1,0,472,116.38a6.17,6.17,0,0,0-.86,0Z"/><path class="cls-1" d="M471,156.71a11.6,11.6,0,0,1-8.2-3.44,11,11,0,0,1-3.16-8A11.35,11.35,0,1,1,471,156.71m0-20.15a8.78,8.78,0,0,0-8.73,8.81,8.3,8.3,0,0,0,2.44,6A8.89,8.89,0,0,0,471.1,154a8.8,8.8,0,0,0,.86-17.57h-.86Z"/><path class="cls-1" d="M450.85,116.7a11.53,11.53,0,0,1-8.19-3.45,10.92,10.92,0,0,1-3.17-8,11.32,11.32,0,1,1,11.26,11.41m0-20.18a8.79,8.79,0,0,0-8.56,8.81,8.36,8.36,0,0,0,2.41,6.1,9,9,0,0,0,6.42,2.68,8.8,8.8,0,1,0,0-17.59Z"/><path class="cls-1" d="M450.85,137a11.39,11.39,0,1,1,11.39-11.38v.08a11.42,11.42,0,0,1-11.39,11.39m0-20.16a8.8,8.8,0,1,0,8.8,8.8v0a8.8,8.8,0,0,0-8.8-8.77"/><path class="cls-1" d="M450.85,157.89a11.39,11.39,0,1,1,11.39-11.38v0a11.39,11.39,0,0,1-11.39,11.36m0-20.16a8.8,8.8,0,1,0,8.8,8.8,8.79,8.79,0,0,0-8.8-8.8h0"/><path class="cls-1" d="M430.69,116.7a11.53,11.53,0,0,1-8.19-3.45,11,11,0,0,1-3.19-8,11.35,11.35,0,1,1,11.32,11.41m-8.8-11.37a8.55,8.55,0,0,0,2.44,6.1,9,9,0,0,0,6.42,2.68,8.8,8.8,0,1,0,0-17.59h0a8.81,8.81,0,0,0-8.73,8.81"/><path class="cls-1" d="M430.69,137a11.56,11.56,0,0,1-8.19-3.44,11,11,0,0,1-3.19-7.86,11.61,11.61,0,1,1,12.33,11.41h-1m-8.75-11.41a8.55,8.55,0,0,0,2.44,6.1,8.9,8.9,0,0,0,6.42,2.68,8.8,8.8,0,0,0,0-17.59h0a8.81,8.81,0,0,0-8.86,8.77v0"/><path class="cls-1" d="M430.69,157.14a11.48,11.48,0,0,1-8.19-3.44,10.84,10.84,0,0,1-3.19-7.94,11.6,11.6,0,1,1,12.31,11.38,8.18,8.18,0,0,1-1,0m-8.8-11.34a8.57,8.57,0,0,0,2.44,6.1,9,9,0,0,0,6.42,2.65,8.8,8.8,0,1,0,.87-17.57h-.87A8.8,8.8,0,0,0,422,145.8"/><path class="cls-1" d="M409.59,116.91a11.56,11.56,0,0,1-8.19-3.44,11,11,0,0,1-3.19-8,11.35,11.35,0,1,1,11.32,11.4m0-20.16a8.8,8.8,0,0,0-8.73,8.82,8.54,8.54,0,0,0,2.44,6.08,9,9,0,0,0,6.42,2.67,8.8,8.8,0,1,0,.87-17.57q-.43,0-.87,0Z"/><path class="cls-1" d="M409.59,137.2a11.53,11.53,0,0,1-8.19-3.45,10.92,10.92,0,0,1-3.19-8,11.1,11.1,0,1,1,11.32,11.41m0-20.16a8.8,8.8,0,0,0-8.73,8.82,8.4,8.4,0,0,0,2.44,6.07,8.9,8.9,0,0,0,6.42,2.68,8.8,8.8,0,0,0,0-17.57Z"/><path class="cls-1" d="M409.59,157.38a11.53,11.53,0,0,1-8.19-3.45,11,11,0,0,1-3.19-8,11.35,11.35,0,1,1,11.32,11.41m0-20.18A8.81,8.81,0,0,0,400.8,146a8.55,8.55,0,0,0,2.44,6.1,9,9,0,0,0,6.42,2.68,8.8,8.8,0,0,0,0-17.59Z"/><path class="cls-1" d="M389.41,116.7a11.53,11.53,0,0,1-8.19-3.45,11,11,0,0,1-3.23-8,11.35,11.35,0,1,1,11.32,11.41m0-20.18a8.81,8.81,0,0,0-8.73,8.81,8.39,8.39,0,0,0,2.44,6.1,8.94,8.94,0,0,0,6.42,2.68,8.8,8.8,0,0,0,0-17.59h-.13Z"/><path class="cls-1" d="M389.41,137A11.39,11.39,0,1,1,400.8,125.6v.08a11.39,11.39,0,0,1-11.39,11.39h0m0-20.16a8.8,8.8,0,1,0,8.8,8.8v0a8.8,8.8,0,0,0-8.8-8.77"/><path class="cls-1" d="M389.41,157.46a11.39,11.39,0,1,1,11.39-11.38,11.38,11.38,0,0,1-11.39,11.38h0m0-20.18a8.8,8.8,0,1,0,8.8,8.8,8.8,8.8,0,0,0-8.8-8.8h0"/><path class="cls-1" d="M369.26,117.34a11.45,11.45,0,0,1-8.2-3.45,10.71,10.71,0,0,1-3.17-7.94,11.6,11.6,0,1,1,12.31,11.39h-1m0-20.16a8.82,8.82,0,0,0-8.75,8.82,8.58,8.58,0,0,0,2.55,6.1,9,9,0,0,0,6.42,2.65,8.8,8.8,0,1,0,.86-17.57c-.28,0-.57,0-.86,0Z"/><path class="cls-1" d="M369.26,137.65a11.57,11.57,0,0,1-8.2-3.41,10.85,10.85,0,0,1-3.17-8,11.36,11.36,0,1,1,11.33,11.47h0m0-20.18a8.83,8.83,0,0,0-8.75,8.82,8.54,8.54,0,0,0,2.55,6,9,9,0,0,0,6.42,2.68,8.8,8.8,0,0,0,0-17.59h0Z"/><path class="cls-1" d="M369.26,157.78a11.48,11.48,0,0,1-8.2-3.44,10.88,10.88,0,0,1-3.17-8,11.6,11.6,0,1,1,12.31,11.4,8.17,8.17,0,0,1-1,0m0-20.15a8.79,8.79,0,0,0-8.75,8.81,8.58,8.58,0,0,0,2.55,6.1,8.9,8.9,0,0,0,6.42,2.68,8.8,8.8,0,1,0,.86-17.57,6.17,6.17,0,0,0-.86,0Z"/><path class="cls-1" d="M349.1,116.25a11.6,11.6,0,0,1-8.2-3.4,11,11,0,0,1-3.19-8A11.6,11.6,0,1,1,350,116.29h-1M340.24,105A8.35,8.35,0,0,0,342.7,111a9,9,0,1,0-2.31-6.17"/><path class="cls-1" d="M348.52,137a11.52,11.52,0,0,1-8.2-3.44,11,11,0,0,1-3.18-7.86,11.36,11.36,0,1,1,11.34,11.41m0-20.16a8.79,8.79,0,0,0-8.75,8.75,8.5,8.5,0,0,0,2.43,6.1,9,9,0,0,0,6.42,2.68,8.8,8.8,0,0,0,0-17.57Z"/><path class="cls-1" d="M347.71,157.38a11.54,11.54,0,0,1-8.24-3.45,11,11,0,0,1-3.19-8,11.35,11.35,0,1,1,11.32,11.41m0-20.18a8.81,8.81,0,0,0-8.73,8.81,8.55,8.55,0,0,0,2.44,6.1,9,9,0,0,0,6.42,2.68,8.8,8.8,0,0,0,0-17.59Z"/><path class="cls-1" d="M329.28,155.47H491.19v2.59H329.28Z"/></svg>