<svg id="Layer_1" data-name="Layer 1" xmlns="http://www.w3.org/2000/svg" viewBox="0 0 512 512"><defs><style>.cls-1,.cls-2,.cls-4{fill:#231f20;}.cls-2{stroke:#000;stroke-miterlimit:10;stroke-width:0.5px;}.cls-3,.cls-5{fill:none;stroke-linejoin:round;}.cls-3{stroke:#231f20;stroke-width:2px;}.cls-4{fill-rule:evenodd;}.cls-5{stroke:#1a2b4c;stroke-width:0.3px;}</style></defs><path class="cls-1" d="M308.6,270.17h0C294.57,256.72,276.45,248,256,248a74.24,74.24,0,0,0-52.6,21.62l-.58.59a74.78,74.78,0,0,0,0,105.19l.58.58a74.8,74.8,0,0,0,105.2,0l.58-.58a74.22,74.22,0,0,0,21.62-52.6C330.8,302.31,321.45,283.61,308.6,270.17Zm-2.93,74.21L287,352l11.11-26.3,7.59,18.7Zm-21,8.18-29.81,12.28L225,352.56l-11.69-29.8L225.61,293l29.81-12.28L285.22,293l12.27,29.8Zm-8.77,21h0L257.17,366l26.3-10.52ZM235,373h-.58v.58l-7.6-18.7L253.08,366Zm-29.8-29.81h0l7.59-18.7,10.52,26.3Zm0-42.07,18.7-7.6-11.11,26.3-7.59-18.7Zm48.5-21-26.3,10.52,7.6-18.7Zm31,11.1-26.3-11.1,18.7-7.6Zm2.92,3.51,17.53,7.6v.58h.58l-7,18.12Zm-.59-2.34-7-16.95L304.5,300Zm-31-13.44-16.95-7h34.48Zm-31,12.86-17.53,6.43L232,273.67Zm-13.44,31-7,16.95V305.23Zm12.85,31,7,16.95-24.55-24.54Zm30.39,12.86,16.95,7H237.3Zm31.56-12.27,16.95-7-24.55,24.54Zm12.86-31,7-17v34.48Zm7.59-24-27.46-27.46h27.46Zm-70.71-29.21,19.29-19.29,19.28,19.29Zm-31.56,29.21V271.92H232Zm-1.75,42.67-19.29-19.29,19.29-19.28Zm1.75,4.67L232,374.19H204.57Zm70.13,29.22-19.28,19.29-19.29-19.29Zm32.14-29.22v27.47H279.38Zm1.76-43.24,19.28,19.28L308.6,342.05Zm0-30.39a56.58,56.58,0,0,1,13.44,21L308.6,300Zm-30.39-2.92,5.84-14a66.28,66.28,0,0,1,21,14ZM276.45,269l-18.7-18.7a57.82,57.82,0,0,1,24.55,5.26Zm-42.07.58-5.85-14c7.6-2.93,16.37-5.26,25.13-5.26Zm-1.76.59H206.33a56.52,56.52,0,0,1,21-13.45ZM202.82,300l-14-5.84a66.33,66.33,0,0,1,14-21Zm-1.17,1.75L183,320.42a57.81,57.81,0,0,1,5.26-24.54Zm.59,42.66-14,5.85c-2.92-7.6-5.26-16.37-5.26-25.13Zm.58,1.76v26.29a56.5,56.5,0,0,1-13.44-21Zm30.39,29.8-5.85,14a76.71,76.71,0,0,1-21.62-14Zm1.17.59,18.7,18.7A58,58,0,0,1,228.53,390Zm42.66,0,5.84,14c-7.59,2.92-16.36,5.26-25.13,5.26Zm1.75-.59h26.3a59.32,59.32,0,0,1-20.45,13.44Zm29.81-30.39,14,5.85a76.68,76.68,0,0,1-14,21.62Zm.58-1.75,18.7-18.7a57.78,57.78,0,0,1-5.26,24.54Zm0-42.08,14-5.84c2.92,7.6,5.26,16.36,5.26,25.13Z"/><path class="cls-2" d="M336.35,250.76h0a13.63,13.63,0,0,0-9.45-4,13.33,13.33,0,0,0-9.44,3.88l-.11.11a13.44,13.44,0,0,0,0,18.89l.11.11a13.44,13.44,0,0,0,18.89,0l.1-.11a13.29,13.29,0,0,0,3.89-9.44A13.86,13.86,0,0,0,336.35,250.76Zm-.53,13.33-3.36,1.36,2-4.72,1.36,3.36ZM332,265.56l-5.35,2.2-5.35-2.2-2.1-5.35,2.2-5.36,5.36-2.2,5.35,2.2,2.2,5.36Zm-1.57,3.78h0L327.11,268l4.73-1.89Zm-7.35-.11H323v.11L321.65,266l4.73,2Zm-5.35-5.35h0l1.37-3.36,1.88,4.72Zm0-7.56,3.36-1.36-2,4.72-1.37-3.36Zm8.71-3.78-4.72,1.89,1.36-3.36Zm5.56,2-4.72-2,3.36-1.36Zm.53.63,3.15,1.36v.11h.1l-1.26,3.25Zm-.11-.42-1.25-3.05,4.4,4.41Zm-5.56-2.42-3-1.26h6.19Zm-5.56,2.31-3.15,1.16,4.41-4.41Zm-2.41,5.57-1.26,3v-6.19Zm2.3,5.56,1.26,3-4.4-4.41Zm5.46,2.31,3.05,1.26h-6.2Zm5.67-2.21,3-1.26L331,269Zm2.31-5.56,1.26-3v6.19ZM336,256l-4.93-4.94H336Zm-12.7-5.25,3.47-3.46,3.46,3.46ZM317.67,256v-4.94h4.93Zm-.32,7.66-3.46-3.46,3.46-3.47Zm.32.84,4.93,4.93h-4.93Zm12.59,5.25-3.46,3.46-3.47-3.46Zm5.77-5.25v4.93H331.1Zm.32-7.77,3.46,3.47-3.46,3.46Zm0-5.46a10.08,10.08,0,0,1,2.41,3.78l-2.41,1.05Zm-5.46-.52,1.05-2.52a11.92,11.92,0,0,1,3.78,2.52Zm-.31-.21-3.36-3.36a10.43,10.43,0,0,1,4.41.95Zm-7.56.1-1-2.51a12.7,12.7,0,0,1,4.51-.95Zm-.32.11H318a10.08,10.08,0,0,1,3.78-2.41Zm-5.35,5.35-2.52-1.05a11.92,11.92,0,0,1,2.52-3.78Zm-.21.32-3.36,3.36a10.37,10.37,0,0,1,1-4.41Zm.11,7.66-2.52,1.05a12.75,12.75,0,0,1-1-4.51Zm.1.31v4.73a10.08,10.08,0,0,1-2.41-3.78Zm5.46,5.36-1.05,2.52a13.65,13.65,0,0,1-3.88-2.52Zm.21.1,3.36,3.36a10.36,10.36,0,0,1-4.41-.94Zm7.66,0,1.05,2.52a12.7,12.7,0,0,1-4.51.94Zm.32-.1h4.72a10.54,10.54,0,0,1-3.68,2.41Zm5.35-5.46,2.52,1.05a13.65,13.65,0,0,1-2.52,3.88Zm.1-.32,3.36-3.35a10.35,10.35,0,0,1-.94,4.4Zm0-7.55,2.52-1.05a12.7,12.7,0,0,1,.95,4.51Z"/><path class="cls-2" d="M353.63,279.18h0a13.61,13.61,0,0,0-9.44-4,13.33,13.33,0,0,0-9.45,3.89l-.1.1a13.41,13.41,0,0,0,0,18.89l.1.11a13.44,13.44,0,0,0,18.89,0l.11-.11a13.33,13.33,0,0,0,3.88-9.44A13.9,13.9,0,0,0,353.63,279.18Zm-.52,13.33-3.36,1.37,2-4.73,1.36,3.36ZM349.33,294,344,296.19,338.63,294l-2.1-5.35,2.2-5.35,5.35-2.21,5.36,2.21,2.2,5.35Zm-1.57,3.78h0l-3.36-1.36,4.72-1.89Zm-7.35-.11h-.1v.11l-1.37-3.36,4.72,2Zm-5.35-5.35h0l1.36-3.36,1.89,4.73Zm0-7.55,3.36-1.37-2,4.72-1.36-3.35Zm8.71-3.78-4.72,1.89,1.36-3.36Zm5.56,2-4.72-2L348,279.6Zm.53.63L353,285v.1h.11l-1.26,3.25Zm-.11-.42-1.26-3,4.41,4.41Zm-5.56-2.41-3.05-1.26h6.2Zm-5.56,2.31-3.15,1.15,4.41-4.41Zm-2.42,5.56-1.26,3v-6.19Zm2.31,5.56,1.26,3.05-4.41-4.41ZM344,296.5l3,1.26h-6.19Zm5.67-2.2,3-1.26-4.41,4.41Zm2.31-5.57,1.25-3v6.19Zm1.36-4.3-4.93-4.93h4.93Zm-12.7-5.25,3.46-3.46,3.47,3.46ZM335,284.43V279.5h4.94Zm-.31,7.66-3.47-3.46,3.47-3.46Zm.31.84,4.94,4.93H335Zm12.6,5.25-3.47,3.46-3.46-3.46Zm5.77-5.25v4.93h-4.93Zm.31-7.76,3.47,3.46-3.47,3.46Zm0-5.46a10.23,10.23,0,0,1,2.42,3.78l-2.42,1.05Zm-5.45-.53,1.05-2.52a11.76,11.76,0,0,1,3.77,2.52Zm-.32-.21-3.36-3.36a10.37,10.37,0,0,1,4.41.95Zm-7.55.11-1.05-2.52a12.66,12.66,0,0,1,4.51-.95Zm-.32.1h-4.72a10.08,10.08,0,0,1,3.78-2.41Zm-5.35,5.36-2.52-1.05a11.92,11.92,0,0,1,2.52-3.78Zm-.21.31-3.36,3.36a10.39,10.39,0,0,1,.94-4.41Zm.1,7.66L332,293.56a12.92,12.92,0,0,1-.94-4.51Zm.11.32v4.72a10.23,10.23,0,0,1-2.42-3.78Zm5.46,5.35-1.05,2.52a13.84,13.84,0,0,1-3.89-2.52Zm.21.1,3.35,3.36a10.35,10.35,0,0,1-4.4-.94Zm7.66,0,1,2.52a12.76,12.76,0,0,1-4.52.95Zm.31-.1H353a10.41,10.41,0,0,1-3.67,2.41Zm5.35-5.46,2.52,1a13.65,13.65,0,0,1-2.52,3.88Zm.11-.31,3.36-3.36a10.43,10.43,0,0,1-1,4.41Zm0-7.56,2.52-1.05a13,13,0,0,1,.94,4.51Z"/><path class="cls-2" d="M359.47,311.86h0a13.63,13.63,0,0,0-9.45-4,13.29,13.29,0,0,0-9.44,3.89l-.11.1a13.44,13.44,0,0,0,0,18.89l.11.11a13.44,13.44,0,0,0,18.89,0l.11-.11a13.33,13.33,0,0,0,3.88-9.44A13.86,13.86,0,0,0,359.47,311.86ZM359,325.19l-3.36,1.36,2-4.72,1.37,3.36Zm-3.78,1.47-5.36,2.2-5.35-2.2-2.1-5.35,2.21-5.36,5.35-2.2,5.35,2.2,2.21,5.36Zm-1.58,3.78h0l-3.36-1.37,4.73-1.89Zm-7.34-.11h-.11v.11l-1.36-3.36,4.72,2ZM340.89,325h0l1.37-3.36,1.89,4.72Zm0-7.56,3.36-1.36-2,4.72-1.37-3.36Zm8.71-3.78-4.72,1.89,1.37-3.36Zm5.57,2-4.73-2,3.36-1.36Zm.52.63,3.15,1.36v.11H359L357.69,321Zm-.1-.42-1.26-3.05,4.41,4.41ZM350,313.43l-3-1.26h6.19Zm-5.56,2.31-3.15,1.16,4.41-4.41Zm-2.41,5.57-1.26,3v-6.19Zm2.31,5.56,1.26,3-4.41-4.41Zm5.45,2.31,3.05,1.26h-6.19Zm5.67-2.21,3-1.26-4.41,4.41Zm2.31-5.56,1.26-3v6.19Zm1.37-4.3-4.94-4.94h4.94Zm-12.7-5.25,3.46-3.46,3.46,3.46Zm-5.67,5.25v-4.94h4.93Zm-.32,7.66L337,321.31l3.46-3.47Zm.32.84,4.93,4.93h-4.93Zm12.59,5.25-3.46,3.46-3.46-3.46Zm5.78-5.25v4.93h-4.94Zm.31-7.77,3.46,3.47-3.46,3.46Zm0-5.46a10.08,10.08,0,0,1,2.41,3.78l-2.41,1Zm-5.46-.52,1.05-2.52a11.92,11.92,0,0,1,3.78,2.52Zm-.31-.21-3.36-3.36a10.43,10.43,0,0,1,4.41.95Zm-7.56.11-1.05-2.52a12.75,12.75,0,0,1,4.51-.95Zm-.31.1H341.1a10.08,10.08,0,0,1,3.78-2.41Zm-5.36,5.35-2.52-1a11.92,11.92,0,0,1,2.52-3.78Zm-.21.32-3.35,3.36a10.36,10.36,0,0,1,.94-4.41Zm.11,7.66-2.52,1.05a13,13,0,0,1-.94-4.51Zm.1.31v4.73a10.08,10.08,0,0,1-2.41-3.78Zm5.46,5.36-1.05,2.52a13.65,13.65,0,0,1-3.88-2.52Zm.21.1,3.36,3.36a10.42,10.42,0,0,1-4.41-.94Zm7.66,0,1.05,2.52a12.7,12.7,0,0,1-4.51.95Zm.32-.1h4.72a10.59,10.59,0,0,1-3.67,2.41Zm5.35-5.46,2.52,1.05a13.65,13.65,0,0,1-2.52,3.88Zm.11-.32,3.35-3.35a10.35,10.35,0,0,1-.94,4.4Zm0-7.55,2.51-1a12.7,12.7,0,0,1,1,4.51Z"/><path class="cls-2" d="M355.27,344.92h0a13.58,13.58,0,0,0-9.44-4,13.33,13.33,0,0,0-9.45,3.88l-.1.11a13.41,13.41,0,0,0,0,18.89l.1.11a13.44,13.44,0,0,0,18.89,0l.11-.11a13.33,13.33,0,0,0,3.88-9.45A13.86,13.86,0,0,0,355.27,344.92Zm-.52,13.33-3.36,1.36,2-4.72,1.37,3.36ZM351,359.72l-5.35,2.2-5.36-2.2-2.1-5.36,2.21-5.35,5.35-2.2,5.35,2.2,2.21,5.35Zm-1.57,3.78h0L346,362.13l4.72-1.89Zm-7.35-.11h-.11v.11l-1.36-3.36,4.72,2ZM336.7,358h0l1.36-3.36L340,359.4Zm0-7.56,3.35-1.36-2,4.72-1.36-3.36Zm8.71-3.78-4.73,1.89,1.37-3.36Zm5.56,2-4.72-2,3.35-1.36Zm.52.63,3.15,1.36v.11h.11l-1.26,3.25Zm-.1-.42-1.26-3.05,4.41,4.41Zm-5.56-2.42-3.05-1.26H349Zm-5.57,2.31L337.12,350l4.4-4.41Zm-2.41,5.56-1.26,3.05v-6.19Zm2.31,5.57,1.26,3L337,358.56Zm5.46,2.31,3,1.26h-6.19Zm5.66-2.21,3.05-1.26-4.41,4.41Zm2.31-5.56,1.26-3v6.19Zm1.37-4.3L350,345.23H355Zm-12.7-5.25,3.46-3.46,3.47,3.46Zm-5.67,5.25v-4.94h4.93Zm-.31,7.66-3.47-3.47,3.47-3.46Zm.31.84,4.93,4.93h-4.93Zm12.6,5.25-3.47,3.46-3.46-3.46Zm5.77-5.25v4.93H350Zm.31-7.77,3.47,3.46-3.47,3.47Zm0-5.46a10.23,10.23,0,0,1,2.42,3.78l-2.42,1Zm-5.46-.52,1.05-2.52a11.92,11.92,0,0,1,3.78,2.52Zm-.31-.21-3.36-3.36a10.51,10.51,0,0,1,4.41.94Zm-7.56.1-1.05-2.52a13,13,0,0,1,4.52-.94Zm-.31.11h-4.72a10.11,10.11,0,0,1,3.77-2.42Zm-5.35,5.35-2.52-1a11.92,11.92,0,0,1,2.52-3.78Zm-.21.32-3.36,3.35a10.35,10.35,0,0,1,.94-4.4Zm.1,7.66-2.52,1.05a13,13,0,0,1-.94-4.52Zm.11.31v4.73a10.23,10.23,0,0,1-2.42-3.78Zm5.45,5.36-1.05,2.51a13.62,13.62,0,0,1-3.88-2.51Zm.21.1,3.36,3.36a10.43,10.43,0,0,1-4.41-.95Zm7.66,0,1,2.52a12.87,12.87,0,0,1-4.51.94Zm.32-.1h4.72a10.74,10.74,0,0,1-3.67,2.41Zm5.35-5.46,2.52,1.05a13.65,13.65,0,0,1-2.52,3.88Zm.11-.32,3.36-3.36a10.37,10.37,0,0,1-.95,4.41Zm0-7.55,2.52-1a12.92,12.92,0,0,1,.94,4.51Z"/><path class="cls-2" d="M338.89,374h0a13.59,13.59,0,0,0-9.45-4,13.33,13.33,0,0,0-9.44,3.88l-.11.11a13.44,13.44,0,0,0,0,18.89l.11.11a13.44,13.44,0,0,0,18.89,0l.1-.11a13.3,13.3,0,0,0,3.89-9.45A13.86,13.86,0,0,0,338.89,374Zm-.53,13.33L335,388.67l2-4.72,1.36,3.36Zm-3.77,1.47-5.36,2.2-5.35-2.2-2.1-5.36,2.21-5.35,5.35-2.2,5.35,2.2,2.21,5.35ZM333,392.56h0l-3.36-1.37,4.73-1.89Zm-7.34-.11h-.11v.11l-1.36-3.36,4.72,2Zm-5.36-5.35h0l1.37-3.36,1.89,4.72Zm0-7.56,3.36-1.36-2,4.72-1.37-3.36Zm8.71-3.78-4.72,1.89,1.37-3.36Zm5.57,2-4.73-2,3.36-1.36Zm.52.63,3.15,1.36v.11h.1l-1.25,3.25ZM335,378l-1.26-3.05,4.4,4.41Zm-5.57-2.42-3-1.26h6.19Zm-5.56,2.31L320.73,379l4.41-4.41Zm-2.41,5.56-1.26,3.05v-6.19Zm2.31,5.57,1.26,3-4.41-4.41Zm5.45,2.31,3,1.26h-6.19Zm5.67-2.21,3-1.26-4.4,4.41Zm2.31-5.56,1.26-3v6.19Zm1.36-4.3-4.93-4.94h4.93ZM325.88,374l3.46-3.46L332.8,374Zm-5.67,5.25v-4.94h4.93Zm-.32,7.66-3.46-3.47,3.46-3.46Zm.32.84,4.93,4.93h-4.93ZM332.8,393l-3.46,3.46L325.88,393Zm5.77-5.25v4.93h-4.93Zm.32-7.77,3.46,3.46-3.46,3.47Zm0-5.46a10.08,10.08,0,0,1,2.41,3.78l-2.41,1.05Zm-5.46-.52,1.05-2.52a11.92,11.92,0,0,1,3.78,2.52Zm-.31-.21-3.36-3.36a10.58,10.58,0,0,1,4.41.94Zm-7.56.1-1.05-2.52a13,13,0,0,1,4.51-.94Zm-.31.11h-4.73a10.23,10.23,0,0,1,3.78-2.42Zm-5.36,5.35-2.52-1.05a11.92,11.92,0,0,1,2.52-3.78Zm-.21.32L316.32,383a10.35,10.35,0,0,1,.95-4.4Zm.11,7.66-2.52,1.05a12.76,12.76,0,0,1-.95-4.52Zm.1.31v4.73a10.08,10.08,0,0,1-2.41-3.78Zm5.46,5.36-1.05,2.51a13.62,13.62,0,0,1-3.88-2.51Zm.21.1,3.36,3.36a10.4,10.4,0,0,1-4.41-.95Zm7.66,0,1,2.52a12.92,12.92,0,0,1-4.51.94Zm.32-.1h4.72a10.74,10.74,0,0,1-3.67,2.41Zm5.35-5.46,2.52,1.05a13.65,13.65,0,0,1-2.52,3.88Zm.1-.32,3.36-3.36a10.36,10.36,0,0,1-.94,4.41Zm0-7.55,2.52-1a12.7,12.7,0,0,1,.95,4.51Z"/><path class="cls-2" d="M313.14,395h0a13.63,13.63,0,0,0-9.45-4,13.29,13.29,0,0,0-9.44,3.89l-.11.1a13.44,13.44,0,0,0,0,18.89l.11.11a13.44,13.44,0,0,0,18.89,0l.1-.11a13.29,13.29,0,0,0,3.89-9.44A13.88,13.88,0,0,0,313.14,395Zm-.53,13.33-3.36,1.37,2-4.73,1.36,3.36Zm-3.78,1.47-5.35,2.2-5.35-2.2-2.1-5.35,2.2-5.35,5.36-2.21,5.35,2.21,2.2,5.35Zm-1.57,3.78h0l-3.36-1.37,4.72-1.88Zm-7.35-.11h-.1v.11l-1.37-3.36,4.73,2Zm-5.35-5.35h0l1.37-3.36,1.88,4.73Zm0-7.56,3.36-1.36-2,4.72-1.37-3.36Zm8.71-3.77-4.72,1.89,1.36-3.36Zm5.56,2-4.72-2,3.36-1.37Zm.53.63,3.15,1.36v.11h.1l-1.26,3.25Zm-.11-.42L308,396l4.41,4.4Zm-5.56-2.41-3-1.26h6.19Zm-5.56,2.31L295,400l4.41-4.41Zm-2.41,5.56-1.26,3V401.3ZM298,410l1.26,3-4.4-4.4Zm5.46,2.31,3,1.26h-6.2Zm5.67-2.2,3-1.26-4.4,4.4Zm2.31-5.57,1.26-3v6.19Zm1.36-4.3-4.93-4.93h4.93ZM300.12,395l3.47-3.46,3.46,3.46Zm-5.66,5.25v-4.93h4.93Zm-.32,7.66-3.46-3.46,3.46-3.47Zm.32.84,4.93,4.93h-4.93ZM307.05,414l-3.46,3.46L300.12,414Zm5.77-5.25v4.93h-4.93Zm.32-7.77,3.46,3.47-3.46,3.46Zm0-5.45a10.12,10.12,0,0,1,2.41,3.77l-2.41,1.05Zm-5.46-.53,1.05-2.52a11.92,11.92,0,0,1,3.78,2.52Zm-.31-.21L304,391.43a10.35,10.35,0,0,1,4.4.95Zm-7.56.11-1.05-2.52a12.7,12.7,0,0,1,4.51-.95Zm-.32.1h-4.72a10.08,10.08,0,0,1,3.78-2.41Zm-5.35,5.35-2.52-1.05a12,12,0,0,1,2.52-3.77Zm-.21.32L290.57,404a10.37,10.37,0,0,1,.95-4.41Zm.11,7.66-2.52,1.05a12.7,12.7,0,0,1-.95-4.51Zm.1.32v4.72a10.08,10.08,0,0,1-2.41-3.78ZM299.6,414l-1.05,2.52a13.65,13.65,0,0,1-3.88-2.52Zm.21.1,3.36,3.36a10.36,10.36,0,0,1-4.41-.94Zm7.66,0,1,2.52a12.7,12.7,0,0,1-4.51.95Zm.32-.1h4.72a10.54,10.54,0,0,1-3.68,2.41Zm5.35-5.46,2.52,1a13.65,13.65,0,0,1-2.52,3.88Zm.1-.31,3.36-3.36a10.42,10.42,0,0,1-.94,4.41Zm0-7.56,2.52-1.05a12.7,12.7,0,0,1,.95,4.51Z"/><path class="cls-2" d="M281.87,404.74h0a13.65,13.65,0,0,0-9.45-4,13.33,13.33,0,0,0-9.45,3.89l-.1.1a13.44,13.44,0,0,0,0,18.89l.1.11a13.45,13.45,0,0,0,18.9,0l.1-.11a13.33,13.33,0,0,0,3.88-9.44A13.92,13.92,0,0,0,281.87,404.74Zm-.53,13.33L278,419.44l2-4.73,1.36,3.36Zm-3.78,1.47-5.35,2.2-5.35-2.2-2.1-5.35,2.2-5.36,5.35-2.2,5.36,2.2,2.2,5.36ZM276,423.32h0L272.63,422l4.72-1.89Zm-7.35-.11h-.1v.11L267.17,420l4.72,2Zm-5.35-5.35h0l1.36-3.36,1.89,4.73Zm0-7.56,3.36-1.36-2,4.72-1.36-3.36Zm8.71-3.77-4.72,1.88,1.36-3.35Zm5.56,2-4.72-2,3.36-1.37Zm.53.63,3.15,1.36v.11h.1l-1.26,3.25Zm-.11-.42-1.26-3,4.41,4.4Zm-5.56-2.41-3-1.26h6.19Zm-5.56,2.3-3.15,1.16,4.41-4.41Zm-2.42,5.57-1.26,3V411Zm2.31,5.56,1.26,3-4.41-4.4Zm5.46,2.31,3,1.26h-6.19Zm5.67-2.21,3-1.25-4.41,4.4Zm2.31-5.56,1.26-3v6.19Zm1.36-4.3-4.93-4.93h4.93Zm-12.7-5.25,3.46-3.46,3.47,3.46ZM263.18,410v-4.93h4.94Zm-.31,7.66-3.46-3.46,3.46-3.47Zm.31.84,4.94,4.93h-4.94Zm12.6,5.25-3.47,3.46-3.46-3.46Zm5.77-5.25v4.93h-4.93Zm.32-7.77,3.46,3.47-3.46,3.46Zm0-5.45a10.25,10.25,0,0,1,2.41,3.77l-2.41,1Zm-5.46-.53,1-2.52a11.92,11.92,0,0,1,3.78,2.52Zm-.32-.21-3.36-3.36a10.37,10.37,0,0,1,4.41.95Zm-7.55.11-1.05-2.52a12.7,12.7,0,0,1,4.51-.95Zm-.32.1H263.5a10.08,10.08,0,0,1,3.78-2.41Zm-5.35,5.35-2.52-1a12,12,0,0,1,2.52-3.77Zm-.21.32-3.36,3.36a10.51,10.51,0,0,1,.94-4.41Zm.1,7.66-2.52,1.05a12.92,12.92,0,0,1-.94-4.51Zm.11.32v4.72a10.23,10.23,0,0,1-2.42-3.78Zm5.46,5.35-1.05,2.52a13.84,13.84,0,0,1-3.89-2.52Zm.21.1,3.35,3.36a10.35,10.35,0,0,1-4.4-.94Zm7.66,0,1.05,2.52a12.76,12.76,0,0,1-4.52.95Zm.31-.1h4.73a10.54,10.54,0,0,1-3.68,2.41Zm5.36-5.46,2.51,1.05a13.62,13.62,0,0,1-2.51,3.88Zm.1-.31,3.36-3.36a10.43,10.43,0,0,1-.95,4.41Zm0-7.56,2.52-1.05a12.92,12.92,0,0,1,.94,4.51Z"/><path class="cls-2" d="M249,405.71h0a13.56,13.56,0,0,0-9.44-4,13.37,13.37,0,0,0-9.45,3.88l-.1.11a13.41,13.41,0,0,0,0,18.89l.1.1a13.41,13.41,0,0,0,18.89,0l.11-.1a13.33,13.33,0,0,0,3.88-9.45A13.86,13.86,0,0,0,249,405.71ZM248.48,419l-3.36,1.36,2-4.72,1.36,3.36Zm-3.78,1.47-5.35,2.2-5.35-2.2-2.1-5.36,2.2-5.35,5.35-2.2,5.36,2.2,2.2,5.35Zm-1.57,3.77h0l-3.36-1.36,4.72-1.89Zm-7.35-.1h-.1v.1l-1.37-3.35,4.72,2Zm-5.35-5.35h0l1.36-3.36,1.89,4.72Zm0-7.56,3.36-1.36-2,4.72-1.36-3.36Zm8.71-3.78-4.72,1.89,1.36-3.36Zm5.56,2-4.72-2,3.36-1.36Zm.53.63,3.14,1.36v.1h.11l-1.26,3.26Zm-.11-.42-1.26-3.05,4.41,4.41Zm-5.56-2.42-3-1.26h6.19ZM234,409.59l-3.15,1.16,4.41-4.41Zm-2.42,5.56-1.26,3.05V412Zm2.31,5.57,1.26,3-4.41-4.41Zm5.46,2.3,3,1.26H236.2Zm5.67-2.2,3-1.26L243.65,424Zm2.31-5.56,1.25-3.05v6.2Zm1.36-4.3L243.76,406h4.93ZM236,405.71l3.46-3.47,3.47,3.47ZM230.32,411V406h4.94Zm-.31,7.66-3.47-3.47,3.47-3.46Zm.31.84,4.94,4.93h-4.94Zm12.6,5.24-3.47,3.47L236,424.7Zm5.77-5.24v4.93h-4.93Zm.31-7.77,3.47,3.46L249,418.62Zm0-5.46a10.23,10.23,0,0,1,2.42,3.78L249,411.06Zm-5.45-.52,1-2.52a11.76,11.76,0,0,1,3.77,2.52Zm-.32-.21-3.36-3.36a10.36,10.36,0,0,1,4.41.94Zm-7.55.1-1.05-2.52a12.87,12.87,0,0,1,4.51-.94Zm-.32.11h-4.72a10.23,10.23,0,0,1,3.78-2.42ZM230,411.06,227.49,410a11.92,11.92,0,0,1,2.52-3.78Zm-.21.31-3.36,3.36a10.35,10.35,0,0,1,.94-4.4Zm.1,7.67-2.52,1a13,13,0,0,1-.94-4.52Zm.11.31v4.72a10.19,10.19,0,0,1-2.42-3.77Zm5.46,5.35-1.05,2.52a13.84,13.84,0,0,1-3.89-2.52Zm.21.11,3.35,3.36a10.35,10.35,0,0,1-4.4-.95Zm7.66,0,1,2.52a13,13,0,0,1-4.52.94Zm.31-.11h4.72a10.58,10.58,0,0,1-3.67,2.42Zm5.35-5.45,2.52,1.05a13.79,13.79,0,0,1-2.52,3.88Zm.11-.32,3.36-3.36a10.37,10.37,0,0,1-.95,4.41Zm0-7.56,2.52-1a12.87,12.87,0,0,1,.94,4.51Z"/><path class="cls-2" d="M217.6,395.91h0a13.59,13.59,0,0,0-9.45-4,13.33,13.33,0,0,0-9.44,3.88l-.11.11a13.44,13.44,0,0,0,0,18.89l.11.1a13.41,13.41,0,0,0,18.89,0l.1-.1a13.33,13.33,0,0,0,3.89-9.45A13.86,13.86,0,0,0,217.6,395.91Zm-.53,13.32-3.36,1.37,2-4.72,1.36,3.35Zm-3.78,1.47-5.35,2.21-5.35-2.21-2.1-5.35,2.2-5.35,5.36-2.21L213.4,400l2.2,5.35Zm-1.57,3.78h0l-3.36-1.36,4.72-1.89Zm-7.35-.1h-.1v.1l-1.37-3.36,4.73,2ZM199,409h0l1.37-3.35,1.88,4.72Zm0-7.55,3.36-1.37-2,4.73L199,401.47Zm8.71-3.78L203,399.58l1.36-3.36Zm5.56,2-4.72-2,3.36-1.36Zm.53.63,3.15,1.37v.1h.1L215.81,405Zm-.11-.42-1.26-3,4.41,4.41Zm-5.56-2.41-3-1.26h6.19Zm-5.56,2.31-3.15,1.15,4.41-4.41Zm-2.41,5.56-1.26,3V402.2Zm2.3,5.56,1.26,3-4.4-4.41Zm5.46,2.31,3.05,1.26h-6.2Zm5.67-2.2,3-1.26-4.4,4.41Zm2.31-5.56,1.26-3v6.19Zm1.36-4.31-4.93-4.93h4.93Zm-12.7-5.24,3.47-3.47,3.46,3.47Zm-5.66,5.24v-4.93h4.93Zm-.32,7.66-3.46-3.46,3.46-3.46Zm.32.84,4.93,4.94h-4.93Zm12.59,5.25-3.46,3.47-3.47-3.47Zm5.77-5.25v4.94h-4.93Zm.32-7.76,3.46,3.46-3.46,3.46Zm0-5.46a10.08,10.08,0,0,1,2.41,3.78l-2.41,1.05Zm-5.46-.52,1.05-2.52a11.92,11.92,0,0,1,3.78,2.52Zm-.31-.21-3.36-3.36a10.35,10.35,0,0,1,4.4.94Zm-7.56.1-1.05-2.52a12.92,12.92,0,0,1,4.51-.94Zm-.32.11h-4.72a10.23,10.23,0,0,1,3.78-2.42Zm-5.35,5.35-2.52-1.05a11.92,11.92,0,0,1,2.52-3.78Zm-.21.31L195,404.93a10.43,10.43,0,0,1,.95-4.41Zm.11,7.66-2.52,1a12.66,12.66,0,0,1-.95-4.51Zm.1.32v4.72a10.08,10.08,0,0,1-2.41-3.78Zm5.46,5.35L203,417.42a13.65,13.65,0,0,1-3.88-2.52Zm.21.11,3.36,3.36a10.37,10.37,0,0,1-4.41-.95Zm7.66,0,1,2.52a12.92,12.92,0,0,1-4.51.94Zm.32-.11H217a10.71,10.71,0,0,1-3.68,2.42Zm5.35-5.46,2.52,1.05a13.84,13.84,0,0,1-2.52,3.89Zm.1-.31,3.36-3.36a10.39,10.39,0,0,1-.94,4.41Zm0-7.56,2.52-1.05a12.76,12.76,0,0,1,.95,4.52Z"/><path class="cls-2" d="M194.07,374.87h0a13.62,13.62,0,0,0-9.44-4,13.3,13.3,0,0,0-9.45,3.89l-.11.1a13.44,13.44,0,0,0,0,18.89l.11.11a13.44,13.44,0,0,0,18.89,0l.11-.11a13.33,13.33,0,0,0,3.88-9.44A13.88,13.88,0,0,0,194.07,374.87Zm-.52,13.33-3.36,1.37,2-4.73,1.37,3.36Zm-3.78,1.47-5.35,2.2-5.36-2.2-2.1-5.35,2.21-5.35,5.35-2.21,5.35,2.21,2.21,5.35Zm-1.58,3.78h0l-3.35-1.37,4.72-1.88Zm-7.34-.11h-.11v.11l-1.36-3.36,4.72,2ZM175.49,388h0l1.37-3.36,1.89,4.73Zm0-7.56,3.36-1.36-2,4.72-1.37-3.36Zm8.72-3.77-4.73,1.89,1.37-3.36Zm5.56,2-4.72-2,3.35-1.37Zm.52.63,3.15,1.36v.11h.11L192.29,384Zm-.1-.42-1.26-3,4.41,4.4Zm-5.56-2.41-3-1.26h6.19Zm-5.57,2.31-3.15,1.15,4.41-4.41Zm-2.41,5.56-1.26,3v-6.19Zm2.31,5.56,1.26,3-4.41-4.4Zm5.46,2.31,3,1.26h-6.19Zm5.66-2.2,3-1.26-4.41,4.4Zm2.31-5.57,1.26-3v6.19Zm1.37-4.3-4.94-4.93h4.94Zm-12.7-5.25,3.46-3.46,3.46,3.46Zm-5.67,5.25v-4.93h4.93Zm-.32,7.66-3.46-3.46,3.46-3.47Zm.32.84,4.93,4.93h-4.93ZM188,393.87l-3.46,3.46-3.46-3.46Zm5.78-5.25v4.93h-4.94Zm.31-7.77,3.47,3.47-3.47,3.46Zm0-5.45a10.23,10.23,0,0,1,2.42,3.78l-2.42,1Zm-5.46-.53,1-2.52a11.92,11.92,0,0,1,3.78,2.52Zm-.31-.21-3.36-3.36a10.43,10.43,0,0,1,4.41.95Zm-7.56.11-1.05-2.52a12.76,12.76,0,0,1,4.52-.95Zm-.31.1H175.7a10.08,10.08,0,0,1,3.78-2.41Zm-5.36,5.35-2.51-1a12.06,12.06,0,0,1,2.51-3.78Zm-.21.32-3.35,3.36a10.36,10.36,0,0,1,.94-4.41Zm.11,7.66-2.52,1.05a12.92,12.92,0,0,1-.94-4.51Zm.1.32v4.72a10.34,10.34,0,0,1-2.41-3.78Zm5.46,5.35-1.05,2.52a13.65,13.65,0,0,1-3.88-2.52Zm.21.1,3.36,3.36a10.42,10.42,0,0,1-4.41-.94Zm7.66,0,1,2.52a12.7,12.7,0,0,1-4.51.95Zm.32-.1h4.72a10.59,10.59,0,0,1-3.67,2.41Zm5.35-5.46,2.52,1a13.65,13.65,0,0,1-2.52,3.88Zm.11-.31,3.35-3.36a10.42,10.42,0,0,1-.94,4.41Zm0-7.56,2.52-1.05a12.92,12.92,0,0,1,.94,4.51Z"/><path class="cls-2" d="M176.56,347.52h0a13.61,13.61,0,0,0-9.44-4,13.32,13.32,0,0,0-9.45,3.89l-.1.1a13.41,13.41,0,0,0,0,18.89l.1.11a13.44,13.44,0,0,0,18.89,0l.11-.11a13.33,13.33,0,0,0,3.88-9.44A13.88,13.88,0,0,0,176.56,347.52ZM176,360.85l-3.36,1.37,2-4.73,1.37,3.36Zm-3.78,1.47-5.35,2.2-5.35-2.2-2.1-5.35,2.2-5.35,5.35-2.21,5.36,2.21,2.2,5.35Zm-1.57,3.78h0l-3.36-1.37,4.72-1.88Zm-7.35-.11h-.11v.11l-1.36-3.36,4.72,2ZM158,360.64h0l1.36-3.36,1.89,4.73Zm0-7.56,3.36-1.36-2,4.72L158,353.08Zm8.71-3.77L162,351.2l1.36-3.36Zm5.56,2-4.72-2,3.36-1.37Zm.53.63,3.14,1.36v.11H176l-1.26,3.25Zm-.11-.42-1.26-3,4.41,4.4Zm-5.56-2.41-3.05-1.26h6.2Zm-5.56,2.31-3.15,1.15,4.4-4.41ZM159.14,357l-1.26,3v-6.19Zm2.31,5.56,1.26,3-4.41-4.4Zm5.46,2.31,3,1.26h-6.19Zm5.67-2.2,3-1.26-4.41,4.4Zm2.3-5.57,1.26-3v6.19Zm1.37-4.3-4.93-4.93h4.93Zm-12.7-5.25,3.46-3.46,3.47,3.46Zm-5.67,5.25v-4.93h4.93Zm-.31,7.66L154.1,357l3.47-3.47Zm.31.84,4.93,4.93h-4.93Zm12.6,5.25L167,370l-3.46-3.46Zm5.77-5.25v4.93h-4.93Zm.31-7.77L180,357l-3.47,3.46Zm0-5.45a10.23,10.23,0,0,1,2.42,3.78l-2.42,1Zm-5.45-.53,1-2.52a11.87,11.87,0,0,1,3.77,2.52Zm-.32-.21L167.43,344a10.37,10.37,0,0,1,4.41.95Zm-7.56.11-1-2.52a12.66,12.66,0,0,1,4.51-.95Zm-.31.1H158.2a10.08,10.08,0,0,1,3.78-2.41Zm-5.35,5.35-2.52-1a11.92,11.92,0,0,1,2.52-3.78Zm-.21.32L154,356.55a10.36,10.36,0,0,1,.94-4.41Zm.1,7.66-2.52,1a12.92,12.92,0,0,1-.94-4.51Zm.11.32v4.72a10.23,10.23,0,0,1-2.42-3.78Zm5.45,5.35L162,369a13.84,13.84,0,0,1-3.89-2.52Zm.21.1,3.36,3.36a10.35,10.35,0,0,1-4.4-.94Zm7.67,0,1,2.52a12.76,12.76,0,0,1-4.52.95Zm.31-.1h4.72a10.5,10.5,0,0,1-3.67,2.41Zm5.35-5.46,2.52,1.05a13.65,13.65,0,0,1-2.52,3.88Zm.11-.31,3.36-3.36a10.43,10.43,0,0,1-.95,4.41Zm0-7.56,2.52-1.05a12.92,12.92,0,0,1,.94,4.51Z"/><path class="cls-2" d="M171.42,315.83h0a13.62,13.62,0,0,0-9.44-4,13.33,13.33,0,0,0-9.45,3.88l-.11.11a13.44,13.44,0,0,0,0,18.89l.11.11a13.44,13.44,0,0,0,18.89,0l.11-.11a13.33,13.33,0,0,0,3.88-9.44A13.86,13.86,0,0,0,171.42,315.83Zm-.52,13.33-3.36,1.36,2-4.72,1.37,3.36Zm-3.78,1.47-5.35,2.2-5.36-2.2-2.1-5.35,2.21-5.36,5.35-2.2,5.35,2.2,2.21,5.36Zm-1.58,3.78h0L162.19,333l4.72-1.89Zm-7.34-.11h-.11v.11l-1.36-3.36,4.72,2ZM152.84,329h0l1.37-3.36,1.89,4.72Zm0-7.56L156.2,320l-2,4.72-1.37-3.36Zm8.72-3.78-4.73,1.89,1.37-3.36Zm5.56,2-4.72-2,3.35-1.36Zm.52.63,3.15,1.36v.11h.11L169.64,325Zm-.1-.42-1.26-3.05,4.41,4.41ZM162,317.4l-3-1.26h6.19Zm-5.57,2.31-3.15,1.16,4.41-4.41ZM154,325.28l-1.26,3v-6.19Zm2.31,5.56,1.26,3-4.41-4.41Zm5.46,2.31,3,1.26h-6.19Zm5.66-2.21,3-1.26-4.41,4.41Zm2.31-5.56,1.26-3v6.19Zm1.37-4.3-4.94-4.94h4.94Zm-12.7-5.25,3.46-3.46,3.46,3.46Zm-5.67,5.25v-4.94h4.93Zm-.32,7.66L149,325.28l3.46-3.47Zm.32.84,4.93,4.93h-4.93Zm12.59,5.25-3.46,3.46-3.46-3.46Zm5.78-5.25v4.93h-4.94Zm.31-7.77,3.46,3.47-3.46,3.46Zm0-5.46a10.23,10.23,0,0,1,2.42,3.78l-2.42,1.05Zm-5.46-.52,1-2.52a11.92,11.92,0,0,1,3.78,2.52Zm-.31-.21-3.36-3.36a10.43,10.43,0,0,1,4.41.95Zm-7.56.1L157,313.21a12.76,12.76,0,0,1,4.52-.95Zm-.31.11h-4.73a10.08,10.08,0,0,1,3.78-2.41Zm-5.36,5.35-2.51-1.05a11.89,11.89,0,0,1,2.51-3.78Zm-.21.32-3.35,3.36a10.36,10.36,0,0,1,.94-4.41Zm.11,7.66-2.52,1a13,13,0,0,1-.94-4.51Zm.1.31v4.73a10.21,10.21,0,0,1-2.41-3.78Zm5.46,5.36-1,2.52a13.65,13.65,0,0,1-3.88-2.52Zm.21.1,3.36,3.36a10.42,10.42,0,0,1-4.41-.94Zm7.66,0,1.05,2.52a12.7,12.7,0,0,1-4.51.95Zm.32-.1h4.72a10.59,10.59,0,0,1-3.67,2.41Zm5.35-5.46,2.52,1.05a13.65,13.65,0,0,1-2.52,3.88Zm.11-.32,3.35-3.35a10.35,10.35,0,0,1-.94,4.4Zm0-7.55,2.52-1.05A12.92,12.92,0,0,1,175,325Z"/><path class="cls-2" d="M176.62,283.11h0a13.6,13.6,0,0,0-9.45-4,13.37,13.37,0,0,0-9.45,3.88l-.1.11a13.44,13.44,0,0,0,0,18.89l.1.1a13.42,13.42,0,0,0,18.9,0l.1-.1a13.31,13.31,0,0,0,3.88-9.45A13.85,13.85,0,0,0,176.62,283.11Zm-.53,13.32-3.36,1.37,2-4.72,1.36,3.35Zm-3.78,1.47L167,300.11l-5.35-2.21-2.1-5.35,2.2-5.35,5.36-2.21,5.35,2.21,2.2,5.35Zm-1.57,3.78h0l-3.36-1.36,4.72-1.89Zm-7.35-.1h-.1v.1l-1.37-3.36,4.73,2ZM158,296.23h0l1.36-3.36,1.89,4.72Zm0-7.56,3.36-1.37-2,4.73L158,288.67Zm8.71-3.78L162,286.78l1.36-3.36Zm5.56,2-4.72-2,3.36-1.36Zm.53.63,3.15,1.37v.1h.1l-1.26,3.26Zm-.11-.42-1.26-3,4.41,4.41Zm-5.56-2.41-3-1.26h6.19ZM161.61,287l-3.15,1.15,4.41-4.4Zm-2.42,5.56-1.26,3.05v-6.2Zm2.31,5.56,1.26,3.05-4.41-4.41Zm5.46,2.31,3,1.26h-6.19Zm5.67-2.2,3-1.26-4.41,4.41Zm2.31-5.56,1.26-3.05v6.2Zm1.36-4.31-4.93-4.93h4.93Zm-12.7-5.24,3.47-3.47,3.46,3.47Zm-5.67,5.24v-4.93h4.94Zm-.31,7.67-3.46-3.47,3.46-3.46Zm.31.83,4.94,4.94h-4.94Zm12.6,5.25-3.46,3.47-3.47-3.47Zm5.77-5.25v4.94h-4.93Zm.32-7.76,3.46,3.46L176.62,296Zm0-5.46a10.08,10.08,0,0,1,2.41,3.78l-2.41,1Zm-5.46-.52,1.05-2.52a11.92,11.92,0,0,1,3.78,2.52Zm-.32-.21-3.35-3.36a10.35,10.35,0,0,1,4.4.94Zm-7.55.1-1-2.52a12.92,12.92,0,0,1,4.51-.94Zm-.32.11h-4.72a10.23,10.23,0,0,1,3.78-2.42Zm-5.35,5.35-2.52-1a11.92,11.92,0,0,1,2.52-3.78Zm-.21.31-3.36,3.36a10.43,10.43,0,0,1,.95-4.41Zm.1,7.66L155,297.48a12.66,12.66,0,0,1-.95-4.51Zm.11.32v4.72a10.08,10.08,0,0,1-2.41-3.78Zm5.46,5.35L162,304.62a13.84,13.84,0,0,1-3.89-2.52Zm.21.11,3.36,3.36a10.37,10.37,0,0,1-4.41-.95Zm7.66,0,1.05,2.52a13,13,0,0,1-4.51.94Zm.31-.11H176a10.71,10.71,0,0,1-3.68,2.42Zm5.36-5.46,2.52,1.05a13.84,13.84,0,0,1-2.52,3.89Zm.1-.31,3.36-3.36a10.36,10.36,0,0,1-.94,4.41Zm0-7.56,2.52-1a12.75,12.75,0,0,1,.94,4.52Z"/><path class="cls-2" d="M192.34,254.3h0a13.6,13.6,0,0,0-9.45-4,13.37,13.37,0,0,0-9.45,3.88l-.1.11a13.44,13.44,0,0,0,0,18.89l.1.1a13.42,13.42,0,0,0,18.9,0l.1-.1a13.33,13.33,0,0,0,3.88-9.45A13.89,13.89,0,0,0,192.34,254.3Zm-.53,13.33L188.45,269l2-4.72,1.36,3.36ZM188,269.1l-5.35,2.2-5.35-2.2-2.1-5.36,2.2-5.35,5.35-2.2,5.36,2.2,2.2,5.35Zm-1.57,3.78h0l-3.36-1.37,4.72-1.89Zm-7.35-.11H179v.11l-1.37-3.36,4.73,2Zm-5.35-5.35h0l1.36-3.36,1.89,4.72Zm0-7.56,3.36-1.36-2,4.72-1.36-3.36Zm8.71-3.78L177.75,258l1.36-3.36Zm5.56,2-4.72-2,3.36-1.36Zm.53.63,3.15,1.36v.11h.1l-1.26,3.25Zm-.11-.42-1.26-3.05,4.41,4.41Zm-5.56-2.42-3-1.26H186Zm-5.56,2.31-3.15,1.16,4.41-4.41Zm-2.42,5.56-1.26,3.05V260.6Zm2.31,5.57,1.26,3-4.41-4.41Zm5.46,2.31,3,1.26h-6.19Zm5.67-2.21,3-1.26L187,272.56Zm2.31-5.56,1.26-3V267Zm1.36-4.3-4.93-4.94H192Zm-12.7-5.25,3.46-3.47,3.47,3.47Zm-5.67,5.25v-4.94h4.94Zm-.31,7.66-3.46-3.47,3.46-3.46Zm.31.84,4.94,4.93h-4.94Zm12.6,5.24-3.47,3.47-3.46-3.47Zm5.77-5.24V273h-4.93Zm.32-7.77,3.46,3.46-3.46,3.47Zm0-5.46a10.21,10.21,0,0,1,2.41,3.78l-2.41,1Zm-5.46-.52,1.05-2.52a11.92,11.92,0,0,1,3.78,2.52Zm-.32-.21-3.36-3.36a10.36,10.36,0,0,1,4.41.94Zm-7.55.1-1-2.52a12.92,12.92,0,0,1,4.51-.94Zm-.32.11H174a10.23,10.23,0,0,1,3.78-2.42Zm-5.35,5.35-2.52-1a11.92,11.92,0,0,1,2.52-3.78Zm-.21.32-3.36,3.35a10.35,10.35,0,0,1,.95-4.4Zm.1,7.66-2.51,1.05a12.76,12.76,0,0,1-.95-4.52Zm.11.31v4.73a10.23,10.23,0,0,1-2.42-3.78Zm5.46,5.35-1.05,2.52a13.84,13.84,0,0,1-3.89-2.52Zm.21.11,3.36,3.36a10.37,10.37,0,0,1-4.41-.95Zm7.66,0,1.05,2.52a13,13,0,0,1-4.52.94Zm.31-.11h4.73a10.71,10.71,0,0,1-3.68,2.42Zm5.36-5.45,2.51,1.05a13.62,13.62,0,0,1-2.51,3.88Zm.1-.32,3.36-3.36a10.37,10.37,0,0,1-1,4.41Zm0-7.55,2.52-1.05a12.87,12.87,0,0,1,.94,4.51Z"/><path class="cls-2" d="M216.88,234.36h0a13.59,13.59,0,0,0-9.45-4,13.33,13.33,0,0,0-9.44,3.88l-.11.11a13.44,13.44,0,0,0,0,18.89l.11.1a13.41,13.41,0,0,0,18.89,0l.11-.1a13.35,13.35,0,0,0,3.88-9.45A13.86,13.86,0,0,0,216.88,234.36Zm-.52,13.33L213,249.05l2-4.72,1.37,3.36Zm-3.78,1.47-5.36,2.2-5.35-2.2-2.1-5.36,2.21-5.35,5.35-2.2,5.35,2.2,2.21,5.35ZM211,252.93h0l-3.36-1.36,4.73-1.89Zm-7.34-.1h-.11v.1l-1.36-3.35,4.72,2Zm-5.36-5.35h0l1.37-3.36,1.89,4.72Zm0-7.56,3.36-1.37-2,4.73-1.37-3.36Zm8.71-3.78L202.29,238l1.37-3.36Zm5.57,2-4.73-2,3.36-1.36Zm.52.63,3.15,1.37v.1h.11l-1.26,3.26Zm-.1-.42-1.26-3,4.41,4.41Zm-5.57-2.41-3-1.26h6.19Zm-5.56,2.31-3.15,1.15,4.41-4.4Zm-2.41,5.56-1.26,3v-6.2Zm2.31,5.57,1.26,3L198.62,248Zm5.45,2.3,3.05,1.26h-6.19Zm5.67-2.2,3.05-1.26-4.41,4.41Zm2.31-5.56,1.26-3v6.2Zm1.37-4.31-4.94-4.93h4.94Zm-12.7-5.24,3.46-3.47,3.46,3.47Zm-5.67,5.24v-4.93h4.93Zm-.32,7.67-3.46-3.47,3.46-3.46Zm.32.84,4.93,4.93H198.2Zm12.59,5.24-3.46,3.47-3.46-3.47Zm5.78-5.24V253h-4.94Zm.31-7.77,3.46,3.46-3.46,3.47Zm0-5.46a10.08,10.08,0,0,1,2.41,3.78l-2.41,1.05Zm-5.46-.52,1.05-2.52a11.92,11.92,0,0,1,3.78,2.52Zm-.31-.21-3.36-3.36a10.42,10.42,0,0,1,4.41.94Zm-7.56.1-1.05-2.52a13,13,0,0,1,4.51-.94Zm-.31.11h-4.73a10.23,10.23,0,0,1,3.78-2.42Zm-5.36,5.35-2.52-1.05a11.92,11.92,0,0,1,2.52-3.78Zm-.21.31-3.35,3.36a10.42,10.42,0,0,1,.94-4.41Zm.11,7.67-2.52,1.05a12.75,12.75,0,0,1-.94-4.52Zm.1.31v4.72a10.12,10.12,0,0,1-2.41-3.77Zm5.46,5.35-1.05,2.52a13.65,13.65,0,0,1-3.88-2.52Zm.21.11,3.36,3.36a10.43,10.43,0,0,1-4.41-.95Zm7.66,0,1,2.52a12.92,12.92,0,0,1-4.51.94Zm.32-.11h4.72a10.76,10.76,0,0,1-3.67,2.42Zm5.35-5.45,2.52,1a13.93,13.93,0,0,1-2.52,3.88Zm.11-.32,3.35-3.36a10.36,10.36,0,0,1-.94,4.41Zm0-7.56L219.5,239a12.76,12.76,0,0,1,.95,4.52Z"/><path class="cls-2" d="M246.1,221.45h0a13.59,13.59,0,0,0-9.45-4,13.33,13.33,0,0,0-9.44,3.88l-.11.11a13.44,13.44,0,0,0,0,18.89l.11.1a13.41,13.41,0,0,0,18.89,0l.11-.1a13.33,13.33,0,0,0,3.88-9.45A13.86,13.86,0,0,0,246.1,221.45Zm-.52,13.33-3.36,1.36,2-4.72,1.37,3.36Zm-3.78,1.47-5.36,2.2-5.35-2.2-2.1-5.36,2.21-5.35,5.35-2.2,5.35,2.2,2.21,5.35ZM240.22,240h0l-3.36-1.36,4.73-1.89Zm-7.34-.1h-.11v.1l-1.36-3.35,4.72,2Zm-5.36-5.35h0l1.37-3.36,1.89,4.72Zm0-7.56,3.36-1.36-2,4.72L227.52,227Zm8.71-3.78-4.72,1.89,1.37-3.36Zm5.57,2-4.73-2,3.36-1.36Zm.52.63,3.15,1.36v.1h.11l-1.26,3.26Zm-.1-.42L241,222.39l4.41,4.41ZM236.65,223l-3-1.26h6.19Zm-5.56,2.31-3.15,1.15,4.41-4.4Zm-2.41,5.56-1.26,3.05v-6.2Zm2.31,5.57,1.26,3-4.41-4.41Zm5.45,2.3,3.05,1.26H233.3Zm5.67-2.2,3-1.26-4.41,4.41Zm2.31-5.56,1.26-3.05v6.2Zm1.37-4.31-4.94-4.93h4.94Zm-12.7-5.24,3.46-3.47,3.46,3.47Zm-5.67,5.24v-4.93h4.93Zm-.32,7.67-3.46-3.47,3.46-3.46Zm.32.84,4.93,4.93h-4.93ZM240,240.44l-3.46,3.47-3.46-3.47Zm5.78-5.24v4.93h-4.94Zm.31-7.77,3.46,3.46-3.46,3.47Zm0-5.46a10.08,10.08,0,0,1,2.41,3.78l-2.41,1.05Zm-5.46-.52,1.05-2.52a11.92,11.92,0,0,1,3.78,2.52Zm-.31-.21L237,217.88a10.42,10.42,0,0,1,4.41.94Zm-7.56.1-1.05-2.52a13,13,0,0,1,4.51-.94Zm-.31.11h-4.73a10.23,10.23,0,0,1,3.78-2.42Zm-5.36,5.35-2.52-1.05A11.92,11.92,0,0,1,227.1,222Zm-.21.31-3.36,3.36a10.35,10.35,0,0,1,.95-4.4Zm.11,7.67-2.52,1.05a12.76,12.76,0,0,1-.95-4.52Zm.1.31v4.72a10,10,0,0,1-2.41-3.77Zm5.46,5.35L231.51,243a13.65,13.65,0,0,1-3.88-2.52Zm.21.11,3.36,3.36a10.43,10.43,0,0,1-4.41-.95Zm7.66,0,1,2.52A12.92,12.92,0,0,1,237,244Zm.32-.11h4.72a10.76,10.76,0,0,1-3.67,2.42ZM246.1,235l2.52,1a13.79,13.79,0,0,1-2.52,3.88Zm.11-.32,3.35-3.36a10.36,10.36,0,0,1-.94,4.41Zm0-7.56,2.51-1a12.66,12.66,0,0,1,.95,4.51Z"/><path class="cls-2" d="M279.84,220.92h0a13.61,13.61,0,0,0-9.44-4,13.33,13.33,0,0,0-9.45,3.89l-.1.1a13.41,13.41,0,0,0,0,18.89l.1.11a13.44,13.44,0,0,0,18.89,0l.11-.11a13.33,13.33,0,0,0,3.88-9.44A13.88,13.88,0,0,0,279.84,220.92Zm-.52,13.33L276,235.62l2-4.73,1.36,3.36Zm-3.78,1.47-5.35,2.21-5.35-2.21-2.1-5.35,2.2-5.35,5.35-2.21,5.36,2.21,2.2,5.35ZM274,239.5h0l-3.36-1.37,4.72-1.88Zm-7.35-.11h-.1v.11l-1.37-3.36,4.72,2ZM261.27,234h0l1.36-3.36,1.89,4.73Zm0-7.56,3.36-1.36-2,4.72-1.36-3.36Zm8.71-3.77-4.72,1.89,1.36-3.36Zm5.56,2-4.72-2,3.36-1.37Zm.53.63,3.14,1.36v.11h.11l-1.26,3.25Zm-.11-.42-1.26-3,4.41,4.41Zm-5.56-2.41-3-1.26h6.19Zm-5.56,2.31L261.69,226l4.41-4.41Zm-2.42,5.56-1.26,3v-6.19Zm2.31,5.56,1.26,3-4.41-4.4Zm5.46,2.31,3,1.26H267Zm5.67-2.2,3-1.26-4.41,4.4Zm2.31-5.57,1.25-3v6.19Zm1.36-4.3-4.93-4.93h4.93Zm-12.7-5.25,3.46-3.46,3.47,3.46Zm-5.67,5.25v-4.93h4.94Zm-.31,7.66-3.47-3.46,3.47-3.47Zm.31.84,4.94,4.93h-4.94Zm12.6,5.25-3.47,3.46-3.46-3.46Zm5.77-5.25v4.93H274.6Zm.31-7.77,3.47,3.47-3.47,3.46Zm0-5.45a10.23,10.23,0,0,1,2.42,3.78l-2.42,1.05Zm-5.45-.53,1.05-2.52a11.76,11.76,0,0,1,3.77,2.52Zm-.32-.21-3.36-3.36a10.37,10.37,0,0,1,4.41,1Zm-7.55.11-1-2.52a12.66,12.66,0,0,1,4.51-1Zm-.32.1h-4.72a10.08,10.08,0,0,1,3.78-2.41Zm-5.35,5.36-2.52-1.05a11.92,11.92,0,0,1,2.52-3.78Zm-.21.31L257.28,230a10.36,10.36,0,0,1,.94-4.41Zm.1,7.66-2.52,1.05a12.92,12.92,0,0,1-.94-4.51Zm.11.32v4.72a10.23,10.23,0,0,1-2.42-3.78Zm5.46,5.35-1.05,2.52a13.84,13.84,0,0,1-3.89-2.52Zm.21.1,3.35,3.36a10.35,10.35,0,0,1-4.4-.94Zm7.66,0,1.05,2.52a12.76,12.76,0,0,1-4.52,1Zm.31-.1h4.72a10.41,10.41,0,0,1-3.67,2.41Zm5.35-5.46,2.52,1a13.65,13.65,0,0,1-2.52,3.88Zm.11-.31,3.36-3.36a10.43,10.43,0,0,1-.95,4.41Zm0-7.56,2.52-1.05a12.92,12.92,0,0,1,.94,4.51Z"/><path class="cls-2" d="M311.15,231.21h0a13.58,13.58,0,0,0-9.44-4,13.33,13.33,0,0,0-9.45,3.88l-.11.11a13.44,13.44,0,0,0,0,18.89l.11.1a13.41,13.41,0,0,0,18.89,0l.11-.1a13.33,13.33,0,0,0,3.88-9.45A13.86,13.86,0,0,0,311.15,231.21Zm-.52,13.33-3.36,1.36,2-4.72,1.37,3.36ZM306.85,246l-5.35,2.2-5.36-2.2-2.1-5.36,2.21-5.35,5.35-2.2,5.35,2.2,2.21,5.35Zm-1.58,3.77h0l-3.35-1.36,4.72-1.89Zm-7.34-.1h-.11v.1l-1.36-3.35,4.72,2Zm-5.36-5.35h0l1.37-3.36,1.89,4.72Zm0-7.56,3.36-1.36-2,4.72-1.37-3.36Zm8.72-3.78-4.73,1.89,1.37-3.36Zm5.56,2-4.72-2,3.35-1.36Zm.52.63,3.15,1.36v.11h.11l-1.26,3.25Zm-.1-.42-1.26-3,4.41,4.41Zm-5.56-2.42-3-1.26h6.19Zm-5.57,2.31L293,236.25l4.41-4.41Zm-2.41,5.56-1.26,3v-6.19Zm2.31,5.57,1.26,3-4.41-4.41Zm5.46,2.31,3,1.25h-6.19Zm5.66-2.21,3-1.26-4.41,4.41Zm2.31-5.56,1.26-3v6.19Zm1.37-4.3-4.94-4.94h4.94Zm-12.7-5.25,3.46-3.47,3.46,3.47Zm-5.67,5.25v-4.94h4.93Zm-.32,7.66-3.46-3.47,3.46-3.46Zm.32.84,4.93,4.93h-4.93Zm12.59,5.24-3.46,3.47-3.46-3.47Zm5.78-5.24v4.93H305.9Zm.31-7.77,3.46,3.46-3.46,3.47Zm0-5.46a10.23,10.23,0,0,1,2.42,3.78l-2.42,1.05Zm-5.46-.52,1.05-2.52a11.92,11.92,0,0,1,3.78,2.52Zm-.31-.21L302,227.64a10.42,10.42,0,0,1,4.41.94Zm-7.56.1-1.05-2.52a13,13,0,0,1,4.52-.94Zm-.31.11h-4.73a10.23,10.23,0,0,1,3.78-2.42Zm-5.36,5.35-2.51-1.05a11.89,11.89,0,0,1,2.51-3.78Zm-.21.32-3.35,3.35a10.35,10.35,0,0,1,.94-4.4Zm.11,7.66-2.52,1.05a13,13,0,0,1-.94-4.52Zm.1.31v4.73a10.21,10.21,0,0,1-2.41-3.78Zm5.46,5.35-1.05,2.52a13.65,13.65,0,0,1-3.88-2.52Zm.21.11,3.36,3.36a10.43,10.43,0,0,1-4.41-.95Zm7.66,0,1,2.52a12.92,12.92,0,0,1-4.51.94Zm.32-.11h4.72a10.76,10.76,0,0,1-3.67,2.42Zm5.35-5.45,2.52,1.05a13.65,13.65,0,0,1-2.52,3.88Zm.11-.32,3.35-3.36a10.36,10.36,0,0,1-.94,4.41Zm0-7.55,2.52-1a12.87,12.87,0,0,1,.94,4.51Z"/><path class="cls-3" d="M3.92,86.7a5.24,5.24,0,0,0,3.44-1.36,5.1,5.1,0,0,0-1.24,3.5A5.32,5.32,0,0,0,7.8,92.5l1.49,1.37a5.1,5.1,0,0,0,7.2-.05l0,0a5.16,5.16,0,0,0,.76,7.12l1.61,1.37a5.14,5.14,0,0,0,7.12-.45A5.25,5.25,0,0,0,27,109l1.63,1.28A5.43,5.43,0,0,0,32,111.35a5.2,5.2,0,0,0,3.91-1.82,5.25,5.25,0,0,0,1.26,7.13l1.72,1.24a5.08,5.08,0,0,0,7.12-1,5.25,5.25,0,0,0,1.5,7l1.74,1.2a5.19,5.19,0,0,0,7.13-1.24,5.23,5.23,0,0,0-.63,3.67,5.16,5.16,0,0,0,2.3,3.34L59.85,132a5.38,5.38,0,0,0,2.78.81,5.12,5.12,0,0,0,4.24-2.26,5.26,5.26,0,0,0,1.78,7l1.81,1.1a5.2,5.2,0,0,0,7-1.64,5.24,5.24,0,0,0,2,6.92l1.87,1a5.36,5.36,0,0,0,2.57.65,5.22,5.22,0,0,0,4.39-2.49,5.22,5.22,0,0,0,2.11,6.91l1.84,1a5.4,5.4,0,0,0,2.49.62,5.27,5.27,0,0,0,4.45-2.59,5.13,5.13,0,0,0-.25,3.77,5.19,5.19,0,0,0,2.61,3l1.83,1a5.18,5.18,0,0,0,6.92-2.09,5.09,5.09,0,0,0,2.5,6.75l1.84.91a5.17,5.17,0,0,0,6.89-2.21,5.23,5.23,0,0,0,2.62,6.71l1.93.9a5.08,5.08,0,0,0,2.16.48,5.2,5.2,0,0,0,4.61-2.88,5.27,5.27,0,0,0,2.74,6.69l1.89.83a5.14,5.14,0,0,0,6.77-2.47,5.2,5.2,0,0,0,2.87,6.62l1.91.81a5.45,5.45,0,0,0,2,.41,5.2,5.2,0,0,0,4.7-3,5.35,5.35,0,0,0,.08,3.76,5.13,5.13,0,0,0,2.87,2.82l1.92.77a5.12,5.12,0,0,0,2,.38A5.2,5.2,0,0,0,167.4,180a5.17,5.17,0,0,0,3,6.53l1.94.75a4.88,4.88,0,0,0,1.89.35A5.21,5.21,0,0,0,179,184.5a5.23,5.23,0,0,0,3.12,6.47l2,.76a5.43,5.43,0,0,0,1.74.29,5.25,5.25,0,0,0,4.78-3.24,5.18,5.18,0,0,0,3.23,6.47l2,.62a5.15,5.15,0,0,0,6.55-3,5.24,5.24,0,0,0,3.34,6.4l1.89.65a5.43,5.43,0,0,0,1.74.29,5.23,5.23,0,0,0,4.85-3.34,5.26,5.26,0,0,0,3.38,6.36l2,.65a5.42,5.42,0,0,0,1.65.26,5.18,5.18,0,0,0,4.85-3.42,5.18,5.18,0,0,0,3.47,6.34l2,.62a4.85,4.85,0,0,0,1.56.25,5.22,5.22,0,0,0,4.89-3.46,5.25,5.25,0,0,0,3.51,6.29l2,.6a5.62,5.62,0,0,0,1.53.24,5.27,5.27,0,0,0,1.52-10.31l-2-.61a5.28,5.28,0,0,0-6.39,3.24,5.3,5.3,0,0,0-3.45-6.27l-2-.62a5.09,5.09,0,0,0-6.43,3.15,5.23,5.23,0,0,0-3.4-6.29l-2-.66a5.2,5.2,0,0,0-6.49,3.06,5.24,5.24,0,0,0-3.29-6.26l-2-.7a5.24,5.24,0,0,0-6.42,3,5.24,5.24,0,0,0-3.3-6.33l-1.94-.69a5.28,5.28,0,0,0-6.52,2.85,5.09,5.09,0,0,0-.23-3.66,5.2,5.2,0,0,0-3-2.71l-1.9-.7a5.15,5.15,0,0,0-6.58,2.79,5.22,5.22,0,0,0-.18-3.65,5.11,5.11,0,0,0-2.9-2.78l-2-.75a5.23,5.23,0,0,0-4.07.12,5.09,5.09,0,0,0-2.56,2.63,5.24,5.24,0,0,0-3-6.52l-2-.79a5.32,5.32,0,0,0-4.07.06,5.17,5.17,0,0,0-2.58,2.55,5.05,5.05,0,0,0-.06-3.65,5.23,5.23,0,0,0-2.83-2.88l-1.91-.8a5.16,5.16,0,0,0-6.68,2.52,5.23,5.23,0,0,0-2.76-6.58l-1.9-.85a5.28,5.28,0,0,0-6.74,2.39,5.13,5.13,0,0,0,.08-3.68,5.23,5.23,0,0,0-2.76-2.95l-1.84-.86a5.3,5.3,0,0,0-6.79,2.27,5.1,5.1,0,0,0-2.54-6.67l-1.79-.93a5.26,5.26,0,0,0-6.84,2.15,5.29,5.29,0,0,0-2.39-6.74l-1.87-1a5.29,5.29,0,0,0-4.07-.31,5.15,5.15,0,0,0-2.81,2.32,5.24,5.24,0,0,0-2.25-6.78l-1.85-1a5.21,5.21,0,0,0-4.07-.42,5.15,5.15,0,0,0-2.86,2.26,5.21,5.21,0,0,0-2.1-6.83l-1.77-1a5.1,5.1,0,0,0-7,1.66,5.2,5.2,0,0,0-1.91-6.72l-1.73-1a5.35,5.35,0,0,0-4-.64,5.08,5.08,0,0,0-3,2.11,5.09,5.09,0,0,0-1.75-6.89l-1.7-1.1a5.25,5.25,0,0,0-7.06,1.31,5.22,5.22,0,0,0-1.51-7l-1.66-1.19a5.26,5.26,0,0,0-7,1.09,5.23,5.23,0,0,0-1.35-7l-1.66-1.21a5.23,5.23,0,0,0-7.13.89,5.25,5.25,0,0,0-1-7.07l-1.64-1.27h0a5.21,5.21,0,0,0-3.87-1,5.13,5.13,0,0,0-3.18,1.7,5.16,5.16,0,0,0,1-3.51,5.27,5.27,0,0,0-1.84-3.56l-1.59-1.35a5.27,5.27,0,0,0-7.13.4,5.24,5.24,0,0,0-.46-7.13L15,84.76a5.3,5.3,0,0,0-7.13.07"/><path class="cls-3" d="M504.2,84.88a5.26,5.26,0,0,0-7.12-.07l-1.53,1.42a5.26,5.26,0,0,0-.46,7.13A5.26,5.26,0,0,0,488,93l-1.55,1.34a5.19,5.19,0,0,0-1.85,3.54,5.08,5.08,0,0,0,1,3.51,5.18,5.18,0,0,0-7.08-.63h0L476.86,102a5.27,5.27,0,0,0-1.07,7.07,5.22,5.22,0,0,0-7.07-.89L467,109.32a5.2,5.2,0,0,0-1.33,7,5.3,5.3,0,0,0-7-1.09L457,116.44a5.22,5.22,0,0,0-1.53,7,5.26,5.26,0,0,0-7.06-1.3l-1.7,1.08a5.25,5.25,0,0,0-2.32,3.29,5.33,5.33,0,0,0,.56,3.61,5.13,5.13,0,0,0-3-2.1,5.3,5.3,0,0,0-4,.63l-1.73,1a5.24,5.24,0,0,0-2,6.85,5.17,5.17,0,0,0-3-2.21,5.25,5.25,0,0,0-4,.54l-1.76,1a5.25,5.25,0,0,0-2.1,6.85,5.22,5.22,0,0,0-2.87-2.27,5.12,5.12,0,0,0-4.07.42l-1.82,1a5.25,5.25,0,0,0-2.26,6.78,5.11,5.11,0,0,0-2.81-2.32,5.24,5.24,0,0,0-4.07.32l-1.86.94a5.24,5.24,0,0,0-2.37,6.74,5.29,5.29,0,0,0-6.77-2.25l-1.83.9a5.22,5.22,0,0,0-2.68,3,5.11,5.11,0,0,0,.15,3.69,5.28,5.28,0,0,0-6.79-2.27l-1.84.84a5.23,5.23,0,0,0-2.75,3,5.08,5.08,0,0,0,.06,3.68,5.25,5.25,0,0,0-6.74-2.39l-1.9.85a5.24,5.24,0,0,0-2.76,6.57,5.08,5.08,0,0,0-2.66-2.52,5.19,5.19,0,0,0-4,0l-1.92.79a5.15,5.15,0,0,0-2.89,6.53,5.21,5.21,0,0,0-2.57-2.56,5.36,5.36,0,0,0-4.07,0l-1.95.79a5.24,5.24,0,0,0-3,6.53,5.06,5.06,0,0,0-2.58-2.63,5.14,5.14,0,0,0-4.07-.13l-2,.75a5.09,5.09,0,0,0-3,6.42,5.16,5.16,0,0,0-6.58-2.78l-1.91.7a5.29,5.29,0,0,0-3,2.71,5.14,5.14,0,0,0-.22,3.66,5.25,5.25,0,0,0-6.53-2.84l-1.94.68a5.26,5.26,0,0,0-3.29,6.33,5.24,5.24,0,0,0-6.43-2.95l-2,.7a5.22,5.22,0,0,0-3.3,6.33,5.18,5.18,0,0,0-6.49-3.05l-2,.65a5.23,5.23,0,0,0-3.4,6.29,5.22,5.22,0,0,0-2.45-2.82,5.12,5.12,0,0,0-4-.32l-2,.64a5.22,5.22,0,0,0-3.44,6.24,5.29,5.29,0,0,0-6.39-3.23l-2,.61a5.27,5.27,0,0,0,1.53,10.3,5.69,5.69,0,0,0,1.54-.24l2-.6a5.25,5.25,0,0,0,3.52-6.29,5.18,5.18,0,0,0,6.45,3.23l2-.63a5.23,5.23,0,0,0,3.06-2.59,5.32,5.32,0,0,0,.37-3.76,5.15,5.15,0,0,0,6.5,3.16l2-.63a5.25,5.25,0,0,0,3.36-6.38,5.28,5.28,0,0,0,4.84,3.36,5,5,0,0,0,1.76-.31l1.89-.64a5.26,5.26,0,0,0,3.35-6.41,5.26,5.26,0,0,0,4.78,3.27,5.15,5.15,0,0,0,1.9-.34l2-.69a5.23,5.23,0,0,0,3.05-2.73,5.12,5.12,0,0,0,.22-3.73,5.26,5.26,0,0,0,4.78,3.23,5.43,5.43,0,0,0,1.74-.29l2-.74a5.26,5.26,0,0,0,3.14-6.49,5.22,5.22,0,0,0,4.75,3.15,5.09,5.09,0,0,0,1.89-.37l1.93-.74a5.17,5.17,0,0,0,3.07-6.53,5.19,5.19,0,0,0,4.72,3.05,5.08,5.08,0,0,0,2-.38l1.92-.76a5.17,5.17,0,0,0,3-6.58,5.19,5.19,0,0,0,6.72,2.59l1.92-.8a5.13,5.13,0,0,0,2.83-6.63,5.2,5.2,0,0,0,4.63,2.93,5.4,5.4,0,0,0,2.14-.45l1.89-.84a5.22,5.22,0,0,0,2.74-6.69,5.19,5.19,0,0,0,4.61,2.86,5.28,5.28,0,0,0,2.17-.45l1.92-.9a5.24,5.24,0,0,0,2.63-6.66A5.24,5.24,0,0,0,395,163a5,5,0,0,0,2.32-.55l1.85-.91a5.17,5.17,0,0,0,2.51-6.75,5.17,5.17,0,0,0,6.9,2.09l1.84-1a5.19,5.19,0,0,0,2.61-3,5.33,5.33,0,0,0-.25-3.77,5.08,5.08,0,0,0,6.92,2h0l1.84-1a5.24,5.24,0,0,0,2.2-6.9,5.19,5.19,0,0,0,4.39,2.5,5.08,5.08,0,0,0,2.55-.66l1.87-1a5.32,5.32,0,0,0,2-6.94,5.24,5.24,0,0,0,4.32,2.39,5.35,5.35,0,0,0,2.7-.74l1.82-1.11a5.23,5.23,0,0,0,1.83-6.95,5.15,5.15,0,0,0,7,1.44l1.81-1.16a5.14,5.14,0,0,0,1.66-7,5.16,5.16,0,0,0,7.13,1.24l1.75-1.2a5.26,5.26,0,0,0,1.5-7,5.14,5.14,0,0,0,4,2,5.35,5.35,0,0,0,3.06-1l1.69-1.24a5.25,5.25,0,0,0,1.28-7.13,5.16,5.16,0,0,0,3.9,1.87,5.34,5.34,0,0,0,3.25-1.11L485,109a5.24,5.24,0,0,0,1-7.13,5.13,5.13,0,0,0,7.13.45l1.62-1.37a5.29,5.29,0,0,0,1.85-3.61,5.18,5.18,0,0,0-1.1-3.54,5.25,5.25,0,0,0,3.63,1.51,5.15,5.15,0,0,0,3.6-1.44l1.49-1.37a5.23,5.23,0,0,0,1.68-3.66,5.16,5.16,0,0,0-1.23-3.5,5.24,5.24,0,0,0,3.44,1.36"/><path class="cls-4" d="M256,204.32a5.21,5.21,0,0,0-5.65,3.61,5.06,5.06,0,0,0,.4,4,5.41,5.41,0,0,0,1.44,1.68,5,5,0,0,0,1.38.72c.1,0,.18.13.3.18l1,.31h.1c.22,0,.37.2.58.2h.8c.14,0,.36-.16.58-.19h.1l1-.31c.11,0,.2-.14.3-.18a4.58,4.58,0,0,0,1.38-.73,5.18,5.18,0,0,0-3.79-9.27"/><path class="cls-5" d="M256,204.32a5.21,5.21,0,0,0-5.65,3.61,5.06,5.06,0,0,0,.4,4,5.41,5.41,0,0,0,1.44,1.68,5,5,0,0,0,1.38.72c.1,0,.18.13.3.18l1,.31h.1c.22,0,.37.2.58.2h.8c.14,0,.36-.16.58-.19h.1l1-.31c.11,0,.2-.14.3-.18a4.58,4.58,0,0,0,1.38-.73,5.18,5.18,0,0,0-3.79-9.27Z"/></svg>