<svg id="Layer_1" data-name="Layer 1" xmlns="http://www.w3.org/2000/svg" viewBox="0 0 512 512"><defs><style>.cls-1,.cls-2{fill:none;stroke:#231f20;stroke-miterlimit:10;stroke-width:3px;}.cls-1{fill-rule:evenodd;}</style></defs><path class="cls-1" d="M461.5,301H50.5a45,45,0,0,1,0-89.94h411a45,45,0,0,1,0,89.94"/><path class="cls-2" d="M461.5,301H50.5a45,45,0,0,1,0-89.94h411a45,45,0,0,1,0,89.94Z"/><path class="cls-2" d="M439.77,212.2a37.12,37.12,0,0,1-74.23,0m-222.7,0a37.12,37.12,0,0,1-74.23,0Zm76.71,87.16a37.12,37.12,0,1,1,74.24,0Z"/></svg>