<svg id="Layer_1" data-name="Layer 1" xmlns="http://www.w3.org/2000/svg" viewBox="0 0 250 250"><defs><style>.cls-1{fill:#231f20;}</style></defs><g id="mask0"><path class="cls-1" d="M62.39.26l-.6.06h0l-.26.25,0,0h0L46.71,13.48h-.08l-.39.4v0l-.4.44V235.2l0,.55,0,0v.08l15.42,13.48.05,0,0,0,.08.06.38.28H187.61l.61-.05h.05l15-13.15h.08l.38-.42,0,0,.38-.43V14.8l0-.54,0,0v-.07L188.71.73l-.12-.1,0-.05h0l-.36-.33H62.39Zm3.17,3H184.45L174,16.34H76L65.56,3.28ZM49.67,14.92,62.2,4l11,13.75-9.9,9.49L49.67,14.91Zm127.16,2.81L187.81,4l12.52,10.94-13.59,12.3-9.91-9.49Zm11.42,202.33V30l12.82-11.61V231.66ZM48.94,18.36,61.75,30v190.1L48.93,231.65V18.36Zm29.21,1h93.7l-9.66,13.88H87.82L78.15,19.38ZM165,34.62l10-14.41,9.54,9.13L172.13,42.22,165,34.61ZM65.46,29.34,75,20.21l10,14.4-7.17,7.6L65.46,29.34ZM173.66,205V45L185.17,33.1V216.9L173.66,205ZM64.85,33.11,76.34,45V205L64.85,216.9V33.11ZM90,36.27H160l-8.89,12H98.92L90,36.27ZM80,44.38l6.83-7.24L96.2,49.72l-4.66,5.85L80,44.38Zm73.77,5.35,9.35-12.59L170,44.38,158.47,55.57l-4.66-5.84Zm6.07,141.81V58.46l10.71-10.4V201.94l-10.71-10.41ZM79.43,48.06l10.7,10.41V191.54L79.43,202ZM93.24,191.65V58.36l5.64-7.09h52.23l5.66,7.09V191.64l-5.66,7.1H98.88l-5.64-7.09Zm60.56,8.63,4.67-5.84L170,205.62l-6.83,7.24ZM80,205.62l11.5-11.19,4.67,5.86-9.34,12.57L80,205.62Zm18.89-3.87h52.17l8.89,12H90l8.89-12ZM165,215.38l7.17-7.59,12.41,12.87L175,229.8l-10-14.42Zm-99.51,5.28,12.41-12.87L85,215.38,75,229.8l-9.54-9.14Zm22.36-3.92h74.36l9.67,13.9H78.15l9.67-13.9ZM49.67,235.09l13.6-12.31,9.9,9.49L62.2,246,49.67,235.09Zm127.16-2.82,9.9-9.48,13.6,12.3L187.81,246l-11-13.75ZM76,233.66h98l10.44,13.07H65.56Z"/></g></svg>