<?xml version="1.0" encoding="UTF-8"?>
<svg width="50px" height="50px" viewBox="0 0 50 50" version="1.1" xmlns="http://www.w3.org/2000/svg" xmlns:xlink="http://www.w3.org/1999/xlink">
    <title>Halo</title>
    <g id="Page-1" stroke="none" stroke-width="1" fill="none" fill-rule="evenodd">
        <g id="Group" transform="translate(1.000000, 14.000000)">
            <path d="M35.8400527,9.66789216 C35.6385332,8.41501225 35.2432449,7.22766544 34.6725078,6.14460784 C32.7453894,2.49166667 28.915814,0 24.4992954,0 C20.0834814,0 16.2532014,2.49166667 14.3267876,6.14460784 C13.7553459,7.22766544 13.3607622,8.41501225 13.1599473,9.66789216 C13.0634152,10.2661458 13,10.8749694 13,11.5007047 C13,12.0186275 13.0457999,12.5245711 13.1120336,13.0241728 C13.2776178,14.2742341 13.6440169,15.4580576 14.1781141,16.5474571 C16.0488634,20.365288 19.9615832,23 24.4992954,23 C29.0377121,23 32.9497273,20.365288 34.8211813,16.5474571 C35.3552785,15.4580576 35.720973,14.2742341 35.8865572,13.0241728 C35.9534955,12.5245711 36,12.0186275 36,11.5007047 C36,10.8749694 35.9358802,10.2661458 35.8400527,9.66789216 Z" id="Stroke-1" stroke="#231F20"></path>
            <path d="M36.045709,13 L46.3704046,13 C47.2665782,13 48,12.3336133 48,11.517321 L48,11.4820491 C48,10.6670166 47.2665782,10 46.3704046,10 L36,10 C36.0934957,10.5341172 36.1565187,11.0789418 36.1565187,11.6376233 C36.1565187,12.1011967 36.1115023,12.5534327 36.045709,13 Z" id="Stroke-3" stroke="#231F20"></path>
            <path d="M12.911158,10 L1.64889197,10 C0.741689751,10 0,10.6745748 0,11.4996851 C0,12.3247953 0.741689751,13 1.64889197,13 L12.8647591,13 C12.7996621,12.5534327 12.7539557,12.1011967 12.7539557,11.6382532 C12.7539557,11.0789418 12.8162826,10.534747 12.911158,10 Z" id="Stroke-5" stroke="#231F20"></path>
            <path d="M32,11.500724 C32,15.6427744 28.6418883,19 24.499638,19 C20.3573877,19 17,15.6427744 17,11.500724 C17,7.3572256 20.3573877,4 24.499638,4 C28.6418883,4 32,7.3572256 32,11.500724" id="Stroke-7" stroke="#010202"></path>
            <polygon id="Stroke-9" stroke="#010202" points="22.7610015 7.19562299 24.5569044 5 26.314871 7.22672892 29.1365706 6.94449956 28.8050076 9.76072367 31 11.5572804 28.7746586 13.3143858 29.0561457 16.1366793 26.2397572 15.8051357 24.4438543 18 22.6858877 15.7740298 19.8641882 16.0562591 20.1949924 13.240035 18 11.4434783 20.2261002 9.68637292 19.9438543 6.86407937"></polygon>
            <circle id="Oval" stroke="#000000" cx="23" cy="2" r="1.5"></circle>
            <path d="M19.5851152,1.80355746 C19.9993288,1.80355746 20.3743288,1.97145068 20.6457754,2.24289728 C20.917222,2.51434389 21.0851152,2.88934389 21.0851152,3.30355746 C21.0851152,3.71777102 20.917222,4.09277102 20.6457754,4.36421763 C20.3743288,4.63566424 19.9993288,4.80355746 19.5851152,4.80355746 C19.1709017,4.80355746 18.7959017,4.63566424 18.524455,4.36421763 C18.2530084,4.09277102 18.0851152,3.71777102 18.0851152,3.30355746 C18.0851152,2.88934389 18.2530084,2.51434389 18.524455,2.24289728 C18.7959017,1.97145068 19.1709017,1.80355746 19.5851152,1.80355746 Z" id="Oval-Copy-6" stroke="#000000"></path>
            <path d="M16.7597228,4.5 C17.1739364,4.5 17.5489364,4.66789322 17.820383,4.93933983 C18.0918296,5.21078644 18.2597228,5.58578644 18.2597228,6 C18.2597228,6.41421356 18.0918296,6.78921356 17.820383,7.06066017 C17.5489364,7.33210678 17.1739364,7.5 16.7597228,7.5 C16.3455093,7.5 15.9705093,7.33210678 15.6990627,7.06066017 C15.427616,6.78921356 15.2597228,6.41421356 15.2597228,6 C15.2597228,5.58578644 15.427616,5.21078644 15.6990627,4.93933983 C15.9705093,4.66789322 16.3455093,4.5 16.7597228,4.5 Z" id="Oval-Copy-7" stroke="#000000"></path>
            <path d="M15.2977637,8 C15.7119772,8 16.0869772,8.16789322 16.3584238,8.43933983 C16.6298705,8.71078644 16.7977637,9.08578644 16.7977637,9.5 C16.7977637,9.91421356 16.6298705,10.2892136 16.3584238,10.5606602 C16.0869772,10.8321068 15.7119772,11 15.2977637,11 C14.8835501,11 14.5085501,10.8321068 14.2371035,10.5606602 C13.9656569,10.2892136 13.7977637,9.91421356 13.7977637,9.5 C13.7977637,9.08578644 13.9656569,8.71078644 14.2371035,8.43933983 C14.5085501,8.16789322 14.8835501,8 15.2977637,8 Z" id="Oval-Copy-8" stroke="#000000"></path>
            <path d="M15.2977637,11.7937613 C15.7119772,11.7937613 16.0869772,11.9616546 16.3584238,12.2331012 C16.6298705,12.5045478 16.7977637,12.8795478 16.7977637,13.2937613 C16.7977637,13.7079749 16.6298705,14.0829749 16.3584238,14.3544215 C16.0869772,14.6258681 15.7119772,14.7937613 15.2977637,14.7937613 C14.8835501,14.7937613 14.5085501,14.6258681 14.2371035,14.3544215 C13.9656569,14.0829749 13.7977637,13.7079749 13.7977637,13.2937613 C13.7977637,12.8795478 13.9656569,12.5045478 14.2371035,12.2331012 C14.5085501,11.9616546 14.8835501,11.7937613 15.2977637,11.7937613 Z" id="Oval-Copy-9" stroke="#000000"></path>
            <path d="M16.4871708,15.3200069 C16.9013844,15.3200069 17.2763844,15.4879001 17.547831,15.7593467 C17.8192776,16.0307933 17.9871708,16.4057933 17.9871708,16.8200069 C17.9871708,17.2342204 17.8192776,17.6092204 17.547831,17.8806671 C17.2763844,18.1521137 16.9013844,18.3200069 16.4871708,18.3200069 C16.0729573,18.3200069 15.6979573,18.1521137 15.4265107,17.8806671 C15.1550641,17.6092204 14.9871708,17.2342204 14.9871708,16.8200069 C14.9871708,16.4057933 15.1550641,16.0307933 15.4265107,15.7593467 C15.6979573,15.4879001 16.0729573,15.3200069 16.4871708,15.3200069 Z" id="Oval-Copy-10" stroke="#000000"></path>
            <path d="M19.1378211,17.9085038 C19.5520347,17.9085038 19.9270347,18.076397 20.1984813,18.3478436 C20.4699279,18.6192902 20.6378211,18.9942902 20.6378211,19.4085038 C20.6378211,19.8227173 20.4699279,20.1977173 20.1984813,20.469164 C19.9270347,20.7406106 19.5520347,20.9085038 19.1378211,20.9085038 C18.7236075,20.9085038 18.3486075,20.7406106 18.0771609,20.469164 C17.8057143,20.1977173 17.6378211,19.8227173 17.6378211,19.4085038 C17.6378211,18.9942902 17.8057143,18.6192902 18.0771609,18.3478436 C18.3486075,18.076397 18.7236075,17.9085038 19.1378211,17.9085038 Z" id="Oval-Copy-14" stroke="#000000"></path>
            <path d="M22.6622502,19.5 C23.0764638,19.5 23.4514638,19.6678932 23.7229104,19.9393398 C23.994357,20.2107864 24.1622502,20.5857864 24.1622502,21 C24.1622502,21.4142136 23.994357,21.7892136 23.7229104,22.0606602 C23.4514638,22.3321068 23.0764638,22.5 22.6622502,22.5 C22.2480367,22.5 21.8730367,22.3321068 21.6015901,22.0606602 C21.3301434,21.7892136 21.1622502,21.4142136 21.1622502,21 C21.1622502,20.5857864 21.3301434,20.2107864 21.6015901,19.9393398 C21.8730367,19.6678932 22.2480367,19.5 22.6622502,19.5 Z" id="Oval-Copy-15" stroke="#000000"></path>
            <path d="M26.7769761,0.5 C27.1911897,0.5 27.5661897,0.667893219 27.8376363,0.939339828 C28.1090829,1.21078644 28.2769761,1.58578644 28.2769761,2 C28.2769761,2.41421356 28.1090829,2.78921356 27.8376363,3.06066017 C27.5661897,3.33210678 27.1911897,3.5 26.7769761,3.5 C26.3627626,3.5 25.9877626,3.33210678 25.7163159,3.06066017 C25.4448693,2.78921356 25.2769761,2.41421356 25.2769761,2 C25.2769761,1.58578644 25.4448693,1.21078644 25.7163159,0.939339828 C25.9877626,0.667893219 26.3627626,0.5 26.7769761,0.5 Z" id="Oval-Copy" stroke="#000000"></path>
            <circle id="Oval-Copy-2" stroke="#000000" cx="30" cy="4" r="1.5"></circle>
            <path d="M32.68682,5.20455088 C33.1010335,5.20455088 33.4760335,5.3724441 33.7474801,5.64389071 C34.0189268,5.91533732 34.18682,6.29033732 34.18682,6.70455088 C34.18682,7.11876445 34.0189268,7.49376445 33.7474801,7.76521106 C33.4760335,8.03665767 33.1010335,8.20455088 32.68682,8.20455088 C32.2726064,8.20455088 31.8976064,8.03665767 31.6261598,7.76521106 C31.3547132,7.49376445 31.18682,7.11876445 31.18682,6.70455088 C31.18682,6.29033732 31.3547132,5.91533732 31.6261598,5.64389071 C31.8976064,5.3724441 32.2726064,5.20455088 32.68682,5.20455088 Z" id="Oval-Copy-3" stroke="#000000"></path>
            <path d="M33.8847594,8.50805562 C34.2989729,8.50805562 34.6739729,8.67594884 34.9454196,8.94739545 C35.2168662,9.21884206 35.3847594,9.59384206 35.3847594,10.0080556 C35.3847594,10.4222692 35.2168662,10.7972692 34.9454196,11.0687158 C34.6739729,11.3401624 34.2989729,11.5080556 33.8847594,11.5080556 C33.4705458,11.5080556 33.0955458,11.3401624 32.8240992,11.0687158 C32.5526526,10.7972692 32.3847594,10.4222692 32.3847594,10.0080556 C32.3847594,9.59384206 32.5526526,9.21884206 32.8240992,8.94739545 C33.0955458,8.67594884 33.4705458,8.50805562 33.8847594,8.50805562 Z" id="Oval-Copy-4" stroke="#000000"></path>
            <path d="M33.68682,12.2045509 C34.1010335,12.2045509 34.4760335,12.3724441 34.7474801,12.6438907 C35.0189268,12.9153373 35.18682,13.2903373 35.18682,13.7045509 C35.18682,14.1187644 35.0189268,14.4937644 34.7474801,14.7652111 C34.4760335,15.0366577 34.1010335,15.2045509 33.68682,15.2045509 C33.2726064,15.2045509 32.8976064,15.0366577 32.6261598,14.7652111 C32.3547132,14.4937644 32.18682,14.1187644 32.18682,13.7045509 C32.18682,13.2903373 32.3547132,12.9153373 32.6261598,12.6438907 C32.8976064,12.3724441 33.2726064,12.2045509 33.68682,12.2045509 Z" id="Oval-Copy-5" stroke="#000000"></path>
            <path d="M32.68682,15.5 C33.1010335,15.5 33.4760335,15.6678932 33.7474801,15.9393398 C34.0189268,16.2107864 34.18682,16.5857864 34.18682,17 C34.18682,17.4142136 34.0189268,17.7892136 33.7474801,18.0606602 C33.4760335,18.3321068 33.1010335,18.5 32.68682,18.5 C32.2726064,18.5 31.8976064,18.3321068 31.6261598,18.0606602 C31.3547132,17.7892136 31.18682,17.4142136 31.18682,17 C31.18682,16.5857864 31.3547132,16.2107864 31.6261598,15.9393398 C31.8976064,15.6678932 32.2726064,15.5 32.68682,15.5 Z" id="Oval-Copy-11" stroke="#000000"></path>
            <path d="M30,17.9085038 C30.4142136,17.9085038 30.7892136,18.076397 31.0606602,18.3478436 C31.3321068,18.6192902 31.5,18.9942902 31.5,19.4085038 C31.5,19.8227173 31.3321068,20.1977173 31.0606602,20.469164 C30.7892136,20.7406106 30.4142136,20.9085038 30,20.9085038 C29.5857864,20.9085038 29.2107864,20.7406106 28.9393398,20.469164 C28.6678932,20.1977173 28.5,19.8227173 28.5,19.4085038 C28.5,18.9942902 28.6678932,18.6192902 28.9393398,18.3478436 C29.2107864,18.076397 29.5857864,17.9085038 30,17.9085038 Z" id="Oval-Copy-12" stroke="#000000"></path>
            <path d="M26.5516356,19.2517758 C26.9658492,19.2517758 27.3408492,19.419669 27.6122958,19.6911156 C27.8837424,19.9625622 28.0516356,20.3375622 28.0516356,20.7517758 C28.0516356,21.1659893 27.8837424,21.5409893 27.6122958,21.812436 C27.3408492,22.0838826 26.9658492,22.2517758 26.5516356,22.2517758 C26.137422,22.2517758 25.762422,22.0838826 25.4909754,21.812436 C25.2195288,21.5409893 25.0516356,21.1659893 25.0516356,20.7517758 C25.0516356,20.3375622 25.2195288,19.9625622 25.4909754,19.6911156 C25.762422,19.419669 26.137422,19.2517758 26.5516356,19.2517758 Z" id="Oval-Copy-13" stroke="#000000"></path>
        </g>
    </g>
</svg>