<svg id="Layer_1" data-name="Layer 1" xmlns="http://www.w3.org/2000/svg" viewBox="0 0 512 250"><defs><style>.cls-1{fill:#231f20;}.cls-2{fill:none;stroke:#231f20;stroke-miterlimit:10;stroke-width:3px;}</style></defs><path class="cls-1" d="M259.36,211.25l-.87,0,.41-19.83.85,0Z"/><path class="cls-1" d="M260.23,212.15l-2.63-.05.43-21.59,2.61.07Z"/><path class="cls-1" d="M258.92,212.12h-.16l-33.07-6.85-28.13-18.89v-.14l-18.73-28.17-6.46-33.3v-.16l6.85-33.08,19-28.12h.16l28.15-18.62,33.3-6.47H260L293,45.06l28.12,19v.13l18.6,28.17,6.48,33.28v.19L339.5,158.9l-19,28.12h-.14l-28.14,18.61Zm-32.62-8.38,32.58,6.62L291.52,204l27.71-18.28,18.6-27.55,6.65-32.58-6.24-32.69L320,65.21,292.39,46.62,259.84,40l-32.65,6.33L199.48,64.6,180.77,92.21l-6.64,32.58,6.32,32.62,18.28,27.73Z"/><path class="cls-1" d="M258.92,213h-.34l-33.4-6.85-28.35-19.3L178,158.23l-6.51-33.46v-.19l6.85-33.53,19.23-28.37L226.3,43.83l33.47-6.49H260l33.56,6.86,28.35,19.21L340.71,92l6.51,33.46v.19l-6.86,33.56L321,187.59l-28.62,18.84Zm-32.23-10.09,32.23,6.55,32.31-6.26,27.41-18.27,18.27-27.26,6.58-32.23-6.28-32.3L319.07,65.74,291.8,47.33l-32.21-6.56L227.29,47,199.87,65.19,181.6,92.44,175,124.79l6.26,32.3,18.14,27.41Z"/><path class="cls-1" d="M306.6,172.44H212.07V77.94H306.6Zm-93.66-.87h92.81V78.76H212.92Z"/><path class="cls-1" d="M307.47,173.31H211.18V77.05h96.29Zm-93.66-2.6h91.08V79.65H213.78Z"/><path class="cls-1" d="M259.34,192l-66.87-66.84,66.87-66.84,66.84,66.84ZM193.7,125.18l65.64,65.63,65.6-65.63-65.6-65.52Z"/><path class="cls-1" d="M259.34,193.25l-.64-.61-67.46-67.46.61-.62L259.34,57.1l.61.62,67.46,67.46-.59.73Zm-64.4-68.07,64.4,64.4,64.37-64.4-64.37-64.4Z"/><path class="cls-1" d="M292.14,205.41l-32.83-13.53-33.53,13.23-13.71-32.76-33-14.46,13.52-32.8L179.4,91.64l32.76-13.7,14.37-33.06L259.34,58.4l33.53-13.22L306.58,78l33.05,14.37-13.52,32.78,13.23,33.53-32.76,13.71ZM259.34,191l32.32,13.34,14.19-32.69H306l32.26-13.34-13-33.08,13.32-32.35-32.6-14.16v-.16L292.57,46.37l-33.07,13L227,46.07l-14.17,32.6h-.18l-32,13.43,13,33.08L180.2,157.52l32.62,14.08v.16L226.3,204Z"/><path class="cls-1" d="M292.55,206.55l-33.26-13.71-34,13.41L211.57,173,178,158.44l13.71-33.26-13.34-34,33.22-13.7,14.57-33.54,33.26,13.71,34-13.41,13.82,33.21L340.73,92,327,125.27l13.39,34L307.19,173.1ZM259.31,190l.32.14,31.55,13,14-32.14.32-.14,31.53-13-12.87-32.6.14-.34,13-31.55-32.14-14-.14-.32-13.11-31.5-32.6,12.73-.32-.14-31.55-13-14,32.12-.29.14L181.64,92.58l12.86,32.6-.13.34-13,31.55,32.14,14,13.25,31.82Z"/><path class="cls-1" d="M198.45,64.32l.62-.6L212.81,78l-.63.6Z"/><path class="cls-1" d="M212.16,79.88l-15-15.58,1.87-1.81,15,15.56Z"/><path class="cls-1" d="M259.75,59l-.85,0,.39-19.83.87,0Z"/><path class="cls-1" d="M260.61,59.84l-2.6-.06.43-21.57,2.59,0Z"/><path class="cls-1" d="M305.87,78,320.2,64.28l.6.63L306.47,78.65Z"/><path class="cls-1" d="M304.64,78l15.55-15L322,64.94l-15.56,15Z"/><path class="cls-1" d="M345.39,126l-19.83-.39,0-.87,19.81.41Z"/><path class="cls-1" d="M324.64,126.46l.05-2.6,21.58.44,0,2.61Z"/><path class="cls-1" d="M305.85,172.32l.63-.61L320.21,186l-.62.6Z"/><path class="cls-1" d="M319.58,187.86l-15-15.58,1.9-1.8L321.45,186Z"/><path class="cls-1" d="M198.48,186.06l-.6-.62,14.31-13.73.59.62Z"/><path class="cls-1" d="M196.64,185.41l15.58-14.94,1.81,1.88-15.58,14.94Z"/><path class="cls-1" d="M193.09,125.61l-19.85-.41,0-.84,19.83.38Z"/><path class="cls-1" d="M172.35,126.05l.05-2.6,21.58.43,0,2.61Z"/><path class="cls-1" d="M251.61,40.47a12.93,12.93,0,1,1,12.93-12.93v.14a12.93,12.93,0,0,1-12.93,12.91m0-23.08a10.17,10.17,0,1,0,10.17,10.17h0a10.17,10.17,0,0,0-10.17-10.17"/><path class="cls-1" d="M274.71,42A12.93,12.93,0,1,1,287.64,29.1,12.93,12.93,0,0,1,274.71,42h0m0-23.08a10.17,10.17,0,1,0,10.14,10.19v0A10.14,10.14,0,0,0,274.71,19h0"/><path class="cls-1" d="M297.78,46.94a13,13,0,1,1,.12,0m0-23.1A10.17,10.17,0,1,0,308.06,34h0A10.18,10.18,0,0,0,297.9,23.84"/><path class="cls-1" d="M317.4,59.66a12.93,12.93,0,1,1,12.93-12.93A12.92,12.92,0,0,1,317.4,59.66h0m0-23.07a10.17,10.17,0,1,0,10.17,10.16v0A10.17,10.17,0,0,0,317.4,36.59"/><path class="cls-1" d="M333.53,76A12.93,12.93,0,1,1,346.46,63,12.93,12.93,0,0,1,333.53,76m0-23.07A10.17,10.17,0,1,0,343.7,63.06v0a10.14,10.14,0,0,0-10.05-10.23h-.12"/><path class="cls-1" d="M314.64,218.34a12.93,12.93,0,1,1,12.91-13v0a13,13,0,0,1-12.91,12.93m0-23.1a10.17,10.17,0,1,0,10.17,10.17h0a10.17,10.17,0,0,0-10.17-10.17"/><path class="cls-1" d="M332.3,203.44a12.93,12.93,0,1,1,12.93-12.93,12.93,12.93,0,0,1-12.93,12.93h0m0-23.09a10.17,10.17,0,1,0,10.16,10.16h0a10.17,10.17,0,0,0-10.16-10.16"/><path class="cls-1" d="M345.39,184.64a12.93,12.93,0,1,1,12.95-12.93,12.93,12.93,0,0,1-12.95,12.93m0-23.09a10.17,10.17,0,1,0,10.16,10.16h0a10.13,10.13,0,0,0-10.12-10.16h0"/><path class="cls-1" d="M353.84,162.92A12.93,12.93,0,1,1,366.77,150a12.93,12.93,0,0,1-12.93,12.93m0-23.08A10.17,10.17,0,1,0,364,150v0a10.17,10.17,0,0,0-10.17-10.15"/><path class="cls-1" d="M357.84,139.84a12.93,12.93,0,1,1,12.93-12.93h0a13,13,0,0,1-12.93,12.93m0-23.09A10.17,10.17,0,1,0,367.94,127v-.07a10.18,10.18,0,0,0-10.1-10.14"/><path class="cls-1" d="M354.85,116.77a12.93,12.93,0,1,1,12.93-12.93,12.93,12.93,0,0,1-12.93,12.93m0-23.09A10.17,10.17,0,1,0,365,103.84h0a10.17,10.17,0,0,0-10.16-10.16"/><path class="cls-1" d="M347.17,94.91A12.93,12.93,0,1,1,360.1,82a12.93,12.93,0,0,1-12.93,12.93m0-23.1A10.17,10.17,0,1,0,357.31,82v0a10.17,10.17,0,0,0-10.14-10.17"/><path class="cls-1" d="M186.14,203.12a12.93,12.93,0,1,1,13-12.93,12.92,12.92,0,0,1-13,12.93m0-23.07a10.17,10.17,0,1,0,10.17,10.16v0a10.14,10.14,0,0,0-10.14-10.14h0"/><path class="cls-1" d="M205.33,218.34a12.93,12.93,0,1,1,12.93-12.93h0a13,13,0,0,1-12.93,12.93m0-23.1a10.17,10.17,0,1,0,10.17,10.17h0a10.2,10.2,0,0,0-10.17-10.17"/><path class="cls-1" d="M248.21,235a12.93,12.93,0,1,1,12.93-12.93v0A12.93,12.93,0,0,1,248.21,235m0-23.07a10.17,10.17,0,1,0,10.07,10.25v-.09a10.16,10.16,0,0,0-10.16-10.16"/><path class="cls-1" d="M271.24,235a12.93,12.93,0,1,1,12.93-12.93v0A12.94,12.94,0,0,1,271.24,235m0-23.07a10.17,10.17,0,1,0,10.14,10.18v0a10.16,10.16,0,0,0-10.14-10.16"/><path class="cls-1" d="M294.31,229.87a12.93,12.93,0,1,1,12.93-12.93h0a12.93,12.93,0,0,1-12.93,12.93h0m0-23.07A10.17,10.17,0,1,0,304.48,217v0a10.18,10.18,0,0,0-10.17-10.14"/><path class="cls-1" d="M225.57,229.87a12.93,12.93,0,1,1,12.93-12.93h0a12.93,12.93,0,0,1-12.93,12.93h0m0-23.07A10.17,10.17,0,1,0,235.74,217v0a10.14,10.14,0,0,0-10.15-10.14h0"/><path class="cls-1" d="M228.59,45.22a12.93,12.93,0,1,1,12.88-13,12.93,12.93,0,0,1-12.88,13m0-23.09a10.17,10.17,0,1,0,10.09,10.23v-.11a10.16,10.16,0,0,0-10.09-10.12"/><path class="cls-1" d="M207.82,55.94A12.93,12.93,0,1,1,220.75,43a12.93,12.93,0,0,1-12.93,12.93m0-23.1A10.17,10.17,0,1,0,218,43h0a10.17,10.17,0,0,0-10.17-10.17"/><path class="cls-1" d="M188.43,70a12.93,12.93,0,1,1,12.9-13v0A12.94,12.94,0,0,1,188.43,70m0-23.09a10.17,10.17,0,1,0,10.14,10.19v0a10.16,10.16,0,0,0-10.14-10.16"/><path class="cls-1" d="M174.61,90a12.93,12.93,0,1,1,12.86-13v.07A13,13,0,0,1,174.54,90m0-23.09A10.17,10.17,0,1,0,184.7,77.05h0a10.16,10.16,0,0,0-10.16-10.17"/><path class="cls-1" d="M165.33,112.45a13,13,0,1,1,.07,0m0-23.07a10.17,10.17,0,1,0,10.17,10.17v0A10.17,10.17,0,0,0,165.4,89.36h-.07"/><path class="cls-1" d="M161.54,136.37a12.93,12.93,0,1,1,12.91-13v0a12.94,12.94,0,0,1-12.91,12.91m0-23.07a10.17,10.17,0,1,0,10.17,10.16h0a10.17,10.17,0,0,0-10.17-10.16"/><path class="cls-1" d="M164,160.31A12.93,12.93,0,1,1,177,147.38h0A12.94,12.94,0,0,1,164,160.31m0-23.09a10.17,10.17,0,1,0,10.17,10.16h0a10.17,10.17,0,0,0-10.17-10"/><path class="cls-1" d="M171.48,183.41a12.93,12.93,0,1,1,12.93-12.93,12.93,12.93,0,0,1-12.93,12.93m0-23.1a10.17,10.17,0,1,0,10.16,10.17h0a10.16,10.16,0,0,0-10.16-10.17"/><path class="cls-1" d="M25.82,149.87c-9.87,0-17.88-9.75-17.88-21.7s8-21.7,17.86-21.7H147.86V112H25.8c-6.85,0-12.34,7.24-12.34,16.17S19,144.32,25.8,144.32l122-1.07v5.53Z"/><path class="cls-1" d="M486.93,150.1,370.77,149V143.5l116.14,1.07c6.26,0,11.58-7.4,11.58-16.17s-5.28-16.2-11.56-16.2H370.79v-5.57H486.93c9.46,0,17.13,9.73,17.13,21.7S496.39,150,486.93,150"/><circle class="cls-2" cx="259" cy="125" r="111.18"/></svg>