<svg id="Layer_1" data-name="Layer 1" xmlns="http://www.w3.org/2000/svg" viewBox="0 0 512 512"><defs><style>.cls-1,.cls-3{fill:none;stroke-linejoin:round;}.cls-1{stroke:#231f20;stroke-width:2px;}.cls-2,.cls-4{fill:#231f20;}.cls-2{fill-rule:evenodd;}.cls-3{stroke:#1a2b4c;stroke-width:0.3px;}</style></defs><path class="cls-1" d="M3.92,79.65A5.28,5.28,0,0,0,7.36,78.3a5.06,5.06,0,0,0-1.24,3.49A5.32,5.32,0,0,0,7.8,85.45l1.49,1.37a5.1,5.1,0,0,0,7.2,0l0,0a5.17,5.17,0,0,0,.76,7.13l1.61,1.36A5.14,5.14,0,0,0,26,94.78a5.25,5.25,0,0,0,1,7.13l1.63,1.28A5.43,5.43,0,0,0,32,104.3a5.17,5.17,0,0,0,3.91-1.82,5.25,5.25,0,0,0,1.26,7.13l1.72,1.24a5.08,5.08,0,0,0,7.12-1,5.25,5.25,0,0,0,1.5,7l1.74,1.2a5.18,5.18,0,0,0,7.13-1.24,5.24,5.24,0,0,0-.63,3.67,5.16,5.16,0,0,0,2.3,3.34L59.85,125a5.37,5.37,0,0,0,2.78.8,5.12,5.12,0,0,0,4.24-2.26,5.26,5.26,0,0,0,1.78,7l1.81,1.1a5.2,5.2,0,0,0,7-1.63,5.23,5.23,0,0,0,2,6.91l1.87,1a5.36,5.36,0,0,0,2.57.65,5.18,5.18,0,0,0,4.39-2.49A5.22,5.22,0,0,0,90.48,143l1.84,1a5.4,5.4,0,0,0,2.49.62,5.27,5.27,0,0,0,4.45-2.59,5.13,5.13,0,0,0-.25,3.77,5.19,5.19,0,0,0,2.61,3.05l1.83.95a5.18,5.18,0,0,0,6.92-2.09,5.1,5.1,0,0,0,2.5,6.76l1.84.9a5.17,5.17,0,0,0,6.89-2.21,5.23,5.23,0,0,0,2.62,6.71l1.93.9a5.08,5.08,0,0,0,2.16.48,5.21,5.21,0,0,0,4.61-2.87,5.28,5.28,0,0,0,2.74,6.69l1.89.82a5.24,5.24,0,0,0,2.14.46,5.19,5.19,0,0,0,4.63-2.93,5.21,5.21,0,0,0,2.87,6.63l1.91.8a5.26,5.26,0,0,0,2,.41,5.2,5.2,0,0,0,4.7-3,5.35,5.35,0,0,0,.08,3.76,5.07,5.07,0,0,0,2.87,2.82l1.92.78a5.3,5.3,0,0,0,2,.37A5.2,5.2,0,0,0,167.4,173a5.18,5.18,0,0,0,3,6.54l1.94.74a5.08,5.08,0,0,0,1.89.36,5.22,5.22,0,0,0,4.76-3.14,5.25,5.25,0,0,0,3.12,6.48l2,.75a4.93,4.93,0,0,0,1.74.29,5.25,5.25,0,0,0,4.78-3.23A5.18,5.18,0,0,0,194,188.2l2,.62a5.15,5.15,0,0,0,6.55-3,5.25,5.25,0,0,0,3.34,6.41l1.89.64a4.93,4.93,0,0,0,1.74.29,5.21,5.21,0,0,0,4.85-3.34,5.27,5.27,0,0,0,3.38,6.37l2,.64a4.87,4.87,0,0,0,1.65.26,5.17,5.17,0,0,0,4.85-3.42,5.19,5.19,0,0,0,3.47,6.35l2,.62a4.84,4.84,0,0,0,1.56.24,5.22,5.22,0,0,0,4.89-3.46,5.25,5.25,0,0,0,3.51,6.29l2,.6a5.62,5.62,0,0,0,1.53.24,5.27,5.27,0,0,0,1.52-10.31l-2-.61a5.28,5.28,0,0,0-6.39,3.24,5.28,5.28,0,0,0-3.45-6.26l-2-.63a5.1,5.1,0,0,0-6.43,3.15,5.23,5.23,0,0,0-3.4-6.29l-2-.65a5.18,5.18,0,0,0-6.49,3.05,5.25,5.25,0,0,0-3.29-6.26l-2-.69a5.23,5.23,0,0,0-6.42,2.95,5.23,5.23,0,0,0-3.3-6.32l-1.94-.7a5.28,5.28,0,0,0-6.52,2.85,5.09,5.09,0,0,0-.23-3.66,5.23,5.23,0,0,0-3-2.71l-1.9-.7a5.15,5.15,0,0,0-6.58,2.79,5.22,5.22,0,0,0-.18-3.65,5.14,5.14,0,0,0-2.9-2.78l-2-.75a5.23,5.23,0,0,0-4.07.12,5.13,5.13,0,0,0-2.56,2.63,5.24,5.24,0,0,0-3-6.52l-2-.78a5.27,5.27,0,0,0-4.07.05,5.17,5.17,0,0,0-2.58,2.55,5.05,5.05,0,0,0-.06-3.65,5.21,5.21,0,0,0-2.83-2.87l-1.91-.81a5.17,5.17,0,0,0-6.68,2.52,5.23,5.23,0,0,0-2.76-6.58l-1.9-.85a5.27,5.27,0,0,0-6.74,2.4,5.16,5.16,0,0,0,.08-3.69,5.26,5.26,0,0,0-2.76-2.95l-1.84-.86a5.3,5.3,0,0,0-6.79,2.27,5.1,5.1,0,0,0-2.54-6.67l-1.79-.92a5.25,5.25,0,0,0-6.84,2.14,5.29,5.29,0,0,0-2.39-6.74l-1.87-.94a5.24,5.24,0,0,0-4.07-.32,5.15,5.15,0,0,0-2.81,2.32,5.24,5.24,0,0,0-2.25-6.78l-1.85-1a5.21,5.21,0,0,0-4.07-.42,5.13,5.13,0,0,0-2.86,2.27,5.22,5.22,0,0,0-2.1-6.84l-1.77-1a5.1,5.1,0,0,0-7,1.66,5.2,5.2,0,0,0-1.91-6.72l-1.73-1a5.35,5.35,0,0,0-4-.64,5.08,5.08,0,0,0-3,2.11,5.17,5.17,0,0,0,.57-3.61,5.24,5.24,0,0,0-2.32-3.28l-1.7-1.1a5.25,5.25,0,0,0-7.06,1.31,5.22,5.22,0,0,0-1.51-7l-1.66-1.19a5.27,5.27,0,0,0-7,1.09,5.23,5.23,0,0,0-1.35-7l-1.66-1.2a5.22,5.22,0,0,0-7.13.88,5.25,5.25,0,0,0-1-7.07l-1.64-1.27h0a5.21,5.21,0,0,0-3.87-1,5.13,5.13,0,0,0-3.18,1.7,5.13,5.13,0,0,0,1-3.51,5.23,5.23,0,0,0-1.84-3.55l-1.59-1.36a5.27,5.27,0,0,0-7.13.4,5.24,5.24,0,0,0-.46-7.13L15,77.72a5.27,5.27,0,0,0-7.13.07"/><path class="cls-1" d="M504.2,77.83a5.25,5.25,0,0,0-7.12-.06l-1.53,1.41a5.26,5.26,0,0,0-.46,7.13,5.27,5.27,0,0,0-7.13-.39l-1.55,1.34a5.19,5.19,0,0,0-1.85,3.54,5.08,5.08,0,0,0,1,3.51,5.18,5.18,0,0,0-7.08-.63h0L476.86,95a5.25,5.25,0,0,0-1.07,7.06,5.21,5.21,0,0,0-7.07-.88L467,102.27a5.2,5.2,0,0,0-1.33,7,5.3,5.3,0,0,0-7-1.09L457,109.39a5.22,5.22,0,0,0-1.53,7,5.26,5.26,0,0,0-7.06-1.3l-1.7,1.09a5.19,5.19,0,0,0-2.32,3.29,5.31,5.31,0,0,0,.56,3.6,5.13,5.13,0,0,0-3-2.1,5.3,5.3,0,0,0-4,.63l-1.73,1a5.25,5.25,0,0,0-2,6.86,5.13,5.13,0,0,0-7-1.67l-1.76,1a5.25,5.25,0,0,0-2.1,6.85,5.16,5.16,0,0,0-2.87-2.26,5.08,5.08,0,0,0-4.07.41l-1.82,1a5.25,5.25,0,0,0-2.26,6.78,5.11,5.11,0,0,0-2.81-2.32,5.29,5.29,0,0,0-4.07.32l-1.86.94a5.25,5.25,0,0,0-2.37,6.75,5.28,5.28,0,0,0-6.77-2.25l-1.83.89a5.21,5.21,0,0,0-2.68,3,5.08,5.08,0,0,0,.15,3.68,5.28,5.28,0,0,0-6.79-2.27l-1.84.85a5.21,5.21,0,0,0-2.75,2.95,5.11,5.11,0,0,0,.06,3.69,5.26,5.26,0,0,0-6.74-2.4l-1.9.85a5.25,5.25,0,0,0-2.76,6.58,5.06,5.06,0,0,0-2.66-2.53,5.19,5.19,0,0,0-4,0l-1.92.8a5.13,5.13,0,0,0-2.89,6.52,5.15,5.15,0,0,0-2.57-2.55,5.27,5.27,0,0,0-4.07,0l-1.95.78a5.24,5.24,0,0,0-3,6.53,5.06,5.06,0,0,0-2.58-2.63,5.14,5.14,0,0,0-4.07-.13l-2,.75a5.09,5.09,0,0,0-3,6.43,5.23,5.23,0,0,0-2.57-2.65,5.17,5.17,0,0,0-4-.13l-1.91.69a5.29,5.29,0,0,0-3,2.71,5.14,5.14,0,0,0-.22,3.66,5.25,5.25,0,0,0-6.53-2.84l-1.94.68a5.26,5.26,0,0,0-3.29,6.33,5.23,5.23,0,0,0-6.43-2.94l-2,.69a5.22,5.22,0,0,0-3.3,6.33,5.18,5.18,0,0,0-6.49-3.05l-2,.65a5.23,5.23,0,0,0-3.4,6.29,5.22,5.22,0,0,0-2.45-2.82,5.07,5.07,0,0,0-4-.31l-2,.63a5.22,5.22,0,0,0-3.44,6.24,5.29,5.29,0,0,0-6.39-3.23l-2,.61a5.27,5.27,0,0,0,1.53,10.3,5.69,5.69,0,0,0,1.54-.24l2-.6a5.25,5.25,0,0,0,3.52-6.29,5.18,5.18,0,0,0,6.45,3.23l2-.62a5.25,5.25,0,0,0,3.06-2.6,5.32,5.32,0,0,0,.37-3.76,5.15,5.15,0,0,0,6.5,3.16l2-.63a5.25,5.25,0,0,0,3.36-6.38,5.28,5.28,0,0,0,4.84,3.36,4.8,4.8,0,0,0,1.76-.31l1.89-.63a5.28,5.28,0,0,0,3.35-6.42,5.26,5.26,0,0,0,4.78,3.27,5.15,5.15,0,0,0,1.9-.34l2-.69a5.23,5.23,0,0,0,3.05-2.73,5.12,5.12,0,0,0,.22-3.73,5.24,5.24,0,0,0,4.78,3.23,4.93,4.93,0,0,0,1.74-.29l2-.74a5.26,5.26,0,0,0,3.14-6.49,5.22,5.22,0,0,0,4.75,3.15,5.09,5.09,0,0,0,1.89-.37l1.93-.74a5.17,5.17,0,0,0,3.07-6.53,5.17,5.17,0,0,0,4.72,3.05,5.08,5.08,0,0,0,2-.38l1.92-.76a5.17,5.17,0,0,0,3-6.58,5.19,5.19,0,0,0,6.72,2.59l1.92-.8a5.24,5.24,0,0,0,2.83-2.87,5.16,5.16,0,0,0,0-3.75,5.21,5.21,0,0,0,4.63,2.92,5.4,5.4,0,0,0,2.14-.45l1.89-.83a5.23,5.23,0,0,0,2.74-6.7,5.21,5.21,0,0,0,4.61,2.87,5.45,5.45,0,0,0,2.17-.46l1.92-.9a5.24,5.24,0,0,0,2.63-6.66,5.22,5.22,0,0,0,4.54,2.76,4.93,4.93,0,0,0,2.32-.55l1.85-.9a5.18,5.18,0,0,0,2.51-6.76,5.17,5.17,0,0,0,6.9,2.09l1.84-.95a5.19,5.19,0,0,0,2.61-3.05,5.33,5.33,0,0,0-.25-3.77,5.08,5.08,0,0,0,6.92,2h0l1.84-1a5.23,5.23,0,0,0,2.2-6.89,5.2,5.2,0,0,0,4.39,2.49,5.08,5.08,0,0,0,2.55-.66l1.87-1a5.31,5.31,0,0,0,2-6.93,5.26,5.26,0,0,0,4.32,2.38,5.35,5.35,0,0,0,2.7-.74l1.82-1.11a5.23,5.23,0,0,0,1.83-7,5.17,5.17,0,0,0,7,1.45l1.81-1.17a5.14,5.14,0,0,0,1.66-7,5.15,5.15,0,0,0,7.13,1.24l1.75-1.2a5.26,5.26,0,0,0,1.5-7,5.14,5.14,0,0,0,4,2,5.28,5.28,0,0,0,3.06-1l1.69-1.24a5.25,5.25,0,0,0,1.28-7.13,5.13,5.13,0,0,0,3.9,1.87,5.34,5.34,0,0,0,3.25-1.11L485,101.9a5.24,5.24,0,0,0,1-7.13,5.15,5.15,0,0,0,3.76,1.68,5.24,5.24,0,0,0,3.37-1.23l1.62-1.36a5.33,5.33,0,0,0,1.85-3.62,5.18,5.18,0,0,0-1.1-3.54,5.25,5.25,0,0,0,3.63,1.51,5.15,5.15,0,0,0,3.6-1.44l1.49-1.37a5.23,5.23,0,0,0,1.68-3.66,5.16,5.16,0,0,0-1.23-3.5,5.24,5.24,0,0,0,3.44,1.36"/><path class="cls-2" d="M256,197.28a5.21,5.21,0,0,0-5.65,3.6,5.06,5.06,0,0,0,.4,4,5.3,5.3,0,0,0,1.44,1.68,5.07,5.07,0,0,0,1.38.73c.1,0,.18.12.3.17l1,.31h.1c.22,0,.37.2.58.2h.8c.14,0,.36-.16.58-.19h.1l1-.31c.11,0,.2-.13.3-.17a4.84,4.84,0,0,0,1.38-.74,5.17,5.17,0,0,0-3.79-9.26"/><path class="cls-3" d="M256,197.28a5.21,5.21,0,0,0-5.65,3.6,5.06,5.06,0,0,0,.4,4,5.3,5.3,0,0,0,1.44,1.68,5.07,5.07,0,0,0,1.38.73c.1,0,.18.12.3.17l1,.31h.1c.22,0,.37.2.58.2h.8c.14,0,.36-.16.58-.19h.1l1-.31c.11,0,.2-.13.3-.17a4.84,4.84,0,0,0,1.38-.74,5.17,5.17,0,0,0-3.79-9.26Z"/><path class="cls-4" d="M256.05,407.47l-.87,0,.41-19.83.84,0Z"/><path class="cls-4" d="M256.91,408.36l-2.62-.05.43-21.58,2.6.07Z"/><path class="cls-4" d="M255.61,408.34h-.16l-33.08-6.86-28.12-18.89v-.14l-18.73-28.16L169.06,321v-.16l6.85-33.08,19-28.12H195L223.17,241l33.31-6.46h.18l33.06,6.74,28.12,19v.14l18.59,28.17,6.49,33.28V322l-6.74,33.08-19,28.12h-.14l-28.14,18.62ZM223,400l32.58,6.63,32.64-6.33L315.92,382l18.6-27.55,6.64-32.58-6.23-32.69-18.28-27.73-27.57-18.6-32.55-6.62-32.65,6.32-27.71,18.28-18.71,27.62L170.81,321l6.33,32.63,18.28,27.73Z"/><path class="cls-4" d="M255.61,409.23h-.34l-33.4-6.86-28.35-19.3-18.84-28.62L168.16,321v-.18L175,287.26l19.23-28.37L223,240l33.47-6.48h.18l33.56,6.85,28.35,19.21,18.84,28.6,6.51,33.47v.18l-6.85,33.56L317.7,383.8l-28.62,18.85Zm-32.23-10.1,32.23,6.56,32.3-6.26,27.42-18.28L333.6,353.9l6.58-32.23-6.28-32.3L315.76,262l-27.28-18.41L256.27,237,224,243.24,196.56,261.4l-18.28,27.26L171.73,321,178,353.31l18.14,27.41Z"/><path class="cls-4" d="M303.29,368.66H208.76V274.15h94.53Zm-93.66-.87h92.81V275H209.6Z"/><path class="cls-4" d="M304.16,369.53H207.87V273.26h96.29Zm-93.67-2.61h91.08V275.86h-91.1Z"/><path class="cls-4" d="M256,388.23l-66.86-66.84L256,254.55l66.84,66.84Zm-65.63-66.84L256,387l65.61-65.63L256,255.88Z"/><path class="cls-4" d="M256,389.47l-.64-.62-67.46-67.46.62-.61L256,253.32l.62.61,67.46,67.46-.6.73Zm-64.39-68.08L256,385.79l64.38-64.4L256,257Z"/><path class="cls-4" d="M288.83,401.62,256,388.1l-33.54,13.22-13.7-32.75-33-14.46,13.53-32.81-13.23-33.44,32.76-13.71,14.37-33L256,254.62l33.54-13.23,13.7,32.78,33.06,14.37L322.8,321.32,336,354.86l-32.76,13.71ZM256,387.16l32.33,13.34,14.18-32.69h.14l32.26-13.34-13-33.08,13.31-32.34-32.6-14.17v-.16l-13.36-32.14-33.08,13-32.5-13.34-14.17,32.6h-.18l-32,13.43,13,33.08-13.43,32.35,32.62,14.07V368L223,400.2Z"/><path class="cls-4" d="M289.24,402.76,256,389.06l-34,13.41-13.7-33.22-33.61-14.6,13.71-33.26-13.34-34,33.21-13.71,14.58-33.53,33.26,13.7,34-13.41,13.82,33.22,33.52,14.6-13.71,33.23,13.39,34-33.22,13.82ZM256,386.22l.32.14,31.55,13,14-32.14.32-.14,31.52-13-12.86-32.6.14-.35,13-31.54-32.14-14-.14-.32-13.11-31.5L256,256.56l-.32-.14-31.55-13-14,32.11-.3.14-31.52,13.11,12.86,32.6-.14.35-13,31.54,32.14,14,13.25,31.82Z"/><path class="cls-4" d="M195.14,260.53l.62-.6,13.74,14.3-.63.6Z"/><path class="cls-4" d="M208.85,276.09l-15-15.58,1.87-1.8,15,15.56Z"/><path class="cls-4" d="M256.43,255.17l-.84,0,.39-19.82.87,0Z"/><path class="cls-4" d="M257.3,256.06l-2.6-.07.43-21.56,2.58,0Z"/><path class="cls-4" d="M302.55,274.24l14.33-13.74.61.62-14.34,13.74Z"/><path class="cls-4" d="M301.33,274.25l15.55-15,1.81,1.88-15.56,15Z"/><path class="cls-4" d="M342.08,322.22l-19.83-.39,0-.87,19.81.41Z"/><path class="cls-4" d="M321.32,322.68l.06-2.61,21.58.45,0,2.6Z"/><path class="cls-4" d="M302.54,368.53l.62-.6,13.74,14.3-.63.6Z"/><path class="cls-4" d="M316.26,384.08l-15-15.58,1.9-1.81,14.94,15.56Z"/><path class="cls-4" d="M195.17,382.27l-.6-.61,14.3-13.73.6.61Z"/><path class="cls-4" d="M193.33,381.62l15.58-14.94,1.8,1.88L195.13,383.5Z"/><path class="cls-4" d="M189.78,321.83l-19.86-.41,0-.85,19.83.39Z"/><path class="cls-4" d="M169,322.26l.06-2.6,21.58.44,0,2.6Z"/><path class="cls-4" d="M256,435.64A114.22,114.22,0,1,1,370.22,321.42,114.22,114.22,0,0,1,256,435.64m0-223a108.72,108.72,0,1,0,108.62,108.8v-.09A108.82,108.82,0,0,0,255.91,212.68"/><path class="cls-4" d="M248.3,236.69a12.93,12.93,0,1,1,12.93-12.93v.13A12.93,12.93,0,0,1,248.3,236.8m0-23.07a10.17,10.17,0,1,0,10.17,10.16h0a10.16,10.16,0,0,0-10.17-10.16"/><path class="cls-4" d="M271.4,238.24a12.93,12.93,0,1,1,12.93-12.93,12.93,12.93,0,0,1-12.93,12.93h0m0-23.07a10.17,10.17,0,1,0,10.14,10.19v-.05a10.14,10.14,0,0,0-10.14-10.14h0"/><path class="cls-4" d="M294.47,243.15a13,13,0,1,1,.11,0m0-23.09a10.17,10.17,0,1,0,10.17,10.16h0a10.18,10.18,0,0,0-10.17-10.16"/><path class="cls-4" d="M314.09,255.88A12.93,12.93,0,1,1,327,243a12.93,12.93,0,0,1-12.93,12.93h0m0-23.08A10.17,10.17,0,1,0,324.26,243v0a10.17,10.17,0,0,0-10.17-10.15"/><path class="cls-4" d="M330.22,272.19a12.93,12.93,0,1,1,12.93-12.93,12.93,12.93,0,0,1-12.93,12.93m0-23.08a10.17,10.17,0,1,0,10.17,10.17v0A10.15,10.15,0,0,0,330.34,249h-.12"/><path class="cls-4" d="M311.33,414.55a12.93,12.93,0,1,1,12.91-12.95v0a13,13,0,0,1-12.91,12.93m0-23.09a10.17,10.17,0,1,0,10.16,10.16h0a10.16,10.16,0,0,0-10.16-10.16"/><path class="cls-4" d="M329,399.66a12.93,12.93,0,1,1,12.93-12.93A12.93,12.93,0,0,1,329,399.66h0m0-23.1a10.17,10.17,0,1,0,10.16,10.17h0A10.18,10.18,0,0,0,329,376.56"/><path class="cls-4" d="M342.08,380.86A12.93,12.93,0,1,1,355,367.93a12.95,12.95,0,0,1-12.95,12.93m0-23.1a10.17,10.17,0,1,0,10.16,10.17h0a10.14,10.14,0,0,0-10.12-10.17h0"/><path class="cls-4" d="M350.53,359.13a12.93,12.93,0,1,1,12.93-12.93,12.93,12.93,0,0,1-12.93,12.93m0-23.07a10.17,10.17,0,1,0,10.16,10.16v0a10.16,10.16,0,0,0-10.16-10.14"/><path class="cls-4" d="M354.53,336.06a12.93,12.93,0,1,1,12.93-12.93h0a13,13,0,0,1-12.93,12.93m0-23.1a10.17,10.17,0,1,0,10.09,10.24v-.07A10.15,10.15,0,0,0,354.53,313"/><path class="cls-4" d="M351.53,313a12.93,12.93,0,1,1,12.93-12.93A12.93,12.93,0,0,1,351.53,313m0-23.1a10.17,10.17,0,1,0,10.17,10.17h0a10.19,10.19,0,0,0-10.17-10.17"/><path class="cls-4" d="M343.86,291.12a12.93,12.93,0,1,1,12.93-12.93,12.92,12.92,0,0,1-12.93,12.93m0-23.09A10.17,10.17,0,1,0,354,278.22v0A10.16,10.16,0,0,0,343.86,268"/><path class="cls-4" d="M182.83,399.34a12.93,12.93,0,1,1,12.95-12.93,12.95,12.95,0,0,1-12.95,12.93m0-23.08A10.17,10.17,0,1,0,193,386.43v0a10.16,10.16,0,0,0-10.15-10.15h0"/><path class="cls-4" d="M202,414.55A12.93,12.93,0,1,1,215,401.62h0A12.94,12.94,0,0,1,202,414.55m0-23.09a10.17,10.17,0,1,0,10.17,10.16h0A10.19,10.19,0,0,0,202,391.46"/><path class="cls-4" d="M244.9,431.2a12.93,12.93,0,1,1,12.93-12.93v0a12.93,12.93,0,0,1-12.93,12.9m0-23.07A10.17,10.17,0,1,0,255,418.39v-.09a10.16,10.16,0,0,0-10.16-10.17"/><path class="cls-4" d="M267.92,431.2a12.93,12.93,0,1,1,12.93-12.93v0a12.92,12.92,0,0,1-12.93,12.9m0-23.07a10.17,10.17,0,1,0,10.15,10.19v0a10.17,10.17,0,0,0-10.15-10.17"/><path class="cls-4" d="M291,426.09a12.93,12.93,0,1,1,12.93-12.93h0A12.93,12.93,0,0,1,291,426.09h0M291,403a10.17,10.17,0,1,0,10.16,10.17v0A10.17,10.17,0,0,0,291,403"/><path class="cls-4" d="M222.26,426.09a12.93,12.93,0,1,1,12.93-12.93h0a12.93,12.93,0,0,1-12.93,12.93h0m0-23.08a10.17,10.17,0,1,0,10.16,10.17v0A10.15,10.15,0,0,0,222.28,403h0"/><path class="cls-4" d="M225.27,241.44a12.93,12.93,0,1,1,12.89-13,12.92,12.92,0,0,1-12.89,13m0-23.1a10.17,10.17,0,1,0,10.1,10.24v-.12a10.17,10.17,0,0,0-10.1-10.12"/><path class="cls-4" d="M204.51,252.15a12.93,12.93,0,1,1,12.93-12.93,12.93,12.93,0,0,1-12.93,12.93m0-23.09a10.17,10.17,0,1,0,10.17,10.16h0a10.17,10.17,0,0,0-10.17-10.16"/><path class="cls-4" d="M185.11,266.25a12.93,12.93,0,1,1,12.91-13v0a13,13,0,0,1-12.91,12.93m0-23.1a10.17,10.17,0,1,0,10.15,10.19v0a10.17,10.17,0,0,0-10.15-10.17"/><path class="cls-4" d="M171.29,286.19a12.93,12.93,0,1,1,12.87-13v.07a13,13,0,0,1-12.93,12.93m0-23.1a10.17,10.17,0,1,0,10.16,10.17h0a10.17,10.17,0,0,0-10.16-10.17"/><path class="cls-4" d="M162,308.67a13,13,0,1,1,.07,0m0-23.07a10.17,10.17,0,1,0,10.16,10.16v0a10.16,10.16,0,0,0-10.16-10.17H162"/><path class="cls-4" d="M158.23,332.59a12.93,12.93,0,1,1,12.9-13v.05a12.93,12.93,0,0,1-12.9,12.91m0-23.08a10.17,10.17,0,1,0,10.16,10.17h0a10.17,10.17,0,0,0-10.16-10.17"/><path class="cls-4" d="M160.72,356.53a12.93,12.93,0,1,1,12.93-12.93h0a13,13,0,0,1-12.93,12.93m0-23.1a10.17,10.17,0,1,0,10.16,10.17h0a10.16,10.16,0,0,0-10.16-10.05"/><path class="cls-4" d="M168.16,379.62a12.93,12.93,0,1,1,12.93-12.93,12.93,12.93,0,0,1-12.93,12.93m0-23.09a10.17,10.17,0,1,0,10.17,10.16h0a10.16,10.16,0,0,0-10.17-10.16"/></svg>