<svg id="Layer_1" data-name="Layer 1" xmlns="http://www.w3.org/2000/svg" viewBox="0 0 512 250"><defs><style>.cls-1{fill:#231f20;}</style></defs><path class="cls-1" d="M259.36,211.05l-.87,0,.41-19.83.85,0Z"/><path class="cls-1" d="M260.23,211.94l-2.63,0,.43-21.59,2.61.07Z"/><path class="cls-1" d="M258.92,211.92h-.16l-33.07-6.85-28.13-18.89V186l-18.73-28.17-6.46-33.3v-.16l6.85-33.08,19-28.12h.16l28.15-18.62,33.3-6.47H260L293,44.86l28.12,19V64l18.6,28.17,6.48,33.28v.19L339.5,158.7l-19,28.12h-.14l-28.14,18.61Zm-32.62-8.38,32.58,6.62,32.64-6.33,27.71-18.27L337.83,158l6.65-32.58-6.24-32.69L320,65,292.39,46.42l-32.55-6.63-32.65,6.33L199.48,64.39,180.77,92l-6.64,32.58,6.32,32.62,18.28,27.73Z"/><path class="cls-1" d="M258.92,212.81h-.34L225.18,206l-28.35-19.3L178,158l-6.51-33.46v-.19l6.85-33.53,19.23-28.37L226.3,43.63l33.47-6.49H260L293.51,44l28.35,19.22,18.85,28.6,6.51,33.46v.19L340.36,159,321,187.39l-28.62,18.84Zm-32.23-10.09,32.23,6.55L291.23,203l27.41-18.27,18.27-27.26,6.58-32.23L337.21,93,319.07,65.54,291.8,47.12l-32.21-6.55-32.3,6.26L199.87,65,181.6,92.24,175,124.59l6.26,32.3,18.14,27.41Z"/><path class="cls-1" d="M306.6,172.24H212.07V77.74H306.6Zm-93.66-.87h92.81V78.56H212.92Z"/><path class="cls-1" d="M307.47,173.11H211.18V76.84h96.29Zm-93.66-2.6h91.08V79.45H213.78Z"/><path class="cls-1" d="M259.34,191.82,192.47,125l66.87-66.84L326.18,125ZM193.7,125l65.64,65.63L324.94,125l-65.6-65.52Z"/><path class="cls-1" d="M259.34,193.05l-.64-.61L191.24,125l.61-.62L259.34,56.9l.61.62L327.41,125l-.59.73ZM194.94,125l64.4,64.39L323.71,125l-64.37-64.4Z"/><path class="cls-1" d="M292.14,205.21l-32.83-13.53-33.53,13.23-13.71-32.76-33-14.46,13.52-32.8L179.4,91.44l32.76-13.7,14.37-33.06L259.34,58.2,292.87,45l13.71,32.78,33.05,14.37-13.52,32.78,13.23,33.53-32.76,13.71Zm-32.8-14.46,32.32,13.34,14.19-32.69H306l32.26-13.34-13-33.08,13.32-32.35-32.6-14.16v-.16L292.57,46.17l-33.07,13L227,45.87l-14.17,32.6h-.18l-32,13.43,13,33.08L180.2,157.32l32.62,14.08v.16l13.48,32.23Z"/><path class="cls-1" d="M292.55,206.35l-33.26-13.71-34,13.41-13.7-33.21L178,158.24,191.67,125,178.33,91l33.22-13.7,14.57-33.54,33.26,13.71L293.4,44l13.82,33.21,33.51,14.6L327,125.07l13.39,34L307.19,172.9Zm-33.24-16.54.32.14,31.55,13,14-32.14.32-.14,31.53-13-12.87-32.6.14-.34,13-31.55-32.14-14-.14-.32-13.11-31.5-32.6,12.73L259,60,227.44,47l-14,32.12-.29.14L181.64,92.38,194.5,125l-.13.34-13,31.55,32.14,14,13.25,31.82Z"/><path class="cls-1" d="M198.45,64.12l.62-.6,13.74,14.3-.63.6Z"/><path class="cls-1" d="M212.16,79.68l-15-15.58,1.87-1.81,15,15.56Z"/><path class="cls-1" d="M259.75,58.75l-.85,0,.39-19.83.87,0Z"/><path class="cls-1" d="M260.61,59.64l-2.6-.07L258.44,38l2.59.05Z"/><path class="cls-1" d="M305.87,77.82,320.2,64.08l.6.63L306.47,78.45Z"/><path class="cls-1" d="M304.64,77.83l15.55-15L322,64.74l-15.56,15Z"/><path class="cls-1" d="M345.39,125.8l-19.83-.39,0-.87,19.81.41Z"/><path class="cls-1" d="M324.64,126.26l.05-2.6,21.58.44,0,2.61Z"/><path class="cls-1" d="M305.85,172.12l.63-.61,13.73,14.31-.62.6Z"/><path class="cls-1" d="M319.58,187.66l-15-15.58,1.9-1.8,14.94,15.55Z"/><path class="cls-1" d="M198.48,185.86l-.6-.62,14.31-13.73.59.62Z"/><path class="cls-1" d="M196.64,185.21l15.58-14.94,1.81,1.88-15.58,14.94Z"/><path class="cls-1" d="M193.09,125.41,173.24,125l0-.85,19.83.39Z"/><path class="cls-1" d="M172.35,125.85l.05-2.6,21.58.43,0,2.61Z"/><path class="cls-1" d="M259.31,239.22A114.22,114.22,0,1,1,373.53,125,114.22,114.22,0,0,1,259.31,239.22m0-223A108.72,108.72,0,1,0,367.94,125.07V125A108.84,108.84,0,0,0,259.22,16.26"/><path class="cls-1" d="M251.61,40.27a12.93,12.93,0,1,1,12.93-12.93v.14a12.93,12.93,0,0,1-12.93,12.91m0-23.08a10.17,10.17,0,1,0,10.17,10.17h0a10.17,10.17,0,0,0-10.17-10.17"/><path class="cls-1" d="M274.71,41.82a12.93,12.93,0,1,1,12.93-12.93,12.92,12.92,0,0,1-12.93,12.93h0m0-23.07a10.17,10.17,0,1,0,10.14,10.19v-.05a10.14,10.14,0,0,0-10.14-10.14h0"/><path class="cls-1" d="M297.78,46.74a13,13,0,1,1,.12,0m0-23.1a10.17,10.17,0,1,0,10.16,10.17h0A10.18,10.18,0,0,0,297.9,23.64"/><path class="cls-1" d="M317.4,59.46a12.93,12.93,0,1,1,12.93-12.93A12.92,12.92,0,0,1,317.4,59.46h0m0-23.07a10.17,10.17,0,1,0,10.17,10.16v0A10.17,10.17,0,0,0,317.4,36.39"/><path class="cls-1" d="M333.53,75.77a12.93,12.93,0,1,1,12.93-12.93,12.93,12.93,0,0,1-12.93,12.93m0-23.07A10.17,10.17,0,1,0,343.7,62.86v0a10.14,10.14,0,0,0-10.05-10.23h-.12"/><path class="cls-1" d="M314.64,218.14a12.93,12.93,0,1,1,12.91-13v0a13,13,0,0,1-12.91,12.93m0-23.1a10.17,10.17,0,1,0,10.17,10.17h0A10.17,10.17,0,0,0,314.64,195"/><path class="cls-1" d="M332.3,203.24a12.93,12.93,0,1,1,12.93-12.93,12.93,12.93,0,0,1-12.93,12.93h0m0-23.09a10.17,10.17,0,1,0,10.16,10.16h0a10.17,10.17,0,0,0-10.16-10.16"/><path class="cls-1" d="M345.39,184.44a12.93,12.93,0,1,1,12.95-12.93,12.93,12.93,0,0,1-12.95,12.93m0-23.1a10.17,10.17,0,1,0,10.16,10.17h0a10.14,10.14,0,0,0-10.12-10.17h0"/><path class="cls-1" d="M353.84,162.72a12.93,12.93,0,1,1,12.93-12.93,12.93,12.93,0,0,1-12.93,12.93m0-23.08A10.17,10.17,0,1,0,364,149.81v0a10.17,10.17,0,0,0-10.17-10.15"/><path class="cls-1" d="M357.84,139.64a12.93,12.93,0,1,1,12.93-12.93h0a13,13,0,0,1-12.93,12.93m0-23.09a10.17,10.17,0,1,0,10.1,10.23v-.07a10.17,10.17,0,0,0-10.1-10.14"/><path class="cls-1" d="M354.85,116.57a12.93,12.93,0,1,1,12.93-12.93,12.93,12.93,0,0,1-12.93,12.93m0-23.09A10.17,10.17,0,1,0,365,103.64h0a10.17,10.17,0,0,0-10.16-10.16"/><path class="cls-1" d="M347.17,94.71A12.93,12.93,0,1,1,360.1,81.78a12.93,12.93,0,0,1-12.93,12.93m0-23.1A10.17,10.17,0,1,0,357.31,81.8v0a10.17,10.17,0,0,0-10.14-10.17"/><path class="cls-1" d="M186.14,202.92a12.93,12.93,0,1,1,13-12.93,12.92,12.92,0,0,1-13,12.93m0-23.07A10.17,10.17,0,1,0,196.31,190v0a10.14,10.14,0,0,0-10.14-10.14h0"/><path class="cls-1" d="M205.33,218.14a12.93,12.93,0,1,1,12.93-12.93h0a13,13,0,0,1-12.93,12.93m0-23.1a10.17,10.17,0,1,0,10.17,10.17h0A10.2,10.2,0,0,0,205.33,195"/><path class="cls-1" d="M248.21,234.79a12.93,12.93,0,1,1,12.93-12.93v0a12.93,12.93,0,0,1-12.93,12.91m0-23.07A10.17,10.17,0,1,0,258.28,222v-.09a10.16,10.16,0,0,0-10.16-10.16"/><path class="cls-1" d="M271.24,234.79a12.93,12.93,0,1,1,12.93-12.93v0a12.94,12.94,0,0,1-12.93,12.91m0-23.07a10.17,10.17,0,1,0,10.14,10.18v0a10.16,10.16,0,0,0-10.14-10.16"/><path class="cls-1" d="M294.31,229.67a12.93,12.93,0,1,1,12.93-12.93h0a12.93,12.93,0,0,1-12.93,12.93h0m0-23.07a10.17,10.17,0,1,0,10.17,10.16v0a10.18,10.18,0,0,0-10.17-10.14"/><path class="cls-1" d="M225.57,229.67a12.93,12.93,0,1,1,12.93-12.93h0a12.93,12.93,0,0,1-12.93,12.93h0m0-23.07a10.17,10.17,0,1,0,10.17,10.16v0a10.14,10.14,0,0,0-10.15-10.14h0"/><path class="cls-1" d="M228.59,45a12.93,12.93,0,1,1,12.88-13,12.93,12.93,0,0,1-12.88,13m0-23.09a10.17,10.17,0,1,0,10.09,10.23v-.11a10.16,10.16,0,0,0-10.09-10.12"/><path class="cls-1" d="M207.82,55.74a12.93,12.93,0,1,1,12.93-12.93,12.93,12.93,0,0,1-12.93,12.93m0-23.1A10.17,10.17,0,1,0,218,42.81h0a10.17,10.17,0,0,0-10.17-10.17"/><path class="cls-1" d="M188.43,69.83a12.93,12.93,0,1,1,12.9-12.95v0a12.94,12.94,0,0,1-12.9,12.93m0-23.09a10.17,10.17,0,1,0,10.14,10.18v0a10.16,10.16,0,0,0-10.14-10.16"/><path class="cls-1" d="M174.61,89.77a12.93,12.93,0,1,1,12.86-13v.06a13,13,0,0,1-12.93,12.93m0-23.09A10.17,10.17,0,1,0,184.7,76.84h0a10.16,10.16,0,0,0-10.16-10.16"/><path class="cls-1" d="M165.33,112.25a13,13,0,1,1,.07,0m0-23.07a10.17,10.17,0,1,0,10.17,10.17v0A10.17,10.17,0,0,0,165.4,89.16h-.07"/><path class="cls-1" d="M161.54,136.17a12.93,12.93,0,1,1,12.91-12.95v0a12.94,12.94,0,0,1-12.91,12.91m0-23.07a10.17,10.17,0,1,0,10.17,10.16h0a10.17,10.17,0,0,0-10.17-10.16"/><path class="cls-1" d="M164,160.11A12.93,12.93,0,1,1,177,147.18h0A12.94,12.94,0,0,1,164,160.11M164,137a10.17,10.17,0,1,0,10.17,10.16h0A10.17,10.17,0,0,0,164,137.13"/><path class="cls-1" d="M171.48,183.21a12.93,12.93,0,1,1,12.93-12.93,12.93,12.93,0,0,1-12.93,12.93m0-23.1a10.17,10.17,0,1,0,10.16,10.17h0a10.16,10.16,0,0,0-10.16-10.17"/><path class="cls-1" d="M25.82,149.67c-9.87,0-17.88-9.75-17.88-21.7s8-21.7,17.86-21.7H147.86v5.53H25.8C19,111.8,13.46,119,13.46,128S19,144.12,25.8,144.12l122-1.07v5.53Z"/><path class="cls-1" d="M486.93,149.9l-116.16-1.07V143.3l116.14,1.07c6.26,0,11.58-7.4,11.58-16.17S493.21,112,486.93,112H370.79v-5.57H486.93c9.46,0,17.13,9.73,17.13,21.7s-7.67,21.7-17.13,21.7"/></svg>