<svg id="Layer_1" data-name="Layer 1" xmlns="http://www.w3.org/2000/svg" viewBox="0 0 512 250"><defs><style>.cls-1{fill:#231f20;}</style></defs><path class="cls-1" d="M325,121.16h18.28a6.5,6.5,0,0,0,6.51-6.48v-37a6.5,6.5,0,0,0-6.51-6.48H313.43l28.82-26.68L302.64,5H207.09L169.93,42.14,199,71.24H168.72a6.49,6.49,0,0,0-6.48,6.48v37a6.49,6.49,0,0,0,6.48,6.48h18.77c-45.72,16.9-83,50.18-103.84,92.27l3.78,4.95,15.49,20.32,4.83,6.33c20.55-58.92,79.36-101.56,148.48-101.56,68.72,0,127.18,42.12,148.11,100.44l5.76-7.55c-6.21-17.1-17-29.55-26.08-40a170.48,170.48,0,0,0-142.63-58.22,170.55,170.55,0,0,0-56.17,14,173.45,173.45,0,0,0-40.17,26.21c-10.57,9.11-24.39,21-33.71,38.81a107.6,107.6,0,0,0-6.81,16.29L90.66,213.56c17.72-26.38,28.72-42.46,49.79-58.72a185.08,185.08,0,0,1,55.66-29.11c59.53-19.28,110.65-2.64,125.87,2.55,10.82,3.69,29.13,10.11,48.77,25,16.72,12.7,27.81,26.57,34.47,35,9.57,12.11,13.62,18.47,15.83,22.73,1.16,2.25,2.24,4.53,3.22,6.78l4.08-5.34C407.39,170.85,370.37,137.94,325,121.16Zm-8.29-45.45a3,3,0,1,1-3,3A3,3,0,0,1,316.71,75.71ZM186.22,42.14l25.65-25.65h86l27.75,27.75-29.13,27H215.32ZM278.05,78.7a3,3,0,1,1-3-3A3,3,0,0,1,278.05,78.7Zm-38.4,0a3,3,0,1,1-3-3A3,3,0,0,1,239.65,78.7Zm-42.72-3a3,3,0,1,1-3,3A3,3,0,0,1,196.93,75.71Zm-20.09,39c-10.19,0-10.19-36.91,0-36.91a18.46,18.46,0,0,1,0,36.91ZM196.93,117a3,3,0,1,1,3-3A3,3,0,0,1,196.93,117Zm30.83-6.08a18,18,0,0,1-11,3.72,17.5,17.5,0,0,1-5-.72,18.43,18.43,0,0,1-3.86-33.89,18.16,18.16,0,0,1,8.9-2.3,17.54,17.54,0,0,1,6.18,1.09A18.37,18.37,0,0,1,234.09,90a17.6,17.6,0,0,1,1.1,6.19,18.17,18.17,0,0,1-2.31,8.9A17.47,17.47,0,0,1,227.76,110.94Zm8.92,6.08a3,3,0,1,1,3-3A3,3,0,0,1,236.68,117Zm19.95-2.36A18.49,18.49,0,0,1,238.18,96.2a14.62,14.62,0,0,1,.12-2,18.41,18.41,0,0,1,36.15-2.57,16.61,16.61,0,0,1,.61,4.55,18.49,18.49,0,0,1-18.43,18.46ZM275.06,117a3,3,0,1,1,3-3A3,3,0,0,1,275.06,117Zm26.14-3a17,17,0,0,1-4.69.64,18,18,0,0,1-10.83-3.57h0a18,18,0,0,1-6.33-8.24,17.42,17.42,0,0,1-1.27-6.65,18.27,18.27,0,0,1,4.52-12.06s0-.06.09-.09h0a12.16,12.16,0,0,1,2.73-2.53c0-.09,0-.09,0-.06s.12-.11.17-.11a.55.55,0,0,1,.26-.2,18.32,18.32,0,0,1,18.57-1.59A18.42,18.42,0,0,1,301.2,114Zm15.51,3a3,3,0,1,1,3-3A3,3,0,0,1,316.71,117Zm1.85-20.82A18.45,18.45,0,0,1,337,77.75c10.19,0,10.19,36.91,0,36.91A18.46,18.46,0,0,1,318.56,96.2Z"/><polygon class="cls-1" points="218.47 29.21 204.68 44.48 229.69 68.12 215.51 42.59 218.47 29.21"/><polygon class="cls-1" points="291.31 31.36 310.03 48.65 293.49 48.65 291.31 31.36"/><polygon class="cls-1" points="409.75 236.81 404.41 232.49 423.69 208.68 428.35 212.45 409.75 236.81"/></svg>