<svg id="Layer_1" data-name="Layer 1" xmlns="http://www.w3.org/2000/svg" viewBox="0 0 512 512"><defs><style>.cls-1{fill:#231f20;}.cls-2{fill:none;stroke:#231f20;stroke-miterlimit:10;stroke-width:3px;}</style></defs><path class="cls-1" d="M172.49,322h0c-15.17-15.17-34.79-24.09-57.09-24.09s-41.93,8.92-57.09,23.2h0A80.9,80.9,0,0,0,35.12,378.2c0,22.3,8.92,41.93,23.19,57.09h0a80.92,80.92,0,0,0,57.09,23.19c22.3,0,41.92-8.92,57.09-23.19h0a80.76,80.76,0,0,0,0-113.28Zm-2.68,80.28-19.62,8,11.59-28.54,8,20.52Zm-23.19,8.92-32.11,13.38L82.39,411.21,69,379.09,82.39,347l32.12-13.38L146.62,347,160,379.09Zm-8.92,22.3h0l-20.52-8,28.55-11.6Zm-45.49,0h0l-8.92-19.63,28.54,11.6ZM60.09,401.39h0l8-20.51,11.6,28.54ZM61,355.9l19.62-8L69,376.42,61,355.9Zm51.73-23.19-28.54,11.6,8.92-19.63Zm33.9,11.6-28.55-11.6,20.52-8Zm3.57,3.57,19.62,8v.89h0l-8,19.63Zm-.9-2.68-7.13-18.73,26.76,26.76ZM115.4,331.82l-18.73-8H135ZM81.5,345.2l-18.73,7.13,26.76-26.75Zm-14.27,33-8,18.73V359.47Zm13.38,33.9,7.14,18.73L61,404.07Zm33.9,14.27,18.73,8H95.77ZM148.4,413l18.73-7.14-26.76,26.76Zm14.27-33.9,8-18.73v37.47Zm8-25.86-29.43-29.44H170.7ZM94,322l20.52-20.52L135,322ZM59.2,353.23V323.79H88.64Zm-1.78,46.38L36.9,379.09l20.52-20.51ZM59.2,405,88.64,434.4H59.2Zm76.71,31.22L115.4,456.7,94,436.18ZM170.7,405V434.4H141.27Zm1.79-47.27L193,378.2l-20.51,20.52Zm0-32.11a76,76,0,0,1,15.16,22.3l-15.16,6.24Zm-33-3.57,6.25-15.17c8.92,3.57,16.05,8.92,23.19,15.17Zm-1.78-.89L117.18,300.6A71.54,71.54,0,0,1,143.94,306Zm-25-20.52L92.21,321.12,86,306a65.15,65.15,0,0,1,26.76-5.35M89.53,322H61a75.84,75.84,0,0,1,22.3-15.17ZM57.42,354.12l-15.17-6.24c3.57-8.92,8.92-16.06,15.17-23.2Zm-.89,1.78L36,376.42a71.54,71.54,0,0,1,5.35-26.76Zm.89,46.39-15.17,6.24a68.41,68.41,0,0,1-5.35-26.76Zm0,1.78v28.54a75.84,75.84,0,0,1-15.17-22.3Zm33,32.11-6.24,15.17c-8.92-3.57-16.06-8.92-23.19-15.17Zm1.79.89,20.51,20.52A71.54,71.54,0,0,1,86,452.24Zm46.38,0,6.24,15.17a68.2,68.2,0,0,1-26.76,5.35Zm1.78-.89h28.55a76,76,0,0,1-22.3,15.17Zm32.12-33,15.16,6.24c-3.57,8.92-8.92,16.06-15.16,23.19Zm.89-1.79,20.51-20.51a71.54,71.54,0,0,1-5.35,26.76Zm-.89-45.49,15.16-6.24A68.23,68.23,0,0,1,193,376.42Z"/><path class="cls-2" d="M116.29,468.29c-45.49,0-69.58-25-82.06-50-43.71-89.2,82.06-284.54,82.06-284.54h0S243.84,338.06,193,424.59c-12.49,23.19-33.89,43.7-76.71,43.7Z"/><circle class="cls-2" cx="115.4" cy="137.37" r="34.79"/><circle class="cls-2" cx="115.4" cy="66.9" r="23.19"/><path class="cls-1" d="M454.51,322h0c-15.16-15.17-34.79-24.09-57.09-24.09s-41.92,8.92-57.08,23.2h0a80.9,80.9,0,0,0-23.19,57.08c0,22.3,8.92,41.93,23.19,57.09h0a80.92,80.92,0,0,0,57.08,23.19c22.3,0,41.93-8.92,57.09-23.19h0a80.76,80.76,0,0,0,0-113.28Zm-3.57,80.28-19.62,8,11.6-28.54,8,20.52Zm-22.3,8.92-32.11,13.38-32.11-13.38L351,379.09,364.42,347l32.11-13.38L428.64,347,442,379.09Zm-8.92,22.3h0l-20.51-8,28.54-11.6Zm-45.49,0h0l-8.92-19.63,28.55,11.6Zm-32.11-32.12h0l8-20.51,11.6,28.54Zm0-45.49,19.63-8-11.6,27.65-8-19.63Zm52.63-23.19-28.54,11.6,8.92-19.63Zm33.89,11.6-28.54-11.6,20.52-8Zm3.57,3.57,19.63,8v.89h0l-8,19.63Zm-.89-2.68-7.14-18.73,26.76,26.76Zm-33.89-13.38-18.74-8h37.47Zm-33.9,13.38-18.73,7.13,26.76-26.75Zm-14.27,33-8,18.73V359.47Zm13.38,33.9,7.13,18.73L343,404.07Zm33.89,14.27,18.73,8H376.91ZM430.43,413l18.73-7.14L422.4,432.61Zm14.27-33.9,8-18.73v37.47Zm8-25.86-29.44-29.44h29.44ZM376,322l20.51-20.52L417.05,322Zm-34.79,31.22V323.79h29.44Zm-1.78,46.38-20.52-20.52,20.52-20.51Zm1.78,5.35,29.44,29.44H341.23Zm76.71,31.22L397.42,456.7,376,436.18ZM452.73,405V434.4H423.29Zm1.78-47.27L475,378.2l-20.52,20.52Zm0-32.11a75.84,75.84,0,0,1,15.17,22.3l-15.17,6.24Zm-33-3.57,6.24-15.17c8.92,3.57,16.06,8.92,23.19,15.17Zm-1.79-.89L399.21,300.6A71.54,71.54,0,0,1,426,306Zm-25-20.52-20.52,20.52L368,306a65.15,65.15,0,0,1,26.76-5.35M371.56,322H343a76.1,76.1,0,0,1,22.3-15.17Zm-32.11,32.11-15.17-6.24c3.57-8.92,8.92-16.06,15.17-23.2Zm-.9,1.78L318,376.42a71.54,71.54,0,0,1,5.35-26.76Zm.9,46.39-15.17,6.24a68.23,68.23,0,0,1-5.35-26.76Zm0,1.78v28.54a75.84,75.84,0,0,1-15.17-22.3Zm33,32.11-6.24,15.17c-8.92-3.57-16.06-8.92-23.2-15.17Zm1.78.89,20.52,20.52A71.54,71.54,0,0,1,368,452.24Zm46.39,0,6.24,15.17a68.23,68.23,0,0,1-26.76,5.35Zm1.78-.89h28.54a75.84,75.84,0,0,1-22.3,15.17Zm32.11-33,15.17,6.24c-3.57,8.92-8.92,16.06-15.17,23.19Zm.89-1.79,20.52-20.51a71.54,71.54,0,0,1-5.35,26.76Zm-.89-45.49,15.17-6.24A68.41,68.41,0,0,1,475,376.42Z"/><path class="cls-2" d="M398.32,468.29c-45.49,0-69.58-25-82.07-50-43.7-89.2,82.07-284.54,82.07-284.54h0S525.87,338.06,475,424.59c-12.49,23.19-33.9,43.7-76.71,43.7Z"/><circle class="cls-2" cx="396.53" cy="137.37" r="34.79"/><circle class="cls-2" cx="396.53" cy="66.9" r="23.19"/></svg>