<svg id="Layer_1" data-name="Layer 1" xmlns="http://www.w3.org/2000/svg" viewBox="0 0 512 512"><defs><style>.cls-1{fill:#231f20;}.cls-2{fill:none;stroke:#231f20;stroke-miterlimit:10;stroke-width:2px;}</style></defs><path class="cls-1" d="M205.05,311.41h0c-12.73-12.73-29.2-20.22-47.92-20.22s-35.19,7.49-47.92,19.47h0a67.92,67.92,0,0,0-19.47,47.92c0,18.72,7.49,35.2,19.47,47.93h0A67.91,67.91,0,0,0,157.13,426c18.72,0,35.19-7.48,47.92-19.46h0a67.8,67.8,0,0,0,0-95.1Zm-2.24,67.39-16.48,6.74,9.74-24,6.74,17.22Zm-19.47,7.49-27,11.23-26.95-11.23-11.24-27,11.24-26.95,26.95-11.24,27,11.24,11.23,26.95ZM175.85,405h0l-17.22-6.74,24-9.73Zm-38.19,0h0l-7.49-16.47,24,9.73Zm-26.95-27h0l6.74-17.22,9.73,24Zm.74-38.19,16.48-6.73-9.74,24-6.74-17.23Zm43.43-19.46-24,9.73,7.49-16.47Zm28.46,9.73-24-9.73,17.22-6.74Zm3,3,16.48,6.73v.75h0l-6.74,16.48Zm-.75-2.25-6-15.73,22.47,22.47Zm-28.45-11.23-15.72-6.74H173.6Zm-28.45,11.23-15.73,6,22.47-22.46Zm-12,27.7L110,374.31V342.86ZM127.93,387l6,15.72L111.45,380.3Zm28.45,12,15.73,6.74H140.66Zm28.46-11.23,15.72-6L178.1,404.26Zm12-28.46,6.74-15.72v31.45Zm6.74-21.71-24.71-24.71h24.71Zm-64.4-26.21,17.22-17.22,17.22,17.22ZM110,337.62V312.91h24.71Zm-1.5,38.93L91.24,359.33l17.22-17.22Zm1.5,4.5,24.71,24.71H110Zm64.39,26.21-17.22,17.22-18-17.22Zm29.21-26.21v24.71H178.85Zm1.49-39.69,17.23,17.22-17.23,17.23Zm0-26.95a63.68,63.68,0,0,1,12.73,18.72l-12.73,5.24Zm-27.7-3,5.24-12.73c7.49,3,13.48,7.49,19.47,12.73Zm-1.5-.75-17.22-17.22a60.17,60.17,0,0,1,22.46,4.49Zm-21-17.22-17.22,17.22-5.24-12.73a54.8,54.8,0,0,1,22.46-4.49m-19.46,18h-24a64.14,64.14,0,0,1,18.72-12.73Zm-27,27-12.73-5.24c3-7.49,7.49-13.48,12.73-19.47Zm-.75,1.49L90.49,357.09A60.22,60.22,0,0,1,95,334.62Zm.75,38.94L95.73,384a57.37,57.37,0,0,1-4.49-22.46Zm0,1.5v24a63.88,63.88,0,0,1-12.73-18.72Zm27.7,27L130.92,420c-7.48-3-13.47-7.48-19.47-12.72Zm1.5.74,17.22,17.23a60,60,0,0,1-22.46-4.5Zm38.94,0,5.24,12.73a57.2,57.2,0,0,1-22.46,4.5Zm1.5-.74h24A63.65,63.65,0,0,1,183.34,420Zm27-27.71,12.73,5.24c-3,7.49-7.49,13.48-12.73,19.47Zm.75-1.5L223,360.83a59.94,59.94,0,0,1-4.49,22.46Zm-.75-38.19,12.73-5.24a57.25,57.25,0,0,1,4.5,22.47Z"/><path class="cls-2" d="M157.88,434.21c-38.19,0-58.41-21-68.89-41.93C52.3,317.4,157.88,153.42,157.88,153.42h0S265,324.89,222.28,397.52c-10.49,19.47-28.46,36.69-64.4,36.69Z"/><circle class="cls-2" cx="157.13" cy="156.41" r="29.2"/><circle class="cls-2" cx="157.13" cy="97.26" r="19.47"/><path class="cls-1" d="M403.48,311.41h0c-12.73-12.73-29.2-20.22-47.92-20.22s-35.19,7.49-47.92,19.47h0a67.92,67.92,0,0,0-19.47,47.92c0,18.72,7.49,35.2,19.47,47.93h0A67.91,67.91,0,0,0,355.56,426c18.72,0,35.19-7.48,47.92-19.46h0a67.8,67.8,0,0,0,0-95.1Zm-3,67.39L384,385.54l9.74-24,6.74,17.22Zm-18.72,7.49-27,11.23-27-11.23-11.23-27,11.23-26.95,27-11.24,27,11.24L393,359.33ZM374.28,405h0l-17.22-6.74,24-9.73Zm-38.19,0h0l-7.49-16.47,24,9.73Zm-27-27h0l6.74-17.22,9.74,24Zm0-38.19,16.48-6.73-9.74,23.21-6.74-16.48Zm44.18-19.46-24,9.73,7.49-16.47Zm28.46,9.73-24-9.73L375,313.66Zm3,3,16.48,6.73v.75h0l-6.74,16.48Zm-.75-2.25-6-15.73,22.47,22.47Zm-28.45-11.23-15.72-6.74h31.44Zm-28.45,11.23-15.73,6,22.46-22.46Zm-12,27.7-6.74,15.73V342.86ZM326.36,387l6,15.72L309.88,380.3Zm28.45,12,15.73,6.74h-32.2Zm28.45-11.23,15.73-6-22.46,22.46Zm12-28.46L402,343.61v31.45ZM402,337.62l-24.71-24.71H402Zm-64.39-26.21,17.22-17.22L372,311.41Zm-29.2,26.21V312.91H333.1Zm-1.5,38.93-17.22-17.22,17.22-17.22Zm1.5,4.5,24.71,24.71H308.39Zm64.39,26.21-17.22,17.22-18-17.22ZM402,381.05v24.71H377.27Zm1.5-39.69,17.22,17.22-17.22,17.23Zm0-26.95a63.68,63.68,0,0,1,12.73,18.72l-12.73,5.24Zm-27.7-3L381,298.68c7.49,3,13.48,7.49,19.47,12.73Zm-1.5-.75-17.22-17.22a60.17,60.17,0,0,1,22.46,4.49Zm-21-17.22-17.22,17.22-5.24-12.73a54.8,54.8,0,0,1,22.46-4.49m-19.47,18h-24a64,64,0,0,1,18.72-12.73Zm-26.95,27-12.73-5.24c3-7.49,7.49-13.48,12.73-19.47Zm-.75,1.49-17.22,17.23a60.22,60.22,0,0,1,4.49-22.47Zm.75,38.94L294.16,384a57.19,57.19,0,0,1-4.49-22.46Zm0,1.5v24a63.68,63.68,0,0,1-12.73-18.72Zm27.7,27L329.35,420c-7.49-3-13.48-7.48-19.47-12.72Zm1.5.74,17.22,17.23a60,60,0,0,1-22.46-4.5ZM375,408l5.24,12.73a57.24,57.24,0,0,1-22.46,4.5Zm1.5-.74h24A63.65,63.65,0,0,1,381.77,420Zm27-27.71,12.73,5.24c-3,7.49-7.49,13.48-12.73,19.47Zm.75-1.5,17.22-17.22A59.94,59.94,0,0,1,417,383.29Zm-.75-38.19,12.73-5.24a57.24,57.24,0,0,1,4.49,22.47Z"/><path class="cls-2" d="M356.31,434.21c-38.19,0-58.41-21-68.89-41.93-36.69-74.88,68.89-238.86,68.89-238.86h0s107.08,171.47,64.39,244.1c-10.48,19.47-28.45,36.69-64.39,36.69Z"/><circle class="cls-2" cx="354.81" cy="156.41" r="29.2"/><circle class="cls-2" cx="354.81" cy="97.26" r="19.47"/></svg>