<?xml version="1.0" encoding="utf-8"?>
<!-- Generator: Adobe Illustrator 26.0.1, SVG Export Plug-In . SVG Version: 6.00 Build 0)  -->
<svg version="1.1" id="Layer_1" xmlns:xodm="http://www.corel.com/coreldraw/odm/2003"
	 xmlns="http://www.w3.org/2000/svg" xmlns:xlink="http://www.w3.org/1999/xlink" x="0px" y="0px" viewBox="0 0 512 512"
	 style="enable-background:new 0 0 512 512;" xml:space="preserve">
<style type="text/css">
	.st0{fill:#FFFFFF;stroke:#000000;stroke-width:5;stroke-miterlimit:10;}
</style>
<path class="st0" d="M257.6,403.7c-3.9,0-7.6,1.3-10.8,3.8c-4,3.1-6.5,7.6-7.2,12.7c-1.5,10.6,5.2,20.6,15.3,22.3
	c4.8,0.8,9.6-0.5,13.6-3.5c4-3.1,6.5-7.6,7.2-12.7c0.8-5.1-0.5-10.2-3.2-14.5c-2.9-4.3-7.1-6.9-11.9-7.8l0,0
	C259.5,403.7,258.5,403.7,257.6,403.7z"/>
<path class="st0" d="M294.1,398.4c-3.9,0-7.6,1.3-10.8,3.8c-4,3.1-6.5,7.6-7.2,12.7c-1.5,10.6,5.2,20.6,15.3,22.3
	c4.8,0.8,9.6-0.5,13.6-3.5c4-3.1,6.5-7.6,7.2-12.7c0.8-5.1-0.5-10.2-3.2-14.5c-2.9-4.3-7.1-6.9-11.9-7.8l0,0
	C296,398.4,295.1,398.4,294.1,398.4z"/>
<path class="st0" d="M330.7,387.4c-3.9,0-7.6,1.3-10.8,3.8c-4,3.1-6.5,7.6-7.2,12.7c-1.5,10.6,5.2,20.6,15.3,22.3
	c4.8,0.8,9.6-0.5,13.6-3.5c4-3.1,6.5-7.6,7.2-12.7c0.8-5.1-0.5-10.2-3.2-14.5c-2.9-4.3-7.1-6.9-11.9-7.8l0,0
	C332.5,387.4,331.6,387.4,330.7,387.4z"/>
<path class="st0" d="M362.7,364.7c-3.9,0-7.6,1.3-10.8,3.8c-4,3.1-6.5,7.6-7.2,12.7c-1.5,10.6,5.2,20.6,15.3,22.3
	c4.8,0.8,9.6-0.5,13.6-3.5c4-3.1,6.5-7.6,7.2-12.7c0.8-5.1-0.5-10.2-3.2-14.5c-2.9-4.3-7.1-6.9-11.9-7.8l0,0
	C364.6,364.7,363.6,364.7,362.7,364.7z"/>
<path class="st0" d="M389.6,336.5c-3.9,0-7.6,1.3-10.8,3.8c-4,3.1-6.5,7.6-7.2,12.7c-1.5,10.6,5.2,20.6,15.3,22.3
	c4.8,0.8,9.6-0.5,13.6-3.5c4-3.1,6.5-7.6,7.2-12.7c0.8-5.1-0.5-10.2-3.2-14.5c-2.9-4.3-7.1-6.9-11.9-7.8l0,0
	C391.4,336.5,390.5,336.5,389.6,336.5z"/>
<path class="st0" d="M411.3,305.2c-3.9,0-7.6,1.3-10.8,3.8c-4,3.1-6.5,7.6-7.2,12.7c-1.5,10.6,5.2,20.6,15.3,22.3
	c4.8,0.8,9.6-0.5,13.6-3.5c4-3.1,6.5-7.6,7.2-12.7c0.8-5.1-0.5-10.2-3.2-14.5c-2.9-4.3-7.1-6.9-11.9-7.8l0,0
	C413.1,305.2,412.2,305.2,411.3,305.2z"/>
<path class="st0" d="M432,271.9c-3.9,0-7.6,1.3-10.8,3.8c-4,3.1-6.5,7.6-7.2,12.7c-1.5,10.6,5.2,20.6,15.3,22.3
	c4.8,0.8,9.6-0.5,13.6-3.5c4-3.1,6.5-7.6,7.2-12.7c0.8-5.1-0.5-10.2-3.2-14.5c-2.9-4.3-7.1-6.9-11.9-7.8l0,0
	C433.8,271.9,432.9,271.9,432,271.9z"/>
<path class="st0" d="M447.8,236.1c-3.9,0-7.6,1.3-10.8,3.8c-4,3.1-6.5,7.6-7.2,12.7c-1.5,10.6,5.2,20.6,15.3,22.3
	c4.8,0.8,9.6-0.5,13.6-3.5c4-3.1,6.5-7.6,7.2-12.7c0.8-5.1-0.5-10.2-3.2-14.5c-2.9-4.3-7.1-6.9-11.9-7.8l0,0
	C449.6,236.1,448.7,236.1,447.8,236.1z"/>
<path class="st0" d="M460,197.1c-3.9,0-7.6,1.3-10.8,3.8c-4,3.1-6.5,7.6-7.2,12.7c-1.5,10.6,5.2,20.6,15.3,22.3
	c4.8,0.8,9.6-0.5,13.6-3.5c4-3.1,6.5-7.6,7.2-12.7c0.8-5.1-0.5-10.2-3.2-14.5c-2.9-4.3-7.1-6.9-11.9-7.8l0,0
	C461.9,197.1,460.9,197.1,460,197.1z"/>
<path class="st0" d="M469.9,158.1c-3.9,0-7.6,1.3-10.8,3.8c-4,3.1-6.5,7.6-7.2,12.7c-1.5,10.6,5.2,20.6,15.3,22.3
	c4.8,0.8,9.6-0.5,13.6-3.5c4-3.1,6.5-7.6,7.2-12.7c0.8-5.1-0.5-10.2-3.2-14.5c-2.9-4.3-7.1-6.9-11.9-7.8l0,0
	C471.8,158.1,470.8,158.1,469.9,158.1z"/>
<path class="st0" d="M472.3,119.1c-3.9,0-7.6,1.3-10.8,3.8c-4,3.1-6.5,7.6-7.2,12.7c-1.5,10.6,5.2,20.6,15.3,22.3
	c4.8,0.8,9.6-0.5,13.6-3.5c4-3.1,6.5-7.6,7.2-12.7c0.8-5.1-0.5-10.2-3.2-14.5c-2.9-4.3-7.1-6.9-11.9-7.8l0,0
	C474.1,119.1,473.2,119.1,472.3,119.1z"/>
<path class="st0" d="M472.3,79.3c-3.9,0-7.6,1.3-10.8,3.8c-4,3.1-6.5,7.6-7.2,12.7c-1.5,10.6,5.2,20.6,15.3,22.3
	c4.8,0.8,9.6-0.5,13.6-3.5c4-3.1,6.5-7.6,7.2-12.7c0.8-5.1-0.5-10.2-3.2-14.5c-2.9-4.3-7.1-6.9-11.9-7.8l0,0
	C474.1,79.3,473.2,79.3,472.3,79.3z"/>
<path class="st0" d="M221.1,398.4c3.9,0,7.6,1.3,10.8,3.8c4,3.1,6.5,7.6,7.2,12.7c1.5,10.6-5.2,20.6-15.3,22.3
	c-4.8,0.8-9.6-0.5-13.6-3.5c-4-3.1-6.5-7.6-7.2-12.7c-0.8-5.1,0.5-10.2,3.2-14.5c2.9-4.3,7.1-6.9,11.9-7.8l0,0
	C219.3,398.4,220.2,398.4,221.1,398.4z"/>
<path class="st0" d="M184.6,387.4c3.9,0,7.6,1.3,10.8,3.8c4,3.1,6.5,7.6,7.2,12.7c1.5,10.6-5.2,20.6-15.3,22.3
	c-4.8,0.8-9.6-0.5-13.6-3.5c-4-3.1-6.5-7.6-7.2-12.7c-0.8-5.1,0.5-10.2,3.2-14.5c2.9-4.3,7.1-6.9,11.9-7.8l0,0
	C182.7,387.4,183.7,387.4,184.6,387.4z"/>
<path class="st0" d="M152.5,364.7c3.9,0,7.6,1.3,10.8,3.8c4,3.1,6.5,7.6,7.2,12.7c1.5,10.6-5.2,20.6-15.3,22.3
	c-4.8,0.8-9.6-0.5-13.6-3.5c-4-3.1-6.5-7.6-7.2-12.7c-0.8-5.1,0.5-10.2,3.2-14.5c2.9-4.3,7.1-6.9,11.9-7.8l0,0
	C150.7,364.7,151.6,364.7,152.5,364.7z"/>
<path class="st0" d="M125.7,336.5c3.9,0,7.6,1.3,10.8,3.8c4,3.1,6.5,7.6,7.2,12.7c1.5,10.6-5.2,20.6-15.3,22.3
	c-4.8,0.8-9.6-0.5-13.6-3.5c-4-3.1-6.5-7.6-7.2-12.7c-0.8-5.1,0.5-10.2,3.2-14.5c2.9-4.3,7.1-6.9,11.9-7.8l0,0
	C123.8,336.5,124.8,336.5,125.7,336.5z"/>
<path class="st0" d="M104,305.2c3.9,0,7.6,1.3,10.8,3.8c4,3.1,6.5,7.6,7.2,12.7c1.5,10.6-5.2,20.6-15.3,22.3
	c-4.8,0.8-9.6-0.5-13.6-3.5c-4-3.1-6.5-7.6-7.2-12.7c-0.8-5.1,0.5-10.2,3.2-14.5c2.9-4.3,7.1-6.9,11.9-7.8l0,0
	C102.2,305.2,103.1,305.2,104,305.2z"/>
<path class="st0" d="M83.3,271.9c3.9,0,7.6,1.3,10.8,3.8c4,3.1,6.5,7.6,7.2,12.7c1.5,10.6-5.2,20.6-15.3,22.3
	c-4.8,0.8-9.6-0.5-13.6-3.5c-4-3.1-6.5-7.6-7.2-12.7c-0.8-5.1,0.5-10.2,3.2-14.5c2.9-4.3,7.1-6.9,11.9-7.8l0,0
	C81.4,271.9,82.3,271.9,83.3,271.9z"/>
<path class="st0" d="M67.5,236.1c3.9,0,7.6,1.3,10.8,3.8c4,3.1,6.5,7.6,7.2,12.7c1.5,10.6-5.2,20.6-15.3,22.3
	c-4.8,0.8-9.6-0.5-13.6-3.5c-4-3.1-6.5-7.6-7.2-12.7c-0.8-5.1,0.5-10.2,3.2-14.5c2.9-4.3,7.1-6.9,11.9-7.8l0,0
	C65.6,236.1,66.6,236.1,67.5,236.1z"/>
<path class="st0" d="M55.2,197.1c3.9,0,7.6,1.3,10.8,3.8c4,3.1,6.5,7.6,7.2,12.7c1.5,10.6-5.2,20.6-15.3,22.3
	c-4.8,0.8-9.6-0.5-13.6-3.5c-4-3.1-6.5-7.6-7.2-12.7c-0.8-5.1,0.5-10.2,3.2-14.5c2.9-4.3,7.1-6.9,11.9-7.8l0,0
	C53.4,197.1,54.3,197.1,55.2,197.1z"/>
<path class="st0" d="M45.3,158.1c3.9,0,7.6,1.3,10.8,3.8c4,3.1,6.5,7.6,7.2,12.7c1.5,10.6-5.2,20.6-15.3,22.3
	c-4.8,0.8-9.6-0.5-13.6-3.5c-4-3.1-6.5-7.6-7.2-12.7c-0.8-5.1,0.5-10.2,3.2-14.5c2.9-4.3,7.1-6.9,11.9-7.8l0,0
	C43.5,158.1,44.4,158.1,45.3,158.1z"/>
<path class="st0" d="M43,119.1c3.9,0,7.6,1.3,10.8,3.8c4,3.1,6.5,7.6,7.2,12.7c1.5,10.6-5.2,20.6-15.3,22.3
	c-4.8,0.8-9.6-0.5-13.6-3.5c-4-3.1-6.5-7.6-7.2-12.7c-0.8-5.1,0.5-10.2,3.2-14.5c2.9-4.3,7.1-6.9,11.9-7.8l0,0
	C41.1,119.1,42.1,119.1,43,119.1z"/>
<path class="st0" d="M43,79.3c3.9,0,7.6,1.3,10.8,3.8c4,3.1,6.5,7.6,7.2,12.7c1.5,10.6-5.2,20.6-15.3,22.3
	c-4.8,0.8-9.6-0.5-13.6-3.5c-4-3.1-6.5-7.6-7.2-12.7c-0.8-5.1,0.5-10.2,3.2-14.5c2.9-4.3,7.1-6.9,11.9-7.8l0,0
	C41.1,79.3,42.1,79.3,43,79.3z"/>
</svg>
