<svg id="Layer_1" data-name="Layer 1" xmlns="http://www.w3.org/2000/svg" xmlns:xlink="http://www.w3.org/1999/xlink" viewBox="0 0 250 250"><defs><style>.cls-1{fill:#fff;}.cls-2{mask:url(#mask);}.cls-3{fill:#231f20;}</style><mask id="mask" x="24.94" y="0.25" width="200.13" height="249.5" maskUnits="userSpaceOnUse"><g id="mask0"><path class="cls-1" d="M24.94.25H225.05v249.5H24.94Z"/></g></mask></defs><g class="cls-2"><path class="cls-3" d="M167.38,235.18l18.29-32,7.45,9.66a92.54,92.54,0,0,1-25.74,22.33ZM66.11,203,85,235.23a100.93,100.93,0,0,1-26.21-22.4ZM38.89,123.19l-10.95,0a151.93,151.93,0,0,1,5.25-38l5.7,38.07Zm25.67-75.3L56.73,38A95.43,95.43,0,0,1,82.33,15.4L64.56,47.89Zm119.1.53L165.44,15.16a93.81,93.81,0,0,1,26.71,23Zm3.87,152.27,25.58-23.1A118.09,118.09,0,0,1,195,210.43ZM127,233.51l31.75,6.13a76.46,76.46,0,0,1-31.45,7.06l-.3-13.19Zm-3,0,.28,13.18a77.46,77.46,0,0,1-30.56-6.92Zm-59.78-33-7.4,9.93a120.62,120.62,0,0,1-19.08-33.22ZM38.92,126.2l-5.15,39.1A148.39,148.39,0,0,1,28,126.16l11,0ZM62.73,50.41,36.92,73.3A120.77,120.77,0,0,1,54.83,40.38l7.9,10Zm59.56-32.72L90.62,10.93a76,76,0,0,1,31.84-7.59l-.18,14.35Zm3,0,.19-14.38a74.69,74.69,0,0,1,31.76,7.59l-32,6.79Zm60.24,33.2,8.56-10.35a121.39,121.39,0,0,1,18.32,32.73Zm24.72,73,5.93-39.45A144.13,144.13,0,0,1,222,123.94l-11.8-.06Zm0,3L222,127a142.34,142.34,0,0,1-5.23,39.12ZM63.51,53.73l3.08,42.63L41.66,121.53,35.25,78.77l28.26-25Zm57.83-33.16-21,33.32L67.12,49.42,86.93,13.21l34.41,7.36ZM183.58,156.7l24-27.92L214.8,172l-28.05,25.31-3.17-40.65Zm-33.77,42.51,33.2,2.61-20.3,35.51L128,230.67l21.83-31.46Zm-48.44-.16L123,230.67l-33.13,6.87-21-35.92,32.6-2.57ZM67,156.34l-2.09,40.79-29-25.51,5.73-43.51L67,156.34ZM148.78,54,126.21,20.52,161,13.18,181,49.87Zm34.34,42.73,1.63-42.6L214,78.54l-6.56,43.61L183.12,96.77ZM67,151.85,42.68,124.76l24-24.21Zm85,44.51,28.81-36.25,3,38.76L152,196.37Zm-5.79,2.77-20.74,29.92L105,199Zm-47.06-2.92-31.32,2.47,2-38.9,29.35,36.43ZM69.34,93,66.41,52.33l31.84,4.31L69.34,93Zm34.44-39,20-31.72,21.46,31.87L103.78,54Zm47.13,2.8,30.94-4-1.56,40.52-29.38-36.5Zm32.23,44.3,23.35,24.34-23,26.77-.37-51.11ZM102.84,196,70,155.25l-.41-57.78L101.78,57l45.59.14,32.76,40.73.41,57.8-32.17,40.45L102.85,196Zm115-22.93a145.62,145.62,0,0,0,7.23-45.36v-2.45a146.83,146.83,0,0,0-8-47.73l0-.39-.12-.11a125.88,125.88,0,0,0-21.38-39.48h0l0,0,0-.17-.37-.29c-9.48-11.81-19.69-20.27-32-26.56l-.66-.37C149.75,3.4,137.63.26,124,.25h0s-.07,0-.1,0A79.08,79.08,0,0,0,85.74,10l0,0-.5.06-.15.29C73.11,16.76,63.22,25.07,54,36.5h0l-.38.48A126,126,0,0,0,32.55,76.83h0l-.24.77-.17.28,0,.18a155,155,0,0,0-7.19,46.6,151.57,151.57,0,0,0,7.85,47.55v0l.17.47A125.64,125.64,0,0,0,55.4,213.45v0l.14.15,0,.19.26.17A104.09,104.09,0,0,0,88,240.31l0,0,.19.09.23.29h.36a81,81,0,0,0,37.08,9h.36a79.62,79.62,0,0,0,37.76-9.3l.46-.07.14-.25c12.12-6.21,22.06-14.43,31.26-25.83h0l.38-.46s0,0,0-.05l0,0a122.86,122.86,0,0,0,21.27-39.84h0l.26-.82,0,0Z"/></g></svg>