<svg id="Layer_1" data-name="Layer 1" xmlns="http://www.w3.org/2000/svg" viewBox="0 0 250 250"><defs><style>.cls-1{fill:#231f20;}</style></defs><g id="mask0"><path class="cls-1" d="M248.35,0H1.67L1.21,0,.94.17l0,0L.78.33h0L.5.5.37.73C.34.78.3.79.29.83s0,0,0,.05l-.07.17s0,.05,0,.08l0,.26v.07L0,1.86.09,2V248l-.09.21H0l.06.15,0,.16.23.45.08.07.12.3.34.2.13.06.18.12.21.11H248.37a1.84,1.84,0,0,0,.66-.17h0l.05-.06.11-.09a.92.92,0,0,0,.28-.19c.07-.08.11-.19.18-.28s.05,0,.07-.08,0,0,0-.05l0-.11,0-.05.06-.35v0L250,248l-.06-.14V1.67l.06-.34-.24-.48s0,0-.06-.07a2.48,2.48,0,0,0-.19-.26l-.19-.16-.09-.07-.09-.07,0,0-.14,0h0L248.69,0h-.34ZM8.14,3.15H241.9L197.24,26.32H52.76ZM200.26,28.31l44.35-23L221.37,49.51l-21.11-21.2ZM5.42,5.29l44.32,23L28.65,49.51Zm217.93,192V52.56L246.77,8V241.89L223.35,197.3ZM3.25,8,26.68,52.54V197.32L3.25,241.89ZM74,29.48H176L125,37,74,29.48Zm62.07,9,60.24-8.83,2.45,17.58L136,38.51Zm-82.31-8.8,60.13,8.82L51.31,47.27l2.41-17.56Zm-3.56,2.65L48.05,47.72l-15.34,2.2ZM202,47.74l-2.13-15.35,17.47,17.53ZM50.86,199.36,40.25,124.92,50.86,50.53,125,40.15l74.17,10.36,10.58,74.11,0,.3-10.62,74.41L125,209.69,50.86,199.36ZM202.44,51,220,53.47l-8.59,60.26L202.45,51ZM30,53.46,47.6,51l-8.94,62.75Zm-.2,20.94L37,124.63l0,.29-7.21,50.54ZM213,125.19l-.05-.27L220.2,74.4v101L213,125.19Zm-1.64,10.9L220,196.35l-17.53,2.52,8.94-62.78ZM30,196.38l8.61-60.29,8.94,62.78ZM202,202.11l15.35-2.18-17.48,17.56ZM32.7,199.94,48,202.12l2.12,15.37L32.7,199.94Zm167.55,21.6,21.11-21.2,23.24,44.22-44.35-23Zm-171.6-21.2,21.09,21.2-44.33,23,23.24-44.22Zm107.4,11,62.66-8.75-2.44,17.57-60.22-8.83ZM51.3,202.59l62.56,8.74-60.14,8.83-2.41-17.57ZM125,212.9l50.94,7.46H74l51-7.47ZM52.75,223.53H197.24l44.66,23.18H8.14l44.64-23.18Z"/></g></svg>