<svg id="Layer_1" data-name="Layer 1" xmlns="http://www.w3.org/2000/svg" viewBox="0 0 250 250"><defs><style>.cls-1{fill:#231f20;}</style></defs><g id="mask0"><path class="cls-1" d="M124.78,1.29c-17.46.24-32.48,3.38-47.26,9.87l-.45.07-.12.18A120.32,120.32,0,0,0,38.27,37.46l-.25.25-.16.16,0,0A120.6,120.6,0,0,0,11.22,78l-.15.13,0,.29A125.91,125.91,0,0,0,1.62,125v.86a121.48,121.48,0,0,0,9.31,46.37h0l.07.18v.2l.17.22a118.6,118.6,0,0,0,27.75,40.58l.08.1.13.11a124.44,124.44,0,0,0,39.64,26l.22.23h.32a119.66,119.66,0,0,0,45.12,8.81h1.31a118.66,118.66,0,0,0,46.34-9.37l.39-.06.13-.17a116.86,116.86,0,0,0,38.93-25.8h0l.37-.35a118.63,118.63,0,0,0,27.12-40.55l.12-.32,0-.06h0a118.34,118.34,0,0,0,9.17-46.92v0a118.65,118.65,0,0,0-9.28-47.16h0l-.21-.49A118,118,0,0,0,212.66,38v0l-.41-.39A114.89,114.89,0,0,0,172.18,11l-.16-.07a115.15,115.15,0,0,0-46.3-9.62Zm1.58,3.18a111.69,111.69,0,0,1,39.28,7.27l-39.55,6.87.27-14.14ZM83.72,12.05A115,115,0,0,1,123.2,4.53l-.27,14.1L83.72,12.05Zm43.74,9.55,43.19-7.49,24.5,36.12L155,54.53,127.46,21.59ZM54.14,50.18,78.75,14.41l42.85,7.2L95.54,54.55,54.15,50.19ZM175.71,15.92a111.42,111.42,0,0,1,33.16,22.76L198.18,49.06,175.71,15.92ZM41.27,39A116.86,116.86,0,0,1,73.51,16.41L51.13,49,41.27,39Zm83.24-16,26.43,31.61-51.43,0,25-31.62Zm75.93,28.3,10.67-10.4a115.54,115.54,0,0,1,22.7,32.76ZM39,41.23,48.9,51.28,16.23,74.39A117.26,117.26,0,0,1,39,41.24Zm14,12,39.69,4.18-36.3,36.4L53.08,53.27Zm104.71,4.15,38.46-4.12L194,93.76,157.79,57.42Zm39.26,39.27,2.31-42.3,36.32,24.36-8.41,43.36L197.05,96.68Zm-182.77-17L50,54.39l3.53,42.3L21.94,122.12,14.28,79.66Zm42.49,75.39v-57L96.89,57.81l56.78,0,40.17,40.28v57l-40.12,40.24-56.77,0L56.77,155.05Zm173.46-31.58L238,83.65a115,115,0,0,1,7.24,39.84ZM12,84.81l7,38.62H4.83A122.2,122.2,0,0,1,12,84.81ZM23.3,125.07l30.29-24.36v51.45L23.3,125.07ZM197,100.8l28.92,24.32L197,152.06V100.8ZM4.83,126.58H19l-7,39.69a118.16,118.16,0,0,1-7.2-39.69Zm225.41,0,15,0a115.56,115.56,0,0,1-7.12,39.58ZM14.33,171.4l7.59-43.3,31.63,28.28-3,40.54Zm182.76-15.05,30.21-28.2,8.51,43-35.25,25.52-3.47-40.33ZM158,195.5l36.17-36.26,3.33,38.65L158,195.5ZM56.51,159.27l36.21,36.28L53.6,198.13l2.91-38.85Zm145.1,40.54,32.24-23.33a115.53,115.53,0,0,1-23,33.07ZM25.53,192.76a115.52,115.52,0,0,1-9.16-16l33.11,23.35-9.41,10a116.09,116.09,0,0,1-14.54-17.3Zm74.2,5.74,51.15,0L124.8,228.26,99.73,198.5Zm28.13,31.09,27.2-31.08,41.2,2.48-25.4,35.12-43-6.52Zm-73-28.37,40.78-2.67,26.16,31-41.44,7L54.85,201.22Zm144.53.84,9.2,9.7a113.63,113.63,0,0,1-32.36,22.34l23.15-32Zm-157,10.2,9.38-9.95L75,234.49a119.42,119.42,0,0,1-32.6-22.23Zm84.05,20.3,39.15,5.94a115.59,115.59,0,0,1-39,7l-.16-13Zm-40.76,6.33,37.6-6.31.15,12.92A116,116,0,0,1,85.64,238.89Z"/></g></svg>