<svg id="Layer_1" data-name="Layer 1" xmlns="http://www.w3.org/2000/svg" viewBox="0 0 512 512"><defs><style>.cls-1,.cls-2,.cls-4{fill:none;}.cls-1,.cls-2{stroke:#231f20;}.cls-1{stroke-width:3px;}.cls-2,.cls-4{stroke-linejoin:round;}.cls-2{stroke-width:2px;}.cls-3{fill:#231f20;fill-rule:evenodd;}.cls-4{stroke:#1a2b4c;stroke-width:0.3px;}</style></defs><path class="cls-1" d="M263,253.44V210.29c0-4.84-3.15-8.78-7-8.78s-7,3.94-7,8.78v43.13c-37,4.38-66,43.56-66,91.3,0,50.64,32.63,91.71,72.88,91.71s72.9-41.07,72.9-91.72c0-47.66-28.9-86.8-65.84-91.27Z"/><path class="cls-2" d="M8.45,78.79a5.16,5.16,0,0,0,3.38-1.33,5,5,0,0,0-1.22,3.43,5.25,5.25,0,0,0,1.65,3.6l1.47,1.34a5,5,0,0,0,7.07,0l0,0a5.08,5.08,0,0,0,.74,7l1.58,1.34a5,5,0,0,0,7-.44,5.15,5.15,0,0,0,1,7l1.6,1.26A5.3,5.3,0,0,0,36,103a5.08,5.08,0,0,0,3.84-1.79,5.15,5.15,0,0,0,1.24,7l1.68,1.22a5,5,0,0,0,7-1,5.15,5.15,0,0,0,1.47,6.89L53,116.5a5.09,5.09,0,0,0,7-1.22,5.18,5.18,0,0,0-.62,3.61,5.08,5.08,0,0,0,2.26,3.28l1.78,1.15a5.16,5.16,0,0,0,2.73.79,5,5,0,0,0,4.16-2.22A5.16,5.16,0,0,0,72,128.76l1.78,1.08a5.05,5.05,0,0,0,2.65.72,5.17,5.17,0,0,0,4.26-2.33,5.13,5.13,0,0,0,2,6.79l1.84,1a5.16,5.16,0,0,0,2.52.64,5.08,5.08,0,0,0,4.31-2.44A5.11,5.11,0,0,0,93.46,141l1.8,1a5.26,5.26,0,0,0,2.45.61,5.12,5.12,0,0,0,4.37-2.54,5.06,5.06,0,0,0,2.32,6.7l1.79.93a5.1,5.1,0,0,0,6.8-2,5,5,0,0,0,2.45,6.63l1.81.89A5.08,5.08,0,0,0,124,151a5.12,5.12,0,0,0,2.57,6.59l1.9.88a4.72,4.72,0,0,0,2.12.47,5.08,5.08,0,0,0,4.52-2.82,5.18,5.18,0,0,0,2.69,6.57l1.86.81a5.06,5.06,0,0,0,6.65-2.43,5.11,5.11,0,0,0,2.82,6.51l1.87.79a5.11,5.11,0,0,0,6.61-2.55,5.21,5.21,0,0,0,.08,3.69,5,5,0,0,0,2.82,2.77l1.88.76a5,5,0,0,0,1.94.37,5.08,5.08,0,0,0,4.64-3,5.08,5.08,0,0,0,3,6.42l1.9.73a4.73,4.73,0,0,0,1.86.35,5.09,5.09,0,0,0,4.67-3.08,5.15,5.15,0,0,0,3.07,6.36l2,.74a4.77,4.77,0,0,0,1.71.29,5.13,5.13,0,0,0,4.69-3.18,5.08,5.08,0,0,0,3.18,6.35l2,.61a5.06,5.06,0,0,0,6.43-2.91,5.16,5.16,0,0,0,3.28,6.29l1.86.63a4.77,4.77,0,0,0,1.71.29,5.13,5.13,0,0,0,4.76-3.28,5.17,5.17,0,0,0,3.32,6.25l1.93.63a4.7,4.7,0,0,0,1.62.26,5.08,5.08,0,0,0,4.77-3.36,5.09,5.09,0,0,0,3.4,6.23l2,.61a4.42,4.42,0,0,0,1.53.24,5.12,5.12,0,0,0,4.8-3.4,5.16,5.16,0,0,0,3.45,6.18l2,.59a5.1,5.1,0,0,0,1.5.23,5.17,5.17,0,0,0,1.5-10.12l-2-.6a5.19,5.19,0,0,0-6.27,3.18,5.19,5.19,0,0,0-3.39-6.15l-2-.61a5,5,0,0,0-6.32,3.09,5.14,5.14,0,0,0-3.34-6.18l-1.94-.64a5.09,5.09,0,0,0-6.37,3A5.17,5.17,0,0,0,212,180.3l-2-.68a5.14,5.14,0,0,0-6.3,2.9,5.15,5.15,0,0,0-3.24-6.21l-1.91-.68a5.17,5.17,0,0,0-6.4,2.8,5,5,0,0,0-.23-3.6,5.13,5.13,0,0,0-2.92-2.66l-1.87-.69a5.06,5.06,0,0,0-6.46,2.74,5.08,5.08,0,0,0-.18-3.58,5,5,0,0,0-2.85-2.73l-1.94-.74a5.14,5.14,0,0,0-4,.12,5,5,0,0,0-2.51,2.58,5.15,5.15,0,0,0-2.92-6.4l-1.91-.77a5.28,5.28,0,0,0-4,.05,5.11,5.11,0,0,0-2.53,2.51,5,5,0,0,0-.06-3.59,5.13,5.13,0,0,0-2.78-2.82l-1.88-.79a5.08,5.08,0,0,0-6.56,2.47,5.13,5.13,0,0,0-2.71-6.46l-1.86-.83a5.18,5.18,0,0,0-6.62,2.35,5.07,5.07,0,0,0,.08-3.62,5.21,5.21,0,0,0-2.71-2.9l-1.81-.84a5.2,5.2,0,0,0-6.67,2.23,5,5,0,0,0-2.49-6.55L120,143a5.16,5.16,0,0,0-6.72,2.11,5.19,5.19,0,0,0-2.34-6.62l-1.84-.93a5.2,5.2,0,0,0-4-.31,5.06,5.06,0,0,0-2.76,2.28,5.15,5.15,0,0,0-2.21-6.66l-1.81-1a5.12,5.12,0,0,0-4-.41,5.05,5.05,0,0,0-2.81,2.22A5.12,5.12,0,0,0,89.47,127l-1.74-1a5,5,0,0,0-6.83,1.63A5.12,5.12,0,0,0,79,121l-1.7-1a5.26,5.26,0,0,0-3.93-.63,5,5,0,0,0-2.93,2.07,5.1,5.1,0,0,0,.56-3.55,5.22,5.22,0,0,0-2.28-3.22l-1.67-1.08a5.17,5.17,0,0,0-6.93,1.29A5.13,5.13,0,0,0,58.65,108L57,106.83a5.16,5.16,0,0,0-6.9,1.07,5.15,5.15,0,0,0-1.33-6.9l-1.63-1.18a5.14,5.14,0,0,0-7,.87,5.15,5.15,0,0,0-1-6.94L37.55,92.5h0a5.16,5.16,0,0,0-3.8-1,5,5,0,0,0-3.12,1.67,5.07,5.07,0,0,0,1-3.45,5.18,5.18,0,0,0-1.81-3.49L28.26,84.9a5.18,5.18,0,0,0-7,.39,5.15,5.15,0,0,0-.45-7l-1.49-1.4a5.19,5.19,0,0,0-7,.07"/><path class="cls-2" d="M499.74,77a5.19,5.19,0,0,0-7-.06l-1.5,1.39a5.16,5.16,0,0,0-.45,7,5.18,5.18,0,0,0-7-.38l-1.52,1.31a5.11,5.11,0,0,0-1.82,3.48,5,5,0,0,0,1,3.45,5.09,5.09,0,0,0-6.95-.62h0l-1.61,1.25a5.16,5.16,0,0,0-1.05,6.94,5.14,5.14,0,0,0-6.95-.87L463.24,101a5.12,5.12,0,0,0-1.3,6.85,5.2,5.2,0,0,0-6.92-1.07L453.37,108a5.12,5.12,0,0,0-1.51,6.85,5.16,5.16,0,0,0-6.93-1.28l-1.67,1.07a5.17,5.17,0,0,0-2.28,3.23,5.25,5.25,0,0,0,.55,3.54,5,5,0,0,0-2.93-2.06,5.2,5.2,0,0,0-3.93.62l-1.7,1a5.16,5.16,0,0,0-2,6.73,5,5,0,0,0-6.83-1.64l-1.73,1a5.14,5.14,0,0,0-2.06,6.72,5.15,5.15,0,0,0-2.82-2.22,5,5,0,0,0-4,.41l-1.78,1a5.16,5.16,0,0,0-2.22,6.66,5.06,5.06,0,0,0-2.76-2.28,5.25,5.25,0,0,0-4,.31l-1.83.93a5.14,5.14,0,0,0-2.32,6.62A5.21,5.21,0,0,0,392,143l-1.8.88a5.18,5.18,0,0,0-2.63,2.94,5,5,0,0,0,.15,3.62,5.2,5.2,0,0,0-6.67-2.23l-1.81.83a5.19,5.19,0,0,0-2.7,2.9,5,5,0,0,0,.06,3.62,5.17,5.17,0,0,0-6.62-2.35l-1.86.83a5.14,5.14,0,0,0-2.71,6.46,5.1,5.1,0,0,0-6.56-2.48l-1.89.78a5.06,5.06,0,0,0-2.84,6.41,5.13,5.13,0,0,0-2.52-2.51,5.28,5.28,0,0,0-4,0l-1.91.77a5.15,5.15,0,0,0-2.91,6.41,5,5,0,0,0-2.53-2.58,5.14,5.14,0,0,0-4-.13l-1.93.74a5,5,0,0,0-3,6.31,5.19,5.19,0,0,0-2.52-2.6,5.13,5.13,0,0,0-3.94-.13l-1.88.68a5.2,5.2,0,0,0-2.92,2.66,5.09,5.09,0,0,0-.22,3.6,5.15,5.15,0,0,0-6.41-2.79l-1.91.67a5.16,5.16,0,0,0-3.23,6.21,5.15,5.15,0,0,0-6.31-2.89l-2,.68a5.13,5.13,0,0,0-3.24,6.22,5.1,5.1,0,0,0-6.37-3l-1.93.64a5.14,5.14,0,0,0-3.34,6.18,5.2,5.2,0,0,0-2.41-2.77,5,5,0,0,0-3.93-.31l-2,.62A5.15,5.15,0,0,0,273.4,194a5.2,5.2,0,0,0-6.27-3.17l-2,.6a5.17,5.17,0,1,0,3,9.88l2-.59a5.15,5.15,0,0,0,3.46-6.18,5.13,5.13,0,0,0,4.79,3.41,5.05,5.05,0,0,0,1.54-.24l1.95-.61a5.12,5.12,0,0,0,3-2.55,5.23,5.23,0,0,0,.37-3.69A5.08,5.08,0,0,0,290,194.2a5,5,0,0,0,1.63-.27l1.94-.62a5.13,5.13,0,0,0,3.3-6.26,5.18,5.18,0,0,0,4.76,3.3,4.6,4.6,0,0,0,1.72-.31l1.86-.62a5.18,5.18,0,0,0,3.29-6.3,5.14,5.14,0,0,0,4.69,3.21A5,5,0,0,0,315,186l1.92-.68a5,5,0,0,0,3.22-6.34,5.13,5.13,0,0,0,4.69,3.17,4.77,4.77,0,0,0,1.71-.29l2-.72a5.17,5.17,0,0,0,3.08-6.38,5.14,5.14,0,0,0,4.67,3.1,4.94,4.94,0,0,0,1.86-.37l1.89-.72a5.08,5.08,0,0,0,2.87-2.72,5.14,5.14,0,0,0,.15-3.7,5.07,5.07,0,0,0,4.63,3,5,5,0,0,0,1.94-.37l1.88-.75a5.08,5.08,0,0,0,2.91-6.46,5.09,5.09,0,0,0,6.6,2.54l1.88-.78a5.13,5.13,0,0,0,2.78-2.82,5,5,0,0,0,0-3.69,5.08,5.08,0,0,0,4.55,2.87,5.24,5.24,0,0,0,2.1-.44l1.86-.82a5.14,5.14,0,0,0,2.69-6.57,5.1,5.1,0,0,0,6.65,2.36l1.89-.88A5.14,5.14,0,0,0,388,151a5.12,5.12,0,0,0,4.46,2.71,4.91,4.91,0,0,0,2.28-.54l1.82-.89a5.07,5.07,0,0,0,2.46-6.63,5.07,5.07,0,0,0,6.78,2l1.8-.93a5.09,5.09,0,0,0,2.57-3,5.2,5.2,0,0,0-.25-3.7,5,5,0,0,0,6.8,1.94h0l1.8-1a5.13,5.13,0,0,0,2.16-6.77,5.11,5.11,0,0,0,4.31,2.45,4.9,4.9,0,0,0,2.51-.65l1.84-1a5.22,5.22,0,0,0,2-6.81,5.12,5.12,0,0,0,4.24,2.34,5.25,5.25,0,0,0,2.65-.72l1.79-1.09a5.15,5.15,0,0,0,1.8-6.83,5.06,5.06,0,0,0,6.9,1.42l1.78-1.14a5.06,5.06,0,0,0,1.63-6.9,5,5,0,0,0,7,1.22l1.72-1.18a5.15,5.15,0,0,0,1.47-6.89,5,5,0,0,0,3.92,1.93,5.14,5.14,0,0,0,3-1l1.66-1.22a5.15,5.15,0,0,0,1.26-7A5.06,5.06,0,0,0,476,103a5.28,5.28,0,0,0,3.19-1.09l1.62-1.27a5.14,5.14,0,0,0,1-7,5.06,5.06,0,0,0,3.7,1.65,5.15,5.15,0,0,0,3.31-1.21l1.59-1.34a5.19,5.19,0,0,0,1.81-3.55,5.09,5.09,0,0,0-1.08-3.48,5.14,5.14,0,0,0,3.57,1.49,5,5,0,0,0,3.53-1.42l1.47-1.34a5.06,5.06,0,0,0,.44-7,5.11,5.11,0,0,0,3.38,1.33"/><path class="cls-3" d="M256,194.3a5.13,5.13,0,0,0-5.55,3.54,5,5,0,0,0,.39,3.92,5.13,5.13,0,0,0,1.42,1.65,4.72,4.72,0,0,0,1.35.71c.1,0,.18.12.3.17l1,.31h.1c.21,0,.36.19.57.19h.78c.14,0,.36-.15.57-.18h.1l1-.31c.11,0,.2-.13.3-.17a4.4,4.4,0,0,0,1.35-.72,5.08,5.08,0,0,0-3.72-9.1"/><path class="cls-4" d="M256,194.3a5.13,5.13,0,0,0-5.55,3.54,5,5,0,0,0,.39,3.92,5.13,5.13,0,0,0,1.42,1.65,4.72,4.72,0,0,0,1.35.71c.1,0,.18.12.3.17l1,.31h.1c.21,0,.36.19.57.19h.78c.14,0,.36-.15.57-.18h.1l1-.31c.11,0,.2-.13.3-.17a4.4,4.4,0,0,0,1.35-.72,5.08,5.08,0,0,0-3.72-9.1Z"/><path class="cls-1" d="M192.26,343.67c0-45.86,28.5-83.05,63.65-83.05s63.66,37.19,63.66,83.05-28.5,83-63.67,83-63.64-37.19-63.64-83Z"/><path class="cls-1" d="M211.37,403l6.25-9.24M255.19,272l-14.83,24.52L219,324.17l-18,18.59,18.38,20.95L241,392.37l15,22.73-23.57,5.53-14.71-26.88-20.56-18.39,4-32.6-4-30.8,19.76-19,14.34-25.81Zm-44.34,13,6,7.93Zm-18.58,57.64,8.76.11Z"/><path class="cls-1" d="M256.24,272l14.84,24.52,21.35,27.66,18,18.59L292,363.71l-21.55,28.66-15,22.73L279,420.63l14.72-26.88,20.56-18.39-4-32.6,4-30.8-19.77-19-14.33-25.81Z"/><path class="cls-1" d="M255.8,415.1v11.61m-.28-34.54,15,.2,23.33,1.37-1.78-30,.4-39.55L294.64,293l-23.52,3.56-14.62-.2H255l-14.62.2L216.87,293,219,324.16l.4,39.55-1.78,30L241,392.34l14.95-.2ZM300.58,285l-6,7.93Zm18.59,57.64-8.76.11ZM300,403l-6.25-9.24ZM255.8,260.92Z"/></svg>