<svg id="Layer_1" data-name="Layer 1" xmlns="http://www.w3.org/2000/svg" viewBox="0 0 512 512"><defs><style>.cls-1{fill:#fff;}.cls-1,.cls-2,.cls-3{stroke:#231f20;stroke-miterlimit:10;}.cls-1,.cls-3{stroke-width:3px;}.cls-2{fill:#231f20;}.cls-3{fill:#595959;}</style></defs><ellipse class="cls-1" cx="112.57" cy="207.65" rx="24.98" ry="26.26"/><ellipse class="cls-1" cx="158.28" cy="201.87" rx="27.7" ry="24.6"/><ellipse class="cls-1" cx="205.96" cy="199.82" rx="27.7" ry="24.6"/><ellipse class="cls-1" cx="258.34" cy="197.7" rx="27.7" ry="24.6"/><ellipse class="cls-1" cx="312.55" cy="198" rx="27.7" ry="24.6"/><ellipse class="cls-1" cx="360.21" cy="203.25" rx="27.7" ry="24.6"/><ellipse class="cls-1" cx="404.67" cy="207.65" rx="27.7" ry="24.6"/><ellipse class="cls-1" cx="442.84" cy="219.71" rx="23.61" ry="25.06"/><ellipse class="cls-1" cx="470.35" cy="232.26" rx="23.61" ry="25.06"/><ellipse class="cls-1" cx="72.51" cy="220.47" rx="24.98" ry="26.26"/><ellipse class="cls-1" cx="45.89" cy="236.72" rx="24.98" ry="26.26"/><path class="cls-2" d="M119.86,225.94a15.6,15.6,0,0,0,10.33-6.38A19.32,19.32,0,0,0,133.83,208a13.16,13.16,0,0,0-4.55-10.32,22.33,22.33,0,0,1,.3,10,23.39,23.39,0,0,1-3.64,8.5,17.7,17.7,0,0,1-7,5.47,60.87,60.87,0,0,1-10,2.43A17.19,17.19,0,0,0,119.86,225.94Z"/><path class="cls-2" d="M155.7,222a16.93,16.93,0,0,0,12.75-1.21,20.67,20.67,0,0,0,8.51-9.11,12.6,12.6,0,0,0-.31-11.85,19.39,19.39,0,0,1-4.86,8.81,23,23,0,0,1-6.68,5.46,18.94,18.94,0,0,1-8.2,1.83,61.21,61.21,0,0,1-10.32-1.52A15.75,15.75,0,0,0,155.7,222Z"/><path class="cls-2" d="M82.51,206.5A25.56,25.56,0,0,1,88,215a23.67,23.67,0,0,1,1.21,9.11,16.3,16.3,0,0,1-3.34,8.2,41.51,41.51,0,0,1-7.29,7.28,19.3,19.3,0,0,0,10.63-4.25A16.91,16.91,0,0,0,95,224.72a19.27,19.27,0,0,0-2.73-11.54A14.43,14.43,0,0,0,82.51,206.5Z"/><path class="cls-2" d="M255.91,219.26c-4.86-.61-8.8-3-8.8-5.77,0-3.34,5.16-5.77,11.54-5.77s11.54,2.73,11.54,5.77c0,2.73-3.65,4.86-8.81,5.77,8.2-.61,14.27-4.25,14.27-8.51,0-4.85-7.59-8.8-17.31-8.8-9.41,0-17.31,4-17.31,8.8C241.64,215,248,218.35,255.91,219.26Z"/><path class="cls-2" d="M197.61,218.35a4.88,4.88,0,0,1-1.22-2.13c-.91-3.64,3.65-7.9,10.33-9.72,6.68-1.52,12.75,0,13.66,3.95a4.26,4.26,0,0,1-.3,2.73,7.17,7.17,0,0,0,2.73-6.68c-1.21-4.55-8.81-7-17.31-4.86s-14.27,7.29-13.06,12.15A7.78,7.78,0,0,0,197.61,218.35Z"/><path class="cls-2" d="M385.59,208.32a19.3,19.3,0,0,0,3.64,11.54,16.83,16.83,0,0,0,21.56,4.56,59.88,59.88,0,0,1-10-2.43,17.51,17.51,0,0,1-7-5.47,21.2,21.2,0,0,1-3.65-8.5,18.66,18.66,0,0,1,.31-10A12.52,12.52,0,0,0,385.59,208.32Z"/><path class="cls-2" d="M342.77,211.67a16.69,16.69,0,0,0,8.5,9.11A17,17,0,0,0,364,222a15.52,15.52,0,0,0,9.11-7.29,103.75,103.75,0,0,1-10.33,1.52,19.1,19.1,0,0,1-8.2-1.82,23.88,23.88,0,0,1-6.68-5.47,22.62,22.62,0,0,1-4.86-8.8A12,12,0,0,0,342.77,211.67Z"/><path class="cls-2" d="M427.8,213.18a19.13,19.13,0,0,0-2.73,11.54,16.13,16.13,0,0,0,5.77,10.63,19.27,19.27,0,0,0,10.62,4.25,41.12,41.12,0,0,1-7.28-7.28,16.21,16.21,0,0,1-3.34-8.2,19,19,0,0,1,1.21-9.11,17.17,17.17,0,0,1,5.47-8.51A12.2,12.2,0,0,0,427.8,213.18Z"/><path class="cls-2" d="M299,210.45c.91-3.64,7-5.47,13.66-3.95s11.24,5.77,10.33,9.72a5,5,0,0,1-1.22,2.13,6.73,6.73,0,0,0,4.86-4.56c1.22-4.55-4.86-10-13.06-12.15-8.5-2.12-16.09.31-17.31,4.86a7.18,7.18,0,0,0,2.74,6.68Z"/><path class="cls-3" d="M23.29,259.34a8.55,8.55,0,0,0-.3,2.74l1.52-3.65Z"/><path class="cls-3" d="M493.7,258.43l1.52,3.65c0-.91-.31-1.83-.31-2.74Z"/><path class="cls-3" d="M21.93,259.34a8.29,8.29,0,0,0-.31,2.74l1.52-3.65Z"/><path class="cls-3" d="M492.34,258.43l1.51,3.65c0-.91-.3-1.83-.3-2.74Z"/><ellipse class="cls-1" cx="63.32" cy="287.58" rx="17.43" ry="26.26"/><ellipse class="cls-1" cx="101.88" cy="297.16" rx="21.89" ry="28.54"/><ellipse class="cls-1" cx="147.8" cy="302.77" rx="25.21" ry="28.54"/><ellipse class="cls-1" cx="201.4" cy="306.66" rx="27.48" ry="28.54"/><circle class="cls-1" cx="258.4" cy="310.36" r="28.54"/><circle class="cls-1" cx="316.04" cy="308.84" r="28.54"/><ellipse class="cls-1" cx="370.61" cy="303.68" rx="25.11" ry="28.54"/><ellipse class="cls-1" cx="417.13" cy="297" rx="22.51" ry="28.54"/><ellipse class="cls-1" cx="455.59" cy="286.16" rx="18.06" ry="25.72"/><ellipse class="cls-1" cx="482.79" cy="269.97" rx="12.43" ry="25.72"/><ellipse class="cls-1" cx="498.91" cy="255.16" rx="7.64" ry="25.72"/><ellipse class="cls-1" cx="35.55" cy="269.67" rx="12.57" ry="26.26"/><ellipse class="cls-1" cx="15.11" cy="255.09" rx="9.66" ry="26.26"/></svg>