<svg id="Layer_1" data-name="Layer 1" xmlns="http://www.w3.org/2000/svg" viewBox="0 0 512 512"><defs><style>.cls-1{fill:#231f20;}.cls-2,.cls-3{fill:none;stroke:#231f20;stroke-width:3px;}.cls-2{fill-rule:evenodd;}</style></defs><g id="layer1"><path id="path3782" class="cls-1" d="M152.07,268.26a32.41,32.41,0,1,0,32.41,32.41A32.12,32.12,0,0,0,152.07,268.26Zm-.4.81-8.1,10.33-3.24-8.1A31.32,31.32,0,0,1,151.67,269.07Zm1.21,0a32.65,32.65,0,0,1,10.74,2l-3,7.5Zm-.6.4L160,279.2l-8.5,3.64-7.3-3Zm12.15,2a31.63,31.63,0,0,1,10.13,6.68l-13.17.61Zm-24.71,0,3.24,7.9L130,278A35.36,35.36,0,0,1,139.72,271.5Zm-9.93,7.29,13.37,1.42-3.44,7.69L131,291.75Zm-.81.2,1.42,12.56-7.49-3A36.41,36.41,0,0,1,129,279Zm45.78,0-1.42,13-8.51-3.45L161,279.8Zm.61.21a31.45,31.45,0,0,1,6.07,9.52l-7.49,3Zm-15,.81,3.44,7.9-11.14-4.46Zm-16.41.81,6.48,2.63-9.52,4.05Zm7.7,3,12.56,5.27,5.06,11.75-5.06,11.75-12.76,5.06-11.14-5.06-5.07-11.75,5.27-12.56Zm-12.15,5.27-4.66,10.94-3.24-7.5Zm-16.82.2,7.5,3-9.72,7.9A33.06,33.06,0,0,1,122.7,289.32Zm42.54.21,7.7,3-3.24,7.3Zm16.41,0a32.8,32.8,0,0,1,2,10.93l-9.52-7.9Zm-50.84,3.24,3.44,8.1L131,308.56l-9.72-7.89Zm42.73.2,9.52,7.9-9.52,7.9-3.44-8.1Zm-52.86,8.51,9.72,7.69-7.49,3A26.74,26.74,0,0,1,120.68,301.48Zm63,0a32.76,32.76,0,0,1-2.23,10.93l-7.09-3Zm-14,.4,3,7.29-7.69,3Zm-34.84.2,4.25,10.13L131.82,309Zm-3.24,7.7,8.1,3.65,3.44,7.9-12.56,1.41Zm41.72,0,1,12.76-13.36-.4,3.84-8.92Zm-42.74.2-1,13a32.16,32.16,0,0,1-6.68-9.73Zm43.55.21,7.09,2.83a29.13,29.13,0,0,1-6.28,9.32Zm-10.53,3.44-3.44,8.1-7.7-3.44Zm-22.89.2,9.72,4.46-6.68,2.63Zm10.74,4.86,8.5,3.85-7.09,9.12-8.71-10.13Zm-8.71,3.45-3,7.49a27.72,27.72,0,0,1-9.12-6.08Zm.81.2,8.5,9.72a32.62,32.62,0,0,1-11.74-2.23Zm17.62.61,12.76.4a33.78,33.78,0,0,1-9.93,6.48Zm-.81.2,2.83,6.88a31.8,31.8,0,0,1-9.92,2Z"/></g><g id="layer1-2" data-name="layer1"><path id="path3782-2" data-name="path3782" class="cls-1" d="M346.52,180.1a32.41,32.41,0,1,0,32.41,32.4A32.12,32.12,0,0,0,346.52,180.1Zm-.4.81L338,191.24l-3.24-8.1A31.32,31.32,0,0,1,346.12,180.91Zm1.21,0a32.65,32.65,0,0,1,10.74,2l-3,7.5Zm-.6.4,7.69,9.72-8.5,3.65-7.29-3Zm12.15,2A31.63,31.63,0,0,1,369,190l-13.17.61Zm-24.71,0,3.24,7.9-13-1.42A35.36,35.36,0,0,1,334.17,183.34Zm-9.93,7.29,13.37,1.42-3.44,7.69-8.71,3.85Zm-.81.2,1.42,12.56-7.49-3A36.41,36.41,0,0,1,323.43,190.83Zm45.78,0-1.42,13-8.51-3.45-3.84-8.71Zm.61.2a31.7,31.7,0,0,1,6.07,9.52l-7.49,3Zm-15,.81,3.44,7.9-11.14-4.45Zm-16.41.82,6.48,2.63-9.52,4.05Zm7.7,3L358.68,201l5.06,11.75-5.06,11.74-12.76,5.07-11.14-5.07-5.07-11.74L335,200.15ZM334,201l-4.66,10.94-3.24-7.5Zm-16.81.2,7.49,3-9.72,7.9A32.82,32.82,0,0,1,317.16,201.16Zm42.53.2,7.7,3-3.24,7.29Zm16.41,0a32.91,32.91,0,0,1,2,10.94l-9.52-7.9Zm-50.84,3.25,3.44,8.1-3.24,7.69-9.72-7.9Zm42.73.2,9.52,7.9-9.52,7.9-3.44-8.11Zm-52.86,8.5,9.72,7.7-7.49,3A26.76,26.76,0,0,1,315.13,213.31Zm63,0a32.77,32.77,0,0,1-2.23,10.94l-7.09-3Zm-14,.41,3,7.29-7.69,3Zm-34.84.2,4.25,10.13-7.29-3.24Zm-3.24,7.7,8.1,3.65,3.44,7.89-12.56,1.42Zm41.72,0,1,12.76L355.44,234l3.84-8.91Zm-42.74.2-1,13a32,32,0,0,1-6.68-9.72Zm43.55.2,7.09,2.84a29.13,29.13,0,0,1-6.28,9.32Zm-10.53,3.45-3.44,8.1-7.7-3.44Zm-22.89.2,9.72,4.46-6.68,2.63Zm10.74,4.86,8.5,3.85-7.09,9.11-8.7-10.12ZM337.21,234l-3,7.5a27.72,27.72,0,0,1-9.12-6.08Zm.81.21,8.5,9.72a32.62,32.62,0,0,1-11.74-2.23Zm17.62.6,12.76.41a33.78,33.78,0,0,1-9.93,6.48Zm-.81.21,2.83,6.88a31.8,31.8,0,0,1-9.92,2Z"/></g><path class="cls-2" d="M471.07,246.9H40.9a34.4,34.4,0,0,1,0-68.79H471.07a34.4,34.4,0,0,1,0,68.79"/><path class="cls-3" d="M471.07,246.9H40.9a34.4,34.4,0,0,1,0-68.79H471.07a34.4,34.4,0,0,1,0,68.79Z"/><path class="cls-2" d="M471.07,333.89H40.9a34.4,34.4,0,0,1,0-68.8H471.09a34.4,34.4,0,0,1,0,68.79"/><path class="cls-3" d="M471.07,333.89H40.9a34.4,34.4,0,0,1,0-68.8H471.09a34.4,34.4,0,0,1,0,68.79Z"/><path class="cls-2" d="M314.12,212.5a32.41,32.41,0,1,1,32.41,32.41,32.41,32.41,0,0,1-32.41-32.41"/><path class="cls-3" d="M314.12,212.5a32.41,32.41,0,1,1,32.41,32.41,32.41,32.41,0,0,1-32.41-32.41Z"/><path class="cls-2" d="M119.67,299.49a32.41,32.41,0,1,1,32.41,32.41,32.41,32.41,0,0,1-32.41-32.41"/><path class="cls-3" d="M119.67,299.49a32.41,32.41,0,1,1,32.41,32.41,32.41,32.41,0,0,1-32.41-32.41Z"/></svg>