<svg id="Layer_1" data-name="Layer 1" xmlns="http://www.w3.org/2000/svg" viewBox="0 0 512 250"><defs><style>.cls-1{fill:#231f20;}</style></defs><path class="cls-1" d="M258.32,198.84h-.74l.34-17,.74,0Z"/><path class="cls-1" d="M259,199.61l-2.23,0,.36-18.53,2.24.07Z"/><path class="cls-1" d="M257.94,199.59h-.15l-28.39-5.77-24.12-16.31v-.13l-16.06-24.17-5.53-28.55v-.15l5.79-28.38L205.75,72h.13L230,56l28.58-5.53h.13l28.38,5.77,24.19,16.18v.13l16,24.14,5.56,28.58v.15l-5.77,28.42L310.79,178h-.13l-24.15,16ZM230,192.39l27.94,5.69,28-5.43,23.78-15.74,15.95-23.55,5.71-27.93-5.45-28L310.21,73.64l-23.63-16.1-28-5.7-28,5.45L206.83,73,190.89,96.72l-5.69,27.94,5.43,28,15.74,23.78Z"/><path class="cls-1" d="M257.94,200.36h-.3L229,194.46,204.66,178,188.5,153.36l-5.58-28.72v-.15l5.92-28.79,16.5-24.32L229.89,55.2l28.73-5.58h.15l28.79,5.92L311.87,72l16.19,24.55,5.57,28.73v.15l-5.91,28.79-16.4,24.38L286.77,194.8Zm-27.53-8.67,27.68,5.62L285.77,192l23.42-15.57L325,153l5.64-27.68L325.22,97.6,309.66,74.17,286.24,58.4l-27.68-5.63-27.69,5.37L207.45,73.7l-15.8,23.43L186,124.81l5.39,27.68L207,175.91Z"/><path class="cls-1" d="M298.84,165.54h-81.1V84.44h81.1Zm-80.38-.72H298.1V85.22H218.46Z"/><path class="cls-1" d="M299.59,166.31H217V83.69h82.6ZM219.23,164h78.12V85.93H219.23Z"/><path class="cls-1" d="M258.28,182.34,200.94,125l57.34-57.36L315.58,125ZM202,125l56.3,56.3L314.6,125,258.28,68.68Z"/><path class="cls-1" d="M258.28,183.41l-.53-.54L199.87,125l.53-.53,57.88-57.88.53.51L316.69,125l-.52.53ZM203,125l55.24,55.23L313.45,125,258.28,69.77Z"/><path class="cls-1" d="M286.41,193.82l-28.13-11.61-28.77,11.33-11.71-28.1-28.34-12.31L201,125,189.71,96.21l28.11-11.69,12.33-28.36,28.13,11.6,28.79-11.32,11.69,28.1,28.36,12.31L315.58,125l11.35,28.77L298.8,165.46Zm-28.13-12.41L286,192.84l12.16-28h.15l27.64-11.52L314.71,125l11.45-27.68-28-12.16V85L286.73,57.44l-28.39,11.2L230.66,57.18l-12.16,28h-.12L190.69,96.62,201.87,125l-11.43,27.68,28,12.16V165l11.45,27.68Z"/><path class="cls-1" d="M286.81,194.8,258.28,183l-29.17,11.5-11.86-28.38-28.77-12.61L200.25,125,188.76,95.87,217.25,84l12.5-28.77L258.3,67l29.17-11.61,11.86,28.52L328.1,96.42,316.32,125l11.5,29.19-28.51,12ZM258.3,180.62l.28.13,27.06,11.15,12-27.57.25-.13L324.93,153l-11-28,.12-.3,11.16-27.06-27.57-12-.11-.3-11.26-27-28,11-.19-.13L231,58.1,219,85.78h-.28L191.72,97l11,28v.3l-11.34,27.06,27.68,12,11.35,27.36Z"/><path class="cls-1" d="M217.82,85.08,206.05,72.79l.53-.51,11.77,12.28Z"/><path class="cls-1" d="M217.8,86.14,205,72.77l1.62-1.56,12.82,13.35Z"/><path class="cls-1" d="M258.66,68.17h-.74l.34-17H259Z"/><path class="cls-1" d="M259.39,68.94l-2.24,0,.36-18.5,2.24,0Z"/><path class="cls-1" d="M298.71,85.08l-.51-.54,12.29-11.79.51.55Z"/><path class="cls-1" d="M297.14,84.5l13.37-12.82,1.55,1.61L298.69,86.12Z"/><path class="cls-1" d="M332.12,125.7l-17-.34v-.74l17,.36Z"/><path class="cls-1" d="M332.85,126.47l-18.51-.36.05-2.26,18.5.38Z"/><path class="cls-1" d="M310,177.72l-11.8-12.28.54-.52,11.79,12.27Z"/><path class="cls-1" d="M310,178.79l-12.84-13.38,1.62-1.55,12.82,13.35Z"/><path class="cls-1" d="M206.09,177.23l-.51-.53,12.26-11.78.51.54Z"/><path class="cls-1" d="M204.5,176.67l13.35-12.81,1.55,1.61-13.35,12.81Z"/><path class="cls-1" d="M201.45,125.36l-17-.34,0-.74,17,.34Z"/><path class="cls-1" d="M202.17,126.13l-18.5-.36,0-2.24,18.52.36Z"/><path class="cls-1" d="M258.28,210C210.71,210,172,171.84,172,125s38.71-85,86.28-85,86.28,38.11,86.28,85-38.71,85-86.28,85m0-164.81c-44.72,0-81.11,35.8-81.11,79.83s36.41,79.83,81.13,79.83S339.43,169,339.43,125,303,45.17,258.3,45.17"/><path class="cls-1" d="M403.28,179.06h-.53l.24-12.45h.55Z"/><path class="cls-1" d="M403.82,179.64l-1.64,0,.27-13.57,1.64,0Z"/><path class="cls-1" d="M403,179.62h-.13l-20.76-4.26-17.67-11.93-11.72-17.69-4-20.91L353,104.05l11.9-17.65,17.67-11.69,21-4.39,20.78,4.26L442,86.5l11.69,17.68,4.07,20.93-4.26,20.76-11.92,17.67-17.7,11.69Zm-20.46-5.28L403,178.59l20.5-4,17.42-11.52,11.67-17.31,4.26-20.46-4-20.48L441.21,87.35,424,75.64l-20.44-4.26-20.51,4L365.6,86.86l-11.69,17.53-4.16,20.46,4,20.51,11.55,17.41Z"/><path class="cls-1" d="M403,180.17h-.22l-21-4.26L364,163.84l-11.84-18-4.07-21v-.23l4.26-21.06,12.2-17.82,18-11.84,21-4.09,21.08,4.26,17.82,12.05,11.84,18,4.07,21-4.26,21.08L442.06,164l-18,11.86Zm-20.23-6.39L403,177.91,423.3,174l17.23-11.41,11.56-17,4.13-20.25L452.28,105,440.87,87.78l-17-11.58L403.6,72.09,383.31,76,366,87.35l-11.56,17.14-4.13,20.23,3.94,20.3,11.41,17.22Z"/><path class="cls-1" d="M433,154.68H373.56V95.32H433Zm-58.84-.53h58.3V95.87h-58.3Z"/><path class="cls-1" d="M433.5,155.24H373.07V94.76h60.47Zm-58.83-1.64h57.19V96.4H374.67Z"/><path class="cls-1" d="M403.26,167l-42-42,42-41.9,42,41.9ZM362,125l41.22,41.14,41.23-41.23L403.26,83.78Z"/><path class="cls-1" d="M403.26,167.76l-.38-.39L360.49,125l.4-.4,42.37-42.38.39.41L446,125l-.38.38ZM362.81,125l40.45,40.46L443.72,125,403.26,84.54Z"/><path class="cls-1" d="M423.88,175.4l-20.62-8.52-21.08,8.29-8.51-20.57-20.76-9L361.42,125l-8.3-21.08,20.57-8.52,9-20.8,20.61,8.52,21.06-8.31,8.52,20.59,20.82,9L445.15,125l8.32,21.06-20.59,8.52Zm-20.62-9.09,20.32,8.35,8.9-20.49,20.2-8.41L444.49,125l8.39-20.31-20.4-8.82v-.11l-8.41-20.18-20.76,8.18L383,75.39l-8.94,20.48h-.11l-20.18,8.39L362,125l-8.38,20.32,20.48,8.9,8.39,20.18Z"/><path class="cls-1" d="M424.17,176.1l-20.89-8.62L382,176l-8.66-20.87L352.27,146l8.51-20.88-8.41-21.3,20.87-8.66,9.16-21.06,20.88,8.51,21.3-8.41L433.27,95l21.05,9.16-8.62,20.89,8.52,21.29-20.87,8.69Zm-20.89-10.39h.22l19.8,8.18,8.77-20.19h.22l19.8-8.24L444,125v-.21L452.17,105,432,96.19V96l-8.24-19.8-20.47,8.07h-.21l-19.82-8.16L374.48,96.3h-.2l-19.8,8.22L362.55,125v.21L354.37,145l20.19,8.77,8.33,20Z"/><path class="cls-1" d="M373.64,95.76l-8.62-9,.38-.38,8.63,9Z"/><path class="cls-1" d="M364.25,86.79l1.18-1.14,9.4,9.79-1.19,1.13Z"/><path class="cls-1" d="M403.54,83.39l-.55,0,.25-12.43h.56Z"/><path class="cls-1" d="M404.07,84l-1.64,0,.28-13.55,1.62,0Z"/><path class="cls-1" d="M432.86,95.76l-.36-.38,9-8.62.39.38Z"/><path class="cls-1" d="M432.86,96.55l-1.15-1.19,9.8-9.39,1.12,1.19Z"/><path class="cls-1" d="M457.33,125.51l-12.46-.23v-.56l12.46.26Z"/><path class="cls-1" d="M457.86,126.09l-13.56-.28,0-1.64,13.54.28Z"/><path class="cls-1" d="M441.12,163.58l-8.64-9,.4-.36,8.63,9Z"/><path class="cls-1" d="M441.1,164.37l-9.39-9.79,1.19-1.13,9.37,9.77Z"/><path class="cls-1" d="M365,163.24l-.36-.38,9-8.65.39.39Z"/><path class="cls-1" d="M363.9,162.82l9.78-9.4,1.14,1.19L365,164Z"/><path class="cls-1" d="M361.66,125.28,349.18,125l0-.55,12.46.25Z"/><path class="cls-1" d="M362.19,125.83l-13.56-.28,0-1.64,13.56.28Z"/><path class="cls-1" d="M403.26,187.9A62.92,62.92,0,1,1,467.14,125a62.92,62.92,0,0,1-63.88,62.9m0-120.65A57.75,57.75,0,1,0,462,125a57.75,57.75,0,0,0-58.71-57.75"/><path class="cls-1" d="M113.17,179.06h-.56l.26-12.45h.53Z"/><path class="cls-1" d="M113.7,179.64l-1.64,0,.28-13.57,1.61,0Z"/><path class="cls-1" d="M112.89,179.62h-.11L92,175.36,74.35,163.43,62.64,145.74l-4.07-20.91,4.26-20.78L74.75,86.4l17.7-11.69,21-4.39,20.78,4.26L151.86,86.5l11.83,17.89,4.05,20.93-4.26,20.76L151.62,163.8l-17.69,11.69Zm-20.46-5.28,20.46,4.25,20.48-4,17.42-11.52,11.69-17.39,4.26-20.47-4-20.48-11.63-17.4L133.84,75.64l-20.46-4.26-20.51,4L75.48,86.86,63.79,104.39l-4.26,20.46,4,20.51L75,162.77Z"/><path class="cls-1" d="M112.87,180.17h-.22l-21-4.26L73.88,163.84,62,145.87l-4.11-21.13v-.12l4.26-21.06L74.26,85.74l18-11.84,21-4.09,21.1,4.26,17.8,12.05,11.84,18,4.09,21-4.26,21.08L151.77,164l-18,11.86Zm-20.23-6.39,20.25,4.13L133.18,174l17.23-11.41,11.56-17,4.11-20.25L162.14,105,150.75,87.78l-17-11.58L113.29,72,93,76,75.86,87.35,64.32,104.52l-4.11,20.22L64.13,145l11.41,17.22Z"/><path class="cls-1" d="M142.83,154.68H83.48V95.32h59.35ZM84,154.15h58.3V95.87H84Z"/><path class="cls-1" d="M143.38,155.24H82.91V94.76h60.47ZM84.53,153.6h57.21V96.4H84.53Z"/><path class="cls-1" d="M113.14,167l-42-42,42-41.9,42,41.9ZM71.9,125l41.24,41.14L154.35,125,113.14,83.78Z"/><path class="cls-1" d="M113.14,167.76l-.4-.39L70.37,125l.38-.4,42.39-42.38.39.41L155.88,125l-.38.38ZM72.69,125l40.45,40.46L153.6,125,113.14,84.54Z"/><path class="cls-1" d="M133.73,175.4l-20.61-8.52L92,175.19l-8.52-20.57-20.76-9L71.24,125l-8.3-21.08L83.5,95.4l9-20.82,20.61,8.52,21.06-8.31,8.52,20.59,20.8,9L155,125l8.3,21.06-20.57,8.52Zm-20.59-9.09,20.32,8.35,8.88-20.49,20.18-8.41L154.35,125l8.36-20.31-20.37-8.82v-.11L134,75.58l-20.78,8.18L92.85,75.39,83.93,95.87h-.11l-20.2,8.39L71.81,125l-8.36,20.32,20.48,8.9,8.39,20.18Z"/><path class="cls-1" d="M134,176.1l-20.91-8.62L91.83,176l-8.69-20.87L62.08,146l8.52-20.88-8.41-21.47L83.06,95,92.19,73.9l20.91,8.51L134.39,74l8.71,21,21.06,9.15L155.54,125l8.52,21.29-21,8.75Zm-20.89-10.39h.2l19.82,8.18,8.77-20.19h.22l19.78-8.24L153.86,125v-.21L162,105l-20.18-8.77V96l-8.24-19.8-20.49,8.07h-.19L93.11,76.11l-8.78,20.1h-.19l-19.82,8.31L72.39,125v.21L64.21,145l20.12,8.77,8.33,20Z"/><path class="cls-1" d="M83.53,95.76l-8.65-9,.41-.38,8.62,9Z"/><path class="cls-1" d="M74.13,86.76l1.18-1.14,9.4,9.79-1.19,1.13Z"/><path class="cls-1" d="M113.4,83.39l-.53,0,.25-12.43h.54Z"/><path class="cls-1" d="M113.93,84l-1.64,0,.28-13.55,1.64,0Z"/><path class="cls-1" d="M142.74,95.76l-.36-.38,9-8.62.39.38Z"/><path class="cls-1" d="M141.58,95.33,151.39,86l1.13,1.18-9.81,9.37Z"/><path class="cls-1" d="M167.19,125.51l-12.46-.23,0-.56,12.46.26Z"/><path class="cls-1" d="M167.72,126.09l-13.54-.28,0-1.64,13.54.28Z"/><path class="cls-1" d="M151,163.58l-8.62-9,.38-.36,8.65,9Z"/><path class="cls-1" d="M141.6,154.59l1.18-1.13,9.39,9.79L151,164.38Z"/><path class="cls-1" d="M74.92,163.24l-.38-.38,9-8.65.38.39Z"/><path class="cls-1" d="M73.75,162.81l9.81-9.36,1.14,1.18L74.89,164Z"/><path class="cls-1" d="M71.52,125.28,59.06,125l0-.55,12.46.25Z"/><path class="cls-1" d="M72.07,125.83l-13.56-.28,0-1.64,13.56.28Z"/><path class="cls-1" d="M113.14,187.9A62.92,62.92,0,1,1,177,125a62.92,62.92,0,0,1-63.88,62.9m0-120.65A57.75,57.75,0,1,0,171.83,125a57.75,57.75,0,0,0-58.69-57.75"/><path class="cls-1" d="M21.14,142.31c-6.54,0-11.46-8.69-11.46-20.23s4.92-20.23,11.41-20.23H54V107H21.09c-2.53,0-6.23,5.87-6.23,15.07s3.7,15.08,6.23,15.08l31.22-.51v5.15Z"/><path class="cls-1" d="M491.84,142.72H462.5v-5.24h29.43c1.85,0,5.24-5.71,5.24-15.08s-3.39-15.05-5.24-15.05H462.12v-5.09h29.81c6.75,0,10.39,10.41,10.39,20.21s-3.62,20.25-10.48,20.25"/></svg>