<svg id="Layer_1" data-name="Layer 1" xmlns="http://www.w3.org/2000/svg" viewBox="0 0 512 250"><defs><style>.cls-1{fill:#231f20;}</style></defs><path class="cls-1" d="M256,206.5l-.8,0,.37-18.78.82,0Z"/><path class="cls-1" d="M256.84,207.34l-2.48,0,.43-20.44,2.46.07Z"/><path class="cls-1" d="M255.61,207.32h-.15l-31.32-6.49L197.6,183v-.13l-17.8-26.67-6.12-31.54v-.15l6.4-31.21,18-26.63h.13L224.85,49l31.54-6.12h.15l31.32,6.49L314.4,67.05v.13L332,93.85l6.12,31.52v.17l-6.49,31.32-18,26.63h-.13l-26.67,17.63Zm-30.82-7.94,30.84,6.34,30.89-6,26.26-17.3,17.6-26.09,6.28-30.84-6-30.89L313.36,68.33,287.28,50.72l-30.85-6.27-30.88,6L199.29,67.75l-17.67,26-6.28,30.84,6,30.89,17.31,26.26Z"/><path class="cls-1" d="M255.61,208h-.28l-31.56-6.49L197,183.34l-17.82-27.06L173,124.61v-.28l6.49-31.54,18.32-26.9,26.9-17.74L256.39,42h.13l31.71,6.49L315,66.66l17.82,27L339,125.35v.15l-6.49,31.69-18.34,26.9-26.88,17.74Zm-31.21-7.7,31.21,6.36,31.3-6.05L313.45,183l17.84-26.43,6.36-31.23-6.08-31.26L314,67.53,287.6,49.71l-31.23-6.36-31.28,6L198.55,67,180.71,93.4l-6.36,31.19L180.4,156,198,182.54Zm31.21,6-31.08-6.49-26.39-17.69-17.46-26.5-6-31v-.13l6.49-31.08,17.78-26.26,26.5-17.45,31-6h.13l31,6.32,26.28,17.8,17.46,26.47,6,31v.15l-6.49,31.06L313,182.77l-26.48,17.46Zm-30.56-7.57L255.63,205l30.65-6,26-17.3,17.45-26L336,125.37,330.1,94.74l-17.3-26-26-17.45L256.37,45l-30.65,6-26,17.3-17.45,26L176,124.63l5.93,30.63,17.3,26Z"/><path class="cls-1" d="M255.61,208.17h-.32l-31.6-6.49L196.82,183.4,179,156.3l-6.15-31.69v-.17l6.49-31.75L197.6,65.82,224.68,48l31.71-6.15h.15l31.77,6.49,26.87,18.19L333,93.62l6.15,31.68v.15l-6.49,31.78L314.4,184.09l-27.1,17.85Zm-30.5-9.56,30.52,6.2,30.65-5.92,26-17.31L329.54,156l6.21-30.52-5.93-30.56L312.65,68.94,286.82,51.5,256.3,45.29l-30.58,5.82-26,17.2-17.3,25.8-6.27,30.52,5.92,30.59,17.31,25.95Z"/><path class="cls-1" d="M255.61,208.84h-.45l-31.84-6.62-27-18.37-17.95-27.34-6.17-31.92v-.3l6.64-32,18.37-27,27.34-17.93,31.84-6.19h.28l32.05,6.66,27,18.37,17.93,27.34,6.19,31.82v.3l-6.62,32-18.39,27-27.34,17.95ZM223.94,201l31.69,6.48,31.43-6.07,26.86-17.7L332,157.06l6.48-31.69L332.37,94,314.68,67.05,288,49l-31.68-6.48-31.43,6.1L198.08,66.3,180,92.94l-6.48,31.67L179.6,156l17.7,26.89Zm31.69,4.49h-.13l-30.76-6.25-26-17.6-17.3-26.22-6-30.78v-.13l6.31-30.73,17.61-26,26.21-17.3,30.7-6h.15l30.73,6.29,26,17.61,17.3,26.21,5.95,30.7v.13l-6.31,30.75-17.61,26-26.22,17.3ZM225.35,198l30.28,6.14,30.28-5.88,25.77-17L329,155.63l6.16-30.28-5.88-30.29-17-25.76L286.63,52l-30.28-6.14-30.29,5.88-25.78,17L183,94.37l-6.17,30.28,5.89,30.29,17.06,25.78Z"/><path class="cls-1" d="M300.75,169.75h-89.5V80.27h89.5Zm-88.68-.82H300V81.05h-87.9Z"/><path class="cls-1" d="M301.57,170.6H210.4V79.43h91.17Zm-88.68-2.49h86.22V81.89H212.89Z"/><path class="cls-1" d="M256,188.29,192.71,125,256,61.71,319.29,125ZM193.86,125,256,187.14,318.14,125,256,63Z"/><path class="cls-1" d="M256,189.46l-.58-.57L191.52,125l.61-.58L256,60.54l.58.59L320.46,125l-.59.58ZM195,125l61,61,61-61L256,64.05Z"/><path class="cls-1" d="M287,201l-31-12.8-31.75,12.52-13-31L180,156l12.8-31L180.3,93.25l31-13L224.92,49,256,61.84l31.75-12.5,13,31L332,93.94,319.16,125l12.54,31.75-31,13Zm-31-13.69,30.63,12.63L300,169h.15l30.43-12.65L318.27,125,330.9,94.35,300,80.94v-.15L287.38,50.38,256,62.73,225.37,50.1,212,81h-.15L181.38,93.7,193.73,125,181.1,155.63,212,169v.15l12.66,30.44Z"/><path class="cls-1" d="M287.49,202.05l-31.49-13-32.21,12.69-13-31.45L179,156.49l13-31.49L179.26,92.79l31.47-13,13.78-31.74,31.49,13,32.21-12.69,13.08,31.45,31.76,13.82-13,31.49,12.69,32.18L301.29,170.4ZM256,186.39l.32.13,30,12.3,13.22-30.41.3-.13L329.54,156l-12.18-30.86.13-.33,12.33-29.85L299.37,81.7l-.11-.31L286.84,51.55,256,63.61l-.32-.13-30-12.3L212.5,81.59l-.3.15L182.46,94.13,194.64,125l-.13.3L182.18,155.2l30.45,13.21,12.53,30.13Z"/><path class="cls-1" d="M211.36,80.94l-13-13.54.58-.58,13,13.56Z"/><path class="cls-1" d="M197.19,67.36,199,65.65l14.16,14.74-1.77,1.71Z"/><path class="cls-1" d="M256.41,62.3l-.82,0L256,43.5l.82,0Z"/><path class="cls-1" d="M257.21,63.14l-2.46,0,.41-20.44,2.46,0Z"/><path class="cls-1" d="M300.62,80.94l-.56-.58,13.54-13,.58.58Z"/><path class="cls-1" d="M298.9,80.34l14.76-14.15,1.7,1.78L300.61,82.12Z"/><path class="cls-1" d="M337.48,125.8l-18.78-.39,0-.82,18.77.39Z"/><path class="cls-1" d="M317.88,126.23l.05-2.46,20.44.42-.06,2.46Z"/><path class="cls-1" d="M313.06,183.18l-13-13.56.58-.56,13,13.56Z"/><path class="cls-1" d="M313,184.35,298.89,169.6l1.78-1.71,14.14,14.75Z"/><path class="cls-1" d="M198.38,182.64l-.54-.58,13.54-13,.56.58Z"/><path class="cls-1" d="M196.65,182.05l14.73-14.17,1.71,1.77-14.73,14.18Z"/><path class="cls-1" d="M193.27,125.41,174.5,125l0-.82,18.78.37Z"/><path class="cls-1" d="M173.64,125.83l.05-2.47,20.43.41-.05,2.47Z"/><path class="cls-1" d="M355.61,122a26.26,26.26,0,1,1,26.25-26.26h0A26.29,26.29,0,0,1,355.61,122m0-47.29a21,21,0,1,0,21,21,21,21,0,0,0-21-21"/><path class="cls-1" d="M359.22,170.51a26.26,26.26,0,1,1,26.26-26.26h0a26.26,26.26,0,0,1-26.26,26.26m0-47.26a21,21,0,1,0,21,21v0a21,21,0,0,0-21-21"/><path class="cls-1" d="M395.84,141.94a23,23,0,1,1,23-23v0a23,23,0,0,1-23,23m0-40.73A17.76,17.76,0,1,0,413.57,119v0a17.75,17.75,0,0,0-17.73-17.76"/><path class="cls-1" d="M355.61,112a16.23,16.23,0,1,1,16.2-16.25v0A16.25,16.25,0,0,1,355.61,112m0-29.81A13.61,13.61,0,1,0,369.19,95.8v0a13.61,13.61,0,0,0-13.58-13.59"/><path class="cls-1" d="M359.22,160.47a16.22,16.22,0,1,1,16.22-16.22,16.22,16.22,0,0,1-16.22,16.22h0m0-29.8a13.61,13.61,0,1,0,13.58,13.62v0a13.6,13.6,0,0,0-13.58-13.58"/><path class="cls-1" d="M395.84,133.41a14.47,14.47,0,1,1,14.45-14.49v0a14.47,14.47,0,0,1-14.45,14.44m0-26.28A11.84,11.84,0,1,0,407.67,119a11.83,11.83,0,0,0-11.83-11.84h0"/><path class="cls-1" d="M488.2,140l-81.66-1v-5.23l81.66,1c3.5,0,7.46-6.49,7.46-15.29s-3.89-15.38-7.46-15.38H406.57V98.83H488.2c7.13,0,12.74,9,12.74,20.55s-5.61,20.54-12.74,20.54"/><path class="cls-1" d="M156.5,122.64a26.28,26.28,0,1,1,26.15-26.41v.15a26.3,26.3,0,0,1-26.15,26.26m0-47.28a21,21,0,1,0,21,21,21,21,0,0,0-21-21"/><path class="cls-1" d="M152.76,171.11A26.28,26.28,0,1,1,179,144.83v0a26.27,26.27,0,0,1-26.28,26.23m0-47.28a21,21,0,1,0,21.05,21,21,21,0,0,0-21.05-21"/><path class="cls-1" d="M116.16,142.54a23,23,0,1,1,23-23,23,23,0,0,1-23,23h0m0-40.73a17.76,17.76,0,1,0,17.74,17.78v0a17.76,17.76,0,0,0-17.74-17.67"/><path class="cls-1" d="M156.5,112.58a16.22,16.22,0,1,1,16.2-16.24v0a16.22,16.22,0,0,1-16.2,16.22m0-29.8a13.59,13.59,0,1,0,13.59,13.58h0A13.61,13.61,0,0,0,156.5,82.78"/><path class="cls-1" d="M152.76,161.08A16.23,16.23,0,1,1,169,144.86v0a16.22,16.22,0,0,1-16.22,16.2m0-29.81a13.61,13.61,0,1,0,13.61,13.61,13.6,13.6,0,0,0-13.61-13.61h0"/><path class="cls-1" d="M116.16,134a14.47,14.47,0,1,1,14.39-14.56v.09A14.47,14.47,0,0,1,116.1,134m0-26.3a11.85,11.85,0,1,0,11.83,11.87v0a11.85,11.85,0,0,0-11.83-11.83"/><path class="cls-1" d="M23.83,140.6c-7.19,0-12.77-9-12.77-20.55S16.64,99.5,23.8,99.5h81.63v5.23H23.8c-3.54,0-7.5,6.49-7.5,15.32s4,15.29,7.5,15.29l81.61-1v5.24Z"/></svg>