<svg id="Layer_1" data-name="Layer 1" xmlns="http://www.w3.org/2000/svg" viewBox="0 0 600 600"><defs><style>.cls-1{stroke:#231f20;stroke-miterlimit:10;stroke-width:3px;}</style></defs><path class="cls-1" d="M299.9,100.1c110.18-.19,199.7,88.87,200.1,199,.59,108.41-87.24,201.52-201.17,200.75C188.46,499.16,99.71,411,100,299.38,100.33,185,193.25,99.53,299.9,100.1Zm.2,115.05c-1.24.37-2.44.62-3.56,1.08-18.19,7.54-36.35,15.12-54.55,22.61a8,8,0,0,0-4.44,4.78q-11.1,26.82-22.27,53.56a9.62,9.62,0,0,0,0,8q11.11,26.51,21.94,53.12a8.84,8.84,0,0,0,5.18,5.35q26.62,10.85,53.13,21.94a10.22,10.22,0,0,0,8.52,0q26-10.94,52.13-21.62c3.57-1.45,5.48-3.77,6.88-7.2q10.6-26.15,21.56-52.16a8.8,8.8,0,0,0,0-7.44q-11-26.54-21.89-53.15a9.63,9.63,0,0,0-5.56-5.77c-17.74-7.23-35.43-14.6-53.15-21.9C302.77,215.91,301.42,215.56,300.1,215.15Zm47.67-37.29c-.32-.56-.69-1.34-1.17-2.06C332,154,317.27,132.13,302.72,110.23c-2.34-3.53-3.68-2.57-5.49.31-3.53,5.59-7.2,11.1-10.83,16.63q-16,24.46-32,48.93c-1.26,1.93-2.71,3.54.43,5.45,14.43,8.79,28.74,17.76,43.06,26.75a4.28,4.28,0,0,0,5.25,0q21.06-13.61,42.2-27.11c1.12-.76,2.55-1.34,2.48-3.33Zm-48,315.07a32.31,32.31,0,0,0,2.5-2.87c14.38-21.64,28.69-43.31,43.15-64.9,2-2.92,1.45-4.35-1.48-6.11q-20.73-12.24-41.22-24.83c-2.29-1.41-4-1.12-6.2.2q-20.3,12.42-40.73,24.62c-2.6,1.53-3.39,2.91-1.49,5.76q21.79,32.61,43.38,65.37C298.28,491,299,491.81,299.81,492.93ZM245.85,184c.41-2.34-2.4-2.41-4.73-2.95L173,165.41c-10.12-2.29-9.94-2.4-7.8,8,4.92,23.69,9.67,47.39,14.47,71.09.55,2.69.89,5.15,4.83,4.19q23.55-5.81,47.18-11.32c2.29-.53,3.77-1.53,4.25-3.92,3.2-16.06,6.45-32.06,9.95-49.45Zm190.43-18c.27-3.62-2.69-2.3-5.17-1.71-23.61,5.26-47.18,10.7-70.84,15.64-5,1-5.61,3.06-4.75,7.39,2.8,14.16,5.63,28.33,7.82,42.59.76,5.09,3.06,7.05,7.71,8.1,14.09,3.16,28.12,6.59,42.13,10.13,3.55.89,5.1,0,5.81-3.57,1.65-8.36,3.56-16.68,5.4-25,3.87-17.5,7.76-35,11.89-53.56Zm55.87,133.78c-.4-1.33-1.62-1.78-2.63-2.4-21.7-13.29-43.43-26.51-65.08-39.88-3.05-1.87-4.74-1.69-6.68,1.45q-11.83,19.11-24,38c-1.89,2.93-1.75,5.36.08,8.15q12.49,19.31,24.76,38.77c1.52,2.47,2.92,2.8,5.42,1.16q32.88-21.4,65.8-42.63c1-.64,2.16-1.19,2.36-2.59Zm-385.7.21c23.46,15.54,46,30.42,68.47,45.41,2.83,1.88,4.24,1,5.84-1.49,8.41-13,16.82-26.07,25.41-39,1.81-2.71,1.9-4.74,0-7.5-8.61-12.72-17.1-25.45-25.43-38.35-2.05-3.19-3.63-3.21-6.59-1.32-11.17,7.12-22.49,14-33.74,21C129.37,285.65,118.33,292.58,106.45,300ZM245.79,416.54c-.11-.5-.2-.83-.27-1.18-3.17-15.16-6.44-30.3-9.44-45.5-.67-3.39-2.63-4.52-5.57-5.17-15.12-3.37-30.25-6.72-45.34-10.26-3.39-.81-4.81.35-5.5,3.53q-8.1,37.26-16.34,74.47c-.86,3.83.63,4.18,3.74,3.48,6.28-1.42,12.58-2.74,18.89-4.08,18.38-3.9,36.78-7.76,55.16-11.75C243.08,419.65,246,419.84,245.79,416.54Zm170.81-63-1.53.29c-15.92,3.78-31.84,7.6-47.79,11.28-2.69.63-3.64,2.33-4.1,4.71q-4.32,22.31-8.69,44.6c-.62,3.18.42,5,3.68,5.56,4.63.86,9.21,1.88,13.81,2.86q29.61,6.33,59.23,12.68c3.91.85,5.73.38,4.46-4.25-1.39-5-2.3-10.18-3.42-15.29-4.26-19.38-8.49-38.78-12.84-58.14C419.05,356.1,419.47,353.23,416.6,353.52Zm78.49-42c-.07-1.42,1-3.82-.57-5.4-1.19-1.2-2.53.45-3.64,1.16Q460.16,327,429.47,347c-1.23.8-3.26,1.28-3,3.18.21,1.53,2.15,1.53,3.35,2.13,15.19,7.38,30.46,14.6,45.59,22.12,3.52,1.76,5,1.38,6.46-2.4C489.26,352.62,494.05,332.76,495.09,311.47Zm-390.65-4.88c.37,4.47.62,7.59.89,10.71a201,201,0,0,0,13,55.2c1.43,3.74,3.28,4.19,6.71,2.46q22.63-11.4,45.43-22.46c3.33-1.62,2.85-2.68.18-4.43-8.3-5.43-16.52-11-24.8-16.48q-18.73-12.39-37.51-24.74c-1.54-1.06-3.71-3.26-3.89-.3ZM288.57,104.82a193.65,193.65,0,0,0-58.69,12.53c-3.7,1.4-4.23,3.05-2.67,6.59,6.7,15.29,13.09,30.74,19.66,46.1.59,1.38.77,3.42,2.52,3.69,2,.29,2.29-1.83,3.12-3.06q19.61-29.91,39.08-59.91c1.07-1.64,3.54-3.33,2.19-5.35C292.76,103.83,290.2,104.87,288.57,104.82Zm153.14,60.47a15.14,15.14,0,0,0-1,2.3q-8.44,37.93-16.85,75.84c-1,4.63,1.39,3.6,3.94,2.52,16.18-6.88,32.32-13.76,48.57-20.45,3.34-1.38,3.5-2.86,2.12-5.87a195.65,195.65,0,0,0-16.91-29.95A183,183,0,0,0,441.71,165.29Zm-282.86-.07c-12.42,11.14-31.54,39.48-37.46,54.79-1.08,2.83-.76,4.36,2.24,5.65,16.64,7.15,33.22,14.47,49.83,21.72.6.26,1.31.6,2-.39-5.45-26.91-11-54-16.63-81.77Zm133.51,330.2c.05,0,1.35.42,1.9-.66.77-1.53-.6-2.58-1.33-3.68q-20.35-30.7-40.72-61.38c-2.07-3.13-3.21-3.65-4.85.3q-9.87,23.89-20.07,47.66c-1.11,2.58-.48,3.66,2.05,4.63C249.36,490,270.11,494,292.36,495.42ZM495.07,287.89a192,192,0,0,0-11.69-56c-.77-2-1.39-4-4.39-2.73q-25.23,10.8-50.46,21.46c-2.67,1.14-2.64,2.37-.23,3.82,3.43,2.08,6.79,4.25,10.2,6.35q25.81,15.84,51.65,31.66c1.27.76,2.58,2.37,4.17,1.34s.82-2.85.84-4.37C495.17,288.94,495.1,288.42,495.07,287.89ZM350.58,425.59c-1.23,1.77-1.92,2.75-2.58,3.74-12.79,19.28-25.62,38.54-38.32,57.89-1.58,2.41-5.23,5.35-4,7.32,1.66,2.76,5.68.17,8.69.21a12.79,12.79,0,0,0,1.53-.06c18.18-1.28,35.69-5.5,52.8-11.66,3-1.08,4.23-2.49,2.87-5.78-6.89-16.88-13.69-33.8-20.93-51.66Zm.76-250.95c7-18.56,13.56-35.93,20.13-53.3.87-2.3,0-3.57-2.22-4.3-3.15-1-6.23-2.21-9.37-3.23a187.06,187.06,0,0,0-49.56-9c-1.47-.07-3.36-.77-4.26,1-.61,1.2.62,2.25,1.27,3.23,2.5,3.76,5.08,7.48,7.6,11.23,11.9,17.74,23.79,35.49,36.46,54.4Zm4.22,1.72c3.16-.64,5.18-1,7.18-1.46,21.26-4.7,42.54-9.36,63.78-14.19,2.57-.58,6.62.06,7.25-2.7.51-2.2-3.5-3.38-5.2-5.35a10.47,10.47,0,0,0-1.14-1.07,199,199,0,0,0-46.53-29.71c-2-.92-3.93-1.87-5.06,1.12l-20.23,53.36ZM173,253.17c-1.41-2.16-3.4-2.54-5.09-3.29-14.67-6.44-29.47-12.61-44-19.33-4.71-2.17-6.41-1.37-8.12,3.46-6.57,18.55-9.74,37.71-11.35,57.21-.09,1.15-.63,2.64.62,3.36s2.24-.59,3.23-1.19q22.44-13.9,44.86-27.83Q163.08,259.4,173,253.17ZM434.48,441.72c-.62-.52-.84-.86-1.12-.92q-37.26-8.12-74.49-16.19c-3.6-.76-3.47.83-2.44,3.36,6.45,15.79,12.93,31.58,19.25,47.4,1.34,3.34,3.06,3.46,6,2.17a187.83,187.83,0,0,0,28.17-15.9,173.66,173.66,0,0,0,24.6-19.92ZM245,177.32c-7.65-18-14.85-34.64-21.73-51.39-1.58-3.82-3.17-4.58-7-2.77a200.27,200.27,0,0,0-47.6,31.91c-1,.91-2.81,1.59-2.51,3.05.39,1.82,2.5,1.53,3.95,1.85q24.94,5.82,49.9,11.57ZM164.82,441.06a197.63,197.63,0,0,0,54,36.7c2.77,1.27,3.68-.2,4.59-2.38q9.87-23.6,19.87-47.16c.47-1.11,1.46-2.4.68-3.41-1.08-1.4-2.6-.14-3.87.12q-17.88,3.72-35.74,7.56l-39.48,8.57ZM441,434c1-.23,1.48-.19,1.67-.4a195.21,195.21,0,0,0,33.64-48.78c1.66-3.46.18-5-2.79-6.43-12.57-5.95-25.09-12-37.65-18-3.7-1.76-7.45-3.4-12.34-5.61,6,27.17,11.73,53.19,17.47,79.22Zm-284-1c1.91-.19,1.89-1.62,2.14-2.72q7.77-35.16,15.49-70.33c.64-2.9-.23-4.11-3.25-2.64-15.29,7.5-30.63,15-46,22.44-2.52,1.22-2.7,2.61-1.53,5a199.52,199.52,0,0,0,31.42,46.63c.53.59,1.2,1.14,1.72,1.65Zm148.5-220.82,53.13,22c.32-.86.59-1.2.54-1.49q-4.14-23.1-8.31-46.2c-.42-2.34-1.47-2.4-3.23-1.28C333.85,193.94,320.09,202.72,305.45,212.09Zm-10.9-.44c-13.88-8.65-27.29-17-40.66-25.36-2.57-1.62-3.65-.93-4.21,1.94q-4.05,20.72-8.3,41.4c-.85,4,.23,4.58,3.82,3.05,11.18-4.79,22.45-9.39,33.63-14.09,5.12-2.17,10.38-3.77,15.72-7ZM233.36,360.73c-7.37-17.83-14.28-34.54-21.19-51.22-1.14-2.76-2.29-2-3.5-.08q-12,18.35-24.1,36.69c-1.48,2.25-1,3.45,1.62,4,15.27,3.42,30.53,6.86,47.17,10.6Zm-22.4-66a11.32,11.32,0,0,0,1.27-2Q222.13,269,232,245.11c.88-2.11.77-3.52-2.08-2.84-14.53,3.49-29.06,7-43.58,10.51-3,.71-3.06,2-1.47,4.35,7.95,11.87,15.78,23.76,23.62,35.67.57.82.89,1.94,2.5,2Zm155.3,66c16.36-3.9,31.67-7.57,47-11.16,3.75-.88,2.06-2.64.92-4.42q-9.45-14.68-18.89-29.4c-1.92-3-3.89-5.95-6.33-9.68Zm-126,6.95c3.33,16.12,6.44,30.91,9.39,45.73.67,3.34,2.07,2.92,4.29,1.53q18.93-11.55,37.9-23c.71-.43,1.58-.85,1.21-2.42Zm118.71,0c-17.58,7.31-34.09,14.14-50.58,21.09-2.69,1.14-1.62,2.54.23,3.66q18.81,11.28,37.6,22.61c2.22,1.34,3.32,1.21,3.82-1.59,2.86-14.82,5.76-29.64,8.93-45.75Zm11.19-125.37c-2.76-.59-3.05.66-2.17,2.85L387.74,293c.91,2.2,1.81,2.25,3.06.21q11.54-18.34,23.17-36.69c1.45-2.29.85-3.48-1.67-4.08q-21-5-42.13-10.09Z"/></svg>