<svg id="Layer_1" data-name="Layer 1" xmlns="http://www.w3.org/2000/svg" viewBox="0 0 512 512"><path d="M131.15,150.59,97.53,131c-4.46-2.6-8.93-5.18-13.35-7.85-5.14-3.12-5.61-4.77-2.53-10.14C89,100.33,96.4,87.71,103.67,75a9.83,9.83,0,0,1,6.52-4.93c13.22-3.44,26.43-6.89,39.61-10.47a10.36,10.36,0,0,1,8.55,1.22c12.34,7.27,24.77,14.4,37.15,21.61,5.86,3.41,6.3,5.3,2.85,11.22q-12.07,20.73-24.12,41.47c-.71,1.22-2.41,2.49-1.34,4,.94,1.29,2.82.59,4.26.49,32.11-2.27,61.3,6.08,88,23.93,6.4,4.28,12.1,9.38,17.8,14.49,1.63,1.47,3.06,3,5.65,2.28a136.69,136.69,0,0,1,68-1.76c1.21-1.73.06-2.84-.42-4q-9.37-21.81-18.83-43.58c-3.52-8.1-3-9.37,4.93-12.78,12.41-5.3,24.85-10.53,37.17-16a13.19,13.19,0,0,1,11-.15q17.81,7.29,35.73,14.29a11.47,11.47,0,0,1,6.94,6.62c5.56,13.2,11.33,26.31,16.93,39.49,2.69,6.33,1.91,8-4.44,10.68Q423.54,182.49,401.5,192c-1.33.58-2.88.88-4,2.71,7.71,5.15,15.42,10.29,22.23,16.65,27.29,25.49,42.5,56.74,44.95,94.05,2.31,35.1-7.56,66.69-29.15,94.21-24.21,30.85-56.3,48.55-95.35,52.48-42.55,4.27-79.47-8.88-110.57-38.22a6.13,6.13,0,0,0-6.63-1.67c-61.57,16-124.16-8.62-155.78-63.38-27.72-48-26.62-96.93,2-144.65C83.59,180,104.45,162.8,131.15,150.59ZM83.2,278c.18,4.16.07,8.36.62,12.47a118.37,118.37,0,0,0,2.84,14.19,102.43,102.43,0,0,0,110.92,76.24c6-.68,6.08-.83,3.49-6.24-12.2-25.49-16.93-52.3-12.53-80.23,6.21-39.37,25.15-71.22,58.14-94.19,3.62-2.53,3.46-4-.07-6.38-18.1-12.41-37.89-19-60-19C129.13,175,83.38,220.5,83.2,278Zm346.25,36.23c-.11-30.7-11.62-56.57-34.23-77.07-22.86-20.72-50.28-28.57-80.87-26-3.78.32-5.34,1.55-3.27,5.3.56,1,.94,2.13,1.45,3.18a126.37,126.37,0,0,1,12.83,52.54c1.08,50.08-18.77,90.13-59.18,119.81-3.44,2.53-3.8,3.82-.12,6.34,21.13,14.5,44.28,21.25,69.91,18.59C389.8,411.32,429.29,367.85,429.45,314.18Zm-233,.66c-.46,18,3.83,36.2,11.9,53.47,5.29,11.32,3,10.5,15.75,6.32,4.1-1.34,5.46-2.74,3-7.39-14.16-27-17.85-55.29-9-84.71,14.85-49.31,57.92-81.2,109-81,57.3.24,105.73,44.43,111.25,101.51C444.76,369.19,392.3,427,325.63,426.8c-22.72-.05-44-6.23-62.39-19.72-7.69-5.66-13.63-6.61-21.54-1.59-4.73,3-5.21,2.47-.9,6.26,45.86,40.33,115.75,44.23,165.63,3.9C448.09,382,463.48,337.52,452.22,285c-13.93-65-77.79-109.15-143.59-99.6S196.83,249.34,196.4,314.84Zm1.63,93c24.49-.29,55.68-13,80.91-38.58,38.05-38.65,47.71-94.57,25.91-144.35-5.38-12.28-5.43-12.21-17.85-6.52-3.15,1.44-3.33,2.79-1.78,5.65a110.5,110.5,0,0,1,12.55,71.42c-9.16,60.15-65.69,102.62-126.06,94.44A113,113,0,0,1,75,262.31C86.49,180.22,181,138.08,249.31,185c7.85,5.4,13.76,6.62,21.71,1.63,4.88-3.07,5.3-2.63.94-6.33-29.55-25-63.65-35.68-102.08-31C99.72,158,48.89,224,57.76,294.46,65.91,359.19,121.14,407.84,198,407.82Zm24.5-93.92c.47,17.07,4,33,11.85,47.89,3.48,6.56,3.42,6.6,9.74,2.31a104.23,104.23,0,0,0,33.75-135c-2.12-4-3.84-4.86-7.86-2.12A116.28,116.28,0,0,0,244.06,251c-7.18,9-11.73,19.36-15.75,30S222.94,302.89,222.53,313.9ZM158.59,107.64c.85-4.37-.91-4.52-3.55-3.81q-14.49,3.9-29,7.68c-2.42.63-3.65,1.38-1.48,3.92,7.46,8.75,14.78,17.61,22.15,26.44.95,1.14,1.73,2.47,3.63,2s2.54-1.84,2.83-3.64C155,129.05,156.89,117.88,158.59,107.64Zm216,44.89c.91,8.2.86,18,1.07,27.83,0,1.88.18,3.66,2.26,4.58,2.25,1,3.4-.67,4.69-1.88,8.13-7.63,16.12-15.4,24.39-22.86,2.93-2.64,1.94-3.37-1-4.47-8.25-3.11-16.41-6.43-24.64-9.6C374.46,143.45,374.45,143.49,374.62,152.53Zm38.26-3.92c-1.21-9.51-2.1-18.2-3.52-26.8-.61-3.69-6.28-5.9-9.18-3.76-6.41,4.73-12.62,9.74-18.87,14.68-1.89,1.51-1.41,2.83.67,3.66C392,140.36,402,144.3,412.88,148.61Zm-258-54.24L156,92.69c-6.29-5.92-12.5-11.92-18.89-17.73-3.37-3-9.12-1.23-10.34,3.25-1.91,7.07-3.44,14.24-5.4,21.3-1,3.54.44,3.7,3.17,3Q139.69,98.39,154.89,94.37Zm29.33-7.77c-5.76-3.41-10.29-6.13-14.85-8.79-4.73-2.76-9.54-5.41-14.23-8.25-2.7-1.63-5.63-1.35-7.33.62-2.08,2.41,1.3,3.59,2.57,4.94,4.44,4.72,9.12,9.21,13.68,13.82,1.35,1.37,2.67,2.37,4.8,1.76C173.46,89.38,178.11,88.22,184.22,86.6Zm167.26,37.54c5.24,2.08,9.14,3.46,12.89,5.16,3.1,1.4,5.56,1,8.19-1.21,5.09-4.24,10.43-8.18,15.62-12.31,1.1-.88,3.12-1.52,2.56-3.2-.29-.87-2.19-1.22-3.38-1.76a5.26,5.26,0,0,0-4.34-.13Zm13.62,47.92c1.53-10.11-.1-20,0-30a2.87,2.87,0,0,0-1.49-3c-4.65-2-9.12-4.54-15.14-5.71C354.23,146.85,359.67,159.45,365.1,172.06ZM163.75,132.91l.82.3q9.92-16.94,19.83-33.86c.49-.83,1.29-1.79.51-2.69s-1.86-.27-2.8,0c-3.21.84-6.4,1.76-9.62,2.54a4.64,4.64,0,0,0-4,4.32C167,113.32,165.34,123.11,163.75,132.91ZM116.35,82c.22-1.72.73-2.81-.39-3.45-1-.56-1.93,0-2.85.39-1.54.57-2.18,2-2.93,3.26-3.68,6.32-7.41,12.61-11,19-1.41,2.52-5,5.45-3.2,7.68s5.47-.6,8.31-1.21c2.63-.57,5.81-.53,6.69-4.16C112.81,96.12,114.69,88.71,116.35,82Zm322.08,76.79c-4.58-10.8-8.52-20.1-12.48-29.39a23.64,23.64,0,0,0-1.32-2.67c-.82-1.4-2.14-2.38-3.69-2.06-2.07.44-1.44,2.39-1.28,3.74.75,6.76,1.61,13.5,2.48,20.25.26,2,.64,4,2.89,4.83C429,155.08,433,156.67,438.43,158.83ZM97.6,119.18l0,1.29,34.15,19.81c-5.55-8.49-11.89-16.07-18.25-23.63a2.89,2.89,0,0,0-3.14-1Zm298.1,64.43.54.63,38.88-16.69c-4.61-1.86-8.05-3.05-11.3-4.62-2.94-1.42-5.05-1.17-7.5,1.24C409.61,170.81,402.6,177.15,395.7,183.61Z"/></svg>