<svg id="Layer_1" data-name="Layer 1" xmlns="http://www.w3.org/2000/svg" viewBox="0 0 512 512"><defs><style>.cls-1{fill:none;stroke:#000;stroke-miterlimit:10;stroke-width:8px;}</style></defs><path class="cls-1" d="M20.19,320.62c.88-4.38,1.43-8.82,2.84-13.09,1.77-5.35,4.39-10.31,6.81-15.37a6.69,6.69,0,0,1,1.37-1.65C84.81,237.12,138,183.35,191.93,130.26c7.54-7.43,15-15.06,23.59-21.23,8.34-6,17.62-9.53,28.13-9.55,30.63-.08,61.25-.33,91.88-.43,2,0,2.6-.7,3-2.46a118.08,118.08,0,0,1,16.34-40.08C363.7,42.9,374.72,31.29,390,25c25-10.25,47.33-4.65,66.74,13.34,16.12,14.94,25.75,33.8,30.82,55C495,124.54,492.82,155,480,184.5c-8.62,19.84-21.75,35.83-41.43,45.76-4.86,2.45-5,2.49-5.28-3-.26-4.88-.14-9.79-.23-14.68a1.93,1.93,0,0,1,1.1-1.91c13.34-7.8,22.42-19.45,28.26-33.39,14.95-35.68,14-71.08-3.47-105.74a65,65,0,0,0-19.34-23C421.58,35,400.81,36,384,51,372.16,61.67,365,75.16,359.85,90c-3.53,10.21-4.91,20.74-5.22,31.44-.44,15.48-.7,31-1,46.46-.12,6.34-6.94,10.78-12.69,8-3.45-1.69-5.93-4-5.75-8.66a209.24,209.24,0,0,0-.24-24.79c-.25-3-.71-3.33-3.31-1.85-7,4-13.45,9.06-15.07,17.24-3.22,16.18-1.13,26.39,14.77,36.24a15.65,15.65,0,0,0,8,2.27c1.92.05,3.85,0,5.77.1,11.27.86,18.75-5.1,24.77-13.71a21.42,21.42,0,0,0,4-12.77c0-18.06.29-36.12,1.44-54.15a72.51,72.51,0,0,1,1.51-11.92c.63-2.72,1.35-3.14,3.87-2.09,15.5,6.44,26.11,17.41,30.73,33.76,1.41,5,1.18,10.19,1.23,15.31.38,38.93-.22,77.86-.28,116.79a49.82,49.82,0,0,1-13.22,33.88c-17.57,19.59-36.5,37.9-55.05,56.56Q283.48,419,222.79,479.85a20.3,20.3,0,0,1-5.43,3.85c-7.85,3.94-15.89,7.25-24.74,8.08a2,2,0,0,0-.66.3H181.37a5.13,5.13,0,0,0-2.31-.51c-9.71-1.63-18.69-4.75-26.11-11.67-8.44-7.88-16.84-15.8-25.11-23.86C97.11,426.11,66.66,395.89,37,364.93c-6.13-6.39-11.32-13.23-14-21.82a123.78,123.78,0,0,1-2.78-12.86Zm187.39,36.59c10.71,0,12.88-.36,18.67-3.86,11.88-7.18,18.34-17.48,17.14-31.73-.54-6.37-2.88-12.29-5.47-18.09-3.65-8.17-8.82-15.43-13.47-23-3.49-5.68-6.62-11.55-7.75-18.25-1.3-7.74,3.82-14.7,11.28-15.26a28.62,28.62,0,0,1,9.32.67c13.1,3.4,21.22,12.35,26.28,24.36,2.54,6,2,12.24-.86,18.18-.78,1.59-1.47,3.21-2.25,4.79a7,7,0,0,0,.4,6.89c3.71,6.7,11.46,7.8,16.64,2.18s7.26-12.55,7.78-20c.8-11.47-2.37-21.89-8.7-31.38-1-1.51-.95-2.41.5-3.54a13.21,13.21,0,0,0,4.41-5.89c1.51-4.1.28-8.35-3.33-11.45-3.11-2.68-6.8-2.93-10.71-.72a17.38,17.38,0,0,0-4.64,3.79c-1.2,1.41-2.21,1.6-3.79.49a51.15,51.15,0,0,0-13.38-6.44c-10.76-3.63-21.52-3.9-31.67,1.69-11.83,6.53-18.31,16.36-17.44,30.44.53,8.53,3.32,16.25,7.23,23.71,3.68,7,8.35,13.49,12.38,20.32,3,5,5.7,10.22,6.86,16,1.23,6.23-1.1,11.56-6.46,14.5a16.88,16.88,0,0,1-10,1.62c-10.27-1-17.95-6.58-24.15-14.3-7.88-9.84-10.76-20.48-3.72-32.17,3.51-5.84-.6-12.27-6.1-13.95-5.08-1.55-8.57,1-11.37,4.72-6.41,8.39-8,18-6.52,28.24a51.58,51.58,0,0,0,8.7,21.93c.91,1.32.84,2.16-.38,3.19a17.23,17.23,0,0,0-4,4.48c-2.5,4.3-2,9.19,1.38,12.36,3.75,3.55,8.42,4,12.77,1.1a15,15,0,0,0,4.05-3.73c1.07-1.5,2-1.34,3.32-.4C189.12,354.75,198.6,357.92,207.58,357.21Z"/></svg>