<svg id="Layer_1" data-name="Layer 1" xmlns="http://www.w3.org/2000/svg" viewBox="0 0 60 60"><defs><style>.cls-1{stroke:#231f20;stroke-miterlimit:10;stroke-width:0.5px;}</style></defs><path class="cls-1" d="M30,1A29,29,0,1,1,1,29.91,29,29,0,0,1,30,1ZM30,17.7c-.18.05-.35.09-.51.15-2.64,1.1-5.27,2.2-7.91,3.28a1.18,1.18,0,0,0-.65.7q-1.61,3.89-3.22,7.76a1.41,1.41,0,0,0,0,1.17q1.61,3.84,3.18,7.7a1.27,1.27,0,0,0,.75.77q3.86,1.58,7.7,3.19a1.49,1.49,0,0,0,1.24,0q3.77-1.59,7.56-3.14a1.72,1.72,0,0,0,1-1q1.55-3.8,3.13-7.57a1.27,1.27,0,0,0,0-1.08q-1.6-3.84-3.17-7.7a1.4,1.4,0,0,0-.81-.84l-7.71-3.18Zm6.92-5.41c0-.08-.1-.2-.17-.3-2.13-3.17-4.26-6.33-6.37-9.51-.34-.51-.53-.37-.79,0-.51.81-1.05,1.61-1.57,2.41L23.38,12c-.18.28-.39.52.06.79,2.1,1.28,4.17,2.58,6.25,3.88a.6.6,0,0,0,.76,0l6.12-3.93c.16-.11.37-.19.36-.48ZM30,58c.13-.13.25-.27.37-.41q3.12-4.71,6.25-9.41c.28-.42.21-.63-.21-.89q-3-1.77-6-3.6a.77.77,0,0,0-.9,0q-2.94,1.8-5.9,3.57c-.38.22-.5.42-.22.84q3.16,4.73,6.29,9.47C29.75,57.7,29.85,57.81,30,58ZM22.15,13.18c.06-.34-.35-.35-.69-.43l-9.88-2.27c-1.47-.33-1.44-.34-1.13,1.16.71,3.44,1.4,6.88,2.1,10.31.08.39.13.75.7.61,2.27-.56,4.56-1.11,6.84-1.64a.7.7,0,0,0,.62-.57c.46-2.33.93-4.65,1.44-7.17Zm27.61-2.61c0-.52-.39-.33-.75-.25-3.42.77-6.84,1.56-10.27,2.27-.72.15-.81.44-.69,1.07.41,2.06.82,4.11,1.13,6.18A1.24,1.24,0,0,0,40.3,21c2.05.46,4.08,1,6.11,1.47.52.13.74,0,.84-.52.24-1.21.52-2.41.79-3.62.56-2.54,1.12-5.08,1.72-7.77ZM57.86,30c-.06-.19-.23-.26-.38-.35-3.15-1.93-6.3-3.84-9.44-5.78-.44-.27-.68-.25-1,.21-1.15,1.85-2.31,3.68-3.49,5.51a1,1,0,0,0,0,1.18c1.21,1.86,2.41,3.74,3.59,5.62.22.36.43.41.79.17q4.77-3.11,9.54-6.18c.14-.1.31-.18.34-.38ZM1.94,30c3.4,2.25,6.67,4.41,9.92,6.58.41.28.62.15.85-.21,1.22-1.89,2.44-3.78,3.68-5.65a.82.82,0,0,0,0-1.09c-1.24-1.85-2.47-3.69-3.68-5.56-.3-.47-.53-.47-1-.2-1.62,1-3.26,2-4.89,3.05Zm20.2,16.9c0-.07,0-.12,0-.17-.46-2.2-.93-4.4-1.37-6.6a.88.88,0,0,0-.81-.75c-2.19-.49-4.38-1-6.57-1.49-.49-.11-.7,0-.8.51q-1.17,5.41-2.37,10.8c-.12.56.09.61.54.51.92-.21,1.83-.4,2.74-.59,2.67-.57,5.34-1.13,8-1.71C21.75,47.35,22.17,47.38,22.14,46.9Zm24.77-9.14-.22,0-6.93,1.64a.74.74,0,0,0-.6.68L37.9,46.59c-.09.46.06.72.53.8.68.13,1.34.28,2,.42L49,49.65c.56.12.83.05.64-.62s-.33-1.48-.49-2.22C48.56,44,48,41.19,47.31,38.38,47.26,38.13,47.32,37.72,46.91,37.76Zm11.38-6.1c0-.2.15-.55-.08-.78s-.37.06-.53.17l-8.91,5.76c-.17.12-.47.19-.43.46s.31.22.48.31c2.21,1.07,4.42,2.12,6.61,3.21.51.25.73.2.94-.35A28.27,28.27,0,0,0,58.29,31.66ZM1.64,31c.06.64.09,1.1.13,1.55a29,29,0,0,0,1.89,8c.21.54.47.61,1,.36,2.19-1.1,4.38-2.19,6.59-3.26.48-.23.41-.39,0-.64L7.65,34.58,2.21,31c-.22-.15-.54-.47-.56,0ZM28.34,1.7a28,28,0,0,0-8.51,1.82c-.53.2-.61.44-.38.95,1,2.22,1.89,4.46,2.85,6.69.08.2.11.49.36.53s.33-.26.45-.44Q26,6.91,28.78,2.56c.16-.24.51-.48.32-.78S28.58,1.71,28.34,1.7Zm22.21,8.77a2,2,0,0,0-.15.33q-1.21,5.5-2.44,11c-.15.67.2.52.57.36,2.35-1,4.69-2,7-3,.49-.2.51-.42.31-.85A29.05,29.05,0,0,0,53.43,14,27.28,27.28,0,0,0,50.55,10.47Zm-41,0A27.74,27.74,0,0,0,4.1,18.4c-.16.41-.11.63.33.82,2.41,1,4.81,2.1,7.22,3.15.09,0,.19.09.3-.06-.79-3.9-1.6-7.83-2.42-11.85ZM28.89,58.34s.2.06.28-.1-.09-.37-.19-.53l-5.91-8.9c-.3-.46-.47-.53-.7,0q-1.44,3.46-2.91,6.91c-.16.38-.07.53.29.67A30.63,30.63,0,0,0,28.89,58.34Zm29.39-30.1a27.47,27.47,0,0,0-1.69-8.11c-.11-.3-.2-.59-.64-.4-2.44,1.05-4.87,2.08-7.31,3.11-.39.17-.39.35,0,.56s1,.61,1.48.92l7.49,4.59c.19.11.38.34.61.19s.12-.41.12-.63A2,2,0,0,0,58.28,28.24Zm-21,20c-.17.26-.27.4-.37.54-1.86,2.8-3.72,5.59-5.56,8.4-.23.35-.75.77-.58,1.06s.82,0,1.26,0h.22A28.79,28.79,0,0,0,40,56.54c.43-.16.61-.36.41-.84-1-2.45-2-4.9-3-7.49Zm.11-36.39c1-2.69,2-5.21,2.92-7.73.13-.33,0-.51-.32-.62L38.68,3A27,27,0,0,0,31.5,1.69c-.22,0-.49-.11-.62.15s.09.32.18.46c.36.55.74,1.09,1.1,1.63l5.29,7.89Zm.62.25c.45-.09.75-.14,1-.21,3.08-.68,6.17-1.36,9.24-2.06.38-.08,1,0,1.06-.39s-.51-.49-.76-.77a1.21,1.21,0,0,0-.16-.16,29.11,29.11,0,0,0-6.75-4.31c-.29-.13-.57-.27-.73.17l-2.94,7.73ZM11.59,23.21a1.4,1.4,0,0,0-.74-.48c-2.13-.93-4.27-1.83-6.38-2.8-.68-.32-.93-.2-1.18.5a32.67,32.67,0,0,0-1.64,8.3c0,.16-.1.38.09.48s.32-.08.46-.17l6.51-4ZM49.5,50.55c-.09-.08-.12-.13-.16-.13l-10.8-2.35c-.53-.11-.51.12-.36.49.94,2.29,1.88,4.57,2.79,6.87.2.48.45.5.88.31a27.22,27.22,0,0,0,4.08-2.3,24.79,24.79,0,0,0,3.57-2.89ZM22,12.21c-1.11-2.61-2.15-5-3.15-7.45-.23-.55-.46-.66-1-.4A29.13,29.13,0,0,0,11,9c-.15.14-.41.24-.36.45s.36.22.57.27l7.23,1.67ZM10.4,50.45a28.87,28.87,0,0,0,7.82,5.33c.4.18.54,0,.67-.35q1.42-3.42,2.88-6.84c.07-.16.21-.35.1-.49s-.38,0-.56,0c-1.73.35-3.46.72-5.19,1.09L10.4,50.45Zm40-1c.15,0,.21,0,.24-.06a28.23,28.23,0,0,0,4.88-7.07c.24-.5,0-.73-.4-.93-1.83-.86-3.64-1.74-5.47-2.61-.53-.26-1.07-.49-1.78-.82.86,3.94,1.7,7.72,2.53,11.49ZM9.26,49.27c.27,0,.27-.23.31-.39q1.13-5.1,2.24-10.2c.1-.42,0-.6-.47-.38-2.21,1.08-4.44,2.18-6.67,3.25-.36.18-.39.38-.22.72A28.89,28.89,0,0,0,9,49a2.77,2.77,0,0,0,.25.24Zm21.53-32,7.7,3.2c0-.13.09-.18.08-.22l-1.2-6.7c-.06-.34-.22-.35-.47-.18Zm-1.58-.06-5.9-3.68c-.37-.23-.53-.13-.61.28-.39,2-.78,4-1.2,6-.12.58,0,.66.55.44,1.63-.7,3.26-1.36,4.88-2a17.9,17.9,0,0,0,2.28-1ZM20.34,38.81c-1.07-2.59-2.07-5-3.08-7.43-.16-.4-.33-.29-.5,0l-3.5,5.32c-.21.32-.14.5.24.58l6.84,1.54Zm-3.25-9.57a1.75,1.75,0,0,0,.18-.29c1-2.3,1.91-4.6,2.87-6.91.12-.3.11-.51-.31-.41l-6.32,1.52c-.43.11-.44.29-.21.63Q15,26.36,16.73,29c.08.11.13.28.36.28Zm22.52,9.57,6.81-1.62c.55-.13.3-.39.14-.64q-1.38-2.13-2.74-4.27l-.92-1.4Zm-18.27,1c.48,2.34.93,4.49,1.36,6.63.1.49.3.43.62.23l5.5-3.34c.1-.07.23-.13.17-.36Zm17.21,0c-2.55,1.06-4.94,2-7.33,3.06-.39.16-.24.37,0,.53Q34,45,36.7,46.69c.32.19.48.17.56-.23.41-2.15.83-4.3,1.29-6.64Zm1.63-18.18c-.4-.09-.45.1-.32.41,1,2.31,1.91,4.62,2.86,6.94.13.31.27.32.45,0q1.66-2.67,3.36-5.32c.21-.34.12-.51-.25-.6l-6.1-1.46Z"/></svg>