<svg id="Layer_1" data-name="Layer 1" xmlns="http://www.w3.org/2000/svg" viewBox="0 0 600 600"><defs><style>.cls-1{fill:#231f20;stroke:#231f20;stroke-miterlimit:10;stroke-width:3px;}</style></defs><path class="cls-1" d="M300.7,496.55H238.1a134.4,134.4,0,0,1-19.68-2.5c-18-2.57-36-5.36-54-8.14l-59.05-9c-2.08,0-2.15-1.25-1.53-2.85,3.69-9.32,7-18.64,10.85-27.82,7-17.25,13.15-34.78,19.76-51.82l18.91-49.73A250.83,250.83,0,0,1,166.53,319c6.4-12.24,12.94-24.27,19.47-36.37,8.35-15.44,17-30.74,24.9-46.39a413.17,413.17,0,0,1,29.84-47c9-13,17.6-26.15,26.64-39.16s18-26,27-39l4.24-6.4c1-1.67,1.88-1.46,2.92,0,5.7,8.21,11.41,16.35,17,24.55l27,39c9.74,13.91,19.33,28.24,29.28,42.15a276.59,276.59,0,0,1,17.74,31q13.28,25,26.36,49.87c5.84,11.06,11.26,22.33,17.52,33.18a351.61,351.61,0,0,1,20.87,49.1c7.93,20.1,15.65,40.34,23.37,60.51,5.22,13.36,10.29,26.78,15.51,40.14.7,1.67.42,2.43-1.6,2.78L442.51,485l-53.76,8.27c-6.95,1.12-14.4,2.16-21.63,3.13a14.09,14.09,0,0,1-2.43,0ZM300,420H405.23c3.06,0,3.13,0,1.74-2.85l-7-13Q387.5,380,374.91,355.92c-8.35-16.07-16.83-32.14-25.18-48.2-6-11.41-11.82-22.89-17.8-34.29s-11.06-20.87-16.63-31.65l-13.91-26.5c-.42-.76-.69-2.09-1.67-2.09s-1.11,1.4-1.6,2.16L285,240.67l-29.15,56-17.45,33.45q-11.26,21.7-22.61,43.4c-7,13.91-14.6,27.82-21.91,41.74-2.43,4.59-2.43,4.59,2.72,4.59ZM108.66,473.88v.49L294.3,460.45V460l-5.08-2-36.65-13.35-60.86-22.19a3,3,0,0,0-2.85,0L168,435.76,123.27,464.7ZM305.7,460v.55l185.5,13.92a81.71,81.71,0,0,0-9.39-7c-9.25-5.91-18.57-11.75-27.82-17.74-13.91-8.9-27.82-17.8-41.73-26.84a4.58,4.58,0,0,0-4.52-.49L373.8,434.79l-56.13,20.45Zm186.61,12.17h0l-103-169.57c1.32,9.32,2.92,18.43,4.66,27.82q4.38,23.58,8.9,47.16l7.72,40.69a4.34,4.34,0,0,0,2,3.06l38.95,24.76,20.38,13.07Zm-384.69,0a6.34,6.34,0,0,0,3-1.39l13.35-8.7,40.62-25.87c7.86-4.94,15.58-10,23.37-14.95a3.41,3.41,0,0,0,1.74-2.58c1.67-8.76,3.41-17.52,5.15-26.22q7.65-38.74,15.37-77.34L212.5,303H212ZM301.18,108.73v99a4.7,4.7,0,0,0,1.6,3.48l40,40.13Q354,262.71,365.45,274l18.08,17.6Q342.57,200.82,301.18,108.73Zm-2.57,1.11-80.54,181.6.76.56a27.48,27.48,0,0,1,1.81-2.37L241,268.77l23.93-24.42c10.85-11,21.63-22.11,32.55-33.1a5.93,5.93,0,0,0,1.74-4.45V111.93A2.88,2.88,0,0,0,298.61,109.84ZM197.27,422.06v.35l9.81,3.76,39.37,13.91,52.37,19.12a3.81,3.81,0,0,0,2.78,0l36.72-13.14,53.84-19.69,11.2-4.24h0Zm209.91-8.69h.49l-2.51-13.91-11.05-59.68c-2.37-12.8-4.94-25.53-7.31-38.32a12.16,12.16,0,0,0-3.2-7q-21.48-20.87-42.7-42.43c-11.34-11.33-22.54-22.67-33.87-33.94a3.07,3.07,0,0,0-2.3-1.46Zm-214.64.35h0L295.48,217h-.56l-3.82,3.83c-12.94,13.28-26,26.5-38.88,39.71l-34.15,34.78a11.41,11.41,0,0,0-3.34,6.26c-2.3,12.24-4.73,24.48-7,36.72q-5.07,26.08-10.29,52C195.74,397.37,194.14,405.65,192.54,413.72ZM112.28,476h.48l47.93,7,72.12,11.75a3.48,3.48,0,0,0,2.37-.34l16.2-8.56c10.65-5.56,21.36-11.13,31.93-16.76a72.69,72.69,0,0,0,10.85-6.19C233.3,466.92,172.79,471.93,112.28,476Zm375.58,0h0l-181.6-13.91v.7l9.88,5.08,49.52,25.59a4.42,4.42,0,0,0,2.71.56l47.09-7,40.41-6.26ZM210.69,301.53a2.73,2.73,0,0,0-1.94,1L192.05,315c-11.12,8.42-22.18,16.83-33.38,25.18a10,10,0,0,0-3.34,4.45c-2.22,5.7-4.38,11.34-6.54,17L114,453l-4.87,12.52h0Zm279,162.05a14.61,14.61,0,0,0-1.67-6.05c-6.26-16.34-12.66-32.62-18.92-48.68l-24.83-64.69a6.94,6.94,0,0,0-2.29-3.41l-7-5.56-36-27.82a34.42,34.42,0,0,0-7.79-5.29ZM216.19,289.7h.42l77.9-175.13c-3.27,4.1-6.12,8.28-9.05,12.52L253.4,173.76c-8.55,12.45-17.11,24.83-25.53,37.35a26.44,26.44,0,0,0-6.6,13.91c-.35,10.85-1.6,21.63-2.44,32.48-.55,6.33-1.11,12.66-1.6,19Zm90.42-175.27h-.35l78.67,175.9a56.35,56.35,0,0,0,0-8.42c-.77-9-1.6-18.15-2.37-27.26s-1.74-18.29-2.43-27.41a20.89,20.89,0,0,0-3.83-11.82c-4-5.29-7.51-10.85-11.27-16.21l-46.6-67.32Zm56.06,380.31-7-3.68-54-27.82a3.08,3.08,0,0,0-2.92,0c-2.44,1.32-4.94,2.5-7.44,3.82l-37.63,19.76-15.23,7.92ZM219.6,225h-.49L158.74,337.28a9,9,0,0,0,2.78-1.53l15.93-12.11,34.15-25.52a5,5,0,0,0,2.29-3.55l2.72-33c.62-7.79,1.32-15.65,2-23.51C219,233.71,219.25,229.4,219.6,225ZM440.29,336.93l.42-.35L382,225.3a23.77,23.77,0,0,0,0,5.84l2.93,32.69,2.71,30.74a3.9,3.9,0,0,0,1.6,3c2.29,1.67,4.52,3.55,6.95,5.29L431,329.56Z"/></svg>