<svg id="Layer_1" data-name="Layer 1" xmlns="http://www.w3.org/2000/svg" viewBox="0 0 60 60"><defs><style>.cls-1{fill:#231f20;stroke:#231f20;stroke-miterlimit:10;stroke-width:0.5px;}</style></defs><path class="cls-1" d="M30.1,59H20.87A20.31,20.31,0,0,1,18,58.63c-2.66-.38-5.31-.79-8-1.2L1.28,56.11c-.31,0-.32-.19-.23-.42.54-1.38,1-2.75,1.6-4.11,1-2.54,1.94-5.13,2.92-7.64L8.36,36.6a34.92,34.92,0,0,1,2-3.8c.94-1.81,1.91-3.58,2.87-5.37,1.23-2.27,2.51-4.53,3.67-6.84a59.8,59.8,0,0,1,4.41-6.94c1.32-1.92,2.59-3.86,3.93-5.78s2.66-3.83,4-5.75l.62-1c.16-.24.28-.21.44,0,.84,1.21,1.68,2.41,2.51,3.63l4,5.75c1.44,2.06,2.85,4.17,4.32,6.22a40.71,40.71,0,0,1,2.62,4.58c1.31,2.45,2.6,4.91,3.89,7.36.86,1.63,1.66,3.29,2.58,4.89a51.38,51.38,0,0,1,3.08,7.25c1.17,3,2.31,5.95,3.45,8.92.77,2,1.52,4,2.29,5.93.1.24.06.35-.24.41L51,57.3l-7.94,1.22c-1,.16-2.12.32-3.19.46a2.16,2.16,0,0,1-.36,0ZM30,47.71H45.53c.45,0,.46,0,.25-.42l-1-1.92q-1.84-3.57-3.71-7.12c-1.23-2.37-2.48-4.74-3.71-7.11-.89-1.68-1.75-3.38-2.63-5.06S33.08,23,32.26,21.41l-2-3.91c-.07-.11-.11-.31-.25-.31s-.17.21-.24.32l-1.94,3.74-4.3,8.26-2.57,4.93-3.34,6.41c-1,2-2.15,4.1-3.23,6.15-.36.68-.36.68.4.68ZM1.77,55.65v.08l27.39-2.06V53.6l-.75-.29-5.41-2-9-3.27a.45.45,0,0,0-.42,0l-3.08,2L3.92,54.3Zm29.07-2v.08l27.37,2.06a12.37,12.37,0,0,0-1.38-1c-1.37-.87-2.74-1.73-4.11-2.62-2-1.31-4.1-2.62-6.16-4a.68.68,0,0,0-.66-.07l-5,1.83-8.28,3Zm27.53,1.8h0l-15.19-25c.19,1.37.43,2.72.68,4.1.44,2.32.87,4.64,1.32,7l1.14,6a.64.64,0,0,0,.28.46l5.75,3.65,3,1.93Zm-56.75,0a1,1,0,0,0,.44-.21l2-1.28,6-3.82c1.16-.73,2.3-1.48,3.45-2.2a.48.48,0,0,0,.25-.38c.25-1.3.51-2.59.76-3.87q1.14-5.72,2.27-11.41l.34-1.79H17ZM30.17,1.78v14.6a.69.69,0,0,0,.24.51l5.9,5.93c1.11,1.12,2.22,2.23,3.35,3.34l2.66,2.6Zm-.38.16L17.91,28.74l.11.08.27-.35,3-3.08,3.53-3.6c1.6-1.63,3.19-3.26,4.8-4.88a.92.92,0,0,0,.26-.66v-14A.44.44,0,0,0,29.79,1.94ZM14.84,48v.05l1.45.55,5.81,2.06,7.73,2.82a.58.58,0,0,0,.41,0l5.41-1.94,8-2.9L45.25,48H14.84Zm31-1.28h.08l-.37-2.06-1.64-8.8c-.34-1.89-.72-3.77-1.07-5.66a1.85,1.85,0,0,0-.47-1Q39.16,26.12,36,22.93c-1.67-1.67-3.32-3.35-5-5a.45.45,0,0,0-.34-.21Zm-31.66.05h0l15.18-29h-.08l-.56.56c-1.91,2-3.83,3.91-5.74,5.86l-5,5.13a1.66,1.66,0,0,0-.49.93c-.34,1.8-.7,3.61-1,5.41-.5,2.57-1,5.13-1.52,7.68C14.62,44.37,14.38,45.59,14.15,46.78ZM2.3,56h.07l7.08,1,10.64,1.73a.48.48,0,0,0,.35,0l2.39-1.26C24.4,56.6,26,55.78,27.54,55a11,11,0,0,0,1.6-.92C20.16,54.63,11.23,55.37,2.3,56Zm55.42,0h0l-26.8-2V54l1.46.75,7.31,3.78a.62.62,0,0,0,.4.08l6.95-1,6-.92ZM16.82,30.23a.35.35,0,0,0-.28.14l-2.47,1.84c-1.64,1.24-3.27,2.48-4.92,3.71a1.39,1.39,0,0,0-.49.66c-.33.84-.65,1.67-1,2.51L2.55,52.58l-.72,1.84h0ZM58,54.14a2.15,2.15,0,0,0-.24-.9c-.93-2.41-1.87-4.81-2.79-7.18l-3.67-9.54a1,1,0,0,0-.34-.51l-1-.82-5.31-4.1a4.76,4.76,0,0,0-1.15-.78ZM17.63,28.48h.07L29.19,2.64c-.48.61-.9,1.22-1.33,1.85l-4.74,6.88c-1.26,1.84-2.52,3.67-3.76,5.51a4,4,0,0,0-1,2.06c-.05,1.6-.23,3.19-.36,4.79-.08.93-.16,1.87-.23,2.8ZM31,2.62h-.06l11.61,26a8.55,8.55,0,0,0,0-1.24c-.11-1.33-.24-2.68-.35-4s-.26-2.7-.36-4a3,3,0,0,0-.56-1.75c-.59-.78-1.11-1.6-1.66-2.39L32.72,5.2Zm8.27,56.11-1-.54-8-4.11a.47.47,0,0,0-.43,0c-.36.2-.73.37-1.1.57l-5.55,2.91-2.25,1.17ZM18.14,18.94h-.07L9.16,35.5a1.27,1.27,0,0,0,.41-.23l2.35-1.78,5-3.77a.75.75,0,0,0,.34-.52l.4-4.87c.09-1.14.19-2.3.29-3.46ZM50.7,35.45l.06-.05L42.1,19a3.1,3.1,0,0,0,0,.86l.43,4.82.4,4.54a.56.56,0,0,0,.24.44c.33.25.66.52,1,.78l5.13,3.94Z"/></svg>