<svg width="25" height="25" viewBox="0 0 25 25" fill="none" xmlns="http://www.w3.org/2000/svg">
<path fill-rule="evenodd" clip-rule="evenodd" d="M20.2299 1.7666H20.6631C21.8896 1.7666 22.8934 2.77045 22.8934 3.99695V5.66951C22.8934 6.896 21.8896 7.89986 20.6631 7.89986H20.2299C19.0026 7.89986 17.9995 6.896 17.9995 5.66951V3.99695C17.9995 2.77045 19.0026 1.7666 20.2299 1.7666ZM12.1403 0H12.8597C14.8971 0 16.5641 1.66693 16.5641 3.70439V6.48208C16.5641 8.51953 14.8971 10.1865 12.8597 10.1865H12.1403C10.1029 10.1865 8.43594 8.51953 8.43594 6.48208V3.70439C8.43594 1.66693 10.1029 0 12.1403 0ZM12.4996 25L11.2683 23.3628L11.8325 14.7677H13.1675L13.7317 23.3628L12.4996 25ZM7.92156 11.9354H10.0506L10.7716 13.0815C11.0617 13.542 11.1445 14.0436 11.0191 14.5724C11.0079 14.6182 11.0006 14.6648 10.9982 14.7123L10.4332 23.3073C10.4324 23.3258 10.4316 23.3443 10.4316 23.3628H4.93731V14.9196C4.93731 13.2784 6.28034 11.9354 7.92156 11.9354ZM14.9494 11.9354H17.0784C18.7197 11.9354 20.0627 13.2784 20.0627 14.9196V23.3628H14.5684C14.5684 23.3443 14.5676 23.3258 14.5668 23.3073L14.0018 14.7123C13.9986 14.6648 13.9921 14.6182 13.9809 14.5724C13.8555 14.0436 13.9383 13.542 14.2284 13.0815L14.9494 11.9354ZM4.33692 1.7666H4.77013C5.99662 1.7666 7.00048 2.77045 7.00048 3.99695V5.66951C7.00048 6.896 5.99662 7.89986 4.77013 7.89986H4.33692C3.10963 7.89986 2.10657 6.896 2.10657 5.66951V3.99695C2.10657 2.77045 3.10963 1.7666 4.33692 1.7666ZM7.30992 8.95274C7.47227 8.95274 7.629 8.97444 7.77849 9.01543C8.11445 9.5909 8.56132 10.094 9.08937 10.4967C9.09339 10.5289 9.09741 10.5602 9.09982 10.5923H7.92156C5.5393 10.5923 3.59508 12.5374 3.59508 14.9196V15.8335H0V10.7499C0 9.76129 0.808552 8.95274 1.79714 8.95274C3.63446 8.95274 5.47259 8.95274 7.30992 8.95274ZM23.2029 8.95274C24.1914 8.95274 25 9.76129 25 10.7499V15.8335H21.4049V14.9196C21.4049 12.5374 19.4607 10.5923 17.0784 10.5923H15.9002C15.9026 10.5602 15.9066 10.5289 15.9106 10.4967C16.4387 10.094 16.8855 9.5909 17.2215 9.01543C17.371 8.97444 17.5277 8.95274 17.6893 8.95274C19.5274 8.95274 21.3655 8.95274 23.2029 8.95274Z" fill="#333333"/>
</svg>
