<svg width="205" height="72" viewBox="0 0 205 72" fill="none" xmlns="http://www.w3.org/2000/svg">
<g clip-path="url(#clip0_7265_54)">
<path d="M199.471 72H5.52909C2.4738 72 0 69.5244 0 66.4669V5.53315C0 2.47562 2.4738 0 5.52909 0H199.461C202.516 0 204.99 2.47562 204.99 5.53315V66.457C205 69.5244 202.526 72 199.471 72Z" fill="white"/>
<path d="M70.252 37.815C71.2671 38.6337 71.7796 39.7482 71.7796 41.1685C71.7796 42.066 71.5628 42.8748 71.139 43.5849C70.7152 44.295 70.0647 44.8671 69.2072 45.2813C68.3498 45.6956 67.2854 45.9027 66.0337 45.9027C64.9594 45.9027 63.9344 45.735 62.9291 45.4096C61.9337 45.0841 61.1058 44.6304 60.4553 44.0485L61.4508 42.3323C61.9731 42.8254 62.6334 43.22 63.4416 43.5159C64.2498 43.8117 65.1072 43.9597 66.0041 43.9597C67.1474 43.9597 68.0344 43.7131 68.6652 43.2298C69.2959 42.7465 69.6113 42.0857 69.6113 41.2474C69.6113 40.34 69.2664 39.6496 68.5666 39.1761C67.8669 38.7027 66.6842 38.4759 65.0087 38.4759H61.5592L62.3575 30.5361H70.9221V32.42H64.1808L63.7669 36.592H65.4621C67.6402 36.592 69.2368 36.9964 70.252 37.815Z" fill="#E5712B"/>
<path d="M73.9676 45.429C73.6818 45.143 73.5339 44.7879 73.5339 44.354C73.5339 43.9299 73.6818 43.5846 73.9676 43.2986C74.2534 43.0126 74.6082 42.8745 75.0123 42.8745C75.4164 42.8745 75.7613 43.0126 76.0274 43.2888C76.3034 43.5649 76.4414 43.92 76.4414 44.354C76.4414 44.7879 76.3034 45.143 76.0176 45.429C75.7318 45.7151 75.3967 45.8531 75.0123 45.8531C74.6082 45.8531 74.2633 45.7151 73.9676 45.429Z" fill="#E5712B"/>
<path d="M81.2412 44.9754C80.3049 44.3639 79.5755 43.4663 79.0433 42.2926C78.5111 41.1189 78.245 39.7283 78.245 38.1305C78.245 36.5326 78.5111 35.1321 79.0433 33.9683C79.5755 32.7946 80.3147 31.9069 81.2412 31.2855C82.1774 30.674 83.2419 30.3584 84.4443 30.3584C85.627 30.3584 86.6914 30.6642 87.6178 31.2855C88.5541 31.897 89.2835 32.7946 89.8157 33.9683C90.3479 35.142 90.614 36.5326 90.614 38.1305C90.614 39.7283 90.3479 41.1288 89.8157 42.2926C89.2835 43.4663 88.5443 44.354 87.6178 44.9754C86.6815 45.5869 85.627 45.8926 84.4443 45.8926C83.2419 45.9025 82.1774 45.5869 81.2412 44.9754ZM87.3616 42.4702C88.0909 41.474 88.4556 40.0242 88.4556 38.1305C88.4556 36.2368 88.0909 34.7869 87.3616 33.7907C86.6323 32.7946 85.6565 32.2916 84.4443 32.2916C83.2123 32.2916 82.2366 32.7946 81.5073 33.7907C80.7779 34.7869 80.4133 36.2368 80.4133 38.1305C80.4133 40.0242 80.7779 41.474 81.5073 42.4702C82.2366 43.4663 83.2123 43.9694 84.4443 43.9694C85.6565 43.9694 86.6323 43.4663 87.3616 42.4702Z" fill="#E5712B"/>
<path d="M110.72 43.4562C110.789 43.9198 110.503 44.1269 110.079 43.9099L106.62 42.1642C106.206 41.957 105.516 41.9472 105.102 42.1543L101.623 43.8705C101.209 44.0776 100.923 43.8705 100.992 43.4069L101.583 39.5702C101.652 39.1066 101.445 38.4557 101.12 38.1203L98.4197 35.339C98.0945 35.0036 98.2029 34.6683 98.6661 34.5992L102.49 33.9779C102.953 33.899 103.505 33.5044 103.722 33.0902L105.526 29.6579C105.743 29.2436 106.097 29.2436 106.304 29.6579L108.078 33.1C108.295 33.5143 108.847 33.9187 109.3 33.9976L113.125 34.6584C113.588 34.7373 113.686 35.0726 113.361 35.408L110.631 38.1598C110.306 38.4951 110.089 39.1362 110.158 39.5998L110.72 43.4562Z" fill="#E5712B"/>
<g opacity="0.5">
<path d="M105.92 29.5596C105.989 29.5596 106.078 29.6385 106.147 29.7667L107.921 33.2187C108.167 33.6922 108.758 34.1261 109.281 34.2149L113.105 34.8757C113.253 34.8955 113.351 34.9546 113.371 35.0237C113.391 35.0927 113.341 35.1913 113.243 35.2998L110.513 38.0516C110.138 38.4264 109.912 39.1267 109.981 39.6494L110.532 43.4861C110.552 43.6144 110.532 43.713 110.493 43.7722C110.483 43.782 110.454 43.8116 110.385 43.8116C110.325 43.8116 110.247 43.7919 110.168 43.7524L106.708 42.0067C106.482 41.8883 106.176 41.8292 105.851 41.8292C105.536 41.8292 105.24 41.8883 105.013 41.9968L101.534 43.713C101.455 43.7524 101.376 43.7722 101.317 43.7722C101.248 43.7722 101.219 43.7426 101.209 43.7327C101.169 43.6834 101.15 43.5749 101.169 43.4467L101.761 39.61C101.84 39.0872 101.613 38.3771 101.248 38.0023L98.5478 35.2209C98.4493 35.1124 98.4 35.0138 98.4197 34.9448C98.4394 34.8757 98.538 34.8165 98.6858 34.7968L102.51 34.1755C103.032 34.0867 103.633 33.6527 103.88 33.1892L105.683 29.7568C105.762 29.6385 105.841 29.5596 105.92 29.5596ZM105.92 29.3623C105.782 29.3623 105.634 29.4609 105.526 29.6681L103.722 33.1004C103.505 33.5146 102.953 33.9092 102.49 33.9881L98.6661 34.6094C98.2029 34.6883 98.0945 35.0237 98.4197 35.3492L101.12 38.1305C101.445 38.4659 101.652 39.1168 101.583 39.5804L100.992 43.4171C100.943 43.7524 101.081 43.9596 101.327 43.9596C101.416 43.9596 101.514 43.93 101.623 43.8807L105.102 42.1645C105.309 42.0659 105.585 42.0067 105.851 42.0067C106.127 42.0067 106.403 42.0659 106.62 42.1645L110.079 43.9102C110.187 43.9694 110.296 43.9892 110.385 43.9892C110.631 43.9892 110.769 43.7919 110.72 43.4467L110.168 39.61C110.099 39.1464 110.316 38.4955 110.641 38.17L113.371 35.4182C113.696 35.0829 113.588 34.7475 113.134 34.6686L109.31 34.0078C108.847 33.9289 108.305 33.5245 108.088 33.1102L106.314 29.6681C106.206 29.4708 106.058 29.3623 105.92 29.3623Z" fill="#E5712B"/>
</g>
<path d="M130.737 43.4562C130.806 43.9198 130.52 44.1269 130.096 43.9099L126.637 42.1642C126.223 41.957 125.533 41.9472 125.119 42.1543L121.64 43.8705C121.226 44.0776 120.94 43.8705 121.009 43.4069L121.6 39.5702C121.669 39.1066 121.462 38.4557 121.137 38.1203L118.437 35.339C118.111 35.0036 118.22 34.6683 118.683 34.5992L122.507 33.9779C122.97 33.899 123.522 33.5044 123.739 33.0902L125.543 29.6579C125.76 29.2436 126.114 29.2436 126.331 29.6579L128.105 33.1C128.322 33.5143 128.874 33.9187 129.327 33.9976L133.151 34.6584C133.615 34.7373 133.713 35.0726 133.388 35.408L130.658 38.1598C130.333 38.4951 130.116 39.1362 130.185 39.5998L130.737 43.4562Z" fill="#E5712B"/>
<g opacity="0.5">
<path d="M125.937 29.5596C126.006 29.5596 126.095 29.6385 126.164 29.7667L127.938 33.2187C128.184 33.6922 128.775 34.1261 129.298 34.2149L133.122 34.8757C133.27 34.8955 133.368 34.9546 133.388 35.0237C133.408 35.0927 133.358 35.1913 133.26 35.2998L130.53 38.0516C130.155 38.4264 129.929 39.1267 129.998 39.6494L130.549 43.4861C130.569 43.6144 130.549 43.713 130.51 43.7722C130.5 43.782 130.471 43.8116 130.402 43.8116C130.342 43.8116 130.264 43.7919 130.185 43.7524L126.725 42.0067C126.499 41.8883 126.193 41.8292 125.868 41.8292C125.553 41.8292 125.257 41.8883 125.03 41.9968L121.551 43.713C121.472 43.7524 121.393 43.7722 121.334 43.7722C121.265 43.7722 121.236 43.7426 121.226 43.7327C121.186 43.6834 121.167 43.5749 121.186 43.4467L121.778 39.61C121.857 39.0872 121.63 38.3771 121.265 38.0023L118.565 35.2209C118.466 35.1124 118.417 35.0138 118.437 34.9448C118.456 34.8757 118.555 34.8165 118.703 34.7968L122.527 34.1755C123.049 34.0867 123.65 33.6527 123.897 33.1892L125.7 29.7568C125.779 29.6385 125.868 29.5596 125.937 29.5596ZM125.937 29.3623C125.799 29.3623 125.651 29.4609 125.543 29.6681L123.739 33.1004C123.522 33.5146 122.97 33.9092 122.507 33.9881L118.683 34.6094C118.22 34.6883 118.111 35.0237 118.437 35.3492L121.137 38.1305C121.462 38.4659 121.669 39.1168 121.6 39.5804L121.009 43.4171C120.96 43.7524 121.098 43.9596 121.344 43.9596C121.433 43.9596 121.531 43.93 121.64 43.8807L125.119 42.1645C125.326 42.0659 125.602 42.0067 125.868 42.0067C126.144 42.0067 126.42 42.0659 126.637 42.1645L130.096 43.9102C130.205 43.9694 130.313 43.9892 130.392 43.9892C130.638 43.9892 130.776 43.7919 130.727 43.4467L130.175 39.61C130.106 39.1464 130.323 38.4955 130.648 38.17L133.378 35.4182C133.703 35.0829 133.595 34.7475 133.142 34.6686L129.318 34.0078C128.854 33.9289 128.312 33.5245 128.095 33.1102L126.321 29.6681C126.223 29.4708 126.075 29.3623 125.937 29.3623Z" fill="#E5712B"/>
</g>
<path d="M150.754 43.4562C150.823 43.9198 150.537 44.1269 150.113 43.9099L146.654 42.1642C146.24 41.957 145.55 41.9472 145.136 42.1543L141.657 43.8705C141.243 44.0776 140.957 43.8705 141.026 43.4069L141.618 39.5702C141.687 39.1066 141.48 38.4557 141.154 38.1203L138.454 35.339C138.129 35.0036 138.237 34.6683 138.7 34.5992L142.524 33.9779C142.987 33.899 143.539 33.5044 143.756 33.0902L145.56 29.6579C145.777 29.2436 146.131 29.2436 146.338 29.6579L148.112 33.1C148.329 33.5143 148.881 33.9187 149.335 33.9976L153.159 34.6584C153.622 34.7373 153.72 35.0726 153.395 35.408L150.665 38.1598C150.34 38.4951 150.123 39.1362 150.192 39.5998L150.754 43.4562Z" fill="#E5712B"/>
<g opacity="0.5">
<path d="M145.954 29.5596C146.023 29.5596 146.112 29.6385 146.181 29.7667L147.955 33.2187C148.201 33.6922 148.793 34.1261 149.315 34.2149L153.139 34.8757C153.287 34.8955 153.385 34.9546 153.405 35.0237C153.425 35.0927 153.375 35.1913 153.277 35.2998L150.547 38.0516C150.172 38.4264 149.946 39.1267 150.015 39.6494L150.567 43.4861C150.586 43.6144 150.567 43.713 150.527 43.7722C150.517 43.782 150.488 43.8116 150.419 43.8116C150.36 43.8116 150.281 43.7919 150.202 43.7524L146.743 42.0067C146.516 41.8883 146.21 41.8292 145.895 41.8292C145.58 41.8292 145.284 41.8883 145.057 41.9968L141.578 43.713C141.499 43.7524 141.42 43.7722 141.361 43.7722C141.292 43.7722 141.263 43.7426 141.253 43.7327C141.213 43.6834 141.194 43.5749 141.213 43.4467L141.805 39.61C141.884 39.0872 141.657 38.3771 141.292 38.0023L138.592 35.2209C138.493 35.1124 138.444 35.0138 138.464 34.9448C138.483 34.8757 138.582 34.8165 138.73 34.7968L142.554 34.1755C143.076 34.0867 143.677 33.6527 143.924 33.1892L145.727 29.7568C145.796 29.6385 145.885 29.5596 145.954 29.5596ZM145.954 29.3623C145.816 29.3623 145.668 29.4609 145.56 29.6681L143.756 33.1004C143.539 33.5146 142.987 33.9092 142.524 33.9881L138.7 34.6094C138.237 34.6883 138.129 35.0237 138.454 35.3492L141.154 38.1305C141.48 38.4659 141.687 39.1168 141.618 39.5804L141.026 43.4171C140.977 43.7524 141.115 43.9596 141.361 43.9596C141.45 43.9596 141.549 43.93 141.657 43.8807L145.136 42.1645C145.343 42.0659 145.609 42.0067 145.885 42.0067C146.161 42.0067 146.437 42.0659 146.654 42.1645L150.113 43.9102C150.222 43.9694 150.33 43.9892 150.409 43.9892C150.655 43.9892 150.793 43.7919 150.744 43.4467L150.192 39.61C150.123 39.1464 150.34 38.4955 150.665 38.17L153.395 35.4182C153.72 35.0829 153.612 34.7475 153.159 34.6686L149.335 34.0078C148.871 33.9289 148.329 33.5245 148.112 33.1102L146.338 29.6681C146.24 29.4708 146.092 29.3623 145.954 29.3623Z" fill="#E5712B"/>
</g>
<path d="M170.771 43.4562C170.84 43.9198 170.554 44.1269 170.14 43.9099L166.681 42.1642C166.267 41.957 165.577 41.9472 165.163 42.1543L161.684 43.8705C161.27 44.0776 160.984 43.8705 161.053 43.4069L161.645 39.5702C161.714 39.1066 161.507 38.4557 161.181 38.1203L158.481 35.339C158.156 35.0036 158.264 34.6683 158.727 34.5992L162.551 33.9779C163.015 33.899 163.566 33.5044 163.783 33.0902L165.587 29.6579C165.804 29.2436 166.159 29.2436 166.366 29.6579L168.14 33.1C168.356 33.5143 168.908 33.9187 169.362 33.9976L173.176 34.6584C173.639 34.7373 173.738 35.0726 173.412 35.408L170.682 38.1598C170.357 38.4951 170.14 39.1362 170.209 39.5998L170.771 43.4562Z" fill="#E5712B"/>
<g opacity="0.5">
<path d="M165.971 29.5596C166.04 29.5596 166.129 29.6385 166.198 29.7667L167.972 33.2187C168.218 33.6922 168.81 34.1261 169.332 34.2149L173.146 34.8757C173.294 34.8955 173.393 34.9546 173.412 35.0237C173.432 35.0927 173.383 35.1913 173.284 35.2998L170.554 38.0516C170.18 38.4264 169.953 39.1267 170.022 39.6494L170.574 43.4861C170.594 43.6144 170.574 43.713 170.534 43.7722C170.525 43.782 170.495 43.8116 170.426 43.8116C170.367 43.8116 170.288 43.7919 170.209 43.7524L166.75 42.0067C166.523 41.8883 166.218 41.8292 165.892 41.8292C165.577 41.8292 165.281 41.8883 165.055 41.9968L161.575 43.713C161.497 43.7524 161.418 43.7722 161.359 43.7722C161.29 43.7722 161.26 43.7426 161.25 43.7327C161.211 43.6834 161.191 43.5749 161.211 43.4467L161.802 39.61C161.881 39.0872 161.654 38.3771 161.29 38.0023L158.589 35.2209C158.491 35.1124 158.441 35.0138 158.461 34.9448C158.481 34.8757 158.579 34.8165 158.727 34.7968L162.551 34.1755C163.074 34.0867 163.675 33.6527 163.921 33.1892L165.725 29.7568C165.813 29.6385 165.902 29.5596 165.971 29.5596ZM165.971 29.3623C165.833 29.3623 165.685 29.4609 165.577 29.6681L163.773 33.1004C163.556 33.5146 163.005 33.9092 162.541 33.9881L158.717 34.6094C158.254 34.6883 158.146 35.0237 158.471 35.3492L161.171 38.1305C161.497 38.4659 161.704 39.1168 161.635 39.5804L161.043 43.4171C160.994 43.7524 161.132 43.9596 161.378 43.9596C161.467 43.9596 161.566 43.93 161.674 43.8807L165.153 42.1645C165.36 42.0659 165.636 42.0067 165.902 42.0067C166.178 42.0067 166.454 42.0659 166.671 42.1645L170.13 43.9102C170.239 43.9694 170.347 43.9892 170.426 43.9892C170.672 43.9892 170.81 43.7919 170.761 43.4467L170.209 39.61C170.14 39.1464 170.357 38.4955 170.682 38.17L173.412 35.4182C173.737 35.0829 173.629 34.7475 173.176 34.6686L169.362 34.0078C168.898 33.9289 168.356 33.5245 168.139 33.1102L166.365 29.6681C166.257 29.4708 166.119 29.3623 165.971 29.3623Z" fill="#E5712B"/>
</g>
<path d="M190.788 43.4562C190.857 43.9198 190.571 44.1269 190.157 43.9099L186.698 42.1642C186.284 41.957 185.594 41.9472 185.18 42.1543L181.701 43.8705C181.287 44.0776 181.001 43.8705 181.07 43.4069L181.662 39.5702C181.731 39.1066 181.524 38.4557 181.198 38.1203L178.498 35.339C178.173 35.0036 178.281 34.6683 178.744 34.5992L182.568 33.9779C183.032 33.899 183.584 33.5044 183.8 33.0902L185.604 29.6579C185.821 29.2436 186.176 29.2436 186.392 29.6579L188.166 33.1C188.383 33.5143 188.935 33.9187 189.389 33.9976L193.203 34.6584C193.666 34.7373 193.774 35.0726 193.439 35.408L190.709 38.1598C190.384 38.4951 190.167 39.1362 190.236 39.5998L190.788 43.4562Z" fill="#E5712B"/>
<g opacity="0.5">
<path d="M185.988 29.5596C186.057 29.5596 186.146 29.6385 186.215 29.7667L187.989 33.2187C188.235 33.6922 188.827 34.1261 189.349 34.2149L193.163 34.8757C193.311 34.8955 193.41 34.9546 193.429 35.0237C193.449 35.0927 193.4 35.1913 193.301 35.2998L190.571 38.0516C190.197 38.4264 189.97 39.1267 190.039 39.6494L190.591 43.4861C190.611 43.6144 190.591 43.713 190.551 43.7722C190.542 43.782 190.512 43.8116 190.443 43.8116C190.384 43.8116 190.305 43.7919 190.226 43.7524L186.767 42.0067C186.54 41.8883 186.235 41.8292 185.919 41.8292C185.604 41.8292 185.308 41.8883 185.081 41.9968L181.602 43.713C181.523 43.7524 181.445 43.7722 181.386 43.7722C181.317 43.7722 181.287 43.7426 181.277 43.7327C181.228 43.6834 181.218 43.5749 181.238 43.4467L181.829 39.61C181.908 39.0872 181.681 38.3771 181.317 38.0023L178.616 35.2209C178.517 35.1124 178.468 35.0138 178.488 34.9448C178.508 34.8757 178.606 34.8165 178.754 34.7968L182.578 34.1755C183.1 34.0867 183.702 33.6527 183.948 33.1892L185.752 29.7568C185.83 29.6385 185.919 29.5596 185.988 29.5596ZM185.988 29.3623C185.85 29.3623 185.702 29.4609 185.594 29.6681L183.79 33.1004C183.573 33.5146 183.022 33.9092 182.558 33.9881L178.734 34.6094C178.271 34.6883 178.163 35.0237 178.488 35.3492L181.188 38.1305C181.514 38.4659 181.721 39.1168 181.652 39.5804L181.06 43.4171C181.011 43.7524 181.149 43.9596 181.395 43.9596C181.484 43.9596 181.583 43.93 181.691 43.8807L185.17 42.1645C185.377 42.0659 185.653 42.0067 185.919 42.0067C186.195 42.0067 186.471 42.0659 186.688 42.1645L190.147 43.9102C190.256 43.9694 190.354 43.9892 190.443 43.9892C190.689 43.9892 190.827 43.7919 190.778 43.4467L190.226 39.61C190.157 39.1464 190.374 38.4955 190.699 38.17L193.429 35.4182C193.755 35.0829 193.646 34.7475 193.193 34.6686L189.379 34.0275C188.915 33.9486 188.373 33.5442 188.156 33.13L186.382 29.6878C186.274 29.4708 186.136 29.3623 185.988 29.3623Z" fill="#E5712B"/>
</g>
<path d="M51.1702 35.8529C51.1702 34.5115 51.0519 33.2392 50.845 32.0063H31.6952V39.66H42.6647C42.1719 42.1751 40.7329 44.2858 38.5942 45.7357V50.825H45.1385C48.9625 47.2743 51.1702 42.0469 51.1702 35.8529Z" fill="#4285F4"/>
<path d="M31.6952 55.7565C37.1849 55.7565 41.7776 53.922 45.1385 50.825L38.5942 45.7258C36.7611 46.9488 34.445 47.6885 31.6952 47.6885C26.3928 47.6885 21.8986 44.1083 20.2921 39.2754H13.5507V44.5127C16.882 51.1702 23.7416 55.7565 31.6952 55.7565Z" fill="#34A853"/>
<path d="M20.2921 39.2852C19.8683 38.0622 19.6514 36.7603 19.6514 35.3992C19.6514 34.0381 19.888 32.7362 20.2921 31.5131V26.2759H13.5507C12.161 29.0277 11.3627 32.1148 11.3627 35.3992C11.3627 38.6934 12.161 41.7805 13.5507 44.5225L20.2921 39.2852Z" fill="#FBBC05"/>
<path d="M31.6952 23.1001C34.6913 23.1001 37.3721 24.1357 39.4911 26.1576L45.2863 20.3582C41.7776 17.0639 37.1848 15.042 31.6952 15.042C23.7416 15.042 16.8819 19.6184 13.5408 26.2661L20.2822 31.5034C21.8985 26.6803 26.3928 23.1001 31.6952 23.1001Z" fill="#EA4335"/>
<path d="M68.8426 14.4002H69.8183V18.0889C69.3649 18.4834 68.8327 18.7892 68.2217 18.9963C67.6007 19.2034 66.9601 19.3119 66.2801 19.3119C65.3142 19.3119 64.4469 19.1048 63.6683 18.6807C62.8995 18.2566 62.2885 17.6747 61.845 16.9152C61.4015 16.1656 61.1846 15.3273 61.1846 14.4002C61.1846 13.473 61.4015 12.6347 61.845 11.8752C62.2885 11.1256 62.8897 10.5339 63.6683 10.1097C64.437 9.68564 65.3142 9.47852 66.2899 9.47852C67.0291 9.47852 67.6993 9.59687 68.3202 9.83358C68.9411 10.0703 69.4536 10.4155 69.8774 10.8791L69.2467 11.53C68.4878 10.7706 67.512 10.3958 66.3392 10.3958C65.5606 10.3958 64.851 10.5634 64.2202 10.9087C63.5894 11.2539 63.0966 11.7371 62.7418 12.3487C62.387 12.9602 62.1998 13.6407 62.1998 14.4002C62.1998 15.1596 62.3772 15.8402 62.7418 16.4418C63.0966 17.0533 63.5894 17.5267 64.2202 17.8818C64.8411 18.227 65.5507 18.4045 66.3293 18.4045C67.3248 18.4045 68.1625 18.158 68.8524 17.655V14.4002H68.8426Z" fill="black"/>
<path d="M73.5733 18.8188C73.0115 18.5031 72.568 18.0593 72.2526 17.4971C71.9373 16.9349 71.7697 16.3037 71.7697 15.5936C71.7697 14.8834 71.9274 14.2522 72.2526 13.69C72.5779 13.1278 73.0115 12.6938 73.5733 12.3782C74.1351 12.0626 74.7659 11.9048 75.4656 11.9048C76.1654 11.9048 76.7962 12.0626 77.3579 12.3782C77.9197 12.6938 78.3632 13.1278 78.6786 13.69C78.994 14.2522 79.1517 14.8834 79.1517 15.5936C79.1517 16.3037 78.994 16.9349 78.6786 17.4971C78.3632 18.0593 77.9197 18.5031 77.3579 18.8188C76.7962 19.1344 76.1654 19.2922 75.4656 19.2922C74.7659 19.2922 74.1351 19.1344 73.5733 18.8188ZM76.8454 18.079C77.2594 17.8423 77.5748 17.507 77.8014 17.073C78.0281 16.639 78.1464 16.1459 78.1464 15.5936C78.1464 15.0412 78.0281 14.5481 77.8014 14.1141C77.5748 13.6801 77.2495 13.3448 76.8454 13.1179C76.4315 12.8812 75.9781 12.7629 75.4558 12.7629C74.9433 12.7629 74.4801 12.8812 74.0661 13.1179C73.6522 13.3546 73.3368 13.69 73.1002 14.1141C72.8637 14.5481 72.7454 15.0412 72.7454 15.5936C72.7454 16.1459 72.8637 16.639 73.1002 17.073C73.3368 17.507 73.6522 17.8423 74.0661 18.079C74.4801 18.3157 74.9334 18.4341 75.4558 18.4341C75.9781 18.4242 76.4413 18.3059 76.8454 18.079Z" fill="black"/>
<path d="M82.2267 18.8188C81.6649 18.5031 81.2214 18.0593 80.906 17.4971C80.5906 16.9349 80.4231 16.3037 80.4231 15.5936C80.4231 14.8834 80.5808 14.2522 80.906 13.69C81.2313 13.1278 81.6649 12.6938 82.2267 12.3782C82.7885 12.0626 83.4192 11.9048 84.119 11.9048C84.8188 11.9048 85.4495 12.0626 86.0113 12.3782C86.5731 12.6938 87.0166 13.1278 87.332 13.69C87.6474 14.2522 87.8051 14.8834 87.8051 15.5936C87.8051 16.3037 87.6474 16.9349 87.332 17.4971C87.0166 18.0593 86.5731 18.5031 86.0113 18.8188C85.4495 19.1344 84.8188 19.2922 84.119 19.2922C83.4094 19.2922 82.7885 19.1344 82.2267 18.8188ZM85.4988 18.079C85.9128 17.8423 86.2281 17.507 86.4548 17.073C86.6815 16.639 86.7998 16.1459 86.7998 15.5936C86.7998 15.0412 86.6815 14.5481 86.4548 14.1141C86.2281 13.6801 85.9029 13.3448 85.4988 13.1179C85.0849 12.8812 84.6315 12.7629 84.1092 12.7629C83.5967 12.7629 83.1334 12.8812 82.7195 13.1179C82.3055 13.3546 81.9902 13.69 81.7536 14.1141C81.5171 14.5481 81.3988 15.0412 81.3988 15.5936C81.3988 16.1459 81.5171 16.639 81.7536 17.073C81.9902 17.507 82.3055 17.8423 82.7195 18.079C83.1334 18.3157 83.5868 18.4341 84.1092 18.4341C84.6315 18.4242 85.0947 18.3059 85.4988 18.079Z" fill="black"/>
<path d="M96.5176 11.964V18.3453C96.5176 19.5782 96.2121 20.4955 95.6109 21.0873C95.0096 21.679 94.1029 21.9749 92.8808 21.9749C92.2106 21.9749 91.57 21.8763 90.9688 21.679C90.3676 21.4818 89.8748 21.2056 89.5003 20.8604L89.9931 20.1108C90.338 20.4264 90.7717 20.6631 91.2645 20.8407C91.7671 21.0182 92.2895 21.107 92.8414 21.107C93.758 21.107 94.438 20.89 94.8717 20.4659C95.3053 20.0418 95.5221 19.3711 95.5221 18.4736V17.5464C95.2166 18.01 94.8224 18.3552 94.3296 18.5919C93.8368 18.8286 93.2947 18.947 92.6935 18.947C92.0135 18.947 91.3926 18.799 90.8407 18.4933C90.2887 18.1974 89.8452 17.7733 89.5298 17.2407C89.2145 16.6982 89.0568 16.0966 89.0568 15.416C89.0568 14.7355 89.2145 14.124 89.5298 13.5914C89.8452 13.0588 90.2789 12.6445 90.8308 12.3486C91.3827 12.0527 92.0036 11.9048 92.6935 11.9048C93.3145 11.9048 93.8664 12.033 94.3592 12.2796C94.852 12.5262 95.256 12.8911 95.5616 13.3546V11.964H96.5176ZM94.231 17.7437C94.6548 17.5168 94.9801 17.2012 95.2166 16.7968C95.4532 16.3925 95.5714 15.9289 95.5714 15.416C95.5714 14.9031 95.4532 14.4396 95.2166 14.0451C94.9801 13.6407 94.6548 13.3349 94.2409 13.1081C93.827 12.8812 93.344 12.7727 92.8118 12.7727C92.2895 12.7727 91.8164 12.8812 91.3926 13.1081C90.9786 13.3251 90.6435 13.6407 90.4169 14.0451C90.1803 14.4494 90.062 14.913 90.062 15.4259C90.062 15.9388 90.1803 16.4023 90.4169 16.8067C90.6534 17.2111 90.9786 17.5267 91.3926 17.7536C91.8065 17.9804 92.2796 18.0889 92.8118 18.0889C93.344 18.0889 93.8072 17.9705 94.231 17.7437Z" fill="black"/>
<path d="M99.2673 8.98535H100.243V19.233H99.2673V8.98535Z" fill="black"/>
<path d="M109.291 15.8993H103.219C103.279 16.6588 103.564 17.2604 104.087 17.724C104.609 18.1875 105.279 18.4242 106.078 18.4242C106.531 18.4242 106.945 18.3453 107.319 18.1777C107.694 18.0199 108.019 17.7831 108.295 17.4675L108.847 18.0988C108.522 18.4834 108.128 18.7793 107.645 18.9864C107.162 19.1936 106.63 19.2922 106.048 19.2922C105.299 19.2922 104.639 19.1344 104.067 18.8188C103.495 18.5031 103.042 18.0593 102.717 17.4971C102.392 16.9349 102.234 16.3037 102.234 15.5936C102.234 14.8834 102.392 14.2522 102.697 13.69C103.003 13.1278 103.426 12.6938 103.968 12.3782C104.501 12.0626 105.112 11.9048 105.782 11.9048C106.452 11.9048 107.053 12.0626 107.586 12.3782C108.118 12.6938 108.542 13.1278 108.837 13.6801C109.143 14.2325 109.291 14.8736 109.291 15.5936V15.8993ZM104.028 13.4237C103.555 13.8675 103.288 14.4494 103.219 15.1694H108.364C108.295 14.4494 108.029 13.8675 107.556 13.4237C107.083 12.9799 106.492 12.753 105.782 12.753C105.092 12.753 104.501 12.9799 104.028 13.4237Z" fill="black"/>
<path d="M121.729 19.2331L119.521 16.1263C119.275 16.1559 119.018 16.1657 118.752 16.1657H116.16V19.2331H115.135V9.56738H118.752C119.984 9.56738 120.95 9.86327 121.65 10.4551C122.35 11.0468 122.695 11.8556 122.695 12.8814C122.695 13.6408 122.507 14.272 122.123 14.7948C121.739 15.3175 121.196 15.6923 120.487 15.9192L122.842 19.2331H121.729ZM120.911 14.6567C121.413 14.2326 121.67 13.6408 121.67 12.8715C121.67 12.0923 121.413 11.4907 120.911 11.0666C120.408 10.6523 119.679 10.4353 118.713 10.4353H116.15V15.2781H118.713C119.679 15.2879 120.408 15.0808 120.911 14.6567Z" fill="black"/>
<path d="M129.554 12.6247C130.057 13.0981 130.313 13.7984 130.313 14.7354V19.2329H129.377V18.0987C129.16 18.4735 128.835 18.7693 128.401 18.9863C127.977 19.1935 127.465 19.3019 126.873 19.3019C126.065 19.3019 125.425 19.1047 124.942 18.72C124.459 18.3354 124.222 17.8225 124.222 17.1913C124.222 16.5699 124.449 16.0767 124.892 15.7019C125.336 15.3272 126.045 15.1398 127.021 15.1398H129.327V14.6959C129.327 14.0746 129.15 13.5913 128.805 13.2658C128.46 12.9403 127.948 12.7726 127.277 12.7726C126.814 12.7726 126.371 12.8515 125.957 12.9995C125.533 13.1474 125.168 13.3644 124.863 13.6307L124.419 12.9009C124.784 12.5852 125.227 12.3485 125.74 12.171C126.252 12.0033 126.794 11.9146 127.366 11.9146C128.312 11.9146 129.042 12.1513 129.554 12.6247ZM128.45 18.148C128.844 17.8915 129.14 17.5266 129.337 17.0532V15.8696H127.061C125.819 15.8696 125.198 16.3036 125.198 17.1715C125.198 17.5956 125.356 17.931 125.681 18.1776C126.006 18.4241 126.45 18.5425 127.031 18.5425C127.573 18.5228 128.046 18.3946 128.45 18.148Z" fill="black"/>
<path d="M136.788 18.789C136.601 18.9567 136.374 19.0849 136.108 19.1737C135.832 19.2625 135.556 19.3019 135.261 19.3019C134.581 19.3019 134.058 19.1145 133.684 18.7496C133.319 18.3846 133.132 17.8619 133.132 17.1912V12.8022H131.831V11.9737H133.132V10.3857H134.108V11.9737H136.315V12.8022H134.108V17.1419C134.108 17.5759 134.216 17.9014 134.433 18.1282C134.65 18.3551 134.955 18.4635 135.369 18.4635C135.576 18.4635 135.763 18.434 135.951 18.3649C136.138 18.2959 136.305 18.2071 136.443 18.0888L136.788 18.789Z" fill="black"/>
<path d="M138.562 10.1689C138.424 10.0308 138.355 9.86316 138.355 9.67576C138.355 9.48837 138.424 9.33056 138.562 9.19247C138.7 9.05439 138.868 8.98535 139.075 8.98535C139.282 8.98535 139.449 9.05439 139.587 9.18261C139.725 9.32069 139.794 9.4785 139.794 9.65604C139.794 9.86316 139.725 10.0308 139.587 10.1689C139.449 10.307 139.282 10.376 139.075 10.376C138.868 10.376 138.7 10.307 138.562 10.1689ZM138.572 11.964H139.548V19.2232H138.572V11.964Z" fill="black"/>
<path d="M148.152 12.7038C148.694 13.2364 148.96 14.0057 148.96 15.0216V19.2331H147.984V15.1202C147.984 14.3608 147.797 13.7887 147.423 13.3942C147.048 12.9997 146.506 12.8024 145.806 12.8024C145.028 12.8024 144.407 13.0391 143.953 13.5027C143.5 13.9662 143.273 14.6073 143.273 15.426V19.2331H142.298V11.9739H143.234V13.3153C143.5 12.8714 143.875 12.5262 144.348 12.2895C144.821 12.0429 145.373 11.9246 145.994 11.9246C146.89 11.9147 147.62 12.1712 148.152 12.7038Z" fill="black"/>
<path d="M158.372 11.964V18.3453C158.372 19.5782 158.067 20.4955 157.466 21.0873C156.864 21.679 155.958 21.9749 154.745 21.9749C154.075 21.9749 153.435 21.8763 152.833 21.679C152.232 21.4818 151.739 21.2056 151.365 20.8604L151.858 20.1108C152.203 20.4264 152.636 20.6631 153.129 20.8407C153.632 21.0182 154.154 21.107 154.706 21.107C155.623 21.107 156.303 20.89 156.736 20.4659C157.17 20.0418 157.387 19.3711 157.387 18.4736V17.5464C157.081 18.01 156.687 18.3552 156.194 18.5919C155.701 18.8286 155.159 18.947 154.558 18.947C153.878 18.947 153.257 18.799 152.705 18.4933C152.153 18.1875 151.71 17.7733 151.394 17.2407C151.079 16.6982 150.921 16.0966 150.921 15.416C150.921 14.7355 151.079 14.124 151.394 13.5914C151.71 13.0588 152.143 12.6445 152.695 12.3486C153.247 12.0527 153.868 11.9048 154.558 11.9048C155.169 11.9048 155.731 12.033 156.224 12.2796C156.717 12.5262 157.121 12.8911 157.426 13.3546V11.964H158.372ZM156.086 17.7437C156.51 17.5168 156.835 17.2012 157.071 16.7968C157.308 16.3925 157.426 15.9289 157.426 15.416C157.426 14.9031 157.308 14.4396 157.071 14.0451C156.835 13.6407 156.51 13.3349 156.096 13.1081C155.682 12.8812 155.199 12.7727 154.667 12.7727C154.144 12.7727 153.671 12.8812 153.247 13.1081C152.833 13.3251 152.498 13.6407 152.272 14.0451C152.035 14.4494 151.917 14.913 151.917 15.4259C151.917 15.9388 152.035 16.4023 152.272 16.8067C152.508 17.2111 152.833 17.5267 153.247 17.7536C153.661 17.9804 154.134 18.0889 154.667 18.0889C155.189 18.079 155.662 17.9705 156.086 17.7437Z" fill="black"/>
<path d="M61.0096 60.8252V53.1252H64.3316C65.1896 53.1252 65.8532 53.2975 66.3226 53.6422C66.7992 53.9869 67.0376 54.4745 67.0376 55.1052C67.0376 55.5232 66.9386 55.8752 66.7406 56.1612C66.5499 56.4472 66.2859 56.6635 65.9486 56.8102C65.6186 56.9569 65.2556 57.0302 64.8596 57.0302L65.0466 56.7662C65.5379 56.7662 65.9596 56.8432 66.3116 56.9972C66.6709 57.1439 66.9496 57.3675 67.1476 57.6682C67.3456 57.9615 67.4446 58.3282 67.4446 58.7682C67.4446 59.4209 67.2026 59.9269 66.7186 60.2862C66.2419 60.6455 65.5196 60.8252 64.5516 60.8252H61.0096ZM61.8236 60.1542H64.5406C65.2152 60.1542 65.7322 60.0405 66.0916 59.8132C66.4509 59.5785 66.6306 59.2082 66.6306 58.7022C66.6306 58.2035 66.4509 57.8405 66.0916 57.6132C65.7322 57.3785 65.2152 57.2612 64.5406 57.2612H61.7356V56.5902H64.2766C64.8926 56.5902 65.3692 56.4729 65.7066 56.2382C66.0512 56.0035 66.2236 55.6552 66.2236 55.1932C66.2236 54.7239 66.0512 54.3755 65.7066 54.1482C65.3692 53.9135 64.8926 53.7962 64.2766 53.7962H61.8236V60.1542ZM72.7565 60.8252V59.5492L72.7235 59.3402V57.2062C72.7235 56.7149 72.5842 56.3372 72.3055 56.0732C72.0342 55.8092 71.6272 55.6772 71.0845 55.6772C70.7105 55.6772 70.3549 55.7395 70.0175 55.8642C69.6802 55.9889 69.3942 56.1539 69.1595 56.3592L68.8075 55.7762C69.1009 55.5269 69.4529 55.3362 69.8635 55.2042C70.2742 55.0649 70.7069 54.9952 71.1615 54.9952C71.9095 54.9952 72.4852 55.1822 72.8885 55.5562C73.2992 55.9229 73.5045 56.4839 73.5045 57.2392V60.8252H72.7565ZM70.7655 60.8802C70.3329 60.8802 69.9552 60.8105 69.6325 60.6712C69.3172 60.5245 69.0752 60.3265 68.9065 60.0772C68.7379 59.8205 68.6535 59.5272 68.6535 59.1972C68.6535 58.8965 68.7232 58.6252 68.8625 58.3832C69.0092 58.1339 69.2439 57.9359 69.5665 57.7892C69.8965 57.6352 70.3365 57.5582 70.8865 57.5582H72.8775V58.1412H70.9085C70.3512 58.1412 69.9625 58.2402 69.7425 58.4382C69.5299 58.6362 69.4235 58.8819 69.4235 59.1752C69.4235 59.5052 69.5519 59.7692 69.8085 59.9672C70.0652 60.1652 70.4245 60.2642 70.8865 60.2642C71.3265 60.2642 71.7042 60.1652 72.0195 59.9672C72.3422 59.7619 72.5769 59.4685 72.7235 59.0872L72.8995 59.6262C72.7529 60.0075 72.4962 60.3119 72.1295 60.5392C71.7702 60.7665 71.3155 60.8802 70.7655 60.8802ZM77.1768 60.8802C76.7001 60.8802 76.2491 60.8142 75.8238 60.6822C75.3985 60.5429 75.0648 60.3705 74.8228 60.1652L75.1748 59.5492C75.4095 59.7252 75.7101 59.8792 76.0768 60.0112C76.4435 60.1359 76.8285 60.1982 77.2318 60.1982C77.7818 60.1982 78.1778 60.1139 78.4198 59.9452C78.6618 59.7692 78.7828 59.5382 78.7828 59.2522C78.7828 59.0395 78.7131 58.8745 78.5738 58.7572C78.4418 58.6325 78.2658 58.5409 78.0458 58.4822C77.8258 58.4162 77.5801 58.3612 77.3088 58.3172C77.0375 58.2732 76.7661 58.2219 76.4948 58.1632C76.2308 58.1045 75.9888 58.0202 75.7688 57.9102C75.5488 57.7929 75.3691 57.6352 75.2298 57.4372C75.0978 57.2392 75.0318 56.9752 75.0318 56.6452C75.0318 56.3299 75.1198 56.0475 75.2958 55.7982C75.4718 55.5489 75.7285 55.3545 76.0658 55.2152C76.4105 55.0685 76.8285 54.9952 77.3198 54.9952C77.6938 54.9952 78.0678 55.0465 78.4418 55.1492C78.8158 55.2445 79.1238 55.3729 79.3658 55.5342L79.0248 56.1612C78.7681 55.9852 78.4931 55.8605 78.1998 55.7872C77.9065 55.7065 77.6131 55.6662 77.3198 55.6662C76.7991 55.6662 76.4141 55.7579 76.1648 55.9412C75.9228 56.1172 75.8018 56.3445 75.8018 56.6232C75.8018 56.8432 75.8678 57.0155 75.9998 57.1402C76.1391 57.2649 76.3188 57.3639 76.5388 57.4372C76.7661 57.5032 77.0118 57.5582 77.2758 57.6022C77.5471 57.6462 77.8148 57.7012 78.0788 57.7672C78.3501 57.8259 78.5958 57.9102 78.8158 58.0202C79.0431 58.1229 79.2228 58.2732 79.3548 58.4712C79.4941 58.6619 79.5638 58.9149 79.5638 59.2302C79.5638 59.5675 79.4685 59.8609 79.2778 60.1102C79.0945 60.3522 78.8231 60.5429 78.4638 60.6822C78.1118 60.8142 77.6828 60.8802 77.1768 60.8802ZM83.4499 60.8802C82.8486 60.8802 82.3206 60.7555 81.8659 60.5062C81.4112 60.2495 81.0556 59.9012 80.7989 59.4612C80.5422 59.0139 80.4139 58.5042 80.4139 57.9322C80.4139 57.3602 80.5349 56.8542 80.7769 56.4142C81.0262 55.9742 81.3636 55.6295 81.7889 55.3802C82.2216 55.1235 82.7056 54.9952 83.2409 54.9952C83.7836 54.9952 84.2639 55.1199 84.6819 55.3692C85.1072 55.6112 85.4409 55.9559 85.6829 56.4032C85.9249 56.8432 86.0459 57.3529 86.0459 57.9322C86.0459 57.9689 86.0422 58.0092 86.0349 58.0532C86.0349 58.0899 86.0349 58.1302 86.0349 58.1742H81.0079V57.5912H85.6169L85.3089 57.8222C85.3089 57.4042 85.2172 57.0339 85.0339 56.7112C84.8579 56.3812 84.6159 56.1245 84.3079 55.9412C83.9999 55.7579 83.6442 55.6662 83.2409 55.6662C82.8449 55.6662 82.4892 55.7579 82.1739 55.9412C81.8586 56.1245 81.6129 56.3812 81.4369 56.7112C81.2609 57.0412 81.1729 57.4189 81.1729 57.8442V57.9652C81.1729 58.4052 81.2682 58.7939 81.4589 59.1312C81.6569 59.4612 81.9282 59.7215 82.2729 59.9122C82.6249 60.0955 83.0246 60.1872 83.4719 60.1872C83.8239 60.1872 84.1502 60.1249 84.4509 60.0002C84.7589 59.8755 85.0229 59.6849 85.2429 59.4282L85.6829 59.9342C85.4262 60.2422 85.1036 60.4769 84.7149 60.6382C84.3336 60.7995 83.9119 60.8802 83.4499 60.8802ZM89.9346 60.8802C89.3846 60.8802 88.8896 60.7555 88.4496 60.5062C88.0169 60.2569 87.6759 59.9122 87.4266 59.4722C87.1772 59.0249 87.0526 58.5115 87.0526 57.9322C87.0526 57.3455 87.1772 56.8322 87.4266 56.3922C87.6759 55.9522 88.0169 55.6112 88.4496 55.3692C88.8896 55.1199 89.3846 54.9952 89.9346 54.9952C90.4406 54.9952 90.8916 55.1089 91.2876 55.3362C91.6909 55.5635 92.0099 55.8972 92.2446 56.3372C92.4866 56.7699 92.6076 57.3015 92.6076 57.9322C92.6076 58.5555 92.4902 59.0872 92.2556 59.5272C92.0209 59.9672 91.7019 60.3045 91.2986 60.5392C90.9026 60.7665 90.4479 60.8802 89.9346 60.8802ZM89.9896 60.1872C90.4002 60.1872 90.7669 60.0955 91.0896 59.9122C91.4196 59.7215 91.6762 59.4575 91.8596 59.1202C92.0502 58.7755 92.1456 58.3795 92.1456 57.9322C92.1456 57.4775 92.0502 57.0815 91.8596 56.7442C91.6762 56.4069 91.4196 56.1465 91.0896 55.9632C90.7669 55.7725 90.4002 55.6772 89.9896 55.6772C89.5862 55.6772 89.2232 55.7725 88.9006 55.9632C88.5779 56.1465 88.3212 56.4069 88.1306 56.7442C87.9399 57.0815 87.8446 57.4775 87.8446 57.9322C87.8446 58.3795 87.9399 58.7755 88.1306 59.1202C88.3212 59.4575 88.5779 59.7215 88.9006 59.9122C89.2232 60.0955 89.5862 60.1872 89.9896 60.1872ZM92.1676 60.8252V59.0872L92.2446 57.9212L92.1346 56.7552V52.6632H92.9156V60.8252H92.1676ZM100.324 60.8802C99.7662 60.8802 99.2639 60.7555 98.8166 60.5062C98.3766 60.2495 98.0282 59.9012 97.7716 59.4612C97.5149 59.0139 97.3866 58.5042 97.3866 57.9322C97.3866 57.3529 97.5149 56.8432 97.7716 56.4032C98.0282 55.9632 98.3766 55.6185 98.8166 55.3692C99.2566 55.1199 99.7589 54.9952 100.324 54.9952C100.896 54.9952 101.402 55.1199 101.842 55.3692C102.289 55.6185 102.637 55.9632 102.887 56.4032C103.143 56.8432 103.272 57.3529 103.272 57.9322C103.272 58.5042 103.143 59.0139 102.887 59.4612C102.637 59.9012 102.289 60.2495 101.842 60.5062C101.394 60.7555 100.888 60.8802 100.324 60.8802ZM100.324 60.1872C100.742 60.1872 101.112 60.0955 101.435 59.9122C101.757 59.7215 102.01 59.4575 102.194 59.1202C102.384 58.7755 102.48 58.3795 102.48 57.9322C102.48 57.4775 102.384 57.0815 102.194 56.7442C102.01 56.4069 101.757 56.1465 101.435 55.9632C101.112 55.7725 100.745 55.6772 100.335 55.6772C99.9239 55.6772 99.5572 55.7725 99.2346 55.9632C98.9119 56.1465 98.6552 56.4069 98.4646 56.7442C98.2739 57.0815 98.1786 57.4775 98.1786 57.9322C98.1786 58.3795 98.2739 58.7755 98.4646 59.1202C98.6552 59.4575 98.9119 59.7215 99.2346 59.9122C99.5572 60.0955 99.9202 60.1872 100.324 60.1872ZM107.814 54.9952C108.283 54.9952 108.694 55.0869 109.046 55.2702C109.405 55.4462 109.684 55.7175 109.882 56.0842C110.087 56.4509 110.19 56.9129 110.19 57.4702V60.8252H109.409V57.5472C109.409 56.9385 109.255 56.4802 108.947 56.1722C108.646 55.8569 108.221 55.6992 107.671 55.6992C107.26 55.6992 106.901 55.7835 106.593 55.9522C106.292 56.1135 106.058 56.3519 105.889 56.6672C105.728 56.9752 105.647 57.3492 105.647 57.7892V60.8252H104.866V55.0502H105.614V56.6342L105.493 56.3372C105.676 55.9192 105.97 55.5929 106.373 55.3582C106.776 55.1162 107.257 54.9952 107.814 54.9952ZM115.707 60.8252V53.7852L116.477 54.5552H114.167V53.1252H117.489V60.8252H115.707ZM118.76 60.8252V59.6702L121.73 56.8652C121.965 56.6525 122.137 56.4619 122.247 56.2932C122.357 56.1245 122.43 55.9705 122.467 55.8312C122.511 55.6919 122.533 55.5635 122.533 55.4462C122.533 55.1382 122.427 54.9035 122.214 54.7422C122.009 54.5735 121.704 54.4892 121.301 54.4892C120.978 54.4892 120.678 54.5515 120.399 54.6762C120.128 54.8009 119.897 54.9952 119.706 55.2592L118.408 54.4232C118.701 53.9832 119.112 53.6349 119.64 53.3782C120.168 53.1215 120.777 52.9932 121.466 52.9932C122.038 52.9932 122.537 53.0885 122.962 53.2792C123.395 53.4625 123.728 53.7229 123.963 54.0602C124.205 54.3975 124.326 54.8009 124.326 55.2702C124.326 55.5195 124.293 55.7689 124.227 56.0182C124.168 56.2602 124.044 56.5169 123.853 56.7882C123.67 57.0595 123.398 57.3639 123.039 57.7012L120.575 60.0222L120.234 59.3732H124.579V60.8252H118.76ZM128.614 60.9572C127.984 60.9572 127.419 60.8032 126.92 60.4952C126.422 60.1799 126.029 59.7252 125.743 59.1312C125.457 58.5372 125.314 57.8185 125.314 56.9752C125.314 56.1319 125.457 55.4132 125.743 54.8192C126.029 54.2252 126.422 53.7742 126.92 53.4662C127.419 53.1509 127.984 52.9932 128.614 52.9932C129.252 52.9932 129.817 53.1509 130.308 53.4662C130.807 53.7742 131.199 54.2252 131.485 54.8192C131.771 55.4132 131.914 56.1319 131.914 56.9752C131.914 57.8185 131.771 58.5372 131.485 59.1312C131.199 59.7252 130.807 60.1799 130.308 60.4952C129.817 60.8032 129.252 60.9572 128.614 60.9572ZM128.614 59.4502C128.915 59.4502 129.175 59.3659 129.395 59.1972C129.623 59.0285 129.799 58.7609 129.923 58.3942C130.055 58.0275 130.121 57.5545 130.121 56.9752C130.121 56.3959 130.055 55.9229 129.923 55.5562C129.799 55.1895 129.623 54.9219 129.395 54.7532C129.175 54.5845 128.915 54.5002 128.614 54.5002C128.321 54.5002 128.061 54.5845 127.833 54.7532C127.613 54.9219 127.437 55.1895 127.305 55.5562C127.181 55.9229 127.118 56.3959 127.118 56.9752C127.118 57.5545 127.181 58.0275 127.305 58.3942C127.437 58.7609 127.613 59.0285 127.833 59.1972C128.061 59.3659 128.321 59.4502 128.614 59.4502ZM136.08 60.9572C135.45 60.9572 134.885 60.8032 134.386 60.4952C133.888 60.1799 133.495 59.7252 133.209 59.1312C132.923 58.5372 132.78 57.8185 132.78 56.9752C132.78 56.1319 132.923 55.4132 133.209 54.8192C133.495 54.2252 133.888 53.7742 134.386 53.4662C134.885 53.1509 135.45 52.9932 136.08 52.9932C136.718 52.9932 137.283 53.1509 137.774 53.4662C138.273 53.7742 138.665 54.2252 138.951 54.8192C139.237 55.4132 139.38 56.1319 139.38 56.9752C139.38 57.8185 139.237 58.5372 138.951 59.1312C138.665 59.7252 138.273 60.1799 137.774 60.4952C137.283 60.8032 136.718 60.9572 136.08 60.9572ZM136.08 59.4502C136.381 59.4502 136.641 59.3659 136.861 59.1972C137.089 59.0285 137.265 58.7609 137.389 58.3942C137.521 58.0275 137.587 57.5545 137.587 56.9752C137.587 56.3959 137.521 55.9229 137.389 55.5562C137.265 55.1895 137.089 54.9219 136.861 54.7532C136.641 54.5845 136.381 54.5002 136.08 54.5002C135.787 54.5002 135.527 54.5845 135.299 54.7532C135.079 54.9219 134.903 55.1895 134.771 55.5562C134.647 55.9229 134.584 56.3959 134.584 56.9752C134.584 57.5545 134.647 58.0275 134.771 58.3942C134.903 58.7609 135.079 59.0285 135.299 59.1972C135.527 59.3659 135.787 59.4502 136.08 59.4502ZM142.434 59.5162V54.4342H143.853V59.5162H142.434ZM140.531 57.6462V56.3042H145.767V57.6462H140.531ZM150.462 60.8252V53.1252H153.795C154.485 53.1252 155.079 53.2389 155.577 53.4662C156.076 53.6862 156.461 54.0052 156.733 54.4232C157.004 54.8412 157.14 55.3399 157.14 55.9192C157.14 56.4912 157.004 56.9862 156.733 57.4042C156.461 57.8149 156.076 58.1302 155.577 58.3502C155.079 58.5702 154.485 58.6802 153.795 58.6802H151.452L152.244 57.8992V60.8252H150.462ZM155.357 60.8252L153.432 58.0312H155.335L157.282 60.8252H155.357ZM152.244 58.0972L151.452 57.2612H153.696C154.246 57.2612 154.657 57.1439 154.928 56.9092C155.2 56.6672 155.335 56.3372 155.335 55.9192C155.335 55.4939 155.2 55.1639 154.928 54.9292C154.657 54.6945 154.246 54.5772 153.696 54.5772H151.452L152.244 53.7302V58.0972ZM161.367 60.9132C160.693 60.9132 160.099 60.7812 159.585 60.5172C159.079 60.2532 158.687 59.8939 158.408 59.4392C158.13 58.9772 157.99 58.4529 157.99 57.8662C157.99 57.2722 158.126 56.7479 158.397 56.2932C158.676 55.8312 159.054 55.4719 159.53 55.2152C160.007 54.9512 160.546 54.8192 161.147 54.8192C161.727 54.8192 162.247 54.9439 162.709 55.1932C163.179 55.4352 163.549 55.7872 163.82 56.2492C164.092 56.7039 164.227 57.2502 164.227 57.8882C164.227 57.9542 164.224 58.0312 164.216 58.1192C164.209 58.1999 164.202 58.2769 164.194 58.3502H159.387V57.3492H163.292L162.632 57.6462C162.632 57.3382 162.57 57.0705 162.445 56.8432C162.321 56.6159 162.148 56.4399 161.928 56.3152C161.708 56.1832 161.452 56.1172 161.158 56.1172C160.865 56.1172 160.605 56.1832 160.377 56.3152C160.157 56.4399 159.985 56.6195 159.86 56.8542C159.736 57.0815 159.673 57.3529 159.673 57.6682V57.9322C159.673 58.2549 159.743 58.5409 159.882 58.7902C160.029 59.0322 160.231 59.2192 160.487 59.3512C160.751 59.4759 161.059 59.5382 161.411 59.5382C161.727 59.5382 162.002 59.4905 162.236 59.3952C162.478 59.2999 162.698 59.1569 162.896 58.9662L163.809 59.9562C163.538 60.2642 163.197 60.5025 162.786 60.6712C162.376 60.8325 161.903 60.9132 161.367 60.9132ZM166.868 60.8252L164.382 54.9072H166.153L168.221 60.0002H167.341L169.486 54.9072H171.136L168.639 60.8252H166.868ZM171.837 60.8252V54.9072H173.553V60.8252H171.837ZM172.695 54.0822C172.379 54.0822 172.123 53.9905 171.925 53.8072C171.727 53.6239 171.628 53.3965 171.628 53.1252C171.628 52.8539 171.727 52.6265 171.925 52.4432C172.123 52.2599 172.379 52.1682 172.695 52.1682C173.01 52.1682 173.267 52.2562 173.465 52.4322C173.663 52.6009 173.762 52.8209 173.762 53.0922C173.762 53.3782 173.663 53.6165 173.465 53.8072C173.274 53.9905 173.017 54.0822 172.695 54.0822ZM178.082 60.9132C177.408 60.9132 176.814 60.7812 176.3 60.5172C175.794 60.2532 175.402 59.8939 175.123 59.4392C174.845 58.9772 174.705 58.4529 174.705 57.8662C174.705 57.2722 174.841 56.7479 175.112 56.2932C175.391 55.8312 175.769 55.4719 176.245 55.2152C176.722 54.9512 177.261 54.8192 177.862 54.8192C178.442 54.8192 178.962 54.9439 179.424 55.1932C179.894 55.4352 180.264 55.7872 180.535 56.2492C180.807 56.7039 180.942 57.2502 180.942 57.8882C180.942 57.9542 180.939 58.0312 180.931 58.1192C180.924 58.1999 180.917 58.2769 180.909 58.3502H176.102V57.3492H180.007L179.347 57.6462C179.347 57.3382 179.285 57.0705 179.16 56.8432C179.036 56.6159 178.863 56.4399 178.643 56.3152C178.423 56.1832 178.167 56.1172 177.873 56.1172C177.58 56.1172 177.32 56.1832 177.092 56.3152C176.872 56.4399 176.7 56.6195 176.575 56.8542C176.451 57.0815 176.388 57.3529 176.388 57.6682V57.9322C176.388 58.2549 176.458 58.5409 176.597 58.7902C176.744 59.0322 176.946 59.2192 177.202 59.3512C177.466 59.4759 177.774 59.5382 178.126 59.5382C178.442 59.5382 178.717 59.4905 178.951 59.3952C179.193 59.2999 179.413 59.1569 179.611 58.9662L180.524 59.9562C180.253 60.2642 179.912 60.5025 179.501 60.6712C179.091 60.8325 178.618 60.9132 178.082 60.9132ZM183.33 60.8252L181.196 54.9072H182.813L184.584 60.0002H183.814L185.662 54.9072H187.114L188.907 60.0002H188.137L189.963 54.9072H191.481L189.336 60.8252H187.675L186.102 56.4582H186.608L184.98 60.8252H183.33ZM194.184 60.9132C193.678 60.9132 193.19 60.8545 192.721 60.7372C192.259 60.6125 191.892 60.4585 191.621 60.2752L192.193 59.0432C192.464 59.2119 192.783 59.3512 193.15 59.4612C193.524 59.5639 193.891 59.6152 194.25 59.6152C194.646 59.6152 194.925 59.5675 195.086 59.4722C195.255 59.3769 195.339 59.2449 195.339 59.0762C195.339 58.9369 195.273 58.8342 195.141 58.7682C195.016 58.6949 194.848 58.6399 194.635 58.6032C194.422 58.5665 194.188 58.5299 193.931 58.4932C193.682 58.4565 193.429 58.4089 193.172 58.3502C192.915 58.2842 192.681 58.1889 192.468 58.0642C192.255 57.9395 192.083 57.7709 191.951 57.5582C191.826 57.3455 191.764 57.0705 191.764 56.7332C191.764 56.3592 191.87 56.0292 192.083 55.7432C192.303 55.4572 192.618 55.2335 193.029 55.0722C193.44 54.9035 193.931 54.8192 194.503 54.8192C194.906 54.8192 195.317 54.8632 195.735 54.9512C196.153 55.0392 196.501 55.1675 196.78 55.3362L196.208 56.5572C195.922 56.3885 195.632 56.2749 195.339 56.2162C195.053 56.1502 194.774 56.1172 194.503 56.1172C194.122 56.1172 193.843 56.1685 193.667 56.2712C193.491 56.3739 193.403 56.5059 193.403 56.6672C193.403 56.8139 193.465 56.9239 193.59 56.9972C193.722 57.0705 193.894 57.1292 194.107 57.1732C194.32 57.2172 194.551 57.2575 194.8 57.2942C195.057 57.3235 195.313 57.3712 195.57 57.4372C195.827 57.5032 196.058 57.5985 196.263 57.7232C196.476 57.8405 196.648 58.0055 196.78 58.2182C196.912 58.4235 196.978 58.6949 196.978 59.0322C196.978 59.3989 196.868 59.7252 196.648 60.0112C196.428 60.2899 196.109 60.5099 195.691 60.6712C195.28 60.8325 194.778 60.9132 194.184 60.9132Z" fill="black"/>
<path d="M114.09 62.2002H197.242V62.7502H114.09V62.2002Z" fill="black"/>
</g>
<defs>
<clipPath id="clip0_7265_54">
<rect width="205" height="72" fill="white"/>
</clipPath>
</defs>
</svg>
