<svg width="14" height="14" viewBox="0 0 14 14" fill="none" xmlns="http://www.w3.org/2000/svg">
<path d="M12.9916 1.53588C12.9633 1.25255 12.7508 1.04009 12.4674 1.01176C8.88327 0.728426 6.31911 2.47088 4.71827 4.65255C3.83994 4.36922 2.89077 4.4684 2.02661 4.95006C1.19077 5.41756 0.496607 6.21093 0.0432734 7.17426C-0.0558932 7.40093 -0.0133932 7.65587 0.170773 7.82587C0.340773 7.99587 0.60994 8.02422 0.82244 7.91088C1.72911 7.42922 2.74911 7.5284 3.35827 8.13756L5.85161 10.6309L5.86577 10.6451C6.47494 11.2543 6.57411 12.2742 6.09244 13.1809C5.97911 13.3934 6.02161 13.6626 6.17744 13.8326C6.29077 13.9459 6.43244 14.0026 6.58827 14.0026C6.67327 14.0026 6.75827 13.9884 6.82911 13.9459C7.79244 13.4926 8.58577 12.7842 9.05327 11.9626C9.54911 11.0984 9.64827 10.1492 9.35077 9.25672C9.98827 8.78922 10.5691 8.27923 11.0508 7.71256C12.5383 5.9984 13.1899 3.91588 12.9916 1.53588ZM1.88494 6.48004C2.49411 5.88504 3.25911 5.51673 4.06661 5.6584C3.83994 6.05506 3.65577 6.45172 3.48577 6.84838C3.00411 6.57922 2.45161 6.4517 1.88494 6.48004ZM7.53744 12.1184C7.55161 11.5376 7.42411 10.9851 7.16911 10.5034C7.57994 10.3334 7.97661 10.1351 8.35911 9.92258C8.50077 10.7301 8.14661 11.5092 7.53744 12.1184ZM6.40411 9.58259L4.40661 7.58508C5.41244 4.90758 7.89161 2.03173 11.8724 2.11673C12.0141 6.86256 8.10411 8.91676 6.40411 9.58259ZM10.0733 3.93004C10.2433 4.10004 10.3424 4.34088 10.3424 4.58172C10.3424 4.82255 10.2433 5.0634 10.0733 5.2334C9.90327 5.4034 9.66244 5.50255 9.42161 5.50255C9.18077 5.50255 8.93994 5.4034 8.76994 5.2334C8.59994 5.0634 8.50077 4.82255 8.50077 4.58172C8.50077 4.34088 8.59994 4.10004 8.76994 3.93004C8.93994 3.76004 9.18077 3.66088 9.42161 3.66088C9.66244 3.66088 9.90327 3.76004 10.0733 3.93004ZM2.09744 9.82338C1.44577 10.475 1.41744 11.7784 1.41744 12.0334C1.41744 12.3451 1.67244 12.6001 1.98411 12.6001H1.99827C2.29577 12.6001 3.54244 12.5576 4.17994 11.9201C4.57661 11.5234 4.66161 11.1126 4.66161 10.8434C4.66161 10.4609 4.50577 10.0926 4.20827 9.79509C3.49994 9.07259 2.60744 9.29922 2.09744 9.82338ZM3.38661 11.1126C3.24494 11.2542 2.93327 11.3534 2.60744 11.3959C2.66411 11.0701 2.76327 10.7584 2.89077 10.6309C2.98994 10.5317 3.07494 10.4751 3.17411 10.4751C3.24494 10.4751 3.32994 10.5176 3.41494 10.6026C3.49994 10.6876 3.54244 10.7726 3.54244 10.8434C3.52827 10.9284 3.45744 11.0417 3.38661 11.1126Z" fill="#0B131A"/>
</svg>
