<svg width="236" height="30" viewBox="0 0 236 30" fill="none" xmlns="http://www.w3.org/2000/svg">
<path fill-rule="evenodd" clip-rule="evenodd" d="M47.7734 0H2.13867C1.25 0 0.693359 0.130031 0.390625 0.399381C0.126953 0.705883 0 1.20743 0 1.95046V4.72755V6.96594V22.969V25.3096V27.9845C0 29.3127 0.722656 30 2.13867 30H47.7734C49.2578 30 50 29.3127 50 27.9845V25.3096V22.969V6.95666V4.71827V1.94118C50 0.631579 49.2578 0 47.7734 0Z" fill="white"/>
<path d="M20.5428 14.3563C20.414 15.1643 19.7933 15.1643 19.1961 15.1643H18.8566L19.0907 13.642C19.1025 13.5483 19.1844 13.4781 19.2781 13.4781H19.4303C19.8402 13.4781 20.2266 13.4781 20.4257 13.7123C20.5545 13.8645 20.5896 14.0753 20.5428 14.3563ZM20.2852 12.2368H18.0251C17.8729 12.2368 17.7441 12.3539 17.709 12.5061L16.7956 18.3142C16.7722 18.4313 16.8659 18.5367 16.983 18.5367H18.0603C18.2125 18.5367 18.3413 18.4196 18.3764 18.2674L18.6224 16.6983C18.6458 16.546 18.7746 16.429 18.9385 16.429H19.6528C21.14 16.429 22.0065 15.7029 22.229 14.2743C22.3344 13.6537 22.229 13.1619 21.9363 12.8106C21.6084 12.4359 21.0346 12.2368 20.2852 12.2368Z" fill="#253D80"/>
<path d="M25.5282 16.4402C25.4228 17.0608 24.931 17.4707 24.3104 17.4707C23.9942 17.4707 23.7483 17.3653 23.5844 17.1779C23.4204 16.9906 23.3619 16.7213 23.4087 16.4168C23.5024 15.8079 24.0059 15.3746 24.6265 15.3746C24.931 15.3746 25.1886 15.48 25.3526 15.6674C25.5165 15.8664 25.575 16.1475 25.5282 16.4402ZM27.0388 14.3324H25.9498C25.8561 14.3324 25.7741 14.4027 25.7624 14.4964L25.7156 14.8008L25.6453 14.6955C25.4111 14.3559 24.8842 14.2388 24.3689 14.2388C23.1745 14.2388 22.144 15.1404 21.945 16.4168C21.8396 17.0491 21.9918 17.658 22.3431 18.0796C22.671 18.466 23.1511 18.63 23.7132 18.63C24.6734 18.63 25.212 18.0093 25.212 18.0093L25.1652 18.3138C25.1418 18.4309 25.2355 18.5363 25.3526 18.5363H26.3245C26.4767 18.5363 26.6055 18.4192 26.6406 18.267L27.2261 14.5549C27.2496 14.4378 27.1559 14.3324 27.0388 14.3324Z" fill="#253D80"/>
<path d="M32.8151 14.3325H31.7261C31.6207 14.3325 31.527 14.3794 31.4685 14.473L29.9696 16.6862L29.3373 14.555C29.3021 14.4262 29.1733 14.3325 29.0328 14.3325H27.9672C27.8384 14.3325 27.7447 14.4613 27.7915 14.5784L28.986 18.1031L27.8618 19.6957C27.7681 19.8245 27.8618 19.9884 28.014 19.9884H29.1031C29.2084 19.9884 29.3021 19.9416 29.3607 19.8479L32.979 14.6136C33.061 14.5082 32.9673 14.3325 32.8151 14.3325Z" fill="#253D80"/>
<path d="M36.6931 14.3563C36.5643 15.1643 35.9437 15.1643 35.3465 15.1643H35.0069L35.2528 13.642C35.2645 13.5483 35.3465 13.4781 35.4402 13.4781H35.5924C36.0023 13.4781 36.3887 13.4781 36.5877 13.7123C36.6931 13.8645 36.7283 14.0753 36.6931 14.3563ZM36.4238 12.2368H34.1638C34.0116 12.2368 33.8828 12.3539 33.8594 12.5061L32.946 18.3142C32.9226 18.4313 33.0163 18.5367 33.1334 18.5367H34.2926C34.398 18.5367 34.4917 18.4548 34.5151 18.3494L34.7727 16.71C34.7961 16.5578 34.925 16.4407 35.0889 16.4407H35.8032C37.2903 16.4407 38.1569 15.7146 38.3793 14.286C38.4847 13.6654 38.3793 13.1736 38.0866 12.8223C37.7587 12.4359 37.1849 12.2368 36.4238 12.2368Z" fill="#189BD7"/>
<path d="M41.6766 16.4402C41.5712 17.0608 41.0794 17.4707 40.4588 17.4707C40.1426 17.4707 39.8967 17.3653 39.7328 17.1779C39.5688 16.9906 39.5103 16.7213 39.5571 16.4168C39.6508 15.8079 40.1543 15.3746 40.775 15.3746C41.0794 15.3746 41.337 15.48 41.501 15.6674C41.6532 15.8664 41.7234 16.1475 41.6766 16.4402ZM43.1872 14.3324H42.1099C42.0162 14.3324 41.9342 14.4027 41.9225 14.4964L41.8757 14.8008L41.7937 14.6955C41.5595 14.3559 41.0326 14.2388 40.5173 14.2388C39.3229 14.2388 38.2925 15.1404 38.0934 16.4168C37.988 17.0491 38.1402 17.658 38.4915 18.0796C38.8194 18.466 39.2995 18.63 39.8616 18.63C40.8218 18.63 41.3604 18.0093 41.3604 18.0093L41.3136 18.3138C41.2902 18.4309 41.3839 18.5363 41.501 18.5363H42.4729C42.6251 18.5363 42.7539 18.4192 42.7773 18.267L43.3628 14.5549C43.3862 14.4378 43.3043 14.3324 43.1872 14.3324Z" fill="#189BD7"/>
<path d="M44.4678 12.4008L43.5427 18.3142C43.5193 18.4313 43.6129 18.5367 43.73 18.5367H44.6668C44.8191 18.5367 44.9479 18.4196 44.983 18.2674L45.8964 12.4593C45.9198 12.3422 45.8261 12.2368 45.709 12.2368H44.6668C44.5614 12.2368 44.4795 12.3071 44.4678 12.4008Z" fill="#189BD7"/>
<path d="M7.39102 19.6487L7.56667 18.5479L7.18025 18.5362H5.3418L6.61817 10.433C6.61817 10.4096 6.62988 10.3862 6.6533 10.3745C6.67672 10.3628 6.70014 10.3511 6.72356 10.3511H9.82667C10.8571 10.3511 11.5714 10.5619 11.9345 10.9834C12.1101 11.1825 12.2155 11.3932 12.274 11.6157C12.3326 11.8499 12.3326 12.1427 12.274 12.494V12.5174V12.7399L12.4497 12.8336C12.6019 12.9155 12.7073 12.9975 12.801 13.1029C12.9532 13.2785 13.0469 13.4893 13.082 13.7469C13.1289 14.0045 13.1054 14.3207 13.0469 14.672C12.9649 15.0818 12.8361 15.4331 12.6605 15.7259C12.4965 15.9952 12.2975 16.2177 12.0515 16.3933C11.8174 16.5573 11.548 16.6861 11.2436 16.7563C10.9391 16.8383 10.5995 16.8734 10.2248 16.8734H9.9789C9.80326 16.8734 9.63932 16.932 9.51051 17.0491C9.3817 17.1662 9.28802 17.3184 9.2646 17.4941L9.24118 17.5877L8.93673 19.5199L8.92502 19.5901C8.92502 19.6135 8.91331 19.6252 8.9016 19.637C8.88989 19.6487 8.87818 19.6487 8.86647 19.6487H7.39102Z" fill="#253D80"/>
<path d="M12.6143 12.541C12.6026 12.5996 12.5909 12.6581 12.5791 12.7284C12.1693 14.8244 10.7641 15.5505 8.98421 15.5505H8.07084C7.84835 15.5505 7.6727 15.7144 7.63757 15.9252L7.16918 18.8878L7.04037 19.7309C7.01695 19.8714 7.12234 20.0002 7.27457 20.0002H8.89053C9.07789 20.0002 9.24183 19.8597 9.27696 19.6723L9.28867 19.5904L9.59312 17.6582L9.61654 17.5528C9.65167 17.3655 9.8039 17.225 10.003 17.225H10.2489C11.818 17.225 13.0358 16.5926 13.3988 14.7542C13.5511 13.9813 13.4691 13.349 13.071 12.8923C12.9422 12.7518 12.7899 12.6347 12.6143 12.541Z" fill="#189BD7"/>
<path d="M12.1821 12.3773C12.1236 12.3539 12.0533 12.3422 11.983 12.3305C11.9128 12.3188 11.8425 12.3071 11.784 12.2954C11.5381 12.2602 11.2687 12.2368 10.976 12.2368H8.54033C8.48178 12.2368 8.42323 12.2485 8.37639 12.2719C8.2593 12.3305 8.17733 12.4359 8.16562 12.5647L7.65038 15.8435L7.63867 15.9371C7.6738 15.7264 7.86116 15.5624 8.07194 15.5624H8.98531C10.7769 15.5624 12.1704 14.8364 12.5802 12.7403C12.5919 12.6818 12.6037 12.6232 12.6154 12.553C12.51 12.4944 12.4046 12.4476 12.2758 12.4125C12.2524 12.389 12.2172 12.3773 12.1821 12.3773Z" fill="#242F65"/>
<path d="M8.16465 12.5528C8.18807 12.424 8.27004 12.3186 8.37543 12.26C8.42227 12.2366 8.48081 12.2249 8.53936 12.2249H10.975C11.2678 12.2249 11.5371 12.2483 11.783 12.2834C11.8533 12.2951 11.9235 12.3069 11.9821 12.3186C12.0523 12.3303 12.1109 12.3537 12.1811 12.3654C12.2163 12.3771 12.2397 12.3888 12.2748 12.3888C12.3919 12.424 12.509 12.4708 12.6144 12.5293C12.7315 11.7565 12.6144 11.2295 12.1928 10.7494C11.7244 10.2225 10.893 10 9.82745 10H6.72433C6.50185 10 6.31449 10.1639 6.29107 10.3747L5.00298 18.5717C4.97956 18.7356 5.09666 18.8761 5.2606 18.8761H7.16931L7.64941 15.8198L8.16465 12.5528Z" fill="#253D80"/>
<path fill-rule="evenodd" clip-rule="evenodd" d="M171.773 0H126.139C125.25 0 124.693 0.130031 124.391 0.399381C124.127 0.705883 124 1.20743 124 1.95046V4.72755V6.96594V22.969V25.3096V27.9845C124 29.3127 124.723 30 126.139 30H171.773C173.258 30 174 29.3127 174 27.9845V25.3096V22.969V6.95666V4.71827V1.94118C174 0.631579 173.258 0 171.773 0Z" fill="white"/>
<mask id="mask0_10_209" style="mask-type:luminance" maskUnits="userSpaceOnUse" x="132" y="12" width="34" height="10">
<path d="M165.184 12H132V22H165.184V12Z" fill="white"/>
</mask>
<g mask="url(#mask0_10_209)">
<path fill-rule="evenodd" clip-rule="evenodd" d="M152.588 19.8206C150.659 21.2419 147.864 22.0003 145.458 22.0003C142.084 22.0003 139.046 20.7523 136.748 18.6766C136.567 18.5133 136.729 18.2909 136.946 18.418C139.426 19.861 142.492 20.7291 145.66 20.7291C147.796 20.7291 150.147 20.2871 152.307 19.3699C152.634 19.2312 152.907 19.5837 152.588 19.8206Z" fill="#FF9900"/>
<path fill-rule="evenodd" clip-rule="evenodd" d="M153.387 18.903C153.142 18.5881 151.758 18.7542 151.137 18.8279C150.948 18.851 150.919 18.6863 151.089 18.5679C152.191 17.7922 154 18.0161 154.211 18.2761C154.422 18.5376 154.156 20.3504 153.12 21.2156C152.961 21.3485 152.809 21.2777 152.88 21.1015C153.113 20.5208 153.634 19.2194 153.387 18.903Z" fill="#FF9900"/>
<path fill-rule="evenodd" clip-rule="evenodd" d="M151.182 13.0916V12.3376C151.182 12.2235 151.269 12.147 151.373 12.147H154.749C154.857 12.147 154.944 12.225 154.944 12.3376V12.9833C154.942 13.0916 154.851 13.2332 154.689 13.4571L152.94 15.9546C153.59 15.9387 154.276 16.0355 154.866 16.3677C154.999 16.4428 155.035 16.5526 155.045 16.6609V17.4655C155.045 17.5753 154.923 17.7038 154.796 17.6374C153.758 17.0928 152.378 17.0336 151.23 17.6431C151.113 17.7067 150.99 17.5796 150.99 17.4698V16.7057C150.99 16.5829 150.992 16.3735 151.114 16.1871L153.141 13.2809H151.377C151.269 13.2809 151.182 13.2043 151.182 13.0916Z" fill="black"/>
<path fill-rule="evenodd" clip-rule="evenodd" d="M138.867 17.7963H137.84C137.741 17.7891 137.663 17.7154 137.656 17.6215V12.3507C137.656 12.2453 137.744 12.1615 137.854 12.1615H138.812C138.911 12.1658 138.991 12.2424 138.998 12.3377V13.0267H139.017C139.267 12.3609 139.736 12.0503 140.369 12.0503C141.012 12.0503 141.413 12.3609 141.702 13.0267C141.951 12.3609 142.515 12.0503 143.121 12.0503C143.551 12.0503 144.022 12.228 144.309 12.6266C144.634 13.0701 144.568 13.7143 144.568 14.2791L144.567 17.6057C144.567 17.7111 144.478 17.7963 144.369 17.7963H143.343C143.241 17.7891 143.158 17.7068 143.158 17.6057V14.8121C143.158 14.5896 143.178 14.035 143.129 13.8241C143.053 13.4702 142.823 13.3705 142.526 13.3705C142.277 13.3705 142.017 13.5366 141.912 13.8024C141.806 14.0682 141.816 14.5131 141.816 14.8121V17.6057C141.816 17.7111 141.728 17.7963 141.618 17.7963H140.593C140.489 17.7891 140.408 17.7068 140.408 17.6057L140.407 14.8121C140.407 14.2242 140.503 13.359 139.774 13.359C139.036 13.359 139.065 14.2025 139.065 14.8121V17.6057C139.065 17.7111 138.976 17.7963 138.867 17.7963Z" fill="black"/>
<path fill-rule="evenodd" clip-rule="evenodd" d="M157.85 12.0503C159.374 12.0503 160.199 13.359 160.199 15.023C160.199 16.6307 159.287 17.9061 157.85 17.9061C156.354 17.9061 155.539 16.5975 155.539 14.9667C155.539 13.3258 156.364 12.0503 157.85 12.0503ZM157.859 13.1264C157.102 13.1264 157.054 14.1578 157.054 14.8005C157.054 15.4448 157.044 16.8199 157.85 16.8199C158.646 16.8199 158.684 15.7106 158.684 15.0345C158.684 14.5897 158.665 14.0581 158.531 13.6363C158.415 13.2694 158.185 13.1264 157.859 13.1264Z" fill="black"/>
<path fill-rule="evenodd" clip-rule="evenodd" d="M162.172 17.7963H161.149C161.047 17.7891 160.964 17.7068 160.964 17.6057L160.963 12.3334C160.972 12.2366 161.057 12.1615 161.161 12.1615H162.113C162.202 12.1658 162.276 12.2265 162.296 12.3089V13.1149H162.315C162.602 12.3941 163.005 12.0503 163.715 12.0503C164.175 12.0503 164.625 12.2164 164.913 12.6714C165.182 13.0932 165.182 13.8024 165.182 14.3123V17.6302C165.171 17.7227 165.085 17.7963 164.984 17.7963H163.954C163.86 17.7891 163.782 17.7198 163.772 17.6302V14.7673C163.772 14.191 163.839 13.3474 163.13 13.3474C162.88 13.3474 162.65 13.515 162.536 13.7692C162.391 14.0913 162.373 14.412 162.373 14.7673V17.6057C162.371 17.7111 162.282 17.7963 162.172 17.7963Z" fill="black"/>
<path fill-rule="evenodd" clip-rule="evenodd" d="M148.491 15.2789C148.491 15.679 148.501 16.0127 148.299 16.368C148.136 16.6569 147.876 16.8346 147.588 16.8346C147.194 16.8346 146.963 16.5342 146.963 16.0907C146.963 15.2154 147.747 15.0565 148.491 15.0565V15.2789ZM149.527 17.7822C149.459 17.8428 149.361 17.8472 149.284 17.8067C148.943 17.5236 148.881 17.3922 148.695 17.1221C148.131 17.6969 147.731 17.8688 147.002 17.8688C146.137 17.8688 145.465 17.3358 145.465 16.2684C145.465 15.4349 145.916 14.8673 146.56 14.5899C147.117 14.3444 147.896 14.301 148.491 14.2331V14.1002C148.491 13.8561 148.51 13.5672 148.365 13.3563C148.241 13.1671 148.001 13.0891 147.789 13.0891C147.398 13.0891 147.049 13.2899 146.964 13.7059C146.947 13.7984 146.879 13.8894 146.785 13.8937L145.79 13.7868C145.706 13.768 145.612 13.7001 145.637 13.5716C145.865 12.364 146.957 12 147.933 12C148.433 12 149.086 12.1329 149.48 12.5113C149.98 12.9779 149.933 13.6005 149.933 14.2779V15.8784C149.933 16.3594 150.132 16.5703 150.32 16.8303C150.385 16.9227 150.399 17.0339 150.315 17.1033C150.106 17.2781 149.733 17.6031 149.528 17.7851L149.527 17.7822Z" fill="black"/>
<path fill-rule="evenodd" clip-rule="evenodd" d="M135.026 15.2789C135.026 15.679 135.036 16.0127 134.834 16.368C134.671 16.6569 134.412 16.8346 134.123 16.8346C133.729 16.8346 133.499 16.5342 133.499 16.0907C133.499 15.2154 134.284 15.0565 135.026 15.0565V15.2789ZM136.062 17.7822C135.994 17.8428 135.896 17.8472 135.819 17.8067C135.478 17.5236 135.418 17.3922 135.23 17.1221C134.666 17.6969 134.268 17.8688 133.537 17.8688C132.673 17.8688 132 17.3358 132 16.2684C132 15.4349 132.452 14.8673 133.095 14.5899C133.652 14.3444 134.431 14.301 135.026 14.2331V14.1002C135.026 13.8561 135.045 13.5672 134.902 13.3563C134.776 13.1671 134.536 13.0891 134.326 13.0891C133.934 13.0891 133.585 13.2899 133.499 13.7059C133.482 13.7984 133.414 13.8894 133.322 13.8937L132.325 13.7868C132.241 13.768 132.149 13.7001 132.172 13.5716C132.402 12.364 133.492 12 134.469 12C134.968 12 135.621 12.1329 136.016 12.5113C136.515 12.9779 136.468 13.6005 136.468 14.2779V15.8784C136.468 16.3594 136.667 16.5703 136.855 16.8303C136.921 16.9227 136.936 17.0339 136.852 17.1033C136.642 17.2781 136.27 17.6031 136.065 17.7851L136.062 17.7822Z" fill="black"/>
</g>
<path fill-rule="evenodd" clip-rule="evenodd" d="M112 28.4036C112 29.2875 111.258 30 110.337 30H63.663C62.7421 30 62 29.2875 62 28.4036V1.59638C62 0.712514 62.7421 0 63.663 0H110.337C111.258 0 112 0.712514 112 1.59638V28.4036Z" fill="#3A58A8"/>
<path fill-rule="evenodd" clip-rule="evenodd" d="M85.5933 19.5994H83.3037L84.7391 10.8022H87.0286L85.5933 19.5994Z" fill="white"/>
<path fill-rule="evenodd" clip-rule="evenodd" d="M81.376 10.8022L79.2008 16.8525L78.9366 15.5491L78.1703 11.5953C78.1703 11.5953 78.0737 10.8022 77.0784 10.8022H73.4768L73.4326 10.952C73.4326 10.952 74.5334 11.1812 75.828 11.9563L77.8183 19.5994H80.2047L83.8415 10.8022H81.376Z" fill="white"/>
<path fill-rule="evenodd" clip-rule="evenodd" d="M99.3841 19.5994H101.488L99.6568 10.8022H97.8166C96.9623 10.8022 96.7602 11.463 96.7602 11.463L93.3428 19.5994H95.7293L96.2054 18.2876H99.12L99.3841 19.5994ZM96.8652 16.4915L98.0718 13.1977L98.7498 16.4915H96.8652Z" fill="white"/>
<path fill-rule="evenodd" clip-rule="evenodd" d="M93.5275 12.9162L93.8531 11.0316C93.8531 11.0316 92.8403 10.644 91.7928 10.644C90.6567 10.644 87.9535 11.1459 87.9535 13.5589C87.9535 15.8311 91.1231 15.8574 91.1231 17.0549C91.1231 18.2439 88.2793 18.032 87.3456 17.2752L87.002 19.2566C87.002 19.2566 88.0238 19.75 89.5913 19.75C91.1494 19.75 93.5096 18.9396 93.5096 16.7378C93.5096 14.4572 90.3131 14.2371 90.3131 13.2417C90.3131 12.2556 92.5414 12.3788 93.5275 12.9162Z" fill="white"/>
<path fill-rule="evenodd" clip-rule="evenodd" d="M78.9366 15.5491L78.1703 11.5953C78.1703 11.5953 78.0737 10.8022 77.0784 10.8022H73.4768L73.4326 10.952C73.4326 10.952 75.1677 11.313 76.8317 12.6603C78.4171 13.9462 78.9366 15.5491 78.9366 15.5491Z" fill="#FAA634"/>
<path fill-rule="evenodd" clip-rule="evenodd" d="M236 28.4036C236 29.2875 235.258 30 234.337 30H187.663C186.742 30 186 29.2875 186 28.4036V1.59638C186 0.712514 186.742 0 187.663 0H234.337C235.258 0 236 0.712514 236 1.59638V28.4036Z" fill="#14477C"/>
<path fill-rule="evenodd" clip-rule="evenodd" d="M217.003 23.9473L217.464 23.9383L217.925 23.91L218.376 23.8438L218.818 23.7687L219.25 23.6652L219.683 23.5528L220.096 23.402L220.51 23.2427L220.904 23.0633L221.29 22.8662L221.666 22.6496L222.033 22.4151L222.39 22.1614L222.729 21.898L223.048 21.616L223.367 21.3147L223.659 21.0044L223.942 20.6754L224.214 20.3368L224.468 19.9894L224.694 19.6225L224.92 19.2468L225.107 18.8613L225.295 18.4572L225.455 18.0524L225.597 17.6298L225.719 17.2064L225.822 16.7741L225.897 16.3224L225.954 15.881L225.991 15.4198L226 14.9598L225.991 14.4985L225.954 14.0379L225.897 13.5959L225.822 13.1547L225.719 12.7216L225.597 12.299L225.455 11.8755L225.295 11.4715L225.107 11.0764L224.92 10.691L224.694 10.315L224.468 9.94836L224.214 9.60075L223.942 9.26222L223.659 8.93327L223.367 8.62299L223.048 8.33138L222.729 8.04935L222.39 7.77702L222.033 7.53222L221.666 7.29701L221.29 7.08118L220.904 6.8833L220.51 6.7047L220.096 6.54539L219.683 6.40412L219.25 6.28203L218.818 6.1786L218.376 6.10343L217.925 6.04692L217.464 6.00907L217.003 6L216.542 6.00907L216.091 6.04692L215.64 6.10343L215.198 6.1786L214.765 6.28203L214.333 6.40412L213.919 6.54539L213.515 6.7047L213.12 6.8833L212.734 7.08118L212.359 7.29701L211.992 7.53222L211.644 7.77702L211.305 8.04935L210.976 8.33138L210.667 8.62299L210.365 8.93327L210.093 9.26222L209.82 9.60075L209.576 9.94836L209.341 10.315L209.125 10.691L208.927 11.0764L208.748 11.4715L208.588 11.8755L208.448 12.299L208.326 12.7216L208.222 13.1547L208.147 13.5959L208.09 14.0379L208.053 14.4985L208.043 14.9598L208.053 15.4198L208.09 15.881L208.147 16.3224L208.222 16.7741L208.326 17.2064L208.448 17.6298L208.588 18.0524L208.748 18.4572L208.927 18.8613L209.125 19.2468L209.341 19.6225L209.576 19.9894L209.82 20.3368L210.093 20.6754L210.365 21.0044L210.667 21.3147L210.976 21.616L211.305 21.898L211.644 22.1614L211.992 22.4151L212.359 22.6496L212.734 22.8662L213.12 23.0633L213.515 23.2427L213.919 23.402L214.333 23.5528L214.765 23.6652L215.198 23.7687L215.64 23.8438L216.091 23.91L216.542 23.9383L217.003 23.9473Z" fill="#FBB230"/>
<path fill-rule="evenodd" clip-rule="evenodd" d="M204.997 23.9473L205.458 23.9383L205.909 23.91L206.36 23.8438L206.802 23.7687L207.235 23.6652L207.668 23.5528L208.081 23.402L208.485 23.2427L208.88 23.0633L209.265 22.8662L209.641 22.6496L210.008 22.4151L210.355 22.1614L210.695 21.898L211.024 21.616L211.333 21.3147L211.635 21.0044L211.908 20.6754L212.18 20.3368L212.424 19.9894L212.659 19.6225L212.875 19.2468L213.073 18.8613L213.252 18.4572L213.412 18.0524L213.552 17.6298L213.675 17.2064L213.778 16.7741L213.853 16.3224L213.909 15.881L213.947 15.4198L213.957 14.9598L213.947 14.4985L213.909 14.0379L213.853 13.5959L213.778 13.1547L213.675 12.7216L213.552 12.299L213.412 11.8755L213.252 11.4715L213.073 11.0764L212.875 10.691L212.659 10.315L212.424 9.94836L212.18 9.60075L211.908 9.26222L211.635 8.93327L211.333 8.62299L211.024 8.33138L210.695 8.04935L210.355 7.77702L210.008 7.53222L209.641 7.29701L209.265 7.08118L208.88 6.8833L208.485 6.7047L208.081 6.54539L207.668 6.40412L207.235 6.28203L206.802 6.1786L206.36 6.10343L205.909 6.04692L205.458 6.00907L204.997 6L204.536 6.00907L204.075 6.04692L203.624 6.10343L203.182 6.1786L202.751 6.28203L202.318 6.40412L201.904 6.54539L201.49 6.7047L201.096 6.8833L200.71 7.08118L200.334 7.29701L199.968 7.53222L199.61 7.77702L199.271 8.04935L198.952 8.33138L198.633 8.62299L198.341 8.93327L198.058 9.26222L197.786 9.60075L197.532 9.94836L197.307 10.315L197.081 10.691L196.893 11.0764L196.705 11.4715L196.545 11.8755L196.404 12.299L196.281 12.7216L196.188 13.1547L196.103 13.5959L196.047 14.0379L196.009 14.4985L196 14.9598L196.009 15.4198L196.047 15.881L196.103 16.3224L196.188 16.7741L196.281 17.2064L196.404 17.6298L196.545 18.0524L196.705 18.4572L196.893 18.8613L197.081 19.2468L197.307 19.6225L197.532 19.9894L197.786 20.3368L198.058 20.6754L198.341 21.0044L198.633 21.3147L198.952 21.616L199.271 21.898L199.61 22.1614L199.968 22.4151L200.334 22.6496L200.71 22.8662L201.096 23.0633L201.49 23.2427L201.904 23.402L202.318 23.5528L202.751 23.6652L203.182 23.7687L203.624 23.8438L204.075 23.91L204.536 23.9383L204.997 23.9473Z" fill="#EB2230"/>
<path fill-rule="evenodd" clip-rule="evenodd" d="M209.951 9.44064H214.718V8.95166H210.365L209.951 9.44064Z" fill="#FBB230"/>
<path fill-rule="evenodd" clip-rule="evenodd" d="M209.236 10.5222H214.718V10.0332H209.518L209.236 10.5222Z" fill="#FBB230"/>
<path fill-rule="evenodd" clip-rule="evenodd" d="M208.701 11.6032H214.718V11.1143H208.918L208.701 11.6032Z" fill="#FBB230"/>
<path fill-rule="evenodd" clip-rule="evenodd" d="M208.334 12.6844H214.718V12.2051H208.484L208.334 12.6844Z" fill="#FBB230"/>
<path fill-rule="evenodd" clip-rule="evenodd" d="M208.55 17.9302H214.737V17.4414H208.4L208.55 17.9302Z" fill="#FBB230"/>
<path fill-rule="evenodd" clip-rule="evenodd" d="M209.003 19.0113H214.738V18.5225H208.777L209.003 19.0113Z" fill="#FBB230"/>
<path fill-rule="evenodd" clip-rule="evenodd" d="M209.65 20.0929H214.736V19.604H209.34L209.65 20.0929Z" fill="#FBB230"/>
<path fill-rule="evenodd" clip-rule="evenodd" d="M210.534 21.174H214.736V20.6851H210.102L210.534 21.174Z" fill="#FBB230"/>
<path fill-rule="evenodd" clip-rule="evenodd" d="M208.119 13.7655H214.719V13.2856H208.213L208.119 13.7655Z" fill="#FBB230"/>
<path fill-rule="evenodd" clip-rule="evenodd" d="M212.143 16.8492H214.662V16.3604H212.237L212.143 16.8492Z" fill="#FBB230"/>
<path fill-rule="evenodd" clip-rule="evenodd" d="M212.34 15.7682H214.662V15.2793H212.434L212.34 15.7682Z" fill="#FBB230"/>
<path fill-rule="evenodd" clip-rule="evenodd" d="M207.949 15.2793H208.607V15.7682H207.987L207.949 15.2793Z" fill="#FBB230"/>
<path fill-rule="evenodd" clip-rule="evenodd" d="M225.042 16.4824C225.277 16.4824 225.465 16.6706 225.465 16.9058C225.465 17.1409 225.277 17.3285 225.042 17.3285C224.807 17.3285 224.619 17.1409 224.619 16.9058C224.619 16.6705 224.807 16.4824 225.042 16.4824ZM225.042 16.5575C225.24 16.5575 225.399 16.7173 225.399 16.9057C225.399 17.1029 225.24 17.2629 225.042 17.2629C224.844 17.2629 224.685 17.1029 224.685 16.9057C224.685 16.7174 224.844 16.5575 225.042 16.5575Z" fill="white"/>
<path d="M224.881 17.0846V16.7363H225.031C225.069 16.7363 225.097 16.7363 225.116 16.7459C225.126 16.7459 225.143 16.7647 225.153 16.7742C225.163 16.7928 225.172 16.8114 225.172 16.8308C225.172 16.859 225.163 16.8776 225.143 16.8962C225.135 16.9149 225.106 16.9244 225.078 16.9341C225.088 16.9431 225.106 16.9528 225.116 16.9624C225.126 16.9713 225.135 16.9901 225.153 17.0184L225.201 17.0846H225.116L225.059 17.0093C225.041 16.981 225.031 16.9624 225.021 16.9624C225.012 16.9528 225.012 16.9431 225.003 16.9431C224.993 16.9431 224.984 16.9431 224.966 16.9431H224.947V17.0845L224.881 17.0846ZM224.947 16.8873H225.003C225.041 16.8873 225.059 16.8873 225.069 16.8777C225.078 16.8777 225.088 16.868 225.088 16.868C225.097 16.859 225.097 16.8493 225.097 16.8398C225.097 16.8308 225.088 16.8115 225.088 16.8115C225.078 16.8025 225.069 16.7928 225.059 16.7928C225.05 16.7928 225.031 16.7928 225.004 16.7928H224.947V16.8873Z" fill="white"/>
<path fill-rule="evenodd" clip-rule="evenodd" d="M218.996 17.1501L219.607 13.9541H220.368L220.463 14.2829C220.603 14.1417 220.838 13.9541 221.309 13.9541L221.074 14.8002C220.867 14.8002 220.547 14.7623 220.284 15.3828C220.087 15.8531 219.993 16.633 219.889 17.1501H218.996Z" fill="white"/>
<path fill-rule="evenodd" clip-rule="evenodd" d="M207.47 13.1548H208.316L208.128 14.0008H208.598L208.457 14.6587H208.034L207.799 15.9281C207.752 16.1632 207.799 16.3984 208.269 16.3039L208.176 17.0093C207.668 17.3948 206.652 17.1127 206.812 16.1632L207.47 13.1548Z" fill="white"/>
<path fill-rule="evenodd" clip-rule="evenodd" d="M211.239 15.74C211.333 15.223 211.568 13.9541 210.054 13.9541C208.644 13.9541 208.456 15.3642 208.456 15.5518C208.41 15.74 208.41 17.1501 209.914 17.1501C210.289 17.1501 210.816 17.1032 211.051 17.0094L211.192 16.351C211.051 16.3985 210.572 16.4453 210.196 16.4453C209.867 16.4453 209.303 16.4453 209.397 15.7399L211.239 15.74Z" fill="white"/>
<path fill-rule="evenodd" clip-rule="evenodd" d="M200.982 17.1499L201.734 13.2954H200.268L199.233 15.646L199.045 13.2954H197.682L196.93 17.1499H197.776L198.34 14.3766L198.576 17.1499H199.375L200.597 14.4235L200.079 17.1499H200.982Z" fill="white"/>
<path fill-rule="evenodd" clip-rule="evenodd" d="M201.97 14.0476L201.829 14.7531C202.064 14.7531 202.628 14.6587 202.91 14.6587C203.192 14.6587 203.568 14.6119 203.427 15.0821C203.192 15.0821 201.641 14.8469 201.406 16.2101C201.274 17.1127 202.346 17.4417 203.004 17.0093L203.098 17.1969H203.897L204.226 15.4578C204.574 13.8877 203.061 13.8594 201.97 14.0476Z" fill="white"/>
<path fill-rule="evenodd" clip-rule="evenodd" d="M215.969 14.3294C215.753 14.1976 215.621 14.1976 215.349 14.1976C215.085 14.1976 214.465 14.4609 214.38 15.1657C214.248 16.0498 214.822 16.4448 215.658 16.1815L215.884 16.9337C214.456 17.6481 213.091 16.5385 213.543 14.8085C213.909 13.5018 215.64 12.7124 216.505 13.7935L215.969 14.3294Z" fill="white"/>
<path fill-rule="evenodd" clip-rule="evenodd" d="M223.424 14.3294C221.12 12.5993 220.227 17.1496 222.013 17.1496C222.295 17.1496 222.578 17.0089 222.766 16.9145L222.859 17.1496H223.8L224.552 13.1069H223.659L223.424 14.3294Z" fill="white"/>
<path fill-rule="evenodd" clip-rule="evenodd" d="M216.646 14.0476L216.506 14.7531C216.74 14.7531 217.305 14.6587 217.586 14.6587C217.869 14.6587 218.198 14.6119 218.104 15.0821C217.869 15.0821 216.317 14.8469 216.083 16.2101C215.988 16.868 216.552 17.1969 216.976 17.1969C217.398 17.1969 217.54 17.1031 217.68 17.0093L217.774 17.1969H218.574L218.903 15.4578C219.26 13.8877 217.746 13.8594 216.646 14.0476Z" fill="white"/>
<path fill-rule="evenodd" clip-rule="evenodd" d="M209.396 15.1287H210.478C210.6 14.2731 209.575 14.4426 209.396 15.1287Z" fill="#EB2230"/>
<path fill-rule="evenodd" clip-rule="evenodd" d="M203.285 15.7396C203.144 15.7396 202.815 15.6459 202.533 15.8341C202.251 16.0217 202.157 16.3506 202.486 16.445C202.768 16.5387 203.144 16.3506 203.238 16.0686L203.285 15.7396Z" fill="#EB2230"/>
<path fill-rule="evenodd" clip-rule="evenodd" d="M223.001 14.8469C222.719 14.4705 222.108 14.7532 221.92 15.4578C221.78 15.9281 222.062 16.2571 222.344 16.2571C222.936 16.2572 223.293 15.289 223.001 14.8469Z" fill="#FBB230"/>
<path fill-rule="evenodd" clip-rule="evenodd" d="M218.009 15.7396C217.869 15.7396 217.54 15.6459 217.257 15.8341C216.976 16.0217 216.881 16.3506 217.211 16.445C217.492 16.5387 217.916 16.3506 217.963 16.0686L218.009 15.7396Z" fill="#FBB230"/>
<path fill-rule="evenodd" clip-rule="evenodd" d="M211.24 17.1966L211.288 16.8677L211.852 14.0005H212.604L212.697 14.3294C212.839 14.1882 213.074 14.0005 213.544 14.0005L213.309 14.8466C213.13 14.8466 212.754 14.8087 212.472 15.561C212.312 15.9933 212.218 16.727 212.133 17.1966H211.24Z" fill="white"/>
<path fill-rule="evenodd" clip-rule="evenodd" d="M206.688 14.7718H206.651H206.613L206.576 14.7622L206.538 14.7532H206.5L206.463 14.7435C206.294 14.7249 206.153 14.7152 205.984 14.7249C205.551 14.7621 205.363 15.0345 205.73 15.2413C206.021 15.4109 206.247 15.3826 206.444 15.5709C206.867 15.9654 206.651 16.7272 206.18 17.0183L206.096 17.0562L206.003 17.094L205.899 17.1217L205.805 17.1499C205.354 17.2251 204.743 17.2064 204.301 17.0562L204.423 16.4259C204.78 16.5011 205.364 16.661 205.636 16.4735C205.946 16.2666 205.664 16.0218 205.438 15.9185L205.326 15.8812L205.213 15.8343C204.32 15.4295 204.527 14.3483 205.372 14.1229C205.711 14.0477 206.05 14.0477 206.398 14.076H206.463C206.548 14.0851 206.623 14.0948 206.698 14.1133H206.736L206.764 14.1229H206.792L206.811 14.1325H206.839L206.688 14.7718Z" fill="white"/>
</svg>
