<svg width="205" height="88" viewBox="0 0 205 88" fill="none" xmlns="http://www.w3.org/2000/svg">
<rect width="205" height="87.5795" rx="5" fill="white"/>
<g clip-path="url(#clip0_6657_226)">
<path d="M84.0886 11.9395H92.1611V13.4456H88.987V21.9122H87.2416V13.4456H84.0815V11.9395H84.0886ZM91.8162 14.6913H93.3082V16.0848H93.3364C93.3856 15.8877 93.4771 15.6977 93.6109 15.5147C93.7446 15.3317 93.9065 15.1558 94.0965 15.008C94.2865 14.8531 94.4976 14.7335 94.7299 14.635C94.9621 14.5435 95.2014 14.4942 95.4407 14.4942C95.6237 14.4942 95.7574 14.5013 95.8278 14.5083C95.8982 14.5153 95.9686 14.5294 96.046 14.5364V16.0707C95.9334 16.0496 95.8208 16.0355 95.7011 16.0214C95.5815 16.0074 95.4689 16.0003 95.3563 16.0003C95.0888 16.0003 94.8355 16.0566 94.5962 16.1622C94.3569 16.2678 94.1528 16.4296 93.9768 16.6337C93.8009 16.8449 93.6601 17.0982 93.5546 17.4079C93.449 17.7176 93.3997 18.0695 93.3997 18.4706V21.9051H91.8092V14.6913H91.8162ZM103.358 21.9122H101.796V20.9057H101.768C101.571 21.2717 101.282 21.5603 100.895 21.7784C100.508 21.9966 100.114 22.1092 99.7127 22.1092C98.7626 22.1092 98.0729 21.877 97.6506 21.4054C97.2283 20.9339 97.0172 20.2231 97.0172 19.2729V14.6913H98.6078V19.1181C98.6078 19.7515 98.7274 20.202 98.9737 20.4624C99.213 20.7228 99.5579 20.8565 99.9942 20.8565C100.332 20.8565 100.607 20.8072 100.832 20.7016C101.057 20.5961 101.24 20.4624 101.374 20.2864C101.514 20.1175 101.613 19.9064 101.676 19.6671C101.74 19.4278 101.768 19.1674 101.768 18.8859V14.6983H103.358V21.9122ZM106.068 19.5967C106.117 20.0612 106.293 20.3849 106.596 20.575C106.905 20.7579 107.271 20.8565 107.701 20.8565C107.849 20.8565 108.017 20.8424 108.207 20.8213C108.397 20.8002 108.58 20.7509 108.742 20.6876C108.911 20.6242 109.045 20.5257 109.158 20.399C109.263 20.2723 109.312 20.1105 109.305 19.9064C109.298 19.7023 109.221 19.5333 109.08 19.4067C108.939 19.2729 108.763 19.1744 108.545 19.09C108.327 19.0125 108.081 18.9422 107.799 18.8859C107.518 18.8296 107.236 18.7662 106.948 18.7029C106.652 18.6395 106.364 18.5551 106.089 18.4636C105.815 18.3721 105.568 18.2454 105.35 18.0835C105.132 17.9287 104.956 17.7246 104.829 17.4783C104.696 17.232 104.632 16.9293 104.632 16.5634C104.632 16.1692 104.731 15.8455 104.921 15.578C105.111 15.3106 105.357 15.0995 105.646 14.9376C105.941 14.7757 106.265 14.6631 106.624 14.5927C106.983 14.5294 107.328 14.4942 107.651 14.4942C108.024 14.4942 108.383 14.5364 108.721 14.6139C109.059 14.6913 109.369 14.818 109.643 15.0009C109.918 15.1769 110.143 15.4091 110.326 15.6907C110.509 15.9722 110.621 16.317 110.671 16.7182H109.01C108.932 16.3381 108.763 16.0777 108.489 15.9511C108.215 15.8173 107.898 15.754 107.546 15.754C107.433 15.754 107.3 15.761 107.145 15.7821C106.99 15.8033 106.849 15.8385 106.708 15.8877C106.575 15.937 106.462 16.0144 106.364 16.1129C106.272 16.2115 106.223 16.3381 106.223 16.5C106.223 16.6971 106.293 16.8519 106.427 16.9716C106.561 17.0912 106.737 17.1897 106.955 17.2742C107.173 17.3516 107.419 17.422 107.701 17.4783C107.982 17.5346 108.271 17.5979 108.566 17.6613C108.855 17.7246 109.136 17.8091 109.418 17.9006C109.7 17.992 109.946 18.1187 110.164 18.2806C110.382 18.4425 110.558 18.6395 110.692 18.8788C110.826 19.1181 110.896 19.4207 110.896 19.7726C110.896 20.202 110.797 20.5609 110.6 20.8635C110.403 21.1591 110.15 21.4054 109.84 21.5884C109.531 21.7714 109.179 21.9122 108.799 21.9966C108.419 22.0811 108.039 22.1233 107.666 22.1233C107.208 22.1233 106.786 22.074 106.399 21.9685C106.012 21.8629 105.674 21.7081 105.392 21.504C105.111 21.2928 104.886 21.0324 104.724 20.7228C104.562 20.4131 104.477 20.0401 104.463 19.6108H106.068V19.5967ZM111.318 14.6913H112.522V12.5236H114.112V14.6913H115.548V15.8807H114.112V19.7374C114.112 19.9064 114.119 20.0471 114.133 20.1738C114.147 20.2934 114.183 20.399 114.232 20.4835C114.281 20.5679 114.359 20.6313 114.464 20.6735C114.57 20.7157 114.703 20.7368 114.886 20.7368C114.999 20.7368 115.112 20.7368 115.224 20.7298C115.337 20.7228 115.449 20.7087 115.562 20.6805V21.9122C115.386 21.9333 115.21 21.9473 115.048 21.9685C114.879 21.9896 114.71 21.9966 114.535 21.9966C114.112 21.9966 113.774 21.9544 113.521 21.877C113.268 21.7996 113.064 21.6799 112.923 21.5251C112.775 21.3702 112.684 21.1802 112.627 20.948C112.578 20.7157 112.543 20.4483 112.536 20.1527V15.8948H111.332V14.6913H111.318ZM116.674 14.6913H118.18V15.6695H118.208C118.434 15.2473 118.743 14.9517 119.144 14.7687C119.546 14.5857 119.975 14.4942 120.446 14.4942C121.016 14.4942 121.509 14.5927 121.931 14.7968C122.354 14.9939 122.706 15.2684 122.987 15.6203C123.269 15.9722 123.473 16.3804 123.613 16.8449C123.754 17.3094 123.825 17.8091 123.825 18.3369C123.825 18.8225 123.761 19.2941 123.635 19.7445C123.508 20.202 123.318 20.6031 123.064 20.955C122.811 21.3069 122.487 21.5814 122.093 21.7925C121.699 22.0037 121.242 22.1092 120.707 22.1092C120.475 22.1092 120.242 22.0881 120.01 22.0459C119.778 22.0037 119.553 21.9333 119.341 21.8418C119.13 21.7503 118.926 21.6306 118.75 21.4828C118.567 21.3351 118.419 21.1661 118.293 20.9761H118.265V24.5795H116.674V14.6913ZM122.234 18.3088C122.234 17.985 122.192 17.6683 122.107 17.3586C122.023 17.049 121.896 16.7815 121.727 16.5422C121.558 16.303 121.347 16.1129 121.101 15.9722C120.848 15.8314 120.559 15.754 120.235 15.754C119.567 15.754 119.06 15.9862 118.722 16.4507C118.384 16.9152 118.215 17.5346 118.215 18.3088C118.215 18.6747 118.258 19.0125 118.349 19.3222C118.441 19.6319 118.567 19.8993 118.75 20.1245C118.926 20.3497 119.137 20.5257 119.384 20.6524C119.63 20.7861 119.919 20.8494 120.242 20.8494C120.608 20.8494 120.911 20.772 121.164 20.6242C121.418 20.4764 121.622 20.2794 121.784 20.0471C121.945 19.8078 122.065 19.5404 122.135 19.2378C122.199 18.9351 122.234 18.6255 122.234 18.3088ZM125.042 11.9395H126.633V13.4456H125.042V11.9395ZM125.042 14.6913H126.633V21.9122H125.042V14.6913ZM128.054 11.9395H129.645V21.9122H128.054V11.9395ZM134.522 22.1092C133.945 22.1092 133.431 22.0107 132.981 21.8207C132.53 21.6306 132.15 21.3632 131.834 21.0324C131.524 20.6946 131.285 20.2934 131.123 19.8289C130.961 19.3644 130.877 18.8507 130.877 18.2947C130.877 17.7457 130.961 17.239 131.123 16.7745C131.285 16.31 131.524 15.9088 131.834 15.571C132.143 15.2332 132.53 14.9728 132.981 14.7828C133.431 14.5927 133.945 14.4942 134.522 14.4942C135.099 14.4942 135.613 14.5927 136.063 14.7828C136.514 14.9728 136.894 15.2402 137.211 15.571C137.52 15.9088 137.76 16.31 137.921 16.7745C138.083 17.239 138.168 17.7457 138.168 18.2947C138.168 18.8507 138.083 19.3644 137.921 19.8289C137.76 20.2934 137.52 20.6946 137.211 21.0324C136.901 21.3702 136.514 21.6306 136.063 21.8207C135.613 22.0107 135.099 22.1092 134.522 22.1092ZM134.522 20.8494C134.874 20.8494 135.184 20.772 135.444 20.6242C135.705 20.4764 135.916 20.2794 136.085 20.0401C136.254 19.8008 136.373 19.5263 136.458 19.2237C136.535 18.9211 136.577 18.6114 136.577 18.2947C136.577 17.985 136.535 17.6824 136.458 17.3727C136.38 17.063 136.254 16.7956 136.085 16.5563C135.916 16.317 135.705 16.127 135.444 15.9792C135.184 15.8314 134.874 15.754 134.522 15.754C134.17 15.754 133.861 15.8314 133.6 15.9792C133.34 16.127 133.129 16.3241 132.96 16.5563C132.791 16.7956 132.671 17.063 132.587 17.3727C132.509 17.6824 132.467 17.985 132.467 18.2947C132.467 18.6114 132.509 18.9211 132.587 19.2237C132.664 19.5263 132.791 19.8008 132.96 20.0401C133.129 20.2794 133.34 20.4764 133.6 20.6242C133.861 20.7791 134.17 20.8494 134.522 20.8494ZM138.632 14.6913H139.836V12.5236H141.426V14.6913H142.862V15.8807H141.426V19.7374C141.426 19.9064 141.433 20.0471 141.447 20.1738C141.462 20.2934 141.497 20.399 141.546 20.4835C141.595 20.5679 141.673 20.6313 141.778 20.6735C141.884 20.7157 142.018 20.7368 142.201 20.7368C142.313 20.7368 142.426 20.7368 142.538 20.7298C142.651 20.7228 142.764 20.7087 142.876 20.6805V21.9122C142.7 21.9333 142.524 21.9473 142.362 21.9685C142.193 21.9896 142.025 21.9966 141.849 21.9966C141.426 21.9966 141.089 21.9544 140.835 21.877C140.582 21.7996 140.378 21.6799 140.237 21.5251C140.089 21.3702 139.998 21.1802 139.941 20.948C139.892 20.7157 139.857 20.4483 139.85 20.1527V15.8948H138.646V14.6913H138.632Z" fill="#222222"/>
<path d="M82.2312 11.9394H74.9399L72.6878 5L70.4286 11.9394L63.1373 11.9323L69.0421 16.2255L66.783 23.1578L72.6878 18.8717L78.5855 23.1578L76.3334 16.2255L82.2312 11.9394Z" fill="#51B37F"/>
<path d="M76.8407 17.795L76.334 16.2256L72.6884 18.8718L76.8407 17.795Z" fill="#005128"/>
</g>
<rect x="38" y="32.5796" width="22" height="22" rx="2" fill="#51B37F"/>
<path d="M56.8397 41.5274H50.9052L49.0722 35.8794L47.2334 41.5274L41.299 41.5217L46.1049 45.0159L44.2662 50.6583L49.0722 47.1698L53.8724 50.6583L52.0394 45.0159L56.8397 41.5274Z" fill="white"/>
<path d="M52.4529 46.2935L52.0405 45.0161L49.0732 47.1699L52.4529 46.2935Z" fill="#51B37F"/>
<rect x="65" y="32.5796" width="22" height="22" rx="2" fill="#51B37F"/>
<path d="M83.8397 41.5274H77.9052L76.0722 35.8794L74.2334 41.5274L68.299 41.5217L73.1049 45.0159L71.2662 50.6583L76.0722 47.1698L80.8724 50.6583L79.0394 45.0159L83.8397 41.5274Z" fill="white"/>
<path d="M79.4529 46.2935L79.0405 45.0161L76.0732 47.1699L79.4529 46.2935Z" fill="#51B37F"/>
<rect x="92" y="32.5796" width="22" height="22" rx="2" fill="#51B37F"/>
<path d="M110.84 41.5274H104.905L103.072 35.8794L101.233 41.5274L95.299 41.5217L100.105 45.0159L98.2662 50.6583L103.072 47.1698L107.872 50.6583L106.039 45.0159L110.84 41.5274Z" fill="white"/>
<path d="M106.453 46.2935L106.04 45.0161L103.073 47.1699L106.453 46.2935Z" fill="#51B37F"/>
<rect x="119" y="32.5796" width="22" height="22" rx="2" fill="#51B37F"/>
<path d="M137.84 41.5274H131.905L130.072 35.8794L128.233 41.5274L122.299 41.5217L127.105 45.0159L125.266 50.6583L130.072 47.1698L134.872 50.6583L133.039 45.0159L137.84 41.5274Z" fill="white"/>
<path d="M133.453 46.2935L133.04 45.0161L130.073 47.1699L133.453 46.2935Z" fill="#51B37F"/>
<rect x="146" y="32.5796" width="22" height="22" rx="2" fill="#51B37F"/>
<path d="M164.84 41.5274H158.905L157.072 35.8794L155.233 41.5274L149.299 41.5217L154.105 45.0159L152.266 50.6583L157.072 47.1698L161.872 50.6583L160.039 45.0159L164.84 41.5274Z" fill="white"/>
<path d="M160.453 46.2935L160.04 45.0161L157.073 47.1699L160.453 46.2935Z" fill="#51B37F"/>
<path d="M10 76.5796V68.9476H7.048V68.1796H13.84V68.9476H10.888V76.5796H10ZM14.9146 76.5796V70.2796H15.7306V71.9956L15.6466 71.6956C15.8226 71.2156 16.1186 70.8516 16.5346 70.6036C16.9506 70.3476 17.4666 70.2196 18.0826 70.2196V71.0476C18.0506 71.0476 18.0186 71.0476 17.9866 71.0476C17.9546 71.0396 17.9226 71.0356 17.8906 71.0356C17.2266 71.0356 16.7066 71.2396 16.3306 71.6476C15.9546 72.0476 15.7666 72.6196 15.7666 73.3636V76.5796H14.9146ZM22.335 76.6396C21.799 76.6396 21.331 76.5396 20.931 76.3396C20.531 76.1396 20.219 75.8396 19.995 75.4396C19.779 75.0396 19.671 74.5396 19.671 73.9396V70.2796H20.523V73.8436C20.523 74.5156 20.687 75.0236 21.015 75.3676C21.351 75.7036 21.819 75.8716 22.419 75.8716C22.859 75.8716 23.239 75.7836 23.559 75.6076C23.887 75.4236 24.135 75.1596 24.303 74.8156C24.479 74.4716 24.567 74.0596 24.567 73.5796V70.2796H25.419V76.5796H24.603V74.8516L24.735 75.1636C24.535 75.6276 24.223 75.9916 23.799 76.2556C23.383 76.5116 22.895 76.6396 22.335 76.6396ZM29.4855 76.6396C28.9655 76.6396 28.4735 76.5676 28.0095 76.4236C27.5455 76.2716 27.1815 76.0836 26.9175 75.8596L27.3015 75.1876C27.5575 75.3796 27.8855 75.5476 28.2855 75.6916C28.6855 75.8276 29.1055 75.8956 29.5455 75.8956C30.1455 75.8956 30.5775 75.8036 30.8415 75.6196C31.1055 75.4276 31.2375 75.1756 31.2375 74.8636C31.2375 74.6316 31.1615 74.4516 31.0095 74.3236C30.8655 74.1876 30.6735 74.0876 30.4335 74.0236C30.1935 73.9516 29.9255 73.8916 29.6295 73.8436C29.3335 73.7956 29.0375 73.7396 28.7415 73.6756C28.4535 73.6116 28.1895 73.5196 27.9495 73.3996C27.7095 73.2716 27.5135 73.0996 27.3615 72.8836C27.2175 72.6676 27.1455 72.3796 27.1455 72.0196C27.1455 71.6756 27.2415 71.3676 27.4335 71.0956C27.6255 70.8236 27.9055 70.6116 28.2735 70.4596C28.6495 70.2996 29.1055 70.2196 29.6415 70.2196C30.0495 70.2196 30.4575 70.2756 30.8655 70.3876C31.2735 70.4916 31.6095 70.6316 31.8735 70.8076L31.5015 71.4916C31.2215 71.2996 30.9215 71.1636 30.6015 71.0836C30.2815 70.9956 29.9615 70.9516 29.6415 70.9516C29.0735 70.9516 28.6535 71.0516 28.3815 71.2516C28.1175 71.4436 27.9855 71.6916 27.9855 71.9956C27.9855 72.2356 28.0575 72.4236 28.2015 72.5596C28.3535 72.6956 28.5495 72.8036 28.7895 72.8836C29.0375 72.9556 29.3055 73.0156 29.5935 73.0636C29.8895 73.1116 30.1815 73.1716 30.4695 73.2436C30.7655 73.3076 31.0335 73.3996 31.2735 73.5196C31.5215 73.6316 31.7175 73.7956 31.8615 74.0116C32.0135 74.2196 32.0895 74.4956 32.0895 74.8396C32.0895 75.2076 31.9855 75.5276 31.7775 75.7996C31.5775 76.0636 31.2815 76.2716 30.8895 76.4236C30.5055 76.5676 30.0375 76.6396 29.4855 76.6396ZM35.6448 76.6396C35.0528 76.6396 34.5968 76.4796 34.2768 76.1596C33.9568 75.8396 33.7968 75.3876 33.7968 74.8036V68.8876H34.6488V74.7556C34.6488 75.1236 34.7408 75.4076 34.9248 75.6076C35.1168 75.8076 35.3888 75.9076 35.7408 75.9076C36.1168 75.9076 36.4288 75.7996 36.6768 75.5836L36.9768 76.1956C36.8088 76.3476 36.6048 76.4596 36.3648 76.5316C36.1328 76.6036 35.8928 76.6396 35.6448 76.6396ZM32.6688 70.9876V70.2796H36.5688V70.9876H32.6688ZM40.2198 76.6396C39.6998 76.6396 39.2078 76.5676 38.7438 76.4236C38.2798 76.2716 37.9158 76.0836 37.6518 75.8596L38.0358 75.1876C38.2918 75.3796 38.6198 75.5476 39.0198 75.6916C39.4198 75.8276 39.8398 75.8956 40.2798 75.8956C40.8798 75.8956 41.3118 75.8036 41.5758 75.6196C41.8398 75.4276 41.9718 75.1756 41.9718 74.8636C41.9718 74.6316 41.8958 74.4516 41.7438 74.3236C41.5998 74.1876 41.4078 74.0876 41.1678 74.0236C40.9278 73.9516 40.6598 73.8916 40.3638 73.8436C40.0678 73.7956 39.7718 73.7396 39.4758 73.6756C39.1878 73.6116 38.9238 73.5196 38.6838 73.3996C38.4438 73.2716 38.2478 73.0996 38.0958 72.8836C37.9518 72.6676 37.8798 72.3796 37.8798 72.0196C37.8798 71.6756 37.9758 71.3676 38.1678 71.0956C38.3598 70.8236 38.6398 70.6116 39.0078 70.4596C39.3838 70.2996 39.8398 70.2196 40.3758 70.2196C40.7838 70.2196 41.1918 70.2756 41.5998 70.3876C42.0078 70.4916 42.3438 70.6316 42.6078 70.8076L42.2358 71.4916C41.9558 71.2996 41.6558 71.1636 41.3358 71.0836C41.0158 70.9956 40.6958 70.9516 40.3758 70.9516C39.8078 70.9516 39.3878 71.0516 39.1158 71.2516C38.8518 71.4436 38.7198 71.6916 38.7198 71.9956C38.7198 72.2356 38.7918 72.4236 38.9358 72.5596C39.0878 72.6956 39.2838 72.8036 39.5238 72.8836C39.7718 72.9556 40.0398 73.0156 40.3278 73.0636C40.6238 73.1116 40.9158 73.1716 41.2038 73.2436C41.4998 73.3076 41.7678 73.3996 42.0078 73.5196C42.2558 73.6316 42.4518 73.7956 42.5958 74.0116C42.7478 74.2196 42.8238 74.4956 42.8238 74.8396C42.8238 75.2076 42.7198 75.5276 42.5118 75.7996C42.3118 76.0636 42.0158 76.2716 41.6238 76.4236C41.2398 76.5676 40.7718 76.6396 40.2198 76.6396ZM47.0032 76.6396C46.3792 76.6396 45.8192 76.5036 45.3232 76.2316C44.8352 75.9516 44.4512 75.5716 44.1712 75.0916C43.8912 74.6036 43.7512 74.0476 43.7512 73.4236C43.7512 72.7916 43.8912 72.2356 44.1712 71.7556C44.4512 71.2756 44.8352 70.8996 45.3232 70.6276C45.8192 70.3556 46.3792 70.2196 47.0032 70.2196C47.5392 70.2196 48.0232 70.3236 48.4552 70.5316C48.8872 70.7396 49.2272 71.0516 49.4752 71.4676L48.8392 71.8996C48.6232 71.5796 48.3552 71.3436 48.0352 71.1916C47.7152 71.0396 47.3672 70.9636 46.9912 70.9636C46.5432 70.9636 46.1392 71.0676 45.7792 71.2756C45.4192 71.4756 45.1352 71.7596 44.9272 72.1276C44.7192 72.4956 44.6152 72.9276 44.6152 73.4236C44.6152 73.9196 44.7192 74.3516 44.9272 74.7196C45.1352 75.0876 45.4192 75.3756 45.7792 75.5836C46.1392 75.7836 46.5432 75.8836 46.9912 75.8836C47.3672 75.8836 47.7152 75.8076 48.0352 75.6556C48.3552 75.5036 48.6232 75.2716 48.8392 74.9596L49.4752 75.3916C49.2272 75.7996 48.8872 76.1116 48.4552 76.3276C48.0232 76.5356 47.5392 76.6396 47.0032 76.6396ZM53.6115 76.6396C53.0035 76.6396 52.4555 76.5036 51.9675 76.2316C51.4875 75.9516 51.1075 75.5716 50.8275 75.0916C50.5475 74.6036 50.4075 74.0476 50.4075 73.4236C50.4075 72.7916 50.5475 72.2356 50.8275 71.7556C51.1075 71.2756 51.4875 70.8996 51.9675 70.6276C52.4475 70.3556 52.9955 70.2196 53.6115 70.2196C54.2355 70.2196 54.7875 70.3556 55.2675 70.6276C55.7555 70.8996 56.1355 71.2756 56.4075 71.7556C56.6875 72.2356 56.8275 72.7916 56.8275 73.4236C56.8275 74.0476 56.6875 74.6036 56.4075 75.0916C56.1355 75.5716 55.7555 75.9516 55.2675 76.2316C54.7795 76.5036 54.2275 76.6396 53.6115 76.6396ZM53.6115 75.8836C54.0675 75.8836 54.4715 75.7836 54.8235 75.5836C55.1755 75.3756 55.4515 75.0876 55.6515 74.7196C55.8595 74.3436 55.9635 73.9116 55.9635 73.4236C55.9635 72.9276 55.8595 72.4956 55.6515 72.1276C55.4515 71.7596 55.1755 71.4756 54.8235 71.2756C54.4715 71.0676 54.0715 70.9636 53.6235 70.9636C53.1755 70.9636 52.7755 71.0676 52.4235 71.2756C52.0715 71.4756 51.7915 71.7596 51.5835 72.1276C51.3755 72.4956 51.2715 72.9276 51.2715 73.4236C51.2715 73.9116 51.3755 74.3436 51.5835 74.7196C51.7915 75.0876 52.0715 75.3756 52.4235 75.5836C52.7755 75.7836 53.1715 75.8836 53.6115 75.8836ZM58.5669 76.5796V70.2796H59.3829V71.9956L59.2989 71.6956C59.4749 71.2156 59.7709 70.8516 60.1869 70.6036C60.6029 70.3476 61.1189 70.2196 61.7349 70.2196V71.0476C61.7029 71.0476 61.6709 71.0476 61.6389 71.0476C61.6069 71.0396 61.5749 71.0356 61.5429 71.0356C60.8789 71.0356 60.3589 71.2396 59.9829 71.6476C59.6069 72.0476 59.4189 72.6196 59.4189 73.3636V76.5796H58.5669ZM65.907 76.6396C65.251 76.6396 64.675 76.5036 64.179 76.2316C63.683 75.9516 63.295 75.5716 63.015 75.0916C62.735 74.6036 62.595 74.0476 62.595 73.4236C62.595 72.7996 62.727 72.2476 62.991 71.7676C63.263 71.2876 63.631 70.9116 64.095 70.6396C64.567 70.3596 65.095 70.2196 65.679 70.2196C66.271 70.2196 66.795 70.3556 67.251 70.6276C67.715 70.8916 68.079 71.2676 68.343 71.7556C68.607 72.2356 68.739 72.7916 68.739 73.4236C68.739 73.4636 68.735 73.5076 68.727 73.5556C68.727 73.5956 68.727 73.6396 68.727 73.6876H63.243V73.0516H68.271L67.935 73.3036C67.935 72.8476 67.835 72.4436 67.635 72.0916C67.443 71.7316 67.179 71.4516 66.843 71.2516C66.507 71.0516 66.119 70.9516 65.679 70.9516C65.247 70.9516 64.859 71.0516 64.515 71.2516C64.171 71.4516 63.903 71.7316 63.711 72.0916C63.519 72.4516 63.423 72.8636 63.423 73.3276V73.4596C63.423 73.9396 63.527 74.3636 63.735 74.7316C63.951 75.0916 64.247 75.3756 64.623 75.5836C65.007 75.7836 65.443 75.8836 65.931 75.8836C66.315 75.8836 66.671 75.8156 66.999 75.6796C67.335 75.5436 67.623 75.3356 67.863 75.0556L68.343 75.6076C68.063 75.9436 67.711 76.1996 67.287 76.3756C66.871 76.5516 66.411 76.6396 65.907 76.6396ZM75.7498 76.7236C75.1658 76.7236 74.5858 76.6476 74.0098 76.4956C73.4418 76.3356 72.9538 76.1116 72.5458 75.8236L73.3138 74.3356C73.6338 74.5676 74.0018 74.7516 74.4178 74.8876C74.8418 75.0236 75.2698 75.0916 75.7018 75.0916C76.1898 75.0916 76.5738 74.9956 76.8538 74.8036C77.1338 74.6116 77.2738 74.3436 77.2738 73.9996C77.2738 73.7836 77.2178 73.5916 77.1058 73.4236C76.9938 73.2556 76.7938 73.1276 76.5058 73.0396C76.2258 72.9516 75.8298 72.9076 75.3178 72.9076H73.1698L73.6018 68.1796H78.7258V69.7396H74.2978L75.3058 68.8516L75.0058 72.2236L73.9978 71.3356H75.7738C76.6058 71.3356 77.2738 71.4516 77.7778 71.6836C78.2898 71.9076 78.6618 72.2156 78.8938 72.6076C79.1258 72.9996 79.2418 73.4436 79.2418 73.9396C79.2418 74.4356 79.1178 74.8956 78.8698 75.3196C78.6218 75.7356 78.2378 76.0756 77.7178 76.3396C77.2058 76.5956 76.5498 76.7236 75.7498 76.7236ZM81.1345 76.6756C80.8145 76.6756 80.5385 76.5676 80.3065 76.3516C80.0825 76.1276 79.9705 75.8436 79.9705 75.4996C79.9705 75.1556 80.0825 74.8796 80.3065 74.6716C80.5385 74.4556 80.8145 74.3476 81.1345 74.3476C81.4625 74.3476 81.7385 74.4556 81.9625 74.6716C82.1865 74.8796 82.2985 75.1556 82.2985 75.4996C82.2985 75.8436 82.1865 76.1276 81.9625 76.3516C81.7385 76.5676 81.4625 76.6756 81.1345 76.6756ZM86.6188 76.7236C85.9308 76.7236 85.3148 76.5556 84.7708 76.2196C84.2268 75.8756 83.7988 75.3796 83.4868 74.7316C83.1748 74.0836 83.0188 73.2996 83.0188 72.3796C83.0188 71.4596 83.1748 70.6756 83.4868 70.0276C83.7988 69.3796 84.2268 68.8876 84.7708 68.5516C85.3148 68.2076 85.9308 68.0356 86.6188 68.0356C87.3148 68.0356 87.9308 68.2076 88.4668 68.5516C89.0108 68.8876 89.4388 69.3796 89.7508 70.0276C90.0628 70.6756 90.2188 71.4596 90.2188 72.3796C90.2188 73.2996 90.0628 74.0836 89.7508 74.7316C89.4388 75.3796 89.0108 75.8756 88.4668 76.2196C87.9308 76.5556 87.3148 76.7236 86.6188 76.7236ZM86.6188 75.0796C86.9468 75.0796 87.2308 74.9876 87.4708 74.8036C87.7188 74.6196 87.9108 74.3276 88.0468 73.9276C88.1908 73.5276 88.2628 73.0116 88.2628 72.3796C88.2628 71.7476 88.1908 71.2316 88.0468 70.8316C87.9108 70.4316 87.7188 70.1396 87.4708 69.9556C87.2308 69.7716 86.9468 69.6796 86.6188 69.6796C86.2988 69.6796 86.0148 69.7716 85.7668 69.9556C85.5268 70.1396 85.3348 70.4316 85.1908 70.8316C85.0548 71.2316 84.9868 71.7476 84.9868 72.3796C84.9868 73.0116 85.0548 73.5276 85.1908 73.9276C85.3348 74.3276 85.5268 74.6196 85.7668 74.8036C86.0148 74.9876 86.2988 75.0796 86.6188 75.0796Z" fill="#333333"/>
<line x1="98.25" y1="67.0796" x2="98.25" y2="77.0796" stroke="#333333" stroke-width="0.5"/>
<path d="M105.396 76.5796V75.3196L108.636 72.2596C108.892 72.0276 109.08 71.8196 109.2 71.6356C109.32 71.4516 109.4 71.2836 109.44 71.1316C109.488 70.9796 109.512 70.8396 109.512 70.7116C109.512 70.3756 109.396 70.1196 109.164 69.9436C108.94 69.7596 108.608 69.6676 108.168 69.6676C107.816 69.6676 107.488 69.7356 107.184 69.8716C106.888 70.0076 106.636 70.2196 106.428 70.5076L105.012 69.5956C105.332 69.1156 105.78 68.7356 106.356 68.4556C106.932 68.1756 107.596 68.0356 108.348 68.0356C108.972 68.0356 109.516 68.1396 109.98 68.3476C110.452 68.5476 110.816 68.8316 111.072 69.1996C111.336 69.5676 111.468 70.0076 111.468 70.5196C111.468 70.7916 111.432 71.0636 111.36 71.3356C111.296 71.5996 111.16 71.8796 110.952 72.1756C110.752 72.4716 110.456 72.8036 110.064 73.1716L107.376 75.7036L107.004 74.9956H111.744V76.5796H105.396ZM112.474 76.5796V75.3196L115.714 72.2596C115.97 72.0276 116.158 71.8196 116.278 71.6356C116.398 71.4516 116.478 71.2836 116.518 71.1316C116.566 70.9796 116.59 70.8396 116.59 70.7116C116.59 70.3756 116.474 70.1196 116.242 69.9436C116.018 69.7596 115.686 69.6676 115.246 69.6676C114.894 69.6676 114.566 69.7356 114.262 69.8716C113.966 70.0076 113.714 70.2196 113.506 70.5076L112.09 69.5956C112.41 69.1156 112.858 68.7356 113.434 68.4556C114.01 68.1756 114.674 68.0356 115.426 68.0356C116.05 68.0356 116.594 68.1396 117.058 68.3476C117.53 68.5476 117.894 68.8316 118.15 69.1996C118.414 69.5676 118.546 70.0076 118.546 70.5196C118.546 70.7916 118.51 71.0636 118.438 71.3356C118.374 71.5996 118.238 71.8796 118.03 72.1756C117.83 72.4716 117.534 72.8036 117.142 73.1716L114.454 75.7036L114.082 74.9956H118.822V76.5796H112.474ZM123.224 76.7236C122.536 76.7236 121.92 76.5556 121.376 76.2196C120.832 75.8756 120.404 75.3796 120.092 74.7316C119.78 74.0836 119.624 73.2996 119.624 72.3796C119.624 71.4596 119.78 70.6756 120.092 70.0276C120.404 69.3796 120.832 68.8876 121.376 68.5516C121.92 68.2076 122.536 68.0356 123.224 68.0356C123.92 68.0356 124.536 68.2076 125.072 68.5516C125.616 68.8876 126.044 69.3796 126.356 70.0276C126.668 70.6756 126.824 71.4596 126.824 72.3796C126.824 73.2996 126.668 74.0836 126.356 74.7316C126.044 75.3796 125.616 75.8756 125.072 76.2196C124.536 76.5556 123.92 76.7236 123.224 76.7236ZM123.224 75.0796C123.552 75.0796 123.836 74.9876 124.076 74.8036C124.324 74.6196 124.516 74.3276 124.652 73.9276C124.796 73.5276 124.868 73.0116 124.868 72.3796C124.868 71.7476 124.796 71.2316 124.652 70.8316C124.516 70.4316 124.324 70.1396 124.076 69.9556C123.836 69.7716 123.552 69.6796 123.224 69.6796C122.904 69.6796 122.62 69.7716 122.372 69.9556C122.132 70.1396 121.94 70.4316 121.796 70.8316C121.66 71.2316 121.592 71.7476 121.592 72.3796C121.592 73.0116 121.66 73.5276 121.796 73.9276C121.94 74.3276 122.132 74.6196 122.372 74.8036C122.62 74.9876 122.904 75.0796 123.224 75.0796ZM131.369 76.7236C130.681 76.7236 130.065 76.5556 129.521 76.2196C128.977 75.8756 128.549 75.3796 128.237 74.7316C127.925 74.0836 127.769 73.2996 127.769 72.3796C127.769 71.4596 127.925 70.6756 128.237 70.0276C128.549 69.3796 128.977 68.8876 129.521 68.5516C130.065 68.2076 130.681 68.0356 131.369 68.0356C132.065 68.0356 132.681 68.2076 133.217 68.5516C133.761 68.8876 134.189 69.3796 134.501 70.0276C134.813 70.6756 134.969 71.4596 134.969 72.3796C134.969 73.2996 134.813 74.0836 134.501 74.7316C134.189 75.3796 133.761 75.8756 133.217 76.2196C132.681 76.5556 132.065 76.7236 131.369 76.7236ZM131.369 75.0796C131.697 75.0796 131.981 74.9876 132.221 74.8036C132.469 74.6196 132.661 74.3276 132.797 73.9276C132.941 73.5276 133.013 73.0116 133.013 72.3796C133.013 71.7476 132.941 71.2316 132.797 70.8316C132.661 70.4316 132.469 70.1396 132.221 69.9556C131.981 69.7716 131.697 69.6796 131.369 69.6796C131.049 69.6796 130.765 69.7716 130.517 69.9556C130.277 70.1396 130.085 70.4316 129.941 70.8316C129.805 71.2316 129.737 71.7476 129.737 72.3796C129.737 73.0116 129.805 73.5276 129.941 73.9276C130.085 74.3276 130.277 74.6196 130.517 74.8036C130.765 74.9876 131.049 75.0796 131.369 75.0796ZM138.3 75.1516V69.6076H139.848V75.1516H138.3ZM136.224 73.1116V71.6476H141.936V73.1116H136.224ZM147.059 76.5796V68.1796H150.695C151.447 68.1796 152.095 68.3036 152.639 68.5516C153.183 68.7916 153.603 69.1396 153.899 69.5956C154.195 70.0516 154.343 70.5956 154.343 71.2276C154.343 71.8516 154.195 72.3916 153.899 72.8476C153.603 73.2956 153.183 73.6396 152.639 73.8796C152.095 74.1196 151.447 74.2396 150.695 74.2396H148.139L149.003 73.3876V76.5796H147.059ZM152.398 76.5796L150.299 73.5316H152.375L154.499 76.5796H152.398ZM149.003 73.6036L148.139 72.6916H150.587C151.187 72.6916 151.635 72.5636 151.931 72.3076C152.227 72.0436 152.375 71.6836 152.375 71.2276C152.375 70.7636 152.227 70.4036 151.931 70.1476C151.635 69.8916 151.187 69.7636 150.587 69.7636H148.139L149.003 68.8396V73.6036ZM158.955 76.6756C158.219 76.6756 157.571 76.5316 157.011 76.2436C156.459 75.9556 156.031 75.5636 155.727 75.0676C155.423 74.5636 155.271 73.9916 155.271 73.3516C155.271 72.7036 155.419 72.1316 155.715 71.6356C156.019 71.1316 156.431 70.7396 156.951 70.4596C157.471 70.1716 158.059 70.0276 158.715 70.0276C159.347 70.0276 159.915 70.1636 160.419 70.4356C160.931 70.6996 161.335 71.0836 161.631 71.5876C161.927 72.0836 162.075 72.6796 162.075 73.3756C162.075 73.4476 162.071 73.5316 162.063 73.6276C162.055 73.7156 162.047 73.7996 162.039 73.8796H156.795V72.7876H161.055L160.335 73.1116C160.335 72.7756 160.267 72.4836 160.131 72.2356C159.995 71.9876 159.807 71.7956 159.567 71.6596C159.327 71.5156 159.047 71.4436 158.727 71.4436C158.407 71.4436 158.123 71.5156 157.875 71.6596C157.635 71.7956 157.447 71.9916 157.311 72.2476C157.175 72.4956 157.107 72.7916 157.107 73.1356V73.4236C157.107 73.7756 157.183 74.0876 157.335 74.3596C157.495 74.6236 157.715 74.8276 157.995 74.9716C158.283 75.1076 158.619 75.1756 159.003 75.1756C159.347 75.1756 159.647 75.1236 159.903 75.0196C160.167 74.9156 160.407 74.7596 160.623 74.5516L161.619 75.6316C161.323 75.9676 160.951 76.2276 160.503 76.4116C160.055 76.5876 159.539 76.6756 158.955 76.6756ZM164.956 76.5796L162.244 70.1236H164.176L166.432 75.6796H165.472L167.812 70.1236H169.612L166.888 76.5796H164.956ZM170.376 76.5796V70.1236H172.248V76.5796H170.376ZM171.312 69.2236C170.968 69.2236 170.688 69.1236 170.472 68.9236C170.256 68.7236 170.148 68.4756 170.148 68.1796C170.148 67.8836 170.256 67.6356 170.472 67.4356C170.688 67.2356 170.968 67.1356 171.312 67.1356C171.656 67.1356 171.936 67.2316 172.152 67.4236C172.368 67.6076 172.476 67.8476 172.476 68.1436C172.476 68.4556 172.368 68.7156 172.152 68.9236C171.944 69.1236 171.664 69.2236 171.312 69.2236ZM177.189 76.6756C176.453 76.6756 175.805 76.5316 175.245 76.2436C174.693 75.9556 174.265 75.5636 173.961 75.0676C173.657 74.5636 173.505 73.9916 173.505 73.3516C173.505 72.7036 173.653 72.1316 173.949 71.6356C174.253 71.1316 174.665 70.7396 175.185 70.4596C175.705 70.1716 176.293 70.0276 176.949 70.0276C177.581 70.0276 178.149 70.1636 178.653 70.4356C179.165 70.6996 179.569 71.0836 179.865 71.5876C180.161 72.0836 180.309 72.6796 180.309 73.3756C180.309 73.4476 180.305 73.5316 180.297 73.6276C180.289 73.7156 180.281 73.7996 180.273 73.8796H175.029V72.7876H179.289L178.569 73.1116C178.569 72.7756 178.501 72.4836 178.365 72.2356C178.229 71.9876 178.041 71.7956 177.801 71.6596C177.561 71.5156 177.281 71.4436 176.961 71.4436C176.641 71.4436 176.357 71.5156 176.109 71.6596C175.869 71.7956 175.681 71.9916 175.545 72.2476C175.409 72.4956 175.341 72.7916 175.341 73.1356V73.4236C175.341 73.7756 175.417 74.0876 175.569 74.3596C175.729 74.6236 175.949 74.8276 176.229 74.9716C176.517 75.1076 176.853 75.1756 177.237 75.1756C177.581 75.1756 177.881 75.1236 178.137 75.0196C178.401 74.9156 178.641 74.7596 178.857 74.5516L179.853 75.6316C179.557 75.9676 179.185 76.2276 178.737 76.4116C178.289 76.5876 177.773 76.6756 177.189 76.6756ZM182.914 76.5796L180.586 70.1236H182.35L184.282 75.6796H183.442L185.458 70.1236H187.042L188.998 75.6796H188.158L190.15 70.1236H191.806L189.466 76.5796H187.654L185.938 71.8156H186.49L184.714 76.5796H182.914ZM194.755 76.6756C194.203 76.6756 193.671 76.6116 193.159 76.4836C192.655 76.3476 192.255 76.1796 191.959 75.9796L192.583 74.6356C192.879 74.8196 193.227 74.9716 193.627 75.0916C194.035 75.2036 194.435 75.2596 194.827 75.2596C195.259 75.2596 195.563 75.2076 195.739 75.1036C195.923 74.9996 196.015 74.8556 196.015 74.6716C196.015 74.5196 195.943 74.4076 195.799 74.3356C195.663 74.2556 195.479 74.1956 195.247 74.1556C195.015 74.1156 194.759 74.0756 194.479 74.0356C194.207 73.9956 193.931 73.9436 193.651 73.8796C193.371 73.8076 193.115 73.7036 192.883 73.5676C192.651 73.4316 192.463 73.2476 192.319 73.0156C192.183 72.7836 192.115 72.4836 192.115 72.1156C192.115 71.7076 192.231 71.3476 192.463 71.0356C192.703 70.7236 193.047 70.4796 193.495 70.3036C193.943 70.1196 194.479 70.0276 195.103 70.0276C195.543 70.0276 195.991 70.0756 196.447 70.1716C196.903 70.2676 197.283 70.4076 197.587 70.5916L196.963 71.9236C196.651 71.7396 196.335 71.6156 196.015 71.5516C195.703 71.4796 195.399 71.4436 195.103 71.4436C194.687 71.4436 194.383 71.4996 194.191 71.6116C193.999 71.7236 193.903 71.8676 193.903 72.0436C193.903 72.2036 193.971 72.3236 194.107 72.4036C194.251 72.4836 194.439 72.5476 194.671 72.5956C194.903 72.6436 195.155 72.6876 195.427 72.7276C195.707 72.7596 195.987 72.8116 196.267 72.8836C196.547 72.9556 196.799 73.0596 197.023 73.1956C197.255 73.3236 197.443 73.5036 197.587 73.7356C197.731 73.9596 197.803 74.2556 197.803 74.6236C197.803 75.0236 197.683 75.3796 197.443 75.6916C197.203 75.9956 196.855 76.2356 196.399 76.4116C195.951 76.5876 195.403 76.6756 194.755 76.6756Z" fill="#333333"/>
<path d="M105 78.0796H198.091V78.6796H105V78.0796Z" fill="#333333"/>
<defs>
<clipPath id="clip0_6657_226">
<rect width="79.7254" height="19.5794" fill="white" transform="translate(63.1373 5)"/>
</clipPath>
</defs>
</svg>
