<svg id="Layer_1" data-name="Layer 1" xmlns="http://www.w3.org/2000/svg" viewBox="0 0 60 60"><defs><style>.cls-1{fill:#231f20;}</style></defs><path class="cls-1" d="M44.08,30V58.77c0,1.22,0,1.23-1.2,1.23H17.09c-1.16,0-1.17,0-1.17-1.2V1.19C15.92,0,15.92,0,17.1,0H43c1.11,0,1.12,0,1.12,1.16ZM16.62,58.65a1.47,1.47,0,0,0,.67-.51c1.28-1.32,2.52-2.67,3.83-4a2.38,2.38,0,0,0,.73-1.87V7.23a1.33,1.33,0,0,0-.35-1C20,4.65,18.45,3.06,16.91,1.48a.2.2,0,0,0-.27,0l0,0Zm26.68,0V1.48C41.69,3,40.19,4.53,38.65,6a1.61,1.61,0,0,0-.5,1.31v45.1A1.89,1.89,0,0,0,38.73,54c1,.9,1.84,1.85,2.75,2.8a19.3,19.3,0,0,0,1.82,1.91ZM37.39,7.38l-4.08,4a1,1,0,0,0-.25.86V47.61a1,1,0,0,0,.21.81l4.07,3.76ZM22.57,52.68l4.15-4.34a1.07,1.07,0,0,0,.14-.76V12.38a1.39,1.39,0,0,0-.4-1C25.31,10.21,24.2,9,23.07,7.86c-.13-.13-.21-.38-.51-.27ZM17.37.77c0,.39.29.55.49.76,1.29,1.33,2.62,2.65,3.89,4a1.82,1.82,0,0,0,1.46.6c3.9,0,7.8-.12,11.7,0a5.3,5.3,0,0,0,4.77-2A45.18,45.18,0,0,1,43.07.73Zm-.23,58.44H42.83c-1.62-1.71-3.26-3.38-4.83-5a1.23,1.23,0,0,0-1-.3H23a1.56,1.56,0,0,0-1.24.54c-.78.84-1.58,1.67-2.38,2.49ZM32.42,47.44V12.26c-.63.64-1.13,1.17-1.66,1.67a1.33,1.33,0,0,0-.42,1V44.8a1,1,0,0,0,.23.81ZM27.63,12.52V47.44c.61-.63,1.09-1.17,1.62-1.68a1.51,1.51,0,0,0,.47-1.18V15.36a1.12,1.12,0,0,0-.23-.88ZM22.94,53.27H37.05l-4-4.2a.84.84,0,0,0-.64-.24H27.64a.73.73,0,0,0-.59.17Zm0-46.5L27,11a1,1,0,0,0,.81.22H32a1.51,1.51,0,0,0,1.18-.49c1.13-1.16,2.28-2.31,3.42-3.46.13-.13.38-.22.29-.51Zm9.17,41.35-1.74-1.86a.36.36,0,0,0-.49-.07l-.06.07L28,48.13ZM28.17,12l-.22.27c.57.49,1.15,1,1.71,1.45.2.15.38.21.56,0a13.55,13.55,0,0,0,1.64-1.75Z"/></svg>