<svg id="Layer_1" data-name="Layer 1" xmlns="http://www.w3.org/2000/svg" viewBox="0 0 33.72 33.72"><defs><style>.cls-1,.cls-2,.cls-3{fill:none;}.cls-1,.cls-2{stroke:#000;stroke-miterlimit:22.93;stroke-width:0.3px;}.cls-1{fill-rule:evenodd;}</style></defs><polygon class="cls-1" points="6.56 6.34 9.76 4.65 16.8 3.79 25.04 4.83 27.18 6.3 28.91 8.89 29.93 16.43 29.13 24.02 27.4 27.31 24.39 28.91 16.81 29.93 8.68 28.92 6.16 27.1 4.55 24.02 3.79 16.57 4.82 8.93 6.56 6.34"/><line class="cls-2" x1="10.62" y1="6.99" x2="16.8" y2="3.79"/><line class="cls-2" x1="16.84" y1="10.29" x2="10.62" y2="6.99"/><line class="cls-2" x1="9.76" y1="4.65" x2="10.62" y2="6.99"/><line class="cls-2" x1="6.56" y1="6.34" x2="10.62" y2="6.99"/><line class="cls-2" x1="10.97" y1="11.01" x2="10.62" y2="6.99"/><polyline class="cls-1" points="4.82 8.93 7.43 9.82 10.97 11.02"/><line class="cls-2" x1="6.56" y1="6.34" x2="7.43" y2="9.82"/><polygon class="cls-1" points="3.79 16.57 7.43 9.82 10.27 16.54 6.9 23.04 3.79 16.57"/><polyline class="cls-1" points="4.55 24.02 6.9 23.04 10.79 22.55 10.27 16.54"/><line class="cls-2" x1="10.97" y1="11.01" x2="16.84" y2="10.29"/><line class="cls-2" x1="10.27" y1="16.54" x2="10.97" y2="11.01"/><line class="cls-2" x1="6.9" y1="23.04" x2="6.29" y2="27.01"/><polyline class="cls-1" points="10.79 22.55 10.03 26.23 8.68 28.92"/><polyline class="cls-1" points="16.81 29.93 10.03 26.23 6.16 27.1"/><line class="cls-2" x1="16.79" y1="23.23" x2="10.03" y2="26.23"/><line class="cls-2" x1="10.79" y1="22.55" x2="16.79" y2="23.23"/><line class="cls-2" x1="23.05" y1="6.99" x2="16.8" y2="3.79"/><line class="cls-2" x1="16.84" y1="10.29" x2="23.05" y2="6.99"/><line class="cls-2" x1="25.04" y1="4.83" x2="23.05" y2="6.99"/><line class="cls-2" x1="27.18" y1="6.3" x2="23.05" y2="6.99"/><line class="cls-2" x1="22.71" y1="11.01" x2="23.05" y2="6.99"/><polyline class="cls-1" points="28.91 8.89 26.25 9.82 22.71 11.02"/><line class="cls-2" x1="27.18" y1="6.3" x2="26.25" y2="9.82"/><polygon class="cls-1" points="29.93 16.43 26.25 9.82 23.41 16.54 26.78 23.04 29.93 16.43"/><polyline class="cls-1" points="29.13 24.02 26.78 23.04 22.89 22.55 23.41 16.54"/><line class="cls-2" x1="22.71" y1="11.01" x2="16.84" y2="10.29"/><line class="cls-2" x1="23.4" y1="16.54" x2="22.71" y2="11.01"/><line class="cls-2" x1="26.78" y1="23.04" x2="27.4" y2="27.31"/><polyline class="cls-1" points="22.89 22.55 23.65 26.23 24.39 28.91"/><polyline class="cls-1" points="16.81 29.93 23.65 26.23 27.4 27.31"/><line class="cls-2" x1="16.79" y1="23.23" x2="23.65" y2="26.23"/><line class="cls-2" x1="22.88" y1="22.55" x2="16.79" y2="23.23"/><rect class="cls-3" width="33.72" height="33.72"/></svg>