<svg width="50" height="31" viewBox="0 0 50 31" fill="none" xmlns="http://www.w3.org/2000/svg">
<path fill-rule="evenodd" clip-rule="evenodd" d="M47.7734 0.786133H2.13867C1.25 0.786133 0.693359 0.916164 0.390625 1.18551C0.126953 1.49202 0 1.99356 0 2.7366V5.51369V7.75208V23.7552V26.0957V28.7707C0 30.0988 0.722656 30.7861 2.13867 30.7861H47.7734C49.2578 30.7861 50 30.0988 50 28.7707V26.0957V23.7552V7.74279V5.5044V2.72731C50 1.41771 49.2578 0.786133 47.7734 0.786133Z" fill="white"/>
<g clip-path="url(#clip0_5229_399)">
<path fill-rule="evenodd" clip-rule="evenodd" d="M28.5872 20.6067C26.6589 22.0281 23.8638 22.7864 21.4574 22.7864C18.0831 22.7864 15.0454 21.5384 12.7473 19.4627C12.5667 19.2995 12.7285 19.077 12.9452 19.2041C15.4253 20.6472 18.4919 21.5153 21.6596 21.5153C23.7959 21.5153 26.1461 21.0733 28.307 20.156C28.6334 20.0174 28.9064 20.3698 28.5872 20.6067Z" fill="#FF9900"/>
<path fill-rule="evenodd" clip-rule="evenodd" d="M29.3872 19.6891C29.1416 19.3743 27.7578 19.5404 27.1367 19.614C26.9475 19.6371 26.9186 19.4725 27.089 19.354C28.1912 18.5784 29.9997 18.8022 30.2105 19.0622C30.4214 19.3237 30.1557 21.1365 29.12 22.0017C28.9611 22.1346 28.8094 22.0638 28.8802 21.8876C29.1127 21.3069 29.6342 20.0055 29.3872 19.6891Z" fill="#FF9900"/>
<path fill-rule="evenodd" clip-rule="evenodd" d="M27.182 13.8778V13.1238C27.182 13.0097 27.2687 12.9331 27.3727 12.9331H30.7484C30.8567 12.9331 30.9434 13.0111 30.9434 13.1238V13.7694C30.9419 13.8778 30.8509 14.0193 30.6892 14.2432L28.9399 16.7407C29.5899 16.7248 30.276 16.8216 30.8654 17.1538C30.9983 17.2289 31.0344 17.3387 31.0445 17.447V18.2516C31.0445 18.3614 30.9232 18.4899 30.796 18.4235C29.7575 17.8789 28.378 17.8197 27.2297 18.4293C27.1127 18.4928 26.9899 18.3657 26.9899 18.2559V17.4918C26.9899 17.369 26.9913 17.1596 27.1141 16.9733L29.1407 14.067H27.377C27.2687 14.067 27.182 13.9905 27.182 13.8778Z" fill="black"/>
<path fill-rule="evenodd" clip-rule="evenodd" d="M14.8676 18.5825H13.8406C13.7424 18.5752 13.6644 18.5016 13.6571 18.4077V13.1369C13.6571 13.0314 13.7452 12.9476 13.855 12.9476H14.8127C14.9124 12.952 14.9918 13.0285 14.999 13.1239V13.8129H15.0178C15.2677 13.147 15.7372 12.8364 16.3698 12.8364C17.0126 12.8364 17.4142 13.147 17.7031 13.8129C17.9515 13.147 18.5163 12.8364 19.1215 12.8364C19.552 12.8364 20.0229 13.0141 20.3103 13.4128C20.6353 13.8562 20.5689 14.5004 20.5689 15.0652L20.5674 18.3918C20.5674 18.4972 20.4793 18.5825 20.3695 18.5825H19.344C19.2414 18.5752 19.1591 18.4929 19.1591 18.3918V15.5982C19.1591 15.3758 19.1793 14.8211 19.1302 14.6102C19.0536 14.2563 18.824 14.1567 18.5264 14.1567C18.278 14.1567 18.018 14.3228 17.9125 14.5885C17.8071 14.8543 17.8172 15.2992 17.8172 15.5982V18.3918C17.8172 18.4972 17.7291 18.5825 17.6193 18.5825H16.5937C16.4897 18.5752 16.4088 18.4929 16.4088 18.3918L16.4074 15.5982C16.4074 15.0103 16.5042 14.1451 15.7747 14.1451C15.0366 14.1451 15.0655 14.9887 15.0655 15.5982V18.3918C15.0655 18.4972 14.9774 18.5825 14.8676 18.5825" fill="black"/>
<path fill-rule="evenodd" clip-rule="evenodd" d="M33.8498 12.8364C35.3737 12.8364 36.1985 14.1451 36.1985 15.8091C36.1985 17.4168 35.287 18.6923 33.8498 18.6923C32.3533 18.6923 31.5387 17.3836 31.5387 15.7528C31.5387 14.1119 32.3635 12.8364 33.8498 12.8364ZM33.8585 13.9125C33.1016 13.9125 33.0539 14.9439 33.0539 15.5867C33.0539 16.2309 33.0438 17.606 33.8498 17.606C34.6457 17.606 34.6833 16.4967 34.6833 15.8207C34.6833 15.3758 34.6645 14.8442 34.5301 14.4224C34.4146 14.0556 34.1849 13.9125 33.8585 13.9125Z" fill="black"/>
<path fill-rule="evenodd" clip-rule="evenodd" d="M38.1725 18.5825H37.1499C37.0473 18.5752 36.965 18.4929 36.965 18.3918L36.9635 13.1195C36.9722 13.0228 37.0574 12.9476 37.1614 12.9476H38.1133C38.2029 12.952 38.2765 13.0126 38.2967 13.095V13.901H38.3155C38.603 13.1802 39.006 12.8364 39.7152 12.8364C40.1759 12.8364 40.6252 13.0025 40.914 13.4575C41.1827 13.8793 41.1827 14.5885 41.1827 15.0984V18.4163C41.1711 18.5088 41.0859 18.5825 40.9848 18.5825H39.9549C39.8611 18.5752 39.7831 18.5059 39.7729 18.4163V15.5534C39.7729 14.9771 39.8394 14.1335 39.1302 14.1335C38.8803 14.1335 38.6506 14.3011 38.5365 14.5553C38.3921 14.8774 38.3733 15.1981 38.3733 15.5534V18.3918C38.3718 18.4972 38.2823 18.5825 38.1725 18.5825" fill="black"/>
<path fill-rule="evenodd" clip-rule="evenodd" d="M24.4901 16.0651C24.4901 16.4652 24.5002 16.7988 24.2979 17.1542C24.1347 17.4431 23.8747 17.6207 23.5873 17.6207C23.1929 17.6207 22.9618 17.3203 22.9618 16.8768C22.9618 16.0015 23.7461 15.8426 24.4901 15.8426V16.0651ZM25.5257 18.5683C25.4579 18.629 25.3596 18.6333 25.2831 18.5929C24.9422 18.3097 24.8801 18.1783 24.6937 17.9082C24.1304 18.4831 23.7303 18.655 23.0008 18.655C22.1356 18.655 21.4639 18.122 21.4639 17.0545C21.4639 16.2211 21.9146 15.6534 22.5588 15.376C23.1164 15.1305 23.8949 15.0872 24.4901 15.0193V14.8864C24.4901 14.6423 24.5088 14.3534 24.3644 14.1425C24.2402 13.9533 24.0004 13.8753 23.788 13.8753C23.3966 13.8753 23.0485 14.076 22.9632 14.492C22.9459 14.5845 22.878 14.6755 22.7841 14.6798L21.7889 14.5729C21.7051 14.5542 21.6112 14.4863 21.6358 14.3577C21.864 13.1501 22.956 12.7861 23.9325 12.7861C24.4323 12.7861 25.0852 12.919 25.4795 13.2975C25.9793 13.764 25.9316 14.3866 25.9316 15.064V16.6645C25.9316 17.1455 26.131 17.3564 26.3188 17.6164C26.3838 17.7088 26.3982 17.8201 26.3144 17.8894C26.105 18.0642 25.7323 18.3892 25.5272 18.5712L25.5257 18.5683" fill="black"/>
<path fill-rule="evenodd" clip-rule="evenodd" d="M11.0261 16.0651C11.0261 16.4652 11.0363 16.7988 10.834 17.1542C10.6708 17.4431 10.4122 17.6207 10.1234 17.6207C9.72902 17.6207 9.49935 17.3203 9.49935 16.8768C9.49935 16.0015 10.2837 15.8426 11.0261 15.8426V16.0651ZM12.0618 18.5683C11.9939 18.629 11.8957 18.6333 11.8191 18.5929C11.4783 18.3097 11.4176 18.1783 11.2298 17.9082C10.6665 18.4831 10.2678 18.655 9.5369 18.655C8.67311 18.655 8 18.122 8 17.0545C8 16.2211 8.45211 15.6534 9.0949 15.376C9.65246 15.1305 10.431 15.0872 11.0261 15.0193V14.8864C11.0261 14.6423 11.0449 14.3534 10.9019 14.1425C10.7762 13.9533 10.5365 13.8753 10.3256 13.8753C9.93413 13.8753 9.58457 14.076 9.49935 14.492C9.48201 14.5845 9.41412 14.6755 9.32168 14.6798L8.325 14.5729C8.24122 14.5542 8.14878 14.4863 8.17189 14.3577C8.40156 13.1501 9.49212 12.7861 10.4686 12.7861C10.9684 12.7861 11.6213 12.919 12.0156 13.2975C12.5154 13.764 12.4677 14.3866 12.4677 15.064V16.6645C12.4677 17.1455 12.667 17.3564 12.8548 17.6164C12.9213 17.7088 12.9357 17.8201 12.8519 17.8894C12.6425 18.0642 12.2698 18.3892 12.0647 18.5712L12.0618 18.5683" fill="black"/>
</g>
<defs>
<clipPath id="clip0_5229_399">
<rect width="33.1836" height="10" fill="white" transform="translate(8 12.7861)"/>
</clipPath>
</defs>
</svg>
