<svg id="Layer_1" data-name="Layer 1" xmlns="http://www.w3.org/2000/svg" viewBox="0 0 1080 1080"><path d="M966.46,713.8c-19.83-83.44-66.84-147-140.16-191.17-14-8.41-29-14.84-43.18-23-5.76-3.33-11.61-6.52-16.6-11-6.48-5.78-8.87-13-7.56-21.59,1.06-6.91,4-13.09,7.44-19,7.55-12.9,17.1-24.34,26.41-35.94a391,391,0,0,0,46-72.25,42.69,42.69,0,0,0,2.75-32.17c-2.12-7-7.14-9.63-14.29-8.74-7.34.91-13.43,4.24-18.83,9-1.05.93-1.69,1.4-3.07.37-12-9-24.8-16.88-36.19-26.66-7.48-6.42-15.5-10.82-25.8-9a21.86,21.86,0,0,1-3.71,0H661.47c-14.67,0-29.36.48-44-.27-8.86-.46-16.12,1.83-22.68,7.41-12,10.23-25.41,18.68-38.06,28.09-1.77,1.32-2.71,1-4.2-.36a33.87,33.87,0,0,0-15.3-8.2c-10.15-2.44-16.5,1.6-18.37,11.86a45.5,45.5,0,0,0,3.82,28.6c8.77,18.21,19.48,35.27,30.76,52,9.62,14.22,21.25,26.89,31.34,40.74,6.76,9.29,13.46,18.63,16.76,29.88,3.5,11.92.74,21-9.16,28.31-11.73,8.65-24.77,15.15-37.83,21.45-32.74,15.77-62,36.26-86.65,63.07-52.35,57.08-78.79,124.55-80.05,201.91.16,23.74,1.8,40.06,7.7,65.63A285.2,285.2,0,0,0,470.66,980.2a291.94,291.94,0,0,0,99.18,66.56,298.27,298.27,0,0,0,88.68,21.3,292.51,292.51,0,0,0,43.61.25,283.16,283.16,0,0,0,45.31-6.51c42.09-9.68,80-28.24,113.79-55,40.64-32.22,71.14-72.18,91-120.17,14-33.87,20.33-69.36,21.3-105.82A259.2,259.2,0,0,0,966.46,713.8Zm-166-372.42c-1.53,6-3,11.95-5.11,17.76a7,7,0,0,1-2,2.69q-19.64,18.3-39.31,36.6c-.39.37-.85.67-1.29,1l-.51-.52q6.5-11.39,13-22.75c6.61-11.51,13.27-23,19.77-34.53a4.28,4.28,0,0,1,4.52-2.53c3,.17,6.08.16,9.12,0C800.47,339.08,800.8,339.93,800.44,341.38Zm-142.7-26.62c5.16,5.89,10.35,11.73,16,18.1H635.19c4.81-6.67,10.15-12.39,15.37-18.22C654.14,310.62,654.15,310.67,657.74,314.76Zm-6-18.54c4.13-2.33,8.22-4.75,12.34-7.13l.39.5c-3.15,3.59-6.19,7.29-9.51,10.72-1.81,1.87-2.2-.84-3.12-1.53S650,297.22,651.73,296.22Zm23,42.94c2.24,0,2,1.21,1.64,2.63q-5.46,23.41-11,46.83c-1.84,7.83-3.66,15.68-5.88,23.57-9.37-24.18-18.75-48.27-27.43-73C646.54,339.19,660.63,339.21,674.71,339.16ZM648,308.3c-6.87,7.61-13.6,15.33-20.35,23a4.2,4.2,0,0,1-3.39,1.75c-11.49-.08-23-.05-34.46-.05-.09-.21-.18-.43-.26-.66l28.69-16.73c8.06-4.69,16.25-9.17,24.16-14.11,3.59-2.22,4.06,1.08,5.73,2.39C650.06,305.42,649.51,306.67,648,308.3Zm-24.83,30.88a2.43,2.43,0,0,1,2.73,1.83q12.64,34,25.44,68.06c0,.07-.07.2-.29.82l-67.21-70.7C597.75,339.19,610.48,339.2,623.21,339.18Zm-28.84,21.65c4.17,3.81,8.71,7.48,12.72,11.65,16.16,16.82,32.12,33.85,48.26,50.67,2.55,2.66,3.55,6,5,9.08,3.65,7.83,7,15.77,10.54,23.68a16,16,0,0,1,.41,2l-17.72-16.46q-12.26-11.4-24.5-22.8a25.66,25.66,0,0,1-5-6.28c-9.52-16.7-19.14-33.37-28.69-50.07C595,361.69,594.19,361.12,594.37,360.83Zm70,64.94a6.83,6.83,0,0,1-.46-4.57q8.08-34.36,16.14-68.69a10.63,10.63,0,0,1,.82-1.75c5.59,23.54,11.07,46.65,16.57,69.73a9.17,9.17,0,0,1-.66,6.14c-5,11.15-9.84,22.39-14.73,33.59-.34.8-.7,1.58-1.33,3-3.14-7.19-6-13.84-8.94-20.5C669.33,437.07,666.92,431.39,664.38,425.77Zm43-115.17L727,332.78h-39.1Zm-.81-10.3c-3.27-3.18-6.12-6.79-9.16-10.22.2-.22.41-.43.6-.65,3.92,2.29,7.85,4.61,11.79,6.84,1.41.79,1.09,1.65.09,2.24S708.47,302.11,706.62,300.3ZM771.81,333c-11.68,0-23.36,0-35,0a3.17,3.17,0,0,1-2.55-1.37c-7-7.93-14-15.9-21.07-23.75-1.37-1.51-1.29-2.41,0-3.87,3.49-3.86,3.4-3.9,7.73-1.38q24.17,14.08,48.37,28.14c.88.51,1.72,1,2.6,1.55C771.86,332.58,771.84,332.8,771.81,333Zm4.06,6.18a7.33,7.33,0,0,1,1.37.37c-22.46,23.65-44.7,47.06-67,70.48l-.41-.38q10.9-29.13,21.82-58.27c1.25-3.36,2.59-6.7,3.78-10.08.5-1.44,1.12-2.19,2.83-2.18C750.82,339.23,763.34,339.19,775.87,339.21Zm-49.18,0c2.49,0,2,1.08,1.54,2.73-3.87,13.27-9.41,25.94-14.12,38.9-3.84,10.65-7.92,21.21-12.19,32.64-4.11-17.54-8-34-11.81-50.51-1.66-7.21-3.23-14.45-5-21.63-.46-1.87.06-2.13,1.66-2.11Q706.72,339.21,726.69,339.16ZM701.14,432c3.91-9.87,12.21-16,19-23.37,15-16.23,30.38-32.09,45.63-48.1a2.14,2.14,0,0,1,1.73-.69c-2.63,4.64-5.23,9.27-7.87,13.89-7.35,12.77-14.85,25.46-22,38.36-2.69,4.83-6.9,8-10.71,11.59-12,11.39-24.2,22.61-36.32,33.91l-.58-.41C693.76,448.78,697.76,440.51,701.14,432Zm72.15-139.08c10.06,7.18,20.1,14.38,30.22,21.48a2.17,2.17,0,0,1,1,2.56c-.65,3-.35,6.08-1.63,9.6-10.17-11.17-20.17-22.11-30.15-33.07C772.89,293.3,773.09,293.1,773.29,292.91Zm-4.7,5.13,31.82,35c-4.81,0-8.81,0-12.8,0a1.85,1.85,0,0,1-1.79-1.21q-8.88-16.75-17.74-33.51Zm-29.54-19.89c3.35.32,6.73.48,10.1.61a2.41,2.41,0,0,1,2.39,1.4q12.24,23.25,24.56,46.47c.09.17,0,.42,0,1-6.93-4-13.67-7.9-20.42-11.83-10.77-6.26-21.51-12.6-32.36-18.75-2.26-1.27-2.27-2.07-.6-3.85,4-4.28,7.87-8.67,11.66-13.12A4.9,4.9,0,0,1,739.05,278.15Zm-11.24.13c-4.13,4.71-7.94,9-11.72,13.35-.74.86-1.4.35-2.07,0q-10.41-6-20.82-12.13C704.65,278.94,715.85,277.72,727.81,278.28Zm-46.69,2.08a21.13,21.13,0,0,0,1.19,1.81c6.55,7.44,13.09,14.88,19.71,22.28,1,1.15,1.07,1.93,0,3.1-6.69,7.47-13.36,15-19.93,22.54-1.27,1.46-1.92.89-2.86-.18-6.62-7.53-13.23-15.07-19.91-22.55-1-1.1-1-1.68,0-2.74,6.69-7.48,13.31-15,20-22.51C679.69,281.61,680.21,281.21,681.12,280.36Zm-12.73-.91c-7.06,4.09-14.12,8.14-21.13,12.29-1.13.67-1.56.11-2.19-.59-3.65-4.13-7.32-8.25-11.39-12.81C645.55,277.6,656.86,279,668.39,279.45Zm-58.43.81a2.29,2.29,0,0,1,2.37-1.49,1.88,1.88,0,0,0,.67,0c9.18-2.6,15.64,1,20.63,8.64,1.88,2.9,4.57,5.27,7.1,8.11l-55.09,32c-.15-.17-.31-.34-.45-.51Q597.58,303.65,610,280.26Zm-18.34,21.48c-5.07,9.67-10.24,19.27-15.25,28.95-.92,1.74-1.92,2.48-3.91,2.39-3.5-.17-7-.05-11.38-.05l31.09-34.14C593,300.27,592,301,591.62,301.74ZM557.08,316.3c-.14-1,.22-1.35.93-1.85q14.9-10.54,29.73-21.14c.14-.1.4,0,1.26,0L558.28,327C557.84,322.91,557.55,319.59,557.08,316.3Zm9,42.6c-1.94-5.86-3.53-11.8-5.06-17.78-.41-1.67.21-2,1.65-1.94,3.6,0,7.21,0,10.81,0a2.44,2.44,0,0,1,2.4,1.46q16.77,29.3,33.56,58.56c.08.13-.06.39-.17.88-6.5-6.05-12.92-12-19.31-17.95q-11-10.26-22-20.54A6.29,6.29,0,0,1,566.06,358.9Zm8,20c-.57-1.22-1.13-2.43-1.67-3.67-.06-.16.09-.4.2-.85,9.81,9.15,19.54,18.2,29.27,27.27l75,69.92c3.69,3.43,4.12,3.37,7.75,0l103.18-96.24c.32-.29.67-.56,1.64-1.41a109.29,109.29,0,0,1-8.83,18c-23.09,39.38-56.12,67.67-97.24,86.9-2.27,1.06-4,.54-6-.36a221.47,221.47,0,0,1-59.22-39.78A194.22,194.22,0,0,1,574.1,378.86Zm107.62,630.61c-127.3.36-234-102.52-233.9-233.19s106.73-233.87,233.5-232.74c126.84-.49,230.32,102.9,232.34,228.76C915.8,904.88,808,1009.09,681.72,1009.47Z"/><path d="M106.34,166.91c.73-4.89,1.28-9.81,2.77-14.55,10.2-32.49,32-52.18,65.4-58.78a59.4,59.4,0,0,1,21.6-.37c1.76.3,2.7,0,3.54-1.9a135.17,135.17,0,0,1,58.6-63.61,127.26,127.26,0,0,1,46.64-15.47c40.91-5.09,77.26,5.56,108.56,32.55A130.89,130.89,0,0,1,448,91.83c.7,1.6,1.66,1.59,3,1.4a74.27,74.27,0,0,1,46.23,8.45c23.68,12.64,38.24,32.34,42.85,58.83,3.88,22.35-1,43-14.28,61.43-13,18-30.67,28.85-52.55,32.77a63,63,0,0,1-13.14,1.07A4,4,0,0,0,457,257a94.82,94.82,0,0,1-51.79,25.14,85.78,85.78,0,0,1-24.89.08c-1.82-.25-2.49-.94-2.46-2.87.12-7.79,0-15.58.05-23.37,0-2.11.07-2.11,2.17-1.76,26.73,4.45,48.22-4.65,65.14-25.35a3.81,3.81,0,0,1,4.37-1.62c29.21,5.9,58.42-13.89,63.4-44.37a54.06,54.06,0,0,0-44.62-62.09,52.67,52.67,0,0,0-35.92,6.65c-2.55,1.48-2.52,1.49-3.12-1.47a108.21,108.21,0,0,0-27.16-53.16c-15.89-17.07-35.27-28.1-58.2-32.3-31-5.67-59.57.69-84.91,19.61-22.26,16.61-36,38.83-41.53,66.06-.51,2.51-.52,2.51-2.74,1.2-31.91-18.77-73.54.35-80.17,36.74A54,54,0,0,0,169,224.84c18.1,6.64,35.13,3.88,50.8-7.32,1.86-1.32,1.83-1.33,2.85.6,9.67,18.32,24.74,29.75,44.71,34.83,1.65.43,2.24,1,2.22,2.77-.09,7.85,0,15.7-.05,23.55,0,2.27,0,2.3-2.2,1.93a94.55,94.55,0,0,1-47.71-22.81,72.54,72.54,0,0,1-6-5.8,2.06,2.06,0,0,0-2.52-.69,73,73,0,0,1-26.35,3.89,79.46,79.46,0,0,1-42.91-14.14c-17.93-12.38-29.25-29.32-33.94-50.62-.69-3.17-1.06-6.42-1.57-9.63Z"/><path d="M351,269.26v65.56c0,2.49,0,2.5-2.48,2.5H298.92c-2.48,0-2.49,0-2.49-2.48V204.25c0-2.79,0-2.79-2.88-2.79H244.83c-.54,0-1.09,0-1.63,0s-.88-.36-.42-.92a14.13,14.13,0,0,1,1-1L322,121.22c1.68-1.68,1.69-1.68,3.37,0l78.25,78.25c.26.25.52.5.76.77s.62.5.45.91-.62.29-1,.3-1,0-1.45,0q-24.45,0-48.9,0c-2.53,0-2.53,0-2.53,2.6Z"/></svg>