<svg id="Layer_1" data-name="Layer 1" xmlns="http://www.w3.org/2000/svg" viewBox="0 0 1080 1080"><defs><style>.cls-1{fill:#0f0f0f;}.cls-2{fill:#070707;}</style></defs><path class="cls-1" d="M712.38,1027.94c-153.53,49.53-303.57,55.86-450.71-9.71C160.57,973.17,111.41,887.35,109.6,780.17c-3.16-187.57,66.29-346,209.23-469.94,8.75-7.59,17.69-23,33.83-8.87,13.23,11.55,27.66,16.07,2.82,36.22C214.61,451.88,148.85,602.65,153.39,783c2.62,104.09,57.5,174.72,155,209,113.64,40,229.75,40.87,345.2,8C681.51,992,699.31,993.3,712.38,1027.94Z"/><path class="cls-2" d="M637.24,863.94c5-4.87,5.88-6.45,6.83-6.51,75.65-4.39,78-4.49,74.62-82.93-1.68-38.91,8.49-52.64,48-48,30.49,3.59,61.78,1.42,92.66.32,17.3-.62,24.21,5.13,23.44,22.83-1.06,24.15,1.65,48.56-.73,72.52-2.8,28.23,6.82,39.16,35.27,35.3,14.14-1.92,28.76-.33,53.17-.33-38.48,47.26-71.71,88.08-105,128.89-14.43,17.7-30.31,34.42-43,53.28-15.45,23-25.48,22.51-42.74.19C733.89,980.19,685.38,922.88,637.24,863.94Z"/><path class="cls-1" d="M491.72,886.38c-17,3.07-26.21-2.62-23.25-21.2,3.93-24.59-3.92-37.08-31.35-37.12-14.12,0-28.3-7.58-42.3-12.2-27.38-9-11.9-27.17-9.12-42.93,3.78-21.5,14.34-15.49,28.48-9.68,28.88,11.84,59,18.54,90.57,10.52,18.75-4.76,31.25-16.39,34.94-35,3.5-17.66-5-32.81-19.66-41.11-23.27-13.12-48.07-23.55-72.35-34.87-38.93-18.16-68.57-43.35-67.2-90.92,1.33-46.31,27.16-75.77,69.48-88.43,22.24-6.65,22.13-20,20.75-36.4-1.53-18,3.3-26.93,24-27,20.35-.11,27.57,8.1,24,26.28-5.73,28.9,14.41,26.56,32.63,32,16.46,4.92,47.34-2.93,40.73,33.32-4.43,24.31-11.63,35.53-39.52,23.41-23.22-10.1-49.68-13.39-75-3.6-30.4,11.76-36.48,44.21-10,62.94,19.47,13.74,42.49,22.86,64.69,32.23,45.19,19.07,80.3,46.6,79,100.45-1.24,50.3-29,82.81-77.28,96-23.54,6.44-17.94,23.88-17.39,38.81C517.26,880.42,512.33,890.73,491.72,886.38Z"/><path class="cls-1" d="M618,28c-83.15,49.37-164.41,51.7-246.73.24A104.05,104.05,0,0,0,357,20.87c-33.16-14.15-48.75-7-53.22,28.44-7.07,56.16,4.85,110.16,30.49,159.85C367.18,272.9,417.15,314,493,314.65c56.68.7,101.45-23.21,135.67-67,41.45-53,57.4-114.87,56.92-180.87C685.18,12.9,664.78.27,618,28ZM500.88,272C411.06,276.6,342.74,186.55,348.4,63c98.52,62.77,193.92,61.28,288.77,1.89C650.17,171.17,584.72,267.79,500.88,272Z"/><path class="cls-1" d="M874.4,680.47c1.15,4.68-8.08,4.77-18.36,5.72-17.21,1.59-27.17-2.72-30.19-22.19-8.26-53.33-27.21-103.45-51.36-151.47-34.74-69.06-79.94-129.87-142.25-177-6.22-4.7-26.46-7.23-11.39-21.37,9.69-9.1,18.55-28.12,39.49-11.3,31.57,25.35,60.6,52.85,85.47,84.66C808.79,468,849.46,558.83,869.48,659,870.27,662.93,871.27,666.83,874.4,680.47Z"/></svg>