<svg id="Layer_1" data-name="Layer 1" xmlns="http://www.w3.org/2000/svg" viewBox="0 0 1080 1080"><defs><style>.cls-1{fill:#151515;}.cls-2{fill:#050505;}.cls-3{fill:#222;}.cls-4{font-size:46.88px;font-family:FONTSPRINGDEMO-QuincyCFMediumRegular, FONTSPRING DEMO - Quincy CF Medium;font-weight:500;letter-spacing:-0.08em;}.cls-5{letter-spacing:-0.12em;}.cls-6{letter-spacing:0em;}.cls-7{letter-spacing:-0.01em;}.cls-8{letter-spacing:-0.05em;}</style></defs><path class="cls-1" d="M861.83,886.27a85.9,85.9,0,0,0-11.19-33.4q-32.28-56-64.63-111.94c-5.84-10.1-13.47-18.54-23.77-24.15-16.17-8.8-31.77-4.34-37.85,11.8-3,7.86-5.1,6.72-10.56,2.77-9.72-7.05-20.36-9.92-32.19-4.45-8.44,3.91-8.46,18.19-15.44,18.08-7.34-.12-14.24-8.87-23.53-9.8-12.48-1.25-20,5.75-27.53,17.9v-26.4q0-325.14,0-650.31c0-43.22-22.52-65.85-65.24-65.87q-154.9,0-309.79,0C200.38,10.52,177,33.73,177,73.88q-.1,341.76,0,683.51c0,39.33,23.55,62.77,62.57,62.77,81.54,0,163.08.27,244.62-.13,29.67-.14,59.42,2.37,89-1.8,3.75-.54,5.52,1.16,7.16,4.08,9.28,16.6,18.68,33.18,28,49.77.31.95.61,1.92.9,2.9-1.37-.06-2.74-.09-4.13-.15-11.34-3.21-22.56-6.88-34-9.52a35.32,35.32,0,0,0-41.24,22.58c-5.77,15.76-2.56,23.84,12.46,31.14,43.49,21.13,87.11,42,130.42,63.51,15.28,7.57,29.23,18.63,47.93,13.2,0,.07.06.16.08.23-.46-6.65,4.45-6.13,9.23-5.77,8.82-10,20.23-15.74,32.53-20,8.08-7.57,17.27-13.34,28.07-16.28,4.93-5.9,24.69-17.2,29.79-16.66a1.62,1.62,0,0,1,.83.67,19.74,19.74,0,0,1-1.15,1.91l3.59-1.17h0l.06,0a1.23,1.23,0,0,1-.27,0,3.28,3.28,0,0,1-1-.13,3.57,3.57,0,0,1-.86-.39,0,0,0,0,1,0,0,3.19,3.19,0,0,1-.33-.27,1.51,1.51,0,0,1,.24-2.33,61.79,61.79,0,0,1,24.68-14c.06,0,.13,0,.22.14-.29-1.91,2.31-3,3.79-4C861.62,909.94,863.2,898.51,861.83,886.27ZM188.91,64C192.07,39.1,209.74,22.17,235,22.11q161.1-.34,322.22,0c25.26.06,42.84,16.9,46,42,1.22,9.61-1,13.41-11.74,13.34-65.12-.49-130.25-.25-195.38-.25s-130.26-.24-195.4.25C189.9,77.45,187.7,73.61,188.91,64Zm14.21,24.25q193.13.63,386.25,0c12.08,0,14.44,3.79,14.42,14.9q-.43,298.16-.34,596.32c0,3.9,2.74,9.81-4.47,11-6.22,1-10.5-.74-13.78-6.94-7.5-14.14-16.59-27.43-23.78-41.71-7.11-14-17.76-24.51-29.38-34.44-5.35-4.58-11.66-5.21-18.21-5.21q-117.15,0-234.27.09c-20.22,0-27.29,7.44-27.39,27.77-.18,36.11,2.92,39.31,38.8,39.31q100,0,200-.08c11.84,0,18.86,5.47,22.09,16.59,1.12,3.83-.07,4.87-3.59,4.71-1.89-.09-3.81,0-5.72,0-100.94,0-201.89-.18-302.83.23-10.39.06-12.57-3.08-12.53-12.85.32-99.58.2-199.17.2-298.74,0-98.82.2-197.62-.27-296.43C188.24,91,191.74,88.25,203.12,88.29ZM496.75,643.23a5.86,5.86,0,0,0-.12.63c-.38,2.29-.24,5.7-2.38,5.75a57,57,0,0,0-2.71,9.25v0c.11,3.14.2,6,1.1,8.6,1.72,4.89,7.36,10.59,4.55,14.3C494,686,486.53,683.26,481,683.28q-99.94.18-199.85.09c-18.77,0-22.69-3.9-22.8-22.7-.17-32.34-.08-32.44,32.43-32.46q104.51,0,209,0h12.55c-6,5-11.32,8.37-14.59,13.41a.06.06,0,0,1,0,0l-.05.09A15.51,15.51,0,0,0,496.75,643.23Zm61.39,165.34c-46.82.19-93.63.09-140.44.09H396q-78.22,0-156.41,0c-32.64,0-50.64-18.09-51-51-.09-8,.65-16.09-.17-24-1.07-10.1,3.37-11.8,12.36-11.72,58.61.36,117.23.18,175.84.18,45.28,0,90.57.18,135.85-.17,7.38,0,11.56,2,15.2,8.68,12.1,22,25,43.6,37.54,65.36C571.73,807.27,571.24,808.51,558.14,808.57ZM830.22,915.05c-38.23,22.16-76.53,44.21-114.61,66.62-6.29,3.72-11.9,4.37-18.14.85-46.22-25.95-95-46.76-142.2-70.61-7.92-4-19.67-5.45-14.23-19.6,4.37-11.35,16.27-18.36,28.6-15,18,4.87,35.72,10.76,53.65,15.94,3.85,1.11,7.62,3.62,13.16,2-15.38-26.67-30.57-53-45.75-79.27q-39.48-68.33-79-136.63c-3.74-6.4-6.4-12.93-6.19-20.48.44-15.42,12.59-22.42,26.11-14.86,6.53,3.66,10.8,9.39,14.48,15.81q36.25,62.94,72.76,125.72c1.79,3.07,2.65,8.6,6.94,8.08s10.28-2.13,6.42-9.77c-3.66-7.2-5.57-15.08-4.49-23.26,1.59-11.94,9.42-16.38,20.42-11.47,11.79,5.25,18.24,15.61,24.65,26.16,1.87,3.12,1.75,10.14,9.16,6.87,7-3.06,4.16-7.32,2.47-12.13a57.39,57.39,0,0,1-3.21-14.43c-.56-7-.22-14.26,7-18s13.35,0,19.08,3.91c8.37,5.77,13.69,14.1,18.74,22.76,1.89,3.24,2.25,9.79,9.5,6.26,6.35-3.09,4-6.91,2.16-11.22-2.95-7.16-4.5-14.61-3.21-22.38,1.73-10.33,8.32-14.32,18.14-10.93,10.32,3.56,17.13,11.38,22.38,20.34Q807.64,802,839.76,858.1a84.87,84.87,0,0,1,6.15,13.52C854.55,895.46,852,902.44,830.22,915.05Zm17.42,8.63a1.4,1.4,0,0,1,.09.17c.4.43.58.55.52.41A7,7,0,0,1,847.64,923.68Zm-1.19-2a3.82,3.82,0,0,0,1.19,2A18.25,18.25,0,0,0,846.45,921.72Zm-54.83,34a.76.76,0,0,0,0,.16l.13-.1Zm-.42-2-.58.16a6.68,6.68,0,0,0-.84,1.21l1.84.61C791.49,955.11,791.33,954.45,791.2,953.78Zm-27,18c0,.07,0,.14,0,.22l.14-.13A1.29,1.29,0,0,0,764.19,971.74Zm-.22-2-1.42.48-.11.11c-1.21,1.14.88,1,1.75,1.41C764.12,971.07,764.06,970.4,764,969.74ZM720.79,996c0,.33.05.69.1,1.07l.15-.2C721,996.53,720.88,996.26,720.79,996Z"/><path class="cls-2" d="M890.58,941.3c-12.59-19.44-20.06-23.39-42.33-17,.06.14-.12,0-.52-.41-4.79,5.68-11,9-17.47,11.95q-1.62.74-3.27,1.44l-3.24,1.43-.06,0h0l-3.59,1.17c-8.08,7.73-17,13.88-28.31,16l-.13.1a50.69,50.69,0,0,1-27.3,15.91l-.14.13c-7.9,8.85-27.39,19.27-34.17,18.33,0,6.19-4,7.05-8.88,6.77,1.16,2.05-.48,3.19-1.58,4.58-9,11.3-8.75,23-1.45,35,3,4.89,5.81,9.83,8.7,14.77,11.18,19.22,24.63,23,43.71,12,34.6-20,68.72-40.77,103.77-59.89C906.41,986,911.28,973.29,890.58,941.3Zm-19.75,27.57c-5.91-.79-8.78-5.3-9.25-11.12-.25-3.2.38-6.68,4.47-6.28,6.35.63,8,6,9.6,10.41C875.65,966,874.35,969.36,870.83,968.87ZM730,990.2a.17.17,0,0,0-.07.08H730v-.09ZM720.89,997l.27,0a.94.94,0,0,0-.12-.22Z"/><path class="cls-2" d="M397,286.28c-70.76-.9-129,56.48-129.73,127.8s55.63,129.13,127.22,130.26c70.94,1.16,129.34-55.86,130.3-127.16C525.79,345.25,469.13,287.2,397,286.28Zm14,199.06c-6,2-9.4,4.2-8.39,10.87.92,6.17-2.23,8.08-8,7.78-5.07-.29-10.66.37-9.61-7.36.88-6.57-2.36-8.51-8.19-9.16-4.49-.51-8.83-2.24-13.31-3.14-10.47-2.11-12.38-7.74-8.4-17.31,2.11-5,4.15-5.27,8.33-3.08a57,57,0,0,0,33.16,6.36c13.33-1.46,21.84-10.11,21.9-22-.15-8.78-4-15.5-11.74-19.51-8.44-4.38-17.24-8-25.75-12.26-14.56-7.19-25.1-17.65-25.23-35-.13-17.61,9-29.66,25-36,5.88-2.32,5.88-6.25,5.52-10.83-.45-5.83,1.68-8.37,7.77-8,5.19.29,10.42-.25,9.38,7.49-.81,6.13,2.27,7.84,7.91,8a55.11,55.11,0,0,1,13.38,2.6c10.34,3,12.16,9.84,5.68,18.51-2.88,3.88-5.26,1.39-7.84.31a51.48,51.48,0,0,0-23.44-3.89c-10.24.63-19,4-21.5,15.16-2.45,10.87,2.8,18.43,12.32,23.19,9.86,4.94,20.12,9.12,29.68,14.55,11.07,6.3,18.63,15.55,19.85,28.94C441.54,462.82,431.8,478.47,411.05,485.34Z"/><path class="cls-2" d="M356.62,765.4c.2-22.1,16.61-39.36,37.48-39.42,21.16-.06,38.35,18.07,38.13,40.2-.2,20.43-16.45,39.07-34.14,39.15C373,805.44,356.4,789.49,356.62,765.4Z"/><path class="cls-3" d="M394.93,54c-14.46,0-28.93.07-43.39-.08-3.11,0-7.74,1.09-7.71-4.15,0-5,4.55-4.38,7.75-4.39q44.52-.16,89.05,0c3.18,0,7.74-.64,7.72,4.42s-4.63,4.12-7.75,4.15C425.37,54.08,410.15,54,394.93,54Z"/><path class="cls-2" d="M315.3,65.17C307,64.86,300.74,57.71,301.16,49s7.23-15.47,15.58-14.63c9.08.92,13.24,6.73,13.39,15.49S323.58,65.47,315.3,65.17Z"/><path class="cls-3" d="M419.18,644.35a1.16,1.16,0,0,0-.2-.18l.11-.17A1.79,1.79,0,0,1,419.18,644.35Z"/><path class="cls-3" d="M497.62,641.75c-.14.29-.51,1-1,2.11a5.86,5.86,0,0,1,.12-.63A15.51,15.51,0,0,1,497.62,641.75Z"/><text class="cls-4" transform="translate(282.14 671.49)">P<tspan class="cls-5" x="24.99" y="0">A</tspan><tspan class="cls-6" x="53.12" y="0">Y </tspan><tspan class="cls-7" x="92.64" y="0">N</tspan><tspan class="cls-8" x="123.91" y="0">O</tspan><tspan class="cls-6" x="155.14" y="0">W</tspan></text></svg>