<svg id="Layer_1" data-name="Layer 1" xmlns="http://www.w3.org/2000/svg" viewBox="0 0 1080 1080"><defs><style>.cls-1{fill:#624db3;}.cls-2{font-size:149.88px;font-family:FONTSPRINGDEMO-QuincyCFMediumRegular, FONTSPRING DEMO - Quincy CF Medium;font-weight:500;}.cls-3{letter-spacing:-0.02em;}.cls-4{letter-spacing:0em;}</style></defs><path d="M1039.15,428.44C1019,388.1,989.46,356,952.38,330.7c-1.92-1.1-3.85-2.18-5.73-3.32-62.49-37.32-128.89-46.57-199-27.23-7.61,2.09-8.45.29-8.42-6.72.24-63.24.15-126.49.15-189.74C739.31,74.08,719.4,54,689.88,54q-259.65,0-519.3,0c-29.44,0-49,19.66-49,49q0,111.09.11,222.19c0,5.38-1.33,8.29-6.51,10.68C92,346.52,69.34,358.1,46.22,368.74c-21.57,9.92-31.45,26.05-31.39,49.87q.48,185.17.13,370.32c0,3.58-.3,7.17-.46,10.77.16,3.3.44,6.63.44,9.94,0,54.38,1,108.77-.33,163.11-.73,31.35,21.16,53.37,53.12,53.31q362.48-.69,724.92-.26c34.08,0,53.23-19,53.23-52.94,0-58,.19-116-.2-173.94-.07-8.78,1.8-11.7,11.22-13.25C1022.12,758.48,1114,578.13,1039.15,428.44ZM139.48,103.61c0-19.37,11.68-31.53,30.74-31.53q257.17-.09,514.36,0c1.1,0,2.21.14,3.3.22,20.6-.78,33.32,11.13,33.34,31.36,0,66-.06,132,.14,197.94,0,5.53-1.57,8.14-6.69,10.48Q630,350.47,590,434.57c-1.72,3.64-3.4,5.67-7.85,5.51-11.9-.41-23.82-.29-35.74-.37-12.2.08-24.4.24-36.61.26H242.59c-2.77,0-5.62-.22-8.28.4-4.62,1.07-7,4.43-6.79,9.16s2.89,7.74,7.63,8.42a53.26,53.26,0,0,0,7.48.11q143.58,0,287.15,0c3.32,0,6.64.16,10,.24,10.79-.1,21.62.17,32.4-.4,6.53-.35,7.94,1.2,5.87,7.61a239.39,239.39,0,0,0-11.36,84.34,231.59,231.59,0,0,0,8.76,55.63c1.52,5.23.43,7.9-3.89,10.94q-66.85,47.17-133.38,94.86c-5.85,4.21-9.79,5-15.55.16-7.79-6.59-16.38-12.2-24.64-18.23q-51.27-36.16-102.54-72.36c-50-35.42-99.84-71-149.91-106.3-4.67-3.29-6.17-6.79-6.16-12.31Q139.57,302.92,139.48,103.61ZM33,427.7c.43-5.51.09-11.08.36-16.6.46-9.58,4.83-17.53,13.16-21.75,24.32-12.4,49-24,74.74-36.5V497c-4.42-3.08-8-5.5-11.45-8-23.69-16.84-47.31-33.8-71.13-50.45C34.62,435.72,32.62,432.73,33,427.7ZM35.3,990c-2-4.73-2.34-9.67-2.34-14.67q0-255.06,0-510.12c0-2.12.3-4.22.47-6.41,3.94-.11,5.87,2.6,8.23,4.28Q224.8,593,407.87,723c5.06,3.6,6.71,5.54.39,9.5-9.61,6-18.76,12.74-28.09,19.17-25,17.93-49.86,35.94-74.9,53.75q-114.49,81.47-229,162.78c-1.35.95-2.79,1.76-4.19,2.63-9.88,7.14-19.88,14.12-29.59,21.49C38.34,995.43,36.9,993.59,35.3,990Zm18.2,16.89C67.29,997,78.91,988.61,90.59,980.3Q257,862,423.44,743.66c5.16-3.67,8.44-3.7,13.61,0q180.52,128.65,361.27,257c2.14,1.52,5,2.39,6.14,6.2Zm774.09-31.37A44.19,44.19,0,0,1,826,987.78c-1.55,5.32-3.23,8-9.5,3.5q-182.46-130-365.22-259.65c-1.54-1.07-2.9-2.4-4.86-4.06,23.25-16.54,46-32.72,68.73-48.88,20.32-14.45,40.75-28.75,60.9-43.43,5.48-4,7.49-4.45,10.81,2.78,39.42,85.66,105.88,135.71,199.28,149.5,10.64,1.58,21.51,2.75,32.31,1.76,7.22-.67,9.31,1.44,9.26,9C827.4,857.34,827.52,916.4,827.59,975.47Zm29.77-208.08c-62,11.51-119.46-1.68-171.93-36.59a40.79,40.79,0,0,1-4.32-3.8c-44.38-31.18-73.59-73.37-87.93-125.28C557,470.39,639.8,337.49,774,312.42c62.08-11.6,120,.65,172.27,37.12,28.64,18.23,50.84,42.72,68,71.67C1096.94,560.44,1016.62,737.89,857.36,767.39Z"/><path d="M594.64,356.36c3.42.86,7.21-.37,10.38,2.13,3.33,2.61,3.76,6,3,9.7-.89,4.46-4.26,6.37-8.45,6.55-7.18.3-14.38.29-21.56.42-3-.12-6.09-.32-9.13-.32q-162.73,0-325.47,0a56.12,56.12,0,0,1-8.31-.16c-5.17-.79-7.71-4.23-7.6-9.31.11-4.78,2.85-7.75,7.56-8.47a49.08,49.08,0,0,1,7.48-.15l341.28,0C587.44,356.7,591,356.48,594.64,356.36Z"/><path d="M418.18,273.47H593.73c2.22,0,4.45-.1,6.66.07,4.87.37,7.48,3.11,7.89,8s-1.8,8.19-6.35,9.41c-2.87.77-6,.62-9,.62q-174.73,0-349.45,0c-11.47,0-15.71-2.34-16-8.81-.29-6.89,3.84-9.29,16-9.29Z"/><path d="M953,434.39c.07-17.6-17.1-26.44-33-17.45Q805.6,481.47,691.38,546.17c-17.09,9.69-17.16,28.34-.25,38.28q20.77,12.19,41.75,24c4.31,2.44,7.11,5.41,8.69,10.38,4.12,12.9,8.95,25.6,13.52,38.36,2.08,5.77,6,9.29,12.35,9.3,6.23,0,10.44-2.94,12.57-8.91,1.77-5,4-9.73,5.54-14.77,1.7-5.79,4.35-6.57,9.67-3.83,14.51,7.51,29.26,14.52,43.94,21.7,17.49,8.58,28.3,4.44,35.12-13.69q38.18-101.4,76.26-202.84C951.81,440.82,953.17,437.45,953,434.39ZM781.49,613.49c-4.3,7.54-9,14.83-13.86,22.75-4.32-7.6-6.13-15.64-9.06-23.24-1.07-2.8-.22-4.84,1.89-6.55q20.82-16.94,41.7-33.73c1-.81,2.54-1,3.82-1.41l.93-.6-.58.95C799.46,586.44,789.55,599.42,781.49,613.49ZM930.91,443.21c-10,27.26-19.93,54.56-30.1,81.77C886.66,562.86,872.3,600.66,858,638.47c-3.61,9.56-3.65,9.56-12.91,5-12.68-6.27-25.19-12.92-38.1-18.62-7-3.12-8-6.06-3.85-12.6,16.08-25.23,31.71-50.76,47.47-76.18,1.46-2.36,3-4.69,4.21-7.15,2.09-4.31,2.66-8.71-1.72-11.95-4-3-8.11-2.82-12.16.5q-21.83,17.92-43.81,35.68c-14,11.3-28,22.49-42.07,33.73-5.43,7.77-11.13,8.36-19.19,2.72-10.16-7.12-21.41-12.68-32.16-19-8.17-4.79-8.18-6-.1-10.54q89.61-50.69,179.24-101.32c13.49-7.62,27-15.3,40.56-22.73,3.15-1.72,6.66-6.52,10-3.21C936.45,435.79,932.61,439.86,930.91,443.21Z"/><path class="cls-1" d="M806,571.32l.94-.62c-.2.32-.4.64-.59,1Z"/><text class="cls-2" transform="translate(268.89 223.81)"><tspan class="cls-3">C</tspan><tspan class="cls-4" x="93.97" y="0">A</tspan><tspan x="202.63" y="0">D</tspan></text></svg>