<svg id="Layer_1" data-name="Layer 1" xmlns="http://www.w3.org/2000/svg" viewBox="0 0 512 512"><defs><style>.cls-1,.cls-2,.cls-3{fill:none;stroke-miterlimit:10;stroke-width:8px;}.cls-1{stroke:#252122;}.cls-2{stroke:#000;}.cls-3{stroke:#252223;}</style></defs><path class="cls-1" d="M283.08,307.52c11.78,0,21.4-.55,30.93.11,20.88,1.44,32.89,18,27.94,38.26C338,362,333.54,377.94,327,393.2c-6.68,15.62-14.92,20.94-31.58,19.42-23-2.09-45.93-5.11-68.94-7.3-10.42-1-14.17-6.18-14-16.34.41-20.93.25-41.88.06-62.82-.06-6.19,1.42-11,7.19-14.16,23-12.5,36.8-32.78,47-56,3.09-7,6.53-13.68,15.3-14.18,9.24-.53,15.48,8.13,13.82,19.34C293.64,276.22,289.31,290.8,283.08,307.52Z"/><path class="cls-2" d="M213.64,216.45c.53-2.23.59-2.67.74-3.08,9-24.61,3.43-44.43-19.08-58.92-2.81-1.81-5.71-4.64-3.94-8.72,1.4-3.22,4.59-3.9,7.75-3.75,26.42,1.23,43.32-10.49,50.21-36.34.87-3.24,2.67-6.83,7.05-6.49,3.58.28,5.17,3.44,5.93,6.28,6.85,25.76,23.63,37.71,50.05,36.44,4.21-.2,6.51,2.09,7.76,5.51,1.35,3.67-1.64,5.89-4,7.37-23.1,14.45-26.82,34.64-18.82,59.15,2.74,8.38-1,11.9-9.62,7.51a6,6,0,0,1-1.16-.59c-20.64-17.13-41-15.82-61.83.07C217.87,226.09,213.43,223.85,213.64,216.45Z"/><path class="cls-2" d="M417.29,182.18c-6.59,15.44,8.12,21.25,18,29.79,2.82,2.42,8,3.84,6.89,8.5-1,4.46-6.24,4.77-9.83,5-18.09,1.18-28.39,10.4-31.59,28.24-.64,3.55-1.33,8.73-5.94,9.33s-6.55-4.28-7.86-7.64c-6.9-17.67-19.87-23.79-38-21.48-3.19.41-7.5,1.34-9.48-2.47-2.11-4,2.13-6.06,3.86-8.84a3.91,3.91,0,0,1,.83-1c14.82-11.67,16.45-26,8.89-42.45-1.38-3-3.46-6.84-.72-9.85,3.53-3.86,7.2-.13,10.71,1a32.44,32.44,0,0,1,7.27,2.89c10.63,6.67,20.29,5.68,29.35-3a24.93,24.93,0,0,1,6.5-4.38c3.28-1.55,5.8-6.38,10.21-3.6,3.71,2.34,1.41,6.43,1.51,9.74C418,174.57,417.63,177.19,417.29,182.18Z"/><path class="cls-2" d="M161.16,174.58c-14.79,20.38-5.35,37,10.55,52.55,2.84,2.78,1,5.75-2.87,6.56a18.81,18.81,0,0,1-6.51.36c-18.43-2.81-30.76,4.55-37.82,21.72-1.37,3.32-3.14,8.1-8,7.38-4-.6-3.87-5.36-5.43-8.35a12.14,12.14,0,0,1-1.22-3.72c-2.51-16.13-12.65-23.39-28.17-25.14-4.49-.51-10.86-.27-12.17-5.71-1.19-4.93,4.57-7.4,8-9.13,17-8.56,19.25-22.69,16.31-39.33-.57-3.24-2.16-7.29,1.63-9.62s6.9,1,9.06,3.2c14.11,14.19,29.24,14.07,45.61,4.39C154.34,167.28,159.15,165.6,161.16,174.58Z"/><path class="cls-2" d="M23.12,267.74c12.65,5.63,16.65-5.74,23.07-13,1.86-2.09,2.85-6.15,6.83-4.7,2.85,1,2.84,4.32,3.07,6.75,1.3,13.9,8.79,21.52,22.4,24.38,8.1,1.7,8,6.41.94,9.61-12.62,5.68-18.66,14.3-16.67,28.53,1,6.79-2,11.42-8.4,4.61-9.78-10.37-20-13.47-33.47-7.17-7.7,3.6-9.08-.64-6.21-7.63,3.67-9,9.83-17.79.31-27.4-3-3-8.35-7.47-5.84-12.12S17.9,269,23.12,267.74Z"/><path class="cls-2" d="M490.16,317c-12-7.88-22.71-3.42-33,7.1-4.87,5-9.17,2.48-8.2-4.62,1.92-14.05-3.61-23-16.54-28.6-7-3-7.34-8.09.84-9.65,14.67-2.81,21-11.8,22.79-25.75,1.05-8.21,5.53-7.4,8.72-1.55,7.07,12.94,17.34,16.63,31.39,14,9.11-1.72,8.84,3.8,4.19,8.66-9.88,10.35-10.34,20.92-3.34,32.86C500,314.54,500.14,319.09,490.16,317Z"/><path class="cls-3" d="M198.37,391.64c.08,8.47-4,13-12.64,12.74-5.59-.16-11.18-.53-16.77-.81-5-1.5-7.65-4.61-7.11-10,0-1.7,0-3.41-.07-5.12q-.28-31.21-.58-62.43c-.06-5.58,1.14-10.36,7.07-12.52,7.13-2.33,14.35-1.52,21.57-.62a6.13,6.13,0,0,1,6.22,4.3c2.59,2.36,2.63,5.22,1.64,8.28,0,.88,0,1.75,0,2.62Q198,359.85,198.37,391.64Z"/></svg>