<svg id="Layer_1" data-name="Layer 1" xmlns="http://www.w3.org/2000/svg" viewBox="0 0 512 512"><defs><style>.cls-1{fill:none;stroke:#000;stroke-miterlimit:10;stroke-width:10px;}</style></defs><path class="cls-1" d="M256,477.39H54.16c-4.25,0-4.33,0-4.08-4.29.84-14.06,5.69-26.76,13.39-38.42,11.7-17.73,27.79-30.63,45.88-41.26,21.1-12.4,43.81-20.72,67.51-26.58q9.38-2.32,18.88-3.93a3.1,3.1,0,0,0,3-2.93c.48-3.56,1-7.12,1.52-10.68.17-1.3-.1-2.05-1.79-1.93-10.67.73-21-1.28-31.19-4.2-12.92-3.7-25.32-8.66-36.52-16.24a38.8,38.8,0,0,1-5.34-4.42c-2.29-2.21-2.56-4.44-.92-7.2,9-15.09,12.31-31.5,11.44-48.87-.7-13.87-3.94-27.28-7.57-40.63-2.87-10.59-6-21.12-7.94-31.94-2.93-16.51-2.64-33.06-.65-49.67a131.27,131.27,0,0,1,7.66-31.67c6.79-17.63,17.18-32.53,33.29-43A79.42,79.42,0,0,1,191,58a18.3,18.3,0,0,0,7.3-2.86c14.49-9.65,29.93-17.19,47.42-19.45,18.56-2.41,36.78-1.06,54.45,5.68C328.74,52.3,350,71.52,364.75,98c5.34,9.56,8.53,20,11.6,30.48,5.24,17.91,8,36.19,6.85,54.88-.78,13-3,25.87-4.69,38.78-2.82,21-7.23,41.79-6.53,63.1.39,11.77,2.83,23,10.22,32.59,1.31,1.72.7,3.06-.67,4.25a28.62,28.62,0,0,1-8.54,4.65c-16.61,6.49-33.86,10.57-51.39,13.59-3.21.56-3.46.72-3.12,4,.66,6.25,2.34,12.29,3.76,18.38.27,1.18,1.1,1.55,2.21,1.8,8.86,2,17.71,4.09,26.42,6.71a266.09,266.09,0,0,1,35.07,13.35,183.42,183.42,0,0,1,33.53,20c16.09,12.11,29.39,26.55,37.15,45.45A67.87,67.87,0,0,1,462,473.7c.12,3.64,0,3.69-3.68,3.69H256Zm88.33-263-.41,0c-1.06,3.58-2.06,7.18-3.17,10.75q-11.24,35.94-44.22,54.15a3.63,3.63,0,0,0-2.27,3.81A12.88,12.88,0,0,1,290,293.26c-8.47,8.39-24.85,8.55-33.38.32a13.65,13.65,0,0,1,.9-20.81c9-7.28,25-7.42,33.35,1.87.9,1,1.6.93,2.64.35a89.24,89.24,0,0,0,25.29-20.8c11.21-13.35,17.72-28.74,20.3-46,.78-5.24-.4-9-4.08-12.63-7.44-7.25-16-13-24.8-18.26-12.57-7.57-25.61-14.29-38.83-20.63-11.61-5.55-23.32-10.86-34.87-16.53-9.77-4.79-19.92-8.88-28.91-15.13-1.42-1-2.23-.62-3.27.46a137.16,137.16,0,0,0-12.57,15.28,131.18,131.18,0,0,0-20.18,43.64c-5.36,20.45-5.29,41.24-3.84,62.1a17.62,17.62,0,0,0,.87,5.31,169.75,169.75,0,0,0,12.14,24.37,178.18,178.18,0,0,0,21.39,28.58c11.41,12.46,24,23.48,39.16,31.32,10.85,5.6,21.26,5.73,32.09-.27,11.41-6.33,21.15-14.64,30-24a182.47,182.47,0,0,0,35.82-54.25c4.46-10.55,8.38-21.25,6.35-33.09C345,221.15,344.71,217.77,344.3,214.42ZM204.57,314.1c-.65.54-.45,1.08-.41,1.56.88,10,1.83,20,1,30-.53,6.76-1.07,13.5-2.74,20.1-.37,1.48-.85,2.64-2.7,2.93q-15.9,2.46-31.53,6.24c-.79.19-1.93.12-2.17,1.06-.19.77.74,1.28,1.25,1.83q9.13,9.78,18.3,19.52c12.33,13.09,25.49,25.19,41.37,34,19.36,10.7,38.69,10.61,58.12,0,12.65-6.89,23.36-16.2,33.66-26.05,9.05-8.66,17.24-18.16,25.82-27.27.57-.61,1.64-1.18,1.39-2-.3-1-1.57-.89-2.45-1.06-7.23-1.43-14.31-3.6-21.65-4.48a3.45,3.45,0,0,1-3.19-2.78c-5.45-17.13-6.78-34.75-6.51-52.58,0-1.83.68-3.66.19-5.5-.8,0-1,.56-1.32.93-9.94,11-20.67,20.93-33.53,28.56-13.38,7.93-26.4,8.13-39.9.38a143,143,0,0,1-25.91-18.9C209.33,318.4,206.93,316.25,204.57,314.1ZM159.5,120.51c23.77-30.3,54.36-46.82,93.27-45.46s68.31,19.84,90.33,51.26a112.93,112.93,0,0,0-9-20.56,102.19,102.19,0,0,0-30.79-34.08,90.11,90.11,0,0,0-59.85-16.15C226.32,56.86,211,62.93,197,72.7a105.27,105.27,0,0,0-28.07,29.41A88.62,88.62,0,0,0,159.5,120.51Z"/></svg>