<svg id="Layer_1" data-name="Layer 1" xmlns="http://www.w3.org/2000/svg" viewBox="0 0 512 512"><defs><style>.cls-1{fill:none;stroke:#000;stroke-miterlimit:10;stroke-width:10px;}</style></defs><path class="cls-1" d="M482,184.31c-4.09,47.6-8.33,95.19-12.19,142.81C468.86,339,463.16,347,453.36,353c-24.95,15.32-49.14,32-74.87,45.85-18.06,9.7-24.75,23.32-25.56,42.57-1,23.14-5.06,26.09-28,23.83-13.11-1.28-26.21-2.85-39.34-3.84-12.27-.93-16.32-7.87-15.34-19.17q3.06-35.08,6.05-70.17c.14-1.64.83-3.32.63-4.9-4.18-32.91,13-51.21,40.57-65.78,30.18-15.95,58.21-35.92,87.47-53.66,12.77-7.74,22.33-5.92,29.37,4,7.57,10.64,5.6,24.41-4.93,33.17a62.8,62.8,0,0,1-8.29,5.36Q393,307,364.76,323.73c-2.84,1.68-5.65,3.41-8.38,5.26s-4.36,4.24-2.2,7.24c1.81,2.51,4.48,1.44,6.69.24,4-2.16,7.9-4.45,11.8-6.76,19.51-11.56,39.2-22.83,58.45-34.8,23.41-14.56,23.18-43-.53-57.26-6.67-4-9.21-8-7.52-15.86,3.47-16.1,6-32.4,9-48.61,1.22-6.62,3.73-12.71,8.61-17.49,7-6.85,15.16-10,24.81-6.38,9.29,3.47,14.94,10.2,16,20.14.51,4.89.09,9.88.09,14.83Z"/><path class="cls-1" d="M241.43,437.89c.48,19.94-.84,21.89-20.08,24.2-14.72,1.76-29.57,2.55-44.37,3.65-10,.75-15.56-4.06-17-13.86-.36-2.45-1.27-5-1-7.34,3.11-24.38-10.21-37.68-30-48.58-23.11-12.71-44.9-27.82-67.58-41.34-12.92-7.7-18.57-18.25-19.61-33.32-3.15-45.23-7.44-90.39-11.27-135.57-.24-2.88-.53-5.77-.56-8.65-.14-15.81,8.26-27.18,21.36-29,12.56-1.77,25,7.62,28.19,22.48,3.77,17.32,6.5,34.86,10,52.24C91,229.6,88.27,233.32,82.76,237c-25.35,16.71-25,43.61.92,59.47,21.46,13.14,43.25,25.76,65,38.45,3.26,1.9,7.65,6,10.51.4,2.31-4.48-2.87-6.23-5.81-8-20.51-12.33-41.12-24.49-61.74-36.65-5-3-9.88-6.11-13.35-10.86-7-9.57-6.62-19.33.39-28.58,7.17-9.48,16.75-10.44,26.43-4.78,16.75,9.77,33.06,20.27,49.55,30.49,20.7,12.82,41.29,25.83,62.12,38.43,10,6,15.92,14.58,16.92,25.9C236.56,373.67,238.92,406.16,241.43,437.89Z"/><path class="cls-1" d="M211.65,282.09c-14.4,2.23-23.92-3.6-29.12-17.12-3.75-9.71-10.38-16.57-20.47-20.11-12.23-4.29-17.38-13.43-15.95-26.07a42.79,42.79,0,0,0-9-32.4c-7.72-10-7.64-20.81.41-30.72,7.54-9.28,9.9-19.6,8.52-31.21C144.57,111.7,150,102.79,162,98.26c10.81-4.1,17.51-11.75,21.7-22.28C188,65.1,196.33,59.9,208,61.07c12.9,1.28,24.31-1.25,34.61-9.75,8.23-6.8,17.85-7,26.25-.34,10.7,8.49,22.38,11.64,35.78,10.1,11.89-1.36,19.78,4.57,24.24,15.16C333.48,87.1,341,94.37,351.94,99c11.54,4.87,17.2,14.22,14.49,26.91-2.17,10.18.22,18.93,6.47,26.63,10.51,13,9.79,25.36-.34,38.13-6.19,7.81-8.25,16.68-6.1,26.76,2.6,12.16-2.56,21.32-13.71,26.06-11.69,5-19.81,12.38-24.49,24.46-4.26,11-14.09,15.8-25.1,13.46-11.9-2.54-21.23,1.14-29.86,7.9-11.39,8.92-22.37,9.35-33.79.47A36.72,36.72,0,0,0,211.65,282.09Zm44-185.65c-42.2.08-74.17,32.11-74.29,74.43-.12,43.42,32.42,76.25,75.46,76.12a75.2,75.2,0,0,0,74.89-76C331.41,128.5,298.62,96.35,255.7,96.44Z"/><path d="M306.45,144.09c-.29,4.5-3.13,7.53-6.1,10.42-17.14,16.67-34.43,33.19-51.39,50.05-5.63,5.6-10.14,5.7-15.56-.08-7.05-7.52-14.64-14.52-21.78-21.95-4.39-4.57-6.85-9.95-1.09-15,4.89-4.32,9.74-2.51,14.34,1.48,5.72,4.95,8.77,15.37,17.26,14.07,7.42-1.12,11.64-9.88,17.18-15.34,10-9.84,19.69-20,29.61-29.86,3.41-3.41,7.35-5.4,12.23-2.79A9.33,9.33,0,0,1,306.45,144.09Z"/></svg>