<svg width="38" height="38" viewBox="0 0 38 38" fill="none" xmlns="http://www.w3.org/2000/svg">
<path d="M36.3983 26.5286C35.4411 24.9516 32.9151 24.2557 31.4945 23.9811C28.9019 23.4801 25.5606 23.5182 23.941 24.7329C23.4079 25.133 23.1424 25.9597 23.0804 27.4137C23.0722 27.6053 23.0686 27.7924 23.0676 27.9697C20.3158 26.9069 17.7757 25.3214 15.6077 23.3131L14.6557 22.3664C12.6389 20.2137 11.0459 17.6915 9.97764 14.9597C10.1563 14.9588 10.3448 14.9552 10.538 14.9471C11.9972 14.8855 12.827 14.6219 13.2285 14.0926C14.4448 12.4894 14.4889 9.17905 13.993 6.60961C13.7181 5.18471 13.0185 2.65151 11.4232 1.69409C9.83604 0.741548 7.38302 0.971333 6.40196 1.1145C4.37804 1.40952 2.69425 2.12465 1.89766 3.02719C1.20352 3.81381 0.959676 6.05864 0.887117 6.98715C0.885164 7.01157 0.88448 7.03666 0.884871 7.06118C1.0043 14.6244 3.91368 21.8465 9.07686 27.3946C9.0838 27.4019 9.09083 27.4123 9.09796 27.4194L10.5454 28.8648C10.5525 28.8719 10.5598 28.8913 10.5673 28.8979C16.1457 34.0309 23.4051 36.8711 31.0084 37.0665C31.0124 37.0665 31.0165 37.0665 31.0205 37.0665C31.0406 37.0665 31.0607 37.0413 31.0809 37.0398C32.0135 36.9676 34.268 36.701 35.0575 36.0122C35.9659 35.2196 36.6856 33.5437 36.9826 31.529C37.1266 30.5522 37.3579 28.1096 36.3983 26.5286ZM35.4368 31.301C35.2033 32.8842 34.6381 34.3043 34.031 34.8341C33.7588 35.0584 32.3466 35.3465 30.9962 35.4546C23.7952 35.3332 16.9217 32.5923 11.6364 27.7337L10.2107 26.3159C5.32569 21.0617 2.57013 14.2296 2.44805 7.07172C2.55597 5.73237 2.84483 4.331 3.06954 4.06069C3.60362 3.45561 5.0335 2.89291 6.62774 2.66049C8.29991 2.41665 9.8296 2.55961 10.6194 3.03374C11.3815 3.49116 12.0865 4.97475 12.4592 6.90571C12.9482 9.43989 12.7504 12.1034 12.0005 13.1264C11.6977 13.3391 10.3246 13.4531 9.03673 13.376C8.89688 13.3408 8.74581 13.3431 8.59883 13.3921C8.47051 13.435 8.36075 13.5081 8.27462 13.6006C8.1505 13.7281 8.06885 13.8982 8.05499 14.0896C8.04307 14.2545 8.0836 14.411 8.16202 14.5433C9.2421 17.7007 10.9699 20.6249 13.2173 23.1107C13.2439 23.1532 13.2749 23.1937 13.3105 23.2316C13.542 23.4784 13.7786 23.7206 14.0197 23.9575C14.2585 24.1978 14.5023 24.4334 14.7512 24.6641C14.7894 24.6995 14.8301 24.7303 14.8727 24.7566C17.3717 26.9903 20.3115 28.7082 23.4853 29.7818C23.6175 29.8599 23.7737 29.9002 23.9387 29.8878C24.1314 29.8739 24.3024 29.7908 24.4299 29.665C24.443 29.6527 24.4547 29.6392 24.467 29.626C24.4703 29.6222 24.4737 29.6184 24.4772 29.6145C24.546 29.5372 24.6022 29.4465 24.6367 29.3419C24.6853 29.1952 24.6872 29.0446 24.6517 28.9051C24.5748 27.6279 24.6886 26.2671 24.9013 25.9665C25.9386 25.2145 28.6347 25.02 31.1984 25.5154C33.1251 25.8877 34.6061 26.5867 35.0629 27.3394C35.5383 28.1228 35.6815 29.6409 35.4368 31.301Z" fill="black"/>
</svg>
