<svg width="50" height="31" viewBox="0 0 50 31" fill="none" xmlns="http://www.w3.org/2000/svg">
<path fill-rule="evenodd" clip-rule="evenodd" d="M47.7734 0.786133H2.13867C1.25 0.786133 0.693359 0.916164 0.390625 1.18551C0.126953 1.49202 0 1.99356 0 2.7366V5.51369V7.75208V23.7552V26.0957V28.7707C0 30.0988 0.722656 30.7861 2.13867 30.7861H47.7734C49.2578 30.7861 50 30.0988 50 28.7707V26.0957V23.7552V7.74279V5.5044V2.72731C50 1.41771 49.2578 0.786133 47.7734 0.786133Z" fill="white"/>
<path d="M25.919 17.8667C27.3086 17.8667 28.4351 16.7402 28.4351 15.3506C28.4351 13.961 27.3086 12.8345 25.919 12.8345C24.5294 12.8345 23.4028 13.961 23.4028 15.3506C23.4028 16.7402 24.5294 17.8667 25.919 17.8667Z" fill="#EF9122"/>
<path d="M23.4028 15.3506C23.4028 13.9474 24.5158 12.8345 25.919 12.8345C27.3222 12.8345 28.4351 13.9474 28.4351 15.3506C28.4351 16.7538 27.3222 17.8667 25.919 17.8667" fill="#F26E21"/>
<path d="M24.1778 13.5603C25.1455 12.5925 26.7423 12.5925 27.7101 13.5603C28.6778 14.528 28.6778 16.1248 27.7101 17.0925" fill="#F44500"/>
<path d="M11.3548 12.9795H10V17.7214H11.3548C12.0806 17.7214 12.6129 17.5279 13.0484 17.1892C13.5806 16.7537 13.9194 16.0763 13.9194 15.3505C13.9194 13.9472 12.9032 12.9795 11.3548 12.9795ZM12.4677 16.5601C12.1774 16.8021 11.7903 16.9472 11.2097 16.9472H10.9194V13.8021H11.1613C11.7419 13.8021 12.129 13.8988 12.4194 14.1892C12.7581 14.4795 12.9516 14.915 12.9516 15.3505C13 15.7859 12.8065 16.2698 12.4677 16.5601Z" fill="#595A5B"/>
<path d="M15.2742 12.9795H14.3548V17.7214H15.2742V12.9795Z" fill="#595A5B"/>
<path d="M17.5964 14.8182C17.0158 14.6247 16.8706 14.4795 16.8706 14.2376C16.8706 13.9473 17.1609 13.7053 17.548 13.7053C17.8383 13.7053 18.0803 13.8021 18.3222 14.0924L18.8061 13.4634C18.419 13.1247 17.9351 12.9312 17.4029 12.9312C16.5803 12.9312 15.9029 13.5118 15.9029 14.286C15.9029 14.9634 16.1932 15.2537 17.0641 15.5924C17.4512 15.7376 17.5964 15.786 17.6932 15.8828C17.8867 15.9795 17.9835 16.1731 17.9835 16.3666C17.9835 16.7537 17.6932 17.0441 17.2577 17.0441C16.8222 17.0441 16.4351 16.8021 16.2416 16.415L15.6609 16.9957C16.0964 17.6247 16.6287 17.915 17.3061 17.915C18.2738 17.915 18.9512 17.286 18.9512 16.3666C18.9512 15.5441 18.6609 15.2053 17.5964 14.8182Z" fill="#595A5B"/>
<path d="M19.2417 15.3506C19.2417 16.7539 20.3546 17.8184 21.7579 17.8184C22.145 17.8184 22.4837 17.7216 22.9192 17.5281V16.4152C22.5321 16.8023 22.1934 16.9474 21.8063 16.9474C20.8869 16.9474 20.2095 16.27 20.2095 15.3023C20.2095 14.3829 20.8869 13.6571 21.7579 13.6571C22.1934 13.6571 22.5321 13.8023 22.9192 14.1894V13.0765C22.5321 12.8829 22.1934 12.7861 21.7579 12.7861C20.403 12.8829 19.2417 13.9958 19.2417 15.3506Z" fill="#3B3D3F"/>
<path d="M30.5158 16.173L29.2577 12.9795H28.2416L30.2254 17.8666H30.7577L32.8383 12.9795H31.8222L30.5158 16.173Z" fill="black"/>
<path d="M33.2258 17.7214H35.8871V16.9472H34.1935V15.6408H35.8387V14.8182H34.1935V13.8021H35.8871V12.9795H33.2258V17.7214Z" fill="black"/>
<path d="M38.5004 15.7376C39.2262 15.5924 39.6133 15.1085 39.6133 14.3827C39.6133 13.5118 38.9843 12.9795 37.9197 12.9795H36.5165V17.7214H37.4359V15.8343H37.581L38.8875 17.7214H40.0004L38.5004 15.7376ZM37.7262 15.1569H37.4359V13.7053H37.7262C38.3068 13.7053 38.6455 13.9472 38.6455 14.4311C38.6455 14.915 38.3068 15.1569 37.7262 15.1569Z" fill="#595A5B"/>
<path d="M11.3548 12.9795H10V17.7214H11.3548C12.0806 17.7214 12.6129 17.5279 13.0484 17.1892C13.5806 16.7537 13.9194 16.0763 13.9194 15.3505C13.9194 13.9472 12.9032 12.9795 11.3548 12.9795ZM12.4677 16.5601C12.1774 16.8021 11.7903 16.9472 11.2097 16.9472H10.9194V13.8021H11.1613C11.7419 13.8021 12.129 13.8988 12.4194 14.1892C12.7581 14.4795 12.9516 14.915 12.9516 15.3505C13 15.7859 12.8065 16.2698 12.4677 16.5601Z" fill="#595A5B"/>
<path d="M15.2742 12.9795H14.3548V17.7214H15.2742V12.9795Z" fill="#595A5B"/>
<path d="M17.5964 14.8182C17.0158 14.6247 16.8706 14.4795 16.8706 14.2376C16.8706 13.9473 17.1609 13.7053 17.548 13.7053C17.8383 13.7053 18.0803 13.8021 18.3222 14.0924L18.8061 13.4634C18.419 13.1247 17.9351 12.9312 17.4029 12.9312C16.5803 12.9312 15.9029 13.5118 15.9029 14.286C15.9029 14.9634 16.1932 15.2537 17.0641 15.5924C17.4512 15.7376 17.5964 15.786 17.6932 15.8828C17.8867 15.9795 17.9835 16.1731 17.9835 16.3666C17.9835 16.7537 17.6932 17.0441 17.2577 17.0441C16.8222 17.0441 16.4351 16.8021 16.2416 16.415L15.6609 16.9957C16.0964 17.6247 16.6287 17.915 17.3061 17.915C18.2738 17.915 18.9512 17.286 18.9512 16.3666C18.9512 15.5441 18.6609 15.2053 17.5964 14.8182Z" fill="#595A5B"/>
<path d="M21.8066 17.8182C22.1937 17.8182 22.5325 17.7214 22.9679 17.5279V16.415C22.5808 16.8021 22.2421 16.9473 21.855 16.9473C20.9357 16.9473 20.2583 16.2698 20.2583 15.3021C20.2583 14.8182 20.4518 14.4311 20.7421 14.0924L20.1131 13.4634C19.6292 13.8989 19.2905 14.5763 19.2905 15.3021C19.2421 16.7537 20.355 17.8182 21.8066 17.8182Z" fill="#595A5B"/>
<path d="M38.5004 15.7376C39.2262 15.5924 39.6133 15.1085 39.6133 14.3827C39.6133 13.5118 38.9843 12.9795 37.9197 12.9795H36.5165V17.7214H37.4359V15.8343H37.581L38.8875 17.7214H40.0004L38.5004 15.7376ZM37.7262 15.1569H37.4359V13.7053H37.7262C38.3068 13.7053 38.6455 13.9472 38.6455 14.4311C38.6455 14.915 38.3068 15.1569 37.7262 15.1569Z" fill="black"/>
<path d="M16.8224 22.1247V19.4634L18.6611 21.3505V19.6085H19.0482V22.2698L17.2095 20.3827V22.1247H16.8224Z" fill="#F26E21"/>
<path d="M20.9834 19.9955H19.9673V20.5761H20.935V20.9632H19.9673V21.7858H20.9834V22.1245H19.5802V19.6084H20.9834V19.9955Z" fill="#F26E21"/>
<path d="M22.1933 19.9959V22.125H21.8062V19.9959H21.2256V19.6572H22.7739V19.9959H22.1933Z" fill="#F26E21"/>
<path d="M23.3544 19.6573L23.9834 21.3509L24.6608 19.5605L25.2899 21.3509L25.9673 19.6573H26.4512L25.3383 22.3186L24.7092 20.5283L24.0318 22.3186L22.9673 19.6573H23.3544Z" fill="#F26E21"/>
<path d="M26.4999 20.867C26.4999 20.5283 26.6451 20.1896 26.887 19.9476C27.129 19.7057 27.4677 19.5605 27.8064 19.5605C28.1451 19.5605 28.4838 19.7057 28.7257 19.9476C28.9677 20.1896 29.1128 20.5283 29.1128 20.867C29.1128 21.2057 28.9677 21.5444 28.7257 21.7864C28.4838 22.0283 28.1451 22.1735 27.8064 22.1735C27.4677 22.1735 27.1774 22.0767 26.9354 21.8347C26.6451 21.5928 26.4999 21.3025 26.4999 20.867ZM26.887 20.867C26.887 21.1573 26.9838 21.3509 27.1774 21.5444C27.3709 21.738 27.5645 21.8347 27.8064 21.8347C28.0483 21.8347 28.2903 21.738 28.4838 21.5444C28.6774 21.3509 28.7741 21.1573 28.7741 20.867C28.7741 20.5767 28.6774 20.3831 28.4838 20.1896C28.2903 19.996 28.0967 19.8993 27.8064 19.8993C27.5645 19.8993 27.3225 19.996 27.129 20.1896C26.9838 20.3831 26.887 20.6251 26.887 20.867Z" fill="#F26E21"/>
<path d="M30.4679 21.06L31.2421 22.1245H30.7582L30.0324 21.1084H29.984V22.1245H29.5969V19.6084H30.0324C30.3711 19.6084 30.613 19.6568 30.7582 19.8019C30.9033 19.9471 31.0001 20.1407 31.0001 20.3342C31.0001 20.5278 30.9517 20.6729 30.855 20.7697C30.7582 20.9632 30.613 21.06 30.4679 21.06ZM29.984 20.7697H30.0808C30.4195 20.7697 30.613 20.6245 30.613 20.3826C30.613 20.1407 30.4195 19.9955 30.0808 19.9955H29.9356V20.7697H29.984Z" fill="#F26E21"/>
<path d="M31.9679 20.6251L32.9356 19.6089H33.4195L32.3066 20.7218L33.4195 22.0767H32.9356L32.0163 20.9638L31.9195 21.0605V22.0767H31.5324V19.5605H31.9195V20.6251H31.9679Z" fill="#F26E21"/>
<path d="M35.0645 16.9471H34.1935V16.0761L33.2258 15.1084V17.7213H35.8387L35.0645 16.9471Z" fill="#3B3D3F"/>
<path d="M31.5803 13.4634L30.5158 16.173L29.2577 12.9795H28.2416L30.2254 17.8666H30.7577L32.3061 14.1892L31.5803 13.4634Z" fill="#3B3D3F"/>
</svg>
