<?xml version="1.0" encoding="utf-8"?>
<!-- Generator: Adobe Illustrator 25.2.0, SVG Export Plug-In . SVG Version: 6.00 Build 0)  -->
<svg version="1.1" id="Layer_1" xmlns="http://www.w3.org/2000/svg" xmlns:xlink="http://www.w3.org/1999/xlink" x="0px" y="0px"
	 viewBox="0 0 208 73" style="enable-background:new 0 0 208 73;" xml:space="preserve">
<style type="text/css">
	.st0{fill:#FFFFFF;}
	.st1{enable-background:new    ;}
	.st2{fill:#E5712B;}
	.st3{opacity:0.5;enable-background:new    ;}
	.st4{fill:#4285F4;}
	.st5{fill:#34A853;}
	.st6{fill:#FBBC05;}
	.st7{fill:#EA4335;}
</style>
<g>
	<g>
		<path class="st0" d="M202.39,73H5.61C2.51,73,0,70.49,0,67.39V5.61C0,2.51,2.51,0,5.61,0h196.77c3.1,0,5.61,2.51,5.61,5.61v61.77
			C208,70.49,205.49,73,202.39,73z"/>
	</g>
	<g>
		<g class="st1">
			<path class="st2" d="M71.28,38.34c1.03,0.83,1.55,1.96,1.55,3.4c0,0.91-0.22,1.73-0.65,2.45s-1.09,1.3-1.96,1.72
				s-1.95,0.63-3.22,0.63c-1.09,0-2.13-0.17-3.15-0.5c-1.01-0.33-1.85-0.79-2.51-1.38l1.01-1.74c0.53,0.5,1.2,0.9,2.02,1.2
				c0.82,0.3,1.69,0.45,2.6,0.45c1.16,0,2.06-0.25,2.7-0.74c0.64-0.49,0.96-1.16,0.96-2.01c0-0.92-0.35-1.62-1.06-2.1
				s-1.91-0.71-3.61-0.71h-3.5l0.81-8.05h8.69v1.91h-6.84l-0.42,4.23h1.72C68.63,37.1,70.25,37.51,71.28,38.34z"/>
			<path class="st2" d="M75.05,46.06c-0.29-0.29-0.44-0.65-0.44-1.09c0-0.43,0.15-0.78,0.44-1.07c0.29-0.29,0.65-0.43,1.06-0.43
				s0.76,0.14,1.03,0.42c0.28,0.28,0.42,0.64,0.42,1.08c0,0.44-0.14,0.8-0.43,1.09c-0.29,0.29-0.63,0.43-1.02,0.43
				C75.7,46.49,75.35,46.35,75.05,46.06z"/>
			<path class="st2" d="M82.43,45.6c-0.95-0.62-1.69-1.53-2.23-2.72c-0.54-1.19-0.81-2.6-0.81-4.22s0.27-3.04,0.81-4.22
				c0.54-1.19,1.29-2.09,2.23-2.72c0.95-0.62,2.03-0.94,3.25-0.94c1.2,0,2.28,0.31,3.22,0.94c0.95,0.62,1.69,1.53,2.23,2.72
				c0.54,1.19,0.81,2.6,0.81,4.22s-0.27,3.04-0.81,4.22c-0.54,1.19-1.29,2.09-2.23,2.72c-0.95,0.62-2.02,0.93-3.22,0.93
				C84.46,46.54,83.38,46.22,82.43,45.6z M88.64,43.06c0.74-1.01,1.11-2.48,1.11-4.4c0-1.92-0.37-3.39-1.11-4.4
				c-0.74-1.01-1.73-1.52-2.96-1.52c-1.25,0-2.24,0.51-2.98,1.52c-0.74,1.01-1.11,2.48-1.11,4.4c0,1.92,0.37,3.39,1.11,4.4
				c0.74,1.01,1.73,1.52,2.98,1.52C86.91,44.58,87.9,44.07,88.64,43.06z"/>
		</g>
	</g>
	<g>
		<g>
			<g>
				<g>
					<path class="st2" d="M112.34,44.06c0.07,0.47-0.22,0.68-0.65,0.46l-3.51-1.77c-0.42-0.21-1.12-0.22-1.54-0.01l-3.53,1.74
						c-0.42,0.21-0.71,0-0.64-0.47l0.6-3.89c0.07-0.47-0.14-1.13-0.47-1.47l-2.74-2.82c-0.33-0.34-0.22-0.68,0.25-0.75l3.88-0.63
						c0.47-0.08,1.03-0.48,1.25-0.9l1.83-3.48c0.22-0.42,0.58-0.42,0.79,0l1.8,3.49c0.22,0.42,0.78,0.83,1.24,0.91l3.88,0.67
						c0.47,0.08,0.57,0.42,0.24,0.76l-2.77,2.79c-0.33,0.34-0.55,0.99-0.48,1.46L112.34,44.06z"/>
				</g>
				<g class="st3">
					<path class="st2" d="M107.47,29.97c0.07,0,0.16,0.08,0.23,0.21l1.8,3.5c0.25,0.48,0.85,0.92,1.38,1.01l3.88,0.67
						c0.15,0.02,0.25,0.08,0.27,0.15s-0.03,0.17-0.13,0.28l-2.77,2.79c-0.38,0.38-0.61,1.09-0.54,1.62l0.56,3.89
						c0.02,0.13,0,0.23-0.04,0.29c-0.01,0.01-0.04,0.04-0.11,0.04c-0.06,0-0.14-0.02-0.22-0.06l-3.51-1.77
						c-0.23-0.12-0.54-0.18-0.87-0.18c-0.32,0-0.62,0.06-0.85,0.17l-3.53,1.74c-0.08,0.04-0.16,0.06-0.22,0.06
						c-0.07,0-0.1-0.03-0.11-0.04c-0.04-0.05-0.06-0.16-0.04-0.29l0.6-3.89c0.08-0.53-0.15-1.25-0.52-1.63l-2.74-2.82
						c-0.1-0.11-0.15-0.21-0.13-0.28c0.02-0.07,0.12-0.13,0.27-0.15l3.88-0.63c0.53-0.09,1.14-0.53,1.39-1l1.83-3.48
						C107.31,30.05,107.39,29.97,107.47,29.97 M107.47,29.77c-0.14,0-0.29,0.1-0.4,0.31l-1.83,3.48c-0.22,0.42-0.78,0.82-1.25,0.9
						l-3.88,0.63c-0.47,0.08-0.58,0.42-0.25,0.75l2.74,2.82c0.33,0.34,0.54,1,0.47,1.47l-0.6,3.89c-0.05,0.34,0.09,0.55,0.34,0.55
						c0.09,0,0.19-0.03,0.3-0.08l3.53-1.74c0.21-0.1,0.49-0.16,0.76-0.16c0.28,0,0.56,0.06,0.78,0.16l3.51,1.77
						c0.11,0.06,0.22,0.08,0.31,0.08c0.25,0,0.39-0.2,0.34-0.55l-0.56-3.89c-0.07-0.47,0.15-1.13,0.48-1.46l2.77-2.79
						c0.33-0.34,0.22-0.68-0.24-0.76l-3.88-0.67c-0.47-0.08-1.02-0.49-1.24-0.91l-1.8-3.49C107.76,29.88,107.61,29.77,107.47,29.77
						L107.47,29.77z"/>
				</g>
			</g>
			<g>
				<g>
					<path class="st2" d="M132.65,44.06c0.07,0.47-0.22,0.68-0.65,0.46l-3.51-1.77c-0.42-0.21-1.12-0.22-1.54-0.01l-3.53,1.74
						c-0.42,0.21-0.71,0-0.64-0.47l0.6-3.89c0.07-0.47-0.14-1.13-0.47-1.47l-2.74-2.82c-0.33-0.34-0.22-0.68,0.25-0.75l3.88-0.63
						c0.47-0.08,1.03-0.48,1.25-0.9l1.83-3.48c0.22-0.42,0.58-0.42,0.8,0l1.8,3.49c0.22,0.42,0.78,0.83,1.24,0.91l3.88,0.67
						c0.47,0.08,0.57,0.42,0.24,0.76l-2.77,2.79c-0.33,0.34-0.55,0.99-0.48,1.46L132.65,44.06z"/>
				</g>
				<g class="st3">
					<path class="st2" d="M127.78,29.97c0.07,0,0.16,0.08,0.23,0.21l1.8,3.5c0.25,0.48,0.85,0.92,1.38,1.01l3.88,0.67
						c0.15,0.02,0.25,0.08,0.27,0.15s-0.03,0.17-0.13,0.28l-2.77,2.79c-0.38,0.38-0.61,1.09-0.54,1.62l0.56,3.89
						c0.02,0.13,0,0.23-0.04,0.29c-0.01,0.01-0.04,0.04-0.11,0.04c-0.06,0-0.14-0.02-0.22-0.06l-3.51-1.77
						c-0.23-0.12-0.54-0.18-0.87-0.18c-0.32,0-0.62,0.06-0.85,0.17l-3.53,1.74c-0.08,0.04-0.16,0.06-0.22,0.06
						c-0.07,0-0.1-0.03-0.11-0.04c-0.04-0.05-0.06-0.16-0.04-0.29l0.6-3.89c0.08-0.53-0.15-1.25-0.52-1.63l-2.74-2.82
						c-0.1-0.11-0.15-0.21-0.13-0.28c0.02-0.07,0.12-0.13,0.27-0.15l3.88-0.63c0.53-0.09,1.14-0.53,1.39-1l1.83-3.48
						C127.62,30.05,127.71,29.97,127.78,29.97 M127.78,29.77c-0.14,0-0.29,0.1-0.4,0.31l-1.83,3.48c-0.22,0.42-0.78,0.82-1.25,0.9
						l-3.88,0.63c-0.47,0.08-0.58,0.42-0.25,0.75l2.74,2.82c0.33,0.34,0.54,1,0.47,1.47l-0.6,3.89c-0.05,0.34,0.09,0.55,0.34,0.55
						c0.09,0,0.19-0.03,0.3-0.08l3.53-1.74c0.21-0.1,0.49-0.16,0.76-0.16c0.28,0,0.56,0.06,0.78,0.16l3.51,1.77
						c0.11,0.06,0.22,0.08,0.3,0.08c0.25,0,0.39-0.2,0.34-0.55l-0.56-3.89c-0.07-0.47,0.15-1.13,0.48-1.46l2.77-2.79
						c0.33-0.34,0.22-0.68-0.24-0.76l-3.88-0.67c-0.47-0.08-1.02-0.49-1.24-0.91l-1.8-3.49C128.07,29.88,127.92,29.77,127.78,29.77
						L127.78,29.77z"/>
				</g>
			</g>
			<g>
				<g>
					<path class="st2" d="M152.96,44.06c0.07,0.47-0.22,0.68-0.65,0.46l-3.51-1.77c-0.42-0.21-1.12-0.22-1.54-0.01l-3.53,1.74
						c-0.42,0.21-0.71,0-0.64-0.47l0.6-3.89c0.07-0.47-0.14-1.13-0.47-1.47l-2.74-2.82c-0.33-0.34-0.22-0.68,0.25-0.75l3.88-0.63
						c0.47-0.08,1.03-0.48,1.25-0.9l1.83-3.48c0.22-0.42,0.58-0.42,0.79,0l1.8,3.49c0.22,0.42,0.78,0.83,1.24,0.91l3.88,0.67
						c0.47,0.08,0.57,0.42,0.24,0.76l-2.77,2.79c-0.33,0.34-0.55,0.99-0.48,1.46L152.96,44.06z"/>
				</g>
				<g class="st3">
					<path class="st2" d="M148.09,29.97c0.07,0,0.16,0.08,0.23,0.21l1.8,3.5c0.25,0.48,0.85,0.92,1.38,1.01l3.88,0.67
						c0.15,0.02,0.25,0.08,0.27,0.15s-0.03,0.17-0.13,0.28l-2.77,2.79c-0.38,0.38-0.61,1.09-0.54,1.62l0.56,3.89
						c0.02,0.13,0,0.23-0.04,0.29c-0.01,0.01-0.04,0.04-0.11,0.04c-0.06,0-0.14-0.02-0.22-0.06l-3.51-1.77
						c-0.23-0.12-0.54-0.18-0.86-0.18s-0.62,0.06-0.85,0.17l-3.53,1.74c-0.08,0.04-0.16,0.06-0.22,0.06c-0.07,0-0.1-0.03-0.11-0.04
						c-0.04-0.05-0.06-0.16-0.04-0.29l0.6-3.89c0.08-0.53-0.15-1.25-0.52-1.63l-2.74-2.82c-0.1-0.11-0.15-0.21-0.13-0.28
						c0.02-0.07,0.12-0.13,0.27-0.15l3.88-0.63c0.53-0.09,1.14-0.53,1.39-1l1.83-3.48C147.93,30.05,148.02,29.97,148.09,29.97
						 M148.09,29.77c-0.14,0-0.29,0.1-0.4,0.31l-1.83,3.48c-0.22,0.42-0.78,0.82-1.25,0.9l-3.88,0.63
						c-0.47,0.08-0.58,0.42-0.25,0.75l2.74,2.82c0.33,0.34,0.54,1,0.47,1.47l-0.6,3.89c-0.05,0.34,0.09,0.55,0.34,0.55
						c0.09,0,0.19-0.03,0.3-0.08l3.53-1.74c0.21-0.1,0.48-0.16,0.76-0.16s0.56,0.06,0.78,0.16l3.51,1.77
						c0.11,0.06,0.22,0.08,0.3,0.08c0.25,0,0.39-0.2,0.34-0.55l-0.56-3.89c-0.07-0.47,0.15-1.13,0.48-1.46l2.77-2.79
						c0.33-0.34,0.22-0.68-0.24-0.76l-3.88-0.67c-0.47-0.08-1.02-0.49-1.24-0.91l-1.8-3.49C148.38,29.88,148.23,29.77,148.09,29.77
						L148.09,29.77z"/>
				</g>
			</g>
			<g>
				<g>
					<path class="st2" d="M173.27,44.06c0.07,0.47-0.22,0.68-0.64,0.46l-3.51-1.77c-0.42-0.21-1.12-0.22-1.54-0.01l-3.53,1.74
						c-0.42,0.21-0.71,0-0.64-0.47l0.6-3.89c0.07-0.47-0.14-1.13-0.47-1.47l-2.74-2.82c-0.33-0.34-0.22-0.68,0.25-0.75l3.88-0.63
						c0.47-0.08,1.03-0.48,1.25-0.9l1.83-3.48c0.22-0.42,0.58-0.42,0.79,0l1.8,3.49c0.22,0.42,0.78,0.83,1.24,0.91l3.87,0.67
						c0.47,0.08,0.57,0.42,0.24,0.76l-2.77,2.79c-0.33,0.34-0.55,0.99-0.48,1.46L173.27,44.06z"/>
				</g>
				<g class="st3">
					<path class="st2" d="M168.4,29.97c0.07,0,0.16,0.08,0.23,0.21l1.8,3.5c0.25,0.48,0.85,0.92,1.38,1.01l3.87,0.67
						c0.15,0.02,0.25,0.08,0.27,0.15s-0.03,0.17-0.13,0.28l-2.77,2.79c-0.38,0.38-0.61,1.09-0.54,1.62l0.56,3.89
						c0.02,0.13,0,0.23-0.04,0.29c-0.01,0.01-0.04,0.04-0.11,0.04c-0.06,0-0.14-0.02-0.22-0.06l-3.51-1.77
						c-0.23-0.12-0.54-0.18-0.87-0.18c-0.32,0-0.62,0.06-0.85,0.17l-3.53,1.74c-0.08,0.04-0.16,0.06-0.22,0.06
						c-0.07,0-0.1-0.03-0.11-0.04c-0.04-0.05-0.06-0.16-0.04-0.29l0.6-3.89c0.08-0.53-0.15-1.25-0.52-1.63l-2.74-2.82
						c-0.1-0.11-0.15-0.21-0.13-0.28c0.02-0.07,0.12-0.13,0.27-0.15l3.88-0.63c0.53-0.09,1.14-0.53,1.39-1l1.83-3.48
						C168.24,30.05,168.33,29.97,168.4,29.97 M168.4,29.77c-0.14,0-0.29,0.1-0.4,0.31l-1.83,3.48c-0.22,0.42-0.78,0.82-1.25,0.9
						l-3.88,0.63c-0.47,0.08-0.58,0.42-0.25,0.75l2.74,2.82c0.33,0.34,0.54,1,0.47,1.47l-0.6,3.89c-0.05,0.34,0.09,0.55,0.34,0.55
						c0.09,0,0.19-0.03,0.3-0.08l3.53-1.74c0.21-0.1,0.49-0.16,0.76-0.16c0.28,0,0.56,0.06,0.78,0.16l3.51,1.77
						c0.11,0.06,0.22,0.08,0.3,0.08c0.25,0,0.39-0.2,0.34-0.55l-0.56-3.89c-0.07-0.47,0.15-1.13,0.48-1.46l2.77-2.79
						c0.33-0.34,0.22-0.68-0.24-0.76l-3.87-0.67c-0.47-0.08-1.02-0.49-1.24-0.91l-1.8-3.49C168.69,29.88,168.55,29.77,168.4,29.77
						L168.4,29.77z"/>
				</g>
			</g>
			<g>
				<g>
					<path class="st2" d="M193.58,44.06c0.07,0.47-0.22,0.68-0.64,0.46l-3.51-1.77c-0.42-0.21-1.12-0.22-1.54-0.01l-3.53,1.74
						c-0.42,0.21-0.71,0-0.64-0.47l0.6-3.89c0.07-0.47-0.14-1.13-0.47-1.47l-2.74-2.82c-0.33-0.34-0.22-0.68,0.25-0.75l3.88-0.63
						c0.47-0.08,1.03-0.48,1.25-0.9l1.83-3.48c0.22-0.42,0.58-0.42,0.8,0l1.8,3.49c0.22,0.42,0.78,0.83,1.24,0.91l3.87,0.67
						c0.47,0.08,0.58,0.42,0.24,0.76l-2.77,2.79c-0.33,0.34-0.55,0.99-0.48,1.46L193.58,44.06z"/>
				</g>
				<g class="st3">
					<path class="st2" d="M188.71,29.97c0.07,0,0.16,0.08,0.23,0.21l1.8,3.5c0.25,0.48,0.85,0.92,1.38,1.01l3.87,0.67
						c0.15,0.02,0.25,0.08,0.27,0.15s-0.03,0.17-0.13,0.28l-2.77,2.79c-0.38,0.38-0.61,1.09-0.54,1.62l0.56,3.89
						c0.02,0.13,0,0.23-0.04,0.29c-0.01,0.01-0.04,0.04-0.11,0.04c-0.06,0-0.14-0.02-0.22-0.06l-3.51-1.77
						c-0.23-0.12-0.54-0.18-0.86-0.18s-0.62,0.06-0.85,0.17l-3.53,1.74c-0.08,0.04-0.16,0.06-0.22,0.06c-0.07,0-0.1-0.03-0.11-0.04
						c-0.05-0.05-0.06-0.16-0.04-0.29l0.6-3.89c0.08-0.53-0.15-1.25-0.52-1.63l-2.74-2.82c-0.1-0.11-0.15-0.21-0.13-0.28
						c0.02-0.07,0.12-0.13,0.27-0.15l3.88-0.63c0.53-0.09,1.14-0.53,1.39-1l1.83-3.48C188.55,30.05,188.64,29.97,188.71,29.97
						 M188.71,29.77c-0.14,0-0.29,0.1-0.4,0.31l-1.83,3.48c-0.22,0.42-0.78,0.82-1.25,0.9l-3.88,0.63
						c-0.47,0.08-0.58,0.42-0.25,0.75l2.74,2.82c0.33,0.34,0.54,1,0.47,1.47l-0.6,3.89c-0.05,0.34,0.09,0.55,0.34,0.55
						c0.09,0,0.19-0.03,0.3-0.08l3.53-1.74c0.21-0.1,0.49-0.16,0.76-0.16c0.28,0,0.56,0.06,0.78,0.16l3.51,1.77
						c0.11,0.06,0.21,0.08,0.3,0.08c0.25,0,0.39-0.2,0.34-0.55l-0.56-3.89c-0.07-0.47,0.15-1.13,0.48-1.46l2.77-2.79
						c0.33-0.34,0.22-0.68-0.24-0.76l-3.87-0.65c-0.47-0.08-1.02-0.49-1.24-0.91l-1.8-3.49C189,29.88,188.86,29.77,188.71,29.77
						L188.71,29.77z"/>
				</g>
			</g>
		</g>
	</g>
	<g transform="matrix(1, 0, 0, 1, 27.009001, -39.238998)">
		<g>
			<path class="st4" d="M24.91,75.59c0-1.36-0.12-2.65-0.33-3.9H5.15v7.76h11.13c-0.5,2.55-1.96,4.69-4.13,6.16v5.16h6.64
				C22.67,87.17,24.91,81.87,24.91,75.59z"/>
		</g>
		<g>
			<path class="st5" d="M5.15,95.77c5.57,0,10.23-1.86,13.64-5l-6.64-5.17c-1.86,1.24-4.21,1.99-7,1.99
				c-5.38,0-9.94-3.63-11.57-8.53h-6.84v5.31C-9.88,91.12-2.92,95.77,5.15,95.77z"/>
		</g>
		<g>
			<path class="st6" d="M-6.42,79.07c-0.43-1.24-0.65-2.56-0.65-3.94s0.24-2.7,0.65-3.94v-5.31h-6.84
				c-1.41,2.79-2.22,5.92-2.22,9.25c0,3.34,0.81,6.47,2.22,9.25L-6.42,79.07z"/>
		</g>
		<g>
			<path class="st7" d="M5.15,62.66c3.04,0,5.76,1.05,7.91,3.1l5.88-5.88c-3.56-3.34-8.22-5.39-13.79-5.39
				c-8.07,0-15.03,4.64-18.42,11.38l6.84,5.31C-4.79,66.29-0.23,62.66,5.15,62.66z"/>
		</g>
	</g>
	<g>
		<path d="M69.85,14.6h0.99v3.74c-0.46,0.4-1,0.71-1.62,0.92c-0.63,0.21-1.28,0.32-1.97,0.32c-0.98,0-1.86-0.21-2.65-0.64
			c-0.78-0.43-1.4-1.02-1.85-1.79c-0.45-0.76-0.67-1.61-0.67-2.55s0.22-1.79,0.67-2.56c0.45-0.76,1.06-1.36,1.85-1.79
			c0.78-0.43,1.67-0.64,2.66-0.64c0.75,0,1.43,0.12,2.06,0.36c0.63,0.24,1.15,0.59,1.58,1.06l-0.64,0.66
			c-0.77-0.77-1.76-1.15-2.95-1.15c-0.79,0-1.51,0.17-2.15,0.52c-0.64,0.35-1.14,0.84-1.5,1.46c-0.36,0.62-0.55,1.31-0.55,2.08
			s0.18,1.46,0.55,2.07c0.36,0.62,0.86,1.1,1.5,1.46c0.63,0.35,1.35,0.53,2.14,0.53c1.01,0,1.86-0.25,2.56-0.76V14.6z"/>
		<path d="M74.65,19.08c-0.57-0.32-1.02-0.77-1.34-1.34s-0.49-1.21-0.49-1.93c0-0.72,0.16-1.36,0.49-1.93s0.77-1.01,1.34-1.33
			s1.21-0.48,1.92-0.48c0.71,0,1.35,0.16,1.92,0.48s1.02,0.76,1.34,1.33c0.32,0.57,0.48,1.21,0.48,1.93c0,0.72-0.16,1.36-0.48,1.93
			c-0.32,0.57-0.77,1.02-1.34,1.34c-0.57,0.32-1.21,0.48-1.92,0.48C75.86,19.56,75.22,19.4,74.65,19.08z M77.97,18.33
			c0.42-0.24,0.74-0.58,0.97-1.02c0.23-0.44,0.35-0.94,0.35-1.5s-0.12-1.06-0.35-1.5c-0.23-0.44-0.56-0.78-0.97-1.01
			c-0.42-0.24-0.88-0.36-1.41-0.36c-0.52,0-0.99,0.12-1.41,0.36c-0.42,0.24-0.74,0.58-0.98,1.01c-0.24,0.44-0.36,0.94-0.36,1.5
			s0.12,1.06,0.36,1.5c0.24,0.44,0.56,0.78,0.98,1.02c0.42,0.24,0.88,0.36,1.41,0.36C77.09,18.68,77.56,18.56,77.97,18.33z"/>
		<path d="M83.43,19.08c-0.57-0.32-1.02-0.77-1.34-1.34s-0.49-1.21-0.49-1.93c0-0.72,0.16-1.36,0.49-1.93s0.77-1.01,1.34-1.33
			s1.21-0.48,1.92-0.48c0.71,0,1.35,0.16,1.92,0.48s1.02,0.76,1.34,1.33c0.32,0.57,0.48,1.21,0.48,1.93c0,0.72-0.16,1.36-0.48,1.93
			c-0.32,0.57-0.77,1.02-1.34,1.34c-0.57,0.32-1.21,0.48-1.92,0.48C84.63,19.56,84,19.4,83.43,19.08z M86.75,18.33
			c0.42-0.24,0.74-0.58,0.97-1.02c0.23-0.44,0.35-0.94,0.35-1.5s-0.12-1.06-0.35-1.5c-0.23-0.44-0.56-0.78-0.97-1.01
			c-0.42-0.24-0.88-0.36-1.41-0.36c-0.52,0-0.99,0.12-1.41,0.36c-0.42,0.24-0.74,0.58-0.98,1.01c-0.24,0.44-0.36,0.94-0.36,1.5
			s0.12,1.06,0.36,1.5c0.24,0.44,0.56,0.78,0.98,1.02c0.42,0.24,0.88,0.36,1.41,0.36C85.87,18.68,86.34,18.56,86.75,18.33z"/>
		<path d="M97.93,12.13v6.47c0,1.25-0.31,2.18-0.92,2.78c-0.61,0.6-1.53,0.9-2.77,0.9c-0.68,0-1.33-0.1-1.94-0.3
			s-1.11-0.48-1.49-0.83l0.5-0.76c0.35,0.32,0.79,0.56,1.29,0.74c0.51,0.18,1.04,0.27,1.6,0.27c0.93,0,1.62-0.22,2.06-0.65
			c0.44-0.43,0.66-1.11,0.66-2.02v-0.94c-0.31,0.47-0.71,0.82-1.21,1.06c-0.5,0.24-1.05,0.36-1.66,0.36c-0.69,0-1.32-0.15-1.88-0.46
			c-0.56-0.3-1.01-0.73-1.33-1.27c-0.32-0.55-0.48-1.16-0.48-1.85c0-0.69,0.16-1.31,0.48-1.85c0.32-0.54,0.76-0.96,1.32-1.26
			c0.56-0.3,1.19-0.45,1.89-0.45c0.63,0,1.19,0.13,1.69,0.38c0.5,0.25,0.91,0.62,1.22,1.09v-1.41H97.93z M95.61,17.99
			c0.43-0.23,0.76-0.55,1-0.96c0.24-0.41,0.36-0.88,0.36-1.4c0-0.52-0.12-0.99-0.36-1.39c-0.24-0.41-0.57-0.72-0.99-0.95
			c-0.42-0.23-0.91-0.34-1.45-0.34c-0.53,0-1.01,0.11-1.44,0.34c-0.42,0.22-0.76,0.54-0.99,0.95c-0.24,0.41-0.36,0.88-0.36,1.4
			c0,0.52,0.12,0.99,0.36,1.4c0.24,0.41,0.57,0.73,0.99,0.96s0.9,0.34,1.44,0.34S95.18,18.22,95.61,17.99z"/>
		<path d="M100.72,9.11h0.99V19.5h-0.99V9.11z"/>
		<path d="M110.89,16.12h-6.16c0.06,0.77,0.35,1.38,0.88,1.85c0.53,0.47,1.21,0.71,2.02,0.71c0.46,0,0.88-0.08,1.26-0.25
			c0.38-0.16,0.71-0.4,0.99-0.72l0.56,0.64c-0.33,0.39-0.73,0.69-1.22,0.9c-0.49,0.21-1.03,0.31-1.62,0.31
			c-0.76,0-1.43-0.16-2.01-0.48c-0.58-0.32-1.04-0.77-1.37-1.34s-0.49-1.21-0.49-1.93c0-0.72,0.16-1.36,0.47-1.93
			c0.31-0.57,0.74-1.01,1.29-1.33c0.54-0.32,1.16-0.48,1.84-0.48s1.29,0.16,1.83,0.48s0.97,0.76,1.27,1.32
			c0.31,0.56,0.46,1.21,0.46,1.94L110.89,16.12z M105.55,13.61c-0.48,0.45-0.75,1.04-0.82,1.77h5.22c-0.07-0.73-0.34-1.32-0.82-1.77
			c-0.48-0.45-1.08-0.68-1.8-0.68C106.63,12.93,106.03,13.16,105.55,13.61z"/>
		<path d="M123.51,19.5l-2.24-3.15c-0.25,0.03-0.51,0.04-0.78,0.04h-2.63v3.11h-1.04V9.7h3.67c1.25,0,2.23,0.3,2.94,0.9
			c0.71,0.6,1.06,1.42,1.06,2.46c0,0.77-0.19,1.41-0.58,1.94c-0.39,0.53-0.94,0.91-1.66,1.14l2.39,3.36H123.51z M122.68,14.86
			c0.51-0.43,0.77-1.03,0.77-1.81c0-0.79-0.26-1.4-0.77-1.83c-0.51-0.42-1.25-0.64-2.23-0.64h-2.6v4.91h2.6
			C121.43,15.5,122.17,15.29,122.68,14.86z"/>
		<path d="M131.45,12.8c0.51,0.48,0.77,1.19,0.77,2.14v4.56h-0.95v-1.15c-0.22,0.38-0.55,0.68-0.99,0.9
			c-0.43,0.21-0.95,0.32-1.55,0.32c-0.82,0-1.47-0.2-1.96-0.59s-0.73-0.91-0.73-1.55c0-0.63,0.23-1.13,0.68-1.51
			c0.45-0.38,1.17-0.57,2.16-0.57h2.34v-0.45c0-0.63-0.18-1.12-0.53-1.45c-0.35-0.33-0.87-0.5-1.55-0.5c-0.47,0-0.92,0.08-1.34,0.23
			c-0.43,0.15-0.8,0.37-1.11,0.64l-0.45-0.74c0.37-0.32,0.82-0.56,1.34-0.74c0.52-0.17,1.07-0.26,1.65-0.26
			C130.19,12.08,130.93,12.32,131.45,12.8z M130.33,18.4c0.4-0.26,0.7-0.63,0.9-1.11v-1.2h-2.31c-1.26,0-1.89,0.44-1.89,1.32
			c0,0.43,0.16,0.77,0.49,1.02c0.33,0.25,0.78,0.37,1.37,0.37C129.44,18.78,129.92,18.65,130.33,18.4z"/>
		<path d="M138.79,19.05c-0.19,0.17-0.42,0.3-0.69,0.39c-0.28,0.09-0.56,0.13-0.86,0.13c-0.69,0-1.22-0.19-1.6-0.56
			c-0.37-0.37-0.56-0.9-0.56-1.58v-4.45h-1.32v-0.84h1.32v-1.61h0.99v1.61h2.24v0.84h-2.24v4.4c0,0.44,0.11,0.77,0.33,1
			c0.22,0.23,0.53,0.34,0.95,0.34c0.21,0,0.4-0.03,0.59-0.1s0.36-0.16,0.5-0.28L138.79,19.05z"/>
		<path d="M140.59,10.31c-0.14-0.14-0.21-0.31-0.21-0.5c0-0.19,0.07-0.35,0.21-0.49c0.14-0.14,0.31-0.21,0.52-0.21
			s0.38,0.07,0.52,0.2c0.14,0.14,0.21,0.3,0.21,0.48c0,0.21-0.07,0.38-0.21,0.52c-0.14,0.14-0.31,0.21-0.52,0.21
			S140.73,10.45,140.59,10.31z M140.6,12.13h0.99v7.36h-0.99V12.13z"/>
		<path d="M150.32,12.88c0.55,0.54,0.82,1.32,0.82,2.35v4.27h-0.99v-4.17c0-0.77-0.19-1.35-0.57-1.75s-0.93-0.6-1.64-0.6
			c-0.79,0-1.42,0.24-1.88,0.71s-0.69,1.12-0.69,1.95v3.86h-0.99v-7.36h0.95v1.36c0.27-0.45,0.65-0.8,1.13-1.04
			c0.48-0.25,1.04-0.37,1.67-0.37C149.04,12.08,149.78,12.34,150.32,12.88z"/>
		<path d="M160.69,12.13v6.47c0,1.25-0.31,2.18-0.92,2.78s-1.53,0.9-2.76,0.9c-0.68,0-1.33-0.1-1.94-0.3s-1.11-0.48-1.49-0.83
			l0.5-0.76c0.35,0.32,0.79,0.56,1.29,0.74c0.51,0.18,1.04,0.27,1.6,0.27c0.93,0,1.62-0.22,2.06-0.65s0.66-1.11,0.66-2.02v-0.94
			c-0.31,0.47-0.71,0.82-1.21,1.06s-1.05,0.36-1.66,0.36c-0.69,0-1.32-0.15-1.88-0.46s-1.01-0.73-1.33-1.27
			c-0.32-0.55-0.48-1.16-0.48-1.85c0-0.69,0.16-1.31,0.48-1.85s0.76-0.96,1.32-1.26c0.56-0.3,1.19-0.45,1.89-0.45
			c0.62,0,1.19,0.13,1.69,0.38s0.91,0.62,1.22,1.09v-1.41H160.69z M158.37,17.99c0.43-0.23,0.76-0.55,1-0.96s0.36-0.88,0.36-1.4
			c0-0.52-0.12-0.99-0.36-1.39c-0.24-0.41-0.57-0.72-0.99-0.95c-0.42-0.23-0.91-0.34-1.45-0.34c-0.53,0-1.01,0.11-1.44,0.34
			c-0.42,0.22-0.76,0.54-0.99,0.95c-0.24,0.41-0.36,0.88-0.36,1.4c0,0.52,0.12,0.99,0.36,1.4c0.24,0.41,0.57,0.73,0.99,0.96
			s0.9,0.34,1.44,0.34C157.46,18.33,157.94,18.22,158.37,17.99z"/>
	</g>
	<g>
		<path d="M69.29,60.57c0.3,0.36,0.45,0.81,0.45,1.37c0,0.72-0.27,1.27-0.8,1.66c-0.53,0.39-1.32,0.58-2.36,0.58h-3.86v-8.4h3.62
			c0.94,0,1.66,0.19,2.18,0.56s0.77,0.91,0.77,1.6c0,0.46-0.11,0.86-0.34,1.18s-0.54,0.57-0.94,0.73
			C68.56,59.97,68.99,60.21,69.29,60.57z M63.6,56.52v3.05h2.68c0.68,0,1.2-0.13,1.57-0.39s0.55-0.64,0.55-1.13
			s-0.18-0.87-0.55-1.13c-0.37-0.26-0.89-0.39-1.57-0.39H63.6z M68.27,63.07c0.38-0.26,0.58-0.66,0.58-1.2
			c0-1.05-0.76-1.57-2.28-1.57H63.6v3.16h2.96C67.32,63.46,67.89,63.33,68.27,63.07z"/>
		<path d="M75.69,58.44c0.44,0.41,0.66,1.02,0.66,1.83v3.91h-0.82V63.2c-0.19,0.33-0.47,0.58-0.85,0.77
			c-0.37,0.18-0.81,0.28-1.33,0.28c-0.7,0-1.26-0.17-1.68-0.5c-0.42-0.34-0.62-0.78-0.62-1.33c0-0.54,0.19-0.97,0.58-1.3
			c0.39-0.33,1.01-0.49,1.85-0.49h2v-0.38c0-0.54-0.15-0.96-0.46-1.24c-0.3-0.28-0.75-0.43-1.33-0.43c-0.4,0-0.78,0.07-1.15,0.2
			c-0.37,0.13-0.68,0.31-0.95,0.55l-0.38-0.64c0.32-0.27,0.7-0.48,1.15-0.63c0.45-0.15,0.92-0.22,1.42-0.22
			C74.62,57.83,75.25,58.03,75.69,58.44z M74.73,63.25c0.34-0.22,0.6-0.54,0.77-0.95v-1.03h-1.98c-1.08,0-1.62,0.38-1.62,1.13
			c0,0.37,0.14,0.66,0.42,0.87c0.28,0.21,0.67,0.32,1.18,0.32C73.97,63.58,74.38,63.46,74.73,63.25z"/>
		<path d="M78.89,64.02c-0.47-0.15-0.83-0.33-1.1-0.56l0.38-0.67c0.26,0.21,0.6,0.38,1,0.51s0.82,0.2,1.25,0.2
			c0.58,0,1-0.09,1.28-0.27c0.28-0.18,0.41-0.43,0.41-0.76c0-0.23-0.08-0.41-0.23-0.55s-0.34-0.23-0.58-0.3
			c-0.23-0.07-0.54-0.13-0.92-0.2c-0.51-0.1-0.92-0.19-1.24-0.29s-0.58-0.27-0.8-0.51c-0.22-0.24-0.33-0.57-0.33-1
			c0-0.53,0.22-0.96,0.66-1.3c0.44-0.34,1.05-0.5,1.84-0.5c0.41,0,0.82,0.05,1.22,0.16c0.41,0.11,0.74,0.25,1.01,0.43l-0.37,0.68
			c-0.52-0.36-1.14-0.54-1.86-0.54c-0.54,0-0.95,0.1-1.23,0.29c-0.28,0.19-0.41,0.44-0.41,0.76c0,0.24,0.08,0.43,0.23,0.58
			c0.16,0.14,0.35,0.25,0.58,0.32c0.23,0.07,0.55,0.14,0.96,0.21c0.5,0.1,0.91,0.19,1.21,0.29c0.3,0.1,0.56,0.26,0.78,0.49
			c0.22,0.23,0.32,0.55,0.32,0.96c0,0.55-0.23,0.99-0.69,1.31s-1.1,0.49-1.91,0.49C79.84,64.25,79.35,64.17,78.89,64.02z"/>
		<path d="M90.03,61.29h-5.28c0.05,0.66,0.3,1.19,0.76,1.59s1.03,0.61,1.73,0.61c0.39,0,0.75-0.07,1.08-0.21
			c0.33-0.14,0.61-0.35,0.85-0.62l0.48,0.55c-0.28,0.34-0.63,0.59-1.05,0.77c-0.42,0.18-0.88,0.26-1.39,0.26
			c-0.65,0-1.22-0.14-1.72-0.41c-0.5-0.28-0.89-0.66-1.17-1.15c-0.28-0.49-0.42-1.04-0.42-1.66c0-0.62,0.13-1.17,0.4-1.66
			s0.64-0.87,1.1-1.14c0.47-0.27,0.99-0.41,1.58-0.41c0.58,0,1.11,0.14,1.57,0.41c0.46,0.27,0.83,0.65,1.09,1.13
			c0.26,0.48,0.4,1.04,0.4,1.66L90.03,61.29z M85.45,59.14c-0.41,0.39-0.65,0.89-0.7,1.52h4.48c-0.06-0.62-0.29-1.13-0.7-1.52
			c-0.41-0.39-0.93-0.58-1.54-0.58C86.37,58.56,85.86,58.75,85.45,59.14z"/>
		<path d="M97.54,55.28v8.9h-0.82v-1.25c-0.26,0.42-0.59,0.75-1.01,0.97c-0.42,0.22-0.89,0.34-1.42,0.34
			c-0.59,0-1.13-0.14-1.61-0.41c-0.48-0.27-0.86-0.65-1.13-1.14c-0.27-0.49-0.41-1.04-0.41-1.67c0-0.62,0.14-1.18,0.41-1.67
			c0.27-0.49,0.65-0.87,1.13-1.13c0.48-0.27,1.02-0.4,1.61-0.4c0.51,0,0.97,0.11,1.39,0.32s0.75,0.52,1.01,0.93v-3.79H97.54z
			 M95.55,63.18c0.36-0.2,0.64-0.49,0.84-0.87c0.2-0.38,0.31-0.8,0.31-1.28c0-0.48-0.1-0.91-0.31-1.28
			c-0.2-0.38-0.48-0.67-0.84-0.87s-0.75-0.31-1.19-0.31c-0.45,0-0.85,0.1-1.21,0.31s-0.64,0.49-0.84,0.87
			c-0.2,0.38-0.31,0.8-0.31,1.28c0,0.48,0.1,0.91,0.31,1.28c0.2,0.38,0.48,0.67,0.84,0.87s0.76,0.31,1.21,0.31
			C94.8,63.49,95.2,63.39,95.55,63.18z"/>
		<path d="M104,63.83c-0.49-0.28-0.87-0.66-1.15-1.15c-0.28-0.49-0.42-1.04-0.42-1.66c0-0.62,0.14-1.17,0.42-1.66
			c0.28-0.49,0.66-0.87,1.15-1.14c0.49-0.27,1.04-0.41,1.64-0.41c0.61,0,1.16,0.14,1.64,0.41c0.49,0.27,0.87,0.65,1.15,1.14
			c0.28,0.49,0.41,1.04,0.41,1.66c0,0.62-0.14,1.17-0.41,1.66c-0.28,0.49-0.66,0.87-1.15,1.15c-0.49,0.28-1.04,0.41-1.64,0.41
			C105.03,64.25,104.48,64.11,104,63.83z M106.84,63.18c0.36-0.2,0.63-0.49,0.83-0.87c0.2-0.38,0.3-0.8,0.3-1.28
			c0-0.48-0.1-0.91-0.3-1.28c-0.2-0.38-0.48-0.67-0.83-0.87c-0.36-0.2-0.76-0.31-1.21-0.31c-0.45,0-0.85,0.1-1.21,0.31
			s-0.64,0.49-0.84,0.87c-0.2,0.38-0.31,0.8-0.31,1.28c0,0.48,0.1,0.91,0.31,1.28c0.2,0.38,0.48,0.67,0.84,0.87s0.76,0.31,1.21,0.31
			C106.09,63.49,106.49,63.39,106.84,63.18z"/>
		<path d="M115.69,58.52c0.47,0.46,0.7,1.13,0.7,2.01v3.66h-0.85v-3.58c0-0.66-0.16-1.16-0.49-1.5c-0.33-0.34-0.8-0.52-1.4-0.52
			c-0.68,0-1.22,0.2-1.61,0.61c-0.4,0.4-0.59,0.96-0.59,1.67v3.31h-0.85v-6.31h0.82v1.16c0.23-0.38,0.55-0.68,0.97-0.89
			s0.89-0.32,1.43-0.32C114.59,57.83,115.22,58.06,115.69,58.52z"/>
		<path d="M123.62,55.79v8.4h-0.86v-7.63h-1.98v-0.77H123.62z"/>
		<path d="M127.23,63.74c-0.51-0.34-0.9-0.84-1.19-1.48c-0.28-0.64-0.43-1.4-0.43-2.27c0-0.87,0.14-1.63,0.43-2.27
			s0.68-1.14,1.19-1.48c0.51-0.34,1.09-0.52,1.73-0.52c0.65,0,1.23,0.17,1.73,0.52c0.51,0.34,0.91,0.84,1.19,1.48
			s0.43,1.4,0.43,2.27c0,0.87-0.14,1.63-0.43,2.27c-0.29,0.64-0.69,1.14-1.19,1.48c-0.51,0.34-1.09,0.52-1.73,0.52
			C128.32,64.26,127.74,64.09,127.23,63.74z M130.26,63.06c0.37-0.27,0.66-0.67,0.87-1.19c0.21-0.52,0.31-1.15,0.31-1.88
			c0-0.74-0.1-1.36-0.31-1.88c-0.21-0.52-0.5-0.92-0.87-1.19c-0.37-0.27-0.8-0.41-1.29-0.41c-0.49,0-0.92,0.14-1.29,0.41
			c-0.37,0.27-0.66,0.67-0.87,1.19c-0.21,0.52-0.31,1.15-0.31,1.88c0,0.74,0.1,1.36,0.31,1.88c0.21,0.52,0.5,0.92,0.87,1.19
			c0.37,0.27,0.8,0.41,1.29,0.41C129.46,63.47,129.88,63.33,130.26,63.06z"/>
		<path d="M135.18,63.74c-0.51-0.34-0.9-0.84-1.19-1.48c-0.28-0.64-0.43-1.4-0.43-2.27c0-0.87,0.14-1.63,0.43-2.27
			s0.68-1.14,1.19-1.48c0.51-0.34,1.09-0.52,1.73-0.52c0.65,0,1.23,0.17,1.73,0.52c0.51,0.34,0.91,0.84,1.19,1.48
			s0.43,1.4,0.43,2.27c0,0.87-0.14,1.63-0.43,2.27c-0.29,0.64-0.69,1.14-1.19,1.48c-0.51,0.34-1.09,0.52-1.73,0.52
			C136.26,64.26,135.68,64.09,135.18,63.74z M138.2,63.06c0.37-0.27,0.66-0.67,0.87-1.19c0.21-0.52,0.31-1.15,0.31-1.88
			c0-0.74-0.1-1.36-0.31-1.88c-0.21-0.52-0.5-0.92-0.87-1.19c-0.37-0.27-0.8-0.41-1.29-0.41c-0.49,0-0.92,0.14-1.29,0.41
			c-0.37,0.27-0.66,0.67-0.87,1.19c-0.21,0.52-0.31,1.15-0.31,1.88c0,0.74,0.1,1.36,0.31,1.88c0.21,0.52,0.5,0.92,0.87,1.19
			c0.37,0.27,0.8,0.41,1.29,0.41C137.4,63.47,137.83,63.33,138.2,63.06z"/>
		<path d="M147.04,60.35h-2.23v2.18h-0.76v-2.18h-2.23v-0.71h2.23v-2.2h0.76v2.2h2.23V60.35z"/>
		<path d="M158.13,64.19l-1.92-2.7c-0.22,0.02-0.44,0.04-0.67,0.04h-2.26v2.66h-0.89v-8.4h3.14c1.07,0,1.91,0.26,2.52,0.77
			c0.61,0.51,0.91,1.22,0.91,2.11c0,0.66-0.17,1.21-0.5,1.66s-0.81,0.78-1.42,0.98l2.05,2.88H158.13z M157.42,60.21
			c0.44-0.37,0.66-0.88,0.66-1.55c0-0.68-0.22-1.2-0.66-1.57c-0.44-0.36-1.08-0.55-1.91-0.55h-2.23v4.21h2.23
			C156.34,60.77,156.98,60.58,157.42,60.21z"/>
		<path d="M166.38,61.29h-5.28c0.05,0.66,0.3,1.19,0.76,1.59s1.03,0.61,1.73,0.61c0.39,0,0.75-0.07,1.08-0.21
			c0.33-0.14,0.61-0.35,0.85-0.62l0.48,0.55c-0.28,0.34-0.63,0.59-1.05,0.77c-0.42,0.18-0.88,0.26-1.39,0.26
			c-0.65,0-1.22-0.14-1.72-0.41c-0.5-0.28-0.89-0.66-1.17-1.15c-0.28-0.49-0.42-1.04-0.42-1.66c0-0.62,0.13-1.17,0.4-1.66
			c0.27-0.49,0.64-0.87,1.1-1.14c0.47-0.27,0.99-0.41,1.58-0.41s1.11,0.14,1.57,0.41c0.46,0.27,0.83,0.65,1.09,1.13
			c0.26,0.48,0.4,1.04,0.4,1.66L166.38,61.29z M161.8,59.14c-0.41,0.39-0.65,0.89-0.7,1.52h4.48c-0.06-0.62-0.29-1.13-0.7-1.52
			c-0.41-0.39-0.93-0.58-1.54-0.58C162.73,58.56,162.22,58.75,161.8,59.14z"/>
		<path d="M173.32,57.88l-2.81,6.31h-0.88l-2.8-6.31h0.89l2.36,5.38l2.39-5.38H173.32z"/>
		<path d="M174.51,56.31c-0.12-0.12-0.18-0.26-0.18-0.43c0-0.16,0.06-0.3,0.18-0.42s0.27-0.18,0.44-0.18s0.32,0.06,0.44,0.17
			c0.12,0.12,0.18,0.25,0.18,0.41c0,0.18-0.06,0.32-0.18,0.44c-0.12,0.12-0.27,0.18-0.44,0.18S174.63,56.43,174.51,56.31z
			 M174.52,57.88h0.85v6.31h-0.85V57.88z"/>
		<path d="M183.24,61.29h-5.28c0.05,0.66,0.3,1.19,0.76,1.59s1.03,0.61,1.73,0.61c0.39,0,0.75-0.07,1.08-0.21
			c0.33-0.14,0.61-0.35,0.85-0.62l0.48,0.55c-0.28,0.34-0.63,0.59-1.05,0.77c-0.42,0.18-0.88,0.26-1.39,0.26
			c-0.65,0-1.22-0.14-1.72-0.41c-0.5-0.28-0.89-0.66-1.17-1.15c-0.28-0.49-0.42-1.04-0.42-1.66c0-0.62,0.13-1.17,0.4-1.66
			c0.27-0.49,0.64-0.87,1.1-1.14c0.47-0.27,0.99-0.41,1.58-0.41s1.11,0.14,1.57,0.41c0.46,0.27,0.83,0.65,1.09,1.13
			c0.26,0.48,0.4,1.04,0.4,1.66L183.24,61.29z M178.67,59.14c-0.41,0.39-0.65,0.89-0.7,1.52h4.48c-0.06-0.62-0.29-1.13-0.7-1.52
			c-0.41-0.39-0.93-0.58-1.54-0.58C179.59,58.56,179.08,58.75,178.67,59.14z"/>
		<path d="M194.14,57.88l-2.39,6.31h-0.8l-1.99-5.17l-1.99,5.17h-0.8l-2.38-6.31h0.82l1.98,5.36l2.03-5.36h0.73l2.02,5.36l2-5.36
			H194.14z"/>
		<path d="M195.57,64.02c-0.47-0.15-0.83-0.33-1.1-0.56l0.38-0.67c0.26,0.21,0.6,0.38,1,0.51c0.4,0.13,0.82,0.2,1.25,0.2
			c0.58,0,1-0.09,1.28-0.27c0.28-0.18,0.41-0.43,0.41-0.76c0-0.23-0.08-0.41-0.23-0.55c-0.15-0.13-0.34-0.23-0.58-0.3
			c-0.23-0.07-0.54-0.13-0.92-0.2c-0.51-0.1-0.92-0.19-1.24-0.29c-0.31-0.1-0.58-0.27-0.8-0.51c-0.22-0.24-0.33-0.57-0.33-1
			c0-0.53,0.22-0.96,0.66-1.3c0.44-0.34,1.05-0.5,1.84-0.5c0.41,0,0.82,0.05,1.22,0.16c0.41,0.11,0.74,0.25,1.01,0.43l-0.37,0.68
			c-0.52-0.36-1.14-0.54-1.86-0.54c-0.54,0-0.95,0.1-1.23,0.29c-0.28,0.19-0.41,0.44-0.41,0.76c0,0.24,0.08,0.43,0.23,0.58
			c0.16,0.14,0.35,0.25,0.58,0.32c0.23,0.07,0.55,0.14,0.96,0.21c0.5,0.1,0.91,0.19,1.21,0.29c0.3,0.1,0.56,0.26,0.78,0.49
			c0.22,0.23,0.32,0.55,0.32,0.96c0,0.55-0.23,0.99-0.69,1.31s-1.1,0.49-1.91,0.49C196.53,64.25,196.04,64.17,195.57,64.02z"/>
	</g>
</g>
</svg>
