<svg width="50" height="31" viewBox="0 0 50 31" fill="none" xmlns="http://www.w3.org/2000/svg">
<path fill-rule="evenodd" clip-rule="evenodd" d="M50 29.1898C50 30.0736 49.2579 30.7861 48.3373 30.7861H1.66305C0.742131 30.7861 0 30.0736 0 29.1898V2.38251C0 1.49865 0.742131 0.786133 1.66305 0.786133H48.3373C49.2579 0.786133 50 1.49865 50 2.38251V29.1898Z" fill="#14477C"/>
<path fill-rule="evenodd" clip-rule="evenodd" d="M31.0028 24.7334L31.4634 24.7244L31.9247 24.6962L32.3756 24.63L32.8176 24.5548L33.2501 24.4514L33.6824 24.339L34.096 24.1881L34.5098 24.0288L34.9043 23.8495L35.2897 23.6523L35.6662 23.4358L36.033 23.2013L36.3902 22.9475L36.7287 22.6841L37.0481 22.4021L37.3672 22.1008L37.659 21.7905L37.9417 21.4616L38.2139 21.1229L38.4677 20.7755L38.6933 20.4086L38.9193 20.0329L39.107 19.6474L39.2952 19.2433L39.4551 18.8386L39.5964 18.4159L39.7186 17.9925L39.8214 17.5602L39.8972 17.1086L39.9537 16.6671L39.9908 16.2059L40 15.7459L39.9908 15.2846L39.9537 14.824L39.8972 14.3821L39.8214 13.9408L39.7186 13.5077L39.5964 13.0852L39.4551 12.6616L39.2952 12.2576L39.107 11.8625L38.9193 11.4771L38.6933 11.1012L38.4677 10.7345L38.2139 10.3869L37.9417 10.0484L37.659 9.71941L37.3672 9.40913L37.0481 9.11751L36.7287 8.83548L36.3902 8.56316L36.033 8.31835L35.6662 8.08314L35.2897 7.86732L34.9043 7.66943L34.5098 7.49083L34.096 7.33152L33.6824 7.19025L33.2501 7.06816L32.8176 6.96473L32.3756 6.88956L31.9247 6.83305L31.4634 6.7952L31.0028 6.78613L30.5422 6.7952L30.0913 6.83305L29.6396 6.88956L29.1983 6.96473L28.7653 7.06816L28.333 7.19025L27.9188 7.33152L27.5148 7.49083L27.1197 7.66943L26.7343 7.86732L26.3585 8.08314L25.9916 8.31835L25.6441 8.56316L25.3049 8.83548L24.976 9.11751L24.6664 9.40913L24.3649 9.71941L24.0927 10.0484L23.8197 10.3869L23.5755 10.7345L23.3404 11.1012L23.1246 11.4771L22.9267 11.8625L22.7481 12.2576L22.588 12.6616L22.4475 13.0852L22.3254 13.5077L22.2213 13.9408L22.1468 14.3821L22.0902 14.824L22.0523 15.2846L22.0427 15.7459L22.0523 16.2059L22.0902 16.6671L22.1468 17.1086L22.2213 17.5602L22.3254 17.9925L22.4475 18.4159L22.588 18.8386L22.7481 19.2433L22.9267 19.6474L23.1246 20.0329L23.3404 20.4086L23.5755 20.7755L23.8197 21.1229L24.0927 21.4616L24.3649 21.7905L24.6664 22.1008L24.976 22.4021L25.3049 22.6841L25.6441 22.9475L25.9916 23.2013L26.3585 23.4358L26.7343 23.6523L27.1197 23.8495L27.5148 24.0288L27.9188 24.1881L28.333 24.339L28.7653 24.4514L29.1983 24.5548L29.6396 24.63L30.0913 24.6962L30.5422 24.7244L31.0028 24.7334Z" fill="#FBB230"/>
<path fill-rule="evenodd" clip-rule="evenodd" d="M18.9971 24.7334L19.4577 24.7244L19.9086 24.6962L20.3603 24.63L20.8016 24.5548L21.2346 24.4514L21.6675 24.339L22.0807 24.1881L22.4847 24.0288L22.88 23.8495L23.2652 23.6523L23.6412 23.4358L24.0079 23.2013L24.3555 22.9475L24.6947 22.6841L25.0237 22.4021L25.3332 22.1008L25.6346 21.7905L25.9076 21.4616L26.18 21.1229L26.4241 20.7755L26.6592 20.4086L26.875 20.0329L27.073 19.6474L27.2516 19.2433L27.4116 18.8386L27.5522 18.4159L27.6748 17.9925L27.7784 17.5602L27.8529 17.1086L27.9093 16.6671L27.9474 16.2059L27.9568 15.7459L27.9474 15.2846L27.9093 14.824L27.8529 14.3821L27.7784 13.9408L27.6748 13.5077L27.5522 13.0852L27.4116 12.6616L27.2516 12.2576L27.073 11.8625L26.875 11.4771L26.6592 11.1012L26.4241 10.7345L26.18 10.3869L25.9076 10.0484L25.6346 9.71941L25.3332 9.40913L25.0237 9.11751L24.6947 8.83548L24.3555 8.56316L24.0079 8.31835L23.6412 8.08314L23.2652 7.86732L22.88 7.66943L22.4847 7.49083L22.0807 7.33152L21.6675 7.19025L21.2346 7.06816L20.8016 6.96473L20.3603 6.88956L19.9086 6.83305L19.4577 6.7952L18.9971 6.78613L18.5365 6.7952L18.0752 6.83305L17.6242 6.88956L17.1823 6.96473L16.7506 7.06816L16.3176 7.19025L15.9039 7.33152L15.4901 7.49083L15.0956 7.66943L14.7103 7.86732L14.3337 8.08314L13.9676 8.31835L13.6103 8.56316L13.2713 8.83548L12.9519 9.11751L12.6326 9.40913L12.341 9.71941L12.0582 10.0484L11.786 10.3869L11.5322 10.7345L11.3066 11.1012L11.0806 11.4771L10.8929 11.8625L10.7047 12.2576L10.5448 12.6616L10.4041 13.0852L10.2813 13.5077L10.1877 13.9408L10.1027 14.3821L10.0469 14.824L10.009 15.2846L10 15.7459L10.009 16.2059L10.0469 16.6671L10.1027 17.1086L10.1877 17.5602L10.2813 17.9925L10.4041 18.4159L10.5448 18.8386L10.7047 19.2433L10.8929 19.6474L11.0806 20.0329L11.3066 20.4086L11.5322 20.7755L11.786 21.1229L12.0582 21.4616L12.341 21.7905L12.6326 22.1008L12.9519 22.4021L13.2713 22.6841L13.6103 22.9475L13.9676 23.2013L14.3337 23.4358L14.7103 23.6523L15.0956 23.8495L15.4901 24.0288L15.9039 24.1881L16.3176 24.339L16.7506 24.4514L17.1823 24.5548L17.6242 24.63L18.0752 24.6962L18.5365 24.7244L18.9971 24.7334Z" fill="#EB2230"/>
<path fill-rule="evenodd" clip-rule="evenodd" d="M23.9514 10.2268H28.7185V9.73779H24.365L23.9514 10.2268Z" fill="#FBB230"/>
<path fill-rule="evenodd" clip-rule="evenodd" d="M23.2371 11.3083H28.7186V10.8193H23.5191L23.2371 11.3083Z" fill="#FBB230"/>
<path fill-rule="evenodd" clip-rule="evenodd" d="M22.7011 12.3894H28.7184V11.9004H22.9175L22.7011 12.3894Z" fill="#FBB230"/>
<path fill-rule="evenodd" clip-rule="evenodd" d="M22.3343 13.4705H28.7184V12.9912H22.4846L22.3343 13.4705Z" fill="#FBB230"/>
<path fill-rule="evenodd" clip-rule="evenodd" d="M22.5502 18.7163H28.7371V18.2275H22.4005L22.5502 18.7163Z" fill="#FBB230"/>
<path fill-rule="evenodd" clip-rule="evenodd" d="M23.0019 19.7975H28.7371V19.3086H22.7764L23.0019 19.7975Z" fill="#FBB230"/>
<path fill-rule="evenodd" clip-rule="evenodd" d="M23.6506 20.879H28.7369V20.3901H23.3403L23.6506 20.879Z" fill="#FBB230"/>
<path fill-rule="evenodd" clip-rule="evenodd" d="M24.5346 21.9602H28.737V21.4712H24.1023L24.5346 21.9602Z" fill="#FBB230"/>
<path fill-rule="evenodd" clip-rule="evenodd" d="M22.1185 14.5516H28.7185V14.0718H22.2124L22.1185 14.5516Z" fill="#FBB230"/>
<path fill-rule="evenodd" clip-rule="evenodd" d="M26.1419 17.6354H28.6618V17.1465H26.2363L26.1419 17.6354Z" fill="#FBB230"/>
<path fill-rule="evenodd" clip-rule="evenodd" d="M26.3392 16.5543H28.6618V16.0654H26.4337L26.3392 16.5543Z" fill="#FBB230"/>
<path fill-rule="evenodd" clip-rule="evenodd" d="M21.9489 16.0654H22.6069V16.5543H21.9869L21.9489 16.0654Z" fill="#FBB230"/>
<path fill-rule="evenodd" clip-rule="evenodd" d="M39.0415 17.2686C39.2766 17.2686 39.4642 17.4567 39.4642 17.692C39.4642 17.9271 39.2766 18.1146 39.0415 18.1146C38.8064 18.1146 38.6188 17.9271 38.6188 17.692C38.6188 17.4566 38.8064 17.2686 39.0415 17.2686ZM39.0415 17.3436C39.2394 17.3436 39.3988 17.5035 39.3988 17.6919C39.3988 17.889 39.2395 18.0491 39.0415 18.0491C38.8437 18.0491 38.6843 17.889 38.6843 17.6919C38.6843 17.5036 38.8436 17.3436 39.0415 17.3436Z" fill="white"/>
<path d="M38.8815 17.8707V17.5225H39.0318C39.0696 17.5225 39.0979 17.5225 39.1166 17.5321C39.1262 17.5321 39.1441 17.5508 39.1538 17.5603C39.1634 17.579 39.1724 17.5975 39.1724 17.6169C39.1724 17.6452 39.1634 17.6637 39.1441 17.6823C39.1351 17.7011 39.107 17.7105 39.0787 17.7202C39.0883 17.7292 39.107 17.7389 39.1166 17.7485C39.1262 17.7575 39.1351 17.7762 39.1538 17.8045L39.2012 17.8707H39.1165L39.0599 17.7954C39.0412 17.7672 39.0316 17.7485 39.022 17.7485C39.013 17.7389 39.013 17.7292 39.004 17.7292C38.9937 17.7292 38.9847 17.7292 38.9661 17.7292H38.9475V17.8706H38.8815V17.8707ZM38.9476 17.6734H39.0041C39.0413 17.6734 39.06 17.6734 39.0696 17.6638C39.0787 17.6638 39.0883 17.6541 39.0883 17.6541C39.0979 17.6452 39.0979 17.6355 39.0979 17.6259C39.0979 17.6169 39.0883 17.5976 39.0883 17.5976C39.0787 17.5887 39.0696 17.579 39.0601 17.579C39.0506 17.579 39.0318 17.579 39.0042 17.579H38.9477V17.6734H38.9476Z" fill="white"/>
<path fill-rule="evenodd" clip-rule="evenodd" d="M32.9962 17.9362L33.6071 14.7402H34.3685L34.4629 15.0691C34.6036 14.9278 34.8386 14.7402 35.3088 14.7402L35.0738 15.5863C34.867 15.5863 34.547 15.5485 34.2844 16.1689C34.087 16.6392 33.9927 17.4191 33.8891 17.9362H32.9962Z" fill="white"/>
<path fill-rule="evenodd" clip-rule="evenodd" d="M21.4696 13.9409H22.315L22.1273 14.7869H22.5976L22.4564 15.4449H22.0336L21.7985 16.7143C21.7517 16.9494 21.7985 17.1846 22.2687 17.09L22.175 17.7954C21.6674 18.1809 20.6512 17.8989 20.8111 16.9494L21.4696 13.9409Z" fill="white"/>
<path fill-rule="evenodd" clip-rule="evenodd" d="M25.2393 16.5261C25.3331 16.0091 25.5684 14.7402 24.0548 14.7402C22.6448 14.7402 22.4565 16.1504 22.4565 16.3379C22.4102 16.5261 22.4102 17.9362 23.9141 17.9362C24.2898 17.9362 24.8166 17.8893 25.0517 17.7955L25.1925 17.1371C25.0517 17.1846 24.5719 17.2314 24.1961 17.2314C23.8672 17.2314 23.3032 17.2314 23.3969 16.526H25.2393V16.5261Z" fill="white"/>
<path fill-rule="evenodd" clip-rule="evenodd" d="M14.9826 17.9361L15.7349 14.0815H14.2682L13.2338 16.4321L13.0457 14.0815H11.6826L10.9302 17.9361H11.7763L12.341 15.1627L12.5761 17.9361H13.3752L14.5972 15.2096L14.0799 17.9361H14.9826Z" fill="white"/>
<path fill-rule="evenodd" clip-rule="evenodd" d="M15.9693 14.8338L15.8286 15.5392C16.0637 15.5392 16.6276 15.4448 16.9096 15.4448C17.1917 15.4448 17.5676 15.398 17.4269 15.8682C17.1917 15.8682 15.6402 15.633 15.4051 16.9962C15.274 17.8988 16.3456 18.2279 17.0034 17.7954L17.0977 17.9831H17.8964L18.2258 16.2439C18.5735 14.6738 17.0601 14.6456 15.9693 14.8338Z" fill="white"/>
<path fill-rule="evenodd" clip-rule="evenodd" d="M29.9692 15.1155C29.7527 14.9837 29.6209 14.9837 29.3486 14.9837C29.0852 14.9837 28.4646 15.2471 28.3798 15.9519C28.248 16.8359 28.8218 17.2309 29.6582 16.9676L29.8844 17.7198C28.4556 18.4342 27.0915 17.3247 27.5431 15.5947C27.9093 14.288 29.6396 13.4985 30.505 14.5796L29.9692 15.1155Z" fill="white"/>
<path fill-rule="evenodd" clip-rule="evenodd" d="M37.4244 15.1155C35.1206 13.3854 34.2271 17.9358 36.0136 17.9358C36.2956 17.9358 36.5783 17.795 36.766 17.7007L36.8597 17.9358H37.8002L38.5526 13.8931H37.6591L37.4244 15.1155Z" fill="white"/>
<path fill-rule="evenodd" clip-rule="evenodd" d="M30.6457 14.8338L30.5049 15.5392C30.7393 15.5392 31.3041 15.4448 31.5855 15.4448C31.8682 15.4448 32.1971 15.398 32.1033 15.8682C31.8682 15.8682 30.3167 15.633 30.0823 16.9962C29.9871 17.6541 30.5518 17.9831 30.9751 17.9831C31.3978 17.9831 31.5391 17.8892 31.6798 17.7954L31.7737 17.9831H32.5735L32.9023 16.2439C33.2598 14.6738 31.7455 14.6456 30.6457 14.8338Z" fill="white"/>
<path fill-rule="evenodd" clip-rule="evenodd" d="M23.3969 15.9149H24.4781C24.6002 15.0592 23.5755 15.2287 23.3969 15.9149Z" fill="#EB2230"/>
<path fill-rule="evenodd" clip-rule="evenodd" d="M17.2862 16.5258C17.1449 16.5258 16.816 16.4321 16.5332 16.6202C16.2519 16.8078 16.1575 17.1368 16.4869 17.2311C16.7683 17.3248 17.1449 17.1368 17.2385 16.8547L17.2862 16.5258Z" fill="#EB2230"/>
<path fill-rule="evenodd" clip-rule="evenodd" d="M37.0011 15.6331C36.7191 15.2566 36.1082 15.5393 35.9199 16.2439C35.7792 16.7143 36.0613 17.0432 36.3433 17.0432C36.9356 17.0433 37.2928 16.0751 37.0011 15.6331Z" fill="#FBB230"/>
<path fill-rule="evenodd" clip-rule="evenodd" d="M32.0088 16.5258C31.8683 16.5258 31.5392 16.4321 31.2566 16.6202C30.9753 16.8078 30.8808 17.1368 31.2104 17.2311C31.4918 17.3248 31.9152 17.1368 31.962 16.8547L32.0088 16.5258Z" fill="#FBB230"/>
<path fill-rule="evenodd" clip-rule="evenodd" d="M25.2394 17.9827L25.287 17.6538L25.851 14.7866H26.6027L26.6964 15.1156C26.8377 14.9743 27.0729 14.7866 27.5431 14.7866L27.3079 15.6327C27.1293 15.6327 26.753 15.5949 26.4709 16.3471C26.311 16.7795 26.2172 17.5131 26.1324 17.9827H25.2394Z" fill="white"/>
<path fill-rule="evenodd" clip-rule="evenodd" d="M20.6892 15.558H20.6513H20.6141L20.5769 15.5484L20.539 15.5393H20.5012L20.4638 15.5296C20.2943 15.511 20.1535 15.5013 19.9846 15.511C19.5516 15.5483 19.3641 15.8206 19.7303 16.0274C20.022 16.1971 20.248 16.1687 20.4446 16.357C20.8681 16.7515 20.6515 17.5134 20.1813 17.8045L20.0971 17.8423L20.0033 17.8802L19.9 17.9078L19.8063 17.936C19.3546 18.0112 18.7437 17.9926 18.3016 17.8423L18.4238 17.2121C18.781 17.2872 19.3643 17.4472 19.6366 17.2596C19.947 17.0527 19.6649 16.8079 19.4387 16.7046L19.3263 16.6673L19.2139 16.6205C18.3204 16.2156 18.5279 15.1345 19.3733 14.909C19.7118 14.8339 20.0504 14.8339 20.3986 14.8621H20.464C20.5489 14.8712 20.6241 14.8809 20.6992 14.8994H20.7365L20.7647 14.909H20.793L20.8115 14.9186H20.8398L20.6892 15.558Z" fill="white"/>
</svg>
