<svg width="50" height="31" viewBox="0 0 50 31" fill="none" xmlns="http://www.w3.org/2000/svg">
<path fill-rule="evenodd" clip-rule="evenodd" d="M47.7734 0.786133H2.13867C1.25 0.786133 0.693359 0.916164 0.390625 1.18551C0.126953 1.49202 0 1.99356 0 2.7366V5.51369V7.75208V23.7552V26.0957V28.7707C0 30.0988 0.722656 30.7861 2.13867 30.7861H47.7734C49.2578 30.7861 50 30.0988 50 28.7707V26.0957V23.7552V7.74279V5.5044V2.72731C50 1.41771 49.2578 0.786133 47.7734 0.786133Z" fill="white"/>
<path d="M20.5428 15.1419C20.414 15.9499 19.7934 15.9499 19.1962 15.9499H18.8566L19.0908 14.4276C19.1025 14.334 19.1845 14.2637 19.2782 14.2637H19.4304C19.8402 14.2637 20.2267 14.2637 20.4257 14.4979C20.5545 14.6501 20.5897 14.8609 20.5428 15.1419ZM20.2852 13.0225H18.0252C17.873 13.0225 17.7442 13.1396 17.709 13.2918L16.7957 19.0999C16.7722 19.217 16.8659 19.3224 16.983 19.3224H18.0603C18.2126 19.3224 18.3414 19.2053 18.3765 19.053L18.6224 17.4839C18.6458 17.3317 18.7746 17.2146 18.9386 17.2146H19.6529C21.14 17.2146 22.0066 16.4886 22.2291 15.06C22.3344 14.4394 22.2291 13.9475 21.9363 13.5962C21.6084 13.2215 21.0346 13.0225 20.2852 13.0225Z" fill="#253D80"/>
<path d="M25.5289 17.2264C25.4235 17.847 24.9317 18.2568 24.311 18.2568C23.9949 18.2568 23.7489 18.1514 23.585 17.9641C23.4211 17.7767 23.3625 17.5074 23.4094 17.2029C23.503 16.594 24.0066 16.1608 24.6272 16.1608C24.9317 16.1608 25.1893 16.2661 25.3532 16.4535C25.5171 16.6526 25.5757 16.9336 25.5289 17.2264ZM27.0394 15.1186H25.9504C25.8567 15.1186 25.7748 15.1888 25.7631 15.2825L25.7162 15.587L25.646 15.4816C25.4118 15.142 24.8848 15.0249 24.3696 15.0249C23.1752 15.0249 22.1447 15.9266 21.9456 17.2029C21.8402 17.8353 21.9925 18.4442 22.3438 18.8657C22.6716 19.2522 23.1517 19.4161 23.7138 19.4161C24.674 19.4161 25.2127 18.7955 25.2127 18.7955L25.1658 19.0999C25.1424 19.217 25.2361 19.3224 25.3532 19.3224H26.3251C26.4774 19.3224 26.6062 19.2053 26.6413 19.0531L27.2268 15.3411C27.2502 15.224 27.1565 15.1186 27.0394 15.1186Z" fill="#253D80"/>
<path d="M32.8152 15.1187H31.7262C31.6208 15.1187 31.5271 15.1655 31.4686 15.2592L29.9697 17.4724L29.3374 15.3411C29.3022 15.2123 29.1734 15.1187 29.0329 15.1187H27.9673C27.8385 15.1187 27.7448 15.2475 27.7917 15.3646L28.9861 18.8893L27.8619 20.4818C27.7682 20.6106 27.8619 20.7746 28.0141 20.7746H29.1032C29.2086 20.7746 29.3022 20.7277 29.3608 20.634L32.9792 15.3997C33.0611 15.2943 32.9675 15.1187 32.8152 15.1187Z" fill="#253D80"/>
<path d="M36.693 15.1419C36.5642 15.9499 35.9436 15.9499 35.3464 15.9499H35.0068L35.2527 14.4276C35.2644 14.334 35.3464 14.2637 35.4401 14.2637H35.5923C36.0022 14.2637 36.3886 14.2637 36.5877 14.4979C36.693 14.6501 36.7282 14.8609 36.693 15.1419ZM36.4237 13.0225H34.1637C34.0115 13.0225 33.8827 13.1396 33.8593 13.2918L32.9459 19.0999C32.9225 19.217 33.0162 19.3224 33.1333 19.3224H34.2925C34.3979 19.3224 34.4916 19.2404 34.515 19.135L34.7726 17.4956C34.7961 17.3434 34.9249 17.2263 35.0888 17.2263H35.8031C37.2902 17.2263 38.1568 16.5003 38.3793 15.0717C38.4846 14.4511 38.3793 13.9593 38.0865 13.608C37.7586 13.2215 37.1849 13.0225 36.4237 13.0225Z" fill="#189BD7"/>
<path d="M41.6767 17.2264C41.5713 17.847 41.0795 18.2568 40.4589 18.2568C40.1427 18.2568 39.8968 18.1514 39.7329 17.9641C39.569 17.7767 39.5104 17.5074 39.5573 17.2029C39.6509 16.594 40.1545 16.1608 40.7751 16.1608C41.0795 16.1608 41.3371 16.2661 41.5011 16.4535C41.6533 16.6526 41.7236 16.9336 41.6767 17.2264ZM43.1873 15.1186H42.11C42.0163 15.1186 41.9343 15.1888 41.9226 15.2825L41.8758 15.587L41.7938 15.4816C41.5596 15.142 41.0327 15.0249 40.5175 15.0249C39.3231 15.0249 38.2926 15.9266 38.0935 17.2029C37.9881 17.8353 38.1404 18.4442 38.4917 18.8657C38.8195 19.2522 39.2996 19.4161 39.8617 19.4161C40.8219 19.4161 41.3606 18.7955 41.3606 18.7955L41.3137 19.0999C41.2903 19.217 41.384 19.3224 41.5011 19.3224H42.473C42.6252 19.3224 42.754 19.2053 42.7775 19.0531L43.3629 15.3411C43.3864 15.224 43.3044 15.1186 43.1873 15.1186Z" fill="#189BD7"/>
<path d="M44.4684 13.1864L43.5433 19.0999C43.5199 19.217 43.6136 19.3224 43.7307 19.3224H44.6675C44.8197 19.3224 44.9485 19.2053 44.9836 19.053L45.897 13.2449C45.9204 13.1279 45.8268 13.0225 45.7097 13.0225H44.6675C44.5621 13.0225 44.4801 13.0927 44.4684 13.1864Z" fill="#189BD7"/>
<path d="M7.39136 20.4348L7.56701 19.3341L7.18058 19.3224H5.34213L6.61851 11.2192C6.61851 11.1958 6.63022 11.1723 6.65364 11.1606C6.67706 11.1489 6.70048 11.1372 6.7239 11.1372H9.82701C10.8575 11.1372 11.5718 11.348 11.9348 11.7695C12.1104 11.9686 12.2158 12.1794 12.2744 12.4019C12.3329 12.6361 12.3329 12.9288 12.2744 13.2801V13.3035V13.526L12.45 13.6197C12.6023 13.7017 12.7076 13.7836 12.8013 13.889C12.9535 14.0647 13.0472 14.2754 13.0824 14.5331C13.1292 14.7907 13.1058 15.1068 13.0472 15.4581C12.9653 15.868 12.8364 16.2193 12.6608 16.512C12.4969 16.7813 12.2978 17.0038 12.0519 17.1795C11.8177 17.3434 11.5484 17.4722 11.2439 17.5425C10.9394 17.6244 10.5999 17.6596 10.2251 17.6596H9.97924C9.80359 17.6596 9.63965 17.7181 9.51084 17.8352C9.38204 17.9523 9.28836 18.1045 9.26494 18.2802L9.24152 18.3739L8.93706 20.306L8.92535 20.3763C8.92535 20.3997 8.91364 20.4114 8.90193 20.4231C8.89022 20.4348 8.87851 20.4348 8.8668 20.4348H7.39136Z" fill="#253D80"/>
<path d="M12.6149 13.3271C12.6032 13.3857 12.5915 13.4442 12.5798 13.5145C12.1699 15.6106 10.7647 16.3366 8.98482 16.3366H8.07145C7.84896 16.3366 7.67331 16.5005 7.63818 16.7113L7.16979 19.6739L7.04098 20.517C7.01756 20.6575 7.12295 20.7863 7.27518 20.7863H8.89114C9.0785 20.7863 9.24244 20.6458 9.27757 20.4585L9.28928 20.3765L9.59373 18.4444L9.61715 18.339C9.65228 18.1516 9.80451 18.0111 10.0036 18.0111H10.2495C11.8186 18.0111 13.0364 17.3788 13.3994 15.5403C13.5517 14.7675 13.4697 14.1351 13.0716 13.6784C12.9428 13.5379 12.7905 13.4208 12.6149 13.3271Z" fill="#189BD7"/>
<path d="M12.1819 13.163C12.1233 13.1396 12.0531 13.1279 11.9828 13.1161C11.9125 13.1044 11.8423 13.0927 11.7837 13.081C11.5378 13.0459 11.2685 13.0225 10.9757 13.0225H8.54009C8.48155 13.0225 8.423 13.0342 8.37616 13.0576C8.25906 13.1161 8.17709 13.2215 8.16538 13.3503L7.65015 16.6291L7.63844 16.7228C7.67356 16.512 7.86092 16.3481 8.0717 16.3481H8.98507C10.7767 16.3481 12.1702 15.6221 12.58 13.526C12.5917 13.4674 12.6034 13.4089 12.6151 13.3386C12.5097 13.2801 12.4044 13.2332 12.2755 13.1981C12.2521 13.1747 12.217 13.163 12.1819 13.163Z" fill="#242F65"/>
<path d="M8.16485 13.3389C8.18827 13.2101 8.27024 13.1047 8.37563 13.0461C8.42247 13.0227 8.48102 13.011 8.53957 13.011H10.9752C11.268 13.011 11.5373 13.0344 11.7832 13.0696C11.8535 13.0813 11.9237 13.093 11.9823 13.1047C12.0525 13.1164 12.1111 13.1398 12.1813 13.1515C12.2165 13.1632 12.2399 13.175 12.275 13.175C12.3921 13.2101 12.5092 13.2569 12.6146 13.3155C12.7317 12.5426 12.6146 12.0157 12.193 11.5356C11.7247 11.0086 10.8933 10.7861 9.82765 10.7861H6.72454C6.50205 10.7861 6.3147 10.9501 6.29128 11.1609L5.00319 19.3578C4.97977 19.5217 5.09687 19.6623 5.26081 19.6623H7.16952L7.64962 16.606L8.16485 13.3389Z" fill="#253D80"/>
</svg>
