<svg width="44" height="32" viewBox="0 0 44 32" fill="none" xmlns="http://www.w3.org/2000/svg">
<path d="M43.9 26.9999H38.43V24.2599H41.16V16.2699L38.81 9.20994H28.84V24.2599H30.21V26.9999H26.11V6.46994H40.78L43.9 15.8299V26.9999Z" fill="black"/>
<path d="M34.3202 31.1099C31.3002 31.1099 28.8402 28.6499 28.8402 25.6299C28.8402 22.6099 31.3002 20.1499 34.3202 20.1499C37.3402 20.1499 39.8002 22.6099 39.8002 25.6299C39.7902 28.6499 37.3402 31.1099 34.3202 31.1099ZM34.3202 22.8899C32.8102 22.8899 31.5802 24.1199 31.5802 25.6299C31.5802 27.1399 32.8102 28.3699 34.3202 28.3699C35.8302 28.3699 37.0602 27.1399 37.0602 25.6299C37.0602 24.1199 35.8302 22.8899 34.3202 22.8899Z" fill="black"/>
<path d="M8.31019 27H2.84019V17.42H5.57019V24.26H8.31019V27Z" fill="black"/>
<path d="M28.8401 27H16.5201V24.26H26.1101V3.72999H0.100098V0.98999H28.8401V27Z" fill="black"/>
<path d="M12.4202 31.1099C9.40019 31.1099 6.94019 28.6499 6.94019 25.6299C6.94019 22.6099 9.40019 20.1499 12.4202 20.1499C15.4402 20.1499 17.9002 22.6099 17.9002 25.6299C17.8902 28.6499 15.4402 31.1099 12.4202 31.1099ZM12.4202 22.8899C10.9102 22.8899 9.68019 24.1199 9.68019 25.6299C9.68019 27.1399 10.9102 28.3699 12.4202 28.3699C13.9302 28.3699 15.1602 27.1399 15.1602 25.6299C15.1602 24.1199 13.9302 22.8899 12.4202 22.8899Z" fill="black"/>
<path d="M13.7899 6.46994H1.46992V9.20994H13.7899V6.46994Z" fill="black"/>
<path d="M11.0502 11.94H2.84019V14.68H11.0502V11.94Z" fill="black"/>
</svg>
