<svg width="50" height="31" viewBox="0 0 50 31" fill="none" xmlns="http://www.w3.org/2000/svg">
<path fill-rule="evenodd" clip-rule="evenodd" d="M47.7734 0.786133H2.13867C1.25 0.786133 0.693359 0.916164 0.390625 1.18551C0.126953 1.49202 0 1.99356 0 2.7366V5.51369V7.75208V23.7552V26.0957V28.7707C0 30.0988 0.722656 30.7861 2.13867 30.7861H47.7734C49.2578 30.7861 50 30.0988 50 28.7707V26.0957V23.7552V7.74279V5.5044V2.72731C50 1.41771 49.2578 0.786133 47.7734 0.786133Z" fill="#872166"/>
<g clip-path="url(#clip0_5229_410)">
<path fill-rule="evenodd" clip-rule="evenodd" d="M31.5274 13.3172C32.2069 13.3172 32.7576 12.7668 32.7576 12.088C32.7576 11.4089 32.2069 10.8579 31.5274 10.8579C30.8488 10.8579 30.2984 11.4089 30.2984 12.088C30.2984 12.7668 30.8488 13.3172 31.5274 13.3172ZM22.1063 13.9811C22.0507 14.1205 21.6512 15.249 20.685 16.4186V11.4176L18.1106 11.9264V20.9913H20.685V18.1893C21.4307 19.3076 21.7989 20.9913 21.7989 20.9913H24.8825C24.5775 19.7232 23.2432 17.3851 23.2432 17.3851C24.4407 15.8669 24.9667 14.2491 25.0504 13.9811H22.1063ZM28.8744 13.8865C26.5685 13.9605 25.3979 14.995 25.3979 17.0515V20.9913H27.9136V17.7785C27.9136 16.5471 28.0748 16.0192 29.5361 15.9689V13.9225C29.2901 13.8703 28.8744 13.8865 28.8744 13.8865ZM13.793 14.9793C13.4776 14.9585 12.7476 14.9113 12.7476 14.2541C12.7476 13.461 13.7986 13.461 14.1929 13.461C14.886 13.461 15.7838 13.6659 16.4249 13.8576C16.4249 13.8576 16.7825 13.9837 17.0869 14.1128L17.1152 14.1205V11.9485L17.0763 11.937C16.3197 11.6723 15.4399 11.4176 13.8088 11.4176C10.9965 11.4176 10 13.056 10 14.4595C10 15.2686 10.3468 17.1727 13.5676 17.3924C13.8407 17.4091 14.5653 17.4509 14.5653 18.1301C14.5653 18.6908 13.972 19.0215 12.9742 19.0215C11.8807 19.0215 10.82 18.7426 10.1758 18.4782V20.7152C11.1403 20.968 12.2275 21.0944 13.5018 21.0944C16.2516 21.0944 17.4832 19.5443 17.4832 18.008C17.4832 16.266 16.1051 15.1342 13.793 14.9793ZM30.2804 20.9913H32.7757V13.989H30.2804V20.9913ZM37.4742 11.864V20.9913H39.9699V11.4176L37.4742 11.864ZM33.8327 11.864L36.326 11.4176V20.9913H33.8327V11.864Z" fill="white"/>
</g>
<defs>
<clipPath id="clip0_5229_410">
<rect width="30" height="10.3084" fill="white" transform="translate(10 10.7861)"/>
</clipPath>
</defs>
</svg>
