<svg width="99" height="24" viewBox="0 0 99 24" fill="none" xmlns="http://www.w3.org/2000/svg">
<g clip-path="url(#clip0_5222_94)">
<path d="M26.1822 8.50635H36.0772V10.3525H32.1865V20.7306H30.047V10.3525H26.1736V8.50635H26.1822ZM35.6545 11.8795H37.4834V13.5876H37.5179C37.5783 13.346 37.6904 13.1131 37.8544 12.8888C38.0183 12.6645 38.2167 12.4488 38.4496 12.2677C38.6825 12.0779 38.9413 11.9312 39.226 11.8104C39.5107 11.6983 39.804 11.6379 40.0973 11.6379C40.3216 11.6379 40.4856 11.6465 40.5718 11.6552C40.6581 11.6638 40.7444 11.681 40.8393 11.6897V13.5703C40.7012 13.5444 40.5632 13.5272 40.4165 13.5099C40.2699 13.4927 40.1319 13.4841 39.9938 13.4841C39.666 13.4841 39.3554 13.5531 39.0621 13.6825C38.7688 13.8119 38.5186 14.0103 38.303 14.2605C38.0873 14.5193 37.9147 14.8299 37.7853 15.2094C37.6559 15.589 37.5955 16.0204 37.5955 16.5121V20.722H35.6459V11.8795H35.6545ZM49.8026 20.7306H47.8874V19.497H47.8529C47.6114 19.9456 47.2577 20.2993 46.7832 20.5667C46.3087 20.8342 45.8256 20.9722 45.3339 20.9722C44.1692 20.9722 43.3238 20.6875 42.8062 20.1095C42.2886 19.5315 42.0298 18.6602 42.0298 17.4956V11.8795H43.9794V17.3058C43.9794 18.0822 44.1261 18.6343 44.428 18.9535C44.7214 19.2727 45.1441 19.4366 45.6789 19.4366C46.093 19.4366 46.4295 19.3762 46.7055 19.2468C46.9816 19.1174 47.2059 18.9535 47.3698 18.7378C47.5423 18.5308 47.6631 18.272 47.7408 17.9787C47.8184 17.6854 47.8529 17.3662 47.8529 17.0211V11.8881H49.8026V20.7306ZM53.1239 17.8924C53.1843 18.4618 53.4 18.8586 53.771 19.0915C54.1505 19.3158 54.5991 19.4366 55.1254 19.4366C55.3065 19.4366 55.5136 19.4194 55.7465 19.3935C55.9794 19.3676 56.2037 19.3072 56.4022 19.2296C56.6092 19.1519 56.7731 19.0311 56.9111 18.8759C57.0406 18.7206 57.1009 18.5222 57.0923 18.272C57.0837 18.0218 56.9888 17.8148 56.8162 17.6595C56.6437 17.4956 56.428 17.3748 56.1606 17.2713C55.8932 17.1764 55.5912 17.0901 55.2462 17.0211C54.9011 16.9521 54.556 16.8744 54.2023 16.7968C53.84 16.7191 53.4863 16.6156 53.1498 16.5035C52.8134 16.3913 52.5114 16.236 52.244 16.0376C51.9766 15.8478 51.7609 15.5976 51.6056 15.2957C51.4417 14.9938 51.3641 14.6228 51.3641 14.1742C51.3641 13.6911 51.4848 13.2943 51.7178 12.9664C51.9507 12.6386 52.2526 12.3798 52.6063 12.1814C52.9687 11.983 53.3655 11.845 53.8055 11.7587C54.2454 11.681 54.6682 11.6379 55.065 11.6379C55.5222 11.6379 55.9622 11.6897 56.3763 11.7846C56.7904 11.8795 57.17 12.0347 57.5064 12.259C57.8428 12.4747 58.1189 12.7594 58.3432 13.1045C58.5675 13.4496 58.7055 13.8723 58.7659 14.364H56.73C56.6351 13.8982 56.428 13.579 56.0916 13.4237C55.7551 13.2598 55.3669 13.1821 54.9356 13.1821C54.7976 13.1821 54.6336 13.1907 54.4439 13.2166C54.2541 13.2425 54.0815 13.2856 53.909 13.346C53.7451 13.4064 53.607 13.5013 53.4863 13.6221C53.3741 13.7429 53.3137 13.8982 53.3137 14.0966C53.3137 14.3381 53.4 14.5279 53.5639 14.6746C53.7278 14.8212 53.9435 14.942 54.2109 15.0455C54.4784 15.1404 54.7803 15.2267 55.1254 15.2957C55.4705 15.3647 55.8242 15.4424 56.1865 15.52C56.5402 15.5976 56.8853 15.7012 57.2303 15.8133C57.5754 15.9255 57.8774 16.0808 58.1448 16.2792C58.4122 16.4776 58.6279 16.7191 58.7918 17.0125C58.9557 17.3058 59.042 17.6767 59.042 18.1081C59.042 18.6343 58.9212 19.0743 58.6797 19.4452C58.4381 19.8076 58.1275 20.1095 57.748 20.3338C57.3684 20.5581 56.937 20.7306 56.4712 20.8342C56.0053 20.9377 55.5395 20.9895 55.0822 20.9895C54.5215 20.9895 54.0039 20.9291 53.5294 20.7997C53.0549 20.6703 52.6408 20.4805 52.2958 20.2303C51.9507 19.9715 51.6746 19.6523 51.4762 19.2727C51.2778 18.8931 51.1743 18.4359 51.157 17.9097H53.1239V17.8924ZM59.5596 11.8795H61.0348V9.22238H62.9845V11.8795H64.7444V13.3374H62.9845V18.0649C62.9845 18.272 62.9931 18.4445 63.0104 18.5998C63.0276 18.7465 63.0707 18.8759 63.1311 18.9794C63.1915 19.0829 63.2864 19.1606 63.4158 19.2123C63.5452 19.2641 63.7091 19.29 63.9334 19.29C64.0715 19.29 64.2095 19.29 64.3475 19.2813C64.4855 19.2727 64.6236 19.2554 64.7616 19.2209V20.7306C64.5459 20.7565 64.3303 20.7738 64.1318 20.7997C63.9248 20.8255 63.7178 20.8342 63.5021 20.8342C62.9845 20.8342 62.5704 20.7824 62.2598 20.6875C61.9492 20.5926 61.6991 20.446 61.5265 20.2562C61.3454 20.0664 61.2332 19.8334 61.1642 19.5488C61.1038 19.2641 61.0607 18.9363 61.0521 18.5739V13.3547H59.5769V11.8795H59.5596ZM66.1247 11.8795H67.9708V13.0786H68.0053C68.2814 12.561 68.661 12.1987 69.1527 11.9744C69.6444 11.7501 70.1707 11.6379 70.7487 11.6379C71.4474 11.6379 72.0513 11.7587 72.569 12.0089C73.0866 12.2504 73.5179 12.5869 73.863 13.0182C74.2081 13.4496 74.4582 13.9499 74.6308 14.5193C74.8033 15.0887 74.8896 15.7012 74.8896 16.3482C74.8896 16.9434 74.8119 17.5214 74.6567 18.0736C74.5014 18.6343 74.2684 19.126 73.9579 19.5574C73.6473 19.9887 73.2505 20.3252 72.7674 20.584C72.2843 20.8428 71.7235 20.9722 71.0679 20.9722C70.7832 20.9722 70.4985 20.9463 70.2138 20.8946C69.9291 20.8428 69.6531 20.7565 69.3942 20.6444C69.1354 20.5322 68.8853 20.3856 68.6696 20.2044C68.4453 20.0232 68.2641 19.8162 68.1088 19.5833H68.0743V24.0002H66.1247V11.8795ZM72.9399 16.3137C72.9399 15.9168 72.8881 15.5286 72.7846 15.1491C72.6811 14.7695 72.5258 14.4416 72.3188 14.1483C72.1117 13.855 71.8529 13.6221 71.551 13.4496C71.2404 13.277 70.8867 13.1821 70.4899 13.1821C69.6703 13.1821 69.0492 13.4668 68.6351 14.0362C68.221 14.6056 68.0139 15.3647 68.0139 16.3137C68.0139 16.7623 68.0657 17.1764 68.1779 17.556C68.29 17.9355 68.4453 18.2634 68.6696 18.5394C68.8853 18.8155 69.1441 19.0311 69.446 19.1864C69.748 19.3503 70.1017 19.428 70.4985 19.428C70.9471 19.428 71.3181 19.3331 71.6286 19.1519C71.9392 18.9708 72.1894 18.7292 72.3878 18.4445C72.5862 18.1512 72.7329 17.8234 72.8191 17.4524C72.8968 17.0815 72.9399 16.7019 72.9399 16.3137ZM76.382 8.50635H78.3317V10.3525H76.382V8.50635ZM76.382 11.8795H78.3317V20.7306H76.382V11.8795ZM80.0743 8.50635H82.024V20.7306H80.0743V8.50635ZM88.0024 20.9722C87.295 20.9722 86.6653 20.8514 86.1132 20.6185C85.561 20.3856 85.0952 20.0577 84.707 19.6523C84.3274 19.2382 84.0341 18.7465 83.8357 18.1771C83.6372 17.6077 83.5337 16.9779 83.5337 16.2964C83.5337 15.6235 83.6372 15.0024 83.8357 14.433C84.0341 13.8636 84.3274 13.3719 84.707 12.9578C85.0866 12.5437 85.561 12.2245 86.1132 11.9916C86.6653 11.7587 87.295 11.6379 88.0024 11.6379C88.7098 11.6379 89.3396 11.7587 89.8917 11.9916C90.4438 12.2245 90.9097 12.5524 91.2979 12.9578C91.6775 13.3719 91.9708 13.8636 92.1692 14.433C92.3676 15.0024 92.4712 15.6235 92.4712 16.2964C92.4712 16.9779 92.3676 17.6077 92.1692 18.1771C91.9708 18.7465 91.6775 19.2382 91.2979 19.6523C90.9183 20.0664 90.4438 20.3856 89.8917 20.6185C89.3396 20.8514 88.7098 20.9722 88.0024 20.9722ZM88.0024 19.428C88.4338 19.428 88.8134 19.3331 89.1326 19.1519C89.4518 18.9708 89.7106 18.7292 89.9176 18.4359C90.1247 18.1426 90.2713 17.8061 90.3748 17.4352C90.4697 17.0642 90.5215 16.6846 90.5215 16.2964C90.5215 15.9168 90.4697 15.5459 90.3748 15.1663C90.2799 14.7867 90.1247 14.4589 89.9176 14.1656C89.7106 13.8723 89.4518 13.6393 89.1326 13.4582C88.8134 13.277 88.4338 13.1821 88.0024 13.1821C87.5711 13.1821 87.1915 13.277 86.8723 13.4582C86.5531 13.6393 86.2943 13.8809 86.0873 14.1656C85.8802 14.4589 85.7336 14.7867 85.63 15.1663C85.5351 15.5459 85.4834 15.9168 85.4834 16.2964C85.4834 16.6846 85.5351 17.0642 85.63 17.4352C85.7249 17.8061 85.8802 18.1426 86.0873 18.4359C86.2943 18.7292 86.5531 18.9708 86.8723 19.1519C87.1915 19.3417 87.5711 19.428 88.0024 19.428ZM93.0405 11.8795H94.5157V9.22238H96.4654V11.8795H98.2253V13.3374H96.4654V18.0649C96.4654 18.272 96.474 18.4445 96.4913 18.5998C96.5086 18.7465 96.5517 18.8759 96.6121 18.9794C96.6725 19.0829 96.7674 19.1606 96.8968 19.2123C97.0262 19.2641 97.1901 19.29 97.4144 19.29C97.5524 19.29 97.6904 19.29 97.8285 19.2813C97.9665 19.2727 98.1045 19.2554 98.2426 19.2209V20.7306C98.0269 20.7565 97.8112 20.7738 97.6128 20.7997C97.4057 20.8255 97.1987 20.8342 96.983 20.8342C96.4654 20.8342 96.0513 20.7824 95.7408 20.6875C95.4302 20.5926 95.18 20.446 95.0075 20.2562C94.8263 20.0664 94.7142 19.8334 94.6451 19.5488C94.5848 19.2641 94.5416 18.9363 94.533 18.5739V13.3547H93.0578V11.8795H93.0405Z" fill="white"/>
<path d="M23.9047 8.50611H14.9673L12.2067 0L9.43745 8.50611L0.5 8.49748L7.73796 13.7599L4.96873 22.2574L12.2067 17.0036L19.436 22.2574L16.6754 13.7599L23.9047 8.50611Z" fill="white"/>
<path d="M17.2964 15.6836L16.6753 13.7598L12.2065 17.0035L17.2964 15.6836Z" fill="#005128"/>
</g>
<defs>
<clipPath id="clip0_5222_94">
<rect width="97.7254" height="24" fill="white" transform="translate(0.5)"/>
</clipPath>
</defs>
</svg>
