<svg width="210" height="38" viewBox="0 0 210 38" fill="none" xmlns="http://www.w3.org/2000/svg">
<rect width="210" height="38" rx="5" fill="#00B67A"/>
<g clip-path="url(#clip0)">
<path d="M143.261 14.3794H150.683V15.764H147.765V23.5476H146.16V15.764H143.255V14.3794H143.261ZM150.366 16.9092H151.737V18.1903H151.763C151.808 18.0092 151.893 17.8345 152.015 17.6662C152.138 17.498 152.287 17.3363 152.462 17.2004C152.637 17.058 152.831 16.948 153.044 16.8575C153.258 16.7734 153.478 16.7281 153.698 16.7281C153.866 16.7281 153.989 16.7345 154.054 16.741C154.118 16.7475 154.183 16.7604 154.254 16.7669V18.1774C154.151 18.158 154.047 18.145 153.937 18.1321C153.827 18.1191 153.724 18.1127 153.62 18.1127C153.374 18.1127 153.141 18.1644 152.921 18.2615C152.701 18.3585 152.514 18.5074 152.352 18.695C152.19 18.8891 152.061 19.122 151.964 19.4067C151.867 19.6914 151.821 20.0149 151.821 20.3837V23.5411H150.359V16.9092H150.366ZM160.977 23.5476H159.54V22.6224H159.514C159.333 22.9588 159.068 23.2241 158.712 23.4247C158.356 23.6253 157.994 23.7288 157.625 23.7288C156.752 23.7288 156.118 23.5153 155.729 23.0818C155.341 22.6483 155.147 21.9948 155.147 21.1213V16.9092H156.609V20.979C156.609 21.5613 156.719 21.9754 156.946 22.2148C157.166 22.4542 157.483 22.5771 157.884 22.5771C158.194 22.5771 158.447 22.5318 158.654 22.4347C158.861 22.3377 159.029 22.2148 159.152 22.053C159.281 21.8977 159.372 21.7036 159.43 21.4836C159.489 21.2636 159.514 21.0243 159.514 20.7654V16.9157H160.977V23.5476ZM163.468 21.4189C163.513 21.846 163.675 22.1436 163.953 22.3183C164.238 22.4865 164.574 22.5771 164.969 22.5771C165.105 22.5771 165.26 22.5642 165.435 22.5447C165.609 22.5253 165.778 22.48 165.926 22.4218C166.082 22.3636 166.205 22.273 166.308 22.1565C166.405 22.0401 166.45 21.8913 166.444 21.7036C166.437 21.516 166.366 21.3607 166.237 21.2442C166.107 21.1213 165.946 21.0307 165.745 20.9531C165.545 20.8819 165.318 20.8172 165.059 20.7654C164.801 20.7137 164.542 20.6555 164.276 20.5972C164.005 20.539 163.739 20.4613 163.487 20.3772C163.235 20.2931 163.008 20.1767 162.808 20.0278C162.607 19.8855 162.445 19.6979 162.329 19.4714C162.206 19.245 162.148 18.9667 162.148 18.6303C162.148 18.268 162.238 17.9703 162.413 17.7245C162.588 17.4786 162.814 17.2845 163.079 17.1357C163.351 16.9869 163.649 16.8833 163.979 16.8186C164.309 16.7604 164.626 16.7281 164.923 16.7281C165.266 16.7281 165.596 16.7669 165.907 16.8381C166.217 16.9092 166.502 17.0257 166.755 17.1939C167.007 17.3557 167.214 17.5692 167.382 17.828C167.55 18.0868 167.654 18.4038 167.699 18.7726H166.172C166.101 18.4232 165.946 18.1839 165.693 18.0674C165.441 17.9445 165.15 17.8862 164.826 17.8862C164.723 17.8862 164.6 17.8927 164.458 17.9121C164.315 17.9315 164.186 17.9639 164.056 18.0092C163.934 18.0544 163.83 18.1256 163.739 18.2162C163.655 18.3068 163.61 18.4232 163.61 18.5721C163.61 18.7532 163.675 18.8956 163.798 19.0056C163.921 19.1156 164.082 19.2061 164.283 19.2838C164.483 19.3549 164.71 19.4197 164.969 19.4714C165.228 19.5232 165.493 19.5814 165.765 19.6396C166.03 19.6979 166.289 19.7755 166.547 19.8596C166.806 19.9437 167.033 20.0602 167.233 20.209C167.434 20.3578 167.596 20.539 167.719 20.759C167.842 20.979 167.906 21.2572 167.906 21.5807C167.906 21.9754 167.816 22.3053 167.634 22.5836C167.453 22.8553 167.22 23.0818 166.936 23.25C166.651 23.4182 166.327 23.5476 165.978 23.6253C165.629 23.7029 165.279 23.7417 164.936 23.7417C164.516 23.7417 164.128 23.6964 163.772 23.5994C163.416 23.5023 163.105 23.36 162.847 23.1723C162.588 22.9782 162.381 22.7388 162.232 22.4542C162.083 22.1695 162.005 21.8266 161.992 21.4319H163.468V21.4189ZM168.294 16.9092H169.401V14.9164H170.863V16.9092H172.183V18.0027H170.863V21.5483C170.863 21.7036 170.87 21.833 170.882 21.9495C170.895 22.0595 170.928 22.1565 170.973 22.2342C171.018 22.3118 171.09 22.37 171.187 22.4089C171.284 22.4477 171.407 22.4671 171.575 22.4671C171.678 22.4671 171.782 22.4671 171.885 22.4606C171.989 22.4542 172.092 22.4412 172.196 22.4153V23.5476C172.034 23.567 171.872 23.58 171.724 23.5994C171.568 23.6188 171.413 23.6253 171.251 23.6253C170.863 23.6253 170.553 23.5864 170.32 23.5153C170.087 23.4441 169.899 23.3341 169.77 23.1918C169.634 23.0494 169.55 22.8747 169.498 22.6612C169.453 22.4477 169.42 22.2018 169.414 21.9301V18.0156H168.307V16.9092H168.294ZM173.218 16.9092H174.603V17.8086H174.629C174.836 17.4204 175.12 17.1486 175.489 16.9804C175.858 16.8122 176.253 16.7281 176.686 16.7281C177.21 16.7281 177.663 16.8186 178.051 17.0063C178.44 17.1874 178.763 17.4398 179.022 17.7633C179.281 18.0868 179.468 18.4621 179.598 18.8891C179.727 19.3161 179.792 19.7755 179.792 20.2608C179.792 20.7072 179.734 21.1407 179.617 21.5548C179.501 21.9754 179.326 22.3442 179.093 22.6677C178.86 22.9912 178.563 23.2435 178.2 23.4376C177.838 23.6317 177.417 23.7288 176.926 23.7288C176.712 23.7288 176.499 23.7094 176.285 23.6705C176.072 23.6317 175.865 23.567 175.67 23.4829C175.476 23.3988 175.289 23.2888 175.127 23.1529C174.959 23.0171 174.823 22.8618 174.706 22.6871H174.68V25.9998H173.218V16.9092ZM178.33 20.2349C178.33 19.9373 178.291 19.6461 178.213 19.3614C178.136 19.0767 178.019 18.8309 177.864 18.6109C177.709 18.3909 177.514 18.2162 177.288 18.0868C177.055 17.9574 176.79 17.8862 176.492 17.8862C175.877 17.8862 175.412 18.0997 175.101 18.5268C174.79 18.9538 174.635 19.5232 174.635 20.2349C174.635 20.5713 174.674 20.8819 174.758 21.1666C174.842 21.4513 174.959 21.6971 175.127 21.9042C175.289 22.1112 175.483 22.273 175.709 22.3895C175.936 22.5124 176.201 22.5706 176.499 22.5706C176.835 22.5706 177.113 22.4994 177.346 22.3636C177.579 22.2277 177.767 22.0465 177.916 21.833C178.064 21.613 178.174 21.3672 178.239 21.089C178.297 20.8107 178.33 20.5261 178.33 20.2349ZM180.911 14.3794H182.373V15.764H180.911V14.3794ZM180.911 16.9092H182.373V23.5476H180.911V16.9092ZM183.68 14.3794H185.143V23.5476H183.68V14.3794ZM189.627 23.7288C189.096 23.7288 188.624 23.6382 188.21 23.4635C187.795 23.2888 187.446 23.0429 187.155 22.7388C186.87 22.4283 186.65 22.0595 186.501 21.6324C186.353 21.2054 186.275 20.7331 186.275 20.222C186.275 19.7173 186.353 19.2514 186.501 18.8244C186.65 18.3974 186.87 18.0286 187.155 17.718C187.44 17.4074 187.795 17.168 188.21 16.9933C188.624 16.8186 189.096 16.7281 189.627 16.7281C190.157 16.7281 190.629 16.8186 191.044 16.9933C191.458 17.168 191.807 17.4139 192.098 17.718C192.383 18.0286 192.603 18.3974 192.752 18.8244C192.9 19.2514 192.978 19.7173 192.978 20.222C192.978 20.7331 192.9 21.2054 192.752 21.6324C192.603 22.0595 192.383 22.4283 192.098 22.7388C191.813 23.0494 191.458 23.2888 191.044 23.4635C190.629 23.6382 190.157 23.7288 189.627 23.7288ZM189.627 22.5706C189.95 22.5706 190.235 22.4994 190.474 22.3636C190.714 22.2277 190.908 22.0465 191.063 21.8266C191.218 21.6066 191.328 21.3542 191.406 21.076C191.477 20.7978 191.516 20.5131 191.516 20.222C191.516 19.9373 191.477 19.659 191.406 19.3744C191.335 19.0897 191.218 18.8438 191.063 18.6238C190.908 18.4038 190.714 18.2291 190.474 18.0933C190.235 17.9574 189.95 17.8862 189.627 17.8862C189.303 17.8862 189.018 17.9574 188.779 18.0933C188.54 18.2291 188.345 18.4103 188.19 18.6238C188.035 18.8438 187.925 19.0897 187.847 19.3744C187.776 19.659 187.737 19.9373 187.737 20.222C187.737 20.5131 187.776 20.7978 187.847 21.076C187.918 21.3542 188.035 21.6066 188.19 21.8266C188.345 22.0465 188.54 22.2277 188.779 22.3636C189.018 22.5059 189.303 22.5706 189.627 22.5706ZM193.405 16.9092H194.512V14.9164H195.974V16.9092H197.294V18.0027H195.974V21.5483C195.974 21.7036 195.98 21.833 195.993 21.9495C196.006 22.0595 196.038 22.1565 196.084 22.2342C196.129 22.3118 196.2 22.37 196.297 22.4089C196.394 22.4477 196.517 22.4671 196.685 22.4671C196.789 22.4671 196.893 22.4671 196.996 22.4606C197.1 22.4542 197.203 22.4412 197.307 22.4153V23.5476C197.145 23.567 196.983 23.58 196.834 23.5994C196.679 23.6188 196.524 23.6253 196.362 23.6253C195.974 23.6253 195.663 23.5864 195.43 23.5153C195.197 23.4441 195.01 23.3341 194.88 23.1918C194.744 23.0494 194.66 22.8747 194.609 22.6612C194.563 22.4477 194.531 22.2018 194.524 21.9301V18.0156H193.418V16.9092H193.405Z" fill="white"/>
<path d="M141.554 14.3796H134.85L132.78 8L130.703 14.3796L124 14.3731L129.428 18.3199L127.352 24.693L132.78 20.7527L138.202 24.693L136.132 18.3199L141.554 14.3796Z" fill="white"/>
<path d="M136.598 19.7627L136.132 18.3198L132.78 20.7526L136.598 19.7627Z" fill="#005128"/>
</g>
<path d="M18.016 23.096C19.324 23.096 20.452 22.64 21.22 21.776L20.44 21.02C19.792 21.704 19 22.028 18.076 22.028C16.18 22.028 14.776 20.66 14.776 18.8C14.776 16.94 16.18 15.572 18.076 15.572C19 15.572 19.792 15.884 20.44 16.568L21.22 15.812C20.452 14.948 19.324 14.504 18.028 14.504C15.472 14.504 13.576 16.316 13.576 18.8C13.576 21.284 15.472 23.096 18.016 23.096ZM26.1599 16.58C25.1879 16.58 24.3959 16.928 23.9159 17.54V14.096H22.7639V23H23.9159V19.724C23.9159 18.344 24.7079 17.612 25.9319 17.612C27.0239 17.612 27.6479 18.224 27.6479 19.472V23H28.7999V19.34C28.7999 17.468 27.7079 16.58 26.1599 16.58ZM36.715 19.856C36.715 17.9 35.407 16.58 33.571 16.58C31.735 16.58 30.379 17.936 30.379 19.82C30.379 21.716 31.747 23.072 33.799 23.072C34.855 23.072 35.731 22.712 36.307 22.04L35.671 21.296C35.203 21.812 34.579 22.064 33.835 22.064C32.575 22.064 31.675 21.32 31.531 20.204H36.691C36.703 20.096 36.715 19.952 36.715 19.856ZM33.571 17.552C34.687 17.552 35.491 18.308 35.611 19.376H31.531C31.651 18.296 32.467 17.552 33.571 17.552ZM41.0867 23.072C42.2267 23.072 43.1747 22.592 43.6787 21.704L42.8027 21.152C42.3947 21.776 41.7707 22.064 41.0747 22.064C39.8267 22.064 38.8907 21.2 38.8907 19.82C38.8907 18.464 39.8267 17.588 41.0747 17.588C41.7707 17.588 42.3947 17.876 42.8027 18.5L43.6787 17.936C43.1747 17.048 42.2267 16.58 41.0867 16.58C39.1307 16.58 37.7267 17.924 37.7267 19.82C37.7267 21.716 39.1307 23.072 41.0867 23.072ZM49.9481 23H51.3641L48.4241 19.268L51.1001 16.64H49.7081L46.2401 19.808V14.096H45.0881V23H46.2401V21.26L47.5601 20.036L49.9481 23ZM56.8093 17.708V16.64H55.7053V23H56.8573V19.832C56.8573 18.44 57.6253 17.684 58.8613 17.684C58.9453 17.684 59.0293 17.684 59.1253 17.696V16.58C58.0093 16.58 57.2173 16.964 56.8093 17.708ZM66.2345 19.856C66.2345 17.9 64.9265 16.58 63.0905 16.58C61.2545 16.58 59.8985 17.936 59.8985 19.82C59.8985 21.716 61.2665 23.072 63.3185 23.072C64.3745 23.072 65.2505 22.712 65.8265 22.04L65.1905 21.296C64.7225 21.812 64.0985 22.064 63.3545 22.064C62.0945 22.064 61.1945 21.32 61.0505 20.204H66.2105C66.2225 20.096 66.2345 19.952 66.2345 19.856ZM63.0905 17.552C64.2065 17.552 65.0105 18.308 65.1305 19.376H61.0505C61.1705 18.296 61.9865 17.552 63.0905 17.552ZM72.217 16.64L69.985 21.74L67.801 16.64H66.601L69.385 23H70.561L73.345 16.64H72.217ZM74.9961 15.416C75.4521 15.416 75.7761 15.08 75.7761 14.648C75.7761 14.24 75.4401 13.916 74.9961 13.916C74.5521 13.916 74.2161 14.252 74.2161 14.672C74.2161 15.092 74.5521 15.416 74.9961 15.416ZM74.4201 23H75.5721V16.64H74.4201V23ZM83.5197 19.856C83.5197 17.9 82.2117 16.58 80.3757 16.58C78.5397 16.58 77.1837 17.936 77.1837 19.82C77.1837 21.716 78.5517 23.072 80.6037 23.072C81.6597 23.072 82.5357 22.712 83.1117 22.04L82.4757 21.296C82.0077 21.812 81.3837 22.064 80.6397 22.064C79.3797 22.064 78.4797 21.32 78.3357 20.204H83.4957C83.5077 20.096 83.5197 19.952 83.5197 19.856ZM80.3757 17.552C81.4917 17.552 82.2957 18.308 82.4157 19.376H78.3357C78.4557 18.296 79.2717 17.552 80.3757 17.552ZM93.5942 16.64L91.6982 21.728L89.8142 16.64H88.8422L86.9222 21.704L85.0742 16.64H83.9822L86.3462 23H87.4502L89.3102 18.176L91.1462 23H92.2502L94.6262 16.64H93.5942ZM97.5371 23.072C99.2291 23.072 100.285 22.34 100.285 21.188C100.285 18.716 96.2531 19.94 96.2531 18.44C96.2531 17.936 96.7451 17.564 97.7531 17.564C98.3771 17.564 99.0131 17.696 99.5891 18.068L100.081 17.156C99.5291 16.796 98.5931 16.58 97.7651 16.58C96.1331 16.58 95.1131 17.348 95.1131 18.488C95.1131 21.02 99.1331 19.784 99.1331 21.212C99.1331 21.752 98.6891 22.076 97.6211 22.076C96.7931 22.076 95.9291 21.8 95.3891 21.416L94.9091 22.328C95.4371 22.748 96.4811 23.072 97.5371 23.072ZM107.671 23.072C109.579 23.072 110.971 21.716 110.971 19.82C110.971 17.924 109.579 16.58 107.671 16.58C105.763 16.58 104.359 17.924 104.359 19.82C104.359 21.716 105.763 23.072 107.671 23.072ZM107.671 22.064C106.447 22.064 105.523 21.176 105.523 19.82C105.523 18.464 106.447 17.588 107.671 17.588C108.895 17.588 109.807 18.464 109.807 19.82C109.807 21.176 108.895 22.064 107.671 22.064ZM115.961 16.58C114.953 16.58 114.137 16.952 113.669 17.6V16.64H112.565V23H113.717V19.724C113.717 18.344 114.509 17.612 115.733 17.612C116.825 17.612 117.449 18.224 117.449 19.472V23H118.601V19.34C118.601 17.468 117.509 16.58 115.961 16.58Z" fill="white"/>
<defs>
<clipPath id="clip0">
<rect width="73.294" height="18" fill="white" transform="translate(124 8)"/>
</clipPath>
</defs>
</svg>
