<svg width="50" height="31" viewBox="0 0 50 31" fill="none" xmlns="http://www.w3.org/2000/svg">
<path fill-rule="evenodd" clip-rule="evenodd" d="M50 29.1898C50 30.0736 49.2579 30.7861 48.3373 30.7861H1.66305C0.742131 30.7861 0 30.0736 0 29.1898V2.38251C0 1.49865 0.742131 0.786133 1.66305 0.786133H48.3373C49.2579 0.786133 50 1.49865 50 2.38251V29.1898Z" fill="#3A58A8"/>
<path fill-rule="evenodd" clip-rule="evenodd" d="M23.5933 20.3855H21.3037L22.7391 11.5884H25.0286L23.5933 20.3855Z" fill="white"/>
<path fill-rule="evenodd" clip-rule="evenodd" d="M19.376 11.5884L17.2008 17.6387L16.9366 16.3353L16.1703 12.3814C16.1703 12.3814 16.0737 11.5884 15.0784 11.5884H11.4768L11.4326 11.7381C11.4326 11.7381 12.5334 11.9674 13.828 12.7425L15.8183 20.3855H18.2047L21.8415 11.5884H19.376Z" fill="white"/>
<path fill-rule="evenodd" clip-rule="evenodd" d="M37.3841 20.3855H39.4885L37.6568 11.5884H35.8166C34.9623 11.5884 34.7602 12.2491 34.7602 12.2491L31.3428 20.3855H33.7293L34.2054 19.0737H37.12L37.3841 20.3855ZM34.8652 17.2776L36.0718 13.9838L36.7498 17.2776H34.8652Z" fill="white"/>
<path fill-rule="evenodd" clip-rule="evenodd" d="M31.5275 13.7023L31.8531 11.8178C31.8531 11.8178 30.8403 11.4302 29.7928 11.4302C28.6567 11.4302 25.9535 11.932 25.9535 14.345C25.9535 16.6172 29.1231 16.6436 29.1231 17.841C29.1231 19.0301 26.2793 18.8182 25.3456 18.0613L25.002 20.0428C25.002 20.0428 26.0238 20.5361 27.5913 20.5361C29.1494 20.5361 31.5096 19.7257 31.5096 17.5239C31.5096 15.2434 28.3131 15.0232 28.3131 14.0278C28.3131 13.0417 30.5414 13.1649 31.5275 13.7023Z" fill="white"/>
<path fill-rule="evenodd" clip-rule="evenodd" d="M16.9366 16.3353L16.1703 12.3814C16.1703 12.3814 16.0737 11.5884 15.0784 11.5884H11.4768L11.4326 11.7381C11.4326 11.7381 13.1677 12.0991 14.8317 13.4464C16.4171 14.7323 16.9366 16.3353 16.9366 16.3353Z" fill="#FAA634"/>
</svg>
