<svg id="Layer_1" data-name="Layer 1" xmlns="http://www.w3.org/2000/svg" viewBox="0 0 512 512"><defs><style>.cls-1,.cls-2,.cls-3{fill:none;stroke:#231f20;stroke-width:3px;}.cls-1{stroke-miterlimit:10;fill-rule:evenodd;}.cls-3{stroke-linejoin:round;}</style></defs><path class="cls-1" d="M467.66,296.2H44.34A39.92,39.92,0,0,1,4.55,256.39v-.81A39.9,39.9,0,0,1,44.34,215.8H467.66a39.9,39.9,0,0,1,39.79,39.78v.81a39.91,39.91,0,0,1-39.79,39.79"/><path class="cls-2" d="M467.66,296.2H44.34A39.92,39.92,0,0,1,4.55,256.39v-.81A39.9,39.9,0,0,1,44.34,215.8H467.66a39.9,39.9,0,0,1,39.79,39.78v.81a39.91,39.91,0,0,1-39.79,39.79Z"/><path class="cls-1" d="M12.74,256a32.32,32.32,0,1,1,32.31,32.32A32.31,32.31,0,0,1,12.74,256"/><path class="cls-2" d="M12.74,256a32.32,32.32,0,1,1,32.31,32.32A32.31,32.31,0,0,1,12.74,256Z"/><path class="cls-1" d="M153,256a32.31,32.31,0,1,1,32.31,32.32A32.3,32.3,0,0,1,153,256"/><path class="cls-2" d="M153,256a32.31,32.31,0,1,1,32.31,32.32A32.3,32.3,0,0,1,153,256Z"/><path class="cls-1" d="M82.88,256a32.32,32.32,0,1,1,32.31,32.32A32.31,32.31,0,0,1,82.88,256Z"/><path class="cls-2" d="M82.88,256a32.32,32.32,0,1,1,32.31,32.32A32.31,32.31,0,0,1,82.88,256Z"/><path class="cls-1" d="M223.16,256a32.32,32.32,0,1,1,32.31,32.32A32.32,32.32,0,0,1,223.16,256Z"/><path class="cls-2" d="M223.16,256a32.32,32.32,0,1,1,32.31,32.32A32.32,32.32,0,0,1,223.16,256Z"/><path class="cls-1" d="M293.3,256a32.32,32.32,0,1,1,32.32,32.32A32.31,32.31,0,0,1,293.3,256"/><path class="cls-2" d="M293.3,256a32.32,32.32,0,1,1,32.32,32.32A32.31,32.31,0,0,1,293.3,256Z"/><path class="cls-1" d="M363.44,256a32.32,32.32,0,1,1,32.31,32.32A32.31,32.31,0,0,1,363.44,256Z"/><path class="cls-2" d="M363.44,256a32.32,32.32,0,1,1,32.31,32.32A32.31,32.31,0,0,1,363.44,256Z"/><path class="cls-1" d="M433.58,256a32.32,32.32,0,1,1,32.32,32.32A32.31,32.31,0,0,1,433.58,256Z"/><path class="cls-2" d="M433.58,256a32.32,32.32,0,1,1,32.32,32.32A32.31,32.31,0,0,1,433.58,256Z"/><path class="cls-1" d="M77.62,223.64c4,4,3.4,11.12-1.36,15.87s-11.85,5.37-15.86,1.36S57,229.77,61.76,225,73.62,219.64,77.62,223.64Z"/><path class="cls-3" d="M77.62,223.64c4,4,3.4,11.12-1.36,15.87s-11.85,5.37-15.86,1.36S57,229.77,61.76,225,73.62,219.64,77.62,223.64Z"/><path class="cls-1" d="M15.12,223.64c-4,4-3.4,11.12,1.36,15.87s11.86,5.37,15.86,1.36S35.74,229.77,31,225,19.12,219.64,15.12,223.64Z"/><path class="cls-3" d="M15.12,223.64c-4,4-3.4,11.12,1.36,15.87s11.86,5.37,15.86,1.36S35.74,229.77,31,225,19.12,219.64,15.12,223.64Z"/><path class="cls-1" d="M77.62,288.16c4-4,3.4-11.11-1.36-15.86s-11.85-5.37-15.86-1.36S57,282,61.76,286.8,73.62,292.17,77.62,288.16Z"/><path class="cls-3" d="M77.62,288.16c4-4,3.4-11.11-1.36-15.86s-11.85-5.37-15.86-1.36S57,282,61.76,286.8,73.62,292.17,77.62,288.16Z"/><path class="cls-1" d="M15.12,288.16c-4-4-3.4-11.11,1.36-15.86s11.86-5.37,15.86-1.36S35.74,282,31,286.8,19.12,292.17,15.12,288.16Z"/><path class="cls-3" d="M15.12,288.16c-4-4-3.4-11.11,1.36-15.86s11.86-5.37,15.86-1.36S35.74,282,31,286.8,19.12,292.17,15.12,288.16Z"/><path class="cls-1" d="M146.46,223.64c4,4,3.4,11.12-1.37,15.87s-11.85,5.37-15.86,1.36-3.4-11.1,1.37-15.86S142.44,219.64,146.46,223.64Z"/><path class="cls-3" d="M146.46,223.64c4,4,3.4,11.12-1.37,15.87s-11.85,5.37-15.86,1.36-3.4-11.1,1.37-15.86S142.44,219.64,146.46,223.64Z"/><path class="cls-1" d="M84,223.64c-4,4-3.41,11.12,1.36,15.87s11.85,5.37,15.86,1.36,3.41-11.1-1.36-15.86S88,219.64,84,223.64Z"/><path class="cls-3" d="M84,223.64c-4,4-3.41,11.12,1.36,15.87s11.85,5.37,15.86,1.36,3.41-11.1-1.36-15.86S88,219.64,84,223.64Z"/><path class="cls-1" d="M146.46,288.16c4-4,3.4-11.11-1.37-15.86s-11.85-5.37-15.86-1.36-3.4,11.1,1.37,15.86S142.44,292.17,146.46,288.16Z"/><path class="cls-3" d="M146.46,288.16c4-4,3.4-11.11-1.37-15.86s-11.85-5.37-15.86-1.36-3.4,11.1,1.37,15.86S142.44,292.17,146.46,288.16Z"/><path class="cls-1" d="M84,288.16c-4-4-3.41-11.11,1.36-15.86s11.85-5.37,15.86-1.36,3.41,11.1-1.36,15.86S88,292.17,84,288.16Z"/><path class="cls-3" d="M84,288.16c-4-4-3.41-11.11,1.36-15.86s11.85-5.37,15.86-1.36,3.41,11.1-1.36,15.86S88,292.17,84,288.16Z"/><path class="cls-1" d="M216.58,223.64c4,4,3.41,11.12-1.35,15.87s-11.86,5.37-15.86,1.36-3.4-11.1,1.36-15.86,11.85-5.37,15.86-1.37"/><path class="cls-3" d="M216.58,223.64c4,4,3.41,11.12-1.35,15.87s-11.86,5.37-15.86,1.36-3.4-11.1,1.36-15.86,11.85-5.37,15.86-1.37Z"/><path class="cls-1" d="M154.09,223.64c-4,4-3.4,11.12,1.36,15.87s11.85,5.37,15.86,1.36,3.4-11.1-1.36-15.86S158.09,219.64,154.09,223.64Z"/><path class="cls-3" d="M154.09,223.64c-4,4-3.4,11.12,1.36,15.87s11.85,5.37,15.86,1.36,3.4-11.1-1.36-15.86S158.09,219.64,154.09,223.64Z"/><path class="cls-1" d="M216.58,288.16c4-4,3.41-11.11-1.35-15.86s-11.86-5.37-15.86-1.36S196,282,200.73,286.8s11.85,5.37,15.86,1.36"/><path class="cls-3" d="M216.58,288.16c4-4,3.41-11.11-1.35-15.86s-11.86-5.37-15.86-1.36S196,282,200.73,286.8s11.85,5.37,15.86,1.36Z"/><path class="cls-1" d="M154.09,288.16c-4-4-3.4-11.11,1.36-15.86s11.85-5.37,15.86-1.36,3.4,11.1-1.36,15.86S158.09,292.17,154.09,288.16Z"/><path class="cls-3" d="M154.09,288.16c-4-4-3.4-11.11,1.36-15.86s11.85-5.37,15.86-1.36,3.4,11.1-1.36,15.86S158.09,292.17,154.09,288.16Z"/><path class="cls-1" d="M286.73,223.64c4,4,3.4,11.12-1.35,15.87s-11.87,5.37-15.88,1.36-3.4-11.1,1.37-15.86,11.85-5.37,15.86-1.37"/><path class="cls-3" d="M286.73,223.64c4,4,3.4,11.12-1.35,15.87s-11.87,5.37-15.88,1.36-3.4-11.1,1.37-15.86,11.85-5.37,15.86-1.37Z"/><path class="cls-1" d="M224.22,223.64c-4,4-3.4,11.12,1.37,15.87s11.84,5.37,15.86,1.36,3.4-11.1-1.36-15.86S228.23,219.64,224.22,223.64Z"/><path class="cls-3" d="M224.22,223.64c-4,4-3.4,11.12,1.37,15.87s11.84,5.37,15.86,1.36,3.4-11.1-1.36-15.86S228.23,219.64,224.22,223.64Z"/><path class="cls-1" d="M286.73,288.16c4-4,3.4-11.11-1.35-15.86s-11.87-5.37-15.88-1.36-3.4,11.1,1.37,15.86,11.85,5.37,15.86,1.36"/><path class="cls-3" d="M286.73,288.16c4-4,3.4-11.11-1.35-15.86s-11.87-5.37-15.88-1.36-3.4,11.1,1.37,15.86,11.85,5.37,15.86,1.36Z"/><path class="cls-1" d="M224.22,288.16c-4-4-3.4-11.11,1.37-15.86s11.84-5.37,15.86-1.36,3.4,11.1-1.36,15.86S228.23,292.17,224.22,288.16Z"/><path class="cls-3" d="M224.22,288.16c-4-4-3.4-11.11,1.37-15.86s11.84-5.37,15.86-1.36,3.4,11.1-1.36,15.86S228.23,292.17,224.22,288.16Z"/><path class="cls-1" d="M357.66,223.64c4,4,3.4,11.12-1.36,15.87s-11.85,5.37-15.86,1.36S337,229.77,341.8,225,353.66,219.64,357.66,223.64Z"/><path class="cls-3" d="M357.66,223.64c4,4,3.4,11.12-1.36,15.87s-11.85,5.37-15.86,1.36S337,229.77,341.8,225,353.66,219.64,357.66,223.64Z"/><path class="cls-1" d="M295.17,223.64c-4,4-3.41,11.12,1.34,15.87s11.87,5.37,15.87,1.36,3.4-11.1-1.36-15.86-11.85-5.37-15.86-1.37"/><path class="cls-3" d="M295.17,223.64c-4,4-3.41,11.12,1.34,15.87s11.87,5.37,15.87,1.36,3.4-11.1-1.36-15.86-11.85-5.37-15.86-1.37Z"/><path class="cls-1" d="M357.66,288.16c4-4,3.4-11.11-1.36-15.86s-11.85-5.37-15.86-1.36S337,282,341.8,286.8,353.66,292.17,357.66,288.16Z"/><path class="cls-3" d="M357.66,288.16c4-4,3.4-11.11-1.36-15.86s-11.85-5.37-15.86-1.36S337,282,341.8,286.8,353.66,292.17,357.66,288.16Z"/><path class="cls-1" d="M295.17,288.16c-4-4-3.41-11.11,1.34-15.86s11.87-5.37,15.87-1.36,3.4,11.1-1.36,15.86-11.85,5.37-15.86,1.36"/><path class="cls-3" d="M295.17,288.16c-4-4-3.41-11.11,1.34-15.86s11.87-5.37,15.87-1.36,3.4,11.1-1.36,15.86-11.85,5.37-15.86,1.36Z"/><path class="cls-1" d="M428.2,223.64c4,4,3.39,11.12-1.36,15.87S415,244.88,411,240.87s-3.39-11.1,1.36-15.86S424.19,219.64,428.2,223.64Z"/><path class="cls-3" d="M428.2,223.64c4,4,3.39,11.12-1.36,15.87S415,244.88,411,240.87s-3.39-11.1,1.36-15.86S424.19,219.64,428.2,223.64Z"/><path class="cls-1" d="M365.69,223.64c-4,4-3.4,11.12,1.36,15.87s11.86,5.37,15.86,1.36,3.4-11.1-1.36-15.86S369.7,219.64,365.69,223.64Z"/><path class="cls-3" d="M365.69,223.64c-4,4-3.4,11.12,1.36,15.87s11.86,5.37,15.86,1.36,3.4-11.1-1.36-15.86S369.7,219.64,365.69,223.64Z"/><path class="cls-1" d="M428.2,288.16c4-4,3.39-11.11-1.36-15.86S415,266.93,411,270.94s-3.39,11.1,1.36,15.86S424.19,292.17,428.2,288.16Z"/><path class="cls-3" d="M428.2,288.16c4-4,3.39-11.11-1.36-15.86S415,266.93,411,270.94s-3.39,11.1,1.36,15.86S424.19,292.17,428.2,288.16Z"/><path class="cls-1" d="M365.69,288.16c-4-4-3.4-11.11,1.36-15.86s11.86-5.37,15.86-1.36,3.4,11.1-1.36,15.86S369.7,292.17,365.69,288.16Z"/><path class="cls-3" d="M365.69,288.16c-4-4-3.4-11.11,1.36-15.86s11.86-5.37,15.86-1.36,3.4,11.1-1.36,15.86S369.7,292.17,365.69,288.16Z"/><path class="cls-1" d="M497.15,223.64c4,4,3.4,11.12-1.36,15.87s-11.86,5.37-15.86,1.36-3.4-11.1,1.36-15.86S493.14,219.64,497.15,223.64Z"/><path class="cls-3" d="M497.15,223.64c4,4,3.4,11.12-1.36,15.87s-11.86,5.37-15.86,1.36-3.4-11.1,1.36-15.86S493.14,219.64,497.15,223.64Z"/><path class="cls-1" d="M434.64,223.64c-4,4-3.39,11.12,1.37,15.87s11.85,5.37,15.86,1.36,3.4-11.1-1.36-15.86-11.87-5.37-15.87-1.37"/><path class="cls-3" d="M434.64,223.64c-4,4-3.39,11.12,1.37,15.87s11.85,5.37,15.86,1.36,3.4-11.1-1.36-15.86-11.87-5.37-15.87-1.37Z"/><path class="cls-1" d="M497.15,288.16c4-4,3.4-11.11-1.36-15.86s-11.86-5.37-15.86-1.36-3.4,11.1,1.36,15.86S493.14,292.17,497.15,288.16Z"/><path class="cls-3" d="M497.15,288.16c4-4,3.4-11.11-1.36-15.86s-11.86-5.37-15.86-1.36-3.4,11.1,1.36,15.86S493.14,292.17,497.15,288.16Z"/><path class="cls-1" d="M434.64,288.16c-4-4-3.39-11.11,1.37-15.86s11.85-5.37,15.86-1.36,3.4,11.1-1.36,15.86-11.87,5.37-15.87,1.36"/><path class="cls-3" d="M434.64,288.16c-4-4-3.39-11.11,1.37-15.86s11.85-5.37,15.86-1.36,3.4,11.1-1.36,15.86-11.87,5.37-15.87,1.36Z"/></svg>