<svg id="Layer_1" data-name="Layer 1" xmlns="http://www.w3.org/2000/svg" xmlns:xlink="http://www.w3.org/1999/xlink" viewBox="0 0 250 250"><defs><style>.cls-1{fill:#fff;}.cls-2{mask:url(#mask);}.cls-3{fill:#231f20;}</style><mask id="mask" x="0" y="0" width="250" height="250" maskUnits="userSpaceOnUse"><g id="mask0"><path class="cls-1" d="M0,0H250V250H0Z"/></g></mask></defs><g class="cls-2"><path class="cls-3" d="M17,63.48V186.54L3.13,194.69V55.33ZM233,186.55V63.48l13.87-8.15V194.69Zm-43.6,45.13,42.29-42.27,14.2,8.34L197.73,245.9l-8.34-14.22ZM63.46,233H186.52l8.16,13.88H55.33L63.48,233ZM4.11,197.74l14.22-8.33,42.28,42.27-8.35,14.21L4.11,197.74ZM52.27,4.13l8.34,14.21L18.32,60.61,4.11,52.27,40.39,16,52.26,4.12ZM186.52,17h-123L55.32,3.14H194.68Zm59.36,35.25-14.21,8.34L189.39,18.34l8.34-14.22,13.76,13.75,34.39,34.4ZM34,73.46V176.58l-13.86,8.14V65.3L34,73.43ZM216,176.58V73.46l13.88-8.14v119.4Zm-36.55,38.11,35.24-35.25,14.21,8.35L187.75,228.9l-8.32-14.21ZM73.43,216H176.57l8.13,13.86H65.3L73.44,216Zm-2.86-1.32L62.24,228.9,21.12,187.77l14.21-8.33,35.24,35.25Zm0-179.35L35.32,70.59,21.11,62.26,62.24,21.13l8.33,14.21Zm106-1.3H73.44L65.29,20.17H184.7Zm2.86,1.3,8.32-14.21,41.13,41.13L214.67,70.6,179.43,35.35ZM51,83.43V166.6l-13.87,8.15V75.27L51,83.42ZM199,166.6V83.43l13.87-8.14v99.45L199,166.6Zm-29.52,31.09,28.21-28.22,14.22,8.34-34.1,34.09-8.33-14.22Zm-86,1.3h83.17l8.14,13.87H75.28L83.42,199Zm-2.87-1.3L72.22,211.9,38.11,177.81l14.22-8.34,28.22,28.21Zm0-145.34-6.89,6.9L52.33,80.58,38.12,72.24l34.1-34.12,8.33,14.22Zm86-1.31H83.42L75.27,37.17h99.46L166.59,51ZM186,68.89,169.46,52.34l8.33-14.22,34.1,34.11-14.22,8.33Zm9.85,14.28v83.67l-29,29H83.17l-29-29V83.17L62,75.35,83.17,54.17h83.66l22.6,22.59,6.41,6.41ZM250,52.59v-.14l0-.54L198.55.49v0h0L197.94,0H52.58l-.74.1L.46,51.48l0,0L0,52.09v146L51.5,249.55l.58.45H197.41l.49,0,0,0,.22,0,51.37-51.38.25-.33.22-.26V52.58Z"/></g></svg>