<svg id="Layer_1" data-name="Layer 1" xmlns="http://www.w3.org/2000/svg" viewBox="0 0 250 250"><defs><style>.cls-1{fill:#231f20;}</style></defs><g id="mask0"><path class="cls-1" d="M125,1.65a241.28,241.28,0,0,0-25,1.56c-8.84,1-16.81,2.18-24.36,3.66h0l-.37,0-.07,0a130.42,130.42,0,0,0-25.31,7.46A74.52,74.52,0,0,0,28.46,28h0l-.29.27-.05,0,0,0h0l0,0A76.68,76.68,0,0,0,12.37,49.28a90.42,90.42,0,0,0-8.25,24h0c-3.44,17.16-4,34.86-4,51.4l-.08.2.08.23c.06,16.47.58,34,4,51.11l0,.07.13.46.06.08a100.38,100.38,0,0,0,3.39,12.71,88.47,88.47,0,0,0,6.68,14.56A71.67,71.67,0,0,0,28,221.62h0l0,0v0a74.6,74.6,0,0,0,21.85,14A129.5,129.5,0,0,0,74.84,243l0,0,.38.07.05,0,.19,0c7.67,1.52,15.71,2.73,24.56,3.68a235,235,0,0,0,24.4,1.54h.19v0h.41a237.41,237.41,0,0,0,25-1.56c8.91-1,17-2.18,24.66-3.71l.06,0a130,130,0,0,0,25.42-7.47A74.81,74.81,0,0,0,221.67,222h0l.16-.15.23-.2.05-.06a72,72,0,0,0,13.74-17.44,90.52,90.52,0,0,0,6.67-14.58A98.88,98.88,0,0,0,246,176.72l0,0c3.45-17.14,4-35,4-51.7-.05-16.54-.58-34.18-3.95-51.21l0-.07-.15-.53a100.45,100.45,0,0,0-3.41-12.77,91.31,91.31,0,0,0-6.67-14.54,71.44,71.44,0,0,0-13.42-17.12v-.06l-.38-.35a74.45,74.45,0,0,0-21.88-13.95A130,130,0,0,0,175.28,7h0l-.45-.12h-.07C167.07,5.37,159,4.17,150.05,3.2a247.2,247.2,0,0,0-25-1.57H125Zm5.14,3.29c6.52.2,13.07.62,19.56,1.35,8.19.89,15.62,2,22.82,3.37l-5.3,21.86L130.16,5ZM77.56,9.67c7.09-1.36,14.56-2.47,22.85-3.38,6.48-.74,13-1.15,19.53-1.35L82.87,31.52Zm7.51,24.07L125,5.09l40.08,28.73L125,50.23l-40-16.49Zm90.51-23.47a124.59,124.59,0,0,1,23.36,7,71.66,71.66,0,0,1,18.18,11l-46.91,4.14,5.37-22.11ZM33,28.25a71.83,71.83,0,0,1,18.15-11,125,125,0,0,1,23.37-7L79.85,32.4ZM181.24,69.3l-11-33.8,49.23-4.32L222,77.51ZM30.6,31.18l49.21,4.31-11,33.88-40.7,8.14,2.5-46.33Zm192.16,2.29a68.05,68.05,0,0,1,10.37,13.92,86.76,86.76,0,0,1,6.44,14,102.79,102.79,0,0,1,3,11.14L225.11,77.4l-2.35-43.93ZM7.5,72.52a87.34,87.34,0,0,1,7.66-21.84A76.2,76.2,0,0,1,27.34,33.5L25,77.41,7.5,72.52ZM129.29,51.73l37.92-15.54,10.39,32ZM82.86,36.2l37.88,15.64L72.48,68.21l10.38-32ZM71.23,178.1,50.77,125,71.26,71.81l53.8-18.25,53.79,18.32L199.28,125,178.77,178.2l-53.72,18.21L71.23,178.07ZM182.52,72.73l38.84,7.83-20.22,40.56ZM28.71,80.52l38.85-7.77L48.92,121.13,28.71,80.51Zm197.22-.17,17.26-4.79c2.72,14.27,3.46,29.06,3.63,43.21L225.93,80.34Zm-219-4.78,17.24,4.84L3.26,118.76c.17-14.13.91-28.88,3.62-43.2ZM202.69,125l21-42.19L246.65,125l-22.93,42.2-21-42.19ZM3.43,125,26.35,82.8l21,42.18-21,42.2L3.43,125Zm25.29,44.46,20.2-40.59,18.64,48.4-38.84-7.83Zm172.42-40.59,20.22,40.57-38.88,7.81ZM226,169.61l20.86-38.4c-.17,14.16-.92,28.94-3.63,43.22L226,169.59ZM3.26,131.23l20.88,38.43L6.88,174.43c-2.71-14.32-3.45-29.07-3.62-43.2Zm167,83.28,11-33.88L222,172.48l-2.49,46.34Zm-142.16-42,40.72,8.21,11,33.81-49.19,4.31ZM17,202.61a87.84,87.84,0,0,1-6.44-14,96.44,96.44,0,0,1-3-11.16L25,172.57l2.34,44A70.11,70.11,0,0,1,17,202.61Zm208.14-30,17.46,4.88a96.77,96.77,0,0,1-3,11.08,85.83,85.83,0,0,1-6.44,14.07,68.72,68.72,0,0,1-10.37,13.91l2.35-43.94Zm-95.76,25.58,48.26-16.35-10.38,32-37.88-15.64ZM72.5,181.82l48.3,16.45L82.87,213.81l-10.38-32ZM85,216.18l40.08-16.42,40,16.49-40,28.65L85,216.18Zm85.26,1.45,46.93,4.08a71.11,71.11,0,0,1-18.21,11,124,124,0,0,1-23.36,7ZM51.14,232.75a71.14,71.14,0,0,1-18.15-11l46.86-4.12-5.34,22.09a123.79,123.79,0,0,1-23.36-7Zm116.09-14.27,5.3,21.86c-7.14,1.37-14.62,2.49-22.85,3.38-6.49.76-13.05,1.15-19.56,1.35l37.11-26.59ZM100.4,243.72c-8.24-.9-15.74-2-22.84-3.36l5.3-21.87L120,245.07c-6.53-.19-13.08-.59-19.57-1.35Z"/></g></svg>