<svg id="Layer_1" data-name="Layer 1" xmlns="http://www.w3.org/2000/svg" viewBox="0 0 512 512"><defs><style>.cls-1{fill:#231f20;stroke-width:0.75px;}.cls-1,.cls-2{stroke:#231f20;stroke-miterlimit:10;}.cls-2{fill:none;stroke-width:2px;fill-rule:evenodd;}</style></defs><g id="layer1"><path id="path3782" class="cls-1" d="M42,226.54A29.46,29.46,0,1,0,71.4,256,29.19,29.19,0,0,0,42,226.54Zm-.37.74-7.36,9.39-2.95-7.36A28.5,28.5,0,0,1,41.58,227.28Zm1.1,0a29.67,29.67,0,0,1,9.76,1.84l-2.76,6.81Zm-.55.37,7,8.84-7.74,3.31L34.77,237Zm11,1.84a28.66,28.66,0,0,1,9.2,6.08l-12,.55Zm-22.46,0,2.94,7.18-11.78-1.29A32.2,32.2,0,0,1,30.72,229.49Zm-9,6.63,12.15,1.29-3.13,7-7.92,3.5Zm-.74.18,1.29,11.42L15.44,245A33,33,0,0,1,21,236.3Zm41.61,0-1.29,11.78L53.55,245,50.05,237Zm.55.19a28.8,28.8,0,0,1,5.52,8.65l-6.81,2.76Zm-13.62.73,3.12,7.18L42.5,240.35ZM34.58,238l5.89,2.39L31.82,244Zm7,2.76L53,245.51l4.61,10.67L53,266.86l-11.6,4.6-10.12-4.6-4.6-10.68,4.78-11.41Zm-11,4.79-4.23,9.94-2.95-6.81Zm-15.28.18,6.81,2.76-8.83,7.18A29.74,29.74,0,0,1,15.25,245.69Zm38.66.18,7,2.77L58,255.26Zm14.92,0a29.92,29.92,0,0,1,1.84,9.95L62,248.64Zm-46.21,2.95,3.13,7.36-2.95,7L14,256Zm38.84.18,8.65,7.18-8.65,7.18L58.33,256Zm-48,7.74,8.84,7-6.81,2.76A24.29,24.29,0,0,1,13.41,256.74Zm57.26,0a30.05,30.05,0,0,1-2,9.94l-6.44-2.76ZM58,257.1l2.76,6.63-7,2.76Zm-31.66.19,3.87,9.2-6.63-2.94Zm-2.95,7,7.37,3.32,3.13,7.18-11.42,1.29Zm37.93,0,.92,11.6-12.15-.37,3.5-8.1Zm-38.85.19-.92,11.78a29.16,29.16,0,0,1-6.07-8.84Zm39.58.18,6.45,2.58a26.59,26.59,0,0,1-5.71,8.47Zm-9.57,3.13-3.13,7.37-7-3.13Zm-20.8.19,8.83,4-6.07,2.39Zm9.75,4.41,7.74,3.5-6.45,8.29L34.77,275Zm-7.91,3.13-2.76,6.82a25.17,25.17,0,0,1-8.29-5.53Zm.74.19L42,284.53a29.72,29.72,0,0,1-10.68-2Zm16,.55,11.6.37a30.61,30.61,0,0,1-9,5.89Zm-.73.18,2.57,6.26a28.85,28.85,0,0,1-9,1.84Z"/></g><g id="layer1-2" data-name="layer1"><path id="path3782-2" data-name="path3782" class="cls-1" d="M103.48,226.54A29.46,29.46,0,1,0,132.93,256,29.19,29.19,0,0,0,103.48,226.54Zm-.37.74-7.37,9.39-2.94-7.36A28.5,28.5,0,0,1,103.11,227.28Zm1.1,0a29.67,29.67,0,0,1,9.76,1.84l-2.76,6.81Zm-.55.37,7,8.84-7.74,3.31L96.3,237Zm11,1.84a28.66,28.66,0,0,1,9.2,6.08l-12,.55Zm-22.46,0,2.94,7.18-11.78-1.29A32.2,32.2,0,0,1,92.25,229.49Zm-9,6.63,12.15,1.29-3.13,7-7.92,3.5Zm-.74.18,1.29,11.42L77,245A33,33,0,0,1,82.49,236.3Zm41.61,0-1.29,11.78L115.07,245,111.58,237Zm.55.19a28.8,28.8,0,0,1,5.52,8.65l-6.81,2.76Zm-13.63.73,3.13,7.18L104,240.35ZM96.11,238l5.89,2.39L93.35,244Zm7,2.76,11.41,4.79,4.6,10.67-4.6,10.68-11.6,4.6-10.12-4.6-4.6-10.68L93,244.77Zm-11,4.79-4.23,9.94-3-6.81Zm-15.28.18,6.81,2.76-8.83,7.18A29.74,29.74,0,0,1,76.78,245.69Zm38.66.18,7,2.77-3,6.62Zm14.91,0a29.67,29.67,0,0,1,1.85,9.95l-8.66-7.18Zm-46.2,2.95,3.13,7.36-3,7L75.49,256ZM123,249l8.65,7.18L123,263.36,119.86,256Zm-48,7.74,8.84,7L77,266.49A24.29,24.29,0,0,1,74.94,256.74Zm57.26,0a30.05,30.05,0,0,1-2,9.94l-6.44-2.76Zm-12.71.36,2.76,6.63-7,2.76Zm-31.66.19,3.86,9.2-6.62-2.94Zm-3,7,7.37,3.32,3.13,7.18L84,276.07Zm37.93,0,.92,11.6-12.15-.37,3.49-8.1ZM84,264.47,83,276.25A29,29,0,0,1,77,267.41Zm39.58.18,6.45,2.58a26.59,26.59,0,0,1-5.71,8.47ZM114,267.78l-3.13,7.37-7-3.13Zm-20.8.19,8.83,4-6.07,2.39Zm9.75,4.41,7.74,3.5-6.45,8.29L96.3,275ZM95,275.51l-2.76,6.82A25.17,25.17,0,0,1,84,276.8Zm.73.19,7.74,8.83a29.68,29.68,0,0,1-10.68-2Zm16,.55,11.6.37a30.61,30.61,0,0,1-9,5.89Zm-.74.18,2.58,6.26a28.85,28.85,0,0,1-9,1.84Z"/></g><g id="layer1-3" data-name="layer1"><path id="path3782-3" data-name="path3782" class="cls-1" d="M165,226.54A29.46,29.46,0,1,0,194.46,256,29.19,29.19,0,0,0,165,226.54Zm-.37.74-7.37,9.39-2.94-7.36A28.5,28.5,0,0,1,164.64,227.28Zm1.1,0a29.67,29.67,0,0,1,9.76,1.84l-2.76,6.81Zm-.55.37,7,8.84-7.74,3.31L157.83,237Zm11.05,1.84a28.66,28.66,0,0,1,9.2,6.08l-12,.55Zm-22.46,0,2.94,7.18-11.78-1.29A32.2,32.2,0,0,1,153.78,229.49Zm-9,6.63,12.15,1.29-3.13,7-7.92,3.5Zm-.74.18,1.29,11.42L138.5,245A33,33,0,0,1,144,236.3Zm41.6,0-1.28,11.78L176.6,245,173.11,237Zm.56.19a28.8,28.8,0,0,1,5.52,8.65l-6.81,2.76Zm-13.63.73,3.13,7.18-10.12-4.05Zm-14.91.74,5.89,2.39L154.88,244Zm7,2.76,11.41,4.79,4.6,10.67-4.6,10.68-11.6,4.6-10.12-4.6-4.6-10.68,4.78-11.41Zm-11,4.79-4.23,9.94-3-6.81Zm-15.28.18,6.81,2.76-8.83,7.18A29.74,29.74,0,0,1,138.31,245.69Zm38.66.18,7,2.77L181,255.26Zm14.91,0a29.67,29.67,0,0,1,1.84,9.95l-8.65-7.18Zm-46.2,2.95,3.13,7.36-2.95,7L137,256Zm38.84.18,8.65,7.18-8.65,7.18L181.39,256Zm-48.05,7.74,8.84,7-6.81,2.76A24.29,24.29,0,0,1,136.47,256.74Zm57.25,0a29.79,29.79,0,0,1-2,9.94l-6.44-2.76Zm-12.7.36,2.76,6.63-7,2.76Zm-31.66.19,3.86,9.2-6.62-2.94Zm-3,7,7.37,3.32,3.13,7.18-11.42,1.29Zm37.93,0,.92,11.6-12.15-.37,3.49-8.1Zm-38.85.19-.92,11.78a29,29,0,0,1-6.07-8.84Zm39.58.18,6.45,2.58a26.59,26.59,0,0,1-5.71,8.47Zm-9.57,3.13-3.13,7.37-7-3.13Zm-20.8.19,8.83,4-6.07,2.39Zm9.75,4.41,7.74,3.5-6.45,8.29L157.83,275Zm-7.91,3.13-2.76,6.82a25.17,25.17,0,0,1-8.29-5.53Zm.73.19,7.74,8.83a29.68,29.68,0,0,1-10.68-2Zm16,.55,11.6.37a30.61,30.61,0,0,1-9,5.89Zm-.74.18,2.58,6.26a28.85,28.85,0,0,1-9,1.84Z"/></g><g id="layer1-4" data-name="layer1"><path id="path3782-4" data-name="path3782" class="cls-1" d="M226.54,226.54A29.46,29.46,0,1,0,256,256,29.2,29.2,0,0,0,226.54,226.54Zm-.37.74-7.37,9.39-2.94-7.36A28.5,28.5,0,0,1,226.17,227.28Zm1.1,0a29.67,29.67,0,0,1,9.76,1.84l-2.76,6.81Zm-.55.37,7,8.84L226,239.8,219.36,237Zm11.05,1.84a28.66,28.66,0,0,1,9.2,6.08l-12,.55Zm-22.46,0,2.94,7.18-11.78-1.29A32.2,32.2,0,0,1,215.31,229.49Zm-9,6.63,12.15,1.29-3.13,7-7.92,3.5Zm-.74.18,1.29,11.42L200,245A32.7,32.7,0,0,1,205.55,236.3Zm41.6,0-1.28,11.78L238.13,245,234.64,237Zm.56.19a28.8,28.8,0,0,1,5.52,8.65l-6.81,2.76Zm-13.63.73,3.13,7.18-10.12-4.05Zm-14.91.74,5.89,2.39L216.41,244Zm7,2.76,11.41,4.79,4.6,10.67-4.6,10.68-11.6,4.6-10.12-4.6-4.6-10.68L216,244.77Zm-11,4.79-4.23,9.94-2.95-6.81Zm-15.28.18,6.81,2.76-8.83,7.18A29.74,29.74,0,0,1,199.84,245.69Zm38.66.18,7,2.77-2.95,6.62Zm14.91,0a29.67,29.67,0,0,1,1.84,9.95l-8.65-7.18Zm-46.2,2.95,3.13,7.36-3,7L198.55,256Zm38.84.18,8.65,7.18-8.65,7.18L242.92,256ZM198,256.74l8.84,7L200,266.49A24.29,24.29,0,0,1,198,256.74Zm57.25,0a29.79,29.79,0,0,1-2,9.94l-6.44-2.76Zm-12.7.36,2.76,6.63-7,2.76Zm-31.66.19,3.86,9.2-6.62-2.94Zm-2.95,7,7.37,3.32,3.13,7.18L207,276.07Zm37.93,0,.92,11.6-12.15-.37,3.49-8.1Zm-38.85.19-.92,11.78a29,29,0,0,1-6.07-8.84Zm39.58.18,6.45,2.58a26.59,26.59,0,0,1-5.71,8.47ZM237,267.78l-3.13,7.37-7-3.13Zm-20.8.19,8.83,4L219,274.41Zm9.75,4.41,7.74,3.5-6.45,8.29L219.36,275Zm-7.91,3.13-2.76,6.82A25.06,25.06,0,0,1,207,276.8Zm.73.19,7.74,8.83a29.68,29.68,0,0,1-10.68-2Zm16,.55,11.6.37a30.61,30.61,0,0,1-9,5.89Zm-.74.18,2.58,6.26a28.85,28.85,0,0,1-9,1.84Z"/></g><g id="layer1-5" data-name="layer1"><path id="path3782-5" data-name="path3782" class="cls-1" d="M288.07,226.54A29.46,29.46,0,1,0,317.52,256,29.2,29.2,0,0,0,288.07,226.54Zm-.37.74-7.37,9.39-2.94-7.36A28.5,28.5,0,0,1,287.7,227.28Zm1.1,0a29.67,29.67,0,0,1,9.76,1.84l-2.76,6.81Zm-.55.37,7,8.84-7.73,3.31L280.89,237Zm11,1.84a28.59,28.59,0,0,1,9.21,6.08l-12,.55Zm-22.45,0,2.94,7.18L268,235.38A32.2,32.2,0,0,1,276.84,229.49Zm-9,6.63L280,237.41l-3.12,7-7.92,3.5Zm-.73.18,1.29,11.42L261.56,245A32.7,32.7,0,0,1,267.08,236.3Zm41.6,0-1.28,11.78L299.66,245,296.17,237Zm.56.19a28.8,28.8,0,0,1,5.52,8.65L308,247.9Zm-13.63.73,3.13,7.18-10.12-4.05ZM280.7,238l5.89,2.39L277.94,244Zm7,2.76,11.41,4.79,4.6,10.67-4.6,10.68-11.6,4.6-10.12-4.6-4.6-10.68,4.78-11.41Zm-11.05,4.79-4.23,9.94-2.95-6.81Zm-15.28.18,6.81,2.76-8.83,7.18A29.74,29.74,0,0,1,261.37,245.69Zm38.66.18,7,2.77-2.95,6.62Zm14.91,0a29.67,29.67,0,0,1,1.84,9.95l-8.65-7.18Zm-46.2,2.95,3.12,7.36-2.94,7L260.08,256Zm38.84.18,8.65,7.18-8.65,7.18L304.45,256Zm-48.05,7.74,8.84,7-6.81,2.76A24.29,24.29,0,0,1,259.53,256.74Zm57.25,0a29.79,29.79,0,0,1-2,9.94l-6.44-2.76Zm-12.7.36,2.76,6.63-7,2.76Zm-31.66.19,3.86,9.2-6.62-2.94Zm-2.95,7,7.37,3.32,3.12,7.18-11.41,1.29Zm37.93,0,.92,11.6-12.15-.37,3.49-8.1Zm-38.85.19-.92,11.78a29,29,0,0,1-6.07-8.84Zm39.58.18,6.44,2.58a26.4,26.4,0,0,1-5.7,8.47Zm-9.57,3.13-3.13,7.37-7-3.13Zm-20.8.19,8.83,4-6.07,2.39Zm9.75,4.41,7.73,3.5-6.44,8.29L280.89,275Zm-7.91,3.13-2.76,6.82a25.06,25.06,0,0,1-8.29-5.53Zm.73.19,7.74,8.83a29.68,29.68,0,0,1-10.68-2Zm16,.55,11.6.37a30.74,30.74,0,0,1-9,5.89Zm-.74.18,2.58,6.26a28.85,28.85,0,0,1-9,1.84Z"/></g><g id="layer1-6" data-name="layer1"><path id="path3782-6" data-name="path3782" class="cls-1" d="M349.59,226.54A29.46,29.46,0,1,0,379.05,256,29.2,29.2,0,0,0,349.59,226.54Zm-.36.74-7.37,9.39-2.94-7.36A28.5,28.5,0,0,1,349.23,227.28Zm1.1,0a29.72,29.72,0,0,1,9.76,1.84l-2.76,6.81Zm-.55.37,7,8.84L349,239.8,342.41,237Zm11,1.84a28.59,28.59,0,0,1,9.21,6.08l-12,.55Zm-22.46,0,2.95,7.18-11.78-1.29A32.3,32.3,0,0,1,338.36,229.49Zm-9,6.63,12.15,1.29-3.13,7-7.91,3.5Zm-.73.18,1.29,11.42L323.08,245A33,33,0,0,1,328.61,236.3Zm41.6,0-1.29,11.78L361.19,245l-3.5-7.91Zm.56.19a28.8,28.8,0,0,1,5.52,8.65l-6.81,2.76Zm-13.63.73,3.13,7.18-10.12-4.05Zm-14.91.74,5.89,2.39L339.47,244Zm7,2.76,11.41,4.79,4.6,10.67-4.6,10.68-11.6,4.6-10.12-4.6-4.61-10.68,4.79-11.41Zm-11.05,4.79L334,255.45,331,248.64Zm-15.28.18,6.81,2.76-8.83,7.18A29.74,29.74,0,0,1,322.9,245.69Zm38.66.18,7,2.77-2.95,6.62Zm14.91,0a29.67,29.67,0,0,1,1.84,9.95l-8.65-7.18Zm-46.21,2.95,3.13,7.36-2.94,7L321.61,256Zm38.85.18,8.65,7.18-8.65,7.18L366,256Zm-48.05,7.74,8.84,7-6.82,2.76A24.46,24.46,0,0,1,321.06,256.74Zm57.25,0a29.79,29.79,0,0,1-2,9.94l-6.44-2.76Zm-12.7.36,2.76,6.63-7,2.76Zm-31.66.19,3.86,9.2-6.62-2.94Zm-2.95,7,7.36,3.32,3.13,7.18-11.41,1.29Zm37.92,0,.93,11.6-12.16-.37,3.5-8.1Zm-38.84.19-.92,11.78a29.19,29.19,0,0,1-6.08-8.84Zm39.58.18,6.44,2.58a26.4,26.4,0,0,1-5.7,8.47Zm-9.57,3.13L357,275.15,350,272Zm-20.8.19,8.83,4-6.07,2.39Zm9.75,4.41,7.73,3.5-6.44,8.29L342.41,275Zm-7.91,3.13-2.77,6.82a25.12,25.12,0,0,1-8.28-5.53Zm.73.19,7.73,8.83a29.67,29.67,0,0,1-10.67-2Zm16,.55,11.6.37a30.74,30.74,0,0,1-9,5.89Zm-.74.18,2.58,6.26a28.85,28.85,0,0,1-9,1.84Z"/></g><g id="layer1-7" data-name="layer1"><path id="path3782-7" data-name="path3782" class="cls-1" d="M411.12,226.54A29.46,29.46,0,1,0,440.58,256,29.2,29.2,0,0,0,411.12,226.54Zm-.36.74-7.37,9.39-2.94-7.36A28.5,28.5,0,0,1,410.76,227.28Zm1.1,0a29.72,29.72,0,0,1,9.76,1.84l-2.76,6.81Zm-.55.37,7,8.84-7.73,3.31L403.94,237Zm11,1.84a28.59,28.59,0,0,1,9.21,6.08l-12,.55Zm-22.46,0,2.95,7.18-11.78-1.29A32.3,32.3,0,0,1,399.89,229.49Zm-9,6.63L403,237.41l-3.13,7L392,247.9Zm-.73.18,1.29,11.42L384.61,245A33,33,0,0,1,390.14,236.3Zm41.6,0-1.29,11.78L422.72,245l-3.5-7.91Zm.56.19a28.8,28.8,0,0,1,5.52,8.65L431,247.9Zm-13.63.73,3.13,7.18-10.12-4.05Zm-14.91.74,5.89,2.39L401,244Zm7,2.76,11.41,4.79,4.6,10.67-4.6,10.68-11.6,4.6-10.12-4.6-4.61-10.68,4.79-11.41Zm-11.05,4.79-4.23,9.94-3-6.81Zm-15.28.18,6.81,2.76-8.83,7.18A29.74,29.74,0,0,1,384.43,245.69Zm38.66.18,7,2.77-2.95,6.62Zm14.91,0a29.67,29.67,0,0,1,1.84,9.95l-8.65-7.18Zm-46.21,2.95,3.13,7.36-2.94,7L383.14,256Zm38.85.18,8.65,7.18-8.65,7.18L427.51,256Zm-48.05,7.74,8.84,7-6.82,2.76A24.46,24.46,0,0,1,382.59,256.74Zm57.25,0a29.79,29.79,0,0,1-2,9.94l-6.45-2.76Zm-12.7.36,2.76,6.63-7,2.76Zm-31.66.19,3.86,9.2-6.63-2.94Zm-3,7,7.36,3.32,3.13,7.18-11.41,1.29Zm37.92,0,.92,11.6-12.15-.37,3.5-8.1Zm-38.84.19-.92,11.78a29.19,29.19,0,0,1-6.08-8.84Zm39.58.18,6.44,2.58a26.4,26.4,0,0,1-5.7,8.47Zm-9.57,3.13-3.13,7.37-7-3.13Zm-20.81.19,8.84,4-6.07,2.39Zm9.76,4.41,7.73,3.5-6.44,8.29L403.94,275Zm-7.91,3.13-2.77,6.82a25,25,0,0,1-8.28-5.53Zm.73.19,7.73,8.83a29.67,29.67,0,0,1-10.67-2Zm16,.55,11.6.37a30.74,30.74,0,0,1-9,5.89Zm-.74.18,2.58,6.26a28.85,28.85,0,0,1-9,1.84Z"/></g><g id="layer1-8" data-name="layer1"><path id="path3782-8" data-name="path3782" class="cls-1" d="M472.65,226.54A29.46,29.46,0,1,0,502.11,256,29.2,29.2,0,0,0,472.65,226.54Zm-.36.74-7.37,9.39L462,229.31A28.5,28.5,0,0,1,472.29,227.28Zm1.1,0a29.72,29.72,0,0,1,9.76,1.84l-2.76,6.81Zm-.55.37,7,8.84-7.73,3.31L465.47,237Zm11,1.84a28.59,28.59,0,0,1,9.21,6.08l-12,.55Zm-22.46,0,2.95,7.18-11.78-1.29A32.15,32.15,0,0,1,461.42,229.49Zm-9,6.63,12.15,1.29-3.13,7-7.91,3.5Zm-.73.18L453,247.72,446.14,245A33,33,0,0,1,451.67,236.3Zm41.6,0L492,248.08,484.25,245l-3.5-7.91Zm.55.19a28.64,28.64,0,0,1,5.53,8.65l-6.81,2.76Zm-13.62.73,3.13,7.18-10.12-4.05Zm-14.91.74,5.89,2.39L462.53,244Zm7,2.76,11.41,4.79,4.6,10.67-4.6,10.68-11.6,4.6L462,266.86l-4.61-10.68,4.79-11.41Zm-11.05,4.79L457,255.45l-2.95-6.81Zm-15.28.18,6.81,2.76-8.84,7.18A30,30,0,0,1,446,245.69Zm38.66.18,7,2.77-2.95,6.62Zm14.91,0a29.67,29.67,0,0,1,1.84,9.95l-8.65-7.18Zm-46.21,2.95,3.13,7.36-2.94,7L444.67,256Zm38.85.18,8.65,7.18-8.65,7.18L489,256Zm-48.05,7.74,8.84,7-6.82,2.76A24.46,24.46,0,0,1,444.12,256.74Zm57.25,0a29.79,29.79,0,0,1-2,9.94l-6.45-2.76Zm-12.7.36,2.76,6.63-7,2.76Zm-31.66.19,3.86,9.2-6.63-2.94Zm-2.95,7,7.36,3.32,3.13,7.18-11.41,1.29Zm37.92,0,.92,11.6-12.15-.37,3.5-8.1Zm-38.84.19-.92,11.78a29.19,29.19,0,0,1-6.08-8.84Zm39.58.18,6.44,2.58a26.57,26.57,0,0,1-5.7,8.47Zm-9.57,3.13L480,275.15,473,272Zm-20.81.19,8.84,4-6.07,2.39Zm9.76,4.41,7.73,3.5-6.44,8.29L465.47,275Zm-7.91,3.13-2.77,6.82a25,25,0,0,1-8.28-5.53Zm.73.19,7.73,8.83a29.67,29.67,0,0,1-10.67-2Zm16,.55,11.6.37a30.74,30.74,0,0,1-9,5.89Zm-.74.18,2.58,6.26a28.85,28.85,0,0,1-9,1.84Z"/></g><path class="cls-2" d="M495.79,285H16.21A10.44,10.44,0,0,1,5.66,274.74V237.26A10.44,10.44,0,0,1,16.21,227H495.79a10.44,10.44,0,0,1,10.55,10.26v37.48A10.47,10.47,0,0,1,495.79,285Z"/></svg>