<svg id="Layer_1" data-name="Layer 1" xmlns="http://www.w3.org/2000/svg" viewBox="0 0 512 512"><defs><style>.cls-1{fill:none;stroke:#231f20;stroke-miterlimit:10;stroke-width:2px;}.cls-2{fill:#231f20;}</style></defs><circle class="cls-1" cx="118" cy="256" r="114.58"/><line class="cls-1" x1="118" y1="141.42" x2="118" y2="370.58"/><line class="cls-1" x1="3.43" y1="256" x2="232.58" y2="256"/><line class="cls-1" x1="60.97" y1="156.93" x2="175.54" y2="355.07"/><line class="cls-1" x1="18.94" y1="313.54" x2="217.57" y2="198.96"/><line class="cls-1" x1="232.58" y1="256" x2="3.43" y2="256"/><line class="cls-1" x1="118" y1="141.42" x2="118" y2="370.58"/><line class="cls-1" x1="18.94" y1="198.46" x2="217.57" y2="313.04"/><line class="cls-1" x1="60.46" y1="355.07" x2="175.54" y2="156.93"/><circle class="cls-1" cx="119.01" cy="256" r="81.06"/><circle class="cls-1" cx="118" cy="256" r="114.58"/><g id="layer1"><path id="path3782" class="cls-2" d="M119,179.64a76.55,76.55,0,1,0,76.55,76.55C196,213.61,161.59,179.64,119,179.64Zm-1,1.91L98.91,206l-7.65-19.14A74.15,74.15,0,0,1,118.05,181.55Zm2.87,0a76.9,76.9,0,0,1,25.36,4.78L139.1,204Zm-1.44,1,18.19,23-20.1,8.62-17.22-7.18Zm28.71,4.78a74.35,74.35,0,0,1,23.92,15.79L141,204.52Zm-58.37,0L97.47,206,66.85,202.6A83.9,83.9,0,0,1,89.82,187.29ZM66.38,204.52,98,207.87l-8.13,18.18-20.57,9.09Zm-1.92.47,3.35,29.67-17.7-7.18C53.46,219.35,58.72,211.69,64.46,205Zm108.13,0-3.35,30.63-20.09-8.14-9.09-20.57Zm1.44.48A75,75,0,0,1,188.38,228l-17.7,7.18Zm-35.41,1.92,8.14,18.66-26.32-10.53ZM99.87,209.3l15.31,6.22-22.49,9.57Zm18.18,7.18,29.66,12.44,12,27.75-12,27.75-30.14,12-26.31-12-12-27.75L91.73,227ZM89.34,228.92l-11,25.83-7.66-17.7Zm-39.71.48,17.7,7.17-23,18.66C44.84,246.14,46.28,237.53,49.63,229.4Zm100.47.47,18.19,7.18-7.66,17.23Zm38.76,0a77.41,77.41,0,0,1,4.78,25.84l-22.48-18.66ZM68.77,237.53l8.13,19.14-7.65,18.18-23-18.66Zm101,.48,22.49,18.66-22.49,18.66-8.13-19.14ZM44.84,258.1l23,18.18-17.7,7.18A63.23,63.23,0,0,1,44.84,258.1Zm148.8,0c-.47,9.09-1.91,17.71-5.26,25.84l-16.74-7.18Zm-33,1,7.18,17.22-18.18,7.18Zm-82.29.48,10,23.92-17.22-7.65Zm-7.66,18.18,19.14,8.61L98,305l-29.66,3.35Zm98.56,0,2.4,30.14-31.58-.95,9.09-21.06Zm-100.95.48L65.9,308.82a75.65,75.65,0,0,1-15.79-23Zm102.87.48,16.74,6.69a68.64,68.64,0,0,1-14.83,22Zm-24.88,8.13L138.14,306,120,297.81Zm-54.07.48,23,10.52L99.39,304Zm25.36,11.48,20.1,9.09-16.75,21.53-20.57-23.92ZM97,306.91l-7.18,17.7a65.4,65.4,0,0,1-21.53-14.36Zm1.91.47,20.1,23a77.27,77.27,0,0,1-27.75-5.26Zm41.63,1.44,30.14,1a79.63,79.63,0,0,1-23.45,15.31Zm-1.92.48,6.7,16.27a75.81,75.81,0,0,1-23.44,4.78Z"/></g><circle class="cls-1" cx="394" cy="256" r="114.58"/><line class="cls-1" x1="394" y1="141.42" x2="394" y2="370.58"/><line class="cls-1" x1="279.42" y1="256" x2="508.57" y2="256"/><line class="cls-1" x1="336.96" y1="156.93" x2="451.54" y2="355.07"/><line class="cls-1" x1="294.93" y1="313.54" x2="493.56" y2="198.96"/><line class="cls-1" x1="508.57" y1="256" x2="279.42" y2="256"/><line class="cls-1" x1="394" y1="141.42" x2="394" y2="370.58"/><line class="cls-1" x1="294.93" y1="198.46" x2="493.56" y2="313.04"/><line class="cls-1" x1="336.46" y1="355.07" x2="451.54" y2="156.93"/><circle class="cls-1" cx="395" cy="256" r="81.06"/><circle class="cls-1" cx="394" cy="256" r="114.58"/><g id="layer1-2" data-name="layer1"><path id="path3782-2" data-name="path3782" class="cls-2" d="M395,179.64a76.55,76.55,0,1,0,76.55,76.55C472,213.61,437.58,179.64,395,179.64Zm-1,1.91L374.9,206l-7.65-19.14A74.15,74.15,0,0,1,394,181.55Zm2.87,0a76.9,76.9,0,0,1,25.36,4.78L415.09,204Zm-1.44,1,18.19,23-20.1,8.62-17.22-7.18Zm28.71,4.78a74.35,74.35,0,0,1,23.92,15.79L417,204.52Zm-58.37,0L373.47,206l-30.63-3.35A83.9,83.9,0,0,1,365.81,187.29Zm-23.44,17.23,31.57,3.35-8.13,18.18-20.57,9.09Zm-1.92.47,3.35,29.67-17.7-7.18C329.45,219.35,334.71,211.69,340.45,205Zm108.13,0-3.35,30.63-20.09-8.14-9.09-20.57Zm1.44.48A75,75,0,0,1,464.37,228l-17.7,7.18Zm-35.41,1.92,8.14,18.66-26.32-10.53Zm-38.75,1.91,15.31,6.22-22.49,9.57ZM394,216.48l29.66,12.44,12,27.75-12,27.75-30.14,12-26.31-12-12-27.75L367.72,227Zm-28.71,12.44-11,25.83-7.66-17.7Zm-39.71.48,17.7,7.17-23,18.66C320.84,246.14,322.27,237.53,325.62,229.4Zm100.48.47,18.18,7.18-7.66,17.23Zm38.75,0a77.42,77.42,0,0,1,4.79,25.84l-22.49-18.66Zm-120.09,7.66,8.13,19.14-7.65,18.18-23-18.66Zm100.95.48,22.49,18.66-22.49,18.66-8.13-19.14ZM320.84,258.1l23,18.18-17.7,7.18A63.23,63.23,0,0,1,320.84,258.1Zm148.8,0c-.48,9.09-1.92,17.71-5.27,25.84l-16.74-7.18Zm-33,1,7.18,17.22-18.18,7.18Zm-82.29.48,10.05,23.92-17.23-7.65Zm-7.66,18.18,19.14,8.61L373.94,305l-29.66,3.35Zm98.56,0,2.4,30.14-31.58-.95,9.09-21.06Zm-101,.48-2.39,30.62a75.65,75.65,0,0,1-15.79-23Zm102.87.48,16.74,6.69a68.64,68.64,0,0,1-14.83,22Zm-24.88,8.13L414.13,306,396,297.81Zm-54.07.48,23,10.52L375.38,304Zm25.36,11.48,20.1,9.09-16.75,21.53-20.57-23.92ZM373,306.91l-7.18,17.7a65.4,65.4,0,0,1-21.53-14.36Zm1.91.47,20.1,23a77.27,77.27,0,0,1-27.75-5.26Zm41.63,1.44,30.14,1a79.58,79.58,0,0,1-23.44,15.31Zm-1.92.48,6.7,16.27a75.81,75.81,0,0,1-23.44,4.78Z"/></g></svg>