<svg id="Layer_1" data-name="Layer 1" xmlns="http://www.w3.org/2000/svg" viewBox="0 0 250 250"><defs><style>.cls-1{fill:#231f20;}</style></defs><g id="mask0"><path class="cls-1" d="M167.42,7s0,0-.08,0h-.05l-.23,0h-.13l0,0c-1.85.4-4,.9-7,1.81a100.24,100.24,0,0,0-13.51,5.16,127.18,127.18,0,0,0-14.32,7.7c-2.95,1.82-5.16,3.31-7.07,4.62-1.92-1.32-4.14-2.81-7.12-4.64A128.8,128.8,0,0,0,103.6,14,97.71,97.71,0,0,0,90.09,8.89c-3.3-1-5.61-1.54-7.43-1.92l-.09,0A81.12,81.12,0,0,0,66.43,5.29,65.06,65.06,0,0,0,56.89,6,64,64,0,0,0,35.14,13.3h0l-.28.15A68.54,68.54,0,0,0,18,26.72,69.81,69.81,0,0,0,6,44.59H6l0,0-.16.26V45A65.62,65.62,0,0,0,.17,67.92C.06,69.48,0,71,0,72.6v1.17A82.92,82.92,0,0,0,2.53,93.6l0,.1.14.43A121.6,121.6,0,0,0,13.16,122h0l.23.45s0,0,0,0l.16.31.06.13h0A200.67,200.67,0,0,0,32.1,152l.18.24.1.17h0a356.87,356.87,0,0,0,25.12,30.12h0l.3.32v0l0,0c7.48,8.14,15.27,16,24.47,24.84h0l.29.29h0l0,0c13.16,12.53,26.26,24,41.24,36.19l.11.15.24.09.17.18H125l.64-.07,0,0,.14,0,.23-.28c14.8-12,27.82-23.43,40.92-35.89h0l.33-.37c9.12-8.69,17-16.68,24.82-25.15h0a367.53,367.53,0,0,0,25.07-30l.18-.22.2-.28v0a199.93,199.93,0,0,0,19-30,119.89,119.89,0,0,0,10.77-28.3A83.85,83.85,0,0,0,250,73.92V72.5c0-1.51-.06-3-.16-4.56A65.65,65.65,0,0,0,244.2,45.1v-.05L244,44.6a69.42,69.42,0,0,0-12-17.89,68.34,68.34,0,0,0-16.39-13v0l-.34-.18-.1-.07-.11-.06a64.5,64.5,0,0,0-22-7.44,67.11,67.11,0,0,0-9.55-.67,80.75,80.75,0,0,0-16.17,1.68Zm3.52,2.48a77.9,77.9,0,0,1,12.64-1.08,62.21,62.21,0,0,1,9.11.65,61.28,61.28,0,0,1,19.82,6.55l-9.6,23.84-32-29.95ZM37.51,15.55A61.37,61.37,0,0,1,57.32,9a62.21,62.21,0,0,1,9.11-.65A77.11,77.11,0,0,1,79.08,9.44l-32,30-9.6-23.85Zm90.81,27.59,39.32-32.61,33,31-33,11.85L128.32,43.14Zm-78.9-1.7,33-30.91,39.38,32.65L82.35,53.37,49.42,41.44Zm39.12-29.8.67.2a98.66,98.66,0,0,1,13.13,5,131.81,131.81,0,0,1,14,7.54c3.16,1.95,5.42,3.47,7.15,4.69V40.63Zm38,17.42c1.9-1.32,4.1-2.78,7.16-4.69a131.42,131.42,0,0,1,14-7.51,96.32,96.32,0,0,1,13.12-5l.68-.19-34.94,29V29.05Zm79.15,11.61,9.52-23.62A65,65,0,0,1,240,43.49ZM20.22,28.84a65.37,65.37,0,0,1,14.6-11.79l9.52,23.61L10,43.49a66.58,66.58,0,0,1,10.2-14.66Zm185.19,37.6L205,43.7l34.9,2.87-22.8,34.89-11.73-15ZM10.08,46.58,45,43.71l-.35,22.72-11.78,15Zm162.23,8.29L202,44.2l.33,20.65-30-10ZM48,44.21,77.69,54.94l-30,9.91L48,44.22Zm78.53,1.66,35,9.07-35,8.58V45.87Zm-38,9,35-9V63.52l-35-8.62ZM3.21,68.11A62.21,62.21,0,0,1,7.72,48.53L30.43,83.31,5.24,91.68a81.16,81.16,0,0,1-2-23.58ZM219.6,83.26l22.69-34.72a62.46,62.46,0,0,1,4.51,19.59,80.36,80.36,0,0,1-2,23.56L219.6,83.27Zm-93.95-16.4,42-10.28,34.21,11.36L190,98.57,150.19,149l-.05.07L125,167.39,99.83,149.06,60,98.57,48.12,67.87,82.35,56.58l42.14,10.35L125,67a1.37,1.37,0,0,0,.64-.15Zm78.67,3.19L215,83.65,194.32,95.8l10-25.75ZM35.06,83.65,45.7,70.05l10,25.74L35.06,83.66Zm157.8,16.58,23.73-14,16.56,34.54-40.38,12.92.1-33.5Zm-176,20.53,16.5-34.49,23.79,14,.09,33.52-40.38-13Zm-11-26.13,23.89-7.94-15.09,31.5a116.48,116.48,0,0,1-8.8-23.56ZM220.19,86.7l23.89,8a114.43,114.43,0,0,1-8.8,23.5L220.19,86.7Zm-30.38,17-.08,31.11-34,12.1Zm-129.48,31-.07-31,34,43.17L60.33,134.77Zm134.45,1.48,37.39-12A200.67,200.67,0,0,1,216,149.45ZM17.86,124.31l37.31,12L34,149.45a201.5,201.5,0,0,1-16.15-25.16Zm134.68,27,37.13-13.24-.15,42.38L145.94,183l6.6-31.69Zm-92,29.13L60.34,138l37.14,13.32,6.58,31.58Zm132.23-41.81,21.44,13.32c-6.75,9-14,17.66-21.57,26l.13-39.3ZM35.88,151.92,57.3,138.61l.13,39.29c-7.54-8.29-14.79-17-21.55-26Zm65.21,1.85,21.4,15.58-15.56,12.48Zm26.45,15.58,21.35-15.54-5.83,28-15.52-12.46Zm-19.81,15.79L125,171.27l17.27,13.84L125,238.25l-17.29-53.12Zm-45-1.51,39.73,2.31L83.72,204.83c-7.74-7.41-14.51-14.26-21-21.2ZM147.56,186l39.73-2.31c-6.64,7.1-13.42,14-21,21.19L147.56,186Zm-2.82,1.51L164.07,207c-11.58,11-23.18,21.18-36,31.71l16.65-51.2ZM85.94,207l19.35-19.49,16.64,51.2C109.11,228.13,97.51,217.92,85.94,207Z"/></g></svg>