<svg width="350" height="358" viewBox="0 0 350 358" fill="none" xmlns="http://www.w3.org/2000/svg">
<path d="M99.8411 221.104C90.2952 211.333 77.9448 205.584 63.9071 205.584C49.8695 205.584 37.5191 211.333 27.9732 220.528C18.5576 230.338 13.3099 243.558 13.3731 257.309C13.3731 271.678 18.9897 284.327 27.9732 294.098C37.5538 303.742 50.47 309.119 63.9071 309.057C77.9448 309.057 90.2952 303.316 99.8411 294.121C109.197 284.387 114.441 271.279 114.441 257.624C114.441 243.969 109.197 230.861 99.8411 221.127V221.104ZM97.5915 272.829L85.2336 278.002L92.5373 259.581L97.5915 272.798V272.829ZM83.5539 278.578L63.3073 287.197L43.0606 278.578L34.6395 257.854L43.0606 237.169L63.3073 228.541L83.5539 237.169L91.9824 257.885L83.5539 278.578ZM77.9448 292.939L65.032 287.765L83.0289 280.297L77.9448 292.939ZM49.3071 292.939L43.6905 280.297L61.6875 287.765L49.3071 292.939ZM29.0605 272.215L34.1146 258.998L41.4184 277.419L29.0605 272.215ZM29.0605 242.902L41.4184 237.737L34.1146 255.551L29.0605 242.902ZM62.1899 227.966L44.1929 235.434L49.8095 222.792L62.1899 227.966ZM83.5314 235.434L65.5344 227.966L78.4847 222.831L83.5314 235.434ZM85.781 237.737L98.1389 242.902V243.478L93.0848 256.127L85.781 237.737ZM85.2186 236.01L80.7193 223.936L97.569 241.183L85.2186 236.01ZM63.8846 227.39L52.0966 222.217H75.6727L63.8846 227.39ZM42.5507 236.01L30.7552 240.615L47.5974 223.376L42.5507 236.01ZM33.5522 257.271L28.4981 269.344V245.243L33.5522 257.271ZM42.0108 279.123L46.51 291.189L29.6529 273.98L42.0108 279.123ZM63.3447 288.333L75.1403 293.507H50.9943L63.3447 288.333ZM84.6787 279.714L96.4742 275.109L79.632 292.348L84.6787 279.714ZM93.6772 257.869L98.7313 245.819V269.958L93.6772 257.869ZM98.7313 241.221L80.2019 222.255H98.7313V241.221ZM50.4469 221.104L63.3597 207.887L76.2351 221.104H50.4469ZM28.5506 241.221V222.255H47.065L28.5506 241.221ZM27.4258 271.102L14.5129 257.885L27.4258 244.668V271.102ZM28.5506 274.556L47.08 293.522H28.5356L28.5506 274.556ZM76.835 294.673L63.9221 307.891L50.4244 294.673H76.835ZM98.7313 274.556V293.522H80.1869L98.7313 274.556ZM99.8561 244.092L112.769 257.309L99.8561 270.534V244.092ZM99.8561 223.406C103.851 227.574 107.084 232.44 109.402 237.775L99.8561 241.797V223.406ZM79.0846 221.104L82.9839 211.333C88.6005 213.636 93.0923 217.082 97.584 221.104H79.0846ZM77.9598 220.528L65.0469 207.311C70.8248 207.345 76.5424 208.515 81.8891 210.757L77.9598 220.528ZM62.2124 207.311L49.2996 220.528L45.3702 210.757C50.6845 208.407 56.4239 207.233 62.2124 207.311ZM47.6124 221.127H29.6154C33.6902 217.042 38.4437 213.733 43.653 211.356L47.6124 221.127ZM27.4033 241.851L17.8574 237.829C20.107 232.08 23.4739 227.482 27.4033 222.885V241.851ZM26.8409 242.994L13.928 256.219C13.9616 250.303 15.1046 244.448 17.295 238.972L26.8409 242.994ZM27.4033 272.883L17.8649 276.82C15.6183 271.365 14.4731 265.501 14.4979 259.581L27.4033 272.883ZM27.4033 274.034V292.455C23.4084 288.288 20.1754 283.421 17.8574 278.087L27.4033 274.034ZM48.1748 294.758L44.2529 304.452C38.6364 302.149 34.1446 298.711 29.6529 294.689L48.1748 294.758ZM49.2996 295.326L62.2124 308.551C56.4338 308.517 50.7155 307.344 45.3702 305.097L49.2996 295.326ZM78.4847 295.241L82.414 305.012C77.0847 307.313 71.3559 308.488 65.5719 308.466L78.4847 295.241ZM79.6095 294.673H97.6065C93.5337 298.766 88.7766 302.078 83.5613 304.452L79.6095 294.673ZM99.8561 273.405L109.402 277.427C107.152 283.175 103.785 287.773 99.8561 292.371V273.405ZM100.419 272.253L113.331 259.036C113.307 264.95 112.169 270.803 109.979 276.275L100.419 272.253ZM99.8561 242.941L109.402 238.919C111.649 244.377 112.794 250.243 112.769 256.165L99.8561 242.941Z" fill="#231F20"/>
<path d="M64.469 315.36C35.8313 315.36 20.6689 299.241 12.8102 283.177C-14.7027 225.702 64.469 99.8398 64.469 99.8398C64.469 99.8398 144.766 231.451 112.753 287.198C104.895 302.143 91.4195 315.36 64.469 315.36Z" stroke="#231F20" stroke-width="2" stroke-miterlimit="10"/>
<path d="M63.3441 124.547C75.4371 124.547 85.2404 114.513 85.2404 102.135C85.2404 89.757 75.4371 79.7227 63.3441 79.7227C51.2511 79.7227 41.4478 89.757 41.4478 102.135C41.4478 114.513 51.2511 124.547 63.3441 124.547Z" stroke="#231F20" stroke-width="2" stroke-miterlimit="10"/>
<path d="M63.3442 71.6774C71.4076 71.6774 77.9442 64.9867 77.9442 56.7332C77.9442 48.4798 71.4076 41.7891 63.3442 41.7891C55.2808 41.7891 48.7441 48.4798 48.7441 56.7332C48.7441 64.9867 55.2808 71.6774 63.3442 71.6774Z" stroke="#231F20" stroke-width="2" stroke-miterlimit="10"/>
<path d="M283.204 221.104C273.658 211.333 261.308 205.584 247.27 205.584C233.232 205.584 220.882 211.333 211.336 220.528C201.92 230.338 196.673 243.558 196.736 257.309C196.736 271.678 202.352 284.327 211.336 294.098C220.917 303.742 233.833 309.119 247.27 309.057C261.308 309.057 273.658 303.316 283.204 294.121C292.56 284.387 297.804 271.279 297.804 257.624C297.804 243.969 292.56 230.861 283.204 221.127V221.104ZM280.954 272.829L268.596 278.002L275.9 259.581L280.954 272.798V272.829ZM266.917 278.578L246.67 287.197L226.423 278.578L218.002 257.854L226.423 237.169L246.67 228.541L266.917 237.169L275.345 257.885L266.917 278.578ZM261.308 292.939L248.395 287.765L266.392 280.297L261.308 292.939ZM232.67 292.939L227.053 280.297L245.05 287.765L232.67 292.939ZM212.423 272.215L217.477 258.998L224.781 277.419L212.423 272.215ZM212.423 242.902L224.781 237.737L217.477 255.551L212.423 242.902ZM245.553 227.966L227.556 235.434L233.172 222.792L245.553 227.966ZM266.894 235.434L248.897 227.966L261.847 222.831L266.894 235.434ZM269.144 237.737L281.502 242.902V243.478L276.448 256.127L269.144 237.737ZM268.581 236.01L264.082 223.936L280.932 241.183L268.581 236.01ZM247.247 227.39L235.459 222.217H259.035L247.247 227.39ZM225.914 236.01L214.118 240.615L230.96 223.376L225.914 236.01ZM216.915 257.271L211.861 269.344V245.243L216.915 257.271ZM225.374 279.123L229.873 291.189L213.016 273.98L225.374 279.123ZM246.708 288.333L258.503 293.507H234.357L246.708 288.333ZM268.041 279.714L279.837 275.109L262.995 292.348L268.041 279.714ZM277.04 257.869L282.094 245.819V269.958L277.04 257.869ZM282.094 241.221L263.565 222.255H282.094V241.221ZM233.81 221.104L246.723 207.887L259.598 221.104H233.81ZM211.913 241.221V222.255H230.428L211.913 241.221ZM210.789 271.102L197.876 257.885L210.789 244.668V271.102ZM211.913 274.556L230.443 293.522H211.898L211.913 274.556ZM260.198 294.673L247.285 307.891L233.787 294.673H260.198ZM282.094 274.556V293.522H263.55L282.094 274.556ZM283.219 244.092L296.132 257.309L283.219 270.534V244.092ZM283.219 223.406C287.214 227.574 290.447 232.44 292.765 237.775L283.219 241.797V223.406ZM262.447 221.104L266.347 211.333C271.963 213.636 276.455 217.082 280.947 221.104H262.447ZM261.323 220.528L248.41 207.311C254.188 207.345 259.905 208.515 265.252 210.757L261.323 220.528ZM245.575 207.311L232.662 220.528L228.733 210.757C234.047 208.407 239.787 207.233 245.575 207.311ZM230.975 221.127H212.978C217.053 217.042 221.807 213.733 227.016 211.356L230.975 221.127ZM210.766 241.851L201.22 237.829C203.47 232.08 206.837 227.482 210.766 222.885V241.851ZM210.204 242.994L197.291 256.219C197.324 250.303 198.467 244.448 200.658 238.972L210.204 242.994ZM210.766 272.883L201.228 276.82C198.981 271.365 197.836 265.501 197.861 259.581L210.766 272.883ZM210.766 274.034V292.455C206.771 288.288 203.538 283.421 201.22 278.087L210.766 274.034ZM231.538 294.758L227.616 304.452C221.999 302.149 217.507 298.711 213.016 294.689L231.538 294.758ZM232.662 295.326L245.575 308.551C239.797 308.517 234.078 307.344 228.733 305.097L232.662 295.326ZM261.847 295.241L265.777 305.012C260.447 307.313 254.719 308.488 248.935 308.466L261.847 295.241ZM262.972 294.673H280.969C276.896 298.766 272.139 302.078 266.924 304.452L262.972 294.673ZM283.219 273.405L292.765 277.427C290.515 283.175 287.148 287.773 283.219 292.371V273.405ZM283.781 272.253L296.694 259.036C296.67 264.95 295.532 270.803 293.342 276.275L283.781 272.253ZM283.219 242.941L292.765 238.919C295.011 244.377 296.157 250.243 296.132 256.165L283.219 242.941Z" fill="#231F20"/>
<path d="M247.832 315.36C219.194 315.36 204.032 299.241 196.173 283.177C168.66 225.702 247.832 99.8398 247.832 99.8398C247.832 99.8398 328.128 231.451 296.116 287.198C288.258 302.143 274.782 315.36 247.832 315.36Z" stroke="#231F20" stroke-width="2" stroke-miterlimit="10"/>
<path d="M246.707 124.547C258.8 124.547 268.603 114.513 268.603 102.135C268.603 89.757 258.8 79.7227 246.707 79.7227C234.614 79.7227 224.811 89.757 224.811 102.135C224.811 114.513 234.614 124.547 246.707 124.547Z" stroke="#231F20" stroke-width="2" stroke-miterlimit="10"/>
<path d="M246.707 71.6774C254.77 71.6774 261.307 64.9867 261.307 56.7332C261.307 48.4798 254.77 41.7891 246.707 41.7891C238.644 41.7891 232.107 48.4798 232.107 56.7332C232.107 64.9867 238.644 71.6774 246.707 71.6774Z" stroke="#231F20" stroke-width="2" stroke-miterlimit="10"/>
</svg>
