<svg id="Layer_1" data-name="Layer 1" xmlns="http://www.w3.org/2000/svg" viewBox="0 0 250 250"><defs><style>.cls-1{fill:#231f20;}</style></defs><g id="mask0"><path class="cls-1" d="M125,0l-.1,0-.39,0-.05,0-.33,0-.2.33a148.52,148.52,0,0,0-25,21.49l-.16.16-.25.26,0,.07a151.16,151.16,0,0,0-21,29.11h0l0,.09-.59.11.06.64-.36.38.17.22c-1.85,3.41-3.63,6.94-5.25,10.5-1.75,3.85-3.33,7.8-4.73,11.75-1.32,3.72-2.46,7.47-3.45,11.2h0l-.23.9v0h0c-1,3.9-1.88,8.08-2.57,12.41-.67,4.09-1.17,8.33-1.48,12.59-.29,3.81-.42,7.64-.44,11.39l0,0v.88l-.08.15.06.25,0,.28.07.11c0,4.08.16,8.21.46,12.21.31,4.16.81,8.39,1.48,12.58.63,4,1.48,8,2.45,11.91h0l.14.52c1,4,2.25,8.08,3.7,12.13s3,7.89,4.75,11.75c1.63,3.6,3.42,7.17,5.29,10.6l-.21.4.45.35,0,.68h.51a150.08,150.08,0,0,0,20.23,28.19l0,0,0,0h0l.21.21.58.64A148.48,148.48,0,0,0,124,249.64l.09.09.17.27h.7l.49,0,0,0,.33,0,.2-.33a148.14,148.14,0,0,0,25-21.47h0l.37-.41a150,150,0,0,0,21.11-29.22h0l.35-.66,0,0,.17-.23v-.11c1.93-3.55,3.77-7.21,5.44-10.89s3.33-7.75,4.75-11.75c1.34-3.75,2.47-7.51,3.44-11.2h0l.24-.93c1.05-4.12,1.92-8.31,2.57-12.43s1.17-8.44,1.48-12.58c.29-3.86.42-7.68.44-11.41h0v-.91l.08-.14-.07-.33,0-.21,0-.08c0-4.17-.17-8.28-.46-12.21-.32-4.26-.81-8.5-1.48-12.59s-1.49-8.11-2.45-11.91v0l-.13-.5c-1-4-2.27-8.13-3.7-12.13s-3-7.9-4.75-11.75c-1.55-3.41-3.26-6.83-5.06-10.17v0l-.23-.42.2-.39-.72-.57a150.69,150.69,0,0,0-21-29.18v0l0,0h0l-.07-.08-.14-.14-.08-.11-.08-.06A147.48,147.48,0,0,0,126,.38L125.71,0Zm-16,30.32L125,4.21l15.93,26.12L125,40.14ZM130,6.81a145.21,145.21,0,0,1,18.44,16.48l-5.19,5.2ZM101.6,23.28A147,147,0,0,1,120,6.81L106.8,28.5l-5.2-5.21Zm43.51,7.39,5.25-5.27a148.77,148.77,0,0,1,16.36,21.82ZM99.64,25.42l5.24,5.25L83.29,47.22a147.65,147.65,0,0,1,16.35-21.8Zm27.44,16.84,14.42-8.88,0,29L127.07,42.26ZM108.5,33.4l14.42,8.85L108.47,62.37l0-29Zm-27.25,39L79.78,53.56l25.84-19.83,0,32.56L82.5,88.23Zm63.17-6.11,0-32.55,25.84,19.82-1.35,17.3-1.36,17.38L144.42,66.29ZM108.78,183.05l.11-.17-.55-.54L96,125.08l0-.11,0,0v0l12.16-56.7.25,0v-.83L125,44.3l16.58,23.07v.22l.06,0,.1.74h.08l12,55.92-.16.1.29.73-12.17,56.68-.25,0v.84l-16.51,23-16.24-22.61Zm72.49-74.65-10.85-17,.15-.23-.38-.34,1.45-18.55L172.76,58c1.13,2.23,2.23,4.47,3.25,6.71,1.7,3.75,3.28,7.62,4.65,11.51s2.53,7.7,3.55,11.61l.07.28c1,3.86,1.84,8,2.52,12.16.64,3.94,1.12,8.09,1.45,12.34.18,2.42.29,4.88.36,7.36l-7.34-11.53ZM61.75,112.57c.31-4.16.8-8.31,1.44-12.33.68-4.2,1.53-8.28,2.52-12.15v0c1-4,2.24-8,3.62-11.89S72.27,68.46,74,64.67c1-2.26,2.14-4.5,3.25-6.7L78.31,71.7l0,.33,0,.22L79.8,90.61l-.27.19.16.41L69.36,107.4l-8,12.53c.08-2.48.19-4.93.37-7.36Zm83.61-41.39L167,91.74l-11.15,28.31ZM83,91.76l21.65-20.58L94.14,120.05,83,91.76ZM157,125l12-30.48,8.91,14L188.44,125l-10.23,16v0L169,155.47,157,125ZM72.06,141.47,61.56,125l10.2-16h0L81,94.52,93,125,81,155.47l-8.93-14ZM83,158.25,94.14,130l10.5,48.88L83,158.25ZM155.86,130,167,158.26l-21.65,20.57L155.86,130Zm15.78,47.79-1.43-18.34.28-.17-.17-.44,10.31-16.19,0-.05,8-12.48q-.1,3.71-.37,7.35c-.31,4.1-.8,8.25-1.45,12.33s-1.49,8.17-2.54,12.23h0c-1,3.95-2.22,7.92-3.6,11.84s-2.93,7.72-4.65,11.5c-1,2.23-2.11,4.47-3.24,6.7l-1.13-14.28ZM74,185.32c-1.73-3.8-3.29-7.67-4.65-11.5s-2.6-7.88-3.62-11.88h0c-1-3.92-1.87-8-2.53-12.17s-1.14-8.26-1.44-12.33c-.18-2.44-.3-4.89-.37-7.33l7.32,11.46,11,17.33-.17.65.2.07-1.34,17L77.24,192c-1.11-2.21-2.21-4.44-3.25-6.71Zm70.42-1.61,23.1-21.94,1.22,15.71,1.49,19-25.84,19.82,0-32.55ZM79.78,196.44l1.35-17.3,1.35-17.37,23.1,21.94,0,32.56L79.78,196.44Zm28.69-8.87L123,207.72l-14.46,8.89Zm18.61,20.16,14.44-20.12,0,29-14.42-8.88Zm18,11.6,21.61-16.57a148,148,0,0,1-16.35,21.82l-5.25-5.25ZM83.29,202.77l21.59,16.56-5.24,5.25A147.91,147.91,0,0,1,83.29,202.77ZM109,219.68l16-9.82,15.93,9.82L125,245.78l-16-26.1Zm34.17,1.83,5.2,5.21A147.09,147.09,0,0,1,130,243.2Zm-41.61,5.21,5.2-5.2L120,243.19A146.31,146.31,0,0,1,101.6,226.72Z"/></g></svg>