<svg id="Layer_1" data-name="Layer 1" xmlns="http://www.w3.org/2000/svg" viewBox="0 0 250 250"><defs><style>.cls-1{fill:#231f20;}</style></defs><g id="mask0"><path class="cls-1" d="M125,0l-.13,0h-.06l-.42,0v0l-.18,0-.4.46c-4.14,4.79-8.44,10-12.83,15.61C104,25,97.33,34.22,91.5,42.86h0l-.26.4-.09.13,0,.06A347.13,347.13,0,0,0,72.38,75.17l-.31.58-.07.13h0a278.67,278.67,0,0,0-12.67,27.8h0l-.33.82a221.24,221.24,0,0,0-10.64,35.31l-.13.54,0,0,0,.26,0,.25v0a128,128,0,0,0-2.33,41.48l-.08.15.12.27v0a77.57,77.57,0,0,0,16.06,36.75v0l.34.41A78.89,78.89,0,0,0,75.32,233,80.52,80.52,0,0,0,91.2,242.6h0l.07,0,.15.09h0a81.51,81.51,0,0,0,16.2,5.39A80.09,80.09,0,0,0,124.3,250v0h1.44a80.24,80.24,0,0,0,16.61-1.89,82.18,82.18,0,0,0,16.24-5.42h.09l.06,0,.16,0,.13-.11A81,81,0,0,0,174.68,233a79.26,79.26,0,0,0,12.71-12.4h0l.4-.49h0a77.59,77.59,0,0,0,16.37-37.17v-.06l0,0A129.52,129.52,0,0,0,205,169v-.48a127.48,127.48,0,0,0-3.07-27.71v0A221.36,221.36,0,0,0,191.21,105l-.18-.49v0h0a280.6,280.6,0,0,0-13-28.62s0,0-.06-.07a350.6,350.6,0,0,0-19.07-32.34v0l0,0c-6-9-12.9-18.43-19.85-27.26C135,11,130.74,5.8,126.44.84V.72L126,.39s-.07,0-.1,0A1.65,1.65,0,0,0,125,0h0Zm2.12,6.46c3.22,3.83,6.4,7.68,9.44,11.58,6.59,8.36,13.05,17.23,18.83,25.78L132.76,57.49ZM94.63,43.82c5.66-8.38,12.13-17.24,18.83-25.77,3.19-4.07,6.33-7.9,9.43-11.58l-5.61,51L94.63,43.82Zm25.53,15.94L125,15.81l4.85,43.95L125,68.06l-4.84-8.3Zm14.85,0,22.08-13.36c5.83,8.85,11.27,18,16.25,27.35L135,59.74ZM92.92,46.39l22.19,13.42L76.68,73.74c5-9.34,10.41-18.51,16.25-27.36ZM75.24,77.45l41.09-14.93L108.42,94,84.86,115,75.24,77.44ZM141.59,94l-7.91-31.48,41.09,15L165.17,115,141.59,94ZM119.14,64.17l4.06,7L113.67,86l5.47-21.81Zm7.68,7,4.05-6.95L136.35,86ZM95,190.51l-4.6-36.09L111,96.23l.1,0,.19-.75L125,74.07,138.71,95.4l0,.25.11.09,20.75,58.68L155,190.5l-30,15.95L95,190.51ZM177.11,80.94c3.86,7.64,7.4,15.51,10.52,23.42l-19.19,10.41ZM62.43,104.38C65.54,96.45,69.05,88.63,72.91,81l8.67,33.78L62.43,104.38ZM143.66,100l20.73,18.39-3.89,29.19L143.66,100Zm-58,18.39L106.35,100,89.52,147.62ZM169,118l19.72-10.7A219.83,219.83,0,0,1,198,137.66L169,118ZM61.29,107.27,81,118l-28.95,19.7a219.21,219.21,0,0,1,9.24-30.38Zm101.55,46.45,4.42-33.22,31.16,21.19-15.08,32.63-20.5-20.6Zm-111.23-12,31.15-21.19,4.41,33.21-20.5,20.6L51.61,141.7Zm-1.3,4.6,13.75,29.8-15.27,4.51a124.08,124.08,0,0,1,1.52-34.31ZM186,176.05l13.73-29.74a124.74,124.74,0,0,1,1.51,34.29L186,176.05Zm-23.65-18.43,18.92,19-22.88,12.1,4-31.11Zm-93.59,19,18.93-19,4,31.1L68.75,176.62ZM54.39,201.31a73.58,73.58,0,0,1-5.25-17.65l15.35-4.54-2.34,35.71a75,75,0,0,1-7.75-13.52Zm131.15-22.18,15.34,4.58a75,75,0,0,1-5.24,17.6,74,74,0,0,1-7.76,13.52l-2.34-35.7Zm-37.5,37,9.64-23.5,24.75-13.09,2.49,38ZM67.6,179.51l24.66,13.06.14.47h.12L102,216.1l-36.86,1.42,2.49-38Zm60.91,28.59,24.87-13.22-8.44,20.6-16.43-7.38ZM96.64,194.88l25,13.28-16.55,7.32Zm9.85,23.2L125,209.9l18.46,8.29L125,245.68Zm41.93,1.1,34.81,1.35a77.66,77.66,0,0,1-10.47,10,76.67,76.67,0,0,1-13.85,8.55l-10.5-19.92ZM77.26,230.56a78.26,78.26,0,0,1-10.48-10l34.83-1.35-10.5,19.93a77.86,77.86,0,0,1-13.85-8.55Zm31.07,14.54A77.23,77.23,0,0,1,94,240.41l10.45-19.86L122,246.85a78.87,78.87,0,0,1-13.71-1.74Zm37.28-24.55,10.45,19.86a76.54,76.54,0,0,1-28.1,6.44Z"/></g></svg>