<svg id="Layer_1" data-name="Layer 1" xmlns="http://www.w3.org/2000/svg" viewBox="0 0 250 250"><defs><style>.cls-1{fill:#231f20;}</style></defs><g id="mask0"><path class="cls-1" d="M198.31.89H51.67L51.14,1l-.26.28s0,0,0,.05l-.09.1h0l-24,33.38c-.05.07-.07.16-.12.24l-.05.12-.06.15-.06.33,0,.11,0,.13V214.11l0,.13,0,.13.06.36.05.12s0,.08.07.13.06.17.11.23l24,33.35,0,0a.48.48,0,0,0,.09.11l0,.06.25.19,0,0,.19.14h147l.55-.09.26-.28,0-.06.06-.06,0,0,24-33.35.15-.28.05-.08.16-.31,0-.25V35.78a1.09,1.09,0,0,0,0-.26l0-.21,0-.12a1.7,1.7,0,0,0-.14-.24.67.67,0,0,0-.07-.18l-24-33.34h0l-.1-.11s0-.05,0-.07l-.45-.35Zm-144,3.26H195.66l-15.2,24H69.54ZM29.34,36,51.62,5,67.24,29.73,45,60.7,29.34,35.93Zm153.4-6.21L198.38,5,220.66,36,205,60.7l-22.28-31ZM79.67,31.44h90.79L125,54.88,79.67,31.44Zm52.07,24.67,47.87-24.18L176.33,69.4ZM70.38,31.93l47.76,24.19L73.64,69.4,70.38,31.93ZM182,33.53l20.66,28.73-23.76,6.89L182,33.53ZM47.33,62.21,68,33.57l3.1,35.58L47.33,62.21ZM28.92,125V40.46L43.65,63.75v122.5L28.92,209.54Zm177.45,61.23V63.75l14.71-23.27v169l-14.7-23.27ZM73.78,177.34l-1.07-52.15v-.07l0-.44,0-.12,1.07-51.89L125,58.2l51.21,14.44L177.28,125l-1.07,52.34L125,191.79,73.78,177.33Zm105-104.85,23.88-6.92L179.71,119ZM47.38,65.59l23.86,6.94-.95,46.37L47.38,65.59ZM180,125l23.82-55.48v111ZM46.18,69.52,70,125,46.18,180.48ZM178.75,177.46,179.7,131l22.92,53.39-23.86-7ZM70.29,131.1l.94,46.39-23.85,6.94L70.29,131.1Zm61.56,62.78,44.5-13.29L179.61,218ZM73.64,180.59l44.62,13.3L70.39,218.05l3.25-37.47Zm-26.33,7.15,23.76-6.9L68,216.47,47.31,187.74Zm131.61-6.89,23.76,6.93L182,216.47l-3.1-35.62Zm3.82,39.4L205,189.3l15.63,24.75L198.38,245l-15.64-24.74Zm-153.4-6.2L45,189.31l22.29,30.94L51.62,245,29.34,214.05ZM125,195.12l45.35,23.45H79.54L125,195.12ZM69.54,221.81H180.47l15.19,24.05H54.34Z"/></g></svg>