<svg id="Layer_1" data-name="Layer 1" xmlns="http://www.w3.org/2000/svg" viewBox="0 0 512 512"><defs><style>.cls-1,.cls-2,.cls-4{fill:none;}.cls-1{stroke:#888;stroke-miterlimit:10;stroke-width:1.06px;}.cls-2{fill-rule:evenodd;}.cls-3{fill:#231f20;}.cls-4{stroke:#231f20;stroke-width:2px;}</style></defs><circle class="cls-1" cx="115.84" cy="256" r="112.04"/><path id="Fill-21" class="cls-2" d="M176,351.51l11-7.35-2.75-22,22.5,8.27s20.2,24.8-12.86,28Z"/><path id="path3782" class="cls-3" d="M115.84,144a112,112,0,1,0,112,112A111.9,111.9,0,0,0,115.84,144Zm-1.38,3.21L86.91,183,75.43,155A100.41,100.41,0,0,1,114.46,147.17Zm4.13,0a109.11,109.11,0,0,1,36.74,7.35l-10.56,25.71ZM116.3,149l27.09,33.52L114,195.39,88.29,184.83Zm41.79,6.43A111,111,0,0,1,193,178.86l-45.46,2.29Zm-85.41.46L83.7,183,39.15,178.4A102.55,102.55,0,0,1,72.68,155.9Zm-34,25.25,46.37,5L73.59,212.84,43.75,225.69Zm-2.76.46,4.59,43.62L14.82,214.67A112.9,112.9,0,0,1,35.94,181.61Zm157.5,0-4.59,44.54-29.39-11.94-12.85-30.3Zm2.76.46c8.72,9.64,16.07,20.66,20.66,33.06l-25.71,10.56Zm-52.35,3.21,11.48,27.1-38.11-15.62Zm-56.48,2.3,23,9.18L77.27,211ZM114,198.14l43.63,17.91,17.45,40.87-17.91,40.87-44.09,17.9L74.51,298.25l-17-40.41,18.37-43.17ZM71.76,216.51,55.69,254.16l-11-25.71ZM13.9,217l25.71,10.56L6.55,254.62A116.81,116.81,0,0,1,13.9,217Zm146.94.92,26.17,11L176,253.7Zm56.94,0a103.4,103.4,0,0,1,6.89,37.65l-32.15-27.09ZM42.37,229.37l11.94,28.47L42.83,284.47l-34-27.09Zm147.4.46,33.06,27.55-32.6,27.55-11.94-28ZM7,258.76l33.52,26.63L14.82,296A89.9,89.9,0,0,1,7,258.76Zm217.66.45a114.83,114.83,0,0,1-7.81,37.66l-24.79-10.1Zm-48.22,1.38,11,25.26L161.3,296.41Zm-120.76.92,14.69,35.36L45.12,285.39Zm-11,26.17,28,12.4,11.48,27.55L41,332.68Zm144.19.46,3.22,44.09-45.92-1.84,13.31-30.77Zm-146.94,0L38.7,332.69a108.26,108.26,0,0,1-23-34Zm149.7.92,24.79,10.1a109.14,109.14,0,0,1-21.58,32.61Zm-35.82,12.4L143.85,329l-26.63-11.94Zm-79.9.46,33.52,15.15L86,326.72Zm37.19,16.53,29.39,13.32-24.79,31.68L87.37,329Zm-29.84,12.4L72.68,356.56A108.76,108.76,0,0,1,41.45,335.9Zm2.75.46,29.85,34a107.36,107.36,0,0,1-40.41-7.81Zm61.07,1.83L191.15,335a106,106,0,0,1-34,22Zm-2.75.92,10.1,23.88a104.22,104.22,0,0,1-34,6.89Z"/><path id="Stroke-19" class="cls-4" d="M57.52,354.73l-11-7.35,2.76-22-22.5,8.26s-20.21,24.8,12.85,28Z"/><path id="Stroke-11" class="cls-4" d="M19.87,197.68l7.8-10.56,23.42,2.76-9.18-21.59S15.74,149,12.52,180.69Z"/><path id="Stroke-23" class="cls-4" d="M176,352.43l11-7.35-2.75-22,22.5,8.27s20.2,24.79-12.86,28Z"/><path id="Stroke-15" class="cls-4" d="M213.65,197.68l-7.81-10.56-23.42,2.76,8.73-21.59s26.17-19.28,29.39,12.4Z"/><circle class="cls-1" cx="396.16" cy="256" r="112.04"/><path id="Fill-21-2" data-name="Fill-21" class="cls-2" d="M456.31,351.51l11-7.35-2.76-22,22.5,8.27s20.2,24.8-12.86,28Z"/><path id="path3782-2" data-name="path3782" class="cls-3" d="M396.16,144a112,112,0,1,0,112,112A111.9,111.9,0,0,0,396.16,144Zm-1.38,3.21L367.23,183l-11.48-28A100.41,100.41,0,0,1,394.78,147.17Zm4.14,0a109.1,109.1,0,0,1,36.73,7.35l-10.56,25.71Zm-2.3,1.84,27.09,33.52-29.39,12.86-25.71-10.56Zm41.79,6.43a111,111,0,0,1,34.89,23.42l-45.46,2.29ZM353,155.9,364,183l-44.54-4.59A102.41,102.41,0,0,1,353,155.9Zm-34,25.25,46.37,5-11.48,26.64-29.84,12.85Zm-2.76.46,4.59,43.62-25.71-10.56A112.9,112.9,0,0,1,316.26,181.61Zm157.5,0-4.59,44.54-29.39-11.94-12.85-30.3Zm2.76.46c8.72,9.64,16.07,20.66,20.66,33.06l-25.71,10.56Zm-52.35,3.21,11.48,27.1-38.11-15.62Zm-56.48,2.3,23,9.18L357.59,211Zm26.63,10.56L438,216.05l17.45,40.87-17.91,40.87-44.08,17.9-38.58-17.44-17-40.41,18.37-43.17Zm-42.24,18.37L336,254.16l-11-25.71Zm-57.86.46,25.71,10.56-33.06,27.09A116.81,116.81,0,0,1,294.22,217Zm146.94.92,26.18,11-11,24.79Zm56.94,0A103.4,103.4,0,0,1,505,255.54l-32.14-27.09ZM322.69,229.37l11.94,28.47-11.48,26.63-34-27.09Zm147.4.46,33.06,27.55-32.6,27.55-11.94-28ZM287.33,258.76l33.52,26.63L295.14,296A89.9,89.9,0,0,1,287.33,258.76Zm217.66.45a114.83,114.83,0,0,1-7.81,37.66l-24.79-10.1Zm-48.22,1.38,11,25.26-26.17,10.56ZM336,261.51l14.69,35.36-25.26-11.48Zm-11,26.17,28,12.4,11.48,27.55-43.17,5.05Zm144.18.46,3.22,44.09-45.92-1.84,13.31-30.77Zm-146.94,0L319,332.69a108.26,108.26,0,0,1-23-34Zm149.7.92,24.79,10.1a109,109,0,0,1-21.58,32.61Zm-35.82,12.4L424.17,329l-26.63-11.94Zm-79.9.46,33.52,15.15-23.42,9.65Zm37.2,16.53,29.38,13.32L398,363.45,367.69,329Zm-29.85,12.4L353,356.56a108.89,108.89,0,0,1-31.23-20.66Zm2.75.46,29.85,34a107.4,107.4,0,0,1-40.41-7.81Zm61.08,1.83L471.47,335a105.89,105.89,0,0,1-34,22Zm-2.76.92,10.1,23.88a104.22,104.22,0,0,1-34,6.89Z"/><path id="Stroke-19-2" data-name="Stroke-19" class="cls-4" d="M337.84,354.73l-11-7.35,2.76-22-22.5,8.26s-20.21,24.8,12.85,28Z"/><path id="Stroke-11-2" data-name="Stroke-11" class="cls-4" d="M300.19,197.68,308,187.12l23.41,2.76-9.18-21.59s-26.17-19.28-29.39,12.4Z"/><path id="Stroke-23-2" data-name="Stroke-23" class="cls-4" d="M456.31,352.43l11-7.35-2.76-22,22.5,8.27s20.2,24.79-12.86,28Z"/><path id="Stroke-15-2" data-name="Stroke-15" class="cls-4" d="M494,197.68l-7.81-10.56-23.42,2.76,8.73-21.59s26.17-19.28,29.39,12.4Z"/></svg>