<svg id="Layer_1" data-name="Layer 1" xmlns="http://www.w3.org/2000/svg" viewBox="0 0 512 512"><defs><style>.cls-1{fill:none;}.cls-2{fill:#231f20;}.cls-3{fill:#595959;}</style></defs><path class="cls-1" d="M255.7,224.76c-16.1,0-24-8.81-27.34-17.61a24.66,24.66,0,0,1-7.28,10.32,26.34,26.34,0,0,1-18.53,6.68,11.53,11.53,0,0,1-3.34-.3A29.28,29.28,0,0,1,181,215.34a24,24,0,0,1-4.56,5.17,29.4,29.4,0,0,1-19.74,7.29,33.8,33.8,0,0,1-5.46-.61,32.7,32.7,0,0,1-15.49-7,27,27,0,0,1-4.55,5.77,29.94,29.94,0,0,1-20,7c-1.82,0-4-.31-5.77-.31a35.47,35.47,0,0,1-9.11-3,25.52,25.52,0,0,1-7.89,11.54,27.55,27.55,0,0,1-16.71,5.46h-.6a26.34,26.34,0,0,1-6.38,8.81l.91,1.82a22.66,22.66,0,0,1,18.52,7.29,18,18,0,0,1,3.34,5.77,18.87,18.87,0,0,1,9.72-2.73,32.18,32.18,0,0,1,28.85,10,9.07,9.07,0,0,1,1.52,2.13,26.09,26.09,0,0,1,15.19-7h.3a31.07,31.07,0,0,1,32.49,14.58,32.39,32.39,0,0,1,21.87-12.45,28.59,28.59,0,0,1,23.69,8.5,28.2,28.2,0,0,1,6.37,10,29.57,29.57,0,0,1,38-17.31A30.22,30.22,0,0,1,283,294a26.45,26.45,0,0,1,6.68-10.33,28.61,28.61,0,0,1,23.69-8.5,32.74,32.74,0,0,1,22.77,13.67,23.62,23.62,0,0,1,4.86-7.29,29.68,29.68,0,0,1,27-8.51h.3a24.51,24.51,0,0,1,16.4,8.2,17.76,17.76,0,0,1,3-5.16,28.39,28.39,0,0,1,26.42-8.2,18.79,18.79,0,0,1,9.72,2.74,15.88,15.88,0,0,1,3.34-5.77,24.68,24.68,0,0,1,18.52-7.29,9.23,9.23,0,0,1,1.22-2.43,22.39,22.39,0,0,1-5.77-8.2h-.61a27.49,27.49,0,0,1-16.7-5.47,25.41,25.41,0,0,1-7.9-11.54,29.29,29.29,0,0,1-9.11,3,37.2,37.2,0,0,1-5.77.3c-7.29.31-14.27-2.43-20-7a21.55,21.55,0,0,1-4.56-5.77,31.45,31.45,0,0,1-15.48,7,33,33,0,0,1-5.47.61,31,31,0,0,1-19.74-7.29,24.5,24.5,0,0,1-4.56-5.16,30,30,0,0,1-18.22,8.5c-1.21,0-2.12.31-3.34.31a29.42,29.42,0,0,1-18.52-6.69,27.24,27.24,0,0,1-7.9-12.14C280.9,216,272.4,224.76,255.7,224.76Z"/><path class="cls-2" d="M116.61,225.06a15.53,15.53,0,0,0,10.32-6.37,19.35,19.35,0,0,0,3.65-11.54A13.15,13.15,0,0,0,126,196.82a22.48,22.48,0,0,1,.31,10,23.34,23.34,0,0,1-3.65,8.5,17.51,17.51,0,0,1-7,5.47,59.88,59.88,0,0,1-10,2.43A17.18,17.18,0,0,0,116.61,225.06Z"/><path class="cls-2" d="M152.44,221.11a16.91,16.91,0,0,0,12.76-1.21,20.6,20.6,0,0,0,8.5-9.11,12.61,12.61,0,0,0-.3-11.84,19.36,19.36,0,0,1-4.86,8.8,23,23,0,0,1-6.68,5.47,19.1,19.1,0,0,1-8.2,1.82,60.33,60.33,0,0,1-10.33-1.52A15.81,15.81,0,0,0,152.44,221.11Z"/><path class="cls-2" d="M79.26,205.63a25.49,25.49,0,0,1,5.46,8.5,23.7,23.7,0,0,1,1.22,9.11,16.35,16.35,0,0,1-3.34,8.2,41.91,41.91,0,0,1-7.29,7.29,19.37,19.37,0,0,0,10.63-4.25,16.94,16.94,0,0,0,5.77-10.63A19.19,19.19,0,0,0,89,212.31C86.54,208.66,83.2,206.23,79.26,205.63Z"/><path class="cls-2" d="M252.66,218.38c-4.86-.61-8.81-3-8.81-5.77,0-3.34,5.17-5.77,11.54-5.77s11.54,2.73,11.54,5.77c0,2.73-3.64,4.86-8.8,5.77,8.2-.61,14.27-4.25,14.27-8.5,0-4.86-7.59-8.81-17.31-8.81-9.42,0-17.31,4-17.31,8.81C238.39,214.13,244.76,217.47,252.66,218.38Z"/><path class="cls-2" d="M194.35,217.47a4.81,4.81,0,0,1-1.21-2.13c-.91-3.64,3.64-7.89,10.32-9.71,6.68-1.52,12.76,0,13.67,3.94a4.29,4.29,0,0,1-.31,2.74,7.19,7.19,0,0,0,2.74-6.68c-1.22-4.56-8.81-7-17.31-4.86s-14.28,7.29-13.06,12.15A7.78,7.78,0,0,0,194.35,217.47Z"/><path class="cls-2" d="M382.33,207.45A19.33,19.33,0,0,0,386,219a16.8,16.8,0,0,0,21.56,4.55,58.92,58.92,0,0,1-10-2.43,17.45,17.45,0,0,1-7-5.46,21.39,21.39,0,0,1-3.64-8.5,18.79,18.79,0,0,1,.3-10A12.53,12.53,0,0,0,382.33,207.45Z"/><path class="cls-2" d="M339.51,210.79A16.64,16.64,0,0,0,348,219.9a16.88,16.88,0,0,0,12.75,1.21,15.48,15.48,0,0,0,9.11-7.28c-3.34.6-6.68,1.21-10.32,1.51a18.93,18.93,0,0,1-8.2-1.82,23.88,23.88,0,0,1-6.68-5.46,22.66,22.66,0,0,1-4.86-8.81A12,12,0,0,0,339.51,210.79Z"/><path class="cls-2" d="M424.55,212.31a19.19,19.19,0,0,0-2.74,11.54,16.22,16.22,0,0,0,5.77,10.63,19.37,19.37,0,0,0,10.63,4.25,41.91,41.91,0,0,1-7.29-7.29,16.35,16.35,0,0,1-3.34-8.2,19,19,0,0,1,1.22-9.11,17.19,17.19,0,0,1,5.46-8.5A12.15,12.15,0,0,0,424.55,212.31Z"/><path class="cls-2" d="M295.78,209.57c.91-3.64,7-5.46,13.67-3.94s11.23,5.77,10.32,9.71a4.81,4.81,0,0,1-1.21,2.13,6.73,6.73,0,0,0,4.86-4.55c1.21-4.56-4.86-10-13.06-12.15-8.5-2.13-16.1.3-17.31,4.86a7.2,7.2,0,0,0,2.73,6.68Z"/><path class="cls-3" d="M20,258.47a8.23,8.23,0,0,0-.31,2.73l1.52-3.64Z"/><path class="cls-2" d="M496.21,277.9c-.3.31-.3.31-.6.31H495l-.3-.31a2.82,2.82,0,0,1-1.83,1.22,1.59,1.59,0,0,1-1.21-.61,1.83,1.83,0,0,1,.3-1.21l-3,6.68h0l-5.77,8.8a1.11,1.11,0,0,1-.91.31h-.31a.66.66,0,0,1-.61-.61,3.41,3.41,0,0,1-2.43.91c-2.42,0-4.85-2.73-6.68-7h-.91a.81.81,0,0,1-.91-.91v-.61l.61-1.22c-.3-.6-.3-1.51-.61-2.43-.3-1.82-.61-3.34-.91-4.85a41.28,41.28,0,0,1-.3-6.08l-2.13-1.52c-.3-.3-.61-.91-.3-1.21l.3-.31,2.13-1.21a62.2,62.2,0,0,1,2.12-12.75l-.91-2.13c-.3-.3,0-.61,0-.91a1.11,1.11,0,0,1,.91-.31l1.22.31c1.82-3.65,4-5.77,6.07-5.77a5.54,5.54,0,0,1,2.13.61v-1.22a.8.8,0,0,1,.91-.91c.3,0,.61.3.91.61l4.25,7.59,2.13-.91a36.71,36.71,0,0,0-2.43-4.86,55,55,0,0,1,1.21-7l-1.21-1.82a.74.74,0,0,1,.3-1.21.56.56,0,0,1,.91,0l1.22.3c1.21-3.34,2.73-5.46,3.94-5.46.92,0,1.52.6,2.43,2.12l-.91-2.73a1.81,1.81,0,0,1,.31-1.22c.3-.3.91,0,1.21.31l4.56,6.37c-1.83-4.85-4.26-8.2-7.6-8.5h0A24.37,24.37,0,0,0,481,209.27a28.67,28.67,0,0,0-15.18-1.21c-3-8.81-10-15.19-17.62-15.19A38.11,38.11,0,0,0,427.58,198a26.65,26.65,0,0,0-20.65-16.39,27.34,27.34,0,0,0-23.08,4.55c-.91.91-2.12,1.82-3,2.73-5.16-7.89-13.66-12.75-23.08-12.45a34.2,34.2,0,0,0-22.47,8.81,28,28,0,0,0-23.69-13.36,30.83,30.83,0,0,0-22.47,8.2,25,25,0,0,0-6.07,9.72c-4.56-11.24-15.79-18.83-27.94-18.23a29.4,29.4,0,0,0-27.33,16.71,20.63,20.63,0,0,0-5.47-7.9,30.85,30.85,0,0,0-22.47-8.2,27.66,27.66,0,0,0-23.69,13.36,32.19,32.19,0,0,0-22.47-8.8,27.22,27.22,0,0,0-23.08,12.45,27.88,27.88,0,0,0-3-2.74,28.48,28.48,0,0,0-23.08-4.55,27.8,27.8,0,0,0-20.65,16.4,40.85,40.85,0,0,0-20.65-5.16c-7.9,0-14.58,6.07-17.61,15.18a28.7,28.7,0,0,0-15.19,1.21,23.83,23.83,0,0,0-11.84,17,1.11,1.11,0,0,0-.91.3c-3.34.31-5.77,3.65-7.6,8.51L14.87,229c.31-.3.91-.61,1.22-.3,1.21,0,1.21.3,1.21.91l-.91,2.73c.91-1.21,1.82-2.12,2.43-2.12,1.22,0,2.74,1.82,3.95,5.46l1.21-.3c.61,0,.92,0,1.22.61v.91L24,238.73a46.69,46.69,0,0,1,1.22,7,24.52,24.52,0,0,0-2.43,4.86l2.13.91,4.25-7.59c0-.91.3-1.21.91-.91.3.3.61.61.61.91v1.22a4.28,4.28,0,0,1,2.12-.61c2.13,0,4.25,2.12,6.08,5.77l1.21-.31c.3,0,.91,0,.91.31a.57.57,0,0,1,0,.91l-.91,2.13a43.21,43.21,0,0,1,2.13,12.75l2.12,1.21c.31.31.61.92.31,1.22l-.31.3-2.12,1.52c0,2.13-.31,3.95-.31,6.08-.3,1.51-.61,3.34-.91,4.85-.3.92-.3,1.52-.61,2.43l.61,1.22c.3.3,0,.91-.3,1.21H39.17c-1.82,4.56-4.25,7-6.68,7a4.09,4.09,0,0,1-2.43-.91.65.65,0,0,1-.61.6h-.3c-.31,0-.61-.3-.91-.3l-5.77-8.81h0l-3-6.68c0,.61,0,.91.3,1.22a2.3,2.3,0,0,1-1.21.6c-.61,0-1.22-.6-1.82-1.21,0,.3-.31.61-.91.61-.31,0-.61,0-.61-.31L10,271.83c1.82,6.07,4.55,10.63,8.5,10.63a5.18,5.18,0,0,0,2.12-.3c2.13,8.8,6.69,14.57,11.85,14.57a22.8,22.8,0,0,0,8.8-2.73c2.43,11.54,9.72,20,18.23,20a29.5,29.5,0,0,0,16.7-4c4,9.42,11.84,16.1,21,16.1,13.06,0,19.74-3.64,24-9.11a27,27,0,0,0,23.69,16.09H147a35,35,0,0,0,24.9-11.54c4.86,10,14.88,16.1,26.12,16.4a27.15,27.15,0,0,0,14.57-4.25,34.81,34.81,0,0,0,13.67-15.18,30.25,30.25,0,0,0,58.31-.61,36.2,36.2,0,0,0,14,15.49,28.28,28.28,0,0,0,14.88,4.25A29,29,0,0,0,341,317.38c5.77,10.33,13.36,15.49,23.39,15.49h2.12A27.77,27.77,0,0,0,392.35,311a43.51,43.51,0,0,0,8.51,9.71l.3.31c.31.3.61.3.91.6a20.47,20.47,0,0,0,10,3.95h2.13c10.63,0,19.44-8.5,22.47-20.65a29.1,29.1,0,0,0,11.24,7.9c.3,0,.91.3,1.21.3s.31,0,.61.3c.61,0,1.22.31,2.13.31,8.5,0,16.09-8.5,18.22-20a23.14,23.14,0,0,0,8.8,2.73c5.17,0,9.72-5.77,11.85-14.58a4.4,4.4,0,0,0,2.12.31c3.95,0,6.69-4.26,8.51-10.63Zm-31.27,24.6-.61,1.82-1.52-.6a15.47,15.47,0,0,1-7.59,6.37l-.91.92c-.31.3-.31.3-.61.3h-.3a.65.65,0,0,1-.61-.61v-.3h-.61A13.16,13.16,0,0,1,441.86,304l-1.22.3h-.3a.8.8,0,0,1-.91-.91v-.3l.6-1.82a25.8,25.8,0,0,1-2.12-5.17,27.45,27.45,0,0,0-1.22-8.5l-1.82-1.52a1.11,1.11,0,0,1-.3-.91,1.09,1.09,0,0,1,.3-.61l1.82-.91A39.63,39.63,0,0,1,440,270.62l-.91-2.43a1.08,1.08,0,0,1,1.22-1.22l1.52.61a12.67,12.67,0,0,1,9.71-5.77l.31-1.22a.65.65,0,0,1,.6-.6,1.14,1.14,0,0,1,.92.3l1.51,2.13a15.83,15.83,0,0,1,7,5.77l1.21-.92,1.22,1.52L463.11,270a31.19,31.19,0,0,1,3.95,16.4,35.44,35.44,0,0,1-3.64,15.79ZM430,315.56c-.3,0-.3.3-.61.3h-.3l-.91-.3a17.94,17.94,0,0,1-12.15,7l-.3.3c-.31.3-.31.3-.61.3h-.3a.65.65,0,0,1-.61-.6h0a17.19,17.19,0,0,1-13.06-7h-.91a.8.8,0,0,1-.91-.91v-.3l.3-.92a30.13,30.13,0,0,1-4.86-15.79l-1.51-.91a1.1,1.1,0,0,1-.31-.91c0-.3.31-.61.61-.91l1.21-.61A28.35,28.35,0,0,1,400,279.42l-.61-1.52a1.06,1.06,0,0,1,1.21-1.21l1.22.3a18.4,18.4,0,0,1,11.84-6.37l.31-.92a.65.65,0,0,1,.6-.6,1.11,1.11,0,0,1,.91.3l.92,1.22a17.38,17.38,0,0,1,11.54,6.68l1.21-.61c.61-.3.91,0,1.22.3v3.95a31.47,31.47,0,0,1,3.94,12.45l2.13,1.82a.94.94,0,0,1,0,1.22l-2.13,2.73a31.47,31.47,0,0,1-3.94,12.45v2.74c0,.91,0,1.21-.31,1.21Zm-97.18,10.93a1.11,1.11,0,0,1-.3.91c-.31.31-.31.31-.61.31h-.3l-.91-.31a24.41,24.41,0,0,1-16.1,7l-.3.61a1.13,1.13,0,0,1-.91.3h0c-.31,0-.61-.3-.91-.61l-.31-.3a24.36,24.36,0,0,1-16.09-7l-1.22.31a1.57,1.57,0,0,1-1.21-.61v-.61l.3-1.21a28,28,0,0,1-6.38-15.79l-1.52-.91c-.3-.31-.6-.61-.6-.92s.3-.6.6-.91l1.52-.91a27.53,27.53,0,0,1,6.08-15.79l-.31-.91a1.1,1.1,0,0,1,.31-.91,1.11,1.11,0,0,1,.91-.3l.91.3a24,24,0,0,1,16.4-7.29c.3-.3.3-.3.61-.3a1.13,1.13,0,0,1,.91.3,24.34,24.34,0,0,1,17.31,7.29h.3a1.54,1.54,0,0,1,1.21.61v.91a28.09,28.09,0,0,1,6.69,16.7l.91.61a1.11,1.11,0,0,1,.3.91c0,.3-.3.61-.3.91l-.91.61a25.59,25.59,0,0,1-6.69,15.79Zm-58,3a1.57,1.57,0,0,1-.61,1.21h-.61l-.91-.3a26.71,26.71,0,0,1-16.09,6.38l-.61.91a1.12,1.12,0,0,1-.91.3h0c-.3,0-.61-.3-.91-.3l-.61-.91a25.89,25.89,0,0,1-15.79-6.38l-.91.3h-.31a.81.81,0,0,1-.91-.91v-.3l.31-.91a26.29,26.29,0,0,1-7.29-16.7l-.31-.31c-.3-.3-.6-.91-.3-1.21l.3-.31.61-.3c0-.61.31-1.52.31-2.13a29.79,29.79,0,0,0,.3-5.16A26.56,26.56,0,0,1,236,291.57c0-.3.3-.3.3-.61,10.33-10.32,27.33-10.63,37.66,0h.3l.3.31a26.13,26.13,0,0,1,6.69,12.45,14.93,14.93,0,0,0,.3,3.64c0,.61.3,1.22.3,1.82l.31.31c.3.3.6.91.3,1.21l-.3.31h-.31a27,27,0,0,1-7.29,17Zm-95.06-2.13h0c-.6,0-.6,0-.91-.3a1.12,1.12,0,0,1-.3-.91l.3-.91a28.35,28.35,0,0,1-6.68-15.79l-1.21-.61a1.49,1.49,0,0,1,0-1.82l1.21-.31a26.35,26.35,0,0,1,6.68-16.7v-.61a1.08,1.08,0,0,1,1.22-1.21h.3a24.89,24.89,0,0,1,17.31-7.29,1.13,1.13,0,0,1,.91-.3,1.05,1.05,0,0,1,.61.3,24.83,24.83,0,0,1,16.4,7.29l.91-.3a1.12,1.12,0,0,1,.91.3,1.1,1.1,0,0,1,.31.91l-.31.91a27.53,27.53,0,0,1,6.08,15.79l1.51.91c.31.31.61.61.61.91s-.3.61-.61.92l-1.51.91a26,26,0,0,1-6.38,15.79l.3,1.21c0,.61,0,.91-.61,1.22h-.6L215,327.4a24.36,24.36,0,0,1-16.09,7l-.31.3c-.3.31-.3.61-.91.61h0a1.13,1.13,0,0,1-.91-.3l-.3-.61a24.36,24.36,0,0,1-16.1-7Zm-82.9-4.25c-.3,0-.61,0-.61-.3l-.3-.3a17.29,17.29,0,0,1-12.15-7l-1.52.3a1.56,1.56,0,0,1-1.21-.6v-3a35.19,35.19,0,0,1-4-12.45L75,297a.94.94,0,0,1,0-1.22L77.13,294a25.06,25.06,0,0,1,4-12.45V277.9A.81.81,0,0,1,82,277h.3l1.22.61a19.53,19.53,0,0,1,11.54-6.68L96,269.7c.3-.3.61-.6.91-.3a.66.66,0,0,1,.61.61l.3.91a17.78,17.78,0,0,1,12.15,6.38l1.21-.31a1.09,1.09,0,0,1,1.22,1.22l-.61,1.52a30.13,30.13,0,0,1,5.16,14.88l1.22.6a.76.76,0,0,1,.3,1.22l-.3.3-1.52.91a28.48,28.48,0,0,1-4.86,15.79l.3.92v.91c-.3.3-.3.3-.6.3h-.92a18.12,18.12,0,0,1-13,7h0a.65.65,0,0,1-.61.6ZM46.76,302.5l1.22-.61a31.8,31.8,0,0,1-3.65-15.79,33.62,33.62,0,0,1,4-16.4l-1.22-1.21L48.28,267l1.21.91a14.75,14.75,0,0,1,7-5.77L58,260c.3-.31.6-.61.91-.31a.66.66,0,0,1,.61.61l.3,1.21a12.71,12.71,0,0,1,9.72,5.77l1.52-.6a1.06,1.06,0,0,1,1.21,1.21l-.91,2.43a27.77,27.77,0,0,1,3.34,13.06l1.82.91c.31.3.31.3.31.61a1.1,1.1,0,0,1-.31.91l-1.82,1.52a38,38,0,0,0-1.21,8.5A26.32,26.32,0,0,1,71.36,301l.61,1.83v.91c-.31.3-.31.3-.61.3h-.3l-1.22-.3a13.12,13.12,0,0,1-10.32,6.37h-.61v.31a.66.66,0,0,1-.61.61H58c-.31,0-.61,0-.61-.31l-.91-.91a14.22,14.22,0,0,1-7.59-6.38l-1.52.61ZM126,188.92a23.06,23.06,0,0,1,8.51,17.92,19.92,19.92,0,0,1-6.38,16.4A27.49,27.49,0,0,1,105.68,229a25.81,25.81,0,0,1-8.51-3,44.54,44.54,0,0,0,.61-6.68,25.07,25.07,0,0,0-10-19.13A23.55,23.55,0,0,1,106,185.28a45.9,45.9,0,0,1,6.38-.61A22.16,22.16,0,0,1,126,188.92Zm28.25-8.8c12.14,0,26.11,9.11,26.72,22.17a19.7,19.7,0,0,1-7.29,16.09,27.82,27.82,0,0,1-22.17,6.08,29.81,29.81,0,0,1-14.57-7,29.46,29.46,0,0,0,1.51-10.32,32.76,32.76,0,0,0-4.55-14.89A21.71,21.71,0,0,1,154.27,180.12Zm47.37-4.56a27,27,0,0,1,18.53,7,21.16,21.16,0,0,1,6.07,14.88,23.24,23.24,0,0,1-7.9,17.31,24.2,24.2,0,0,1-19.13,5.77,25.16,25.16,0,0,1-16.7-8.2,25.57,25.57,0,0,0,2.12-10.63,23.53,23.53,0,0,0-5.46-14A25.47,25.47,0,0,1,200.43,175C201,175.56,201.34,175.56,201.64,175.56Zm28.55,20.65c.3-11.84,11.54-21.26,25.51-21.26s25.51,10,25.51,22.17c0,5.77-1.83,24-25.51,24-19.44,0-24.91-14-25.51-22.77v-2.13Zm80.47-20.65h.91a24.18,24.18,0,0,1,21.26,12.76,23.48,23.48,0,0,0-5.46,14,21.5,21.5,0,0,0,2.12,10.63,26.56,26.56,0,0,1-16.7,8.19,24.13,24.13,0,0,1-19.13-5.77,23.22,23.22,0,0,1-7.9-17.31,21.2,21.2,0,0,1,6.07-14.88,25,25,0,0,1,18.83-7.59ZM358,180.12A24,24,0,0,1,378.69,192a28.63,28.63,0,0,0-4.56,14.88,24.6,24.6,0,0,0,1.52,10.33,28.52,28.52,0,0,1-14.57,7,25.76,25.76,0,0,1-22.17-6.07,19.3,19.3,0,0,1-7.29-16.1c.3-13.06,14.27-21.86,26.42-21.86Zm28.24,8.8a22.71,22.71,0,0,1,14-4.55,44.43,44.43,0,0,1,6.38.61,24,24,0,0,1,18.22,14.88,25.06,25.06,0,0,0-10,19.13,50.39,50.39,0,0,0,.6,6.68,22.07,22.07,0,0,1-8.5,3,27.21,27.21,0,0,1-22.47-5.77,19.87,19.87,0,0,1-6.38-16.4,22.09,22.09,0,0,1,8.2-17.62ZM462.51,209a31.64,31.64,0,0,0-10.33,4.55c-7.9,4.86-13.06,13.36-12.75,22.78a23.6,23.6,0,0,0,.91,6.68,24,24,0,0,1-14-4.56,22.44,22.44,0,0,1-7.9-18.82c0-6.38,5.47-22.78,30.07-22.78,6.07,0,11.23,4.86,14,12.15Zm-72.58,96.87a28.14,28.14,0,0,1-4.56,13.06V321a.81.81,0,0,1-.91.91h-.3l-1.22-.31a22.84,22.84,0,0,1-14.88,7.6h0c-.3.3-.3.3-.61.3h0c-.3,0-.3-.3-.6-.3a21,21,0,0,1-15.8-7.29h-.91c-.3,0-.61,0-.61-.31a.57.57,0,0,1,0-.91l.31-.91a27.75,27.75,0,0,1-5.47-16.09l-1.82-1.22a1.12,1.12,0,0,1-.3-.91c0-.3.3-.61.6-.91l1.52-.91a29.44,29.44,0,0,1,5.77-15.49l-.3-1.21a1.08,1.08,0,0,1,1.21-1.22l1.22.31a21.49,21.49,0,0,1,14.88-7v-.3a.65.65,0,0,1,.61-.61,1.13,1.13,0,0,1,.91.3l.3.61a20.61,20.61,0,0,1,14.58,7.29l1.21-.61h.91a1.11,1.11,0,0,1,.31.91l-.31,2.74a30.58,30.58,0,0,1,4.86,13.66L393,301c.31.31.31.31.31.61s0,.61-.31.61Zm-220.18-2.73-1.82,1.21a30.9,30.9,0,0,1-5.47,16.1l.31.91v.91c-.31.31-.31.31-.61.31h-.91a21,21,0,0,1-15.79,7.28c0,.31-.31.31-.61.31h0c-.3,0-.61,0-.61-.31h0a21,21,0,0,1-14.88-7.59l-1.21.31h-.31c-.3,0-.3,0-.6-.31a.93.93,0,0,1-.31-.61l.31-2.12a26,26,0,0,1-4.56-13.06l-3.34-2.73a.94.94,0,0,1,0-1.22h0l2.43-1.82A30.42,30.42,0,0,1,126.33,287l-.31-2.73a.81.81,0,0,1,.91-.91h.31l1.21.61A22.53,22.53,0,0,1,143,276.69l.3-.61c.31-.3.91-.61,1.22-.3a.29.29,0,0,1,.3.3v.31a21.52,21.52,0,0,1,14.88,7l1.22-.3a1.06,1.06,0,0,1,1.21,1.21v1.22A28.4,28.4,0,0,1,167.93,301l1.52.91c.3,0,.61.31.61.92A.3.3,0,0,1,169.75,303.11ZM68,260.9a19.12,19.12,0,0,1,13.36,5.77,12.18,12.18,0,0,1,3,5.46,27.93,27.93,0,0,0-6.08,7.29A31.47,31.47,0,0,0,68,260.9Zm209.24,27.94a30.24,30.24,0,0,0-42.82-.31l-.31.31A23.31,23.31,0,0,1,255.7,277.3a23.31,23.31,0,0,1,21.56,11.54ZM225,296.12a30.92,30.92,0,0,0-16.09-16.7,25.14,25.14,0,0,1,9.72,6.08A25.57,25.57,0,0,1,225,296.12Zm-64.68-17.91a36.62,36.62,0,0,1,6.38,4,29.43,29.43,0,0,1,6.68,8.5,24.52,24.52,0,0,0-2.43,4.86,31.54,31.54,0,0,0-10.63-17.31Zm-35.84,4.86h0c-.3.3-.3.6-.6.91a21.85,21.85,0,0,0-3.65,6.37,31.57,31.57,0,0,0-10.93-18.82,25.6,25.6,0,0,1,13.67,8.2l1.82,2.73c0,.3-.31.3-.31.61Zm263.3.91a12.82,12.82,0,0,1,3-6.08,21.19,21.19,0,0,1,11.54-6.68,29.69,29.69,0,0,0-11.24,19.13A18.42,18.42,0,0,0,387.8,284Zm-48.59,8.5a22.81,22.81,0,0,1,5.16-9.11,25.47,25.47,0,0,1,6.38-4.86,31.63,31.63,0,0,0-10,17c-.61-.91-.91-2.13-1.52-3Zm-46.46-7a25,25,0,0,1,9.71-6.08,30,30,0,0,0-16.09,16.7A25.49,25.49,0,0,1,292.75,285.5Zm134.53-13.37a12.18,12.18,0,0,1,3-5.46,18.08,18.08,0,0,1,13.36-5.77,28.8,28.8,0,0,0-10,18.52,29.37,29.37,0,0,0-6.38-7.29Zm39.17-37.35a28.39,28.39,0,0,0-6.37,8.5,46.4,46.4,0,0,0-5.17,3v-.61a17.94,17.94,0,0,1,2.13-8.8,22.38,22.38,0,0,1,6.07-7,20.54,20.54,0,0,1,9.11-3.95,13.23,13.23,0,0,0-11.23.31,18.58,18.58,0,0,0-8.81,7.89,16.75,16.75,0,0,0-1.52,12.15,23.28,23.28,0,0,0,.91,2.43c-.3.3-.6.3-.6.61a12.89,12.89,0,0,0-1.83,2.12A19.71,19.71,0,0,1,443.07,236,23.33,23.33,0,0,1,454,216.26a34.15,34.15,0,0,1,17.92-5.17,17.56,17.56,0,0,1,7.9,1.52,19.82,19.82,0,0,1,9.41,13.06,35.3,35.3,0,0,0-22.78,9.11ZM291.53,217.47a26.31,26.31,0,0,0,18.53,6.68,11.53,11.53,0,0,0,3.34-.3,29.28,29.28,0,0,0,18.22-8.51,24,24,0,0,0,4.55,5.17,29.42,29.42,0,0,0,19.74,7.29,33.92,33.92,0,0,0,5.47-.61,32.7,32.7,0,0,0,15.49-7,27,27,0,0,0,4.55,5.77,29.94,29.94,0,0,0,20.05,7c1.82,0,3.94-.31,5.77-.31a35.47,35.47,0,0,0,9.11-3,25.44,25.44,0,0,0,7.89,11.54,27.55,27.55,0,0,0,16.7,5.46h.61a25.24,25.24,0,0,0,5.77,8.2c-.3.91-.91,1.52-1.21,2.43a22.68,22.68,0,0,0-18.53,7.29,18,18,0,0,0-3.34,5.77,18.87,18.87,0,0,0-9.72-2.73,27.63,27.63,0,0,0-26.42,8.2,17.73,17.73,0,0,0-3,5.16,25.92,25.92,0,0,0-16.4-8.2h-.31a29.16,29.16,0,0,0-27,8.5,23.5,23.5,0,0,0-4.86,7.29,33.4,33.4,0,0,0-22.78-13.66,28.59,28.59,0,0,0-23.69,8.5,31.83,31.83,0,0,0-6.68,10.33,29.72,29.72,0,0,0-37.66-18.23,30.2,30.2,0,0,0-17.91,17.62,35,35,0,0,0-6.38-10,28.58,28.58,0,0,0-23.69-8.51c-8.8,1.22-16.7,5.47-21.86,12.45a31.08,31.08,0,0,0-32.5-14.57H143a25.2,25.2,0,0,0-15.19,7,12.52,12.52,0,0,0-1.51-2.12,32.18,32.18,0,0,0-28.85-10A18.88,18.88,0,0,0,87.76,270a15.88,15.88,0,0,0-3.34-5.77A24.73,24.73,0,0,0,65.89,257L65,255.13a26.2,26.2,0,0,0,6.38-8.81H72a27.49,27.49,0,0,0,16.7-5.47,25.43,25.43,0,0,0,7.9-11.54,29.29,29.29,0,0,0,9.11,3,37.13,37.13,0,0,0,5.77.3,30.41,30.41,0,0,0,20-7A21.17,21.17,0,0,0,136,219.9a31.52,31.52,0,0,0,15.49,7,32.83,32.83,0,0,0,5.47.61,31,31,0,0,0,19.74-7.29,23.93,23.93,0,0,0,4.55-5.16,30,30,0,0,0,18.22,8.5c1.22,0,2.13.31,3.35.31a29.47,29.47,0,0,0,18.52-6.68,24.8,24.8,0,0,0,7.29-10.33c3.34,8.5,10.93,17.62,27.33,17.62,17,0,25.21-8.81,27.94-19.14A23.18,23.18,0,0,0,291.53,217.47ZM94.14,219.29a23,23,0,0,1-7.9,18.83,22.65,22.65,0,0,1-14,4.56,25.23,25.23,0,0,0,.91-6.68,26.64,26.64,0,0,0-12.75-22.78,34.47,34.47,0,0,0-10.33-4.56c2.73-7.28,7.9-12.14,14-12.14C88.67,196.82,94.14,213.22,94.14,219.29ZM58.3,216.56A21.68,21.68,0,0,1,69.23,236.3a20.45,20.45,0,0,1-6.68,16.09c-.6-.6-1.21-1.51-1.82-2.12a15.67,15.67,0,0,0,0-15.49,18.48,18.48,0,0,0-8.81-7.9,13.23,13.23,0,0,0-11.23-.3,19,19,0,0,1,9.11,3.95,22.46,22.46,0,0,1,6.07,7A18,18,0,0,1,58,246.32v1.52a73.61,73.61,0,0,0-6.38-4,22.36,22.36,0,0,0-6.38-8.5,36.17,36.17,0,0,0-21.86-9.11,19.78,19.78,0,0,1,9.41-13.06,22.83,22.83,0,0,1,7.9-1.52,30.36,30.36,0,0,1,17.61,4.86ZM74.09,304c.31.91.31,1.82.61,2.73a11.67,11.67,0,0,1-4.25,2.43A26.71,26.71,0,0,0,74.09,304Zm44.34,5.47.91,3.64a17.66,17.66,0,0,1-7.89,7,31,31,0,0,0,7-10.63Zm46.16,14a29.5,29.5,0,0,0,4.86-8.51l.91,2.74a25.85,25.85,0,0,1-5.77,5.77Zm301.26-56.79a16.78,16.78,0,0,0-13.37-8.51c-.91-.3-1.82-.3-2.43-.6a15.77,15.77,0,0,1,3.95-5.17,32.55,32.55,0,0,1,19.13-8.5c-4.25,4.25-7,12.45-7.28,22.78Zm17.61-24.6a6.11,6.11,0,0,0-3.95-1.22,23.25,23.25,0,0,0-13.66.61,20.8,20.8,0,0,1,3.34-4A29.2,29.2,0,0,1,488,229.62a25.73,25.73,0,0,0-4.56,12.45ZM23.68,229.62a32.82,32.82,0,0,1,18.83,7.89,21.18,21.18,0,0,1,3.34,4,23.4,23.4,0,0,0-13.67-.61,8.57,8.57,0,0,0-3.94,1.22A29.31,29.31,0,0,0,23.68,229.62Zm15.19,14.27A31.76,31.76,0,0,1,58,252.39a33.16,33.16,0,0,1,4,5.17,5.72,5.72,0,0,0-2.43.6,16.78,16.78,0,0,0-13.37,8.51c-.6-10.33-3.34-18.53-7.28-22.78Z"/><path class="cls-3" d="M490.44,257.56,492,261.2c0-.91-.3-1.82-.3-2.73Z"/><path class="cls-2" d="M196.78,334.39l.31.61a1.11,1.11,0,0,0,.91.3h0c.3,0,.6-.3.91-.61l.3-.3,4.86-9.42,11.24,2.43,1.21.31h.3a.81.81,0,0,0,.92-.91v-.31l-.31-1.21-3-10.33,9.41-5.46,1.52-.91c.3-.31.61-.61.61-.92s-.31-.6-.61-.91l-1.52-.91-9.72-5.16,3.34-10.33.31-.91a1.11,1.11,0,0,0-.31-.91,1.12,1.12,0,0,0-.91-.3l-.91.3L204.37,291l-5.16-9.72h0c-.3-.3-.3-.3-.61-.3a1.13,1.13,0,0,0-.91.3h0l-7,10-10.33-2.74h-.3a1.09,1.09,0,0,0-1.22,1.22v.6l1.83,11.24-8.51,5.16-.91.61a1.12,1.12,0,0,0-.3.91c0,.31.3.61.3.91l1.22.61,8.2,5.47-1.83,10.32-.3.91a1.11,1.11,0,0,0,.3.91c.31.31.31.31.61.31h.31l.91-.31L190.4,325ZM192.83,291l5.47-7.89,3.95,7.89Zm10.63,1.82,8.51,8.51v12.45l-8.81,8.81H191l-8.5-8.51V301.59l8.81-8.81Zm-1.52,31.89-4.25,7.9-5.46-7.9Zm3.34-1.52,3.65-3.64,3.34-3.34,2.73,9.41Zm8.51-10.32v-10l8.8,5.16Zm-1.22-13.67-6.68-6.68,9.42-2.13Zm-23.38-6.68-7,7-1.51-9.12Zm-8.5,10.63v9.72L173.4,308Zm1.51,13.67,6.69,6.68-8.2,2.12Z"/><path class="cls-2" d="M169.45,301.59l-1.52-.91-9.41-4.56,3.94-10.93.31-1.21a1.09,1.09,0,0,0-1.22-1.22l-1.21.31-11.24,3.34-3.34-10v-.31c-.3-.61-.61-.61-1.21-.61a.3.3,0,0,0-.31.31l-.6.61-7.29,10.32-7.59-3-1.22-.6c-.61-.31-.91,0-1.21.6V284l.3,2.73.61,10-5.17,3.65-2.42,1.82c-.31.3-.61.91-.31,1.21h0l2.43,2.43,5.16,4.86-.6,8.2L126,321c0,.3,0,.6.31.6s.3.31.6.31h.31l1.21-.31,7.29-1.51,7.59,9.11h0c.31.3.31.3.61.3h0c.3,0,.3-.3.61-.3l.3-.31,3.65-8.8,11.84,1.82h.91c.3,0,.61,0,.61-.31a.57.57,0,0,0,0-.91l-.31-.6-3.94-10L167,304l1.82-1.21a1.12,1.12,0,0,0,.31-.92C170.06,302.2,169.75,301.89,169.45,301.59Zm-31-14.88,5.77-8.5,3,8.5Zm10,1.82,7.89,8.51v12.75l-8.5,8.81H136.65l-7.89-8.51V297.64l8.2-8.8H148.5ZM147,320.42l-3,6.68-5.77-6.68Zm10-25.51-2.13-2.13-4.25-4.55,9.72-3Zm-28.24,0-.61-9.72,7,2.74Zm-1.83,3.95v9.41l-5.77-5.46Zm1.83,13.66,5.77,6.38-6.38,1.22Zm21.56,6.38,6.68-7,3.34,8.5Zm7.89-10.63v-10l9.11,4.25Z"/><path class="cls-2" d="M97.78,322.55h0l2.43-8.51,10.63,1.82h.91c.3,0,.61,0,.61-.3a.57.57,0,0,0,0-.91l-.31-.91L108.11,304l8.8-6.07,1.52-.91c.3-.31.61-.92.3-1.22l-.3-.3-1.52-.91-8.8-4.56,3.94-10.32.61-1.52a1.08,1.08,0,0,0-1.21-1.22l-1.22.31-9.72,3-2.12-9.41-.31-.61a.65.65,0,0,0-.6-.61,1.09,1.09,0,0,0-.91.31l-.92,1.21-6.07,9.42-5.47-2.74-1.21-.6c-.61-.31-.91,0-1.22.3v13.06L77.74,294l-2.13,1.82a.94.94,0,0,0,0,1.22l2.13,2.73,3.64,4.55V315a.8.8,0,0,0,.91.91h.31l.91-.3L89,314l6.68,8.51.31.3c.3.3.3.3.61.3h.3C97.17,323.15,97.48,322.85,97.78,322.55ZM77.13,296.73l4-3.64v8.5ZM99.3,282.46l6.68,8.2v12.45l-7,8.81H89.58l-6.68-8.2V291.27l7-8.81Zm-.91,31.28-2.13,6.68L91.1,314h7.29Zm2.73-1.52,5.47-6.68,3.34,8.2Zm6.68-10.33v-9.71l8.2,4.25Zm-1.21-13.05-4-5.17-1.22-1.51,8.81-2.74Zm-7.9-8.2H91.4l5.47-7.9ZM85.33,285.5l-2.43,2.73v-8.81l5.16,2.43Zm2.43,27-4.56,1.22v-7Z"/><path class="cls-2" d="M15.48,277.9a1.81,1.81,0,0,0,1.22.31l.3-.31c0-.3.3-.6,0-.91l-3-7.29,4.86.61v4.86l.61,1.52,3,6.68h0l5.77,8.81a1.11,1.11,0,0,0,.91.3h.3a.66.66,0,0,0,.61-.61v-.3l.3-7.59,8.81,1.52h.91a.81.81,0,0,0,.91-.92V284l-.61-1.22-4.86-8.5,7-4.86,2.13-1.52c.3-.3.6-.91.3-1.21l-.3-.31-2.13-1.21-7-3.65,4.56-9.11.91-2.12c.3-.31,0-.61,0-.91a1.1,1.1,0,0,0-.91-.31l-1.52,1.22L30.67,253v-9.11c0-.61-.61-.91-1.22-.91-.3,0-.61.3-.91.61l-4.25,7.59-2.13-.91-5.46-2.43,6.68-9.11,1.21-1.82a.75.75,0,0,0-.3-1.22.57.57,0,0,0-.91,0l-1.22.31-8.5,2.73,2.13-6.08,1.51-3c.31-.61,0-.91-.6-1.22-.31,0-.91,0-.91.31l-4.56,6.37-3,3.95v.31h0l-3,8.5v12.75l2.43,8.2h0v.31L10,271.83Zm5.16-3V263l3.65-7.89h4.86l4,7.59v11.84l-4.26,7.9H24.29Zm8.2-27.64v6.08H25.2Zm-9.11,14-.6,1.22v.3L17,260.29l3.34-1.82,1.22-.61Zm-3.94.91,3.34,3.95v3L14,268.19Zm12.75,27-3.34-4.86h3.34ZM31,282.76l2.73-5.46.31-.61L38.26,284ZM41.9,267.88l-7,5.16v-8.8ZM31,254.82l7-2.43-4.25,8.2Zm-7.29-2.12-.61,1.21h0l-.3.91-6.07,3.65v-9.11Zm-8.2-7-1.82-5.46,7.9-2.43-6.08,7.89Zm-2.12-10.93-1.52,3.95H10.32ZM7,248.45l2.43-7.9h2.73l2.43,7.59V260l-2.73,7.89H9.1L7,260.29Zm4.86,21.25,1.21,2.74-2.43-2.74Z"/><path class="cls-2" d="M51,302.5l5.47,7.29.91.91c.3.31.3.31.61.31h.3a.66.66,0,0,0,.61-.61v-.31L61,302.2l8.81,1.52,1.22.3h.3c.3,0,.61,0,.61-.3a.57.57,0,0,0,0-.91L71.36,301,68,292.48l6.38-5.16,1.82-1.52a1.12,1.12,0,0,0,.3-.91,1.05,1.05,0,0,0-.3-.61l-1.82-.91-6.08-3.95,3-9.11.91-2.43a1.06,1.06,0,0,0-1.21-1.21l-1.52.6L61.64,270l-1.82-8.51-.3-1.21a.66.66,0,0,0-.61-.61A1.09,1.09,0,0,0,58,260l-1.52,2.12-4.56,7.59-2.12-1.82L48.58,267l-1.21,1.52,1.21,1.21,2.13,1.83-5.47,8.2c0,.3,0,.3-.3.6v12.45c0,.31,0,.31.3.61L50.1,301l-2.12.91-1.22.61.61,1.82,1.52-.6Zm6.68,5.77-4.55-6.07h6.07Zm4.56-7.59,4.86-6.38,3,7.59Zm5.77-10v-9.11l6.38,3.95Zm1.82-21.56-3,8.8-4.55-6.07ZM58,263l1.82,7.6H53.44ZM46.76,280.64l5.47-8.2h8.2l6.07,7.89v11.85l-6.38,8.2h-8.2L49.8,297l-3-4.56Z"/><path class="cls-2" d="M339.21,309.49l1.21-.61a1.1,1.1,0,0,0,.31-.91c0-.31-.31-.61-.31-.91l-.91-.61-8.2-5.77,1.83-11.24v-.6c0-.61-.31-.91-.92-1.22h-.6l-10.33,2.73-7-10h0a1.13,1.13,0,0,0-.91-.3,1.05,1.05,0,0,0-.61.3h0l-5.16,9.72-11.24-2.43-.91-.3a1.12,1.12,0,0,0-.91.3,1.11,1.11,0,0,0-.31.91l.31.91,3.34,10.33-9.42,5.47-1.82,1.51c-.3.31-.61.61-.61.91s.31.61.61.92l1.52.91L297.6,315l-3,10.33-.31,1.21c0,.61,0,.91.61,1.22h.61l1.21-.31L307.93,325l4.86,9.42.3.3c.31.31.31.61.91.61h0a1.11,1.11,0,0,0,.91-.3l.31-.61L321.6,325l9.71,2.43.91.31h.31c.3,0,.3,0,.61-.31a1.11,1.11,0,0,0,.3-.91l-.3-.91-1.83-10.32Zm-8.5-6.38L338,308l-7.28,4.86ZM309.14,291l3.95-7.89,5.47,7.89Zm10.94,1.82,8.8,8.81V314l-8.5,8.51H308.23l-8.8-8.81V301.29l8.5-8.51Zm-.91,31.89-5.47,7.9-4.25-7.9Zm10-25.2-7-7,8.51-2.13Zm-23.39-7-6.68,6.68-2.73-8.81Zm-8.2,10v10.33l-8.8-5.17Zm1.52,13.67,3.34,3.34,3.65,3.64-10,2.13Zm23.69,7,6.68-6.68,1.52,8.81Z"/><path class="cls-2" d="M392.35,303.41a.92.92,0,0,0,.31-.6c0-.31,0-.61-.31-.61l-2.42-1.82-5.17-3.65.61-10,.3-2.73a1.11,1.11,0,0,0-.3-.91.56.56,0,0,0-.91,0l-1.22.6-7.59,3-7.29-10.32-.3-.61a1.1,1.1,0,0,0-.91-.31.66.66,0,0,0-.61.61v.31l-3.64,10.32-11.24-3.34-1.21-.3a1.14,1.14,0,0,0-.92.3,1.12,1.12,0,0,0-.3.91l.3,1.22,4,10.93L344.07,301l-1.52.91c-.3,0-.61.31-.61.92a1.11,1.11,0,0,0,.31.91l1.82,1.21,9.72,6.08-4,10-.31.91v.91c.31.3.31.3.61.3h.91l11.85-1.82,4,8.81.3.3c0,.31.3.31.61.31h0c.3,0,.6,0,.6-.31h0l7.6-9.11,7.28,1.52,1.22.3h.3a.8.8,0,0,0,.91-.91h0v-2.12l-.6-8.2,5.16-4.86Zm-7.89,4.86v-9.41l5.77,3.95Zm-7.59,10.63,5.77-6.38.6,7.6Zm-13.37-.3-8.19-8.81V297.34l7.89-8.5h11.24l8.2,8.8v12.45l-7.9,8.51Zm.61-31.89,3-8.5,5.77,8.5Zm9.11,33.71-5.77,7-3-6.68Zm9.72-25.51-6.38-7,7-2.74Zm-21.86-6.68-4.26,4.55-2.12,2.13-3.34-9.72Zm-7.6,10v10l-9.11-5.77Zm1.22,13.67,6.68,7-10,1.52Z"/><path class="cls-2" d="M430.32,304.32l3.64-4.55,2.13-2.73a.94.94,0,0,0,0-1.22L434,294l-3.64-3.34V277.9a.81.81,0,0,0-.92-.91h-.3l-1.21.61-5.47,2.73-6.07-9.41-.92-1.22c-.3-.3-.6-.6-.91-.3a.65.65,0,0,0-.6.61l-.31.91-2.12,9.41-9.72-3-1.22-.31a1.08,1.08,0,0,0-1.21,1.22l.61,1.52,3.94,10.32-8.8,4.56-1.22.6c-.3,0-.6.31-.6.91a1.14,1.14,0,0,0,.3.92l1.52.91,8.8,6.07L400,313.74l-.31.91c-.3.61,0,.91.61,1.21h1.22L412.09,314l2.43,8.51h0a.65.65,0,0,0,.61.6h.3c.31,0,.61,0,.61-.3l.31-.3L423,314l5.46,1.52.91.3h.31c.3,0,.3,0,.61-.3s.3-.3.3-.61v-2.73Zm-1.83,9.42-4.55-1.22,4.55-5.77Zm5.77-17-3.94,4.86v-8.5Zm-14,17-5.16,6.38-1.82-6.38Zm-7.89-1.82-7-8.81V290.66l6.68-8.2h9.42l7,8.81v12.45l-6.68,8.2Zm16.09-23.69-2.12-2.73-2.74-3.65,5.17-2.43ZM413,280.64l1.82-7.9,5.46,7.9Zm-2.74,1.52-1.21,1.51-3.95,5.17-3.34-9.42Zm-6.68,10v9.71l-8.2-5.77Zm1.22,13.36,5.46,6.68-8.8,1.52Z"/><path class="cls-2" d="M506.54,247.84l-2.43-8.5h0V239l-3-3.95-4.55-6.37c-.31-.31-.91-.61-1.22-.31s-.6.61-.3,1.22l.91,2.73,2.13,6.07-8.51-2.73-1.21-.3c-.61,0-.91,0-1.22.61v.91l1.22,1.82,6.68,9.11-5.47,2.43-2.12.91-4.25-7.59c-.31-.31-.91-.61-1.22-.31s-.61.61-.61.91v9.12l-7.89-2.74-1.22-.3c-.3,0-.91,0-.91.3a.57.57,0,0,0,0,.91l.91,2.13,4.56,9.11-7,3.64-2.12,1.22c-.31.3-.61.91-.31,1.21l.31.31,2.12,1.52,7,4.85L471.92,284l-.61,1.21c-.3.31,0,.91.31,1.22h1.51l8.81-1.52.31,7.59v.3a.65.65,0,0,0,.6.61h.31c.3,0,.6-.3.91-.3l5.77-8.81h0l3-6.68.61-1.52v-4.86l4.86-.6-3,7.28v.91l.31.31h.6c.31,0,.61,0,.61-.31l5.16-6.07,2.43-2.73v-.31h0l2.43-8.2v-.3l-.3-13.36Zm-19.13,34.62h-4.86l-3.95-7.9V262.72l3.95-7.59h4.86l3.64,7.89v11.85Zm7.89-33.1v9.11l-6.07-3.65-.3-.91h0l-.61-1.21Zm.61-3.34-6.07-8.2,7.89,2.43L495.91,246Zm-13.06,1.21,3.34,6.08h-3.34ZM492.57,263v-.3L492,261.5l-1.52-3.64,1.22.61,3.34,1.82Zm7-24.29L498,234.78l2.73,3.95Zm-21.87,21.86-4.25-8.2,7,2.43Zm-.91,3.65V273l-7-5.16Zm.61,12.45,3,6.07L473.13,284Zm8.8,7.59-3.34,4.86v-4.86Zm6.38-18.52,3.34-3.95,2.13,6.07-5.17.91v-3Zm7.29,3.94h1.21l-2.43,2.74Zm4.55-9.41-2.12,7.59h-2.73L496.82,260V248.14l2.43-7.59H502l2.43,7.9Z"/><path class="cls-2" d="M466.45,293.39a1,1,0,0,0,.31-.61V280c0-.3,0-.3-.31-.61l-5.46-8.2,2.12-1.82,1.22-1.21-1.22-1.52-1.21.91-2.13,1.82-4.55-7.59-1.52-2.13c-.3-.3-.61-.6-.91-.3a.65.65,0,0,0-.61.61l-.3,1.21-1.83,8.5L442.16,267l-1.52-.61a1.1,1.1,0,0,0-.91.31,1.11,1.11,0,0,0-.3.91l.91,2.43,3,9.11L437,283.07l-1.83.91c-.3.3-.3.3-.3.6a1.14,1.14,0,0,0,.3.92L437,287l6.37,5.17-3.34,8.5-.6,1.82c-.31.61,0,.91.6,1.22h.61l1.22-.31,8.8-1.52,2.13,7.9v.3a.65.65,0,0,0,.61.61h.3c.3,0,.61,0,.61-.3l.91-.91,5.46-7.29,2.13.91,1.52.61.61-1.83-1.22-.6-2.13-.91Zm-1.51-.91L461,298.25l-1.22,2.13h-8.2l-6.37-8.2V280.33l6.07-7.89h8.2l5.47,8.2ZM453.7,263l4.55,7.6h-6.37Zm-4.25,8.81-4.56,6.07-3-8.8Zm-6.08,9.72v9.11L437,285.5Zm1.22,12.75,4.86,6.38-7.59,1.21Zm9.41,14-1.52-6.07h6.08Z"/><path class="cls-2" d="M282.12,311.61h0a1.11,1.11,0,0,0,.6-1.52l-.3-.3h-.3l-9.72-6.07,2.73-11.24v-.61a.29.29,0,0,0-.3-.3h-.31c-.3,0-.3-.3-.6,0l-11.24,2.73-6.07-10a1.13,1.13,0,0,0-.91-.3h0c-.31,0-.61.3-.91.3l-6.08,10-11.54-2.73h-.61c-.3,0-.3.3-.3.61v.6L239,304.32l-9.41,6.08-.61.3c-.3.31-.61.91-.3,1.22l.3.3.31.3,10,6.08-2.43,10.32-.31.91a1.61,1.61,0,0,0,.61,1.22h.61l.91-.31L249,328.32l5.46,8.8.61.91a1.1,1.1,0,0,0,.91.31h0c.3,0,.61-.31.91-.31l.61-.91,5.46-8.8,10.63,2.42.91.31h.31a.81.81,0,0,0,.91-.91v-.31l-.3-.91-3-10.93Zm-26.73,24-4.86-7.89h9.72Zm16.71-19.74v-10L280,310.7Zm-22.78,10-8.5-8.51V304.93l8.8-8.81h12.15l8.5,8.51v12.45l-8.8,8.81Zm21.26-23.69-6.68-6.68,8.8-2.13ZM251.14,294l4.86-7.9,4.86,7.9Zm-3.64,1.52-3.65,3.64-3.64,3.65-2.13-9.11ZM239,306.15v10l-7.89-4.86Zm1.52,13.36,6.68,6.68-8.8,2.13Zm23.08,7,7-7,2.12,9.11Z"/></svg>