<svg id="Layer_1" data-name="Layer 1" xmlns="http://www.w3.org/2000/svg" xmlns:xlink="http://www.w3.org/1999/xlink" viewBox="0 0 512 250"><defs><style>.cls-1{fill:#231f20;}.cls-2{clip-path:url(#clip-path);}.cls-3{clip-path:url(#clip-path-2);}.cls-4{clip-path:url(#clip-path-3);}.cls-5{clip-path:url(#clip-path-5);}.cls-6{clip-path:url(#clip-path-7);}.cls-7{clip-path:url(#clip-path-9);}.cls-8{clip-path:url(#clip-path-11);}.cls-9{clip-path:url(#clip-path-13);}.cls-10{clip-path:url(#clip-path-15);}.cls-11{clip-path:url(#clip-path-17);}.cls-12{clip-path:url(#clip-path-19);}.cls-13{clip-path:url(#clip-path-21);}.cls-14{clip-path:url(#clip-path-23);}.cls-15{clip-path:url(#clip-path-25);}.cls-16{clip-path:url(#clip-path-27);}.cls-17{clip-path:url(#clip-path-29);}.cls-18{clip-path:url(#clip-path-31);}.cls-19{clip-path:url(#clip-path-33);}.cls-20{clip-path:url(#clip-path-35);}.cls-21{clip-path:url(#clip-path-37);}.cls-22{clip-path:url(#clip-path-39);}.cls-23{clip-path:url(#clip-path-41);}.cls-24{clip-path:url(#clip-path-43);}.cls-25{clip-path:url(#clip-path-45);}.cls-26{clip-path:url(#clip-path-47);}.cls-27{clip-path:url(#clip-path-49);}.cls-28{clip-path:url(#clip-path-51);}.cls-29{clip-path:url(#clip-path-53);}.cls-30{clip-path:url(#clip-path-55);}.cls-31{clip-path:url(#clip-path-57);}.cls-32{clip-path:url(#clip-path-59);}.cls-33{clip-path:url(#clip-path-61);}.cls-34{clip-path:url(#clip-path-63);}.cls-35{clip-path:url(#clip-path-65);}.cls-36{clip-path:url(#clip-path-67);}.cls-37{clip-path:url(#clip-path-69);}.cls-38{clip-path:url(#clip-path-71);}</style><clipPath id="clip-path"><polygon class="cls-1" points="257.53 228.73 256.88 228.73 257.09 204.87 257.75 204.87 257.53 228.73"/></clipPath><clipPath id="clip-path-2"><rect class="cls-1" x="6.31" y="2.89" width="495.65" height="391.93"/></clipPath><clipPath id="clip-path-3"><polygon class="cls-1" points="258.19 229.82 256 229.82 256.44 203.78 258.63 204 258.19 229.82"/></clipPath><clipPath id="clip-path-5"><path class="cls-1" d="M229.3,219.75l27.79,8.1,27.58-7.66,23.85-22.32,15.76-33L330,125.66l-5.48-39.39L308.74,52.79,285.1,30.46l-27.79-8.09-27.79,7.44-23.63,22.1L190.13,85l-5.69,39.39,5.47,39.39,15.76,33.48Zm27.79,10.07-28.44-8.1-24.08-23-15.75-33.92-5.47-40.27v-.22L189,84.52,205.23,50.6,229.3,28.06l28.23-7.88L286,28.28l24.07,23,15.76,33.92,5.69,40.49L326,165.48l-16.2,33.92-24.07,22.54Z"/></clipPath><clipPath id="clip-path-7"><path class="cls-1" d="M229.74,218.88l27.57,7.88,27.58-7.44,23.63-21.89,15.76-33,5.25-38.51-5.25-39L308.52,53.44l-23.2-22.32-27.57-7.88L230.18,30.9,206.54,52.79l-15.75,33-5.25,38.73,5.25,38.95,15.54,33.05Zm27.57,12h-.22l-28.44-8.31-24.29-23.2-16.2-34.35-5.47-40.49,5.91-40.48L205,49.94,229.3,27.18l28.45-7.88,28.67,8.32,24.29,23.2L326.9,85.39l5.69,40.27-5.91,40.48-16.41,34.14L286,223Z"/></clipPath><clipPath id="clip-path-9"><path class="cls-1" d="M217.92,181h79.22V69H217.92Zm79.88.88H217.05v-114H297.8Z"/></clipPath><clipPath id="clip-path-11"><path class="cls-1" d="M218.8,179.93h77.68V70.07H218.8ZM298.67,183H216.39V67h82.06Z"/></clipPath><clipPath id="clip-path-13"><path class="cls-1" d="M201.51,125l56,79.22,56-79.22-56-79.22Zm56,81-57.11-81,57.11-80.75L314.65,125Z"/></clipPath><clipPath id="clip-path-15"><path class="cls-1" d="M202.61,125l54.92,77.69L312.46,125,257.53,47.31Zm54.92,82.06-.65-.65L199.32,125l.44-.66,57.77-81.4.44.65L315.52,125l-.44.66Z"/></clipPath><clipPath id="clip-path-17"><path class="cls-1" d="M257.53,204.22l27.57,16.19,12-39.39,27.35-16L313.55,125l11.38-38.95L297.14,69,285.76,29.81,257.53,45.56,230,29.37l-12,39.39L190.35,85.17,201.51,125,190.13,164,217.92,181,229.3,220Zm28,17.5-28-16.41-28.67,16L217.27,181.9,189,164.39l11.6-39.61L189.26,84.3l28-16.41,12.25-39.83,28,16.41,28.67-16,11.6,39.6,28.44,17.29L314.65,125,326,165.48,298,181.9Z"/></clipPath><clipPath id="clip-path-19"><path class="cls-1" d="M257.53,203.12h.22l26.92,15.76,11.81-38.73h.22l26.92-16-10.94-39.39v-.44l11.16-38.07L296.48,69.42V69L285.1,30.9,257.31,46.44h-.22L230.18,30.68,218.36,69.42h-.22L191.23,85.17l10.94,39.39V125L191,162.86l27.35,16.85,11.38,38.51ZM286,223.26l-28.45-16.64-28.88,16.2-11.82-40-28.67-17.72L199.76,125,188.38,83.86l28.23-16.63,12.47-40.49,28.23,16.64,28.89-16.2L298,67.23l28.66,17.51L315.08,125l11.38,41.14-28.23,16.63Z"/></clipPath><clipPath id="clip-path-21"><polygon class="cls-1" points="217.27 68.76 205.45 51.47 206.11 50.82 217.92 68.1 217.27 68.76"/></clipPath><clipPath id="clip-path-23"><polygon class="cls-1" points="217.27 70.29 204.57 51.47 206.11 49.28 218.8 68.1 217.27 70.29"/></clipPath><clipPath id="clip-path-25"><polygon class="cls-1" points="257.75 45.13 257.09 45.13 257.53 21.05 258.19 21.05 257.75 45.13"/></clipPath><clipPath id="clip-path-27"><polygon class="cls-1" points="258.63 46 256.44 46 256.66 19.96 259.06 20.18 258.63 46"/></clipPath><clipPath id="clip-path-29"><polygon class="cls-1" points="297.8 68.76 297.14 68.1 309.39 51.47 309.83 52.35 297.8 68.76"/></clipPath><clipPath id="clip-path-31"><polygon class="cls-1" points="297.8 70.29 296.05 68.1 309.39 49.94 310.93 52.35 297.8 70.29"/></clipPath><clipPath id="clip-path-33"><polygon class="cls-1" points="330.84 125.88 313.99 125.44 313.99 124.34 330.84 125 330.84 125.88"/></clipPath><clipPath id="clip-path-35"><polygon class="cls-1" points="331.72 126.97 313.12 126.53 313.33 123.25 331.72 123.91 331.72 126.97"/></clipPath><clipPath id="clip-path-37"><polygon class="cls-1" points="308.96 199.18 297.14 181.9 297.8 181.02 309.39 198.31 308.96 199.18"/></clipPath><clipPath id="clip-path-39"><polygon class="cls-1" points="308.96 200.5 296.05 181.9 297.8 179.71 310.49 198.31 308.96 200.5"/></clipPath><clipPath id="clip-path-41"><polygon class="cls-1" points="205.67 198.31 205.01 197.65 217.27 181.02 217.7 181.9 205.67 198.31"/></clipPath><clipPath id="clip-path-43"><polygon class="cls-1" points="205.67 199.84 203.92 197.65 217.27 179.71 218.8 181.9 205.67 199.84"/></clipPath><clipPath id="clip-path-45"><polygon class="cls-1" points="200.85 125.44 184 125 184 123.91 201.07 124.34 200.85 125.44"/></clipPath><clipPath id="clip-path-47"><polygon class="cls-1" points="201.73 126.53 183.35 126.09 183.35 122.81 201.73 123.47 201.73 126.53"/></clipPath><clipPath id="clip-path-49"><path class="cls-1" d="M373.29,127.41a18.68,18.68,0,1,0,13.35,5.47A18.77,18.77,0,0,0,373.29,127.41Zm0,42.45a23.64,23.64,0,1,1,23.64-23.63A23.53,23.53,0,0,1,373.29,169.86Z"/></clipPath><clipPath id="clip-path-51"><path class="cls-1" d="M406.34,107.49a16,16,0,1,0,16,16A16.06,16.06,0,0,0,406.34,107.49Zm0,36.77a20.68,20.68,0,1,1,20.57-20.79A20.73,20.73,0,0,1,406.34,144.26Z"/></clipPath><clipPath id="clip-path-53"><path class="cls-1" d="M370,90.42a12.26,12.26,0,1,0,12.26,12.26A12.24,12.24,0,0,0,370,90.42Zm0,26.7a14.66,14.66,0,1,1,14.66-14.66A14.66,14.66,0,0,1,370,117.12Z"/></clipPath><clipPath id="clip-path-55"><path class="cls-1" d="M373.29,134a12.26,12.26,0,1,0,12.26,12.26A12.23,12.23,0,0,0,373.29,134Zm0,26.92A14.67,14.67,0,1,1,388,146.23,14.67,14.67,0,0,1,373.29,160.89Z"/></clipPath><clipPath id="clip-path-57"><path class="cls-1" d="M406.34,113a10.73,10.73,0,1,0,10.72,10.73v-.22A10.7,10.7,0,0,0,406.34,113Zm0,23.64a13.13,13.13,0,1,1,12.91-13.35v.22A13,13,0,0,1,406.34,136.6Z"/></clipPath><clipPath id="clip-path-59"><path class="cls-1" d="M489.49,142.51,416,141.63v-4.81l73.52.87c3.07,0,6.79-5.91,6.79-13.78s-3.5-13.79-6.79-13.79H416v-4.81h73.52c6.35,0,11.38,8.09,11.38,18.6s-5,18.6-11.38,18.6Z"/></clipPath><clipPath id="clip-path-61"><path class="cls-1" d="M123,103.55a18.82,18.82,0,1,0,18.82-18.81A18.81,18.81,0,0,0,123,103.55Zm-4.59,0A23.63,23.63,0,1,1,142,127.19,23.53,23.53,0,0,1,118.36,103.55Z"/></clipPath><clipPath id="clip-path-63"><path class="cls-1" d="M119.67,147.32a18.82,18.82,0,1,0,18.82-18.82A18.54,18.54,0,0,0,119.67,147.32Zm-4.82,0A23.64,23.64,0,1,1,138.49,171,23.54,23.54,0,0,1,114.85,147.32Z"/></clipPath><clipPath id="clip-path-65"><path class="cls-1" d="M89.69,124.34a16,16,0,1,0,16-16A16.06,16.06,0,0,0,89.69,124.34Zm-4.82,0a20.79,20.79,0,1,1,20.79,20.79A20.78,20.78,0,0,1,84.87,124.34Z"/></clipPath><clipPath id="clip-path-67"><path class="cls-1" d="M129.73,103.55a12,12,0,1,0,3.51-8.75A13,13,0,0,0,129.73,103.55Zm-2.4,0A14.66,14.66,0,1,1,142,118.22,14.66,14.66,0,0,1,127.33,103.55Z"/></clipPath><clipPath id="clip-path-69"><path class="cls-1" d="M94.94,124.34a10.62,10.62,0,1,0,21.23.22,10.85,10.85,0,0,0-10.51-10.72A10.69,10.69,0,0,0,94.94,124.34Zm-2.19,0a13.07,13.07,0,1,1,3.72,9.19A12.88,12.88,0,0,1,92.75,124.34Z"/></clipPath><clipPath id="clip-path-71"><path class="cls-1" d="M22.51,143.38,96,142.51v-4.82l-73.74,1.1c-3.07,0-6.57-5.91-6.57-13.79s3.5-13.79,6.79-13.79H95.82V106.4H22.51c-6.35,0-11.38,8.1-11.38,18.6S16.16,143.38,22.51,143.38Z"/></clipPath></defs><path class="cls-1" d="M257.53,228.73h-.65l.21-23.86h.66Z"/><polygon class="cls-1" points="257.53 228.73 256.88 228.73 257.09 204.87 257.75 204.87 257.53 228.73"/><g class="cls-2"><path class="cls-1" d="M6.31,2.89H502V394.82H6.31Z"/><rect class="cls-1" x="6.31" y="2.89" width="495.65" height="391.93"/><g class="cls-3"><path class="cls-1" d="M233.24,181.24H281.6v71.12H233.24Z"/></g></g><path class="cls-1" d="M258.19,229.82H256l.44-26,2.19.22Z"/><polygon class="cls-1" points="258.19 229.82 256 229.82 256.44 203.78 258.63 204 258.19 229.82"/><g class="cls-4"><path class="cls-1" d="M6.31,2.89H502V394.82H6.31Z"/><rect class="cls-1" x="6.31" y="2.89" width="495.65" height="391.93"/><g class="cls-3"><path class="cls-1" d="M232.37,180.15H282v73.3H232.37Z"/></g></g><path class="cls-1" d="M229.3,219.75l27.79,8.1,27.58-7.66,23.85-22.32,15.76-33L330,125.66l-5.48-39.39L308.74,52.79,285.1,30.46l-27.79-8.09-27.79,7.44-23.63,22.1L190.13,85l-5.69,39.39,5.47,39.39,15.76,33.48Zm27.79,10.07-28.44-8.1-24.08-23-15.75-33.92-5.47-40.27v-.22L189,84.52,205.23,50.6,229.3,28.06l28.23-7.88L286,28.28l24.07,23,15.76,33.92,5.69,40.49L326,165.48l-16.2,33.92-24.07,22.54Z"/><path class="cls-1" d="M229.3,219.75l27.79,8.1,27.58-7.66,23.85-22.32,15.76-33L330,125.66l-5.48-39.39L308.74,52.79,285.1,30.46l-27.79-8.09-27.79,7.44-23.63,22.1L190.13,85l-5.69,39.39,5.47,39.39,15.76,33.48Zm27.79,10.07-28.44-8.1-24.08-23-15.75-33.92-5.47-40.27v-.22L189,84.52,205.23,50.6,229.3,28.06l28.23-7.88L286,28.28l24.07,23,15.76,33.92,5.69,40.49L326,165.48l-16.2,33.92-24.07,22.54Z"/><g class="cls-5"><path class="cls-1" d="M6.31,2.89H502V394.82H6.31Z"/><rect class="cls-1" x="6.31" y="2.89" width="495.65" height="391.93"/><g class="cls-3"><path class="cls-1" d="M159.71-3.45H355.35v256.9H159.71Z"/></g></g><path class="cls-1" d="M229.74,218.88l27.57,7.88,27.58-7.44,23.63-21.89,15.76-33,5.25-38.51-5.25-39L308.52,53.44l-23.2-22.32-27.57-7.88L230.18,30.9,206.54,52.79l-15.75,33-5.25,38.73,5.25,38.95,15.54,33.05Zm27.57,12h-.22l-28.44-8.31-24.29-23.2-16.2-34.35-5.47-40.49,5.91-40.48L205,49.94,229.3,27.18l28.45-7.88,28.67,8.32,24.29,23.2L326.9,85.39l5.69,40.27-5.91,40.48-16.41,34.14L286,223Z"/><path class="cls-1" d="M229.74,218.88l27.57,7.88,27.58-7.44,23.63-21.89,15.76-33,5.25-38.51-5.25-39L308.52,53.44l-23.2-22.32-27.57-7.88L230.18,30.9,206.54,52.79l-15.75,33-5.25,38.73,5.25,38.95,15.54,33.05Zm27.57,12h-.22l-28.44-8.31-24.29-23.2-16.2-34.35-5.47-40.49,5.91-40.48L205,49.94,229.3,27.18l28.45-7.88,28.67,8.32,24.29,23.2L326.9,85.39l5.69,40.27-5.91,40.48-16.41,34.14L286,223Z"/><g class="cls-6"><path class="cls-1" d="M6.31,2.89H502V394.82H6.31Z"/><rect class="cls-1" x="6.31" y="2.89" width="495.65" height="391.93"/><g class="cls-3"><path class="cls-1" d="M159.06-4.33H356V254.55H159.06Z"/></g></g><path class="cls-1" d="M217.92,181h79.22V69H217.92Zm79.88.88H217.05v-114H297.8Z"/><path class="cls-1" d="M217.92,181h79.22V69H217.92Zm79.88.88H217.05v-114H297.8Z"/><g class="cls-7"><path class="cls-1" d="M6.31,2.89H502V394.82H6.31Z"/><rect class="cls-1" x="6.31" y="2.89" width="495.65" height="391.93"/><g class="cls-3"><path class="cls-1" d="M193.63,44.25h127.8V205.53H193.63Z"/></g></g><path class="cls-1" d="M218.8,179.93h77.68V70.07H218.8ZM298.67,183H216.39V67h82.06Z"/><path class="cls-1" d="M218.8,179.93h77.68V70.07H218.8ZM298.67,183H216.39V67h82.06Z"/><g class="cls-8"><path class="cls-1" d="M6.31,2.89H502V394.82H6.31Z"/><rect class="cls-1" x="6.31" y="2.89" width="495.65" height="391.93"/><g class="cls-3"><path class="cls-1" d="M192.76,43.38H322.09V206.84H192.76Z"/></g></g><path class="cls-1" d="M201.51,125l56,79.22,56-79.22-56-79.22Zm56,81-57.11-81,57.11-80.75L314.65,125Z"/><path class="cls-1" d="M201.51,125l56,79.22,56-79.22-56-79.22Zm56,81-57.11-81,57.11-80.75L314.65,125Z"/><g class="cls-9"><path class="cls-1" d="M6.31,2.89H502V394.82H6.31Z"/><rect class="cls-1" x="6.31" y="2.89" width="495.65" height="391.93"/><g class="cls-3"><path class="cls-1" d="M176.78,20.62H338.06V229.38H176.78Z"/></g></g><path class="cls-1" d="M202.61,125l54.92,77.69L312.46,125,257.53,47.31Zm54.92,82.06-.65-.65L199.32,125l.44-.66,57.77-81.4.44.65L315.52,125l-.44.66Z"/><path class="cls-1" d="M202.61,125l54.92,77.69L312.46,125,257.53,47.31Zm54.92,82.06-.65-.65L199.32,125l.44-.66,57.77-81.4.44.65L315.52,125l-.44.66Z"/><g class="cls-10"><path class="cls-1" d="M6.31,2.89H502V394.82H6.31Z"/><rect class="cls-1" x="6.31" y="2.89" width="495.65" height="391.93"/><g class="cls-3"><path class="cls-1" d="M175.69,19.3H339.16V230.91H175.69Z"/></g></g><path class="cls-1" d="M257.53,204.22l27.57,16.19,12-39.39,27.35-16L313.55,125l11.38-38.95L297.14,69,285.76,29.81,257.53,45.56,230,29.37l-12,39.39L190.35,85.17,201.51,125,190.13,164,217.92,181,229.3,220Zm28,17.5-28-16.41-28.67,16L217.27,181.9,189,164.39l11.6-39.61L189.26,84.3l28-16.41,12.25-39.83,28,16.41,28.67-16,11.6,39.6,28.44,17.29L314.65,125,326,165.48,298,181.9Z"/><path class="cls-1" d="M257.53,204.22l27.57,16.19,12-39.39,27.35-16L313.55,125l11.38-38.95L297.14,69,285.76,29.81,257.53,45.56,230,29.37l-12,39.39L190.35,85.17,201.51,125,190.13,164,217.92,181,229.3,220Zm28,17.5-28-16.41-28.67,16L217.27,181.9,189,164.39l11.6-39.61L189.26,84.3l28-16.41,12.25-39.83,28,16.41,28.67-16,11.6,39.6,28.44,17.29L314.65,125,326,165.48,298,181.9Z"/><g class="cls-11"><path class="cls-1" d="M6.31,2.89H502V394.82H6.31Z"/><rect class="cls-1" x="6.31" y="2.89" width="495.65" height="391.93"/><g class="cls-3"><path class="cls-1" d="M165.4,4.42H349.66V245.36H165.4Z"/></g></g><path class="cls-1" d="M257.53,203.12h.22l26.92,15.76,11.81-38.73h.22l26.92-16-10.94-39.39v-.44l11.16-38.07L296.48,69.42V69L285.1,30.9,257.31,46.44h-.22L230.18,30.68,218.36,69.42h-.22L191.23,85.17l10.94,39.39V125L191,162.86l27.35,16.85,11.38,38.51ZM286,223.26l-28.45-16.64-28.88,16.2-11.82-40-28.67-17.72L199.76,125,188.38,83.86l28.23-16.63,12.47-40.49,28.23,16.64,28.89-16.2L298,67.23l28.66,17.51L315.08,125l11.38,41.14-28.23,16.63Z"/><path class="cls-1" d="M257.53,203.12h.22l26.92,15.76,11.81-38.73h.22l26.92-16-10.94-39.39v-.44l11.16-38.07L296.48,69.42V69L285.1,30.9,257.31,46.44h-.22L230.18,30.68,218.36,69.42h-.22L191.23,85.17l10.94,39.39V125L191,162.86l27.35,16.85,11.38,38.51ZM286,223.26l-28.45-16.64-28.88,16.2-11.82-40-28.67-17.72L199.76,125,188.38,83.86l28.23-16.63,12.47-40.49,28.23,16.64,28.89-16.2L298,67.23l28.66,17.51L315.08,125l11.38,41.14-28.23,16.63Z"/><g class="cls-12"><path class="cls-1" d="M6.31,2.89H502V394.82H6.31Z"/><rect class="cls-1" x="6.31" y="2.89" width="495.65" height="391.93"/><g class="cls-3"><path class="cls-1" d="M164.53,3.11h186V246.67h-186Z"/></g></g><path class="cls-1" d="M217.27,68.76,205.45,51.47l.66-.65L217.92,68.1Z"/><polygon class="cls-1" points="217.27 68.76 205.45 51.47 206.11 50.82 217.92 68.1 217.27 68.76"/><g class="cls-13"><path class="cls-1" d="M6.31,2.89H502V394.82H6.31Z"/><rect class="cls-1" x="6.31" y="2.89" width="495.65" height="391.93"/><g class="cls-3"><path class="cls-1" d="M182,27.18h59.53V92.39H182Z"/></g></g><path class="cls-1" d="M217.27,70.29l-12.7-18.82,1.54-2.19L218.8,68.1Z"/><polygon class="cls-1" points="217.27 70.29 204.57 51.47 206.11 49.28 218.8 68.1 217.27 70.29"/><g class="cls-14"><path class="cls-1" d="M6.31,2.89H502V394.82H6.31Z"/><rect class="cls-1" x="6.31" y="2.89" width="495.65" height="391.93"/><g class="cls-3"><path class="cls-1" d="M180.94,25.65h61.49V93.71H180.94Z"/></g></g><path class="cls-1" d="M257.75,45.13h-.66l.44-24.07h.66Z"/><polygon class="cls-1" points="257.75 45.13 257.09 45.13 257.53 21.05 258.19 21.05 257.75 45.13"/><g class="cls-15"><path class="cls-1" d="M6.31,2.89H502V394.82H6.31Z"/><rect class="cls-1" x="6.31" y="2.89" width="495.65" height="391.93"/><g class="cls-3"><path class="cls-1" d="M233.46-2.58h48.36V68.54H233.46Z"/></g></g><path class="cls-1" d="M258.63,46h-2.19l.22-26,2.4.22Z"/><polygon class="cls-1" points="258.63 46 256.44 46 256.66 19.96 259.06 20.18 258.63 46"/><g class="cls-16"><path class="cls-1" d="M6.31,2.89H502V394.82H6.31Z"/><rect class="cls-1" x="6.31" y="2.89" width="495.65" height="391.93"/><g class="cls-3"><path class="cls-1" d="M232.8-3.67h49.9V69.64H232.8Z"/></g></g><path class="cls-1" d="M297.8,68.76l-.66-.66,12.25-16.63.44.88Z"/><polygon class="cls-1" points="297.8 68.76 297.14 68.1 309.39 51.47 309.83 52.35 297.8 68.76"/><g class="cls-17"><path class="cls-1" d="M6.31,2.89H502V394.82H6.31Z"/><rect class="cls-1" x="6.31" y="2.89" width="495.65" height="391.93"/><g class="cls-3"><path class="cls-1" d="M273.73,27.84h60V92.39h-60Z"/></g></g><path class="cls-1" d="M297.8,70.29l-1.75-2.19,13.34-18.16,1.54,2.41Z"/><polygon class="cls-1" points="297.8 70.29 296.05 68.1 309.39 49.94 310.93 52.35 297.8 70.29"/><g class="cls-18"><path class="cls-1" d="M6.31,2.89H502V394.82H6.31Z"/><rect class="cls-1" x="6.31" y="2.89" width="495.65" height="391.93"/><g class="cls-3"><path class="cls-1" d="M272.63,26.31h62.15v67.4H272.63Z"/></g></g><path class="cls-1" d="M330.84,125.88,314,125.44v-1.1l16.85.66Z"/><polygon class="cls-1" points="330.84 125.88 313.99 125.44 313.99 124.34 330.84 125 330.84 125.88"/><g class="cls-19"><path class="cls-1" d="M6.31,2.89H502V394.82H6.31Z"/><rect class="cls-1" x="6.31" y="2.89" width="495.65" height="391.93"/><g class="cls-3"><path class="cls-1" d="M290.36,100.93h64.11v48.8H290.36Z"/></g></g><path class="cls-1" d="M331.72,127l-18.6-.44.21-3.28,18.39.66Z"/><polygon class="cls-1" points="331.72 126.97 313.12 126.53 313.33 123.25 331.72 123.91 331.72 126.97"/><g class="cls-20"><path class="cls-1" d="M6.31,2.89H502V394.82H6.31Z"/><rect class="cls-1" x="6.31" y="2.89" width="495.65" height="391.93"/><g class="cls-3"><path class="cls-1" d="M289.7,99.83h65.65v51H289.7Z"/></g></g><path class="cls-1" d="M309,199.18,297.14,181.9l.66-.88,11.59,17.29Z"/><polygon class="cls-1" points="308.96 199.18 297.14 181.9 297.8 181.02 309.39 198.31 308.96 199.18"/><g class="cls-21"><path class="cls-1" d="M6.31,2.89H502V394.82H6.31Z"/><rect class="cls-1" x="6.31" y="2.89" width="495.65" height="391.93"/><g class="cls-3"><path class="cls-1" d="M273.51,157.61H333v65.21H273.51Z"/></g></g><path class="cls-1" d="M309,200.5l-12.91-18.6,1.75-2.19,12.69,18.6Z"/><polygon class="cls-1" points="308.96 200.5 296.05 181.9 297.8 179.71 310.49 198.31 308.96 200.5"/><g class="cls-22"><path class="cls-1" d="M6.31,2.89H502V394.82H6.31Z"/><rect class="cls-1" x="6.31" y="2.89" width="495.65" height="391.93"/><g class="cls-3"><path class="cls-1" d="M272.63,156.07h61.49v68.28H272.63Z"/></g></g><path class="cls-1" d="M205.67,198.31l-.66-.66L217.27,181l.43.88Z"/><polygon class="cls-1" points="205.67 198.31 205.01 197.65 217.27 181.02 217.7 181.9 205.67 198.31"/><g class="cls-23"><path class="cls-1" d="M6.31,2.89H502V394.82H6.31Z"/><rect class="cls-1" x="6.31" y="2.89" width="495.65" height="391.93"/><g class="cls-3"><path class="cls-1" d="M181.38,157.39h60v64.55h-60Z"/></g></g><path class="cls-1" d="M205.67,199.84l-1.75-2.19,13.35-17.94,1.53,2.19Z"/><polygon class="cls-1" points="205.67 199.84 203.92 197.65 217.27 179.71 218.8 181.9 205.67 199.84"/><g class="cls-24"><path class="cls-1" d="M6.31,2.89H502V394.82H6.31Z"/><rect class="cls-1" x="6.31" y="2.89" width="495.65" height="391.93"/><g class="cls-3"><path class="cls-1" d="M180.5,156.07h61.93v67.4H180.5Z"/></g></g><path class="cls-1" d="M200.85,125.44,184,125v-1.09l17.07.43Z"/><polygon class="cls-1" points="200.85 125.44 184 125 184 123.91 201.07 124.34 200.85 125.44"/><g class="cls-25"><path class="cls-1" d="M6.31,2.89H502V394.82H6.31Z"/><rect class="cls-1" x="6.31" y="2.89" width="495.65" height="391.93"/><g class="cls-3"><path class="cls-1" d="M160.37,100.27h64.12v48.8H160.37Z"/></g></g><path class="cls-1" d="M201.73,126.53l-18.38-.44v-3.28l18.38.66Z"/><polygon class="cls-1" points="201.73 126.53 183.35 126.09 183.35 122.81 201.73 123.47 201.73 126.53"/><g class="cls-26"><path class="cls-1" d="M6.31,2.89H502V394.82H6.31Z"/><rect class="cls-1" x="6.31" y="2.89" width="495.65" height="391.93"/><g class="cls-3"><path class="cls-1" d="M159.71,99.18h65.65v51H159.71Z"/></g></g><path class="cls-1" d="M257.53,247.76c-51.86,0-93.88-55.14-93.88-122.76s42-122.76,93.88-122.76S351.41,57.38,351.41,125,309.39,247.76,257.53,247.76Zm0-239.4c-48.36,0-87.75,52.3-87.75,116.64s39.39,116.64,87.75,116.64,87.75-52.3,87.75-116.64S305.89,8.36,257.53,8.36Z"/><path class="cls-1" d="M370,84.52a18.16,18.16,0,1,1-18.16,18.16A18.11,18.11,0,0,1,370,84.52m0-5.47a23.63,23.63,0,1,0,23.63,23.63A23.53,23.53,0,0,0,370,79.05Z"/><path class="cls-1" d="M373.29,127.41a18.68,18.68,0,1,0,13.35,5.47A18.77,18.77,0,0,0,373.29,127.41Zm0,42.45a23.64,23.64,0,1,1,23.64-23.63A23.53,23.53,0,0,1,373.29,169.86Z"/><path class="cls-1" d="M373.29,127.41a18.68,18.68,0,1,0,13.35,5.47A18.77,18.77,0,0,0,373.29,127.41Zm0,42.45a23.64,23.64,0,1,1,23.64-23.63A23.53,23.53,0,0,1,373.29,169.86Z"/><g class="cls-27"><path class="cls-1" d="M6.31,2.89H502V394.82H6.31Z"/><rect class="cls-1" x="6.31" y="2.89" width="495.65" height="391.93"/><g class="cls-3"><path class="cls-1" d="M326,99.18h94.53v94.31H326Z"/></g></g><path class="cls-1" d="M406.34,107.49a16,16,0,1,0,16,16A16.06,16.06,0,0,0,406.34,107.49Zm0,36.77a20.68,20.68,0,1,1,20.57-20.79A20.73,20.73,0,0,1,406.34,144.26Z"/><path class="cls-1" d="M406.34,107.49a16,16,0,1,0,16,16A16.06,16.06,0,0,0,406.34,107.49Zm0,36.77a20.68,20.68,0,1,1,20.57-20.79A20.73,20.73,0,0,1,406.34,144.26Z"/><g class="cls-28"><path class="cls-1" d="M6.31,2.89H502V394.82H6.31Z"/><rect class="cls-1" x="6.31" y="2.89" width="495.65" height="391.93"/><g class="cls-3"><path class="cls-1" d="M361.91,79.26h88.63v88.63H361.91Z"/></g></g><path class="cls-1" d="M370,90.42a12.26,12.26,0,1,0,12.26,12.26A12.24,12.24,0,0,0,370,90.42Zm0,26.7a14.66,14.66,0,1,1,14.66-14.66A14.66,14.66,0,0,1,370,117.12Z"/><path class="cls-1" d="M370,90.42a12.26,12.26,0,1,0,12.26,12.26A12.24,12.24,0,0,0,370,90.42Zm0,26.7a14.66,14.66,0,1,1,14.66-14.66A14.66,14.66,0,0,1,370,117.12Z"/><g class="cls-29"><path class="cls-1" d="M6.31,2.89H502V394.82H6.31Z"/><rect class="cls-1" x="6.31" y="2.89" width="495.65" height="391.93"/><g class="cls-3"><path class="cls-1" d="M331.72,64.38h76.37V141H331.72Z"/></g></g><path class="cls-1" d="M373.29,134a12.26,12.26,0,1,0,12.26,12.26A12.23,12.23,0,0,0,373.29,134Zm0,26.92A14.67,14.67,0,1,1,388,146.23,14.67,14.67,0,0,1,373.29,160.89Z"/><path class="cls-1" d="M373.29,134a12.26,12.26,0,1,0,12.26,12.26A12.23,12.23,0,0,0,373.29,134Zm0,26.92A14.67,14.67,0,1,1,388,146.23,14.67,14.67,0,0,1,373.29,160.89Z"/><g class="cls-30"><path class="cls-1" d="M6.31,2.89H502V394.82H6.31Z"/><rect class="cls-1" x="6.31" y="2.89" width="495.65" height="391.93"/><g class="cls-3"><path class="cls-1" d="M335,107.93h76.37v76.59H335Z"/></g></g><path class="cls-1" d="M406.34,113a10.73,10.73,0,1,0,10.72,10.73v-.22A10.7,10.7,0,0,0,406.34,113Zm0,23.64a13.13,13.13,0,1,1,12.91-13.35v.22A13,13,0,0,1,406.34,136.6Z"/><path class="cls-1" d="M406.34,113a10.73,10.73,0,1,0,10.72,10.73v-.22A10.7,10.7,0,0,0,406.34,113Zm0,23.64a13.13,13.13,0,1,1,12.91-13.35v.22A13,13,0,0,1,406.34,136.6Z"/><g class="cls-31"><path class="cls-1" d="M6.31,2.89H502V394.82H6.31Z"/><rect class="cls-1" x="6.31" y="2.89" width="495.65" height="391.93"/><g class="cls-3"><path class="cls-1" d="M369.57,86.92h73.31v73.31H369.57Z"/></g></g><path class="cls-1" d="M489.49,142.51,416,141.63v-4.81l73.52.87c3.07,0,6.79-5.91,6.79-13.78s-3.5-13.79-6.79-13.79H416v-4.81h73.52c6.35,0,11.38,8.09,11.38,18.6s-5,18.6-11.38,18.6Z"/><path class="cls-1" d="M489.49,142.51,416,141.63v-4.81l73.52.87c3.07,0,6.79-5.91,6.79-13.78s-3.5-13.79-6.79-13.79H416v-4.81h73.52c6.35,0,11.38,8.09,11.38,18.6s-5,18.6-11.38,18.6Z"/><g class="cls-32"><path class="cls-1" d="M6.31,2.89H502V394.82H6.31Z"/><rect class="cls-1" x="6.31" y="2.89" width="495.65" height="391.93"/><g class="cls-3"><path class="cls-1" d="M392.33,81.89H524.51v84.25H392.33Z"/></g></g><path class="cls-1" d="M325.56,51.14l4.8-3.8L357.8,82,353,85.8Z"/><path class="cls-1" d="M333.47,197.21l-5-3.5,24.51-34.57,5,3.5Z"/><path class="cls-1" d="M123,103.55a18.82,18.82,0,1,0,18.82-18.81A18.81,18.81,0,0,0,123,103.55Zm-4.59,0A23.63,23.63,0,1,1,142,127.19,23.53,23.53,0,0,1,118.36,103.55Z"/><path class="cls-1" d="M123,103.55a18.82,18.82,0,1,0,18.82-18.81A18.81,18.81,0,0,0,123,103.55Zm-4.59,0A23.63,23.63,0,1,1,142,127.19,23.53,23.53,0,0,1,118.36,103.55Z"/><g class="cls-33"><path class="cls-1" d="M6.31,2.89H502V394.82H6.31Z"/><rect class="cls-1" x="6.31" y="2.89" width="495.65" height="391.93"/><g class="cls-3"><path class="cls-1" d="M94.72,56.29h94.54v94.53H94.72Z"/></g></g><path class="cls-1" d="M119.67,147.32a18.82,18.82,0,1,0,18.82-18.82A18.54,18.54,0,0,0,119.67,147.32Zm-4.82,0A23.64,23.64,0,1,1,138.49,171,23.54,23.54,0,0,1,114.85,147.32Z"/><path class="cls-1" d="M119.67,147.32a18.82,18.82,0,1,0,18.82-18.82A18.54,18.54,0,0,0,119.67,147.32Zm-4.82,0A23.64,23.64,0,1,1,138.49,171,23.54,23.54,0,0,1,114.85,147.32Z"/><g class="cls-34"><path class="cls-1" d="M6.31,2.89H502V394.82H6.31Z"/><rect class="cls-1" x="6.31" y="2.89" width="495.65" height="391.93"/><g class="cls-3"><path class="cls-1" d="M91.22,100.05h94.54v94.54H91.22Z"/></g></g><path class="cls-1" d="M89.69,124.34a16,16,0,1,0,16-16A16.06,16.06,0,0,0,89.69,124.34Zm-4.82,0a20.79,20.79,0,1,1,20.79,20.79A20.78,20.78,0,0,1,84.87,124.34Z"/><path class="cls-1" d="M89.69,124.34a16,16,0,1,0,16-16A16.06,16.06,0,0,0,89.69,124.34Zm-4.82,0a20.79,20.79,0,1,1,20.79,20.79A20.78,20.78,0,0,1,84.87,124.34Z"/><g class="cls-35"><path class="cls-1" d="M6.31,2.89H502V394.82H6.31Z"/><rect class="cls-1" x="6.31" y="2.89" width="495.65" height="391.93"/><g class="cls-3"><path class="cls-1" d="M61.46,80.14h88.63v88.63H61.46Z"/></g></g><path class="cls-1" d="M129.73,103.55a12,12,0,1,0,3.51-8.75A13,13,0,0,0,129.73,103.55Zm-2.4,0A14.66,14.66,0,1,1,142,118.22,14.66,14.66,0,0,1,127.33,103.55Z"/><path class="cls-1" d="M129.73,103.55a12,12,0,1,0,3.51-8.75A13,13,0,0,0,129.73,103.55Zm-2.4,0A14.66,14.66,0,1,1,142,118.22,14.66,14.66,0,0,1,127.33,103.55Z"/><g class="cls-36"><path class="cls-1" d="M6.31,2.89H502V394.82H6.31Z"/><rect class="cls-1" x="6.31" y="2.89" width="495.65" height="391.93"/><g class="cls-3"><path class="cls-1" d="M103.69,65.48h76.38v76.37H103.69Z"/></g></g><path class="cls-1" d="M138.93,134.85a12.71,12.71,0,0,1,12.47,12.47,12.48,12.48,0,0,1-25,0,12.71,12.71,0,0,1,12.48-12.47m0-2.19a14.66,14.66,0,1,0,14.66,14.66A14.66,14.66,0,0,0,138.93,132.66Z"/><path class="cls-1" d="M94.94,124.34a10.62,10.62,0,1,0,21.23.22,10.85,10.85,0,0,0-10.51-10.72A10.69,10.69,0,0,0,94.94,124.34Zm-2.19,0a13.07,13.07,0,1,1,3.72,9.19A12.88,12.88,0,0,1,92.75,124.34Z"/><path class="cls-1" d="M94.94,124.34a10.62,10.62,0,1,0,21.23.22,10.85,10.85,0,0,0-10.51-10.72A10.69,10.69,0,0,0,94.94,124.34Zm-2.19,0a13.07,13.07,0,1,1,3.72,9.19A12.88,12.88,0,0,1,92.75,124.34Z"/><g class="cls-37"><path class="cls-1" d="M6.31,2.89H502V394.82H6.31Z"/><rect class="cls-1" x="6.31" y="2.89" width="495.65" height="391.93"/><g class="cls-3"><path class="cls-1" d="M69.12,87.8h73.31v73.31H69.12Z"/></g></g><path class="cls-1" d="M22.51,143.38,96,142.51v-4.82l-73.74,1.1c-3.07,0-6.57-5.91-6.57-13.79s3.5-13.79,6.79-13.79H95.82V106.4H22.51c-6.35,0-11.38,8.1-11.38,18.6S16.16,143.38,22.51,143.38Z"/><path class="cls-1" d="M22.51,143.38,96,142.51v-4.82l-73.74,1.1c-3.07,0-6.57-5.91-6.57-13.79s3.5-13.79,6.79-13.79H95.82V106.4H22.51c-6.35,0-11.38,8.1-11.38,18.6S16.16,143.38,22.51,143.38Z"/><g class="cls-38"><path class="cls-1" d="M6.31,2.89H502V394.82H6.31Z"/><rect class="cls-1" x="6.31" y="2.89" width="495.65" height="391.93"/><g class="cls-3"><path class="cls-1" d="M-12.72,82.77H119.45V167H-12.72Z"/></g></g><path class="cls-1" d="M155.34,87.14l-4.16-4.37,30-29.11L185.54,58Z"/><path class="cls-1" d="M154.1,163.84l4.74-3.89,27.45,33.53-4.75,3.88Z"/></svg>