<svg width="18" height="31" viewBox="0 0 18 31" fill="none" xmlns="http://www.w3.org/2000/svg">
<path d="M9.44531 13.6432C10.6293 13.9661 11.5981 14.2891 12.3516 14.612C13.1589 14.9349 13.9931 15.3924 14.8542 15.9844C15.7153 16.5226 16.3611 17.2222 16.7917 18.0833C17.276 18.9444 17.5182 19.967 17.5182 21.151C17.5182 22.8194 16.9531 24.1918 15.8229 25.2682C14.7465 26.2908 13.2934 26.9635 11.4635 27.2865V31H6.29688V27.2865C4.52083 26.9097 3.0408 26.1562 1.85677 25.026C0.726562 23.8958 0.107639 22.4427 0 20.6667H3.79427C4.00955 23.0885 5.70486 24.2995 8.88021 24.2995C10.5486 24.2995 11.7326 24.0035 12.4323 23.4115C13.1858 22.7656 13.5625 22.0391 13.5625 21.2318C13.5625 19.2943 11.8403 17.895 8.39583 17.0339C3.01389 15.796 0.322917 13.428 0.322917 9.92969C0.322917 8.36892 0.888021 7.05035 2.01823 5.97396C3.14844 4.84375 4.57465 4.09028 6.29688 3.71354V0H11.4635V3.79427C13.2396 4.22483 14.5851 5.03212 15.5 6.21615C16.4688 7.40017 16.98 8.77257 17.0339 10.3333H13.2396C13.1319 7.91146 11.6788 6.70052 8.88021 6.70052C7.4809 6.70052 6.35069 6.99653 5.48958 7.58854C4.68229 8.18056 4.27865 8.96094 4.27865 9.92969C4.27865 11.4905 6.00087 12.7283 9.44531 13.6432Z" fill="#999999"/>
</svg>
