<svg width="30" height="28" viewBox="0 0 30 28" fill="none" xmlns="http://www.w3.org/2000/svg">
<path d="M24 18.5V21.5234H20.9766V18.5H24ZM24 12.5234V15.4766H20.9766V12.5234H24ZM27.0234 24.4766V9.5H15V12.5234H18.0234V15.4766H15V18.5H18.0234V21.5234H15V24.4766H27.0234ZM11.9766 6.47656V3.52344H9.02344V6.47656H11.9766ZM11.9766 12.5234V9.5H9.02344V12.5234H11.9766ZM11.9766 18.5V15.4766H9.02344V18.5H11.9766ZM11.9766 24.4766V21.5234H9.02344V24.4766H11.9766ZM6 6.47656V3.52344H2.97656V6.47656H6ZM6 12.5234V9.5H2.97656V12.5234H6ZM6 18.5V15.4766H2.97656V18.5H6ZM6 24.4766V21.5234H2.97656V24.4766H6ZM15 6.47656H29.9766V27.5H0.0234375V0.5H15V6.47656Z" fill="#999999"/>
</svg>
