<svg id="Layer_1" data-name="Layer 1" xmlns="http://www.w3.org/2000/svg" viewBox="0 0 400 400"><defs><style>.cls-1{fill:#231f20;}</style></defs><path class="cls-1" d="M163.51,399.52A163.15,163.15,0,1,1,326.79,236,163.14,163.14,0,0,1,163.51,399.52Zm91.16-173H307.9a144,144,0,0,0-39.93-90c-8.51,5.72-16.63,10.91-24.61,16.5a5.33,5.33,0,0,0-1.07,4.39c2.4,11.18,5.46,22.23,7.32,33.4S253.34,214.68,254.67,226.53ZM58.38,137a142.74,142.74,0,0,0-39.25,89.56H73.29A276.46,276.46,0,0,1,84.47,156.4,4.13,4.13,0,0,0,83,152.94C75,147.88,67,142.56,58.38,137ZM19.13,245.56a144.25,144.25,0,0,0,39.92,90.09l26-17.83c-2.53-12.11-5.59-23.69-7.45-35.67s-2.93-24.22-4.4-36.59Zm249.51,89.69a138.28,138.28,0,0,0,39-89.69H254.4A279.78,279.78,0,0,1,243,316.09a4.69,4.69,0,0,0,1.59,3.06C252.27,324.6,260.39,329.79,268.64,335.25ZM236,226.53A254.3,254.3,0,0,0,225.79,162c-9.18,2.39-17.57,4.92-26.61,6.65s-17.44,2.66-26.62,4v53.23Zm-134.67,82.9,53.23-10.64V245.56H91.52A254.92,254.92,0,0,0,101.37,309.43Zm0-147.18a241.63,241.63,0,0,0-9.59,64.28h62.68V173.3c-8.91-1.2-17.7-2.13-26.61-3.86s-16.9-4.79-26.22-7.19Zm72.12,83v53.23l53.23,10.65a247.14,247.14,0,0,0,9.72-63.75H233ZM219.8,144.82c-7.18-24.09-31.94-51.37-46.31-51.37V154a147.56,147.56,0,0,0,45.78-9.18ZM173.49,380.1c25.29-9.32,36.6-29.81,46.71-52.17a146.48,146.48,0,0,0-46.71-9.45ZM154.6,155.33V96.12a28.63,28.63,0,0,0,0-2.93c-16.37,1.73-42.32,30.87-46.18,53.23Zm0,163A146.43,146.43,0,0,0,107,328.06c10.52,22.36,21.56,43.12,47,52ZM255.33,124.59a112.69,112.69,0,0,0-39-22.62l20.36,35.27ZM215.41,371.31a137.84,137.84,0,0,0,39.92-23.42l-18.76-12.51Zm-103-270.54a143,143,0,0,0-39.92,23.69l19.43,13.31c3.46-6.92,6.39-13.31,9.71-18.63S108.15,107.43,112.41,100.77Zm-1.06,270.41L90.59,335.25,71.82,348.56A141.76,141.76,0,0,0,111.35,371.18Z"/><path class="cls-1" d="M245.48,74.29c-6.12-2.53-11.44-4.52-16.5-7.05-1.06,0-1.73-2.93-1.73-4.53v-43c-3.86,1.73-7.32,2.93-10.38,4.66A71.44,71.44,0,0,0,190.26,52.6a6.26,6.26,0,0,1-7.45,3.73,106.88,106.88,0,0,0-14.51-1.2l16.37-26.62a138.58,138.58,0,0,0-39.92,23.56l4.39,2.79-39.92,7.72A158.63,158.63,0,0,1,263.05,3,157.45,157.45,0,0,1,394.93,127a159.69,159.69,0,0,1-58.42,165,131.51,131.51,0,0,0,4-16.37,46.92,46.92,0,0,1,11.44-25.42,138.23,138.23,0,0,0,28.22-69.06v-8.38h-43c-3.46,0-4.79-1.07-6.12-4.26a180.42,180.42,0,0,0-22.89-41.12,26,26,0,0,1-3.86-9c-2.13-9.45-4-19-6.12-29-6.12,1.73-11.71,3.46-17.3,4.66a9.59,9.59,0,0,1-6.65-1.33c-5.72-3.6-11.18-7.72-16.9-11.71L291,72.83c-3.46-21.29-29.55-50.57-46.05-52.3Zm81.18,79.85h54.16a144,144,0,0,0-39.92-90L314.28,82.41a273.26,273.26,0,0,1,12.38,71.86ZM309.23,64.58,328,51.27a143,143,0,0,0-39.92-23.16Z"/></svg>