<svg id="Layer_1" data-name="Layer 1" xmlns="http://www.w3.org/2000/svg" viewBox="0 0 512 512"><defs><style>.cls-1,.cls-2,.cls-4{fill:none;}.cls-1,.cls-2,.cls-4,.cls-5{stroke:#231f20;stroke-miterlimit:10;}.cls-1{stroke-width:1.5px;}.cls-3,.cls-5{fill:#231f20;}.cls-4{fill-rule:evenodd;}</style></defs><path class="cls-1" d="M489.79,280.44H22.65A16.65,16.65,0,0,1,5.94,263.72V253a16.65,16.65,0,0,1,16.71-16.72H489.33A16.65,16.65,0,0,1,506,253v10.21A16.1,16.1,0,0,1,489.79,280.44Z"/><circle class="cls-2" cx="374.63" cy="258.15" r="17.18"/><circle class="cls-2" cx="410.85" cy="258.15" r="17.18"/><circle class="cls-2" cx="448" cy="258.15" r="17.18"/><circle class="cls-2" cx="484.68" cy="258.15" r="17.18"/><circle class="cls-2" cx="28.23" cy="258.61" r="17.18"/><circle class="cls-2" cx="64.44" cy="258.61" r="17.18"/><circle class="cls-2" cx="101.59" cy="258.61" r="17.18"/><circle class="cls-2" cx="138.28" cy="258.61" r="17.18"/><g id="Layer_3" data-name="Layer 3"><circle class="cls-3" cx="282.23" cy="210.32" r="6.97"/><circle class="cls-3" cx="308.69" cy="255.82" r="6.97"/><circle class="cls-3" cx="231.61" cy="211.25" r="6.97"/><circle class="cls-3" cx="205.61" cy="255.82" r="6.97"/><circle class="cls-3" cx="282.23" cy="300.4" r="6.97"/><circle class="cls-3" cx="231.61" cy="300.4" r="6.97"/></g><path id="Fill-5" class="cls-4" d="M222.79,210.78a43.65,43.65,0,1,1-43.65-43.65,43.6,43.6,0,0,1,43.65,43.65"/><g id="layer1"><path id="path3782" class="cls-5" d="M179.14,166.84A44.12,44.12,0,1,0,223.25,211,44.09,44.09,0,0,0,179.14,166.84Zm-.93,1.4-11.14,13.93L162.42,171A47.36,47.36,0,0,1,178.21,168.24Zm1.86,0A36.27,36.27,0,0,1,194.46,171l-4.18,10.22Zm-.93.46,10.68,13.47-11.61,5.11L168,183.1Zm16.25,2.79a45.82,45.82,0,0,1,13.93,9.28l-18.11.93Zm-33.43,0,4.18,10.68-17.65-1.86A52,52,0,0,1,162,171.49Zm-13.47,9.75,18.11,1.86L162,193.78l-12.07,5.1Zm-.93.46,1.86,17.18-10.21-4.17A38.91,38.91,0,0,1,147.56,181.7Zm62.23,0-1.86,17.65-11.61-4.64-5.11-12.08Zm.93,0a62.22,62.22,0,0,1,8.35,13l-10.21,4.17Zm-20.44,1.4,4.65,10.68-14.86-6ZM168,184l8.83,3.71-13,5.57Zm10.22,4.17,17.18,7,7,16.25-7,16.25-17.18,7-15.32-7-7-15.78,7.43-17.18Zm-16.72,7.43L155,210.49l-4.18-10.21Zm-22.75,0L149,199.81l-13,10.68A40.23,40.23,0,0,1,138.74,195.63Zm58,.47L207,200.28,202.82,210Zm22.29,0A40.15,40.15,0,0,1,221.86,211l-13-10.68Zm-69.18,4.64,4.64,11.15-4.64,10.21-13.47-10.68Zm58,0,13,10.68-13,10.68L203.29,211Zm-72,11.61L149.42,223l-10.21,4.18A40.59,40.59,0,0,1,136,212.35Zm85.91,0a40.58,40.58,0,0,1-3.25,14.86L208.86,223Zm-19,.47,4.18,9.75-10.22,4.18Zm-47.36.46,6,13.93-9.75-4.64Zm-4.65,10.22L162,228.6l4.64,10.68-17.18,1.86Zm56.65,0,1.4,17.64-18.11-.46,5.11-12.08Zm-57.57.46-1.4,17.64a37.72,37.72,0,0,1-8.82-13.46Zm59,0,9.75,4.18a47.93,47.93,0,0,1-8.36,13Zm-14.4,5.11-4.64,10.68-10.68-4.65Zm-31.11,0,13.47,6-9.29,3.72Zm14.4,6.5,11.61,5.11-9.76,12.53-12.07-13.46Zm-11.61,5.11L162,250.89a37.07,37.07,0,0,1-12.54-8.36Zm.93,0,11.61,13.46a35.63,35.63,0,0,1-15.79-3.25Zm24.14.93,17.18.46a45.07,45.07,0,0,1-13.46,8.82Zm-.93.46,4.18,9.29A62.9,62.9,0,0,1,181,254.14Z"/></g><path id="Fill-5-2" data-name="Fill-5" class="cls-4" d="M300.34,166.2a43.65,43.65,0,1,1-43.65-43.64,43.6,43.6,0,0,1,43.65,43.64"/><g id="layer1-2" data-name="layer1"><path id="path3782-2" data-name="path3782" class="cls-5" d="M256.22,122.27a44.11,44.11,0,1,0,44.12,44.11A44.09,44.09,0,0,0,256.22,122.27Zm-.46.93-11.15,13.93L240,126C245.08,124.59,250.19,123.2,255.76,123.2Zm1.85,0A36.15,36.15,0,0,1,272,126l-4.18,10.22Zm-.92.92,10.68,13.47-11.61,5.11-10.22-4.18Zm16.25,2.33a45.64,45.64,0,0,1,13.93,9.28l-18.11.93Zm-33.43.46,4.17,10.68L226,135.73A37.76,37.76,0,0,1,239.51,126.91ZM226,136.66l18.11,1.86-4.64,10.68-12.08,5.11Zm-.93,0L227,153.84l-10.22-4.18A44.42,44.42,0,0,1,225.11,136.66Zm61.76,0L285,154.31l-11.61-4.65-5.1-12.07Zm1.39.47a61.93,61.93,0,0,1,8.36,13l-10.22,4.18Zm-20.89,1.39L272,149.2l-14.86-6Zm-22.29.93,8.82,3.71-13,5.57Zm10.68,4.18,17.18,7,7,16.25-7,16.26-17.18,7-15.33-7-7-15.79,7.43-17.18Zm-16.72,7-6.5,14.86-4.18-10.21Zm-22.75.47,10.21,4.18-13,10.68A40.15,40.15,0,0,1,216.29,151.06Zm58,0,10.22,4.18L280.37,165Zm22.29,0a40.15,40.15,0,0,1,2.79,14.86l-13-10.68Zm-69.19,4.64,4.65,11.14-4.65,10.22L214,166.38Zm58.05,0,13,10.68-13,10.68-4.65-11.14Zm-72,11.61L227,178l-10.22,4.18A33.06,33.06,0,0,1,213.5,167.31Zm85.91,0a40.83,40.83,0,0,1-3.25,14.86L286.4,178Zm-19,.46,4.18,9.75-10.22,4.18Zm-47.83.47,6,13.93-9.75-4.65Zm-4.18,10.68L239.51,184l4.64,10.68L227,196.56Zm56.65,0,1.39,17.64-18.1-.46L273.4,184Zm-58,0-1.4,17.64a37.81,37.81,0,0,1-8.82-13.46Zm59.43.46,9.76,4.18a47.93,47.93,0,0,1-8.36,13ZM272,184l-4.64,10.68-10.68-4.65Zm-31.11.46,13.46,6-9.28,3.71Zm14.39,6.5,11.61,5.11-9.75,12.54-12.07-13.47Zm-12.07,4.64L239,205.85a37.17,37.17,0,0,1-12.54-8.36Zm1.39.47,11.61,13.46a35.55,35.55,0,0,1-15.79-3.25Zm24.15.46,17.18.47a45.12,45.12,0,0,1-13.47,8.82Zm-.93.47,4.18,9.28a62.27,62.27,0,0,1-13.47,2.79Z"/></g><path id="Fill-5-3" data-name="Fill-5" class="cls-4" d="M223.72,299.94a43.65,43.65,0,1,1-43.65-43.65,43.61,43.61,0,0,1,43.65,43.65"/><g id="layer1-3" data-name="layer1"><path id="path3782-3" data-name="path3782" class="cls-5" d="M179.6,256a44.12,44.12,0,1,0,44.12,44.11A44.09,44.09,0,0,0,179.6,256Zm-.46.93L168,270.86l-4.64-11.15C168.46,258.32,173.57,256.93,179.14,256.93Zm1.39,0a36.32,36.32,0,0,1,14.4,2.78l-3.72,10.22Zm-.46.93,10.68,13.46-11.61,5.11-10.22-4.18Zm16.25,2.32a45.67,45.67,0,0,1,13.93,9.29l-18.11.93Zm-33.9.46,4.18,10.68L149,269.47A48.09,48.09,0,0,1,162.42,260.64Zm-13,9.75,18.11,1.86-4.64,10.68L150.81,288Zm-1.39.47L149.89,288l-10.22-4.18A52,52,0,0,1,148,270.86Zm62.22,0-1.86,17.64-11.61-4.64-5.1-12.07Zm.93,0a62.19,62.19,0,0,1,8.36,13L209.32,288Zm-20.43,1.39,4.64,10.68-14.86-6Zm-22.29.93,8.82,3.72-13,5.57Zm10.22,4.18,17.18,7,7,16.25-7,15.79-17.18,7-15.33-7-7-15.79,7.43-17.18Zm-16.26,7-6.5,14.85L151.74,289Zm-23.21.46L149.42,289l-13,10.68C136.42,294.54,137.81,289.43,139.21,284.79Zm58,0L207.46,289l-4.17,9.75Zm22.75,0a40.15,40.15,0,0,1,2.79,14.86l-13-10.68Zm-69.19,4.64,4.65,11.15-4.65,10.21-13.46-10.68Zm58.05.47,13,10.68-13,10.68-4.65-11.15ZM136.42,301l13.47,10.68-10.22,4.18A49.49,49.49,0,0,1,136.42,301Zm86.37,0a40.58,40.58,0,0,1-3.25,14.86l-9.75-4.18Zm-19,.93,4.18,9.75-10.22,4.18Zm-47.83,0,6,13.93-9.75-4.64Zm-4.18,10.68,11.15,5.11,4.64,10.68-17.18,1.86Zm56.65,0,1.4,17.65-18.11-.47,5.1-12.07Zm-58,0L149,330.3a37.74,37.74,0,0,1-8.83-13.47Zm59,.47,9.75,4.17a47.72,47.72,0,0,1-8.35,13Zm-13.93,4.64-4.64,10.68-10.68-4.64Zm-31.57.46,13.46,6L168,328Zm14.86,6.5,11.6,5.11-9.75,12.54L168.46,328.9Zm-12.08,4.65-4.18,10.21a37,37,0,0,1-12.53-8.35Zm1.39.46L179.6,343.3a35.62,35.62,0,0,1-15.78-3.25Zm24.15.47,17.18.46a45,45,0,0,1-13.46,8.82Zm-1.39.46,4.18,9.29a63,63,0,0,1-13.47,2.78Z"/></g><path id="Fill-5-4" data-name="Fill-5" class="cls-4" d="M299.87,345.44a43.65,43.65,0,1,1-43.65-43.64,43.6,43.6,0,0,1,43.65,43.64"/><g id="layer1-4" data-name="layer1"><path id="path3782-4" data-name="path3782" class="cls-5" d="M255.76,301.51a44.11,44.11,0,1,0,44.11,44.11A44.09,44.09,0,0,0,255.76,301.51Zm-.47.93-11.14,13.93-4.64-11.15C244.61,303.83,249.72,302.44,255.29,302.44Zm1.4,0a36.13,36.13,0,0,1,14.39,2.78l-4.18,10.22Zm-.47.92,10.68,13.47-11.61,5.11-10.21-4.18Zm16.25,2.33A45.52,45.52,0,0,1,286.4,315l-18.1.93Zm-33.89.46,4.18,10.68L225.11,315A48.17,48.17,0,0,1,238.58,306.15Zm-13,9.75,18.11,1.86L239,328.44,227,333.55Zm-1.39.47L226,333.55l-10.22-4.18A52.24,52.24,0,0,1,224.18,316.37Zm62.22,0L284.55,334l-11.61-4.64-5.11-12.08Zm.93,0a61.93,61.93,0,0,1,8.36,13l-10.21,4.18Zm-20.43,1.39,4.65,10.68-14.86-6Zm-22.29.93,8.83,3.71-13,5.57Zm10.22,4.18,17.18,7,7,16.25-7,16.26-17.18,7-15.32-7-7-15.79L240,329.37Zm-16.25,7-6.5,14.86-4.18-10.21Zm-23.22.47,10.21,4.18-13,10.68C212.57,340.05,214,334.94,215.36,330.3Zm58,0,10.22,4.18-4.18,9.75Zm22.76,0a40.35,40.35,0,0,1,2.78,14.86l-13-10.68ZM227,334.94l4.64,11.14L227,356.3,213.5,345.62Zm58,.46,13,10.68-13,10.68-4.64-11.14Zm-72.44,11.15L226,357.23l-10.22,4.18A50.18,50.18,0,0,1,212.57,346.55Zm86.37,0a40.63,40.63,0,0,1-3.25,14.86l-9.75-4.18Zm-19,.93,4.18,9.75-10.21,4.18Zm-47.82,0,6,13.93-9.75-4.65Zm-4.18,10.68L239,363.27,243.68,374,226.5,375.8Zm56.65,0,1.39,17.64-18.11-.46,5.11-12.07Zm-58.05,0-1.39,17.64a37.81,37.81,0,0,1-8.82-13.46Zm59,.46,9.75,4.18a47.93,47.93,0,0,1-8.36,13Zm-13.93,4.65L266.9,374l-10.68-4.65Zm-31.58.46,13.47,6-9.29,3.71Zm14.86,6.5,11.61,5.11-9.75,12.54-12.08-13.47Zm-12.07,4.64-4.18,10.22A37,37,0,0,1,226,376.73Zm1.39.47,11.61,13.46A35.53,35.53,0,0,1,240,385.55Zm24.15.46,17.18.47A45.25,45.25,0,0,1,272,385.09Zm-1.4.47,4.18,9.28a62.27,62.27,0,0,1-13.47,2.79Z"/></g><path id="Fill-5-5" data-name="Fill-5" class="cls-4" d="M377.42,299.94a43.65,43.65,0,1,1-43.65-43.65,43.61,43.61,0,0,1,43.65,43.65"/><g id="layer1-5" data-name="layer1"><path id="path3782-5" data-name="path3782" class="cls-5" d="M333.3,256a44.12,44.12,0,1,0,44.12,44.11A44.09,44.09,0,0,0,333.3,256Zm-.46.93L321.7,270.86l-4.65-11.15C322.16,258.32,327.27,256.93,332.84,256.93Zm1.86,0a36.27,36.27,0,0,1,14.39,2.78l-4.18,10.22Zm-.93.93,10.68,13.46-11.61,5.11-10.22-4.18ZM350,260.18A45.67,45.67,0,0,1,364,269.47l-18.11.93Zm-33.43.46,4.18,10.68-17.65-1.85A37.74,37.74,0,0,1,316.59,260.64Zm-13.47,9.75,18.11,1.86-4.64,10.68L304.51,288Zm-.93.47L304.05,288l-10.22-4.18A34.85,34.85,0,0,1,302.19,270.86Zm61.76,0-1.86,17.64-11.6-4.64-5.11-12.07Zm1.39,0a61.79,61.79,0,0,1,8.36,13L363.49,288Zm-20.89,1.39,4.64,10.68-14.86-6Zm-22.29.93L331,276.9l-13,5.57Zm10.68,4.18,17.18,7,7,16.25-7,16.25-17.18,7-15.32-7-7-15.79L318,283.86Zm-16.72,7-6.5,14.85L305.44,289Zm-22.75.46L303.59,289l-13,10.68A40.15,40.15,0,0,1,293.37,284.79Zm58,0L361.63,289l-4.18,9.75Zm22.29,0a40.15,40.15,0,0,1,2.79,14.86l-13-10.68Zm-69.19,4.64,4.65,11.15-4.65,10.21-13.46-10.68Zm58.05.47,13,10.68-13,10.68-4.65-11.15Zm-72,11.14,13.47,10.68-10.22,4.18A31.74,31.74,0,0,1,290.58,301Zm85.91.47a40.67,40.67,0,0,1-3.25,14.86l-9.75-4.18Zm-19,.46,4.18,9.75-10.22,4.18Zm-47.83.47,6,13.93-9.75-4.65Zm-4.18,10.21,11.15,5.11,4.64,10.68-17.18,1.86Zm56.65,0,1.4,17.65-18.11-.47,5.11-12.07Zm-58,0-1.39,17.65a37.74,37.74,0,0,1-8.83-13.47Zm59.44.47,9.75,4.17a48,48,0,0,1-8.36,13Zm-14.4,5.1-4.64,10.68-10.68-4.64Zm-31.11,0,13.47,6L322.16,328Zm14.4,6.5,11.6,5.11-9.75,12.54L322.16,328.9Zm-12.08,4.65-3.71,10.21a37,37,0,0,1-12.54-8.35Zm1.4.46,11.6,13.47a35.62,35.62,0,0,1-15.78-3.25Zm24.14.93,17.18.46a45,45,0,0,1-13.46,8.83Zm-.93,0,4.18,9.29a62.9,62.9,0,0,1-13.46,2.78Z"/></g><path id="Fill-5-6" data-name="Fill-5" class="cls-4" d="M377,210.78a43.65,43.65,0,1,1-43.65-43.65A43.6,43.6,0,0,1,377,210.78"/><g id="layer1-6" data-name="layer1"><path id="path3782-6" data-name="path3782" class="cls-5" d="M333.3,166.84A44.12,44.12,0,1,0,377.42,211,44.09,44.09,0,0,0,333.3,166.84Zm-.92,1.4-11.15,13.93L316.59,171A47.36,47.36,0,0,1,332.38,168.24Zm1.85,0a36.32,36.32,0,0,1,14.4,2.78l-4.18,10.22Zm-.93.93L344,182.63l-11.6,5.11-10.22-4.18Zm16.26,2.32a45.94,45.94,0,0,1,13.93,9.28l-18.11.93Zm-33.44,0,4.18,10.68-17.64-1.86C306.84,177.06,311,173.81,316.12,171.49ZM302.66,181.7l18.11,1.86-4.65,10.68-12.07,5.11Zm-.93,0,1.86,17.18-10.22-4.17A38.94,38.94,0,0,1,301.73,181.7Zm62.22,0-1.86,17.65-11.6-4.64-5.11-12.08Zm.93.47a62.19,62.19,0,0,1,8.36,13L363,199.35Zm-20.43.93,4.64,10.68-14.86-6Zm-22.29.93,8.82,3.71-13,5.57Zm10.22,4.64,17.18,7,7,16.26-7,16.25-17.18,7-15.33-7-7-15.79,7.43-17.18Zm-16.72,7-6.5,14.86L305,200.28Zm-22.75.47,10.21,4.18-13,10.68A38.45,38.45,0,0,1,292.91,196.1Zm58,0,10.22,4.18L357,210Zm22.29,0A40.15,40.15,0,0,1,376,211l-13-10.68Zm-69.19,4.64,4.64,11.15-4.64,10.21-13.47-10.68Zm58,0,13,10.68-13,10.68L357.45,211Zm-72,11.61L303.59,223l-10.22,4.18A40.58,40.58,0,0,1,290.12,212.35Zm85.9,0a40.58,40.58,0,0,1-3.25,14.86L363,223Zm-19,.47,4.18,9.75L351,226.75Zm-47.37.46,6,13.93-9.75-4.64ZM305,224l11.14,5.11,4.65,10.68-17.18,1.85Zm56.65,0L363,241.6l-18.11-.46L350,229.07Zm-57.58,0-1.39,17.64a37.62,37.62,0,0,1-8.83-13.46Zm59,.46,9.75,4.18a47.72,47.72,0,0,1-8.35,13Zm-14.39,4.65L344,239.75,333.3,235.1Zm-31.11.46,13.46,6-9.28,3.71Zm14.39,6.5,11.61,5.11-9.75,12.54L321.7,240.21Zm-11.61,4.65-4.18,10.21a37,37,0,0,1-12.53-8.36Zm.93.46,11.61,13.47a35.69,35.69,0,0,1-15.79-3.25Zm24.15.47,17.18.46a45.25,45.25,0,0,1-13.47,8.82Zm-.93.46,4.18,9.29a62.87,62.87,0,0,1-13.47,2.78Z"/></g><path id="Fill-5-7" data-name="Fill-5" class="cls-4" d="M300.34,255.36a43.65,43.65,0,1,1-43.65-43.65,43.6,43.6,0,0,1,43.65,43.65"/><g id="layer1-7" data-name="layer1"><path id="path3782-7" data-name="path3782" class="cls-5" d="M256.22,211.42a44.12,44.12,0,1,0,44.12,44.12A44.09,44.09,0,0,0,256.22,211.42Zm-.46.93-11.15,13.93L240,215.14A45.19,45.19,0,0,1,255.76,212.35Zm1.85,0a36.15,36.15,0,0,1,14.4,2.79l-4.18,10.21Zm-.92.93,10.68,13.47-11.61,5.1-10.22-4.18Zm16.25,2.32a45.67,45.67,0,0,1,13.93,9.29l-18.11.93Zm-33.43,0,4.17,10.68L226,224.42A56.17,56.17,0,0,1,239.51,215.6ZM226,225.82l18.11,1.85-4.64,10.68-12.08,5.11Zm-.93,0L227,243l-10.22-4.18A39.05,39.05,0,0,1,225.11,225.82Zm61.76,0L285,243.46l-11.61-4.64-5.1-12.07Zm1.39.46a62.45,62.45,0,0,1,8.36,13l-10.22,4.18Zm-20.89,1.39L272,238.35l-14.86-6Zm-22.29.47,8.82,3.71-13,5.58Zm10.68,4.64,17.18,7,6.5,16.25-7,16.25-17.18,7-15.32-7-7-15.79,7.43-17.18Zm-16.72,7-6.5,14.86-4.18-10.22Zm-22.75.46,10.21,4.18-13,10.68A40.19,40.19,0,0,1,216.29,240.21Zm58,0,10.22,4.18-4.18,9.75Zm22.29,0a40.19,40.19,0,0,1,2.79,14.86l-13-10.68Zm-69.19,4.65L232.08,256l-4.65,10.22-13-10.22Zm58.05,0,13,10.68-13,10.68-4.65-11.15Zm-72,11.6L227,267.14l-10.22,4.18A33,33,0,0,1,213.5,256.46Zm85.91,0a40.79,40.79,0,0,1-3.25,14.86l-9.76-4.18Zm-19,.47,4.18,9.75-10.22,4.18Zm-47.83.46,6,13.93-9.75-4.64Zm-4.18,10.68,11.15,5.11,4.64,10.68L227,285.72Zm56.65,0,1.39,17.65-18.1-.47,5.1-12.07Zm-58,0-1.4,17.65a37.85,37.85,0,0,1-8.82-13.47Zm59.43.47,9.76,4.18a48.09,48.09,0,0,1-8.36,13ZM272,273.18l-4.64,10.68-10.68-4.64Zm-31.11.47,13.46,6-9.28,3.72Zm14.39,6.5,11.61,5.1-9.75,12.54-12.07-13.46Zm-12.07,4.64L239,295a37.32,37.32,0,0,1-12.54-8.36Zm1.39.46,11.61,13.47a35.69,35.69,0,0,1-15.79-3.25Zm24.15.47,17.18.46A45.15,45.15,0,0,1,272.47,295Zm-.93.46,4.18,9.29a63.49,63.49,0,0,1-13.47,2.79Z"/></g></svg>