<svg id="Layer_1" data-name="Layer 1" xmlns="http://www.w3.org/2000/svg" viewBox="0 0 512 512"><defs><style>.cls-1,.cls-2,.cls-3{fill:none;}.cls-1,.cls-2{stroke:#231f20;}.cls-1,.cls-2,.cls-5{stroke-miterlimit:10;}.cls-1{stroke-width:1.5px;}.cls-4{fill:#231f20;}.cls-5,.cls-6{fill:#fff;stroke:#888;}.cls-5{stroke-width:0.5px;}.cls-6{stroke-linecap:round;}</style></defs><path class="cls-1" d="M488.75,278.05H16.89A16.82,16.82,0,0,1,0,261.16V250.84A16.82,16.82,0,0,1,16.89,234H488.28a16.82,16.82,0,0,1,16.89,16.89v10.32A16.15,16.15,0,0,1,488.75,278.05Z"/><circle class="cls-2" cx="252.82" cy="256" r="107.41"/><path class="cls-3" d="M91.47,256.47a24.52,24.52,0,0,1,24.39-24.39,23.22,23.22,0,0,1,23.45,23.45,24.34,24.34,0,0,1-23.45,24.39A23.16,23.16,0,0,1,91.47,256.47Z"/><path id="path3782" class="cls-4" d="M115.58,279a22.16,22.16,0,0,0,22.32-22.31,22.44,22.44,0,0,0-22.32-22.32,22.73,22.73,0,0,0-22.32,22.32C92.83,268.68,103.14,279,115.58,279Zm0-.85,5.58-7.3,2.15,5.58A14.69,14.69,0,0,1,115.58,278.13Zm-.86,0a20,20,0,0,1-7.29-1.29l2.14-5.15Zm.43-.43L110,270.83l6-2.58,5.15,2.15ZM107,276.41c-2.58-1.29-5.15-2.58-6.87-4.72l9-.43Zm17.17,0L122,270.83l9,.86A18,18,0,0,1,124.17,276.41Zm6.86-5.15-9.44-.86,2.15-5.58,6-2.58Zm.43,0-.85-8.59,5.15,2.15A28,28,0,0,1,131.46,271.26Zm-31.76,0,.86-9,6,2.58,2.57,6Zm-.43,0A28.29,28.29,0,0,1,95,264.82l5.15-2.15Zm10.3-.86-2.14-5.58,7.72,3Zm11.59-.43-4.72-1.72,6.44-3ZM116,267.82l-8.58-3.43-3.87-8.15,3.44-8.16,9-3.43,7.73,3.43,3.43,8.16-3.86,8.58Zm8.16-3.43,3.43-7.72,2.15,5.15Zm11.59-.43-5.15-2.14,6.43-5.58A11.48,11.48,0,0,1,135.76,264Zm-29.62,0L101,261.82l2.15-5.15ZM95,264a20.72,20.72,0,0,1-1.29-7.72l6.44,5.58Zm35.2-2.57-2.58-5.58,2.15-5.15,6.86,5.58Zm-29.62,0-6.87-5.15,6.44-5.58,2.58,5.58Zm36.91-5.58-6.86-5.58,5.15-2.15C136.61,250.66,137.47,252.8,137.47,255.81Zm-44.21,0A16.83,16.83,0,0,1,95,248.08l5.15,2.15Zm9.88-.43L101,250.23l5.15-2.15Zm24.46,0-3-7.3,5.15,2.15Zm2.15-5.58-5.58-2.58L122,241.64l8.59-.86Zm-29.19,0-.43-9,9,.43-2.57,6Zm29.62,0,.85-9a24.67,24.67,0,0,1,4.73,6.87Zm-30.05,0-4.72-2.15a17.15,17.15,0,0,1,4.29-6.44Zm7.3-2.58,2.57-5.58,5.58,2.58Zm15.88-.43-6.87-3,4.72-1.72Zm-7.3-3-6-2.58,5.15-6.43,6,6.86Zm6-2.58,2.15-5.15a28.24,28.24,0,0,1,6.44,4.3Zm-.43,0-6-6.86a17.53,17.53,0,0,1,8.16,1.71Zm-12.45-.43-9-.42a23.05,23.05,0,0,1,6.87-4.3Zm.43-.42-2.14-4.73a17.92,17.92,0,0,1,6.87-1.28Z"/><path id="path3782-2" data-name="path3782" class="cls-4" d="M65,278.51a21.89,21.89,0,0,0,22-22,22.16,22.16,0,0,0-22-22.05,22.46,22.46,0,0,0-22,22.05C42.5,268.34,52.67,278.51,65,278.51Zm0-.84,5.51-7.21L72.6,276A14.55,14.55,0,0,1,65,277.67Zm-.85,0a19.75,19.75,0,0,1-7.21-1.28L59,271.31Zm.42-.43-5.09-6.78,5.94-2.54L70.48,270ZM56.49,276c-2.55-1.27-5.09-2.54-6.79-4.66l8.91-.43Zm16.95,0-2.11-5.51,8.9.85A17.74,17.74,0,0,1,73.44,276Zm6.79-5.09L70.9,270,73,264.52,79,262Zm.42,0-.85-8.48,5.09,2.12A27.61,27.61,0,0,1,80.65,270.88Zm-31.37,0,.85-8.9,5.93,2.54,2.55,5.94Zm-.42,0a27.29,27.29,0,0,1-4.24-6.36l5.08-2.12ZM59,270l-2.12-5.52,7.63,3Zm11.45-.43-4.67-1.69,6.36-3Zm-5.09-2.12-8.48-3.39-3.81-8.05L56.49,248l8.9-3.39L73,248l3.39,8.06-3.81,8.47Zm8-3.39,3.4-7.63L79,261.56Zm11.45-.42-5.09-2.12,6.36-5.51A11.3,11.3,0,0,1,84.89,263.68Zm-29.25,0-5.09-2.12,2.12-5.09Zm-11,0a20.51,20.51,0,0,1-1.28-7.63l6.36,5.51Zm34.76-2.55-2.54-5.51L79,250.53l6.78,5.52Zm-29.25,0-6.79-5.08,6.36-5.52,2.55,5.52Zm36.46-5.51-6.79-5.51L84.89,248C85.74,250.53,86.59,252.65,86.59,255.62Zm-43.67,0a16.53,16.53,0,0,1,1.7-7.63l5.08,2.12Zm9.75-.42-2.12-5.09L55.64,248Zm24.17,0-3-7.21L79,250.11ZM79,249.69l-5.52-2.55-2.11-5.51,8.47-.85Zm-28.83,0-.43-8.91,8.91.43-2.55,5.93Zm29.25,0,.85-8.91a24.12,24.12,0,0,1,4.66,6.79Zm-29.68,0L45,247.57a16.66,16.66,0,0,1,4.24-6.36Zm7.21-2.55,2.54-5.51L65,244.17Zm15.69-.42-6.79-3,4.67-1.7Zm-7.21-3-5.94-2.54,5.09-6.36,5.94,6.78Zm5.94-2.54,2.11-5.09a27.61,27.61,0,0,1,6.36,4.24Zm-.43,0L65,234.42a17.22,17.22,0,0,1,8,1.7Zm-12.29-.43-8.91-.42a22.69,22.69,0,0,1,6.79-4.24Zm.42-.42-2.12-4.66a17.54,17.54,0,0,1,6.78-1.28Z"/><path class="cls-5" d="M136.49,274.76a3.29,3.29,0,1,1,3.29,3.29C137.9,278.51,136.49,277.11,136.49,274.76Z"/><path class="cls-5" d="M137.9,238.65a3.29,3.29,0,1,1,3.29,3.28A3.21,3.21,0,0,1,137.9,238.65Z"/><path id="path3782-3" data-name="path3782" class="cls-4" d="M437.63,234A22.17,22.17,0,0,0,415.58,256a22,22,0,1,0,44.09,0A22.17,22.17,0,0,0,437.63,234Zm-.43.85L431.69,242l-2.12-5.51A14.55,14.55,0,0,1,437.2,234.8Zm.85,0a20,20,0,0,1,7.21,1.27l-2.12,5.09Zm-.42.43,5.08,6.78-5.93,2.54-5.09-2.12Zm8.05,1.27c2.55,1.27,5.09,2.54,6.79,4.66l-8.91.43Zm-17,0,2.12,5.51-8.9-.85A17.79,17.79,0,0,1,428.72,236.5Zm-6.78,5.09,9.33.84-2.12,5.51-5.94,2.55Zm-.42,0,.84,8.47-5.08-2.12A20.84,20.84,0,0,1,421.52,241.59Zm31.37,0-.85,8.9-5.93-2.55L443.56,242Zm.42,0a27.78,27.78,0,0,1,4.24,6.35l-5.08,2.12Zm-10.17.84,2.54,5.51-8.05-3.39Zm-11.45.43,4.67,1.69-6.79,3ZM437.2,245l8.48,3.39,3.39,8.05-3.39,8.06-8.9,3.39-7.63-3-3.39-8,3.81-8.48Zm-8.48,3.39L425.33,256l-2.12-5.09Zm-11.44.42,5.08,2.12L415.58,256A20,20,0,0,1,417.28,248.79Zm29.25,0,5.09,2.12L449.5,256Zm11,0a20.52,20.52,0,0,1,1.27,7.63l-6.35-5.51Zm-34.76,2.12,2.54,5.51-2.12,5.09L416.43,256Zm29.25,0,6.78,5.51-6.35,5.52-2.55-5.52Zm-36.46,5.94,6.78,5.51-5.08,2.12A49.76,49.76,0,0,1,415.58,256.85Zm43.67,0a16.65,16.65,0,0,1-1.7,7.63l-5.08-2.12Zm-9.75.42,2.12,5.09-5.09,2.12Zm-24.17,0,3,7.21-5.09-2.12Zm-2.12,5.51,5.51,2.55,2.55,5.51-8.48.85Zm28.83,0,.85,8.91-9.33-.43,2.55-5.93Zm-29.25,0-.85,8.91a37.92,37.92,0,0,1-4.66-6.79Zm29.68,0,5.08,2.12a16.66,16.66,0,0,1-4.24,6.36Zm-7.21,2.55-2.55,5.51-5.08-2.12Zm-15.69,0,6.79,3-4.67,1.7Zm7.21,3.39,5.93,2.54-5.08,6.36-5.94-6.78Zm-5.94,2.54-2.12,5.09c-2.54-.85-4.24-2.54-6.36-4.24Zm.43,0,5.93,6.79a17.22,17.22,0,0,1-8.05-1.7Zm12.29.43,8.91.42a22.69,22.69,0,0,1-6.79,4.24Zm-.42.42,2.12,4.66a17.55,17.55,0,0,1-6.79,1.28Z"/><path id="path3782-4" data-name="path3782" class="cls-4" d="M391.43,234A22.17,22.17,0,0,0,369.38,256a22,22,0,1,0,44.09,0A22.17,22.17,0,0,0,391.43,234Zm-.43.85L385.49,242l-2.12-5.51A14.53,14.53,0,0,1,391,234.8Zm.85,0a20,20,0,0,1,7.21,1.27l-2.12,5.09Zm-.42.43,5.08,6.78-5.93,2.54-5.09-2.12Zm8.05,1.27c2.54,1.27,5.09,2.54,6.78,4.66l-8.9.43Zm-17,0,2.12,5.51-8.9-.85A17.79,17.79,0,0,1,382.52,236.5Zm-6.78,5.09,9.33.84L383,247.94,377,250.49Zm-.43,0,.85,8.47-5.08-2.12A20.81,20.81,0,0,1,375.31,241.59Zm31.38,0-.85,8.9-5.94-2.55L397.36,242Zm.42,0a27.78,27.78,0,0,1,4.24,6.35l-5.09,2.12Zm-10.17.84,2.54,5.51-8.05-3.39Zm-11.45.43,4.66,1.69-6.78,3ZM391,245l8.48,3.39,3.39,8.05-3.39,8.06-8.9,3.39-7.63-3-3.4-8,3.82-8.48Zm-8.48,3.39L379.13,256,377,250.91Zm-11.44.42,5.08,2.12L369.38,256A20,20,0,0,1,371.08,248.79Zm29.25,0,5.09,2.12L403.3,256Zm11,0a20.52,20.52,0,0,1,1.27,7.63l-6.36-5.51Zm-34.76,2.12,2.54,5.51L377,261.51,370.23,256Zm29.25,0,6.78,5.51-6.36,5.52-2.54-5.52Zm-36.46,5.94,6.78,5.51-5.08,2.12A48.61,48.61,0,0,1,369.38,256.85Zm43.67,0a16.65,16.65,0,0,1-1.7,7.63l-5.09-2.12Zm-9.75.42,2.12,5.09-5.09,2.12Zm-24.17,0,3,7.21L377,262.36ZM377,262.78l5.51,2.55,2.55,5.51-8.48.85Zm28.83,0,.85,8.91-9.33-.43,2.54-5.93Zm-29.25,0-.85,8.91a37.92,37.92,0,0,1-4.66-6.79Zm29.67,0,5.09,2.12a16.66,16.66,0,0,1-4.24,6.36Zm-7.2,2.55-2.55,5.51-5.08-2.12Zm-15.69,0,6.78,3-4.66,1.7Zm7.21,3.39,5.93,2.54-5.08,6.36-5.94-6.78Zm-5.94,2.54-2.12,5.09c-2.54-.85-4.24-2.54-6.36-4.24Zm.43,0,5.93,6.79a17.19,17.19,0,0,1-8.05-1.7Zm12.29.43,8.9.42a22.77,22.77,0,0,1-6.78,4.24Zm-.42.42,2.12,4.66a17.55,17.55,0,0,1-6.79,1.28Z"/><path class="cls-5" d="M367.27,237.24A3.29,3.29,0,1,1,364,234,3.21,3.21,0,0,1,367.27,237.24Z"/><path class="cls-5" d="M365.86,273.82a3.28,3.28,0,1,1-3.28-3.28A3.21,3.21,0,0,1,365.86,273.82Z"/><circle class="cls-3" cx="252.82" cy="256" r="109.76"/><path id="path3782-5" data-name="path3782" class="cls-4" d="M252.82,146.24A109.76,109.76,0,1,0,362.58,256,109.9,109.9,0,0,0,252.82,146.24Zm-1.41,2.82-27.2,34.71L213,156.56A104.06,104.06,0,0,1,251.41,149.06Zm3.76,0a114.69,114.69,0,0,1,36.11,7L281,181.42Zm-1.88,1.87,26.27,33.3-28.62,12.2-24.86-10.32ZM294.1,157a112.75,112.75,0,0,1,34.24,23l-44.56,2.35Zm-83.49.47,10.78,26.73-43.62-4.69A122.19,122.19,0,0,1,210.61,157.5ZM177.3,182.36l45.5,5.16-11.26,26.27L182,226.45Zm-2.81.47,4.69,42.68-25.33-10.32A102.86,102.86,0,0,1,174.49,182.83Zm154.32,0-4.69,43.62L295.5,214.72l-12.66-29.55Zm2.81.47a115.61,115.61,0,0,1,20.64,32.36L327.4,226Zm-51.13,3.28,11.26,26.74-37.52-15.48Zm-55.34,2.35,22.51,9.38L215.3,212.38Zm25.79,10.31,42.69,17.36L311,256.47l-17.35,39.87-43.16,17.35-38-16.88-16.88-39.4,18.29-42.22Zm-41.27,17.83-15.95,37.05-10.79-25.33Zm-56.76.94,25.33,10.32-32.36,26.73A96.5,96.5,0,0,1,152.91,218Zm144,.47,25.8,10.78-10.79,24.39Zm56.29,0c4.22,11.72,7,23.92,7,37.05l-32.36-26.74ZM180.59,229.73l11.72,27.68-11.26,25.8-33.3-26.74Zm144.93.47,32.37,27.21-32.37,26.73-11.72-27.2ZM145.88,258.81l32.83,26.27L153.38,295.4C148.69,284.14,146.34,272,145.88,258.81Zm213.88,0c-.46,13.14-2.81,25.33-7.5,36.59l-24.39-9.85Zm-47.37,1.41,10.79,24.86-25.8,10.32Zm-118.67.94,14.54,34.71L183.4,284.61ZM182.93,287l27.21,12.19,11.72,27.21-42.21,5.16Zm141.19.47,3.28,43.62-45-1.88,13.13-30Zm-144,0-3.29,43.62a109.85,109.85,0,0,1-22.51-33.3Zm146.81.93,24.39,9.85a110.87,110.87,0,0,1-21.11,31.9Zm-35.18,12.2L280,327.77,253.76,316Zm-77.86.47,32.83,15-23,9.38ZM250,317.45l28.61,13.13L254.23,362l-29.55-33.78Zm-29.55,11.72L210.14,354.5c-11.26-5.16-22-11.73-31-20.17Zm2.81.47,29.08,33.3a109.07,109.07,0,0,1-39.4-7.5Zm60,2.35,43.15,1.87a109.93,109.93,0,0,1-33.3,21.58Zm-2.35.47,9.85,23.45A110.84,110.84,0,0,1,257,362.48Z"/><path class="cls-6" d="M191.37,314.63l2.82,2.82c1.41,1.4,1.87,3.75.94,5.16l-8,13.6c-3.28,5.63-9.85,9.38-13.6,5.63L166,334.33c-3.75-3.75,0-10.32,6.1-13.13l14.07-7C188.09,312.76,190,313.69,191.37,314.63Z"/><path class="cls-6" d="M313.8,196.9,311,194.08c-1.4-1.4-1.87-3.75-.94-5.15l8-13.61c3.28-5.63,9.85-8.91,13.6-5.63l7.51,7.51c3.75,3.75,0,10.32-6.1,13.13l-14.07,7A3.67,3.67,0,0,1,313.8,196.9Z"/><path class="cls-6" d="M314.73,314.16,311.92,317c-1.41,1.4-1.88,3.75-.94,5.16l8,13.6c3.28,5.63,9.85,9.38,13.6,5.63l7.5-7.51c3.76-3.75,0-10.32-6.09-13.13l-14.08-7A3.69,3.69,0,0,0,314.73,314.16Z"/><path class="cls-6" d="M190.9,197.84l2.82-2.82c1.41-1.4,1.88-3.75.94-5.16l-8-13.6c-3.28-5.63-9.85-9.38-13.6-5.63l-7,7.51c-3.75,3.75,0,10.32,6.1,13.13l14.07,7C187.15,199.71,189.5,199.24,190.9,197.84Z"/></svg>