<svg width="30" height="30" viewBox="0 0 30 30" fill="none" xmlns="http://www.w3.org/2000/svg">
<path fill-rule="evenodd" clip-rule="evenodd" d="M7 6.92308C7 5.86104 7.86105 5 8.92308 5H19.0988C19.2057 5 19.3078 5.04446 19.3805 5.12273L22.9563 8.96889C23.0225 9.04005 23.0592 9.13361 23.0592 9.23077V11.0335C23.0592 11.2459 22.887 11.4181 22.6746 11.4181C22.4622 11.4181 22.29 11.2459 22.29 11.0335V9.61538H20.6373C19.5753 9.61538 18.7142 8.75434 18.7142 7.69231V5.76923H8.92308C8.28588 5.76923 7.76923 6.28588 7.76923 6.92308V23.0769C7.76923 23.7141 8.28588 24.2308 8.92308 24.2308H21.1362C21.7734 24.2308 22.29 23.7141 22.29 23.0769V12.945C22.29 12.7326 22.4622 12.5604 22.6746 12.5604C22.887 12.5604 23.0592 12.7326 23.0592 12.945V23.0769C23.0592 24.139 22.1982 25 21.1362 25H8.92308C7.86105 25 7 24.139 7 23.0769V6.92308ZM19.4835 6.36318L21.7919 8.84615H20.6373C20.0001 8.84615 19.4835 8.32951 19.4835 7.69231V6.36318ZM12.0665 8.98923C11.2793 8.98923 10.6412 9.6274 10.6412 10.4146C10.6412 10.5531 10.6609 10.6869 10.6977 10.8134L10.8286 11.1198C10.9953 11.412 11.2635 11.6387 11.585 11.7542C11.5969 11.7585 11.6085 11.7633 11.6197 11.7685C11.7602 11.8149 11.9104 11.84 12.0665 11.84C12.2237 11.84 12.3749 11.8146 12.5162 11.7676C12.5266 11.7628 12.5372 11.7585 12.548 11.7546C12.8703 11.6388 13.1394 11.4109 13.3061 11.1177L13.4228 10.8543C13.4677 10.7158 13.4919 10.568 13.4919 10.4146C13.4919 9.6274 12.8538 8.98923 12.0665 8.98923ZM14.1821 11.0004C14.2336 10.8139 14.2612 10.6175 14.2612 10.4146C14.2612 9.20256 13.2786 8.22 12.0665 8.22C10.8545 8.22 9.87192 9.20256 9.87192 10.4146C9.87192 10.5988 9.8946 10.7776 9.93732 10.9485L9.32313 13.2384C9.28618 13.3762 9.3285 13.5231 9.43306 13.6201C9.53763 13.7171 9.68728 13.7482 9.82187 13.701L10.3923 13.501L10.7275 13.9322C10.8171 14.0475 10.9642 14.1021 11.1073 14.0732C11.2504 14.0442 11.3648 13.9368 11.4026 13.7958L11.7279 12.5833C11.8383 12.6004 11.9514 12.6092 12.0665 12.6092C12.1817 12.6092 12.2947 12.6004 12.4051 12.5833L12.7304 13.7962C12.7674 13.9339 12.8775 14.0399 13.0166 14.0716C13.1556 14.1032 13.3008 14.0553 13.3937 13.9471L13.7873 13.4889L14.2936 13.6948C14.4296 13.75 14.5852 13.7231 14.6947 13.6253C14.8042 13.5275 14.8484 13.3759 14.8088 13.2346L14.1821 11.0004ZM13.1342 12.3325C13.324 12.2266 13.4964 12.0933 13.6462 11.9381L13.8562 12.6866L13.8206 12.6722C13.6675 12.6099 13.4917 12.6525 13.384 12.7779L13.2847 12.8935L13.1342 12.3325ZM10.4724 11.9229C10.6255 12.0847 10.8029 12.2231 10.9988 12.3324L10.8601 12.8494L10.8298 12.8105C10.7284 12.68 10.5549 12.6289 10.3989 12.6836L10.2548 12.7341L10.4724 11.9229ZM9.31 18.0765C9.31 17.8641 9.4822 17.6919 9.69462 17.6919H18.8254C19.0378 17.6919 19.21 17.8641 19.21 18.0765C19.21 18.289 19.0378 18.4612 18.8254 18.4612H9.69462C9.4822 18.4612 9.31 18.289 9.31 18.0765ZM9.31 20.7715C9.31 20.5591 9.4822 20.3869 9.69462 20.3869H14.9762C15.1886 20.3869 15.3608 20.5591 15.3608 20.7715C15.3608 20.984 15.1886 21.1562 14.9762 21.1562H9.69462C9.4822 21.1562 9.31 20.984 9.31 20.7715Z" fill="black"/>
</svg>
