<svg width="30" height="30" viewBox="0 0 30 30" fill="none" xmlns="http://www.w3.org/2000/svg">
<path fill-rule="evenodd" clip-rule="evenodd" d="M2.38415 6.02737C2.38415 6.04243 2.35945 6.05474 2.32927 6.05474C2.29909 6.05474 2.27439 6.06706 2.27439 6.08212C2.27439 6.09717 2.25499 6.10949 2.23128 6.10949C2.17583 6.10949 2.10976 6.1754 2.10976 6.23072C2.10976 6.25437 2.09741 6.27372 2.08232 6.27372C2.06723 6.27372 2.05488 6.29835 2.05488 6.32846C2.05488 6.35857 2.04253 6.38321 2.02744 6.38321C2.01218 6.38321 2 6.45621 2 6.54744C2 6.63867 2.01218 6.71167 2.02744 6.71167C2.04253 6.71167 2.05488 6.73631 2.05488 6.76641C2.05488 6.79652 2.06723 6.82116 2.08232 6.82116C2.09741 6.82116 2.10976 6.84018 2.10976 6.86345C2.10976 6.91822 2.23197 7.04013 2.28688 7.04013C2.3102 7.04013 2.32927 7.05245 2.32927 7.06751C2.32927 7.08535 2.77743 7.09488 3.6189 7.09488C4.46038 7.09488 4.90854 7.1044 4.90854 7.12225C4.90854 7.1373 4.94286 7.14962 4.98479 7.14962C5.02957 7.14962 5.07737 7.17223 5.10061 7.20437C5.12237 7.23447 5.16213 7.25911 5.18899 7.25911C5.2175 7.25911 5.2378 7.27936 5.2378 7.3078C5.2378 7.3346 5.2625 7.37426 5.29268 7.39597C5.3404 7.43027 5.34756 7.46683 5.34756 7.67574C5.34756 7.81769 5.33634 7.91604 5.32012 7.91604C5.30503 7.91604 5.29268 7.93506 5.29268 7.95833C5.29268 8.0131 5.17047 8.13501 5.11556 8.13501C5.09224 8.13501 5.07317 8.14733 5.07317 8.16238C5.07317 8.17744 5.04848 8.18976 5.01829 8.18976C4.98811 8.18976 4.96341 8.20207 4.96341 8.21713C4.96341 8.2347 4.69816 8.2445 4.22256 8.2445C3.74696 8.2445 3.48171 8.2543 3.48171 8.27187C3.48171 8.28693 3.46277 8.29924 3.43964 8.29924C3.38501 8.29924 3.20732 8.4765 3.20732 8.531C3.20732 8.55408 3.19497 8.57296 3.17988 8.57296C3.16479 8.57296 3.15244 8.60991 3.15244 8.65508C3.15244 8.70024 3.14009 8.73719 3.125 8.73719C3.10991 8.73719 3.09756 8.76183 3.09756 8.79194C3.09756 8.82205 3.10991 8.84668 3.125 8.84668C3.14009 8.84668 3.15244 8.89012 3.15244 8.9432C3.15244 9.02101 3.17623 9.06347 3.2752 9.16217C3.3427 9.22953 3.41679 9.28463 3.43984 9.28463C3.46286 9.28463 3.48171 9.29695 3.48171 9.312C3.48171 9.32955 3.7378 9.33938 4.19512 9.33938C4.65245 9.33938 4.90854 9.3492 4.90854 9.36675C4.90854 9.3818 4.94286 9.39412 4.98479 9.39412C5.02957 9.39412 5.07737 9.41673 5.10061 9.44886C5.12237 9.47897 5.16213 9.50361 5.18899 9.50361C5.2175 9.50361 5.2378 9.52386 5.2378 9.5523C5.2378 9.5791 5.2625 9.61876 5.29268 9.64047C5.3404 9.67477 5.34756 9.71133 5.34756 9.92024C5.34756 10.0622 5.33634 10.1605 5.32012 10.1605C5.30503 10.1605 5.29268 10.1796 5.29268 10.2028C5.29268 10.2576 5.17047 10.3795 5.11556 10.3795C5.09224 10.3795 5.07317 10.3918 5.07317 10.4069C5.07317 10.4219 5.04848 10.4343 5.01829 10.4343C4.98811 10.4343 4.96341 10.4466 4.96341 10.4616C4.96341 10.4768 4.89023 10.489 4.79878 10.489C4.70733 10.489 4.63415 10.5012 4.63415 10.5164C4.63415 10.5314 4.60945 10.5437 4.57927 10.5437C4.54909 10.5437 4.52439 10.5561 4.52439 10.5711C4.52439 10.5862 4.50499 10.5985 4.48128 10.5985C4.42583 10.5985 4.35976 10.6644 4.35976 10.7197C4.35976 10.7434 4.34741 10.7627 4.33232 10.7627C4.31723 10.7627 4.30488 10.7874 4.30488 10.8175C4.30488 10.8476 4.29253 10.8722 4.27744 10.8722C4.26218 10.8722 4.25 10.9452 4.25 11.0364C4.25 11.1277 4.26218 11.2007 4.27744 11.2007C4.29253 11.2007 4.30488 11.2319 4.30488 11.27C4.30488 11.3471 4.46806 11.5291 4.5372 11.5291C4.56034 11.5291 4.57927 11.5414 4.57927 11.5565C4.57927 11.5734 4.7256 11.5839 4.96341 11.5839H5.34756V15.8539C5.34756 18.6823 5.35684 20.1239 5.375 20.1239C5.39026 20.1239 5.40244 20.1969 5.40244 20.2882C5.40244 20.3794 5.41462 20.4524 5.42988 20.4524C5.44497 20.4524 5.45732 20.4893 5.45732 20.5345C5.45732 20.5797 5.46966 20.6166 5.48476 20.6166C5.49985 20.6166 5.5122 20.6413 5.5122 20.6714C5.5122 20.7015 5.52454 20.7261 5.53963 20.7261C5.55473 20.7261 5.56707 20.7507 5.56707 20.7808C5.56707 20.811 5.57942 20.8356 5.59451 20.8356C5.6096 20.8356 5.62195 20.8553 5.62195 20.8794C5.62195 20.9034 5.65899 20.9576 5.70427 20.9998C5.74954 21.042 5.78659 21.0905 5.78659 21.1075C5.78659 21.1505 5.96878 21.3283 6.01285 21.3283C6.03266 21.3283 6.06666 21.3529 6.08841 21.383C6.11017 21.4131 6.14993 21.4378 6.1768 21.4378C6.20363 21.4378 6.22561 21.4501 6.22561 21.4651C6.22561 21.4802 6.25031 21.4925 6.28049 21.4925C6.31067 21.4925 6.33537 21.5048 6.33537 21.5199C6.33537 21.5349 6.36006 21.5473 6.39024 21.5473C6.42043 21.5473 6.44512 21.5596 6.44512 21.5746C6.44512 21.5897 6.48216 21.602 6.52744 21.602C6.57271 21.602 6.60976 21.6143 6.60976 21.6294C6.60976 21.6444 6.67149 21.6568 6.74695 21.6568C6.82241 21.6568 6.88415 21.6691 6.88415 21.6841C6.88415 21.7011 7.03964 21.7115 7.29573 21.7115H7.70732V21.821C7.70732 21.8812 7.71966 21.9305 7.73476 21.9305C7.74985 21.9305 7.7622 21.9674 7.7622 22.0126C7.7622 22.0577 7.77454 22.0947 7.78963 22.0947C7.80473 22.0947 7.81707 22.1317 7.81707 22.1768C7.81707 22.222 7.82942 22.2589 7.84451 22.2589C7.8596 22.2589 7.87195 22.2836 7.87195 22.3137C7.87195 22.3438 7.8843 22.3684 7.89939 22.3684C7.91448 22.3684 7.92683 22.3903 7.92683 22.4171C7.92683 22.4439 7.95152 22.4836 7.98171 22.5053C8.01189 22.527 8.03659 22.5666 8.03659 22.5934C8.03659 22.6202 8.04893 22.6421 8.06402 22.6421C8.07912 22.6421 8.09146 22.6616 8.09146 22.6853C8.09146 22.7091 8.14085 22.7759 8.20122 22.8337C8.26159 22.8916 8.31098 22.9525 8.31098 22.969C8.31098 23.0086 8.60262 23.2991 8.64236 23.2991C8.65926 23.2991 8.70772 23.336 8.75 23.3812C8.79228 23.4263 8.84664 23.4633 8.87076 23.4633C8.89491 23.4633 8.91463 23.4756 8.91463 23.4907C8.91463 23.5057 8.93661 23.518 8.96345 23.518C8.99031 23.518 9.03007 23.5427 9.05183 23.5728C9.07359 23.6029 9.11335 23.6275 9.14021 23.6275C9.16705 23.6275 9.18902 23.6398 9.18902 23.6549C9.18902 23.67 9.21372 23.6823 9.2439 23.6823C9.27409 23.6823 9.29878 23.6946 9.29878 23.7096C9.29878 23.7247 9.33582 23.737 9.3811 23.737C9.42637 23.737 9.46341 23.7493 9.46341 23.7644C9.46341 23.7794 9.50046 23.7918 9.54573 23.7918C9.59101 23.7918 9.62805 23.8041 9.62805 23.8191C9.62805 23.8342 9.67744 23.8465 9.7378 23.8465C9.79817 23.8465 9.84756 23.8588 9.84756 23.8739C9.84756 23.8895 9.92988 23.9012 10.0396 23.9012C10.1494 23.9012 10.2317 23.913 10.2317 23.9286C10.2317 23.9443 10.314 23.956 10.4238 23.956C10.5335 23.956 10.6159 23.9443 10.6159 23.9286C10.6159 23.913 10.6982 23.9012 10.8079 23.9012C10.9177 23.9012 11 23.8895 11 23.8739C11 23.8588 11.0494 23.8465 11.1098 23.8465C11.1701 23.8465 11.2195 23.8342 11.2195 23.8191C11.2195 23.8041 11.2566 23.7918 11.3018 23.7918C11.3471 23.7918 11.3841 23.7794 11.3841 23.7644C11.3841 23.7493 11.4212 23.737 11.4665 23.737C11.5117 23.737 11.5488 23.7247 11.5488 23.7096C11.5488 23.6946 11.5735 23.6823 11.6037 23.6823C11.6338 23.6823 11.6585 23.67 11.6585 23.6549C11.6585 23.6398 11.6832 23.6275 11.7134 23.6275C11.7436 23.6275 11.7683 23.6152 11.7683 23.6002C11.7683 23.5851 11.7903 23.5728 11.8171 23.5728C11.844 23.5728 11.8837 23.5482 11.9055 23.518C11.9272 23.4879 11.9621 23.4633 11.9829 23.4633C12.0036 23.4633 12.0553 23.4263 12.0976 23.3812C12.1398 23.336 12.1882 23.2991 12.2051 23.2991C12.2451 23.2991 12.5915 22.9535 12.5915 22.9137C12.5915 22.8968 12.6285 22.8486 12.6738 22.8064C12.7191 22.7642 12.7561 22.7127 12.7561 22.692C12.7561 22.6712 12.7808 22.6365 12.811 22.6148C12.8412 22.5931 12.8659 22.5534 12.8659 22.5266C12.8659 22.4998 12.8782 22.4779 12.8933 22.4779C12.9084 22.4779 12.9207 22.4533 12.9207 22.4232C12.9207 22.3931 12.9331 22.3684 12.9482 22.3684C12.9633 22.3684 12.9756 22.3438 12.9756 22.3137C12.9756 22.2836 12.988 22.2589 13.003 22.2589C13.0181 22.2589 13.0305 22.2343 13.0305 22.2042C13.0305 22.1741 13.0428 22.1494 13.0579 22.1494C13.073 22.1494 13.0854 22.1125 13.0854 22.0673C13.0854 22.0222 13.0977 21.9852 13.1128 21.9852C13.1279 21.9852 13.1402 21.9412 13.1402 21.8875C13.1402 21.6985 12.9247 21.7115 16.0488 21.7115C19.1728 21.7115 18.9573 21.6985 18.9573 21.8875C18.9573 21.9412 18.9697 21.9852 18.9848 21.9852C18.9998 21.9852 19.0122 22.0222 19.0122 22.0673C19.0122 22.1125 19.0245 22.1494 19.0396 22.1494C19.0547 22.1494 19.0671 22.1741 19.0671 22.2042C19.0671 22.2343 19.0794 22.2589 19.0945 22.2589C19.1096 22.2589 19.122 22.2836 19.122 22.3137C19.122 22.3438 19.1343 22.3684 19.1494 22.3684C19.1645 22.3684 19.1768 22.3931 19.1768 22.4232C19.1768 22.4533 19.1892 22.4779 19.2043 22.4779C19.2194 22.4779 19.2317 22.4998 19.2317 22.5266C19.2317 22.5534 19.2564 22.5931 19.2866 22.6148C19.3168 22.6365 19.3415 22.6734 19.3415 22.6969C19.3415 22.7203 19.3662 22.7573 19.3963 22.779C19.4265 22.8007 19.4512 22.8344 19.4512 22.8539C19.4512 22.8972 19.8496 23.2991 19.8925 23.2991C19.9093 23.2991 19.9577 23.336 20 23.3812C20.0423 23.4263 20.0939 23.4633 20.1147 23.4633C20.1355 23.4633 20.1703 23.4879 20.1921 23.518C20.2138 23.5482 20.2536 23.5728 20.2805 23.5728C20.3073 23.5728 20.3293 23.5851 20.3293 23.6002C20.3293 23.6152 20.354 23.6275 20.3841 23.6275C20.4143 23.6275 20.439 23.6398 20.439 23.6549C20.439 23.67 20.4637 23.6823 20.4939 23.6823C20.5241 23.6823 20.5488 23.6946 20.5488 23.7096C20.5488 23.7247 20.5858 23.737 20.6311 23.737C20.6764 23.737 20.7134 23.7493 20.7134 23.7644C20.7134 23.7794 20.7505 23.7918 20.7957 23.7918C20.841 23.7918 20.878 23.8041 20.878 23.8191C20.878 23.8342 20.9274 23.8465 20.9878 23.8465C21.0482 23.8465 21.0976 23.8588 21.0976 23.8739C21.0976 23.8895 21.1799 23.9012 21.2896 23.9012C21.3994 23.9012 21.4817 23.913 21.4817 23.9286C21.4817 23.9443 21.564 23.956 21.6738 23.956C21.7835 23.956 21.8659 23.9443 21.8659 23.9286C21.8659 23.913 21.9482 23.9012 22.0579 23.9012C22.1677 23.9012 22.25 23.8895 22.25 23.8739C22.25 23.8588 22.2994 23.8465 22.3598 23.8465C22.4201 23.8465 22.4695 23.8342 22.4695 23.8191C22.4695 23.8041 22.5066 23.7918 22.5518 23.7918C22.5971 23.7918 22.6341 23.7794 22.6341 23.7644C22.6341 23.7493 22.6712 23.737 22.7165 23.737C22.7617 23.737 22.7988 23.7247 22.7988 23.7096C22.7988 23.6946 22.8235 23.6823 22.8537 23.6823C22.8838 23.6823 22.9085 23.67 22.9085 23.6549C22.9085 23.6398 22.9305 23.6275 22.9573 23.6275C22.9842 23.6275 23.024 23.6029 23.0457 23.5728C23.0675 23.5427 23.1073 23.518 23.1341 23.518C23.1609 23.518 23.1829 23.5057 23.1829 23.4907C23.1829 23.4756 23.2024 23.4633 23.2262 23.4633C23.2501 23.4633 23.317 23.414 23.375 23.3538C23.433 23.2936 23.4941 23.2443 23.5108 23.2443C23.5502 23.2443 23.7866 23.0085 23.7866 22.9692C23.7866 22.9525 23.836 22.8916 23.8963 22.8337C23.9567 22.7759 24.0061 22.7091 24.0061 22.6853C24.0061 22.6616 24.0184 22.6421 24.0335 22.6421C24.0486 22.6421 24.061 22.6202 24.061 22.5934C24.061 22.5666 24.0857 22.527 24.1159 22.5053C24.146 22.4836 24.1707 22.4439 24.1707 22.4171C24.1707 22.3903 24.1831 22.3684 24.1982 22.3684C24.2133 22.3684 24.2256 22.3315 24.2256 22.2863C24.2256 22.2411 24.238 22.2042 24.253 22.2042C24.2681 22.2042 24.2805 22.1796 24.2805 22.1494C24.2805 22.1193 24.2928 22.0947 24.3079 22.0947C24.323 22.0947 24.3354 22.0577 24.3354 22.0126C24.3354 21.9674 24.3477 21.9305 24.3628 21.9305C24.3779 21.9305 24.3902 21.8812 24.3902 21.821V21.7115H25.8994C26.8872 21.7115 27.4085 21.7021 27.4085 21.6841C27.4085 21.6689 27.4817 21.6568 27.5732 21.6568C27.6646 21.6568 27.7378 21.6446 27.7378 21.6294C27.7378 21.6143 27.7748 21.602 27.8201 21.602C27.8654 21.602 27.9024 21.5897 27.9024 21.5746C27.9024 21.5596 27.9271 21.5473 27.9573 21.5473C27.9875 21.5473 28.0122 21.5349 28.0122 21.5199C28.0122 21.5048 28.0369 21.4925 28.0671 21.4925C28.0973 21.4925 28.122 21.4802 28.122 21.4651C28.122 21.4501 28.1417 21.4378 28.1658 21.4378C28.1899 21.4378 28.2443 21.4008 28.2866 21.3557C28.3289 21.3105 28.3776 21.2735 28.3949 21.2735C28.4356 21.2735 28.561 21.1485 28.561 21.1079C28.561 21.0906 28.598 21.042 28.6433 20.9998C28.6886 20.9576 28.7256 20.9034 28.7256 20.8794C28.7256 20.8553 28.738 20.8356 28.753 20.8356C28.7681 20.8356 28.7805 20.811 28.7805 20.7808C28.7805 20.7507 28.7928 20.7261 28.8079 20.7261C28.823 20.7261 28.8354 20.7015 28.8354 20.6714C28.8354 20.6413 28.8477 20.6166 28.8628 20.6166C28.8779 20.6166 28.8902 20.5797 28.8902 20.5345C28.8902 20.4893 28.9026 20.4524 28.9177 20.4524C28.9337 20.4524 28.9451 20.3612 28.9451 20.2334C28.9451 20.1057 28.9566 20.0144 28.9726 20.0144C28.9907 20.0144 29 18.8557 29 16.5929C29 14.3302 28.9907 13.1714 28.9726 13.1714C28.9573 13.1714 28.9451 13.0984 28.9451 13.0072C28.9451 12.916 28.9329 12.843 28.9177 12.843C28.9026 12.843 28.8902 12.8087 28.8902 12.7669C28.8902 12.7222 28.8676 12.6746 28.8354 12.6514C28.8052 12.6297 28.7805 12.5961 28.7805 12.5768C28.7805 12.531 25.9103 9.66784 25.8644 9.66784C25.845 9.66784 25.8114 9.64321 25.7896 9.6131C25.7679 9.58299 25.7281 9.55835 25.7013 9.55835C25.6744 9.55835 25.6524 9.54603 25.6524 9.53098C25.6524 9.51593 25.6277 9.50361 25.5976 9.50361C25.5674 9.50361 25.5427 9.49129 25.5427 9.47624C25.5427 9.46118 25.5056 9.44886 25.4604 9.44886C25.4151 9.44886 25.378 9.43655 25.378 9.42149C25.378 9.40627 25.3049 9.39412 25.2134 9.39412C25.122 9.39412 25.0488 9.38197 25.0488 9.36675C25.0488 9.34885 24.564 9.33938 23.6494 9.33938H22.25V8.4361C22.25 7.85218 22.2403 7.53283 22.2226 7.53283C22.2073 7.53283 22.1951 7.45983 22.1951 7.3686C22.1951 7.27737 22.1829 7.20437 22.1677 7.20437C22.1526 7.20437 22.1402 7.16741 22.1402 7.12225C22.1402 7.07709 22.1279 7.04013 22.1128 7.04013C22.0977 7.04013 22.0854 7.0155 22.0854 6.98539C22.0854 6.95528 22.073 6.93065 22.0579 6.93065C22.0428 6.93065 22.0305 6.90872 22.0305 6.88195C22.0305 6.85515 22.0058 6.81549 21.9756 6.79379C21.9454 6.77208 21.9207 6.73839 21.9207 6.71887C21.9207 6.66908 21.519 6.27372 21.4684 6.27372C21.4455 6.27372 21.4268 6.2614 21.4268 6.24635C21.4268 6.23129 21.4021 6.21898 21.372 6.21898C21.3418 6.21898 21.3171 6.20666 21.3171 6.1916C21.3171 6.17655 21.2924 6.16423 21.2622 6.16423C21.232 6.16423 21.2073 6.15191 21.2073 6.13686C21.2073 6.12181 21.1826 6.10949 21.1524 6.10949C21.1223 6.10949 21.0976 6.09717 21.0976 6.08212C21.0976 6.06706 21.0482 6.05474 20.9878 6.05474C20.9274 6.05474 20.878 6.04243 20.878 6.02737C20.878 6.00917 17.7774 6 11.6311 6C5.48476 6 2.38415 6.00917 2.38415 6.02737ZM20.6037 7.12225C20.6037 7.1373 20.6472 7.14962 20.7004 7.14962C20.7784 7.14962 20.821 7.17335 20.9199 7.27208C20.9874 7.33942 21.0427 7.41332 21.0427 7.43632C21.0427 7.45928 21.055 7.47808 21.0701 7.47808C21.0883 7.47808 21.0976 9.30809 21.0976 12.9134C21.0976 18.9112 21.1131 18.4269 20.9212 18.4269C20.8673 18.4269 20.8232 18.4392 20.8232 18.4542C20.8232 18.4693 20.7861 18.4816 20.7409 18.4816C20.6956 18.4816 20.6585 18.4939 20.6585 18.509C20.6585 18.524 20.6338 18.5363 20.6037 18.5363C20.5735 18.5363 20.5488 18.5487 20.5488 18.5637C20.5488 18.5788 20.5241 18.5911 20.4939 18.5911C20.4637 18.5911 20.439 18.6034 20.439 18.6185C20.439 18.6335 20.4143 18.6458 20.3841 18.6458C20.354 18.6458 20.3293 18.6582 20.3293 18.6732C20.3293 18.6883 20.3046 18.7006 20.2744 18.7006C20.2442 18.7006 20.2195 18.7129 20.2195 18.728C20.2195 18.743 20.1998 18.7553 20.1756 18.7553C20.1515 18.7553 20.0972 18.7923 20.0549 18.8374C20.0126 18.8826 19.9642 18.9196 19.9475 18.9196C19.9306 18.9196 19.8121 19.0241 19.6841 19.1518C19.556 19.2796 19.4512 19.3978 19.4512 19.4146C19.4512 19.4313 19.4142 19.4796 19.3689 19.5217C19.3236 19.5639 19.2866 19.6181 19.2866 19.6422C19.2866 19.6663 19.2742 19.686 19.2591 19.686C19.2441 19.686 19.2317 19.7106 19.2317 19.7407C19.2317 19.7708 19.2194 19.7955 19.2043 19.7955C19.1892 19.7955 19.1768 19.8201 19.1768 19.8502C19.1768 19.8803 19.1645 19.9049 19.1494 19.9049C19.1343 19.9049 19.122 19.9296 19.122 19.9597C19.122 19.9898 19.1096 20.0144 19.0945 20.0144C19.0794 20.0144 19.0671 20.0391 19.0671 20.0692C19.0671 20.0993 19.0547 20.1239 19.0396 20.1239C19.0245 20.1239 19.0122 20.1609 19.0122 20.206C19.0122 20.2512 18.9998 20.2882 18.9848 20.2882C18.9697 20.2882 18.9573 20.3321 18.9573 20.3859C18.9573 20.5749 19.1728 20.5619 16.0488 20.5619C12.9247 20.5619 13.1402 20.5749 13.1402 20.3859C13.1402 20.3321 13.1279 20.2882 13.1128 20.2882C13.0977 20.2882 13.0854 20.2512 13.0854 20.206C13.0854 20.1609 13.073 20.1239 13.0579 20.1239C13.0428 20.1239 13.0305 20.0993 13.0305 20.0692C13.0305 20.0391 13.0181 20.0144 13.003 20.0144C12.988 20.0144 12.9756 19.9898 12.9756 19.9597C12.9756 19.9296 12.9633 19.9049 12.9482 19.9049C12.9331 19.9049 12.9207 19.8803 12.9207 19.8502C12.9207 19.8201 12.9084 19.7955 12.8933 19.7955C12.8782 19.7955 12.8659 19.7708 12.8659 19.7407C12.8659 19.7106 12.8535 19.686 12.8384 19.686C12.8233 19.686 12.811 19.6663 12.811 19.6422C12.811 19.6181 12.7739 19.5639 12.7287 19.5217C12.6834 19.4796 12.6463 19.4313 12.6463 19.4146C12.6463 19.3748 12.19 18.9196 12.1501 18.9196C12.1333 18.9196 12.085 18.8826 12.0427 18.8374C12.0004 18.7923 11.946 18.7553 11.9219 18.7553C11.8978 18.7553 11.878 18.743 11.878 18.728C11.878 18.7129 11.8534 18.7006 11.8232 18.7006C11.793 18.7006 11.7683 18.6883 11.7683 18.6732C11.7683 18.6582 11.7436 18.6458 11.7134 18.6458C11.6832 18.6458 11.6585 18.6335 11.6585 18.6185C11.6585 18.6034 11.6338 18.5911 11.6037 18.5911C11.5735 18.5911 11.5488 18.5788 11.5488 18.5637C11.5488 18.5487 11.5241 18.5363 11.4939 18.5363C11.4637 18.5363 11.439 18.524 11.439 18.509C11.439 18.4939 11.402 18.4816 11.3567 18.4816C11.3114 18.4816 11.2744 18.4693 11.2744 18.4542C11.2744 18.4392 11.225 18.4269 11.1646 18.4269C11.1043 18.4269 11.0549 18.4145 11.0549 18.3995C11.0549 18.3844 10.9931 18.3721 10.9177 18.3721C10.8422 18.3721 10.7805 18.3598 10.7805 18.3447C10.7805 18.328 10.6524 18.3174 10.4512 18.3174C10.25 18.3174 10.122 18.328 10.122 18.3447C10.122 18.36 10.0488 18.3721 9.95732 18.3721C9.86586 18.3721 9.79268 18.3843 9.79268 18.3995C9.79268 18.4145 9.74329 18.4269 9.68293 18.4269C9.62256 18.4269 9.57317 18.4392 9.57317 18.4542C9.57317 18.4693 9.53613 18.4816 9.49085 18.4816C9.44558 18.4816 9.40854 18.4939 9.40854 18.509C9.40854 18.524 9.38384 18.5363 9.35366 18.5363C9.32348 18.5363 9.29878 18.5487 9.29878 18.5637C9.29878 18.5788 9.27409 18.5911 9.2439 18.5911C9.21372 18.5911 9.18902 18.6034 9.18902 18.6185C9.18902 18.6335 9.16433 18.6458 9.13415 18.6458C9.10396 18.6458 9.07927 18.6582 9.07927 18.6732C9.07927 18.6883 9.05729 18.7006 9.03045 18.7006C9.00359 18.7006 8.96383 18.7252 8.94207 18.7553C8.92031 18.7854 8.88327 18.8101 8.85976 18.8101C8.83624 18.8101 8.7992 18.8347 8.77744 18.8648C8.75568 18.8949 8.7219 18.9196 8.70239 18.9196C8.6561 18.9196 8.20122 19.3733 8.20122 19.4195C8.20122 19.439 8.17652 19.4727 8.14634 19.4944C8.11616 19.5161 8.09146 19.553 8.09146 19.5765C8.09146 19.5999 8.06677 19.6369 8.03659 19.6586C8.0064 19.6803 7.98171 19.72 7.98171 19.7468C7.98171 19.7735 7.96936 19.7955 7.95427 19.7955C7.93918 19.7955 7.92683 19.8201 7.92683 19.8502C7.92683 19.8803 7.91448 19.9049 7.89939 19.9049C7.8843 19.9049 7.87195 19.9296 7.87195 19.9597C7.87195 19.9898 7.8596 20.0144 7.84451 20.0144C7.82942 20.0144 7.81707 20.0514 7.81707 20.0965C7.81707 20.1417 7.80473 20.1787 7.78963 20.1787C7.77454 20.1787 7.7622 20.2156 7.7622 20.2608C7.7622 20.3059 7.74985 20.3429 7.73476 20.3429C7.71966 20.3429 7.70732 20.3922 7.70732 20.4524V20.5619H7.29573C7.03964 20.5619 6.88415 20.5515 6.88415 20.5345C6.88415 20.5194 6.85945 20.5071 6.82927 20.5071C6.79909 20.5071 6.77439 20.4948 6.77439 20.4798C6.77439 20.4647 6.75499 20.4524 6.73128 20.4524C6.67583 20.4524 6.60976 20.3865 6.60976 20.3312C6.60976 20.3075 6.59741 20.2882 6.58232 20.2882C6.56723 20.2882 6.55488 20.2635 6.55488 20.2334C6.55488 20.2033 6.54253 20.1787 6.52744 20.1787C6.50927 20.1787 6.5 18.728 6.5 15.8813V11.5839H7.4543C8.37713 11.5839 8.40992 11.5821 8.44817 11.5291C8.46993 11.499 8.50439 11.4744 8.52478 11.4744C8.57502 11.4744 8.64024 11.4059 8.64024 11.3532C8.64024 11.3295 8.65259 11.3102 8.66768 11.3102C8.68277 11.3102 8.69512 11.2855 8.69512 11.2554C8.69512 11.2253 8.70747 11.2007 8.72256 11.2007C8.73782 11.2007 8.75 11.1277 8.75 11.0364C8.75 10.9452 8.73782 10.8722 8.72256 10.8722C8.70747 10.8722 8.69512 10.8503 8.69512 10.8235C8.69512 10.7967 8.67043 10.7571 8.64024 10.7353C8.61006 10.7136 8.58537 10.674 8.58537 10.6472C8.58537 10.6167 8.56481 10.5985 8.53049 10.5985C8.50031 10.5985 8.47561 10.5862 8.47561 10.5711C8.47561 10.5561 8.45091 10.5437 8.42073 10.5437C8.39055 10.5437 8.36585 10.5314 8.36585 10.5164C8.36585 10.4987 8.03659 10.489 7.43293 10.489H6.5V9.91419V9.33938H7.46037C8.08233 9.33938 8.42073 9.32974 8.42073 9.312C8.42073 9.29695 8.4398 9.28463 8.46312 9.28463C8.51803 9.28463 8.64024 9.16272 8.64024 9.10795C8.64024 9.08468 8.65259 9.06566 8.66768 9.06566C8.68277 9.06566 8.69512 9.04102 8.69512 9.01091C8.69512 8.9808 8.70747 8.95617 8.72256 8.95617C8.73782 8.95617 8.75 8.88317 8.75 8.79194C8.75 8.70071 8.73782 8.62771 8.72256 8.62771C8.70747 8.62771 8.69512 8.6089 8.69512 8.58594C8.69512 8.5316 8.46219 8.29924 8.40773 8.29924C8.3847 8.29924 8.36585 8.28693 8.36585 8.27187C8.36585 8.25416 8.03659 8.2445 7.43293 8.2445H6.5V7.86129C6.5 7.62406 6.51045 7.47808 6.52744 7.47808C6.54253 7.47808 6.55488 7.4592 6.55488 7.43612C6.55488 7.41302 6.59768 7.35143 6.65001 7.29926C6.70231 7.24707 6.76405 7.20437 6.7872 7.20437C6.81034 7.20437 6.82927 7.19205 6.82927 7.17699C6.82927 7.16194 6.86631 7.14962 6.91159 7.14962C6.95686 7.14962 6.9939 7.1373 6.9939 7.12225C6.9939 7.10407 9.28048 7.09488 13.7988 7.09488C18.3171 7.09488 20.6037 7.10407 20.6037 7.12225ZM25.1037 10.5164C25.1037 10.5314 25.1222 10.5437 25.1449 10.5437C25.1676 10.5437 25.7849 11.1411 26.5168 11.8712L27.8476 13.1987V13.5135V13.8284H25.0488H22.25V12.1587V10.489H23.6768C24.6098 10.489 25.1037 10.4985 25.1037 10.5164ZM27.8476 17.5783C27.8476 19.2936 27.8382 20.1787 27.8201 20.1787C27.805 20.1787 27.7927 20.2033 27.7927 20.2334C27.7927 20.2635 27.7803 20.2882 27.7652 20.2882C27.7502 20.2882 27.7378 20.3075 27.7378 20.3312C27.7378 20.3548 27.7202 20.3918 27.6986 20.4133C27.6771 20.4348 27.64 20.4524 27.6163 20.4524C27.5926 20.4524 27.5732 20.4647 27.5732 20.4798C27.5732 20.4948 27.5485 20.5071 27.5183 20.5071C27.4881 20.5071 27.4634 20.5194 27.4634 20.5345C27.4634 20.5524 26.9329 20.5619 25.9268 20.5619H24.3902V20.4524C24.3902 20.3922 24.3779 20.3429 24.3628 20.3429C24.3477 20.3429 24.3354 20.3059 24.3354 20.2608C24.3354 20.2156 24.323 20.1787 24.3079 20.1787C24.2928 20.1787 24.2805 20.1417 24.2805 20.0965C24.2805 20.0514 24.2681 20.0144 24.253 20.0144C24.238 20.0144 24.2256 19.9898 24.2256 19.9597C24.2256 19.9296 24.2133 19.9049 24.1982 19.9049C24.1831 19.9049 24.1707 19.8803 24.1707 19.8502C24.1707 19.8201 24.1584 19.7955 24.1433 19.7955C24.1282 19.7955 24.1159 19.7735 24.1159 19.7468C24.1159 19.72 24.0912 19.6803 24.061 19.6586C24.0308 19.6369 24.0061 19.6022 24.0061 19.5814C24.0061 19.5607 23.9691 19.5092 23.9238 19.467C23.8785 19.4248 23.8415 19.3766 23.8415 19.3598C23.8415 19.317 23.4386 18.9196 23.3952 18.9196C23.3757 18.9196 23.3419 18.8949 23.3201 18.8648C23.2984 18.8347 23.2613 18.8101 23.2378 18.8101C23.2143 18.8101 23.1772 18.7854 23.1555 18.7553C23.1337 18.7252 23.094 18.7006 23.0671 18.7006C23.0403 18.7006 23.0183 18.6883 23.0183 18.6732C23.0183 18.6582 22.9936 18.6458 22.9634 18.6458C22.9332 18.6458 22.9085 18.6335 22.9085 18.6185C22.9085 18.6034 22.8838 18.5911 22.8537 18.5911C22.8235 18.5911 22.7988 18.5788 22.7988 18.5637C22.7988 18.5487 22.7741 18.5363 22.7439 18.5363C22.7137 18.5363 22.689 18.524 22.689 18.509C22.689 18.4939 22.652 18.4816 22.6067 18.4816C22.5614 18.4816 22.5244 18.4693 22.5244 18.4542C22.5244 18.4392 22.4803 18.4269 22.4264 18.4269C22.2402 18.4269 22.25 18.525 22.25 16.6633V14.978H25.0488H27.8476V17.5783ZM10.8354 19.4944C10.8354 19.5094 10.8724 19.5217 10.9177 19.5217C10.963 19.5217 11 19.5341 11 19.5491C11 19.5642 11.0247 19.5765 11.0549 19.5765C11.0851 19.5765 11.1098 19.5888 11.1098 19.6039C11.1098 19.6189 11.1345 19.6312 11.1646 19.6312C11.1948 19.6312 11.2195 19.6435 11.2195 19.6586C11.2195 19.6737 11.2442 19.686 11.2744 19.686C11.3046 19.686 11.3293 19.6983 11.3293 19.7133C11.3293 19.7284 11.348 19.7407 11.3709 19.7407C11.4251 19.7407 11.8232 20.1378 11.8232 20.1919C11.8232 20.2147 11.8355 20.2334 11.8506 20.2334C11.8657 20.2334 11.878 20.258 11.878 20.2882C11.878 20.3183 11.8904 20.3429 11.9055 20.3429C11.9206 20.3429 11.9329 20.3675 11.9329 20.3976C11.9329 20.4278 11.9453 20.4524 11.9604 20.4524C11.9755 20.4524 11.9878 20.477 11.9878 20.5071C11.9878 20.5372 12.0002 20.5619 12.0152 20.5619C12.0303 20.5619 12.0427 20.5988 12.0427 20.644C12.0427 20.6892 12.055 20.7261 12.0701 20.7261C12.0871 20.7261 12.0976 20.8721 12.0976 21.1093C12.0976 21.3465 12.0871 21.4925 12.0701 21.4925C12.055 21.4925 12.0427 21.5418 12.0427 21.602C12.0427 21.6622 12.0303 21.7115 12.0152 21.7115C12.0002 21.7115 11.9878 21.7361 11.9878 21.7662C11.9878 21.7963 11.9755 21.821 11.9604 21.821C11.9453 21.821 11.9329 21.8456 11.9329 21.8757C11.9329 21.9058 11.9206 21.9305 11.9055 21.9305C11.8904 21.9305 11.878 21.9524 11.878 21.9792C11.878 22.006 11.8534 22.0456 11.8232 22.0673C11.793 22.089 11.7683 22.1228 11.7683 22.1424C11.7683 22.1888 11.4785 22.4779 11.4319 22.4779C11.4123 22.4779 11.3785 22.5025 11.3567 22.5327C11.3349 22.5628 11.2952 22.5874 11.2683 22.5874C11.2415 22.5874 11.2195 22.5997 11.2195 22.6148C11.2195 22.6298 11.1948 22.6421 11.1646 22.6421C11.1345 22.6421 11.1098 22.6545 11.1098 22.6695C11.1098 22.6846 11.0727 22.6969 11.0274 22.6969C10.9822 22.6969 10.9451 22.7092 10.9451 22.7243C10.9451 22.7393 10.9081 22.7516 10.8628 22.7516C10.8175 22.7516 10.7805 22.7639 10.7805 22.779C10.7805 22.7957 10.6524 22.8064 10.4512 22.8064C10.25 22.8064 10.122 22.7957 10.122 22.779C10.122 22.7639 10.0726 22.7516 10.0122 22.7516C9.95183 22.7516 9.90244 22.7393 9.90244 22.7243C9.90244 22.7092 9.8654 22.6969 9.82012 22.6969C9.77485 22.6969 9.7378 22.6846 9.7378 22.6695C9.7378 22.6545 9.71311 22.6421 9.68293 22.6421C9.65274 22.6421 9.62805 22.6298 9.62805 22.6148C9.62805 22.5997 9.60832 22.5874 9.58417 22.5874C9.56005 22.5874 9.5057 22.5504 9.46341 22.5053C9.42113 22.4601 9.37254 22.4232 9.35544 22.4232C9.31505 22.4232 9.13415 22.2427 9.13415 22.2024C9.13415 22.1854 9.0971 22.1369 9.05183 22.0947C9.00656 22.0525 8.96951 21.9983 8.96951 21.9742C8.96951 21.9502 8.95716 21.9305 8.94207 21.9305C8.92698 21.9305 8.91463 21.9058 8.91463 21.8757C8.91463 21.8456 8.90229 21.821 8.8872 21.821C8.8721 21.821 8.85976 21.784 8.85976 21.7389C8.85976 21.6937 8.84741 21.6568 8.83232 21.6568C8.81723 21.6568 8.80488 21.6198 8.80488 21.5746C8.80488 21.5295 8.79253 21.4925 8.77744 21.4925C8.76056 21.4925 8.75 21.3557 8.75 21.1367C8.75 20.9177 8.76056 20.7808 8.77744 20.7808C8.79253 20.7808 8.80488 20.7439 8.80488 20.6987C8.80488 20.6536 8.81723 20.6166 8.83232 20.6166C8.84741 20.6166 8.85976 20.5797 8.85976 20.5345C8.85976 20.4893 8.8721 20.4524 8.8872 20.4524C8.90229 20.4524 8.91463 20.4278 8.91463 20.3976C8.91463 20.3675 8.92698 20.3429 8.94207 20.3429C8.95716 20.3429 8.96951 20.321 8.96951 20.2942C8.96951 20.2674 8.99421 20.2277 9.02439 20.206C9.05457 20.1843 9.07927 20.1506 9.07927 20.131C9.07927 20.0846 9.36911 19.7955 9.41562 19.7955C9.43523 19.7955 9.46909 19.7708 9.49085 19.7407C9.51261 19.7106 9.55237 19.686 9.57924 19.686C9.60607 19.686 9.62805 19.6737 9.62805 19.6586C9.62805 19.6435 9.65274 19.6312 9.68293 19.6312C9.71311 19.6312 9.7378 19.6189 9.7378 19.6039C9.7378 19.5888 9.7625 19.5765 9.79268 19.5765C9.82287 19.5765 9.84756 19.5642 9.84756 19.5491C9.84756 19.5341 9.8846 19.5217 9.92988 19.5217C9.97515 19.5217 10.0122 19.5094 10.0122 19.4944C10.0122 19.4773 10.1677 19.467 10.4238 19.467C10.6799 19.467 10.8354 19.4773 10.8354 19.4944ZM22.0305 19.4944C22.0305 19.5094 22.0799 19.5217 22.1402 19.5217C22.2006 19.5217 22.25 19.5341 22.25 19.5491C22.25 19.5642 22.2747 19.5765 22.3049 19.5765C22.3351 19.5765 22.3598 19.5888 22.3598 19.6039C22.3598 19.6189 22.3845 19.6312 22.4146 19.6312C22.4448 19.6312 22.4695 19.6435 22.4695 19.6586C22.4695 19.6737 22.4915 19.686 22.5183 19.686C22.5452 19.686 22.5849 19.7106 22.6067 19.7407C22.6285 19.7708 22.6623 19.7955 22.6819 19.7955C22.7285 19.7955 23.0183 20.0846 23.0183 20.131C23.0183 20.1506 23.043 20.1843 23.0732 20.206C23.1034 20.2277 23.128 20.2674 23.128 20.2942C23.128 20.321 23.1404 20.3429 23.1555 20.3429C23.1706 20.3429 23.1829 20.3675 23.1829 20.3976C23.1829 20.4278 23.1953 20.4524 23.2104 20.4524C23.2255 20.4524 23.2378 20.4893 23.2378 20.5345C23.2378 20.5797 23.2502 20.6166 23.2652 20.6166C23.2803 20.6166 23.2927 20.6536 23.2927 20.6987C23.2927 20.7439 23.305 20.7808 23.3201 20.7808C23.3369 20.7808 23.3476 20.9086 23.3476 21.1093C23.3476 21.31 23.3369 21.4378 23.3201 21.4378C23.305 21.4378 23.2927 21.487 23.2927 21.5473C23.2927 21.6075 23.2803 21.6568 23.2652 21.6568C23.2502 21.6568 23.2378 21.6937 23.2378 21.7389C23.2378 21.784 23.2255 21.821 23.2104 21.821C23.1953 21.821 23.1829 21.8456 23.1829 21.8757C23.1829 21.9058 23.1706 21.9305 23.1555 21.9305C23.1404 21.9305 23.128 21.9502 23.128 21.9742C23.128 21.9983 23.091 22.0525 23.0457 22.0947C23.0005 22.1369 22.9634 22.1854 22.9634 22.2024C22.9634 22.2427 22.7825 22.4232 22.7421 22.4232C22.725 22.4232 22.6764 22.4601 22.6341 22.5053C22.5919 22.5504 22.5375 22.5874 22.5134 22.5874C22.4892 22.5874 22.4695 22.5997 22.4695 22.6148C22.4695 22.6298 22.4448 22.6421 22.4146 22.6421C22.3845 22.6421 22.3598 22.6545 22.3598 22.6695C22.3598 22.6846 22.3227 22.6969 22.2774 22.6969C22.2322 22.6969 22.1951 22.7092 22.1951 22.7243C22.1951 22.7393 22.1457 22.7516 22.0854 22.7516C22.025 22.7516 21.9756 22.7639 21.9756 22.779C21.9756 22.7957 21.8476 22.8064 21.6463 22.8064C21.4451 22.8064 21.3171 22.7957 21.3171 22.779C21.3171 22.7639 21.28 22.7516 21.2348 22.7516C21.1895 22.7516 21.1524 22.7393 21.1524 22.7243C21.1524 22.7092 21.1154 22.6969 21.0701 22.6969C21.0248 22.6969 20.9878 22.6846 20.9878 22.6695C20.9878 22.6545 20.9631 22.6421 20.9329 22.6421C20.9027 22.6421 20.878 22.6298 20.878 22.6148C20.878 22.5997 20.8561 22.5874 20.8292 22.5874C20.8024 22.5874 20.7626 22.5628 20.7409 22.5327C20.7191 22.5025 20.6852 22.4779 20.6656 22.4779C20.646 22.4779 20.5623 22.4104 20.4796 22.328C20.3969 22.2455 20.3293 22.162 20.3293 22.1424C20.3293 22.1228 20.3046 22.089 20.2744 22.0673C20.2442 22.0456 20.2195 22.006 20.2195 21.9792C20.2195 21.9524 20.2072 21.9305 20.1921 21.9305C20.177 21.9305 20.1646 21.9058 20.1646 21.8757C20.1646 21.8456 20.1523 21.821 20.1372 21.821C20.1221 21.821 20.1098 21.7963 20.1098 21.7662C20.1098 21.7361 20.0974 21.7115 20.0823 21.7115C20.0672 21.7115 20.0549 21.6622 20.0549 21.602C20.0549 21.5418 20.0425 21.4925 20.0274 21.4925C20.0105 21.4925 20 21.3465 20 21.1093C20 20.8721 20.0105 20.7261 20.0274 20.7261C20.0425 20.7261 20.0549 20.6892 20.0549 20.644C20.0549 20.5988 20.0672 20.5619 20.0823 20.5619C20.0974 20.5619 20.1098 20.5276 20.1098 20.4858C20.1098 20.4411 20.1324 20.3935 20.1646 20.3703C20.1948 20.3486 20.2195 20.3089 20.2195 20.2821C20.2195 20.2553 20.2319 20.2334 20.247 20.2334C20.262 20.2334 20.2744 20.2147 20.2744 20.1919C20.2744 20.1691 20.3668 20.0582 20.4797 19.9456C20.5927 19.8329 20.7038 19.7407 20.7267 19.7407C20.7496 19.7407 20.7683 19.7284 20.7683 19.7133C20.7683 19.6983 20.7903 19.686 20.8171 19.686C20.844 19.686 20.8837 19.6613 20.9055 19.6312C20.9287 19.5991 20.9765 19.5765 21.0213 19.5765C21.0632 19.5765 21.0976 19.5642 21.0976 19.5491C21.0976 19.5341 21.1346 19.5217 21.1799 19.5217C21.2252 19.5217 21.2622 19.5094 21.2622 19.4944C21.2622 19.4774 21.4085 19.467 21.6463 19.467C21.8842 19.467 22.0305 19.4774 22.0305 19.4944Z" fill="black"/>
</svg>
