<svg width="30" height="30" viewBox="0 0 30 30" fill="none" xmlns="http://www.w3.org/2000/svg">
<path fill-rule="evenodd" clip-rule="evenodd" d="M14.8435 3.05205C14.8228 3.08067 14.785 3.10409 14.7594 3.10409C14.7339 3.10409 14.713 3.1158 14.713 3.13012C14.713 3.14443 14.6895 3.15614 14.6608 3.15614C14.6321 3.15614 14.6087 3.16785 14.6087 3.18216C14.6087 3.19647 14.5878 3.20819 14.5623 3.20819C14.5367 3.20819 14.4989 3.23161 14.4782 3.26023C14.4575 3.28886 14.4197 3.31228 14.3942 3.31228C14.3687 3.31228 14.3478 3.32399 14.3478 3.3383C14.3478 3.35261 14.3269 3.36432 14.3014 3.36432C14.2759 3.36432 14.2381 3.38774 14.2174 3.41637C14.1967 3.445 14.1589 3.46842 14.1333 3.46842C14.1078 3.46842 14.0869 3.48013 14.0869 3.49444C14.0869 3.50875 14.0635 3.52046 14.0348 3.52046C14.0061 3.52046 13.9826 3.53217 13.9826 3.54649C13.9826 3.5608 13.9617 3.57251 13.9362 3.57251C13.9106 3.57251 13.8728 3.59593 13.8522 3.62456C13.8315 3.65318 13.7937 3.6766 13.7681 3.6766C13.7426 3.6766 13.7217 3.68831 13.7217 3.70262C13.7217 3.71694 13.6982 3.72865 13.6695 3.72865C13.6409 3.72865 13.6174 3.74036 13.6174 3.75467C13.6174 3.76898 13.5965 3.78069 13.571 3.78069C13.5454 3.78069 13.5076 3.80411 13.4869 3.83274C13.4663 3.86137 13.4285 3.88479 13.4029 3.88479C13.3774 3.88479 13.3565 3.8965 13.3565 3.91081C13.3565 3.92512 13.333 3.93683 13.3043 3.93683C13.2756 3.93683 13.2522 3.94854 13.2522 3.96286C13.2522 3.97717 13.2313 3.98888 13.2057 3.98888C13.1802 3.98888 13.1424 4.0123 13.1217 4.04093C13.101 4.06955 13.0632 4.09297 13.0377 4.09297C13.0122 4.09297 12.9913 4.10468 12.9913 4.11899C12.9913 4.13331 12.9704 4.14502 12.9449 4.14502C12.9193 4.14502 12.8815 4.16844 12.8609 4.19706C12.8402 4.22569 12.8024 4.24911 12.7768 4.24911C12.7513 4.24911 12.7304 4.26082 12.7304 4.27513C12.7304 4.28945 12.7069 4.30116 12.6782 4.30116C12.6496 4.30116 12.6261 4.31287 12.6261 4.32718C12.6261 4.34149 12.6052 4.3532 12.5797 4.3532C12.5541 4.3532 12.5163 4.37662 12.4956 4.40525C12.475 4.43387 12.4372 4.4573 12.4116 4.4573C12.3861 4.4573 12.3652 4.46901 12.3652 4.48332C12.3652 4.49763 12.3417 4.50934 12.313 4.50934C12.2843 4.50934 12.2609 4.52105 12.2609 4.53536C12.2609 4.54968 12.24 4.56139 12.2145 4.56139C12.1889 4.56139 12.1511 4.58481 12.1304 4.61343C12.1097 4.64206 12.0719 4.66548 12.0464 4.66548C12.0209 4.66548 12 4.67719 12 4.6915C12 4.70582 11.9791 4.71753 11.9536 4.71753C11.928 4.71753 11.8902 4.74095 11.8696 4.76957C11.8489 4.7982 11.8111 4.82162 11.7855 4.82162C11.76 4.82162 11.7391 4.83333 11.7391 4.84764C11.7391 4.86196 11.7156 4.87367 11.6869 4.87367C11.6583 4.87367 11.6348 4.88538 11.6348 4.89969C11.6348 4.914 11.6139 4.92571 11.5884 4.92571C11.5628 4.92571 11.525 4.94913 11.5043 4.97776C11.4837 5.00638 11.4459 5.0298 11.4203 5.0298C11.3948 5.0298 11.3739 5.04151 11.3739 5.05583C11.3739 5.07014 11.3555 5.08185 11.3329 5.08185C11.3104 5.08185 11.2743 5.09942 11.2528 5.12089C11.218 5.15557 11.218 5.16427 11.2528 5.19895C11.2743 5.22042 11.3078 5.23799 11.3272 5.23799C11.3465 5.23799 11.3793 5.26141 11.4 5.29004C11.4207 5.31866 11.4585 5.34208 11.484 5.34208C11.5095 5.34208 11.5304 5.35379 11.5304 5.3681C11.5304 5.38242 11.5539 5.39413 11.5826 5.39413C11.6113 5.39413 11.6348 5.40584 11.6348 5.42015C11.6348 5.43446 11.6557 5.44617 11.6812 5.44617C11.7067 5.44617 11.7445 5.4696 11.7652 5.49822C11.7859 5.52685 11.8237 5.55027 11.8492 5.55027C11.8747 5.55027 11.8956 5.56198 11.8956 5.57629C11.8956 5.5906 11.9191 5.60231 11.9478 5.60231C11.9765 5.60231 12 5.61402 12 5.62834C12 5.64265 12.0209 5.65436 12.0464 5.65436C12.0719 5.65436 12.1097 5.67778 12.1304 5.70641C12.1511 5.73503 12.1889 5.75845 12.2145 5.75845C12.24 5.75845 12.2609 5.77016 12.2609 5.78448C12.2609 5.79879 12.2843 5.8105 12.313 5.8105C12.3417 5.8105 12.3652 5.82221 12.3652 5.83652C12.3652 5.85083 12.3861 5.86254 12.4116 5.86254C12.4372 5.86254 12.475 5.88597 12.4956 5.91459C12.5163 5.94322 12.5541 5.96664 12.5797 5.96664C12.6052 5.96664 12.6261 5.97835 12.6261 5.99266C12.6261 6.00697 12.647 6.01868 12.6725 6.01868C12.698 6.01868 12.7358 6.0421 12.7565 6.07073C12.7772 6.09935 12.815 6.12278 12.8405 6.12278C12.866 6.12278 12.8869 6.13449 12.8869 6.1488C12.8869 6.16311 12.9104 6.17482 12.9391 6.17482C12.9678 6.17482 12.9913 6.18653 12.9913 6.20085C12.9913 6.21516 13.0122 6.22687 13.0377 6.22687C13.0632 6.22687 13.101 6.25029 13.1217 6.27891C13.1424 6.30754 13.1802 6.33096 13.2057 6.33096C13.2313 6.33096 13.2522 6.34267 13.2522 6.35698C13.2522 6.3713 13.2756 6.38301 13.3043 6.38301C13.333 6.38301 13.3565 6.39472 13.3565 6.40903C13.3565 6.42334 13.3774 6.43505 13.4029 6.43505C13.4285 6.43505 13.4663 6.45847 13.4869 6.4871C13.5076 6.51573 13.5454 6.53915 13.571 6.53915C13.5965 6.53915 13.6174 6.55086 13.6174 6.56517C13.6174 6.57948 13.6383 6.59119 13.6638 6.59119C13.6893 6.59119 13.7271 6.61461 13.7478 6.64324C13.7685 6.67186 13.8063 6.69528 13.8318 6.69528C13.8573 6.69528 13.8782 6.707 13.8782 6.72131C13.8782 6.73562 13.9017 6.74733 13.9304 6.74733C13.9591 6.74733 13.9826 6.75904 13.9826 6.77335C13.9826 6.78767 14.0035 6.79938 14.029 6.79938C14.0545 6.79938 14.0923 6.8228 14.113 6.85142C14.1337 6.88005 14.1715 6.90347 14.197 6.90347C14.2226 6.90347 14.2435 6.91518 14.2435 6.92949C14.2435 6.94381 14.2669 6.95552 14.2956 6.95552C14.3243 6.95552 14.3478 6.96723 14.3478 6.98154C14.3478 6.99585 14.3687 7.00756 14.3942 7.00756C14.4197 7.00756 14.4575 7.03098 14.4782 7.05961C14.4989 7.08823 14.5367 7.11165 14.5623 7.11165C14.5878 7.11165 14.6087 7.12337 14.6087 7.13768C14.6087 7.15199 14.6321 7.1637 14.6608 7.1637C14.6895 7.1637 14.713 7.17541 14.713 7.18972C14.713 7.20404 14.7339 7.21575 14.7594 7.21575C14.785 7.21575 14.8228 7.23917 14.8435 7.26779C14.8641 7.29642 14.9019 7.31984 14.9275 7.31984C14.971 7.31984 14.9739 7.26699 14.9739 6.46108V5.60231H16.5391C17.5652 5.60231 18.1043 5.61127 18.1043 5.62834C18.1043 5.64265 18.1513 5.65436 18.2086 5.65436C18.266 5.65436 18.313 5.66607 18.313 5.68038C18.313 5.6947 18.36 5.70641 18.4173 5.70641C18.4747 5.70641 18.5217 5.71812 18.5217 5.73243C18.5217 5.74674 18.5452 5.75845 18.5739 5.75845C18.6026 5.75845 18.626 5.77016 18.626 5.78448C18.626 5.79879 18.6495 5.8105 18.6782 5.8105C18.7069 5.8105 18.7304 5.82221 18.7304 5.83652C18.7304 5.85083 18.7539 5.86254 18.7826 5.86254C18.8113 5.86254 18.8347 5.87425 18.8347 5.88857C18.8347 5.90288 18.8535 5.91459 18.8764 5.91459C18.8994 5.91459 18.9511 5.94972 18.9913 5.99266C19.0315 6.0356 19.0775 6.07073 19.0935 6.07073C19.1343 6.07073 19.4608 6.40062 19.4608 6.44185C19.4608 6.4604 19.4843 6.49249 19.513 6.51312C19.5417 6.53376 19.5652 6.57147 19.5652 6.59694C19.5652 6.62239 19.5769 6.64324 19.5912 6.64324C19.6056 6.64324 19.6173 6.66666 19.6173 6.69528C19.6173 6.72391 19.6291 6.74733 19.6434 6.74733C19.6578 6.74733 19.6695 6.77075 19.6695 6.79938C19.6695 6.828 19.6812 6.85142 19.6956 6.85142C19.7099 6.85142 19.7217 6.87484 19.7217 6.90347C19.7217 6.9321 19.7334 6.95552 19.7478 6.95552C19.7621 6.95552 19.7739 6.99065 19.7739 7.03359C19.7739 7.07652 19.7856 7.11165 19.7999 7.11165C19.8143 7.11165 19.826 7.1585 19.826 7.21575C19.826 7.273 19.8378 7.31984 19.8521 7.31984C19.8683 7.31984 19.8782 7.46731 19.8782 7.71019C19.8782 7.95306 19.8683 8.10053 19.8521 8.10053C19.8378 8.10053 19.826 8.14738 19.826 8.20463C19.826 8.26188 19.8143 8.30872 19.7999 8.30872C19.7856 8.30872 19.7739 8.34385 19.7739 8.38679C19.7739 8.42973 19.7621 8.46486 19.7478 8.46486C19.7334 8.46486 19.7217 8.49999 19.7217 8.54293C19.7217 8.58587 19.7099 8.621 19.6956 8.621C19.6812 8.621 19.6695 8.64184 19.6695 8.66729C19.6695 8.69277 19.646 8.73048 19.6173 8.75111C19.5886 8.77175 19.5652 8.80688 19.5652 8.82918C19.5652 8.85148 19.5417 8.88661 19.513 8.90725C19.4843 8.92789 19.4608 8.95992 19.4608 8.97848C19.4608 9.02243 19.0806 9.40169 19.0366 9.40169C19.018 9.40169 18.9859 9.42511 18.9652 9.45374C18.9445 9.48236 18.9093 9.50578 18.8869 9.50578C18.8645 9.50578 18.8293 9.5292 18.8086 9.55783C18.788 9.58645 18.7502 9.60988 18.7246 9.60988C18.6991 9.60988 18.6782 9.62159 18.6782 9.6359C18.6782 9.65021 18.643 9.66192 18.5999 9.66192C18.5569 9.66192 18.5217 9.67363 18.5217 9.68794C18.5217 9.70226 18.4865 9.71397 18.4434 9.71397C18.4004 9.71397 18.3652 9.72568 18.3652 9.73999C18.3652 9.7543 18.3182 9.76601 18.2608 9.76601C18.2034 9.76601 18.1565 9.77772 18.1565 9.79204C18.1565 9.80919 17.3826 9.81806 15.8869 9.81806H13.6174V10.2605V10.7028H15.9391C17.4695 10.7028 18.2608 10.694 18.2608 10.6768C18.2608 10.6625 18.3195 10.6508 18.3913 10.6508C18.463 10.6508 18.5217 10.6391 18.5217 10.6248C18.5217 10.6105 18.5569 10.5988 18.5999 10.5988C18.643 10.5988 18.6782 10.587 18.6782 10.5727C18.6782 10.5584 18.7134 10.5467 18.7565 10.5467C18.7995 10.5467 18.8347 10.535 18.8347 10.5207C18.8347 10.5064 18.8699 10.4947 18.913 10.4947C18.956 10.4947 18.9913 10.483 18.9913 10.4686C18.9913 10.4543 19.0147 10.4426 19.0434 10.4426C19.0721 10.4426 19.0956 10.4309 19.0956 10.4166C19.0956 10.4023 19.1165 10.3906 19.142 10.3906C19.1675 10.3906 19.2053 10.3671 19.226 10.3385C19.2467 10.3099 19.2845 10.2865 19.3101 10.2865C19.3356 10.2865 19.3565 10.2748 19.3565 10.2605C19.3565 10.2461 19.3774 10.2344 19.4029 10.2344C19.4284 10.2344 19.4662 10.211 19.4869 10.1824C19.5076 10.1538 19.5396 10.1303 19.5581 10.1303C19.6021 10.1303 20.1912 9.54261 20.1912 9.49878C20.1912 9.48033 20.2147 9.44835 20.2434 9.42771C20.2721 9.40708 20.2956 9.37195 20.2956 9.34964C20.2956 9.32734 20.3191 9.29221 20.3478 9.27157C20.3765 9.25094 20.3999 9.21323 20.3999 9.18775C20.3999 9.1623 20.4117 9.14146 20.426 9.14146C20.4404 9.14146 20.4521 9.11804 20.4521 9.08941C20.4521 9.06079 20.4638 9.03737 20.4782 9.03737C20.4925 9.03737 20.5043 9.01395 20.5043 8.98532C20.5043 8.9567 20.516 8.93327 20.5304 8.93327C20.5447 8.93327 20.5565 8.89814 20.5565 8.85521C20.5565 8.81227 20.5682 8.77714 20.5825 8.77714C20.5969 8.77714 20.6086 8.742 20.6086 8.69907C20.6086 8.65613 20.6204 8.621 20.6347 8.621C20.6491 8.621 20.6608 8.58587 20.6608 8.54293C20.6608 8.49999 20.6725 8.46486 20.6869 8.46486C20.7012 8.46486 20.713 8.40631 20.713 8.33474C20.713 8.26318 20.7247 8.20463 20.7391 8.20463C20.7556 8.20463 20.7652 8.02246 20.7652 7.71019C20.7652 7.39791 20.7556 7.21575 20.7391 7.21575C20.7247 7.21575 20.713 7.1572 20.713 7.08563C20.713 7.01407 20.7012 6.95552 20.6869 6.95552C20.6725 6.95552 20.6608 6.92038 20.6608 6.87745C20.6608 6.83451 20.6491 6.79938 20.6347 6.79938C20.6204 6.79938 20.6086 6.76425 20.6086 6.72131C20.6086 6.67837 20.5969 6.64324 20.5825 6.64324C20.5682 6.64324 20.5565 6.61982 20.5565 6.59119C20.5565 6.56257 20.5447 6.53915 20.5304 6.53915C20.516 6.53915 20.5043 6.50401 20.5043 6.46108C20.5043 6.41814 20.4925 6.38301 20.4782 6.38301C20.4638 6.38301 20.4521 6.36216 20.4521 6.33671C20.4521 6.31124 20.4286 6.27353 20.3999 6.25289C20.3712 6.23226 20.3478 6.19455 20.3478 6.16907C20.3478 6.14362 20.336 6.12278 20.3217 6.12278C20.3073 6.12278 20.2956 6.10407 20.2956 6.08116C20.2956 6.05829 20.2604 6.00674 20.2173 5.96664C20.1743 5.92654 20.1391 5.88068 20.1391 5.86478C20.1391 5.82416 19.6515 5.34208 19.6104 5.34208C19.5918 5.34208 19.5598 5.31866 19.5391 5.29004C19.5184 5.26141 19.4832 5.23799 19.4608 5.23799C19.4385 5.23799 19.4032 5.21457 19.3826 5.18594C19.3619 5.15732 19.3241 5.1339 19.2985 5.1339C19.273 5.1339 19.2521 5.12219 19.2521 5.10787C19.2521 5.09356 19.2286 5.08185 19.1999 5.08185C19.1712 5.08185 19.1478 5.07014 19.1478 5.05583C19.1478 5.04151 19.1243 5.0298 19.0956 5.0298C19.0669 5.0298 19.0434 5.01809 19.0434 5.00378C19.0434 4.98947 19.0199 4.97776 18.9913 4.97776C18.9626 4.97776 18.9391 4.96605 18.9391 4.95173C18.9391 4.93742 18.9156 4.92571 18.8869 4.92571C18.8582 4.92571 18.8347 4.914 18.8347 4.89969C18.8347 4.88538 18.7995 4.87367 18.7565 4.87367C18.7134 4.87367 18.6782 4.86196 18.6782 4.84764C18.6782 4.83333 18.6313 4.82162 18.5739 4.82162C18.5165 4.82162 18.4695 4.80991 18.4695 4.7956C18.4695 4.78113 18.3999 4.76957 18.313 4.76957C18.226 4.76957 18.1565 4.75802 18.1565 4.74355C18.1565 4.72648 17.6087 4.71753 16.5652 4.71753H14.9739V3.85876C14.9739 3.05285 14.971 3 14.9275 3C14.9019 3 14.8641 3.02342 14.8435 3.05205ZM12.7826 7.502C12.7826 7.51631 12.7591 7.52802 12.7304 7.52802C12.7017 7.52802 12.6782 7.53974 12.6782 7.55405C12.6782 7.56836 12.6548 7.58007 12.6261 7.58007C12.5974 7.58007 12.5739 7.59178 12.5739 7.60609C12.5739 7.62041 12.553 7.63212 12.5275 7.63212C12.502 7.63212 12.4642 7.65554 12.4435 7.68416C12.4228 7.71279 12.385 7.73621 12.3594 7.73621C12.3339 7.73621 12.313 7.74792 12.313 7.76223C12.313 7.77655 12.2896 7.78826 12.2609 7.78826C12.2322 7.78826 12.2087 7.79997 12.2087 7.81428C12.2087 7.82859 12.1878 7.8403 12.1623 7.8403C12.1367 7.8403 12.0989 7.86372 12.0783 7.89235C12.0576 7.92097 12.0198 7.94439 11.9942 7.94439C11.9687 7.94439 11.9478 7.95611 11.9478 7.97042C11.9478 7.98473 11.9243 7.99644 11.8956 7.99644C11.8669 7.99644 11.8435 8.00815 11.8435 8.02246C11.8435 8.03678 11.8226 8.04849 11.7971 8.04849C11.7715 8.04849 11.7337 8.07191 11.713 8.10053C11.6923 8.12916 11.6545 8.15258 11.629 8.15258C11.6035 8.15258 11.5826 8.16429 11.5826 8.1786C11.5826 8.19292 11.5591 8.20463 11.5304 8.20463C11.5017 8.20463 11.4783 8.21634 11.4783 8.23065C11.4783 8.24496 11.4574 8.25667 11.4318 8.25667C11.4063 8.25667 11.3685 8.28009 11.3478 8.30872C11.3271 8.33734 11.2893 8.36077 11.2638 8.36077C11.2383 8.36077 11.2174 8.37248 11.2174 8.38679C11.2174 8.4011 11.1939 8.41281 11.1652 8.41281C11.1365 8.41281 11.113 8.42452 11.113 8.43883C11.113 8.45315 11.0921 8.46486 11.0666 8.46486C11.0411 8.46486 11.0033 8.48828 10.9826 8.5169C10.9619 8.54553 10.9241 8.56895 10.8986 8.56895C10.8731 8.56895 10.8522 8.58066 10.8522 8.59497C10.8522 8.60929 10.8287 8.621 10.8 8.621C10.7713 8.621 10.7478 8.63271 10.7478 8.64702C10.7478 8.66133 10.7269 8.67304 10.7014 8.67304C10.6759 8.67304 10.6381 8.69646 10.6174 8.72509C10.5967 8.75371 10.5589 8.77714 10.5334 8.77714C10.5079 8.77714 10.487 8.78885 10.487 8.80316C10.487 8.81747 10.4661 8.82918 10.4405 8.82918C10.415 8.82918 10.3772 8.8526 10.3565 8.88123C10.3358 8.90985 10.298 8.93327 10.2725 8.93327C10.247 8.93327 10.2261 8.94498 10.2261 8.9593C10.2261 8.97361 10.2026 8.98532 10.1739 8.98532C10.1452 8.98532 10.1217 8.99703 10.1217 9.01134C10.1217 9.02566 10.1008 9.03737 10.0753 9.03737C10.0498 9.03737 10.012 9.06079 9.99131 9.08941C9.97062 9.11804 9.93282 9.14146 9.90728 9.14146C9.88177 9.14146 9.86087 9.15317 9.86087 9.16748C9.86087 9.18179 9.8374 9.19351 9.8087 9.19351C9.78 9.19351 9.75653 9.20522 9.75653 9.21953C9.75653 9.23384 9.73563 9.24555 9.71012 9.24555C9.68458 9.24555 9.64678 9.26897 9.62609 9.2976C9.60541 9.32622 9.56761 9.34964 9.54207 9.34964C9.51655 9.34964 9.49566 9.36135 9.49566 9.37567C9.49566 9.38998 9.47218 9.40169 9.44349 9.40169C9.41479 9.40169 9.39131 9.4134 9.39131 9.42771C9.39131 9.44203 9.37042 9.45374 9.3449 9.45374C9.31936 9.45374 9.28156 9.47716 9.26088 9.50578C9.24019 9.53441 9.20239 9.55783 9.17685 9.55783C9.15134 9.55783 9.13044 9.56954 9.13044 9.58385C9.13044 9.59817 9.10697 9.60988 9.07827 9.60988C9.04957 9.60988 9.0261 9.62159 9.0261 9.6359C9.0261 9.65021 9.0052 9.66192 8.97969 9.66192C8.95415 9.66192 8.91635 9.68534 8.89566 9.71397C8.87498 9.74259 8.83718 9.76601 8.81164 9.76601C8.78612 9.76601 8.76523 9.77772 8.76523 9.79204C8.76523 9.80635 8.74175 9.81806 8.71306 9.81806C8.68436 9.81806 8.66088 9.82977 8.66088 9.84408C8.66088 9.8584 8.63999 9.87011 8.61447 9.87011C8.58893 9.87011 8.55113 9.89353 8.53045 9.92215C8.50976 9.95078 8.47196 9.9742 8.44642 9.9742C8.42091 9.9742 8.40001 9.98591 8.40001 10.0002C8.40001 10.0145 8.37654 10.0262 8.34784 10.0262C8.31914 10.0262 8.29567 10.038 8.29567 10.0523C8.29567 10.0666 8.27477 10.0783 8.24926 10.0783C8.22372 10.0783 8.18592 10.1017 8.16523 10.1303C8.14455 10.159 8.10675 10.1824 8.08121 10.1824C8.05569 10.1824 8.0348 10.1941 8.0348 10.2084C8.0348 10.2227 8.0139 10.2344 7.98839 10.2344C7.96285 10.2344 7.92505 10.2579 7.90436 10.2865C7.88368 10.3151 7.84588 10.3385 7.82034 10.3385C7.79483 10.3385 7.77393 10.3502 7.77393 10.3645C7.77393 10.3789 7.75045 10.3906 7.72176 10.3906C7.69306 10.3906 7.66958 10.4023 7.66958 10.4166C7.66958 10.4309 7.64869 10.4426 7.62318 10.4426C7.59764 10.4426 7.55984 10.466 7.53915 10.4947C7.51846 10.5233 7.48066 10.5467 7.45512 10.5467C7.42961 10.5467 7.40872 10.5584 7.40872 10.5727C7.40872 10.587 7.38524 10.5988 7.35654 10.5988C7.32785 10.5988 7.30437 10.6105 7.30437 10.6248C7.30437 10.6391 7.28347 10.6508 7.25796 10.6508C7.23242 10.6508 7.19462 10.6742 7.17393 10.7028C7.15325 10.7315 7.11545 10.7549 7.08991 10.7549C7.0644 10.7549 7.0435 10.7666 7.0435 10.7809C7.0435 10.7952 7.02002 10.8069 6.99133 10.8069C6.96263 10.8069 6.93915 10.8186 6.93915 10.833C6.93915 10.8473 6.91826 10.859 6.89275 10.859C6.86721 10.859 6.82941 10.8824 6.80872 10.911C6.78803 10.9397 6.75023 10.9631 6.72469 10.9631C6.69918 10.9631 6.67829 10.9748 6.67829 10.9891C6.67829 11.0034 6.65481 11.0151 6.62611 11.0151C6.59742 11.0151 6.57394 11.0268 6.57394 11.0411C6.57394 11.0555 6.55304 11.0672 6.52753 11.0672C6.50199 11.0672 6.46419 11.0906 6.4435 11.1192C6.42282 11.1478 6.38502 11.1713 6.35948 11.1713C6.33397 11.1713 6.31307 11.183 6.31307 11.1973C6.31307 11.2116 6.29217 11.2233 6.26666 11.2233C6.24112 11.2233 6.20332 11.2467 6.18264 11.2754C6.16195 11.304 6.12918 11.3274 6.1098 11.3274C5.9952 11.3274 6.00003 11.0975 6.00003 16.5574V21.713L6.06407 21.7769C6.09929 21.812 6.14625 21.8407 6.16842 21.8407C6.19059 21.8407 6.20872 21.8525 6.20872 21.8668C6.20872 21.8811 6.2322 21.8928 6.2609 21.8928C6.28959 21.8928 6.31307 21.9045 6.31307 21.9188C6.31307 21.9331 6.33397 21.9448 6.35948 21.9448C6.38502 21.9448 6.42282 21.9683 6.4435 21.9969C6.46419 22.0255 6.50199 22.0489 6.52753 22.0489C6.55304 22.0489 6.57394 22.0606 6.57394 22.075C6.57394 22.0893 6.59742 22.101 6.62611 22.101C6.65481 22.101 6.67829 22.1127 6.67829 22.127C6.67829 22.1413 6.69918 22.153 6.72469 22.153C6.75023 22.153 6.78803 22.1764 6.80872 22.2051C6.82941 22.2337 6.86721 22.2571 6.89275 22.2571C6.91826 22.2571 6.93915 22.2688 6.93915 22.2831C6.93915 22.2975 6.96263 22.3092 6.99133 22.3092C7.02002 22.3092 7.0435 22.3209 7.0435 22.3352C7.0435 22.3495 7.0644 22.3612 7.08991 22.3612C7.11545 22.3612 7.15325 22.3846 7.17393 22.4133C7.19462 22.4419 7.23242 22.4653 7.25796 22.4653C7.28347 22.4653 7.30437 22.477 7.30437 22.4913C7.30437 22.5056 7.32785 22.5173 7.35654 22.5173C7.38524 22.5173 7.40872 22.5291 7.40872 22.5434C7.40872 22.5577 7.42961 22.5694 7.45512 22.5694C7.48066 22.5694 7.51846 22.5928 7.53915 22.6214C7.55984 22.6501 7.59764 22.6735 7.62318 22.6735C7.64869 22.6735 7.66958 22.6852 7.66958 22.6995C7.66958 22.7138 7.69306 22.7255 7.72176 22.7255C7.75045 22.7255 7.77393 22.7372 7.77393 22.7516C7.77393 22.7659 7.79483 22.7776 7.82034 22.7776C7.84588 22.7776 7.88368 22.801 7.90436 22.8296C7.92505 22.8583 7.96285 22.8817 7.98839 22.8817C8.0139 22.8817 8.0348 22.8934 8.0348 22.9077C8.0348 22.922 8.05828 22.9337 8.08697 22.9337C8.11567 22.9337 8.13915 22.9454 8.13915 22.9597C8.13915 22.9741 8.16004 22.9858 8.18555 22.9858C8.21109 22.9858 8.24889 23.0092 8.26958 23.0378C8.29027 23.0664 8.32807 23.0899 8.35361 23.0899C8.37912 23.0899 8.40001 23.1016 8.40001 23.1159C8.40001 23.1302 8.42091 23.1419 8.44642 23.1419C8.47196 23.1419 8.50976 23.1653 8.53045 23.194C8.55113 23.2226 8.58893 23.246 8.61447 23.246C8.63999 23.246 8.66088 23.2577 8.66088 23.272C8.66088 23.2863 8.68436 23.298 8.71306 23.298C8.74175 23.298 8.76523 23.3098 8.76523 23.3241C8.76523 23.3384 8.78612 23.3501 8.81164 23.3501C8.83718 23.3501 8.87498 23.3735 8.89566 23.4021C8.91635 23.4308 8.95415 23.4542 8.97969 23.4542C9.0052 23.4542 9.0261 23.4659 9.0261 23.4802C9.0261 23.4945 9.04957 23.5062 9.07827 23.5062C9.10697 23.5062 9.13044 23.5179 9.13044 23.5323C9.13044 23.5466 9.15134 23.5583 9.17685 23.5583C9.20239 23.5583 9.24019 23.5817 9.26088 23.6103C9.28156 23.6389 9.31936 23.6624 9.3449 23.6624C9.37042 23.6624 9.39131 23.6741 9.39131 23.6884C9.39131 23.7027 9.41479 23.7144 9.44349 23.7144C9.47218 23.7144 9.49566 23.7261 9.49566 23.7404C9.49566 23.7547 9.51655 23.7665 9.54207 23.7665C9.56761 23.7665 9.60541 23.7899 9.62609 23.8185C9.64678 23.8471 9.68458 23.8706 9.71012 23.8706C9.73563 23.8706 9.75653 23.8823 9.75653 23.8966C9.75653 23.9109 9.78 23.9226 9.8087 23.9226C9.8374 23.9226 9.86087 23.9343 9.86087 23.9486C9.86087 23.9629 9.88177 23.9746 9.90728 23.9746C9.93282 23.9746 9.97062 23.9981 9.99131 24.0267C10.012 24.0553 10.0498 24.0787 10.0753 24.0787C10.1008 24.0787 10.1217 24.0904 10.1217 24.1048C10.1217 24.1191 10.1452 24.1308 10.1739 24.1308C10.2026 24.1308 10.2261 24.1425 10.2261 24.1568C10.2261 24.1711 10.247 24.1828 10.2725 24.1828C10.298 24.1828 10.3358 24.2063 10.3565 24.2349C10.3772 24.2635 10.415 24.2869 10.4405 24.2869C10.4661 24.2869 10.487 24.2986 10.487 24.3129C10.487 24.3273 10.5104 24.339 10.5391 24.339C10.5678 24.339 10.5913 24.3507 10.5913 24.365C10.5913 24.3793 10.6122 24.391 10.6377 24.391C10.6633 24.391 10.7011 24.4144 10.7217 24.4431C10.7424 24.4717 10.7802 24.4951 10.8058 24.4951C10.8313 24.4951 10.8522 24.5068 10.8522 24.5211C10.8522 24.5354 10.8756 24.5472 10.9043 24.5472C10.933 24.5472 10.9565 24.5589 10.9565 24.5732C10.9565 24.5875 10.9774 24.5992 11.0029 24.5992C11.0285 24.5992 11.0663 24.6226 11.087 24.6512C11.1076 24.6799 11.1454 24.7033 11.171 24.7033C11.1965 24.7033 11.2174 24.715 11.2174 24.7293C11.2174 24.7436 11.2409 24.7553 11.2696 24.7553C11.2983 24.7553 11.3217 24.767 11.3217 24.7814C11.3217 24.7957 11.3426 24.8074 11.3681 24.8074C11.3937 24.8074 11.4315 24.8308 11.4522 24.8594C11.4729 24.8881 11.5107 24.9115 11.5362 24.9115C11.5617 24.9115 11.5826 24.9232 11.5826 24.9375C11.5826 24.9518 11.6061 24.9635 11.6348 24.9635C11.6635 24.9635 11.6869 24.9752 11.6869 24.9895C11.6869 25.0039 11.7078 25.0156 11.7334 25.0156C11.7589 25.0156 11.7967 25.039 11.8174 25.0676C11.8381 25.0962 11.8759 25.1197 11.9014 25.1197C11.9269 25.1197 11.9478 25.1314 11.9478 25.1457C11.9478 25.16 11.9713 25.1717 12 25.1717C12.0287 25.1717 12.0522 25.1834 12.0522 25.1977C12.0522 25.212 12.0731 25.2238 12.0986 25.2238C12.1241 25.2238 12.1619 25.2472 12.1826 25.2758C12.2033 25.3044 12.2411 25.3278 12.2666 25.3278C12.2921 25.3278 12.313 25.3396 12.313 25.3539C12.313 25.3682 12.3365 25.3799 12.3652 25.3799C12.3939 25.3799 12.4174 25.3916 12.4174 25.4059C12.4174 25.4202 12.4383 25.4319 12.4638 25.4319C12.4893 25.4319 12.5271 25.4554 12.5478 25.484C12.5685 25.5126 12.6063 25.536 12.6318 25.536C12.6574 25.536 12.6782 25.5477 12.6782 25.5621C12.6782 25.5764 12.7017 25.5881 12.7304 25.5881C12.7591 25.5881 12.7826 25.5998 12.7826 25.6141C12.7826 25.6284 12.8035 25.6401 12.829 25.6401C12.8545 25.6401 12.8923 25.6635 12.913 25.6922C12.9337 25.7208 12.9715 25.7442 12.9971 25.7442C13.0226 25.7442 13.0435 25.7559 13.0435 25.7702C13.0435 25.7846 13.0669 25.7963 13.0956 25.7963C13.1243 25.7963 13.1478 25.808 13.1478 25.8223C13.1478 25.8366 13.1687 25.8483 13.1942 25.8483C13.2198 25.8483 13.2576 25.8717 13.2782 25.9004C13.2989 25.929 13.3367 25.9524 13.3623 25.9524C13.3878 25.9524 13.4087 25.9641 13.4087 25.9784C13.4087 25.9927 13.4322 26.0044 13.4609 26.0044C13.4895 26.0044 13.513 26.0162 13.513 26.0305C13.513 26.0448 13.5339 26.0565 13.5594 26.0565C13.585 26.0565 13.6228 26.0799 13.6435 26.1085C13.6641 26.1372 13.7019 26.1606 13.7275 26.1606C13.753 26.1606 13.7739 26.1723 13.7739 26.1866C13.7739 26.2009 13.7974 26.2126 13.8261 26.2126C13.8548 26.2126 13.8782 26.2243 13.8782 26.2387C13.8782 26.253 13.8991 26.2647 13.9246 26.2647C13.9502 26.2647 13.988 26.2881 14.0087 26.3167C14.0294 26.3454 14.0672 26.3688 14.0927 26.3688C14.1182 26.3688 14.1391 26.3805 14.1391 26.3948C14.1391 26.4091 14.1626 26.4208 14.1913 26.4208C14.22 26.4208 14.2435 26.4325 14.2435 26.4468C14.2435 26.4612 14.2643 26.4729 14.2899 26.4729C14.3154 26.4729 14.3532 26.4963 14.3739 26.5249C14.3946 26.5535 14.4324 26.577 14.4579 26.577C14.4834 26.577 14.5043 26.5887 14.5043 26.603C14.5043 26.6173 14.5278 26.629 14.5565 26.629C14.5852 26.629 14.6087 26.6407 14.6087 26.655C14.6087 26.6693 14.6296 26.681 14.6551 26.681C14.6806 26.681 14.7184 26.7045 14.7391 26.7331C14.7598 26.7617 14.7976 26.7851 14.8231 26.7851C14.8486 26.7851 14.8695 26.7969 14.8695 26.8112C14.8695 26.8255 14.893 26.8372 14.9217 26.8372C14.9504 26.8372 14.9739 26.8489 14.9739 26.8632C14.9739 26.8775 14.9974 26.8892 15.0261 26.8892C15.0548 26.8892 15.0782 26.9009 15.0782 26.9153C15.0782 26.9613 15.1698 26.943 15.2087 26.8892C15.2294 26.8606 15.2672 26.8372 15.2927 26.8372C15.3182 26.8372 15.3391 26.8255 15.3391 26.8112C15.3391 26.7969 15.3626 26.7851 15.3913 26.7851C15.42 26.7851 15.4434 26.7734 15.4434 26.7591C15.4434 26.7448 15.4643 26.7331 15.4899 26.7331C15.5154 26.7331 15.5532 26.7097 15.5739 26.681C15.5946 26.6524 15.6324 26.629 15.6579 26.629C15.6834 26.629 15.7043 26.6173 15.7043 26.603C15.7043 26.5887 15.7278 26.577 15.7565 26.577C15.7852 26.577 15.8087 26.5652 15.8087 26.5509C15.8087 26.5366 15.8296 26.5249 15.8551 26.5249C15.8806 26.5249 15.9184 26.5015 15.9391 26.4729C15.9598 26.4442 15.9976 26.4208 16.0231 26.4208C16.0486 26.4208 16.0695 26.4091 16.0695 26.3948C16.0695 26.3805 16.093 26.3688 16.1217 26.3688C16.1504 26.3688 16.1739 26.3571 16.1739 26.3428C16.1739 26.3284 16.1948 26.3167 16.2203 26.3167C16.2458 26.3167 16.2836 26.2933 16.3043 26.2647C16.325 26.2361 16.3628 26.2126 16.3883 26.2126C16.4138 26.2126 16.4347 26.2009 16.4347 26.1866C16.4347 26.1723 16.4556 26.1606 16.4812 26.1606C16.5067 26.1606 16.5445 26.1372 16.5652 26.1085C16.5859 26.0799 16.6237 26.0565 16.6492 26.0565C16.6747 26.0565 16.6956 26.0448 16.6956 26.0305C16.6956 26.0162 16.7191 26.0044 16.7478 26.0044C16.7765 26.0044 16.8 25.9927 16.8 25.9784C16.8 25.9641 16.8209 25.9524 16.8464 25.9524C16.8719 25.9524 16.9097 25.929 16.9304 25.9004C16.9511 25.8717 16.9889 25.8483 17.0144 25.8483C17.0399 25.8483 17.0608 25.8366 17.0608 25.8223C17.0608 25.808 17.0843 25.7963 17.113 25.7963C17.1417 25.7963 17.1652 25.7846 17.1652 25.7702C17.1652 25.7559 17.1861 25.7442 17.2116 25.7442C17.2371 25.7442 17.2749 25.7208 17.2956 25.6922C17.3163 25.6635 17.3541 25.6401 17.3796 25.6401C17.4051 25.6401 17.426 25.6284 17.426 25.6141C17.426 25.5998 17.4495 25.5881 17.4782 25.5881C17.5069 25.5881 17.5304 25.5764 17.5304 25.5621C17.5304 25.5477 17.5513 25.536 17.5768 25.536C17.6023 25.536 17.6401 25.5126 17.6608 25.484C17.6815 25.4554 17.7193 25.4319 17.7449 25.4319C17.7704 25.4319 17.7913 25.4202 17.7913 25.4059C17.7913 25.3916 17.8122 25.3799 17.8377 25.3799C17.8632 25.3799 17.901 25.3565 17.9217 25.3278C17.9424 25.2992 17.9802 25.2758 18.0057 25.2758C18.0312 25.2758 18.0521 25.2641 18.0521 25.2498C18.0521 25.2355 18.0756 25.2238 18.1043 25.2238C18.133 25.2238 18.1565 25.212 18.1565 25.1977C18.1565 25.1834 18.1774 25.1717 18.2029 25.1717C18.2284 25.1717 18.2662 25.1483 18.2869 25.1197C18.3076 25.091 18.3454 25.0676 18.3709 25.0676C18.3964 25.0676 18.4173 25.0559 18.4173 25.0416C18.4173 25.0273 18.4408 25.0156 18.4695 25.0156C18.4982 25.0156 18.5217 25.0039 18.5217 24.9895C18.5217 24.9752 18.5426 24.9635 18.5681 24.9635C18.5936 24.9635 18.6314 24.9401 18.6521 24.9115C18.6728 24.8829 18.7106 24.8594 18.7361 24.8594C18.7617 24.8594 18.7826 24.8477 18.7826 24.8334C18.7826 24.8191 18.806 24.8074 18.8347 24.8074C18.8634 24.8074 18.8869 24.7957 18.8869 24.7814C18.8869 24.767 18.9078 24.7553 18.9333 24.7553C18.9588 24.7553 18.9967 24.7319 19.0173 24.7033C19.038 24.6747 19.0758 24.6512 19.1014 24.6512C19.1269 24.6512 19.1478 24.6395 19.1478 24.6252C19.1478 24.6109 19.1687 24.5992 19.1942 24.5992C19.2197 24.5992 19.2575 24.5758 19.2782 24.5472C19.2989 24.5185 19.3367 24.4951 19.3622 24.4951C19.3877 24.4951 19.4086 24.4834 19.4086 24.4691C19.4086 24.4548 19.4321 24.4431 19.4608 24.4431C19.4895 24.4431 19.513 24.4314 19.513 24.417C19.513 24.4027 19.5339 24.391 19.5594 24.391C19.5849 24.391 19.6227 24.3676 19.6434 24.339C19.6641 24.3103 19.7019 24.2869 19.7274 24.2869C19.753 24.2869 19.7739 24.2752 19.7739 24.2609C19.7739 24.2466 19.7973 24.2349 19.826 24.2349C19.8547 24.2349 19.8782 24.2232 19.8782 24.2089C19.8782 24.1945 19.8991 24.1828 19.9246 24.1828C19.9501 24.1828 19.9879 24.1594 20.0086 24.1308C20.0293 24.1022 20.0671 24.0787 20.0927 24.0787C20.1182 24.0787 20.1391 24.067 20.1391 24.0527C20.1391 24.0384 20.1625 24.0267 20.1912 24.0267C20.2199 24.0267 20.2434 24.015 20.2434 24.0007C20.2434 23.9864 20.2643 23.9746 20.2898 23.9746C20.3154 23.9746 20.3532 23.9512 20.3738 23.9226C20.3945 23.894 20.4323 23.8706 20.4579 23.8706C20.4834 23.8706 20.5043 23.8588 20.5043 23.8445C20.5043 23.8302 20.5252 23.8185 20.5507 23.8185C20.5762 23.8185 20.614 23.7951 20.6347 23.7665C20.6554 23.7378 20.6932 23.7144 20.7187 23.7144C20.7443 23.7144 20.7652 23.7027 20.7652 23.6884C20.7652 23.6741 20.7886 23.6624 20.8173 23.6624C20.846 23.6624 20.8695 23.6507 20.8695 23.6363C20.8695 23.622 20.8904 23.6103 20.9159 23.6103C20.9414 23.6103 20.9792 23.5869 20.9999 23.5583C21.0206 23.5296 21.0584 23.5062 21.084 23.5062C21.1095 23.5062 21.1304 23.4945 21.1304 23.4802C21.1304 23.4659 21.1538 23.4542 21.1825 23.4542C21.2112 23.4542 21.2347 23.4425 21.2347 23.4282C21.2347 23.4138 21.2556 23.4021 21.2811 23.4021C21.3067 23.4021 21.3445 23.3787 21.3651 23.3501C21.3858 23.3215 21.4236 23.298 21.4492 23.298C21.4747 23.298 21.4956 23.2863 21.4956 23.272C21.4956 23.2577 21.5165 23.246 21.542 23.246C21.5675 23.246 21.6053 23.2226 21.626 23.194C21.6467 23.1653 21.6845 23.1419 21.71 23.1419C21.7356 23.1419 21.7564 23.1302 21.7564 23.1159C21.7564 23.1016 21.7799 23.0899 21.8086 23.0899C21.8373 23.0899 21.8608 23.0781 21.8608 23.0638C21.8608 23.0495 21.8817 23.0378 21.9072 23.0378C21.9327 23.0378 21.9705 23.0144 21.9912 22.9858C22.0119 22.9571 22.0497 22.9337 22.0753 22.9337C22.1008 22.9337 22.1217 22.922 22.1217 22.9077C22.1217 22.8934 22.1451 22.8817 22.1738 22.8817C22.2025 22.8817 22.226 22.87 22.226 22.8556C22.226 22.8413 22.2469 22.8296 22.2724 22.8296C22.298 22.8296 22.3358 22.8062 22.3564 22.7776C22.3771 22.749 22.4149 22.7255 22.4405 22.7255C22.466 22.7255 22.4869 22.7138 22.4869 22.6995C22.4869 22.6852 22.5104 22.6735 22.5391 22.6735C22.5677 22.6735 22.5912 22.6618 22.5912 22.6475C22.5912 22.6332 22.6121 22.6214 22.6376 22.6214C22.6632 22.6214 22.701 22.598 22.7217 22.5694C22.7423 22.5408 22.7801 22.5173 22.8057 22.5173C22.8312 22.5173 22.8521 22.5056 22.8521 22.4913C22.8521 22.477 22.8756 22.4653 22.9043 22.4653C22.933 22.4653 22.9564 22.4536 22.9564 22.4393C22.9564 22.425 22.9773 22.4133 23.0028 22.4133C23.0284 22.4133 23.0662 22.3898 23.0869 22.3612C23.1076 22.3326 23.1454 22.3092 23.1709 22.3092C23.1964 22.3092 23.2173 22.2975 23.2173 22.2831C23.2173 22.2688 23.2382 22.2571 23.2637 22.2571C23.2893 22.2571 23.3271 22.2337 23.3477 22.2051C23.3684 22.1764 23.4062 22.153 23.4318 22.153C23.4573 22.153 23.4782 22.1413 23.4782 22.127C23.4782 22.1127 23.5017 22.101 23.5304 22.101C23.559 22.101 23.5825 22.0893 23.5825 22.075C23.5825 22.0606 23.6034 22.0489 23.6289 22.0489C23.6545 22.0489 23.6923 22.0255 23.713 21.9969C23.7336 21.9683 23.7714 21.9448 23.797 21.9448C23.8225 21.9448 23.8434 21.9331 23.8434 21.9188C23.8434 21.9045 23.8669 21.8928 23.8956 21.8928C23.9243 21.8928 23.9477 21.8811 23.9477 21.8668C23.9477 21.8525 23.9662 21.8407 23.9887 21.8407C24.0715 21.8407 24.1043 21.7712 24.1043 21.5954C24.1043 21.4987 24.1156 21.4244 24.1303 21.4244C24.1447 21.4244 24.1564 21.3658 24.1564 21.2943C24.1564 21.2227 24.1447 21.1641 24.1303 21.1641C24.1142 21.1641 24.1043 21.0254 24.1043 20.7998C24.1043 20.5743 24.1142 20.4355 24.1303 20.4355C24.1476 20.4355 24.1564 18.9128 24.1564 15.9193V11.4031L24.0924 11.3392C24.0572 11.3041 24.0102 11.2754 23.988 11.2754C23.9659 11.2754 23.9477 11.2636 23.9477 11.2493C23.9477 11.235 23.9243 11.2233 23.8956 11.2233C23.8669 11.2233 23.8434 11.2116 23.8434 11.1973C23.8434 11.183 23.8225 11.1713 23.797 11.1713C23.7714 11.1713 23.7336 11.1478 23.713 11.1192C23.6923 11.0906 23.6545 11.0672 23.6289 11.0672C23.6034 11.0672 23.5825 11.0555 23.5825 11.0411C23.5825 11.0268 23.559 11.0151 23.5304 11.0151C23.5017 11.0151 23.4782 11.0034 23.4782 10.9891C23.4782 10.9748 23.4573 10.9631 23.4318 10.9631C23.4062 10.9631 23.3684 10.9397 23.3477 10.911C23.3271 10.8824 23.2893 10.859 23.2637 10.859C23.2382 10.859 23.2173 10.8473 23.2173 10.833C23.2173 10.8186 23.1964 10.8069 23.1709 10.8069C23.1454 10.8069 23.1076 10.7835 23.0869 10.7549C23.0662 10.7263 23.0284 10.7028 23.0028 10.7028C22.9773 10.7028 22.9564 10.6911 22.9564 10.6768C22.9564 10.6625 22.933 10.6508 22.9043 10.6508C22.8756 10.6508 22.8521 10.6391 22.8521 10.6248C22.8521 10.6105 22.8312 10.5988 22.8057 10.5988C22.7801 10.5988 22.7423 10.5753 22.7217 10.5467C22.701 10.5181 22.6632 10.4947 22.6376 10.4947C22.6121 10.4947 22.5912 10.483 22.5912 10.4686C22.5912 10.4543 22.5677 10.4426 22.5391 10.4426C22.5104 10.4426 22.4869 10.4309 22.4869 10.4166C22.4869 10.4023 22.466 10.3906 22.4405 10.3906C22.4149 10.3906 22.3771 10.3671 22.3564 10.3385C22.3358 10.3099 22.298 10.2865 22.2724 10.2865C22.2469 10.2865 22.226 10.2748 22.226 10.2605C22.226 10.2461 22.2025 10.2344 22.1738 10.2344C22.1451 10.2344 22.1217 10.2227 22.1217 10.2084C22.1217 10.1941 22.1008 10.1824 22.0753 10.1824C22.0497 10.1824 22.0119 10.159 21.9912 10.1303C21.9705 10.1017 21.9327 10.0783 21.9072 10.0783C21.8817 10.0783 21.8608 10.0666 21.8608 10.0523C21.8608 10.038 21.8383 10.0262 21.8108 10.0262C21.7833 10.0262 21.756 10.0117 21.75 9.99395C21.7365 9.95349 21.6521 10.0308 21.6521 10.0837C21.6521 10.103 21.6286 10.1357 21.5999 10.1564C21.5712 10.177 21.5478 10.2147 21.5478 10.2402C21.5478 10.2656 21.536 10.2865 21.5217 10.2865C21.5073 10.2865 21.4956 10.3099 21.4956 10.3385C21.4956 10.3671 21.4838 10.3906 21.4695 10.3906C21.4551 10.3906 21.4434 10.4114 21.4434 10.4369C21.4434 10.4623 21.4199 10.5 21.3912 10.5207C21.3625 10.5413 21.3391 10.579 21.3391 10.6045C21.3391 10.63 21.3273 10.6508 21.313 10.6508C21.2742 10.6508 21.2814 10.7271 21.3242 10.7698C21.3446 10.7902 21.3773 10.8069 21.3967 10.8069C21.416 10.8069 21.4488 10.8304 21.4695 10.859C21.4902 10.8876 21.528 10.911 21.5535 10.911C21.579 10.911 21.5999 10.9227 21.5999 10.9371C21.5999 10.9514 21.6234 10.9631 21.6521 10.9631C21.6808 10.9631 21.7043 10.9748 21.7043 10.9891C21.7043 11.0034 21.7252 11.0151 21.7507 11.0151C21.7762 11.0151 21.814 11.0385 21.8347 11.0672C21.8554 11.0958 21.8932 11.1192 21.9187 11.1192C21.9442 11.1192 21.9651 11.1309 21.9651 11.1452C21.9651 11.1596 21.9886 11.1713 22.0173 11.1713C22.046 11.1713 22.0695 11.183 22.0695 11.1973C22.0695 11.2116 22.0904 11.2233 22.1159 11.2233C22.1414 11.2233 22.1792 11.2467 22.1999 11.2754C22.2206 11.304 22.2584 11.3274 22.284 11.3274C22.3095 11.3274 22.3304 11.3391 22.3304 11.3534C22.3304 11.3677 22.3538 11.3794 22.3825 11.3794C22.4112 11.3794 22.4347 11.3912 22.4347 11.4055C22.4347 11.4198 22.4556 11.4315 22.4811 11.4315C22.5067 11.4315 22.5445 11.4549 22.5651 11.4835C22.5858 11.5122 22.6236 11.5356 22.6492 11.5356C22.6747 11.5356 22.6956 11.5473 22.6956 11.5616C22.6956 11.5759 22.7191 11.5876 22.7477 11.5876C22.7764 11.5876 22.7999 11.5943 22.7999 11.6025C22.7999 11.633 22.7239 11.6917 22.6844 11.6917C22.6618 11.6917 22.6434 11.7034 22.6434 11.7177C22.6434 11.7321 22.6225 11.7438 22.597 11.7438C22.5715 11.7438 22.5337 11.7672 22.513 11.7958C22.4923 11.8244 22.4545 11.8479 22.4289 11.8479C22.4034 11.8479 22.3825 11.8596 22.3825 11.8739C22.3825 11.8882 22.3591 11.8999 22.3304 11.8999C22.3017 11.8999 22.2782 11.9116 22.2782 11.9259C22.2782 11.9402 22.2573 11.952 22.2318 11.952C22.2062 11.952 22.1684 11.9754 22.1478 12.004C22.1271 12.0326 22.0893 12.056 22.0637 12.056C22.0382 12.056 22.0173 12.0678 22.0173 12.0821C22.0173 12.0964 21.9964 12.1081 21.9709 12.1081C21.9454 12.1081 21.9076 12.1315 21.8869 12.1601C21.8662 12.1888 21.8284 12.2122 21.8029 12.2122C21.7773 12.2122 21.7564 12.2239 21.7564 12.2382C21.7564 12.2525 21.7356 12.2642 21.71 12.2642C21.6845 12.2642 21.6467 12.2877 21.626 12.3163C21.6053 12.3449 21.5675 12.3683 21.542 12.3683C21.5165 12.3683 21.4956 12.38 21.4956 12.3944C21.4956 12.4087 21.4747 12.4204 21.4492 12.4204C21.4236 12.4204 21.3858 12.4438 21.3651 12.4724C21.3445 12.501 21.3067 12.5245 21.2811 12.5245C21.2556 12.5245 21.2347 12.5362 21.2347 12.5505C21.2347 12.5648 21.2112 12.5765 21.1825 12.5765C21.1538 12.5765 21.1304 12.5882 21.1304 12.6025C21.1304 12.6168 21.1095 12.6286 21.084 12.6286C21.0584 12.6286 21.0206 12.652 20.9999 12.6806C20.9792 12.7092 20.9414 12.7327 20.9159 12.7327C20.8904 12.7327 20.8695 12.7444 20.8695 12.7587C20.8695 12.773 20.8486 12.7847 20.8231 12.7847C20.7976 12.7847 20.7598 12.8081 20.7391 12.8367C20.7184 12.8654 20.6806 12.8888 20.655 12.8888C20.6295 12.8888 20.6086 12.9005 20.6086 12.9148C20.6086 12.9291 20.5877 12.9408 20.5622 12.9408C20.5367 12.9408 20.4989 12.9643 20.4782 12.9929C20.4575 13.0215 20.4197 13.0449 20.3942 13.0449C20.3687 13.0449 20.3478 13.0566 20.3478 13.071C20.3478 13.0853 20.3243 13.097 20.2956 13.097C20.2669 13.097 20.2434 13.1087 20.2434 13.123C20.2434 13.1373 20.2225 13.149 20.197 13.149C20.1715 13.149 20.1337 13.1724 20.113 13.2011C20.0923 13.2297 20.0545 13.2531 20.029 13.2531C20.0034 13.2531 19.9825 13.2648 19.9825 13.2791C19.9825 13.2935 19.9617 13.3052 19.9361 13.3052C19.9106 13.3052 19.8728 13.3286 19.8521 13.3572C19.8314 13.3858 19.7936 13.4093 19.7681 13.4093C19.7426 13.4093 19.7217 13.421 19.7217 13.4353C19.7217 13.4496 19.7008 13.4613 19.6753 13.4613C19.6497 13.4613 19.6119 13.4847 19.5912 13.5133C19.5706 13.542 19.5328 13.5654 19.5072 13.5654C19.4817 13.5654 19.4608 13.5771 19.4608 13.5914C19.4608 13.6057 19.4373 13.6174 19.4086 13.6174C19.3799 13.6174 19.3565 13.6291 19.3565 13.6435C19.3565 13.6578 19.3356 13.6695 19.3101 13.6695C19.2845 13.6695 19.2467 13.6929 19.226 13.7215C19.2053 13.7502 19.1675 13.7736 19.142 13.7736C19.1165 13.7736 19.0956 13.7853 19.0956 13.7996C19.0956 13.8139 19.0747 13.8256 19.0492 13.8256C19.0237 13.8256 18.9859 13.849 18.9652 13.8777C18.9445 13.9063 18.9067 13.9297 18.8811 13.9297C18.8556 13.9297 18.8347 13.9414 18.8347 13.9557C18.8347 13.9701 18.8138 13.9818 18.7883 13.9818C18.7628 13.9818 18.725 14.0052 18.7043 14.0338C18.6836 14.0624 18.6458 14.0859 18.6203 14.0859C18.5948 14.0859 18.5739 14.0976 18.5739 14.1119C18.5739 14.1262 18.553 14.1379 18.5275 14.1379C18.5019 14.1379 18.4641 14.1613 18.4434 14.1899C18.4227 14.2186 18.3849 14.242 18.3594 14.242C18.3339 14.242 18.313 14.2537 18.313 14.268C18.313 14.2823 18.2895 14.294 18.2608 14.294C18.2321 14.294 18.2086 14.3057 18.2086 14.3201C18.2086 14.3344 18.1878 14.3461 18.1622 14.3461C18.1367 14.3461 18.0989 14.3695 18.0782 14.3981C18.0575 14.4268 18.0197 14.4502 17.9942 14.4502C17.9687 14.4502 17.9478 14.4619 17.9478 14.4762C17.9478 14.4905 17.9269 14.5022 17.9014 14.5022C17.8758 14.5022 17.838 14.5256 17.8173 14.5543C17.7967 14.5829 17.7589 14.6063 17.7333 14.6063C17.7078 14.6063 17.6869 14.618 17.6869 14.6323C17.6869 14.6467 17.666 14.6584 17.6405 14.6584C17.615 14.6584 17.5772 14.6818 17.5565 14.7104C17.5358 14.739 17.498 14.7625 17.4725 14.7625C17.4469 14.7625 17.426 14.7742 17.426 14.7885C17.426 14.8028 17.4026 14.8145 17.3739 14.8145C17.3452 14.8145 17.3217 14.8262 17.3217 14.8405C17.3217 14.8548 17.3008 14.8665 17.2753 14.8665C17.2497 14.8665 17.2119 14.89 17.1913 14.9186C17.1706 14.9472 17.1328 14.9706 17.1072 14.9706C17.0817 14.9706 17.0608 14.9824 17.0608 14.9967C17.0608 15.011 17.0399 15.0227 17.0144 15.0227C16.9889 15.0227 16.9511 15.0461 16.9304 15.0747C16.9097 15.1034 16.8719 15.1268 16.8464 15.1268C16.8209 15.1268 16.8 15.1385 16.8 15.1528C16.8 15.1671 16.7791 15.1788 16.7536 15.1788C16.728 15.1788 16.6902 15.2022 16.6695 15.2309C16.6488 15.2595 16.611 15.2829 16.5855 15.2829C16.56 15.2829 16.5391 15.2946 16.5391 15.3089C16.5391 15.3233 16.5156 15.335 16.4869 15.335C16.4582 15.335 16.4347 15.3467 16.4347 15.361C16.4347 15.3753 16.4138 15.387 16.3883 15.387C16.3628 15.387 16.325 15.4104 16.3043 15.4391C16.2836 15.4677 16.2458 15.4911 16.2203 15.4911C16.1948 15.4911 16.1739 15.5028 16.1739 15.5171C16.1739 15.5314 16.153 15.5431 16.1275 15.5431C16.1019 15.5431 16.0641 15.5666 16.0434 15.5952C16.0228 15.6238 15.985 15.6472 15.9594 15.6472C15.9339 15.6472 15.913 15.659 15.913 15.6733C15.913 15.6876 15.8921 15.6993 15.8666 15.6993C15.8411 15.6993 15.8033 15.7227 15.7826 15.7513C15.7619 15.78 15.7241 15.8034 15.6985 15.8034C15.673 15.8034 15.6521 15.8151 15.6521 15.8294C15.6521 15.8437 15.6312 15.8554 15.6057 15.8554C15.5802 15.8554 15.5424 15.8788 15.5217 15.9075C15.501 15.9361 15.4632 15.9595 15.4377 15.9595C15.4122 15.9595 15.3913 15.9712 15.3913 15.9855C15.3913 15.9999 15.3678 16.0116 15.3391 16.0116C15.3104 16.0116 15.2869 16.0233 15.2869 16.0376C15.2869 16.0519 15.2634 16.0636 15.2348 16.0636C15.2061 16.0636 15.1826 16.0753 15.1826 16.0896C15.1826 16.1039 15.1474 16.1157 15.1043 16.1157C15.0613 16.1157 15.0261 16.1039 15.0261 16.0896C15.0261 16.0753 15.0026 16.0636 14.9739 16.0636C14.9452 16.0636 14.9217 16.0519 14.9217 16.0376C14.9217 16.0233 14.9008 16.0116 14.8753 16.0116C14.8498 16.0116 14.812 15.9881 14.7913 15.9595C14.7706 15.9309 14.7328 15.9075 14.7073 15.9075C14.6817 15.9075 14.6608 15.8958 14.6608 15.8815C14.6608 15.8671 14.6399 15.8554 14.6144 15.8554C14.5889 15.8554 14.5511 15.832 14.5304 15.8034C14.5097 15.7748 14.4719 15.7513 14.4464 15.7513C14.4209 15.7513 14.4 15.7396 14.4 15.7253C14.4 15.711 14.3765 15.6993 14.3478 15.6993C14.3191 15.6993 14.2956 15.6876 14.2956 15.6733C14.2956 15.659 14.2747 15.6472 14.2492 15.6472C14.2237 15.6472 14.1859 15.6238 14.1652 15.5952C14.1445 15.5666 14.1067 15.5431 14.0812 15.5431C14.0557 15.5431 14.0348 15.5314 14.0348 15.5171C14.0348 15.5028 14.0113 15.4911 13.9826 15.4911C13.9539 15.4911 13.9304 15.4794 13.9304 15.4651C13.9304 15.4508 13.9095 15.4391 13.884 15.4391C13.8585 15.4391 13.8207 15.4156 13.8 15.387C13.7793 15.3584 13.7415 15.335 13.716 15.335C13.6904 15.335 13.6695 15.3233 13.6695 15.3089C13.6695 15.2946 13.6487 15.2829 13.6231 15.2829C13.5976 15.2829 13.5598 15.2595 13.5391 15.2309C13.5184 15.2022 13.4806 15.1788 13.4551 15.1788C13.4296 15.1788 13.4087 15.1671 13.4087 15.1528C13.4087 15.1385 13.3852 15.1268 13.3565 15.1268C13.3278 15.1268 13.3043 15.1151 13.3043 15.1008C13.3043 15.0864 13.2834 15.0747 13.2579 15.0747C13.2324 15.0747 13.1946 15.0513 13.1739 15.0227C13.1532 14.9941 13.1154 14.9706 13.0899 14.9706C13.0644 14.9706 13.0435 14.9589 13.0435 14.9446C13.0435 14.9303 13.0226 14.9186 12.9971 14.9186C12.9715 14.9186 12.9337 14.8952 12.913 14.8665C12.8923 14.8379 12.8545 14.8145 12.829 14.8145C12.8035 14.8145 12.7826 14.8028 12.7826 14.7885C12.7826 14.7742 12.7591 14.7625 12.7304 14.7625C12.7017 14.7625 12.6782 14.7507 12.6782 14.7364C12.6782 14.7221 12.6574 14.7104 12.6318 14.7104C12.6063 14.7104 12.5685 14.687 12.5478 14.6584C12.5271 14.6297 12.4893 14.6063 12.4638 14.6063C12.4383 14.6063 12.4174 14.5946 12.4174 14.5803C12.4174 14.566 12.3965 14.5543 12.371 14.5543C12.3454 14.5543 12.3076 14.5308 12.2869 14.5022C12.2663 14.4736 12.2285 14.4502 12.2029 14.4502C12.1774 14.4502 12.1565 14.4385 12.1565 14.4242C12.1565 14.4098 12.133 14.3981 12.1043 14.3981C12.0756 14.3981 12.0522 14.3864 12.0522 14.3721C12.0522 14.3578 12.0313 14.3461 12.0058 14.3461C11.9802 14.3461 11.9424 14.3227 11.9217 14.294C11.901 14.2654 11.8632 14.242 11.8377 14.242C11.8122 14.242 11.7913 14.2303 11.7913 14.216C11.7913 14.2017 11.7704 14.1899 11.7449 14.1899C11.7193 14.1899 11.6815 14.1665 11.6609 14.1379C11.6402 14.1093 11.6024 14.0859 11.5768 14.0859C11.5513 14.0859 11.5304 14.0741 11.5304 14.0598C11.5304 14.0455 11.507 14.0338 11.4783 14.0338C11.4496 14.0338 11.4261 14.0221 11.4261 14.0078C11.4261 13.9935 11.4052 13.9818 11.3797 13.9818C11.3541 13.9818 11.3163 13.9583 11.2956 13.9297C11.275 13.9011 11.2372 13.8777 11.2116 13.8777C11.1861 13.8777 11.1652 13.866 11.1652 13.8516C11.1652 13.8373 11.1443 13.8256 11.1188 13.8256C11.0933 13.8256 11.0555 13.8022 11.0348 13.7736C11.0141 13.745 10.9763 13.7215 10.9508 13.7215C10.9252 13.7215 10.9043 13.7098 10.9043 13.6955C10.9043 13.6812 10.8809 13.6695 10.8522 13.6695C10.8235 13.6695 10.8 13.6578 10.8 13.6435C10.8 13.6291 10.7791 13.6174 10.7536 13.6174C10.7281 13.6174 10.6903 13.594 10.6696 13.5654C10.6489 13.5368 10.6111 13.5133 10.5855 13.5133C10.56 13.5133 10.5391 13.5016 10.5391 13.4873C10.5391 13.473 10.5182 13.4613 10.4927 13.4613C10.4672 13.4613 10.4294 13.4379 10.4087 13.4093C10.388 13.3806 10.3502 13.3572 10.3247 13.3572C10.2992 13.3572 10.2783 13.3455 10.2783 13.3312C10.2783 13.3169 10.2548 13.3052 10.2261 13.3052C10.1974 13.3052 10.1739 13.2935 10.1739 13.2791C10.1739 13.2648 10.153 13.2531 10.1275 13.2531C10.102 13.2531 10.0642 13.2297 10.0435 13.2011C10.0228 13.1724 9.98499 13.149 9.95946 13.149C9.93394 13.149 9.91305 13.1373 9.91305 13.123C9.91305 13.1087 9.89215 13.097 9.86664 13.097C9.8411 13.097 9.8033 13.0736 9.78261 13.0449C9.76193 13.0163 9.72413 12.9929 9.69859 12.9929C9.67307 12.9929 9.65218 12.9812 9.65218 12.9669C9.65218 12.9525 9.6287 12.9408 9.60001 12.9408C9.57131 12.9408 9.54783 12.9291 9.54783 12.9148C9.54783 12.9005 9.52694 12.8888 9.50142 12.8888C9.47589 12.8888 9.43809 12.8654 9.4174 12.8367C9.39671 12.8081 9.35891 12.7847 9.33337 12.7847C9.30786 12.7847 9.28696 12.773 9.28696 12.7587C9.28696 12.7444 9.26349 12.7327 9.23479 12.7327C9.2061 12.7327 9.18262 12.7209 9.18262 12.7066C9.18262 12.6923 9.16172 12.6806 9.13621 12.6806C9.11067 12.6806 9.07287 12.6572 9.05218 12.6286C9.0315 12.5999 8.9937 12.5765 8.96816 12.5765C8.94264 12.5765 8.92175 12.5648 8.92175 12.5505C8.92175 12.5362 8.90085 12.5245 8.87534 12.5245C8.8498 12.5245 8.812 12.501 8.79132 12.4724C8.77063 12.4438 8.73283 12.4204 8.70729 12.4204C8.68178 12.4204 8.66088 12.4087 8.66088 12.3944C8.66088 12.38 8.6374 12.3683 8.60871 12.3683C8.58001 12.3683 8.55653 12.3566 8.55653 12.3423C8.55653 12.328 8.53564 12.3163 8.51013 12.3163C8.48459 12.3163 8.44679 12.2929 8.4261 12.2642C8.40541 12.2356 8.36761 12.2122 8.34207 12.2122C8.31656 12.2122 8.29567 12.2005 8.29567 12.1862C8.29567 12.1719 8.27477 12.1601 8.24926 12.1601C8.22372 12.1601 8.18592 12.1367 8.16523 12.1081C8.14455 12.0795 8.10675 12.056 8.08121 12.056C8.05569 12.056 8.0348 12.0443 8.0348 12.03C8.0348 12.0157 8.01132 12.004 7.98263 12.004C7.95393 12.004 7.93045 11.9923 7.93045 11.978C7.93045 11.9637 7.90956 11.952 7.88404 11.952C7.8585 11.952 7.8207 11.9285 7.80002 11.8999C7.77933 11.8713 7.74153 11.8479 7.71599 11.8479C7.69048 11.8479 7.66958 11.8362 7.66958 11.8218C7.66958 11.8075 7.64869 11.7958 7.62318 11.7958C7.59764 11.7958 7.55984 11.7724 7.53915 11.7438C7.51846 11.7151 7.4857 11.6917 7.46632 11.6917C7.43131 11.6917 7.35654 11.631 7.35654 11.6025C7.35654 11.5943 7.38002 11.5876 7.40872 11.5876C7.43741 11.5876 7.46089 11.5759 7.46089 11.5616C7.46089 11.5473 7.48437 11.5356 7.51306 11.5356C7.54176 11.5356 7.56524 11.5239 7.56524 11.5096C7.56524 11.4953 7.58613 11.4835 7.61165 11.4835C7.63718 11.4835 7.67498 11.4601 7.69567 11.4315C7.71636 11.4029 7.75416 11.3794 7.7797 11.3794C7.80521 11.3794 7.8261 11.3677 7.8261 11.3534C7.8261 11.3391 7.84958 11.3274 7.87828 11.3274C7.90697 11.3274 7.93045 11.3157 7.93045 11.3014C7.93045 11.2871 7.95135 11.2754 7.97686 11.2754C8.0024 11.2754 8.0402 11.2519 8.06089 11.2233C8.08157 11.1947 8.11937 11.1713 8.14491 11.1713C8.17042 11.1713 8.19132 11.1596 8.19132 11.1452C8.19132 11.1309 8.2148 11.1192 8.24349 11.1192C8.27219 11.1192 8.29567 11.1075 8.29567 11.0932C8.29567 11.0789 8.31656 11.0672 8.34207 11.0672C8.36761 11.0672 8.40541 11.0438 8.4261 11.0151C8.44679 10.9865 8.48459 10.9631 8.51013 10.9631C8.53564 10.9631 8.55653 10.9514 8.55653 10.9371C8.55653 10.9227 8.57743 10.911 8.60294 10.911C8.62848 10.911 8.66628 10.8876 8.68697 10.859C8.70766 10.8304 8.74546 10.8069 8.77099 10.8069C8.79651 10.8069 8.8174 10.7952 8.8174 10.7809C8.8174 10.7666 8.84088 10.7549 8.86958 10.7549C8.89827 10.7549 8.92175 10.7432 8.92175 10.7289C8.92175 10.7146 8.94264 10.7028 8.96816 10.7028C8.9937 10.7028 9.0315 10.6794 9.05218 10.6508C9.07287 10.6222 9.11067 10.5988 9.13621 10.5988C9.16172 10.5988 9.18262 10.587 9.18262 10.5727C9.18262 10.5584 9.2061 10.5467 9.23479 10.5467C9.26349 10.5467 9.28696 10.535 9.28696 10.5207C9.28696 10.5064 9.30786 10.4947 9.33337 10.4947C9.35891 10.4947 9.39671 10.4712 9.4174 10.4426C9.43809 10.414 9.47589 10.3906 9.50142 10.3906C9.52694 10.3906 9.54783 10.3789 9.54783 10.3645C9.54783 10.3502 9.57131 10.3385 9.60001 10.3385C9.6287 10.3385 9.65218 10.3268 9.65218 10.3125C9.65218 10.2982 9.67307 10.2865 9.69859 10.2865C9.72413 10.2865 9.76193 10.2631 9.78261 10.2344C9.8033 10.2058 9.8411 10.1824 9.86664 10.1824C9.89215 10.1824 9.91305 10.1707 9.91305 10.1564C9.91305 10.142 9.93653 10.1303 9.96522 10.1303C9.99392 10.1303 10.0174 10.1186 10.0174 10.1043C10.0174 10.09 10.0383 10.0783 10.0638 10.0783C10.0893 10.0783 10.1271 10.0549 10.1478 10.0262C10.1685 9.99762 10.2063 9.9742 10.2319 9.9742C10.2574 9.9742 10.2783 9.96249 10.2783 9.94818C10.2783 9.93386 10.3017 9.92215 10.3304 9.92215C10.3591 9.92215 10.3826 9.91044 10.3826 9.89613C10.3826 9.88182 10.4035 9.87011 10.429 9.87011C10.4546 9.87011 10.4924 9.84669 10.513 9.81806C10.5337 9.78943 10.5715 9.76601 10.5971 9.76601C10.6226 9.76601 10.6435 9.7543 10.6435 9.73999C10.6435 9.72568 10.6644 9.71397 10.6899 9.71397C10.7154 9.71397 10.7532 9.69055 10.7739 9.66192C10.7946 9.6333 10.8324 9.60988 10.8579 9.60988C10.8835 9.60988 10.9043 9.59817 10.9043 9.58385C10.9043 9.56954 10.9278 9.55783 10.9565 9.55783C10.9852 9.55783 11.0087 9.54612 11.0087 9.53181C11.0087 9.51749 11.0296 9.50578 11.0551 9.50578C11.0806 9.50578 11.1184 9.48236 11.1391 9.45374C11.1598 9.42511 11.1976 9.40169 11.2232 9.40169C11.2487 9.40169 11.2696 9.38998 11.2696 9.37567C11.2696 9.36135 11.293 9.34964 11.3217 9.34964C11.3504 9.34964 11.3739 9.33793 11.3739 9.32362C11.3739 9.30931 11.3948 9.2976 11.4203 9.2976C11.4459 9.2976 11.4837 9.27418 11.5043 9.24555C11.525 9.21693 11.5628 9.19351 11.5884 9.19351C11.6139 9.19351 11.6348 9.18179 11.6348 9.16748C11.6348 9.15317 11.6583 9.14146 11.6869 9.14146C11.7156 9.14146 11.7391 9.12975 11.7391 9.11544C11.7391 9.10112 11.76 9.08941 11.7855 9.08941C11.8111 9.08941 11.8489 9.06599 11.8696 9.03737C11.8902 9.00874 11.928 8.98532 11.9536 8.98532C11.9791 8.98532 12 8.97361 12 8.9593C12 8.94498 12.0235 8.93327 12.0522 8.93327C12.0809 8.93327 12.1043 8.92156 12.1043 8.90725C12.1043 8.89294 12.1252 8.88123 12.1507 8.88123C12.1763 8.88123 12.2141 8.85781 12.2348 8.82918C12.2555 8.80056 12.2933 8.77714 12.3188 8.77714C12.3443 8.77714 12.3652 8.76542 12.3652 8.75111C12.3652 8.7368 12.3887 8.72509 12.4174 8.72509C12.4461 8.72509 12.4696 8.71338 12.4696 8.69907C12.4696 8.68475 12.4904 8.67304 12.516 8.67304C12.5415 8.67304 12.5793 8.64962 12.6 8.621C12.6207 8.59237 12.6585 8.56895 12.684 8.56895C12.7095 8.56895 12.7304 8.55724 12.7304 8.54293C12.7304 8.52861 12.7513 8.5169 12.7768 8.5169C12.8024 8.5169 12.8402 8.49348 12.8609 8.46486C12.8815 8.43623 12.9193 8.41281 12.9449 8.41281C12.9704 8.41281 12.9913 8.4011 12.9913 8.38679C12.9913 8.37248 13.0148 8.36077 13.0435 8.36077C13.0722 8.36077 13.0956 8.34905 13.0956 8.33474C13.0956 8.32043 13.1141 8.30872 13.1366 8.30872C13.2468 8.30872 13.2922 8.14082 13.2 8.07451C13.1713 8.05387 13.1478 8.01617 13.1478 7.99069C13.1478 7.96524 13.1361 7.94439 13.1217 7.94439C13.1074 7.94439 13.0956 7.92097 13.0956 7.89235C13.0956 7.86372 13.0839 7.8403 13.0695 7.8403C13.0552 7.8403 13.0435 7.81946 13.0435 7.79401C13.0435 7.76853 13.02 7.73082 12.9913 7.71019C12.9626 7.68955 12.9391 7.65184 12.9391 7.62637C12.9391 7.60092 12.9274 7.58007 12.913 7.58007C12.8987 7.58007 12.8869 7.55665 12.8869 7.52802C12.8869 7.49334 12.8695 7.47598 12.8348 7.47598C12.8061 7.47598 12.7826 7.48769 12.7826 7.502ZM7.01741 12.4724C7.0381 12.501 7.0759 12.5245 7.10144 12.5245C7.12695 12.5245 7.14785 12.5362 7.14785 12.5505C7.14785 12.5648 7.17133 12.5765 7.20002 12.5765C7.22872 12.5765 7.2522 12.5882 7.2522 12.6025C7.2522 12.6168 7.27309 12.6286 7.2986 12.6286C7.32414 12.6286 7.36194 12.652 7.38263 12.6806C7.40332 12.7092 7.44112 12.7327 7.46665 12.7327C7.49217 12.7327 7.51306 12.7444 7.51306 12.7587C7.51306 12.773 7.53396 12.7847 7.55947 12.7847C7.58501 12.7847 7.62281 12.8081 7.6435 12.8367C7.66418 12.8654 7.70198 12.8888 7.72752 12.8888C7.75304 12.8888 7.77393 12.9005 7.77393 12.9148C7.77393 12.9291 7.79741 12.9408 7.8261 12.9408C7.8548 12.9408 7.87828 12.9525 7.87828 12.9669C7.87828 12.9812 7.89917 12.9929 7.92469 12.9929C7.95023 12.9929 7.98802 13.0163 8.00871 13.0449C8.0294 13.0736 8.0672 13.097 8.09274 13.097C8.11825 13.097 8.13915 13.1087 8.13915 13.123C8.13915 13.1373 8.16004 13.149 8.18555 13.149C8.21109 13.149 8.24889 13.1724 8.26958 13.2011C8.29027 13.2297 8.32807 13.2531 8.35361 13.2531C8.37912 13.2531 8.40001 13.2648 8.40001 13.2791C8.40001 13.2935 8.42349 13.3052 8.45219 13.3052C8.48088 13.3052 8.50436 13.3169 8.50436 13.3312C8.50436 13.3455 8.52526 13.3572 8.55077 13.3572C8.57631 13.3572 8.61411 13.3806 8.63479 13.4093C8.65548 13.4379 8.69328 13.4613 8.71882 13.4613C8.74433 13.4613 8.76523 13.473 8.76523 13.4873C8.76523 13.5016 8.78612 13.5133 8.81164 13.5133C8.83718 13.5133 8.87498 13.5368 8.89566 13.5654C8.91635 13.594 8.95415 13.6174 8.97969 13.6174C9.0052 13.6174 9.0261 13.6291 9.0261 13.6435C9.0261 13.6578 9.04957 13.6695 9.07827 13.6695C9.10697 13.6695 9.13044 13.6812 9.13044 13.6955C9.13044 13.7098 9.15134 13.7215 9.17685 13.7215C9.20239 13.7215 9.24019 13.745 9.26088 13.7736C9.28156 13.8022 9.31936 13.8256 9.3449 13.8256C9.37042 13.8256 9.39131 13.8373 9.39131 13.8516C9.39131 13.866 9.41221 13.8777 9.43772 13.8777C9.46326 13.8777 9.50106 13.9011 9.52175 13.9297C9.54243 13.9583 9.58023 13.9818 9.60577 13.9818C9.63128 13.9818 9.65218 13.9935 9.65218 14.0078C9.65218 14.0221 9.67566 14.0338 9.70435 14.0338C9.73305 14.0338 9.75653 14.0455 9.75653 14.0598C9.75653 14.0741 9.77742 14.0859 9.80293 14.0859C9.82847 14.0859 9.86627 14.1093 9.88696 14.1379C9.90765 14.1665 9.94545 14.1899 9.97099 14.1899C9.9965 14.1899 10.0174 14.2017 10.0174 14.216C10.0174 14.2303 10.0383 14.242 10.0638 14.242C10.0893 14.242 10.1271 14.2654 10.1478 14.294C10.1685 14.3227 10.2063 14.3461 10.2319 14.3461C10.2574 14.3461 10.2783 14.3578 10.2783 14.3721C10.2783 14.3864 10.3017 14.3981 10.3304 14.3981C10.3591 14.3981 10.3826 14.4098 10.3826 14.4242C10.3826 14.4385 10.4035 14.4502 10.429 14.4502C10.4546 14.4502 10.4924 14.4736 10.513 14.5022C10.5337 14.5308 10.5715 14.5543 10.5971 14.5543C10.6226 14.5543 10.6435 14.566 10.6435 14.5803C10.6435 14.5946 10.667 14.6063 10.6957 14.6063C10.7243 14.6063 10.7478 14.618 10.7478 14.6323C10.7478 14.6467 10.7687 14.6584 10.7942 14.6584C10.8198 14.6584 10.8576 14.6818 10.8783 14.7104C10.8989 14.739 10.9367 14.7625 10.9623 14.7625C10.9878 14.7625 11.0087 14.7742 11.0087 14.7885C11.0087 14.8028 11.0296 14.8145 11.0551 14.8145C11.0806 14.8145 11.1184 14.8379 11.1391 14.8665C11.1598 14.8952 11.1976 14.9186 11.2232 14.9186C11.2487 14.9186 11.2696 14.9303 11.2696 14.9446C11.2696 14.9589 11.293 14.9706 11.3217 14.9706C11.3504 14.9706 11.3739 14.9824 11.3739 14.9967C11.3739 15.011 11.3948 15.0227 11.4203 15.0227C11.4459 15.0227 11.4837 15.0461 11.5043 15.0747C11.525 15.1034 11.5628 15.1268 11.5884 15.1268C11.6139 15.1268 11.6348 15.1385 11.6348 15.1528C11.6348 15.1671 11.6557 15.1788 11.6812 15.1788C11.7067 15.1788 11.7445 15.2022 11.7652 15.2309C11.7859 15.2595 11.8237 15.2829 11.8492 15.2829C11.8747 15.2829 11.8956 15.2946 11.8956 15.3089C11.8956 15.3233 11.9191 15.335 11.9478 15.335C11.9765 15.335 12 15.3467 12 15.361C12 15.3753 12.0209 15.387 12.0464 15.387C12.0719 15.387 12.1097 15.4104 12.1304 15.4391C12.1511 15.4677 12.1889 15.4911 12.2145 15.4911C12.24 15.4911 12.2609 15.5028 12.2609 15.5171C12.2609 15.5314 12.2818 15.5431 12.3073 15.5431C12.3328 15.5431 12.3706 15.5666 12.3913 15.5952C12.412 15.6238 12.4498 15.6472 12.4753 15.6472C12.5008 15.6472 12.5217 15.659 12.5217 15.6733C12.5217 15.6876 12.5452 15.6993 12.5739 15.6993C12.6026 15.6993 12.6261 15.711 12.6261 15.7253C12.6261 15.7396 12.647 15.7513 12.6725 15.7513C12.698 15.7513 12.7358 15.7748 12.7565 15.8034C12.7772 15.832 12.815 15.8554 12.8405 15.8554C12.866 15.8554 12.8869 15.8671 12.8869 15.8815C12.8869 15.8958 12.9078 15.9075 12.9334 15.9075C12.9589 15.9075 12.9967 15.9309 13.0174 15.9595C13.0381 15.9881 13.0759 16.0116 13.1014 16.0116C13.1269 16.0116 13.1478 16.0233 13.1478 16.0376C13.1478 16.0519 13.1713 16.0636 13.2 16.0636C13.2287 16.0636 13.2522 16.0753 13.2522 16.0896C13.2522 16.1039 13.2731 16.1157 13.2986 16.1157C13.3241 16.1157 13.3619 16.1391 13.3826 16.1677C13.4033 16.1963 13.4411 16.2198 13.4666 16.2198C13.4921 16.2198 13.513 16.2315 13.513 16.2458C13.513 16.2601 13.5339 16.2718 13.5594 16.2718C13.585 16.2718 13.6228 16.2952 13.6435 16.3238C13.6641 16.3525 13.7019 16.3759 13.7275 16.3759C13.753 16.3759 13.7739 16.3876 13.7739 16.4019C13.7739 16.4162 13.7974 16.4279 13.8261 16.4279C13.8548 16.4279 13.8782 16.4396 13.8782 16.454C13.8782 16.4683 13.8991 16.48 13.9246 16.48C13.9502 16.48 13.988 16.5034 14.0087 16.532C14.0294 16.5607 14.0672 16.5841 14.0927 16.5841C14.1182 16.5841 14.1391 16.5958 14.1391 16.6101C14.1391 16.6244 14.16 16.6361 14.1855 16.6361C14.2111 16.6361 14.2489 16.6595 14.2695 16.6882C14.2902 16.7168 14.328 16.7402 14.3536 16.7402C14.3791 16.7402 14.4 16.7519 14.4 16.7662C14.4 16.7805 14.4235 16.7923 14.4521 16.7923C14.4808 16.7923 14.5043 16.804 14.5043 16.8183C14.5043 16.8326 14.5228 16.8443 14.5453 16.8443C14.6662 16.8443 14.6608 16.6369 14.6608 21.2794C14.6608 25.4424 14.6587 25.6401 14.6144 25.6401C14.5889 25.6401 14.5511 25.6167 14.5304 25.5881C14.5097 25.5595 14.4719 25.536 14.4464 25.536C14.4209 25.536 14.4 25.5243 14.4 25.51C14.4 25.4957 14.3765 25.484 14.3478 25.484C14.3191 25.484 14.2956 25.4723 14.2956 25.458C14.2956 25.4437 14.2747 25.4319 14.2492 25.4319C14.2237 25.4319 14.1859 25.4085 14.1652 25.3799C14.1445 25.3513 14.1067 25.3278 14.0812 25.3278C14.0557 25.3278 14.0348 25.3161 14.0348 25.3018C14.0348 25.2875 14.0113 25.2758 13.9826 25.2758C13.9539 25.2758 13.9304 25.2641 13.9304 25.2498C13.9304 25.2355 13.9095 25.2238 13.884 25.2238C13.8585 25.2238 13.8207 25.2003 13.8 25.1717C13.7793 25.1431 13.7415 25.1197 13.716 25.1197C13.6904 25.1197 13.6695 25.108 13.6695 25.0936C13.6695 25.0793 13.6461 25.0676 13.6174 25.0676C13.5887 25.0676 13.5652 25.0559 13.5652 25.0416C13.5652 25.0273 13.5443 25.0156 13.5188 25.0156C13.4933 25.0156 13.4555 24.9921 13.4348 24.9635C13.4141 24.9349 13.3763 24.9115 13.3507 24.9115C13.3252 24.9115 13.3043 24.8998 13.3043 24.8855C13.3043 24.8711 13.2809 24.8594 13.2522 24.8594C13.2235 24.8594 13.2 24.8477 13.2 24.8334C13.2 24.8191 13.1791 24.8074 13.1536 24.8074C13.128 24.8074 13.0902 24.784 13.0695 24.7553C13.0489 24.7267 13.0111 24.7033 12.9855 24.7033C12.96 24.7033 12.9391 24.6916 12.9391 24.6773C12.9391 24.663 12.9156 24.6512 12.8869 24.6512C12.8582 24.6512 12.8348 24.6395 12.8348 24.6252C12.8348 24.6109 12.8139 24.5992 12.7884 24.5992C12.7628 24.5992 12.725 24.5758 12.7043 24.5472C12.6836 24.5185 12.6458 24.4951 12.6203 24.4951C12.5948 24.4951 12.5739 24.4834 12.5739 24.4691C12.5739 24.4548 12.5504 24.4431 12.5217 24.4431C12.493 24.4431 12.4696 24.4314 12.4696 24.417C12.4696 24.4027 12.4487 24.391 12.4231 24.391C12.3976 24.391 12.3598 24.3676 12.3391 24.339C12.3184 24.3103 12.2806 24.2869 12.2551 24.2869C12.2296 24.2869 12.2087 24.2752 12.2087 24.2609C12.2087 24.2466 12.1852 24.2349 12.1565 24.2349C12.1278 24.2349 12.1043 24.2232 12.1043 24.2089C12.1043 24.1945 12.0834 24.1828 12.0579 24.1828C12.0324 24.1828 11.9946 24.1594 11.9739 24.1308C11.9532 24.1022 11.9154 24.0787 11.8899 24.0787C11.8644 24.0787 11.8435 24.067 11.8435 24.0527C11.8435 24.0384 11.82 24.0267 11.7913 24.0267C11.7626 24.0267 11.7391 24.015 11.7391 24.0007C11.7391 23.9864 11.7182 23.9746 11.6927 23.9746C11.6672 23.9746 11.6294 23.9512 11.6087 23.9226C11.588 23.894 11.5502 23.8706 11.5247 23.8706C11.4992 23.8706 11.4783 23.8588 11.4783 23.8445C11.4783 23.8302 11.4548 23.8185 11.4261 23.8185C11.3974 23.8185 11.3739 23.8068 11.3739 23.7925C11.3739 23.7782 11.353 23.7665 11.3275 23.7665C11.302 23.7665 11.2642 23.743 11.2435 23.7144C11.2228 23.6858 11.185 23.6624 11.1594 23.6624C11.1339 23.6624 11.113 23.6507 11.113 23.6363C11.113 23.622 11.0896 23.6103 11.0609 23.6103C11.0322 23.6103 11.0087 23.5986 11.0087 23.5843C11.0087 23.57 10.9878 23.5583 10.9623 23.5583C10.9367 23.5583 10.8989 23.5349 10.8783 23.5062C10.8576 23.4776 10.8198 23.4542 10.7942 23.4542C10.7687 23.4542 10.7478 23.4425 10.7478 23.4282C10.7478 23.4138 10.7243 23.4021 10.6957 23.4021C10.667 23.4021 10.6435 23.3904 10.6435 23.3761C10.6435 23.3618 10.6226 23.3501 10.5971 23.3501C10.5715 23.3501 10.5337 23.3267 10.513 23.298C10.4924 23.2694 10.4546 23.246 10.429 23.246C10.4035 23.246 10.3826 23.2343 10.3826 23.22C10.3826 23.2057 10.3591 23.194 10.3304 23.194C10.3017 23.194 10.2783 23.1822 10.2783 23.1679C10.2783 23.1536 10.2574 23.1419 10.2319 23.1419C10.2063 23.1419 10.1685 23.1185 10.1478 23.0899C10.1271 23.0612 10.0893 23.0378 10.0638 23.0378C10.0383 23.0378 10.0174 23.0261 10.0174 23.0118C10.0174 22.9975 9.99392 22.9858 9.96522 22.9858C9.93653 22.9858 9.91305 22.9741 9.91305 22.9597C9.91305 22.9454 9.89215 22.9337 9.86664 22.9337C9.8411 22.9337 9.8033 22.9103 9.78261 22.8817C9.76193 22.853 9.72413 22.8296 9.69859 22.8296C9.67307 22.8296 9.65218 22.8179 9.65218 22.8036C9.65218 22.7893 9.6287 22.7776 9.60001 22.7776C9.57131 22.7776 9.54783 22.7659 9.54783 22.7516C9.54783 22.7372 9.52694 22.7255 9.50142 22.7255C9.47589 22.7255 9.43809 22.7021 9.4174 22.6735C9.39671 22.6449 9.35891 22.6214 9.33337 22.6214C9.30786 22.6214 9.28696 22.6097 9.28696 22.5954C9.28696 22.5811 9.26349 22.5694 9.23479 22.5694C9.2061 22.5694 9.18262 22.5577 9.18262 22.5434C9.18262 22.5291 9.16172 22.5173 9.13621 22.5173C9.11067 22.5173 9.07287 22.4939 9.05218 22.4653C9.0315 22.4367 8.9937 22.4133 8.96816 22.4133C8.94264 22.4133 8.92175 22.4015 8.92175 22.3872C8.92175 22.3729 8.89827 22.3612 8.86958 22.3612C8.84088 22.3612 8.8174 22.3495 8.8174 22.3352C8.8174 22.3209 8.79651 22.3092 8.77099 22.3092C8.74546 22.3092 8.70766 22.2857 8.68697 22.2571C8.66628 22.2285 8.62848 22.2051 8.60294 22.2051C8.57743 22.2051 8.55653 22.1934 8.55653 22.179C8.55653 22.1647 8.53306 22.153 8.50436 22.153C8.47567 22.153 8.45219 22.1413 8.45219 22.127C8.45219 22.1127 8.43129 22.101 8.40578 22.101C8.38024 22.101 8.34244 22.0776 8.32175 22.0489C8.30107 22.0203 8.26327 21.9969 8.23773 21.9969C8.21221 21.9969 8.19132 21.9852 8.19132 21.9709C8.19132 21.9565 8.16784 21.9448 8.13915 21.9448C8.11045 21.9448 8.08697 21.9331 8.08697 21.9188C8.08697 21.9045 8.06608 21.8928 8.04056 21.8928C8.01503 21.8928 7.97723 21.8694 7.95654 21.8407C7.93585 21.8121 7.89805 21.7887 7.87251 21.7887C7.847 21.7887 7.8261 21.777 7.8261 21.7627C7.8261 21.7484 7.80263 21.7367 7.77393 21.7367C7.74524 21.7367 7.72176 21.7249 7.72176 21.7106C7.72176 21.6963 7.70086 21.6846 7.67535 21.6846C7.64981 21.6846 7.61201 21.6612 7.59132 21.6326C7.57064 21.6039 7.53284 21.5805 7.5073 21.5805C7.48179 21.5805 7.46089 21.5688 7.46089 21.5545C7.46089 21.5402 7.43741 21.5285 7.40872 21.5285C7.38002 21.5285 7.35654 21.5168 7.35654 21.5024C7.35654 21.4881 7.33565 21.4764 7.31013 21.4764C7.28459 21.4764 7.2468 21.453 7.22611 21.4244C7.20542 21.3958 7.16762 21.3723 7.14208 21.3723C7.11657 21.3723 7.09567 21.3606 7.09567 21.3463C7.09567 21.332 7.0722 21.3203 7.0435 21.3203C7.01481 21.3203 6.99133 21.3086 6.99133 21.2943C6.99133 21.2799 6.96785 21.2682 6.93915 21.2682C6.88719 21.2682 6.88698 21.2509 6.88698 16.8443C6.88698 12.6207 6.88909 12.4204 6.93339 12.4204C6.95893 12.4204 6.99673 12.4438 7.01741 12.4724ZM23.2695 12.5505C23.2695 12.6221 23.2577 12.6806 23.2434 12.6806C23.229 12.6806 23.2173 12.7392 23.2173 12.8107C23.2173 12.8823 23.229 12.9408 23.2434 12.9408C23.2592 12.9408 23.2695 13.0536 23.2695 13.2271C23.2695 13.4006 23.2592 13.5133 23.2434 13.5133C23.2261 13.5133 23.2173 14.8194 23.2173 17.3796C23.2173 21.4935 23.2224 21.3203 23.1018 21.3203C23.0792 21.3203 23.0608 21.332 23.0608 21.3463C23.0608 21.3606 23.0373 21.3723 23.0086 21.3723C22.9799 21.3723 22.9564 21.384 22.9564 21.3984C22.9564 21.4127 22.9355 21.4244 22.91 21.4244C22.8845 21.4244 22.8467 21.4478 22.826 21.4764C22.8053 21.505 22.7675 21.5285 22.742 21.5285C22.7165 21.5285 22.6956 21.5402 22.6956 21.5545C22.6956 21.5688 22.6747 21.5805 22.6492 21.5805C22.6236 21.5805 22.5858 21.6039 22.5651 21.6326C22.5445 21.6612 22.5067 21.6846 22.4811 21.6846C22.4556 21.6846 22.4347 21.6963 22.4347 21.7106C22.4347 21.7249 22.4112 21.7367 22.3825 21.7367C22.3538 21.7367 22.3304 21.7484 22.3304 21.7627C22.3304 21.777 22.3095 21.7887 22.284 21.7887C22.2584 21.7887 22.2206 21.8121 22.1999 21.8407C22.1792 21.8694 22.1414 21.8928 22.1159 21.8928C22.0904 21.8928 22.0695 21.9045 22.0695 21.9188C22.0695 21.9331 22.046 21.9448 22.0173 21.9448C21.9886 21.9448 21.9651 21.9565 21.9651 21.9709C21.9651 21.9852 21.9442 21.9969 21.9187 21.9969C21.8932 21.9969 21.8554 22.0203 21.8347 22.0489C21.814 22.0776 21.7762 22.101 21.7507 22.101C21.7252 22.101 21.7043 22.1127 21.7043 22.127C21.7043 22.1413 21.6834 22.153 21.6579 22.153C21.6323 22.153 21.5945 22.1764 21.5738 22.2051C21.5532 22.2337 21.5154 22.2571 21.4898 22.2571C21.4643 22.2571 21.4434 22.2688 21.4434 22.2831C21.4434 22.2975 21.4199 22.3092 21.3912 22.3092C21.3625 22.3092 21.3391 22.3209 21.3391 22.3352C21.3391 22.3495 21.3182 22.3612 21.2927 22.3612C21.2671 22.3612 21.2293 22.3846 21.2086 22.4133C21.1879 22.4419 21.1501 22.4653 21.1246 22.4653C21.0991 22.4653 21.0782 22.477 21.0782 22.4913C21.0782 22.5056 21.0547 22.5173 21.026 22.5173C20.9973 22.5173 20.9738 22.5291 20.9738 22.5434C20.9738 22.5577 20.953 22.5694 20.9274 22.5694C20.9019 22.5694 20.8641 22.5928 20.8434 22.6214C20.8227 22.6501 20.7849 22.6735 20.7594 22.6735C20.7339 22.6735 20.713 22.6852 20.713 22.6995C20.713 22.7138 20.6895 22.7255 20.6608 22.7255C20.6321 22.7255 20.6086 22.7372 20.6086 22.7516C20.6086 22.7659 20.5877 22.7776 20.5622 22.7776C20.5367 22.7776 20.4989 22.801 20.4782 22.8296C20.4575 22.8583 20.4197 22.8817 20.3942 22.8817C20.3687 22.8817 20.3478 22.8934 20.3478 22.9077C20.3478 22.922 20.3269 22.9337 20.3014 22.9337C20.2758 22.9337 20.238 22.9571 20.2173 22.9858C20.1966 23.0144 20.1588 23.0378 20.1333 23.0378C20.1078 23.0378 20.0869 23.0495 20.0869 23.0638C20.0869 23.0781 20.0634 23.0899 20.0347 23.0899C20.006 23.0899 19.9825 23.1016 19.9825 23.1159C19.9825 23.1302 19.9617 23.1419 19.9361 23.1419C19.9106 23.1419 19.8728 23.1653 19.8521 23.194C19.8314 23.2226 19.7936 23.246 19.7681 23.246C19.7426 23.246 19.7217 23.2577 19.7217 23.272C19.7217 23.2863 19.6982 23.298 19.6695 23.298C19.6408 23.298 19.6173 23.3098 19.6173 23.3241C19.6173 23.3384 19.5964 23.3501 19.5709 23.3501C19.5454 23.3501 19.5076 23.3735 19.4869 23.4021C19.4662 23.4308 19.4284 23.4542 19.4029 23.4542C19.3774 23.4542 19.3565 23.4659 19.3565 23.4802C19.3565 23.4945 19.333 23.5062 19.3043 23.5062C19.2756 23.5062 19.2521 23.5179 19.2521 23.5323C19.2521 23.5466 19.2312 23.5583 19.2057 23.5583C19.1802 23.5583 19.1424 23.5817 19.1217 23.6103C19.101 23.6389 19.0632 23.6624 19.0377 23.6624C19.0121 23.6624 18.9913 23.6741 18.9913 23.6884C18.9913 23.7027 18.9704 23.7144 18.9448 23.7144C18.9193 23.7144 18.8815 23.7378 18.8608 23.7665C18.8401 23.7951 18.8023 23.8185 18.7768 23.8185C18.7513 23.8185 18.7304 23.8302 18.7304 23.8445C18.7304 23.8588 18.7069 23.8706 18.6782 23.8706C18.6495 23.8706 18.626 23.8823 18.626 23.8966C18.626 23.9109 18.6051 23.9226 18.5796 23.9226C18.5541 23.9226 18.5163 23.946 18.4956 23.9746C18.4749 24.0033 18.4371 24.0267 18.4116 24.0267C18.3861 24.0267 18.3652 24.0384 18.3652 24.0527C18.3652 24.067 18.3417 24.0787 18.313 24.0787C18.2843 24.0787 18.2608 24.0904 18.2608 24.1048C18.2608 24.1191 18.2399 24.1308 18.2144 24.1308C18.1889 24.1308 18.1511 24.1542 18.1304 24.1828C18.1097 24.2115 18.0719 24.2349 18.0464 24.2349C18.0208 24.2349 18 24.2466 18 24.2609C18 24.2752 17.9765 24.2869 17.9478 24.2869C17.9191 24.2869 17.8956 24.2986 17.8956 24.3129C17.8956 24.3273 17.8747 24.339 17.8492 24.339C17.8237 24.339 17.7859 24.3624 17.7652 24.391C17.7445 24.4196 17.7067 24.4431 17.6811 24.4431C17.6556 24.4431 17.6347 24.4548 17.6347 24.4691C17.6347 24.4834 17.6138 24.4951 17.5883 24.4951C17.5628 24.4951 17.525 24.5185 17.5043 24.5472C17.4836 24.5758 17.4458 24.5992 17.4203 24.5992C17.3948 24.5992 17.3739 24.6109 17.3739 24.6252C17.3739 24.6395 17.3504 24.6512 17.3217 24.6512C17.293 24.6512 17.2695 24.663 17.2695 24.6773C17.2695 24.6916 17.2486 24.7033 17.2231 24.7033C17.1976 24.7033 17.1598 24.7267 17.1391 24.7553C17.1184 24.784 17.0806 24.8074 17.0551 24.8074C17.0295 24.8074 17.0087 24.8191 17.0087 24.8334C17.0087 24.8477 16.9852 24.8594 16.9565 24.8594C16.9278 24.8594 16.9043 24.8711 16.9043 24.8855C16.9043 24.8998 16.8834 24.9115 16.8579 24.9115C16.8324 24.9115 16.7946 24.9349 16.7739 24.9635C16.7532 24.9921 16.7154 25.0156 16.6898 25.0156C16.6643 25.0156 16.6434 25.0273 16.6434 25.0416C16.6434 25.0559 16.62 25.0676 16.5913 25.0676C16.5626 25.0676 16.5391 25.0793 16.5391 25.0936C16.5391 25.108 16.5182 25.1197 16.4927 25.1197C16.4671 25.1197 16.4293 25.1431 16.4087 25.1717C16.388 25.2003 16.3502 25.2238 16.3246 25.2238C16.2991 25.2238 16.2782 25.2355 16.2782 25.2498C16.2782 25.2641 16.2573 25.2758 16.2318 25.2758C16.2063 25.2758 16.1685 25.2992 16.1478 25.3278C16.1271 25.3565 16.0893 25.3799 16.0638 25.3799C16.0383 25.3799 16.0174 25.3916 16.0174 25.4059C16.0174 25.4202 15.9939 25.4319 15.9652 25.4319C15.9365 25.4319 15.913 25.4437 15.913 25.458C15.913 25.4723 15.8921 25.484 15.8666 25.484C15.8411 25.484 15.8033 25.5074 15.7826 25.536C15.7619 25.5647 15.7241 25.5881 15.6985 25.5881C15.673 25.5881 15.6521 25.5998 15.6521 25.6141C15.6521 25.6284 15.6287 25.6401 15.6 25.6401C15.548 25.6401 15.5478 25.6228 15.5478 21.2682C15.5478 17.0945 15.5499 16.8964 15.5942 16.8964C15.6197 16.8964 15.6575 16.8729 15.6782 16.8443C15.6989 16.8157 15.7367 16.7923 15.7623 16.7923C15.7878 16.7923 15.8087 16.7805 15.8087 16.7662C15.8087 16.7519 15.8296 16.7402 15.8551 16.7402C15.8806 16.7402 15.9184 16.7168 15.9391 16.6882C15.9598 16.6595 15.9976 16.6361 16.0231 16.6361C16.0486 16.6361 16.0695 16.6244 16.0695 16.6101C16.0695 16.5958 16.0904 16.5841 16.1159 16.5841C16.1415 16.5841 16.1793 16.5607 16.2 16.532C16.2207 16.5034 16.2585 16.48 16.284 16.48C16.3095 16.48 16.3304 16.4683 16.3304 16.454C16.3304 16.4396 16.3539 16.4279 16.3826 16.4279C16.4113 16.4279 16.4347 16.4162 16.4347 16.4019C16.4347 16.3876 16.4556 16.3759 16.4812 16.3759C16.5067 16.3759 16.5445 16.3525 16.5652 16.3238C16.5859 16.2952 16.6237 16.2718 16.6492 16.2718C16.6747 16.2718 16.6956 16.2601 16.6956 16.2458C16.6956 16.2315 16.7165 16.2198 16.742 16.2198C16.7676 16.2198 16.8054 16.1963 16.826 16.1677C16.8467 16.1391 16.8845 16.1157 16.9101 16.1157C16.9356 16.1157 16.9565 16.1039 16.9565 16.0896C16.9565 16.0753 16.9774 16.0636 17.0029 16.0636C17.0284 16.0636 17.0662 16.0402 17.0869 16.0116C17.1076 15.9829 17.1454 15.9595 17.1709 15.9595C17.1965 15.9595 17.2173 15.9478 17.2173 15.9335C17.2173 15.9192 17.2408 15.9075 17.2695 15.9075C17.2982 15.9075 17.3217 15.8958 17.3217 15.8815C17.3217 15.8671 17.3426 15.8554 17.3681 15.8554C17.3936 15.8554 17.4314 15.832 17.4521 15.8034C17.4728 15.7748 17.5106 15.7513 17.5362 15.7513C17.5617 15.7513 17.5826 15.7396 17.5826 15.7253C17.5826 15.711 17.6035 15.6993 17.629 15.6993C17.6545 15.6993 17.6923 15.6759 17.713 15.6472C17.7337 15.6186 17.7715 15.5952 17.797 15.5952C17.8225 15.5952 17.8434 15.5835 17.8434 15.5692C17.8434 15.5549 17.8643 15.5431 17.8898 15.5431C17.9154 15.5431 17.9532 15.5197 17.9739 15.4911C17.9946 15.4625 18.0324 15.4391 18.0579 15.4391C18.0834 15.4391 18.1043 15.4273 18.1043 15.413C18.1043 15.3987 18.1252 15.387 18.1507 15.387C18.1762 15.387 18.214 15.3636 18.2347 15.335C18.2554 15.3063 18.2932 15.2829 18.3188 15.2829C18.3443 15.2829 18.3652 15.2712 18.3652 15.2569C18.3652 15.2426 18.3886 15.2309 18.4173 15.2309C18.446 15.2309 18.4695 15.2192 18.4695 15.2048C18.4695 15.1905 18.4904 15.1788 18.5159 15.1788C18.5415 15.1788 18.5793 15.1554 18.5999 15.1268C18.6206 15.0982 18.6584 15.0747 18.684 15.0747C18.7095 15.0747 18.7304 15.063 18.7304 15.0487C18.7304 15.0344 18.7513 15.0227 18.7768 15.0227C18.8023 15.0227 18.8401 14.9993 18.8608 14.9706C18.8815 14.942 18.9193 14.9186 18.9448 14.9186C18.9704 14.9186 18.9913 14.9069 18.9913 14.8926C18.9913 14.8783 19.0121 14.8665 19.0377 14.8665C19.0632 14.8665 19.101 14.8431 19.1217 14.8145C19.1424 14.7859 19.1802 14.7625 19.2057 14.7625C19.2312 14.7625 19.2521 14.7507 19.2521 14.7364C19.2521 14.7221 19.2756 14.7104 19.3043 14.7104C19.333 14.7104 19.3565 14.6987 19.3565 14.6844C19.3565 14.6701 19.3774 14.6584 19.4029 14.6584C19.4284 14.6584 19.4662 14.6349 19.4869 14.6063C19.5076 14.5777 19.5454 14.5543 19.5709 14.5543C19.5964 14.5543 19.6173 14.5426 19.6173 14.5282C19.6173 14.5139 19.6382 14.5022 19.6637 14.5022C19.6893 14.5022 19.7271 14.4788 19.7478 14.4502C19.7685 14.4216 19.8063 14.3981 19.8318 14.3981C19.8573 14.3981 19.8782 14.3864 19.8782 14.3721C19.8782 14.3578 19.8991 14.3461 19.9246 14.3461C19.9501 14.3461 19.9879 14.3227 20.0086 14.294C20.0293 14.2654 20.0671 14.242 20.0927 14.242C20.1182 14.242 20.1391 14.2303 20.1391 14.216C20.1391 14.2017 20.16 14.1899 20.1855 14.1899C20.211 14.1899 20.2488 14.1665 20.2695 14.1379C20.2902 14.1093 20.328 14.0859 20.3535 14.0859C20.379 14.0859 20.3999 14.0741 20.3999 14.0598C20.3999 14.0455 20.4234 14.0338 20.4521 14.0338C20.4808 14.0338 20.5043 14.0221 20.5043 14.0078C20.5043 13.9935 20.5252 13.9818 20.5507 13.9818C20.5762 13.9818 20.614 13.9583 20.6347 13.9297C20.6554 13.9011 20.6932 13.8777 20.7187 13.8777C20.7443 13.8777 20.7652 13.866 20.7652 13.8516C20.7652 13.8373 20.786 13.8256 20.8116 13.8256C20.8371 13.8256 20.8749 13.8022 20.8956 13.7736C20.9163 13.745 20.9541 13.7215 20.9796 13.7215C21.0051 13.7215 21.026 13.7098 21.026 13.6955C21.026 13.6812 21.0469 13.6695 21.0724 13.6695C21.098 13.6695 21.1358 13.6461 21.1565 13.6174C21.1771 13.5888 21.2149 13.5654 21.2405 13.5654C21.266 13.5654 21.2869 13.5537 21.2869 13.5394C21.2869 13.5251 21.3104 13.5133 21.3391 13.5133C21.3678 13.5133 21.3912 13.5016 21.3912 13.4873C21.3912 13.473 21.4121 13.4613 21.4376 13.4613C21.4632 13.4613 21.501 13.4379 21.5217 13.4093C21.5424 13.3806 21.5802 13.3572 21.6057 13.3572C21.6312 13.3572 21.6521 13.3455 21.6521 13.3312C21.6521 13.3169 21.673 13.3052 21.6985 13.3052C21.724 13.3052 21.7618 13.2817 21.7825 13.2531C21.8032 13.2245 21.841 13.2011 21.8666 13.2011C21.8921 13.2011 21.913 13.1894 21.913 13.175C21.913 13.1607 21.9339 13.149 21.9594 13.149C21.9849 13.149 22.0227 13.1256 22.0434 13.097C22.0641 13.0683 22.1019 13.0449 22.1274 13.0449C22.1529 13.0449 22.1738 13.0332 22.1738 13.0189C22.1738 13.0046 22.1947 12.9929 22.2202 12.9929C22.2458 12.9929 22.2836 12.9695 22.3043 12.9408C22.325 12.9122 22.3628 12.8888 22.3883 12.8888C22.4138 12.8888 22.4347 12.8771 22.4347 12.8628C22.4347 12.8485 22.4582 12.8367 22.4869 12.8367C22.5156 12.8367 22.5391 12.825 22.5391 12.8107C22.5391 12.7964 22.5599 12.7847 22.5855 12.7847C22.611 12.7847 22.6488 12.7613 22.6695 12.7327C22.6902 12.704 22.728 12.6806 22.7535 12.6806C22.779 12.6806 22.7999 12.6689 22.7999 12.6546C22.7999 12.6403 22.8208 12.6286 22.8463 12.6286C22.8719 12.6286 22.9097 12.6051 22.9304 12.5765C22.951 12.5479 22.9888 12.5245 23.0144 12.5245C23.0399 12.5245 23.0608 12.5128 23.0608 12.4984C23.0608 12.4841 23.0843 12.4724 23.113 12.4724C23.1417 12.4724 23.1651 12.4607 23.1651 12.4464C23.1651 12.4321 23.1886 12.4204 23.2173 12.4204C23.2625 12.4204 23.2695 12.4377 23.2695 12.5505Z" fill="black"/>
</svg>
