<svg width="30" height="30" viewBox="0 0 30 30" fill="none" xmlns="http://www.w3.org/2000/svg">
<path fill-rule="evenodd" clip-rule="evenodd" d="M10.8585 5.02358C10.8585 5.0367 10.7956 5.04717 10.717 5.04717C10.6384 5.04717 10.5755 5.05764 10.5755 5.07075C10.5755 5.08373 10.533 5.09434 10.4811 5.09434C10.4292 5.09434 10.3868 5.10495 10.3868 5.11792C10.3868 5.1309 10.3656 5.14151 10.3396 5.14151C10.3137 5.14151 10.2925 5.15212 10.2925 5.16509C10.2925 5.17807 10.2606 5.18868 10.2217 5.18868C10.1828 5.18868 10.1509 5.19929 10.1509 5.21226C10.1509 5.22524 10.1321 5.23585 10.109 5.23585C10.0859 5.23585 10.0517 5.25708 10.033 5.28302C10.0143 5.30896 9.98014 5.33019 9.95705 5.33019C9.93399 5.33019 9.91509 5.3408 9.91509 5.35377C9.91509 5.36675 9.89835 5.37736 9.87788 5.37736C9.85738 5.37736 9.79986 5.41981 9.75 5.4717C9.70014 5.52358 9.64743 5.56604 9.63285 5.56604C9.59844 5.56604 9.49057 5.67392 9.49057 5.70833C9.49057 5.7229 9.44811 5.77561 9.39623 5.82547C9.34434 5.87533 9.30189 5.93052 9.30189 5.94814C9.30189 5.96575 9.28066 5.99545 9.25472 6.01415C9.22877 6.03285 9.20755 6.06703 9.20755 6.09012C9.20755 6.11318 9.19693 6.13208 9.18396 6.13208C9.17099 6.13208 9.16038 6.1533 9.16038 6.17925C9.16038 6.20519 9.14976 6.22642 9.13679 6.22642C9.12382 6.22642 9.11321 6.25825 9.11321 6.29717C9.11321 6.33608 9.10259 6.36792 9.08962 6.36792C9.07665 6.36792 9.06604 6.38915 9.06604 6.41509C9.06604 6.44104 9.05542 6.46226 9.04245 6.46226C9.02948 6.46226 9.01887 6.50472 9.01887 6.5566C9.01887 6.60849 9.00825 6.65094 8.99528 6.65094C8.98054 6.65094 8.9717 6.79245 8.9717 7.0283C8.9717 7.26415 8.98054 7.40566 8.99528 7.40566C9.00825 7.40566 9.01887 7.44811 9.01887 7.5C9.01887 7.55189 9.02948 7.59434 9.04245 7.59434C9.05542 7.59434 9.06604 7.62618 9.06604 7.66509C9.06604 7.70401 9.07665 7.73585 9.08962 7.73585C9.10259 7.73585 9.11321 7.75708 9.11321 7.78302C9.11321 7.80896 9.12382 7.83019 9.13679 7.83019C9.14976 7.83019 9.16038 7.85142 9.16038 7.87736C9.16038 7.9033 9.17099 7.92453 9.18396 7.92453C9.19693 7.92453 9.20755 7.94342 9.20755 7.96649C9.20755 7.98958 9.22877 8.02375 9.25472 8.04245C9.28066 8.06116 9.30189 8.09109 9.30189 8.10896C9.30189 8.12682 9.33373 8.1712 9.37264 8.20755C9.41156 8.24389 9.4434 8.28554 9.4434 8.30007C9.4434 8.33422 9.69366 8.58491 9.72776 8.58491C9.74203 8.58491 9.79448 8.62736 9.84434 8.67925C9.8942 8.73113 9.94939 8.77358 9.967 8.77358C9.98462 8.77358 10.0143 8.79481 10.033 8.82075C10.0517 8.8467 10.0859 8.86792 10.109 8.86792C10.1321 8.86792 10.1509 8.87854 10.1509 8.89151C10.1509 8.90448 10.1676 8.91509 10.188 8.91509C10.2238 8.91509 10.2925 8.96828 10.2925 8.99597C10.2925 9.00337 9.4434 9.00943 8.40566 9.00943C7.16351 9.00943 6.51887 9.0175 6.51887 9.03302C6.51887 9.04599 6.49764 9.0566 6.4717 9.0566C6.44575 9.0566 6.42453 9.06722 6.42453 9.08019C6.42453 9.09316 6.40837 9.10377 6.38863 9.10377C6.34193 9.10377 6.09434 9.35137 6.09434 9.39807C6.09434 9.41781 6.08373 9.43396 6.07075 9.43396C6.05778 9.43396 6.04717 9.45519 6.04717 9.48113C6.04717 9.50708 6.03656 9.5283 6.02358 9.5283C6.00802 9.5283 6 10.283 6 11.7453C6 13.2075 6.00802 13.9623 6.02358 13.9623C6.03656 13.9623 6.04717 13.9918 6.04717 14.0278C6.04717 14.0663 6.06665 14.1074 6.09434 14.1274C6.12028 14.1461 6.14151 14.1753 6.14151 14.1923C6.14151 14.2353 6.29705 14.3868 6.3412 14.3868C6.36108 14.3868 6.37736 14.3974 6.37736 14.4104C6.37736 14.4233 6.39858 14.434 6.42453 14.434C6.45047 14.434 6.4717 14.4446 6.4717 14.4575C6.4717 14.4705 6.50354 14.4811 6.54245 14.4811C6.58137 14.4811 6.61321 14.4917 6.61321 14.5047C6.61321 14.519 6.7154 14.5283 6.87264 14.5283H7.13208V19.4575C7.13208 22.728 7.14002 24.3868 7.15566 24.3868C7.16863 24.3868 7.17925 24.4186 7.17925 24.4575C7.17925 24.4965 7.18986 24.5283 7.20283 24.5283C7.2158 24.5283 7.22642 24.5495 7.22642 24.5755C7.22642 24.6014 7.23703 24.6226 7.25 24.6226C7.26297 24.6226 7.27358 24.6389 7.27358 24.6588C7.27358 24.7029 7.42507 24.8585 7.46807 24.8585C7.48509 24.8585 7.51432 24.8797 7.53302 24.9057C7.553 24.9333 7.59408 24.9528 7.63257 24.9528C7.66861 24.9528 7.69811 24.9634 7.69811 24.9764C7.69811 24.9921 10.0566 25 14.7264 25C19.3962 25 21.7547 24.9921 21.7547 24.9764C21.7547 24.9634 21.7759 24.9528 21.8019 24.9528C21.8278 24.9528 21.8491 24.9422 21.8491 24.9292C21.8491 24.9163 21.8652 24.9057 21.885 24.9057C21.9316 24.9057 22.1792 24.6581 22.1792 24.6114C22.1792 24.5916 22.1899 24.5755 22.2028 24.5755C22.2158 24.5755 22.2264 24.5542 22.2264 24.5283C22.2264 24.5024 22.237 24.4811 22.25 24.4811C22.263 24.4811 22.2736 24.4281 22.2736 24.3632C22.2736 24.2983 22.2842 24.2453 22.2972 24.2453C22.3128 24.2453 22.3208 22.6101 22.3208 19.3868V14.5283H22.5802C22.7374 14.5283 22.8396 14.519 22.8396 14.5047C22.8396 14.4917 22.8715 14.4811 22.9104 14.4811C22.9493 14.4811 22.9811 14.4705 22.9811 14.4575C22.9811 14.4446 22.9972 14.434 23.017 14.434C23.0636 14.434 23.3585 14.1391 23.3585 14.0924C23.3585 14.0727 23.3691 14.0566 23.3821 14.0566C23.395 14.0566 23.4057 14.0248 23.4057 13.9858C23.4057 13.9469 23.4163 13.9151 23.4292 13.9151C23.4448 13.9151 23.4528 13.184 23.4528 11.7689C23.4528 10.3538 23.4448 9.62264 23.4292 9.62264C23.4163 9.62264 23.4057 9.5908 23.4057 9.55189C23.4057 9.51297 23.395 9.48113 23.3821 9.48113C23.3691 9.48113 23.3585 9.45991 23.3585 9.43396C23.3585 9.40802 23.3479 9.38679 23.3349 9.38679C23.3219 9.38679 23.3113 9.37052 23.3113 9.35064C23.3113 9.30649 23.1598 9.15094 23.1168 9.15094C23.0998 9.15094 23.0706 9.12972 23.0519 9.10377C23.0319 9.07609 22.9908 9.0566 22.9523 9.0566C22.9163 9.0566 22.8868 9.04599 22.8868 9.03302C22.8868 9.0175 22.25 9.00943 21.0236 9.00943C19.9988 9.00943 19.1604 9.00337 19.1604 8.99597C19.1604 8.97016 19.228 8.91509 19.2596 8.91509C19.2771 8.91509 19.3068 8.89387 19.3255 8.86792C19.3442 8.84198 19.3741 8.82075 19.392 8.82075C19.4098 8.82075 19.4542 8.78892 19.4906 8.75C19.5269 8.71108 19.5684 8.67925 19.5829 8.67925C19.6196 8.67925 20.1038 8.19116 20.1038 8.15406C20.1038 8.13731 20.125 8.10833 20.1509 8.08962C20.1769 8.07092 20.1981 8.03675 20.1981 8.01366C20.1981 7.99059 20.2087 7.9717 20.2217 7.9717C20.2347 7.9717 20.2453 7.95047 20.2453 7.92453C20.2453 7.89858 20.2559 7.87736 20.2689 7.87736C20.2818 7.87736 20.2925 7.85613 20.2925 7.83019C20.2925 7.80425 20.3031 7.78302 20.316 7.78302C20.329 7.78302 20.3396 7.75118 20.3396 7.71226C20.3396 7.67335 20.3502 7.64151 20.3632 7.64151C20.3762 7.64151 20.3868 7.60967 20.3868 7.57075C20.3868 7.53184 20.3974 7.5 20.4104 7.5C20.4233 7.5 20.434 7.44693 20.434 7.38208C20.434 7.31722 20.4446 7.26415 20.4575 7.26415C20.4717 7.26415 20.4811 7.16981 20.4811 7.0283C20.4811 6.88679 20.4717 6.79245 20.4575 6.79245C20.4446 6.79245 20.434 6.73939 20.434 6.67453C20.434 6.60967 20.4233 6.5566 20.4104 6.5566C20.3974 6.5566 20.3868 6.52476 20.3868 6.48585C20.3868 6.44693 20.3762 6.41509 20.3632 6.41509C20.3502 6.41509 20.3396 6.38325 20.3396 6.34434C20.3396 6.30542 20.329 6.27358 20.316 6.27358C20.3031 6.27358 20.2925 6.25236 20.2925 6.22642C20.2925 6.20047 20.2818 6.17925 20.2689 6.17925C20.2559 6.17925 20.2453 6.15802 20.2453 6.13208C20.2453 6.10613 20.2347 6.08491 20.2217 6.08491C20.2087 6.08491 20.1981 6.06601 20.1981 6.04295C20.1981 6.01986 20.1769 5.98568 20.1509 5.96698C20.125 5.94828 20.1038 5.91927 20.1038 5.9025C20.1038 5.86276 19.6655 5.42453 19.6258 5.42453C19.609 5.42453 19.58 5.4033 19.5613 5.37736C19.5426 5.35142 19.5084 5.33019 19.4854 5.33019C19.4623 5.33019 19.4434 5.31958 19.4434 5.3066C19.4434 5.29363 19.4222 5.28302 19.3962 5.28302C19.3703 5.28302 19.3491 5.27241 19.3491 5.25943C19.3491 5.24646 19.3278 5.23585 19.3019 5.23585C19.2759 5.23585 19.2547 5.22524 19.2547 5.21226C19.2547 5.19929 19.2335 5.18868 19.2075 5.18868C19.1816 5.18868 19.1604 5.17807 19.1604 5.16509C19.1604 5.15212 19.1285 5.14151 19.0896 5.14151C19.0507 5.14151 19.0189 5.1309 19.0189 5.11792C19.0189 5.10495 18.987 5.09434 18.9481 5.09434C18.9092 5.09434 18.8774 5.08373 18.8774 5.07075C18.8774 5.05729 18.8066 5.04717 18.7123 5.04717C18.6179 5.04717 18.5472 5.03705 18.5472 5.02358C18.5472 5.00983 18.4686 5 18.3585 5C18.2484 5 18.1698 5.00983 18.1698 5.02358C18.1698 5.0367 18.1069 5.04717 18.0283 5.04717C17.9497 5.04717 17.8868 5.05764 17.8868 5.07075C17.8868 5.08373 17.8443 5.09434 17.7925 5.09434C17.7406 5.09434 17.6981 5.10495 17.6981 5.11792C17.6981 5.1309 17.6663 5.14151 17.6274 5.14151C17.5884 5.14151 17.5566 5.15212 17.5566 5.16509C17.5566 5.17807 17.5354 5.18868 17.5094 5.18868C17.4835 5.18868 17.4623 5.19929 17.4623 5.21226C17.4623 5.22524 17.4304 5.23585 17.3915 5.23585C17.3526 5.23585 17.3208 5.24646 17.3208 5.25943C17.3208 5.27241 17.2995 5.28302 17.2736 5.28302C17.2476 5.28302 17.2264 5.29363 17.2264 5.3066C17.2264 5.31958 17.2052 5.33019 17.1792 5.33019C17.1533 5.33019 17.1321 5.3408 17.1321 5.35377C17.1321 5.36675 17.1132 5.37736 17.0901 5.37736C17.067 5.37736 17.0329 5.39858 17.0142 5.42453C16.9954 5.45047 16.9613 5.4717 16.9382 5.4717C16.9151 5.4717 16.8962 5.48231 16.8962 5.49528C16.8962 5.50825 16.8773 5.51887 16.8543 5.51887C16.8312 5.51887 16.797 5.54009 16.7783 5.56604C16.7596 5.59198 16.7299 5.61321 16.7123 5.61321C16.6947 5.61321 16.6395 5.65566 16.5896 5.70755C16.5398 5.75943 16.4874 5.80189 16.4733 5.80189C16.4398 5.80189 15.8585 6.38321 15.8585 6.41672C15.8585 6.43083 15.816 6.48316 15.7642 6.53302C15.7123 6.58288 15.6698 6.63616 15.6698 6.65142C15.6698 6.6667 15.638 6.70894 15.5991 6.74528C15.5601 6.78163 15.5283 6.82601 15.5283 6.84387C15.5283 6.86175 15.5071 6.89167 15.4811 6.91038C15.4552 6.92908 15.434 6.96092 15.434 6.98113C15.434 7.00134 15.4127 7.03318 15.3868 7.05189C15.3608 7.07059 15.3396 7.10243 15.3396 7.12264C15.3396 7.14285 15.3184 7.17469 15.2925 7.1934C15.2665 7.2121 15.2453 7.24627 15.2453 7.26936C15.2453 7.29243 15.2347 7.31132 15.2217 7.31132C15.2087 7.31132 15.1981 7.33021 15.1981 7.35328C15.1981 7.37637 15.1769 7.41054 15.1509 7.42925C15.125 7.44795 15.1038 7.48212 15.1038 7.50521C15.1038 7.52828 15.0932 7.54717 15.0802 7.54717C15.0672 7.54717 15.0566 7.5684 15.0566 7.59434C15.0566 7.62028 15.046 7.64151 15.033 7.64151C15.02 7.64151 15.0094 7.66274 15.0094 7.68868C15.0094 7.71462 14.9988 7.73585 14.9858 7.73585C14.9729 7.73585 14.9623 7.75708 14.9623 7.78302C14.9623 7.80896 14.9517 7.83019 14.9387 7.83019C14.9257 7.83019 14.9151 7.85142 14.9151 7.87736C14.9151 7.9033 14.9045 7.92453 14.8915 7.92453C14.8785 7.92453 14.8679 7.94575 14.8679 7.9717C14.8679 7.99764 14.8573 8.01887 14.8443 8.01887C14.8314 8.01887 14.8208 8.04009 14.8208 8.06604C14.8208 8.09198 14.8101 8.11321 14.7972 8.11321C14.7842 8.11321 14.7736 8.12988 14.7736 8.15026C14.7736 8.18601 14.7204 8.25472 14.6927 8.25472C14.6853 8.25472 14.6792 8.23349 14.6792 8.20755C14.6792 8.1816 14.6686 8.16038 14.6557 8.16038C14.6427 8.16038 14.6321 8.13915 14.6321 8.11321C14.6321 8.08726 14.6215 8.06604 14.6085 8.06604C14.5955 8.06604 14.5849 8.04481 14.5849 8.01887C14.5849 7.99292 14.5743 7.9717 14.5613 7.9717C14.5483 7.9717 14.5377 7.95047 14.5377 7.92453C14.5377 7.89858 14.5271 7.87736 14.5142 7.87736C14.5012 7.87736 14.4906 7.85613 14.4906 7.83019C14.4906 7.80425 14.48 7.78302 14.467 7.78302C14.454 7.78302 14.4434 7.76179 14.4434 7.73585C14.4434 7.70991 14.4328 7.68868 14.4198 7.68868C14.4068 7.68868 14.3962 7.66745 14.3962 7.64151C14.3962 7.61557 14.3856 7.59434 14.3726 7.59434C14.3597 7.59434 14.3491 7.57545 14.3491 7.55238C14.3491 7.52929 14.3278 7.49512 14.3019 7.47642C14.2759 7.45771 14.2547 7.42354 14.2547 7.40045C14.2547 7.37738 14.2441 7.35849 14.2311 7.35849C14.2182 7.35849 14.2075 7.3396 14.2075 7.31653C14.2075 7.29344 14.1863 7.25927 14.1604 7.24057C14.1344 7.22186 14.1132 7.18769 14.1132 7.1646C14.1132 7.14153 14.1026 7.12264 14.0896 7.12264C14.0767 7.12264 14.066 7.10375 14.066 7.08068C14.066 7.05759 14.0448 7.02342 14.0189 7.00472C13.9929 6.98601 13.9717 6.95608 13.9717 6.93821C13.9717 6.92035 13.9399 6.87597 13.9009 6.83962C13.862 6.80328 13.8302 6.76083 13.8302 6.74528C13.8302 6.72974 13.7983 6.68729 13.7594 6.65094C13.7205 6.6146 13.6887 6.57259 13.6887 6.55762C13.6887 6.54267 13.625 6.4679 13.5472 6.39151C13.4693 6.31512 13.4057 6.24113 13.4057 6.2271C13.4057 6.19387 13.2024 5.99057 13.1691 5.99057C13.1551 5.99057 13.0811 5.92689 13.0047 5.84906C12.9283 5.77123 12.8536 5.70755 12.8386 5.70755C12.8236 5.70755 12.7816 5.67571 12.7453 5.63679C12.7089 5.59788 12.6646 5.56604 12.6467 5.56604C12.6288 5.56604 12.5989 5.54481 12.5802 5.51887C12.5615 5.49292 12.5273 5.4717 12.5042 5.4717C12.4812 5.4717 12.4623 5.46108 12.4623 5.44811C12.4623 5.43514 12.441 5.42453 12.4151 5.42453C12.3892 5.42453 12.3679 5.41392 12.3679 5.40094C12.3679 5.38797 12.3467 5.37736 12.3208 5.37736C12.2948 5.37736 12.2736 5.36675 12.2736 5.35377C12.2736 5.3408 12.2524 5.33019 12.2264 5.33019C12.2005 5.33019 12.1792 5.31958 12.1792 5.3066C12.1792 5.29363 12.158 5.28302 12.1321 5.28302C12.1061 5.28302 12.0849 5.27241 12.0849 5.25943C12.0849 5.24646 12.0637 5.23585 12.0377 5.23585C12.0118 5.23585 11.9906 5.22524 11.9906 5.21226C11.9906 5.19929 11.9587 5.18868 11.9198 5.18868C11.8809 5.18868 11.8491 5.17807 11.8491 5.16509C11.8491 5.15212 11.8172 5.14151 11.7783 5.14151C11.7394 5.14151 11.7075 5.1309 11.7075 5.11792C11.7075 5.10495 11.6651 5.09434 11.6132 5.09434C11.5613 5.09434 11.5189 5.08373 11.5189 5.07075C11.5189 5.05764 11.456 5.04717 11.3774 5.04717C11.2987 5.04717 11.2358 5.0367 11.2358 5.02358C11.2358 5.00983 11.1572 5 11.0472 5C10.9371 5 10.8585 5.00983 10.8585 5.02358ZM11.3302 5.96698C11.3302 5.97995 11.362 5.99057 11.4009 5.99057C11.4399 5.99057 11.4717 6.00118 11.4717 6.01415C11.4717 6.02712 11.5035 6.03774 11.5425 6.03774C11.5814 6.03774 11.6132 6.04835 11.6132 6.06132C11.6132 6.07429 11.6344 6.08491 11.6604 6.08491C11.6863 6.08491 11.7075 6.09552 11.7075 6.10849C11.7075 6.12146 11.7371 6.13208 11.7731 6.13208C11.8116 6.13208 11.8527 6.15156 11.8726 6.17925C11.8913 6.20519 11.9255 6.22642 11.9486 6.22642C11.9717 6.22642 11.9906 6.23703 11.9906 6.25C11.9906 6.26297 12.0095 6.27358 12.0325 6.27358C12.0556 6.27358 12.0898 6.29481 12.1085 6.32075C12.1272 6.3467 12.1569 6.36792 12.1745 6.36792C12.1921 6.36792 12.2473 6.41038 12.2972 6.46226C12.347 6.51415 12.3994 6.5566 12.4136 6.5566C12.4472 6.5566 12.8396 6.94901 12.8396 6.98264C12.8396 6.99682 12.8821 7.0492 12.934 7.09906C12.9858 7.14892 13.0283 7.20219 13.0283 7.21745C13.0283 7.23274 13.0601 7.27498 13.0991 7.31132C13.138 7.34767 13.1698 7.39205 13.1698 7.40991C13.1698 7.42778 13.191 7.45771 13.217 7.47642C13.2429 7.49512 13.2642 7.52696 13.2642 7.54717C13.2642 7.56738 13.2854 7.59922 13.3113 7.61792C13.3373 7.63663 13.3585 7.6708 13.3585 7.69389C13.3585 7.71696 13.3691 7.73585 13.3821 7.73585C13.395 7.73585 13.4057 7.75474 13.4057 7.77781C13.4057 7.8009 13.4269 7.83507 13.4528 7.85377C13.4788 7.87248 13.5 7.90665 13.5 7.92974C13.5 7.95281 13.5106 7.9717 13.5236 7.9717C13.5366 7.9717 13.5472 7.99292 13.5472 8.01887C13.5472 8.04481 13.5578 8.06604 13.5708 8.06604C13.5837 8.06604 13.5943 8.08726 13.5943 8.11321C13.5943 8.13915 13.605 8.16038 13.6179 8.16038C13.6309 8.16038 13.6415 8.1816 13.6415 8.20755C13.6415 8.23349 13.6521 8.25472 13.6651 8.25472C13.6781 8.25472 13.6887 8.27594 13.6887 8.30189C13.6887 8.32783 13.6993 8.34906 13.7123 8.34906C13.7252 8.34906 13.7358 8.37028 13.7358 8.39623C13.7358 8.42217 13.7465 8.4434 13.7594 8.4434C13.7724 8.4434 13.783 8.46462 13.783 8.49057C13.783 8.51651 13.7936 8.53774 13.8066 8.53774C13.8196 8.53774 13.8302 8.55896 13.8302 8.58491C13.8302 8.61085 13.8408 8.63208 13.8538 8.63208C13.8667 8.63208 13.8774 8.6533 13.8774 8.67925C13.8774 8.70519 13.888 8.72642 13.9009 8.72642C13.9139 8.72642 13.9245 8.74764 13.9245 8.77358C13.9245 8.79953 13.9351 8.82075 13.9481 8.82075C13.9611 8.82075 13.9717 8.83137 13.9717 8.84434C13.9717 8.85849 13.8774 8.86792 13.7358 8.86792C13.5943 8.86792 13.5 8.85849 13.5 8.84434C13.5 8.83005 13.3978 8.82075 13.2406 8.82075C13.0833 8.82075 12.9811 8.81146 12.9811 8.79717C12.9811 8.7837 12.9104 8.77358 12.816 8.77358C12.7217 8.77358 12.6509 8.76347 12.6509 8.75C12.6509 8.73689 12.588 8.72642 12.5094 8.72642C12.4308 8.72642 12.3679 8.71594 12.3679 8.70283C12.3679 8.68986 12.3149 8.67925 12.25 8.67925C12.1851 8.67925 12.1321 8.66863 12.1321 8.65566C12.1321 8.64269 12.0896 8.63208 12.0377 8.63208C11.9858 8.63208 11.9434 8.62146 11.9434 8.60849C11.9434 8.59552 11.9009 8.58491 11.8491 8.58491C11.7972 8.58491 11.7547 8.57429 11.7547 8.56132C11.7547 8.54835 11.7123 8.53774 11.6604 8.53774C11.6085 8.53774 11.566 8.52712 11.566 8.51415C11.566 8.50118 11.5342 8.49057 11.4953 8.49057C11.4564 8.49057 11.4245 8.47995 11.4245 8.46698C11.4245 8.45401 11.3927 8.4434 11.3538 8.4434C11.3149 8.4434 11.283 8.43278 11.283 8.41981C11.283 8.40684 11.2618 8.39623 11.2358 8.39623C11.2099 8.39623 11.1887 8.38561 11.1887 8.37264C11.1887 8.35967 11.1568 8.34906 11.1179 8.34906C11.079 8.34906 11.0472 8.33844 11.0472 8.32547C11.0472 8.3125 11.0259 8.30189 11 8.30189C10.9741 8.30189 10.9528 8.29127 10.9528 8.2783C10.9528 8.26533 10.9316 8.25472 10.9057 8.25472C10.8797 8.25472 10.8585 8.2441 10.8585 8.23113C10.8585 8.21816 10.8373 8.20755 10.8113 8.20755C10.7854 8.20755 10.7642 8.19693 10.7642 8.18396C10.7642 8.17099 10.7453 8.16038 10.7222 8.16038C10.6991 8.16038 10.6649 8.13915 10.6462 8.11321C10.6275 8.08726 10.5957 8.06604 10.5755 8.06604C10.5553 8.06604 10.5234 8.04481 10.5047 8.01887C10.486 7.99292 10.4569 7.9717 10.4401 7.9717C10.4002 7.9717 10.1038 7.67524 10.1038 7.63535C10.1038 7.61854 10.0825 7.58946 10.0566 7.57075C10.0307 7.55205 10.0094 7.51788 10.0094 7.49479C10.0094 7.47172 9.99882 7.45283 9.98585 7.45283C9.97288 7.45283 9.96226 7.4316 9.96226 7.40566C9.96226 7.37972 9.95165 7.35849 9.93868 7.35849C9.92571 7.35849 9.91509 7.31604 9.91509 7.26415C9.91509 7.21226 9.90448 7.16981 9.89151 7.16981C9.8784 7.16981 9.86792 7.10691 9.86792 7.0283C9.86792 6.94969 9.8784 6.88679 9.89151 6.88679C9.90448 6.88679 9.91509 6.84434 9.91509 6.79245C9.91509 6.74057 9.92571 6.69811 9.93868 6.69811C9.95165 6.69811 9.96226 6.67689 9.96226 6.65094C9.96226 6.625 9.97288 6.60377 9.98585 6.60377C9.99882 6.60377 10.0094 6.58488 10.0094 6.56182C10.0094 6.53873 10.0307 6.50455 10.0566 6.48585C10.0825 6.46715 10.1038 6.43792 10.1038 6.4209C10.1038 6.38302 10.257 6.22642 10.294 6.22642C10.3087 6.22642 10.3504 6.19458 10.3868 6.15566C10.4231 6.11675 10.4699 6.08491 10.4906 6.08491C10.5113 6.08491 10.5283 6.07429 10.5283 6.06132C10.5283 6.04835 10.5601 6.03774 10.5991 6.03774C10.638 6.03774 10.6698 6.02712 10.6698 6.01415C10.6698 6.00118 10.7017 5.99057 10.7406 5.99057C10.7795 5.99057 10.8113 5.97995 10.8113 5.96698C10.8113 5.95269 10.9135 5.9434 11.0708 5.9434C11.228 5.9434 11.3302 5.95269 11.3302 5.96698ZM18.6415 5.96698C18.6415 5.97995 18.6733 5.99057 18.7123 5.99057C18.7512 5.99057 18.783 6.00118 18.783 6.01415C18.783 6.02712 18.8042 6.03774 18.8302 6.03774C18.8561 6.03774 18.8774 6.04835 18.8774 6.06132C18.8774 6.07429 18.8986 6.08491 18.9245 6.08491C18.9505 6.08491 18.9717 6.09552 18.9717 6.10849C18.9717 6.12146 18.9878 6.13208 19.0075 6.13208C19.0541 6.13208 19.3962 6.47425 19.3962 6.52085C19.3962 6.54052 19.4068 6.5566 19.4198 6.5566C19.4328 6.5566 19.4434 6.57783 19.4434 6.60377C19.4434 6.62972 19.454 6.65094 19.467 6.65094C19.48 6.65094 19.4906 6.68278 19.4906 6.7217C19.4906 6.76061 19.5012 6.79245 19.5141 6.79245C19.5283 6.79245 19.5377 6.88679 19.5377 7.0283C19.5377 7.16981 19.5283 7.26415 19.5141 7.26415C19.5012 7.26415 19.4906 7.29599 19.4906 7.33491C19.4906 7.37382 19.48 7.40566 19.467 7.40566C19.454 7.40566 19.4434 7.42689 19.4434 7.45283C19.4434 7.47877 19.4328 7.5 19.4198 7.5C19.4068 7.5 19.3962 7.51696 19.3962 7.53771C19.3962 7.55844 19.3644 7.60517 19.3255 7.64151C19.2866 7.67785 19.2547 7.72002 19.2547 7.73521C19.2547 7.77061 19.1954 7.83019 19.1602 7.83019C19.1453 7.83019 19.0923 7.87264 19.0425 7.92453C18.9926 7.97642 18.9374 8.01887 18.9198 8.01887C18.9022 8.01887 18.8725 8.04009 18.8538 8.06604C18.8351 8.09198 18.8032 8.11321 18.783 8.11321C18.7628 8.11321 18.731 8.13443 18.7123 8.16038C18.6936 8.18632 18.6594 8.20755 18.6363 8.20755C18.6132 8.20755 18.5943 8.21816 18.5943 8.23113C18.5943 8.2441 18.5731 8.25472 18.5472 8.25472C18.5212 8.25472 18.5 8.26533 18.5 8.2783C18.5 8.29127 18.4682 8.30189 18.4292 8.30189C18.3903 8.30189 18.3585 8.3125 18.3585 8.32547C18.3585 8.33844 18.3373 8.34906 18.3113 8.34906C18.2854 8.34906 18.2642 8.35967 18.2642 8.37264C18.2642 8.38561 18.2323 8.39623 18.1934 8.39623C18.1545 8.39623 18.1226 8.40684 18.1226 8.41981C18.1226 8.43278 18.1014 8.4434 18.0755 8.4434C18.0495 8.4434 18.0283 8.45401 18.0283 8.46698C18.0283 8.47995 17.9858 8.49057 17.934 8.49057C17.8821 8.49057 17.8396 8.50118 17.8396 8.51415C17.8396 8.52712 17.8078 8.53774 17.7689 8.53774C17.73 8.53774 17.6981 8.54835 17.6981 8.56132C17.6981 8.57429 17.6557 8.58491 17.6038 8.58491C17.5519 8.58491 17.5094 8.59552 17.5094 8.60849C17.5094 8.62146 17.467 8.63208 17.4151 8.63208C17.3632 8.63208 17.3208 8.64269 17.3208 8.65566C17.3208 8.66863 17.2677 8.67925 17.2028 8.67925C17.138 8.67925 17.0849 8.68986 17.0849 8.70283C17.0849 8.71594 17.022 8.72642 16.9434 8.72642C16.8648 8.72642 16.8019 8.73689 16.8019 8.75C16.8019 8.76375 16.7233 8.77358 16.6132 8.77358C16.5031 8.77358 16.4245 8.78342 16.4245 8.79717C16.4245 8.81146 16.3223 8.82075 16.1651 8.82075C16.0079 8.82075 15.9057 8.83005 15.9057 8.84434C15.9057 8.85833 15.8192 8.86792 15.6934 8.86792C15.4969 8.86792 15.4811 8.86443 15.4811 8.82075C15.4811 8.79481 15.4917 8.77358 15.5047 8.77358C15.5177 8.77358 15.5283 8.75236 15.5283 8.72642C15.5283 8.70047 15.5389 8.67925 15.5519 8.67925C15.5649 8.67925 15.5755 8.65802 15.5755 8.63208C15.5755 8.60613 15.5861 8.58491 15.5991 8.58491C15.612 8.58491 15.6226 8.56368 15.6226 8.53774C15.6226 8.51179 15.6333 8.49057 15.6462 8.49057C15.6592 8.49057 15.6698 8.46934 15.6698 8.4434C15.6698 8.41745 15.6804 8.39623 15.6934 8.39623C15.7064 8.39623 15.717 8.375 15.717 8.34906C15.717 8.32311 15.7276 8.30189 15.7406 8.30189C15.7535 8.30189 15.7642 8.28066 15.7642 8.25472C15.7642 8.22877 15.7748 8.20755 15.7877 8.20755C15.8007 8.20755 15.8113 8.18632 15.8113 8.16038C15.8113 8.13443 15.8219 8.11321 15.8349 8.11321C15.8479 8.11321 15.8585 8.09198 15.8585 8.06604C15.8585 8.04009 15.8691 8.01887 15.8821 8.01887C15.895 8.01887 15.9057 7.99764 15.9057 7.9717C15.9057 7.94575 15.9163 7.92453 15.9292 7.92453C15.9422 7.92453 15.9528 7.90564 15.9528 7.88257C15.9528 7.85948 15.9741 7.82531 16 7.8066C16.0259 7.7879 16.0472 7.75606 16.0472 7.73585C16.0472 7.71564 16.0684 7.6838 16.0943 7.66509C16.1203 7.64639 16.1415 7.61455 16.1415 7.59434C16.1415 7.57413 16.1627 7.54229 16.1887 7.52358C16.2146 7.50488 16.2358 7.47304 16.2358 7.45283C16.2358 7.43262 16.2571 7.40078 16.283 7.38208C16.309 7.36337 16.3302 7.33368 16.3302 7.31606C16.3302 7.29844 16.3726 7.24325 16.4245 7.1934C16.4764 7.14354 16.5189 7.0912 16.5189 7.0771C16.5189 7.04328 17.1003 6.46226 17.1342 6.46226C17.1486 6.46226 17.1901 6.43042 17.2264 6.39151C17.2628 6.35259 17.3071 6.32075 17.325 6.32075C17.3429 6.32075 17.3728 6.29953 17.3915 6.27358C17.4102 6.24764 17.4444 6.22642 17.4675 6.22642C17.4905 6.22642 17.5094 6.2158 17.5094 6.20283C17.5094 6.18986 17.5307 6.17925 17.5566 6.17925C17.5825 6.17925 17.6038 6.16863 17.6038 6.15566C17.6038 6.14269 17.625 6.13208 17.6509 6.13208C17.6769 6.13208 17.6981 6.12146 17.6981 6.10849C17.6981 6.09552 17.7193 6.08491 17.7453 6.08491C17.7712 6.08491 17.7925 6.07429 17.7925 6.06132C17.7925 6.04835 17.8243 6.03774 17.8632 6.03774C17.9021 6.03774 17.934 6.02712 17.934 6.01415C17.934 6.00118 17.9764 5.99057 18.0283 5.99057C18.0802 5.99057 18.1226 5.97995 18.1226 5.96698C18.1226 5.95269 18.2248 5.9434 18.3821 5.9434C18.5393 5.9434 18.6415 5.95269 18.6415 5.96698ZM12.3679 11.7453V13.5849H9.63208H6.89623V11.7453V9.90566H9.63208H12.3679V11.7453ZM16.1415 17.0047V24.1038H14.7264H13.3113V17.0047V9.90566H14.7264H16.1415V17.0047ZM22.5094 11.7453V13.5849H19.7972H17.0849V11.7453V9.90566H19.7972H22.5094V11.7453ZM12.3679 19.316V24.1038H10.2217H8.07547V19.316V14.5283H10.2217H12.3679V19.316ZM21.3774 19.316V24.1038H19.2311H17.0849V19.316V14.5283H19.2311H21.3774V19.316Z" fill="black"/>
</svg>
