<svg width="30" height="30" viewBox="0 0 30 30" fill="none" xmlns="http://www.w3.org/2000/svg">
<path fill-rule="evenodd" clip-rule="evenodd" d="M14.1193 6.01705V7.03409H14.0325C13.9848 7.03409 13.9458 7.04383 13.9458 7.05573C13.9458 7.06763 13.9067 7.07737 13.859 7.07737C13.8113 7.07737 13.7722 7.08711 13.7722 7.09901C13.7722 7.11091 13.7429 7.12065 13.7071 7.12065C13.6714 7.12065 13.6421 7.13039 13.6421 7.14229C13.6421 7.15419 13.6225 7.16393 13.5987 7.16393C13.5748 7.16393 13.5553 7.17367 13.5553 7.18557C13.5553 7.19747 13.5358 7.20721 13.5119 7.20721C13.4881 7.20721 13.4685 7.21694 13.4685 7.22885C13.4685 7.24075 13.449 7.25049 13.4252 7.25049C13.4013 7.25049 13.3818 7.26022 13.3818 7.27212C13.3818 7.28403 13.3622 7.29376 13.3384 7.29376C13.3145 7.29376 13.295 7.3035 13.295 7.3154C13.295 7.3273 13.2755 7.33704 13.2516 7.33704C13.2278 7.33704 13.2082 7.34678 13.2082 7.35868C13.2082 7.37058 13.1926 7.38032 13.1735 7.38032C13.1545 7.38032 13.1115 7.40953 13.0781 7.44524C13.0447 7.48094 13.0059 7.51016 12.9921 7.51016C12.9782 7.51016 12.9193 7.55884 12.8612 7.61835C12.803 7.67786 12.7451 7.72655 12.7324 7.72655C12.6991 7.72655 9.13015 11.2914 9.13015 11.3247C9.13015 11.3399 9.11063 11.3664 9.08677 11.3836C9.06291 11.4007 9.04338 11.4321 9.04338 11.4533C9.04338 11.4745 9.03362 11.4918 9.02169 11.4918C9.00729 11.4918 9 13.6918 9 18.0485C9 22.4052 9.00729 24.6052 9.02169 24.6052C9.03362 24.6052 9.04338 24.6247 9.04338 24.6485C9.04338 24.6723 9.05315 24.6917 9.06508 24.6917C9.07701 24.6917 9.08677 24.7068 9.08677 24.7252C9.08677 24.7685 9.18338 24.8649 9.22679 24.8649C9.24523 24.8649 9.2603 24.8746 9.2603 24.8865C9.2603 24.9007 9.83152 24.9081 10.9306 24.9081C12.0296 24.9081 12.6009 24.9155 12.6009 24.9298C12.6009 24.9417 12.6497 24.9514 12.7093 24.9514C12.769 24.9514 12.8178 24.9417 12.8178 24.9298C12.8178 24.9177 12.8756 24.9081 12.9479 24.9081C13.0202 24.9081 13.0781 24.9177 13.0781 24.9298C13.0781 24.9441 14.2061 24.9514 16.4186 24.9514C18.6312 24.9514 19.7592 24.9441 19.7592 24.9298C19.7592 24.9179 19.7839 24.9081 19.814 24.9081C19.8753 24.9081 20.0629 24.7373 20.0629 24.6815C20.0629 24.6633 20.0726 24.6485 20.0846 24.6485C20.099 24.6485 20.1063 22.4413 20.1063 18.0701C20.1063 13.699 20.099 11.4918 20.0846 11.4918C20.0726 11.4918 20.0629 11.4745 20.0629 11.4533C20.0629 11.4321 20.0434 11.4007 20.0195 11.3836C19.9956 11.3664 19.9761 11.3399 19.9761 11.3247C19.9761 11.2916 16.4506 7.76983 16.4175 7.76983C16.4049 7.76983 16.3371 7.7114 16.2668 7.63999C16.1965 7.56858 16.1278 7.51016 16.114 7.51016C16.1002 7.51016 16.0616 7.48094 16.0282 7.44524C15.9948 7.40953 15.9518 7.38032 15.9327 7.38032C15.9136 7.38032 15.898 7.37058 15.898 7.35868C15.898 7.34678 15.8785 7.33704 15.8546 7.33704C15.8308 7.33704 15.8113 7.3273 15.8113 7.3154C15.8113 7.3035 15.7917 7.29376 15.7679 7.29376C15.744 7.29376 15.7245 7.28403 15.7245 7.27212C15.7245 7.26022 15.705 7.25049 15.6811 7.25049C15.6572 7.25049 15.6377 7.24075 15.6377 7.22885C15.6377 7.21694 15.6182 7.20721 15.5943 7.20721C15.5705 7.20721 15.551 7.19747 15.551 7.18557C15.551 7.17367 15.5314 7.16393 15.5076 7.16393C15.4837 7.16393 15.4642 7.15419 15.4642 7.14229C15.4642 7.13039 15.4349 7.12065 15.3991 7.12065C15.3633 7.12065 15.334 7.11091 15.334 7.09901C15.334 7.08711 15.295 7.07737 15.2473 7.07737C15.1996 7.07737 15.1605 7.06763 15.1605 7.05573C15.1605 7.04383 15.1215 7.03409 15.0737 7.03409H14.987V6.01705V5H14.5531H14.1193V6.01705ZM14.1193 8.64776C14.1193 9.40682 14.1182 9.41441 14.0063 9.41441C13.9783 9.41441 13.9413 9.43389 13.9241 9.45769C13.9069 9.48149 13.8801 9.50097 13.8647 9.50097C13.828 9.50097 13.5553 9.77298 13.5553 9.80957C13.5553 9.825 13.5358 9.85168 13.5119 9.86884C13.4881 9.886 13.4685 9.91735 13.4685 9.93854C13.4685 9.9597 13.4588 9.97703 13.4468 9.97703C13.4349 9.97703 13.4252 9.99651 13.4252 10.0203C13.4252 10.0441 13.4154 10.0636 13.4035 10.0636C13.3915 10.0636 13.3818 10.1025 13.3818 10.1501C13.3818 10.1978 13.372 10.2367 13.3601 10.2367C13.3467 10.2367 13.3384 10.3449 13.3384 10.518C13.3384 10.6911 13.3467 10.7993 13.3601 10.7993C13.372 10.7993 13.3818 10.8285 13.3818 10.8642C13.3818 10.8999 13.3915 10.9292 13.4035 10.9292C13.4154 10.9292 13.4252 10.9584 13.4252 10.9941C13.4252 11.0298 13.4349 11.059 13.4468 11.059C13.4588 11.059 13.4685 11.0746 13.4685 11.0936C13.4685 11.1126 13.4978 11.1555 13.5336 11.1888C13.5694 11.2222 13.5987 11.2605 13.5987 11.274C13.5987 11.3058 13.7417 11.4485 13.7736 11.4485C13.7871 11.4485 13.8256 11.4777 13.859 11.5134C13.8924 11.5491 13.9354 11.5783 13.9545 11.5783C13.9735 11.5783 13.9891 11.5881 13.9891 11.6C13.9891 11.6119 14.0087 11.6216 14.0325 11.6216C14.0564 11.6216 14.0759 11.6314 14.0759 11.6433C14.0759 11.6552 14.1052 11.6649 14.141 11.6649C14.1768 11.6649 14.2061 11.6746 14.2061 11.6865C14.2061 11.6984 14.2549 11.7082 14.3145 11.7082C14.3742 11.7082 14.423 11.7179 14.423 11.7298C14.423 11.7418 14.4808 11.7515 14.5531 11.7515C14.6254 11.7515 14.6833 11.7418 14.6833 11.7298C14.6833 11.7179 14.7321 11.7082 14.7917 11.7082C14.8514 11.7082 14.9002 11.6984 14.9002 11.6865C14.9002 11.6746 14.9295 11.6649 14.9653 11.6649C15.0011 11.6649 15.0304 11.6552 15.0304 11.6433C15.0304 11.6314 15.0499 11.6216 15.0737 11.6216C15.0976 11.6216 15.1171 11.6119 15.1171 11.6C15.1171 11.5881 15.1327 11.5783 15.1518 11.5783C15.1709 11.5783 15.2138 11.5491 15.2473 11.5134C15.2807 11.4777 15.3191 11.4485 15.3326 11.4485C15.3646 11.4485 15.5076 11.3058 15.5076 11.274C15.5076 11.2605 15.5369 11.2222 15.5727 11.1888C15.6084 11.1555 15.6377 11.1126 15.6377 11.0936C15.6377 11.0746 15.6475 11.059 15.6594 11.059C15.6713 11.059 15.6811 11.0298 15.6811 10.9941C15.6811 10.9584 15.6909 10.9292 15.7028 10.9292C15.7147 10.9292 15.7245 10.8999 15.7245 10.8642C15.7245 10.8285 15.7343 10.7993 15.7462 10.7993C15.7595 10.7993 15.7679 10.6911 15.7679 10.518C15.7679 10.3449 15.7595 10.2367 15.7462 10.2367C15.7343 10.2367 15.7245 10.1978 15.7245 10.1501C15.7245 10.1025 15.7147 10.0636 15.7028 10.0636C15.6909 10.0636 15.6811 10.0441 15.6811 10.0203C15.6811 9.99651 15.6713 9.97703 15.6594 9.97703C15.6475 9.97703 15.6377 9.9597 15.6377 9.93854C15.6377 9.91735 15.6182 9.886 15.5943 9.86884C15.5705 9.85168 15.551 9.825 15.551 9.80957C15.551 9.77298 15.2783 9.50097 15.2416 9.50097C15.2261 9.50097 15.1994 9.48149 15.1822 9.45769C15.165 9.43389 15.128 9.41441 15.0999 9.41441C14.9881 9.41441 14.987 9.40682 14.987 8.64776V7.94294H15.052C15.0878 7.94294 15.1171 7.95268 15.1171 7.96458C15.1171 7.97648 15.1366 7.98622 15.1605 7.98622C15.1844 7.98622 15.2039 7.99596 15.2039 8.00786C15.2039 8.01976 15.2234 8.0295 15.2473 8.0295C15.2711 8.0295 15.2907 8.03924 15.2907 8.05114C15.2907 8.06304 15.3102 8.07278 15.334 8.07278C15.3579 8.07278 15.3774 8.08252 15.3774 8.09442C15.3774 8.10632 15.3948 8.11606 15.416 8.11606C15.4373 8.11606 15.4687 8.13553 15.4859 8.15933C15.5031 8.18314 15.5304 8.20261 15.5466 8.20261C15.5628 8.20261 15.6136 8.24156 15.6594 8.28917C15.7053 8.33678 15.7533 8.37573 15.7662 8.37573C15.8028 8.37573 19.1952 11.769 19.1952 11.8055C19.1952 11.8234 19.205 11.838 19.2169 11.838C19.2299 11.838 19.2386 11.9246 19.2386 12.0544C19.2386 12.1842 19.2299 12.2708 19.2169 12.2708C19.205 12.2708 19.1952 12.3195 19.1952 12.379C19.1952 12.4385 19.205 12.4872 19.2169 12.4872C19.2304 12.4872 19.2386 12.6098 19.2386 12.8118C19.2386 13.0137 19.2304 13.1364 19.2169 13.1364C19.205 13.1364 19.1952 13.1851 19.1952 13.2446C19.1952 13.3041 19.205 13.3528 19.2169 13.3528C19.2304 13.3528 19.2386 13.4754 19.2386 13.6774C19.2386 13.8793 19.2304 14.0019 19.2169 14.0019C19.205 14.0019 19.1952 14.0506 19.1952 14.1101C19.1952 14.1696 19.205 14.2183 19.2169 14.2183C19.2304 14.2183 19.2386 14.341 19.2386 14.5429C19.2386 14.7449 19.2304 14.8675 19.2169 14.8675C19.205 14.8675 19.1952 14.9162 19.1952 14.9757C19.1952 15.0352 19.205 15.0839 19.2169 15.0839C19.2304 15.0839 19.2386 15.2065 19.2386 15.4085C19.2386 15.6105 19.2304 15.7331 19.2169 15.7331C19.205 15.7331 19.1952 15.7818 19.1952 15.8413C19.1952 15.9008 19.205 15.9495 19.2169 15.9495C19.2304 15.9495 19.2386 16.0721 19.2386 16.2741C19.2386 16.476 19.2304 16.5987 19.2169 16.5987C19.205 16.5987 19.1952 16.6473 19.1952 16.7069C19.1952 16.7664 19.205 16.815 19.2169 16.815C19.2304 16.815 19.2386 16.9377 19.2386 17.1396C19.2386 17.3416 19.2304 17.4642 19.2169 17.4642C19.205 17.4642 19.1952 17.5129 19.1952 17.5724C19.1952 17.6319 19.205 17.6806 19.2169 17.6806C19.2304 17.6806 19.2386 17.8032 19.2386 18.0052C19.2386 18.2072 19.2304 18.3298 19.2169 18.3298C19.205 18.3298 19.1952 18.3785 19.1952 18.438C19.1952 18.4975 19.205 18.5462 19.2169 18.5462C19.2304 18.5462 19.2386 18.6688 19.2386 18.8708C19.2386 19.0727 19.2304 19.1954 19.2169 19.1954C19.205 19.1954 19.1952 19.2441 19.1952 19.3036C19.1952 19.3631 19.205 19.4118 19.2169 19.4118C19.2304 19.4118 19.2386 19.5344 19.2386 19.7364C19.2386 19.9383 19.2304 20.0609 19.2169 20.0609C19.205 20.0609 19.1952 20.1096 19.1952 20.1691C19.1952 20.2286 19.205 20.2773 19.2169 20.2773C19.2304 20.2773 19.2386 20.4 19.2386 20.6019C19.2386 20.8039 19.2304 20.9265 19.2169 20.9265C19.205 20.9265 19.1952 20.9752 19.1952 21.0347C19.1952 21.0942 19.205 21.1429 19.2169 21.1429C19.2304 21.1429 19.2386 21.2655 19.2386 21.4675C19.2386 21.6695 19.2304 21.7921 19.2169 21.7921C19.205 21.7921 19.1952 21.8408 19.1952 21.9003C19.1952 21.9598 19.205 22.0085 19.2169 22.0085C19.2304 22.0085 19.2386 22.1311 19.2386 22.3331C19.2386 22.535 19.2304 22.6577 19.2169 22.6577C19.205 22.6577 19.1952 22.7063 19.1952 22.7658C19.1952 22.8254 19.205 22.874 19.2169 22.874C19.2304 22.874 19.2386 22.9967 19.2386 23.1986C19.2386 23.4006 19.2304 23.5232 19.2169 23.5232C19.205 23.5232 19.1952 23.5719 19.1952 23.6314C19.1952 23.6909 19.205 23.7396 19.2169 23.7396C19.2293 23.7396 19.2386 23.8045 19.2386 23.8911V24.0426H14.5841C10.5792 24.0426 9.92533 24.0383 9.89867 24.0116C9.8616 23.9747 9.85301 23.5232 9.88937 23.5232C9.9013 23.5232 9.91106 23.4745 9.91106 23.415C9.91106 23.3555 9.9013 23.3068 9.88937 23.3068C9.87588 23.3068 9.86768 23.1842 9.86768 22.9822C9.86768 22.7803 9.87588 22.6577 9.88937 22.6577C9.9013 22.6577 9.91106 22.609 9.91106 22.5495C9.91106 22.4899 9.9013 22.4413 9.88937 22.4413C9.87588 22.4413 9.86768 22.3186 9.86768 22.1167C9.86768 21.9147 9.87588 21.7921 9.88937 21.7921C9.9013 21.7921 9.91106 21.7434 9.91106 21.6839C9.91106 21.6244 9.9013 21.5757 9.88937 21.5757C9.87588 21.5757 9.86768 21.4531 9.86768 21.2511C9.86768 21.0491 9.87588 20.9265 9.88937 20.9265C9.9013 20.9265 9.91106 20.8778 9.91106 20.8183C9.91106 20.7588 9.9013 20.7101 9.88937 20.7101C9.87588 20.7101 9.86768 20.5875 9.86768 20.3855C9.86768 20.1836 9.87588 20.0609 9.88937 20.0609C9.9013 20.0609 9.91106 20.0123 9.91106 19.9527C9.91106 19.8932 9.9013 19.8445 9.88937 19.8445C9.87588 19.8445 9.86768 19.7219 9.86768 19.52C9.86768 19.318 9.87588 19.1954 9.88937 19.1954C9.9013 19.1954 9.91106 19.1467 9.91106 19.0872C9.91106 19.0277 9.9013 18.979 9.88937 18.979C9.87588 18.979 9.86768 18.8563 9.86768 18.6544C9.86768 18.4524 9.87588 18.3298 9.88937 18.3298C9.9013 18.3298 9.91106 18.2811 9.91106 18.2216C9.91106 18.1621 9.9013 18.1134 9.88937 18.1134C9.87588 18.1134 9.86768 17.9908 9.86768 17.7888C9.86768 17.5869 9.87588 17.4642 9.88937 17.4642C9.9013 17.4642 9.91106 17.4155 9.91106 17.356C9.91106 17.2965 9.9013 17.2478 9.88937 17.2478C9.87588 17.2478 9.86768 17.1252 9.86768 16.9232C9.86768 16.7213 9.87588 16.5987 9.88937 16.5987C9.9013 16.5987 9.91106 16.55 9.91106 16.4905C9.91106 16.4309 9.9013 16.3823 9.88937 16.3823C9.87588 16.3823 9.86768 16.2596 9.86768 16.0577C9.86768 15.8557 9.87588 15.7331 9.88937 15.7331C9.9013 15.7331 9.91106 15.6844 9.91106 15.6249C9.91106 15.5654 9.9013 15.5167 9.88937 15.5167C9.87588 15.5167 9.86768 15.3941 9.86768 15.1921C9.86768 14.9901 9.87588 14.8675 9.88937 14.8675C9.9013 14.8675 9.91106 14.8188 9.91106 14.7593C9.91106 14.6998 9.9013 14.6511 9.88937 14.6511C9.87588 14.6511 9.86768 14.5285 9.86768 14.3265C9.86768 14.1246 9.87588 14.0019 9.88937 14.0019C9.9013 14.0019 9.91106 13.9533 9.91106 13.8937C9.91106 13.8342 9.9013 13.7855 9.88937 13.7855C9.87588 13.7855 9.86768 13.6629 9.86768 13.461C9.86768 13.259 9.87588 13.1364 9.88937 13.1364C9.9013 13.1364 9.91106 13.0877 9.91106 13.0282C9.91106 12.9687 9.9013 12.92 9.88937 12.92C9.87588 12.92 9.86768 12.7973 9.86768 12.5954C9.86768 12.3934 9.87588 12.2708 9.88937 12.2708C9.9013 12.2708 9.91106 12.2221 9.91106 12.1626C9.91106 12.1031 9.9013 12.0544 9.88937 12.0544C9.87744 12.0544 9.86768 12.0057 9.86768 11.9462C9.86768 11.8867 9.87744 11.838 9.88937 11.838C9.9013 11.838 9.91106 11.8234 9.91106 11.8055C9.91106 11.769 13.3035 8.37573 13.3401 8.37573C13.3529 8.37573 13.401 8.33678 13.4468 8.28917C13.4927 8.24156 13.5435 8.20261 13.5597 8.20261C13.5759 8.20261 13.6032 8.18314 13.6204 8.15933C13.6376 8.13553 13.669 8.11606 13.6902 8.11606C13.7115 8.11606 13.7288 8.10632 13.7288 8.09442C13.7288 8.08252 13.7484 8.07278 13.7722 8.07278C13.7961 8.07278 13.8156 8.06304 13.8156 8.05114C13.8156 8.03924 13.8351 8.0295 13.859 8.0295C13.8829 8.0295 13.9024 8.01976 13.9024 8.00786C13.9024 7.99596 13.9219 7.98622 13.9458 7.98622C13.9696 7.98622 13.9891 7.97648 13.9891 7.96458C13.9891 7.95268 14.0184 7.94294 14.0542 7.94294H14.1193V8.64776ZM14.2928 14.8675V15.4301H14.1844C14.1247 15.4301 14.0759 15.4399 14.0759 15.4518C14.0759 15.4637 14.0369 15.4734 13.9891 15.4734C13.9414 15.4734 13.9024 15.4831 13.9024 15.4951C13.9024 15.507 13.8731 15.5167 13.8373 15.5167C13.8015 15.5167 13.7722 15.5264 13.7722 15.5383C13.7722 15.5502 13.7527 15.56 13.7288 15.56C13.705 15.56 13.6855 15.5697 13.6855 15.5816C13.6855 15.5935 13.6659 15.6032 13.6421 15.6032C13.6182 15.6032 13.5987 15.613 13.5987 15.6249C13.5987 15.6368 13.5813 15.6465 13.5601 15.6465C13.5389 15.6465 13.5074 15.666 13.4902 15.6898C13.473 15.7136 13.4463 15.7331 13.4309 15.7331C13.3914 15.7331 13.0781 16.0499 13.0781 16.0898C13.0781 16.1078 13.0683 16.1226 13.0564 16.1226C13.0445 16.1226 13.0347 16.1421 13.0347 16.1659C13.0347 16.1897 13.0249 16.2091 13.013 16.2091C13.0011 16.2091 12.9913 16.2286 12.9913 16.2524C12.9913 16.2762 12.9816 16.2957 12.9696 16.2957C12.9577 16.2957 12.9479 16.3249 12.9479 16.3606C12.9479 16.3963 12.9382 16.4255 12.9262 16.4255C12.9143 16.4255 12.9045 16.4742 12.9045 16.5337C12.9045 16.5932 12.8948 16.6419 12.8829 16.6419C12.8702 16.6419 12.8612 16.7141 12.8612 16.815C12.8612 16.916 12.8702 16.9882 12.8829 16.9882C12.8948 16.9882 12.9045 17.0368 12.9045 17.0964C12.9045 17.1559 12.9143 17.2046 12.9262 17.2046C12.9382 17.2046 12.9479 17.2338 12.9479 17.2695C12.9479 17.3052 12.9577 17.3344 12.9696 17.3344C12.9816 17.3344 12.9913 17.3539 12.9913 17.3777C12.9913 17.4015 13.0011 17.4209 13.013 17.4209C13.0249 17.4209 13.0347 17.4383 13.0347 17.4594C13.0347 17.4806 13.0542 17.512 13.0781 17.5291C13.1019 17.5463 13.1215 17.573 13.1215 17.5885C13.1215 17.6252 13.3506 17.8537 13.3874 17.8537C13.4029 17.8537 13.4296 17.8732 13.4468 17.897C13.464 17.9208 13.4955 17.9403 13.5167 17.9403C13.5379 17.9403 13.5553 17.95 13.5553 17.9619C13.5553 17.9738 13.5727 17.9836 13.5939 17.9836C13.6151 17.9836 13.6466 18.003 13.6638 18.0268C13.6821 18.0523 13.7199 18.0701 13.7553 18.0701C13.7885 18.0701 13.8156 18.0799 13.8156 18.0918C13.8156 18.1037 13.8351 18.1134 13.859 18.1134C13.8829 18.1134 13.9024 18.1231 13.9024 18.135C13.9024 18.1469 13.9219 18.1567 13.9458 18.1567C13.9696 18.1567 13.9891 18.1664 13.9891 18.1783C13.9891 18.1902 14.0184 18.2 14.0542 18.2C14.09 18.2 14.1193 18.2097 14.1193 18.2216C14.1193 18.2335 14.1486 18.2432 14.1844 18.2432C14.2202 18.2432 14.2494 18.253 14.2494 18.2649C14.2494 18.2768 14.269 18.2865 14.2928 18.2865C14.3167 18.2865 14.3362 18.2963 14.3362 18.3082C14.3362 18.3201 14.3655 18.3298 14.4013 18.3298C14.4371 18.3298 14.4664 18.3395 14.4664 18.3514C14.4664 18.3633 14.4956 18.3731 14.5314 18.3731C14.5672 18.3731 14.5965 18.3828 14.5965 18.3947C14.5965 18.4066 14.6258 18.4164 14.6616 18.4164C14.6974 18.4164 14.7267 18.4261 14.7267 18.438C14.7267 18.4499 14.756 18.4596 14.7917 18.4596C14.8275 18.4596 14.8568 18.4694 14.8568 18.4813C14.8568 18.4932 14.8763 18.5029 14.9002 18.5029C14.9241 18.5029 14.9436 18.5126 14.9436 18.5246C14.9436 18.5365 14.9631 18.5462 14.987 18.5462C15.0108 18.5462 15.0304 18.5559 15.0304 18.5678C15.0304 18.5797 15.0477 18.5895 15.0689 18.5895C15.0902 18.5895 15.1216 18.6089 15.1388 18.6327C15.156 18.6565 15.1833 18.676 15.1994 18.676C15.2371 18.676 15.2907 18.7294 15.2907 18.7671C15.2907 18.7832 15.3102 18.8103 15.334 18.8275C15.3595 18.8458 15.3774 18.8835 15.3774 18.9188C15.3774 18.9519 15.3872 18.979 15.3991 18.979C15.4121 18.979 15.4208 19.0655 15.4208 19.1954C15.4208 19.3252 15.4121 19.4118 15.3991 19.4118C15.3872 19.4118 15.3774 19.4388 15.3774 19.4719C15.3774 19.5072 15.3595 19.5449 15.334 19.5632C15.3102 19.5804 15.2907 19.6073 15.2907 19.6231C15.2907 19.6602 15.1927 19.758 15.1554 19.758C15.1396 19.758 15.1126 19.7775 15.0954 19.8013C15.0771 19.8267 15.0393 19.8445 15.0039 19.8445C14.9707 19.8445 14.9436 19.8543 14.9436 19.8662C14.9436 19.8781 14.9143 19.8878 14.8785 19.8878C14.8427 19.8878 14.8134 19.8976 14.8134 19.9095C14.8134 19.923 14.6761 19.9311 14.4447 19.9311C14.2133 19.9311 14.0759 19.923 14.0759 19.9095C14.0759 19.8976 14.0369 19.8878 13.9891 19.8878C13.9414 19.8878 13.9024 19.8781 13.9024 19.8662C13.9024 19.8543 13.8829 19.8445 13.859 19.8445C13.8351 19.8445 13.8156 19.8348 13.8156 19.8229C13.8156 19.811 13.7863 19.8013 13.7505 19.8013C13.7147 19.8013 13.6855 19.7915 13.6855 19.7796C13.6855 19.7677 13.6681 19.758 13.6469 19.758C13.6256 19.758 13.5942 19.7385 13.577 19.7147C13.5598 19.6909 13.5305 19.6714 13.5119 19.6714C13.4933 19.6714 13.464 19.652 13.4468 19.6282C13.4296 19.6044 13.4021 19.5849 13.3857 19.5849C13.3693 19.5849 13.3284 19.5557 13.295 19.52C13.2616 19.4843 13.2234 19.455 13.2101 19.455C13.1734 19.455 12.731 19.9044 12.731 19.9417C12.731 19.9597 12.7212 19.9744 12.7093 19.9744C12.6974 19.9744 12.6876 19.9939 12.6876 20.0177C12.6876 20.0427 12.7021 20.0609 12.7219 20.0609C12.7407 20.0609 12.7936 20.0999 12.8395 20.1475C12.8853 20.1951 12.9361 20.2341 12.9523 20.2341C12.9685 20.2341 12.9958 20.2535 13.013 20.2773C13.0302 20.3011 13.0595 20.3206 13.0781 20.3206C13.0967 20.3206 13.126 20.3401 13.1432 20.3639C13.1604 20.3877 13.1918 20.4072 13.213 20.4072C13.2342 20.4072 13.2516 20.4169 13.2516 20.4288C13.2516 20.4407 13.2711 20.4504 13.295 20.4504C13.3189 20.4504 13.3384 20.4602 13.3384 20.4721C13.3384 20.484 13.3677 20.4937 13.4035 20.4937C13.4393 20.4937 13.4685 20.5035 13.4685 20.5154C13.4685 20.5273 13.4978 20.537 13.5336 20.537C13.5694 20.537 13.5987 20.5467 13.5987 20.5586C13.5987 20.5705 13.628 20.5803 13.6638 20.5803C13.6996 20.5803 13.7288 20.59 13.7288 20.6019C13.7288 20.6138 13.7776 20.6236 13.8373 20.6236C13.897 20.6236 13.9458 20.6333 13.9458 20.6452C13.9458 20.6574 14.0077 20.6668 14.0883 20.6668C14.1829 20.6668 14.2413 20.6772 14.2618 20.6978C14.2871 20.7229 14.2928 20.8313 14.2928 21.282V21.8354H14.6616H15.0304V21.2604C15.0304 20.6225 15.0301 20.6236 15.1698 20.6236C15.2124 20.6236 15.2473 20.6138 15.2473 20.6019C15.2473 20.59 15.2863 20.5803 15.334 20.5803C15.3818 20.5803 15.4208 20.5705 15.4208 20.5586C15.4208 20.5467 15.4403 20.537 15.4642 20.537C15.4881 20.537 15.5076 20.5273 15.5076 20.5154C15.5076 20.5035 15.5271 20.4937 15.551 20.4937C15.5748 20.4937 15.5943 20.484 15.5943 20.4721C15.5943 20.4602 15.6139 20.4504 15.6377 20.4504C15.6616 20.4504 15.6811 20.4407 15.6811 20.4288C15.6811 20.4169 15.6985 20.4072 15.7197 20.4072C15.7409 20.4072 15.7724 20.3877 15.7896 20.3639C15.8068 20.3401 15.8335 20.3206 15.849 20.3206C15.8857 20.3206 16.1583 20.0486 16.1583 20.012C16.1583 19.9966 16.1779 19.9699 16.2017 19.9527C16.2256 19.9356 16.2451 19.9042 16.2451 19.883C16.2451 19.8619 16.2549 19.8445 16.2668 19.8445C16.2787 19.8445 16.2885 19.8251 16.2885 19.8013C16.2885 19.7775 16.2982 19.758 16.3102 19.758C16.3221 19.758 16.3319 19.7385 16.3319 19.7147C16.3319 19.6909 16.3416 19.6714 16.3536 19.6714C16.3655 19.6714 16.3753 19.6325 16.3753 19.5849C16.3753 19.5373 16.385 19.4983 16.3969 19.4983C16.4106 19.4983 16.4186 19.354 16.4186 19.1088C16.4186 18.8636 16.4106 18.7193 16.3969 18.7193C16.385 18.7193 16.3753 18.6901 16.3753 18.6544C16.3753 18.6187 16.3655 18.5895 16.3536 18.5895C16.3416 18.5895 16.3319 18.5624 16.3319 18.5293C16.3319 18.494 16.314 18.4563 16.2885 18.438C16.2646 18.4208 16.2451 18.3895 16.2451 18.3683C16.2451 18.3471 16.2353 18.3298 16.2234 18.3298C16.2115 18.3298 16.2017 18.315 16.2017 18.2969C16.2017 18.257 15.9318 17.9836 15.8924 17.9836C15.8769 17.9836 15.8502 17.9641 15.833 17.9403C15.8158 17.9165 15.7843 17.897 15.7631 17.897C15.7419 17.897 15.7245 17.8873 15.7245 17.8754C15.7245 17.8635 15.7071 17.8537 15.6859 17.8537C15.6647 17.8537 15.6332 17.8343 15.616 17.8105C15.5988 17.7867 15.5674 17.7672 15.5462 17.7672C15.525 17.7672 15.5076 17.7574 15.5076 17.7455C15.5076 17.7336 15.4783 17.7239 15.4425 17.7239C15.4067 17.7239 15.3774 17.7142 15.3774 17.7023C15.3774 17.6904 15.3579 17.6806 15.334 17.6806C15.3102 17.6806 15.2907 17.6709 15.2907 17.659C15.2907 17.6471 15.2614 17.6373 15.2256 17.6373C15.1898 17.6373 15.1605 17.6276 15.1605 17.6157C15.1605 17.6038 15.1312 17.5941 15.0954 17.5941C15.0596 17.5941 15.0304 17.5843 15.0304 17.5724C15.0304 17.5605 15.0011 17.5508 14.9653 17.5508C14.9295 17.5508 14.9002 17.541 14.9002 17.5291C14.9002 17.5172 14.8709 17.5075 14.8351 17.5075C14.7993 17.5075 14.7701 17.4978 14.7701 17.4859C14.7701 17.474 14.7408 17.4642 14.705 17.4642C14.6692 17.4642 14.6399 17.4545 14.6399 17.4426C14.6399 17.4307 14.6204 17.4209 14.5965 17.4209C14.5727 17.4209 14.5531 17.4112 14.5531 17.3993C14.5531 17.3874 14.5238 17.3777 14.4881 17.3777C14.4523 17.3777 14.423 17.3679 14.423 17.356C14.423 17.3441 14.4035 17.3344 14.3796 17.3344C14.3557 17.3344 14.3362 17.3247 14.3362 17.3127C14.3362 17.3008 14.3167 17.2911 14.2928 17.2911C14.269 17.2911 14.2494 17.2814 14.2494 17.2695C14.2494 17.2576 14.2299 17.2478 14.2061 17.2478C14.1822 17.2478 14.1627 17.2381 14.1627 17.2262C14.1627 17.2143 14.1477 17.2046 14.1294 17.2046C14.0862 17.2046 13.9458 17.0644 13.9458 17.0213C13.9458 17.0031 13.936 16.9882 13.9241 16.9882C13.9121 16.9882 13.9024 16.9395 13.9024 16.88C13.9024 16.8205 13.8926 16.7718 13.8807 16.7718C13.8688 16.7718 13.859 16.7523 13.859 16.7285C13.859 16.7047 13.8688 16.6852 13.8807 16.6852C13.8926 16.6852 13.9024 16.6463 13.9024 16.5987C13.9024 16.551 13.9121 16.5121 13.9241 16.5121C13.936 16.5121 13.9458 16.4972 13.9458 16.4791C13.9458 16.4361 14.1299 16.2524 14.173 16.2524C14.1912 16.2524 14.2061 16.2427 14.2061 16.2308C14.2061 16.2189 14.2256 16.2091 14.2494 16.2091C14.2733 16.2091 14.2928 16.1994 14.2928 16.1875C14.2928 16.1756 14.3416 16.1659 14.4013 16.1659C14.4609 16.1659 14.5097 16.1561 14.5097 16.1442C14.5097 16.1316 14.582 16.1226 14.6833 16.1226C14.7845 16.1226 14.8568 16.1316 14.8568 16.1442C14.8568 16.1563 14.9147 16.1659 14.987 16.1659C15.0593 16.1659 15.1171 16.1755 15.1171 16.1875C15.1171 16.1994 15.1464 16.2091 15.1822 16.2091C15.218 16.2091 15.2473 16.2189 15.2473 16.2308C15.2473 16.2427 15.2668 16.2524 15.2907 16.2524C15.3145 16.2524 15.334 16.2622 15.334 16.2741C15.334 16.286 15.3536 16.2957 15.3774 16.2957C15.4013 16.2957 15.4208 16.3054 15.4208 16.3173C15.4208 16.3292 15.4403 16.339 15.4642 16.339C15.4881 16.339 15.5076 16.3487 15.5076 16.3606C15.5076 16.3725 15.523 16.3823 15.5418 16.3823C15.5607 16.3823 15.6136 16.4212 15.6594 16.4688C15.7466 16.5594 15.8546 16.5888 15.8546 16.522C15.8546 16.5036 15.9327 16.4115 16.0282 16.3173C16.1236 16.2231 16.2017 16.1346 16.2017 16.1206C16.2017 16.1067 16.2221 16.0776 16.247 16.056L16.2923 16.0168L16.2152 15.9399C16.1728 15.8975 16.127 15.8629 16.1135 15.8629C16.1 15.8629 16.0616 15.8337 16.0282 15.798C15.9948 15.7623 15.9518 15.7331 15.9327 15.7331C15.9136 15.7331 15.898 15.7233 15.898 15.7114C15.898 15.6995 15.8785 15.6898 15.8546 15.6898C15.8308 15.6898 15.8113 15.6801 15.8113 15.6682C15.8113 15.6563 15.7917 15.6465 15.7679 15.6465C15.744 15.6465 15.7245 15.6368 15.7245 15.6249C15.7245 15.613 15.705 15.6032 15.6811 15.6032C15.6572 15.6032 15.6377 15.5935 15.6377 15.5816C15.6377 15.5697 15.6182 15.56 15.5943 15.56C15.5705 15.56 15.551 15.5502 15.551 15.5383C15.551 15.5264 15.5217 15.5167 15.4859 15.5167C15.4501 15.5167 15.4208 15.507 15.4208 15.4951C15.4208 15.4831 15.3818 15.4734 15.334 15.4734C15.2863 15.4734 15.2473 15.4637 15.2473 15.4518C15.2473 15.4399 15.1985 15.4301 15.1388 15.4301H15.0304V14.8675V14.3049H14.6616H14.2928V14.8675Z" fill="black"/>
</svg>
