<svg id="Layer_1" data-name="Layer 1" xmlns="http://www.w3.org/2000/svg" viewBox="0 0 400 400"><defs><style>.cls-1{fill:#231f20;}</style></defs><path class="cls-1" d="M400,199.82V242.4a12.23,12.23,0,0,1-11.13,13.26,10.29,10.29,0,0,1-1.24.05h-19.7a2.27,2.27,0,0,0-2.53,1.86,173,173,0,0,1-70,88.63,170.53,170.53,0,0,1-53.23,22.49,175.88,175.88,0,0,1-54.7,3.86,174.58,174.58,0,0,1-143.58-103c-1.87-4.13-3.33-8.38-4.93-12.51a1.85,1.85,0,0,0-2.09-1.6H18.7a14.9,14.9,0,0,1-8-1.73,12.11,12.11,0,0,1-6.25-11.18V159.9a14.89,14.89,0,0,1,1.59-8.65,12.12,12.12,0,0,1,10.65-6.39H36.53c1.33,0,2,0,2.39-1.6A171.81,171.81,0,0,1,217,27.49a163.17,163.17,0,0,1,33.93,6.38,173,173,0,0,1,113,105.27c1.86,5.05,1.86,5.05,7.32,5.05h15.17a13.31,13.31,0,0,1,13.31,13.31C399.69,171.61,400,186.51,400,199.82ZM359.1,144.06a166.34,166.34,0,0,0-313.92,0h66.53a3.61,3.61,0,0,0,2.4-1.06,107.26,107.26,0,0,1,23.69-26.62,105.13,105.13,0,0,1,147.57,18.08q2.82,3.61,5.33,7.47a3.06,3.06,0,0,0,2.93,1.46H359.5ZM45,255.58a166.61,166.61,0,0,0,314.19,0H293.09a3.55,3.55,0,0,0-2.39.93c-2.8,3.59-5.19,7.32-8.12,10.78a104.6,104.6,0,0,1-90.49,37.12,102.22,102.22,0,0,1-39.92-12.11A105.47,105.47,0,0,1,114.11,257a3.07,3.07,0,0,0-2.93-1.6H44.65Zm75.72-112H283.91a99.27,99.27,0,0,0-163.15,0ZM283.91,255.58H120.5a97.26,97.26,0,0,0,85.16,42.85A97,97,0,0,0,283.91,255.58Zm22.49-67.87h0a309.31,309.31,0,0,0-1.2,39.92h8.65v-52H306a2,2,0,0,0-2.38,1.52s0,0,0,.08c-2.8,8-5.72,16-8.65,24-1.2,3.33-2.26,6.79-3.46,10.38l-.67-.93L286,197.29c-2.39-6.65-4.92-13.31-7.32-19.83a4.49,4.49,0,0,0-1.06-1.46h-8.92v52.3h8.65l-.93-39.93h0c2,5.86,4.13,11.85,6.25,17.7s4.13,10.52,6,15.71c.67,1.86,2,1.19,3.2,1.33s1.59,0,2-1.2c3.06-8.25,6.26-16.5,9.32-24.89C304.14,194.1,305.34,190.9,306.4,187.71Zm32.87,9.18V183.58h22.62v-5.85c0-1.87,0-2.13-2-2H330V227.9h31.93v-7.72H339.27V204.61H357.9v-6.52c0-2.13,0-1.2-1.46-1.2ZM183.84,183.58v-6c0-1.86,0-2-2-2h-29.4v52.3h32.07v-7.72H162.28V204.74h18.63v-7.85H162.28V183.58Zm-43-8H109.05v52.3h9V206.07H137v-7.85H118.63V183.45h22.23ZM217.38,228V183.45h15.17v-5.86c0-1.86,0-2-2-2H192.89v7.72h15.17V227.9ZM73.26,220.31H51.57V177.46c0-.8,0-1.86-.94-1.86H42.52v52.3H73.26Zm179.11,7.59V175.73h-9.05V227.9Zm-158.62,0V175.73h-9V228Z"/><path class="cls-1" d="M320.37,130.35l-5.32-3.19a2.66,2.66,0,0,0-3.33,0l-5.32,3.19a21.85,21.85,0,0,1,1.33-6.12,2.79,2.79,0,0,0-1.2-3.32l-4.52-4a61.91,61.91,0,0,1,6.39,0,2.38,2.38,0,0,0,2.39-1.73c.67-1.86,1.6-3.72,2.66-6,.94,2.27,1.87,4.13,2.53,6a2.4,2.4,0,0,0,2.4,1.73,61.91,61.91,0,0,1,6.39,0L320.11,121A2.53,2.53,0,0,0,319,124.1C319.58,126.1,320,128.09,320.37,130.35Z"/><path class="cls-1" d="M83.9,130.35a19.44,19.44,0,0,1,1.47-6.25A2.53,2.53,0,0,0,84.3,121c-1.86-1.07-2.93-2.53-4.79-4.13H86.3a1.85,1.85,0,0,0,2-1.33c0-2,1.6-3.86,2.67-6.25,1.06,2.26,1.86,4.39,2.79,6.25a2.79,2.79,0,0,0,1.73,1.33h6.92l-4.92,4.39a2.41,2.41,0,0,0-.94,2.8c0,1.86.94,3.86,1.47,6.25A55.29,55.29,0,0,1,93,127.29a3.2,3.2,0,0,0-4.12,0A53.24,53.24,0,0,1,83.9,130.35Z"/><path class="cls-1" d="M98.41,310.93l-6.12-6.78,13.3-17.3H104.4l-16,9.58a1.47,1.47,0,0,1-2.06.2,2,2,0,0,1-.21-.2l-5-5.59,19.83-25.68,5,5.59L90,289.64l21.83-12.37,3.46,4a1.87,1.87,0,0,1,0,1.86L102,300.82a1.52,1.52,0,0,0,0,1.07l20.09-13.31,4.66,5.19Z"/><path class="cls-1" d="M264.22,326.77l-8.79-19.56,6.53-2.8,12.64,29.28a64.72,64.72,0,0,1-6.39,2.66,4.6,4.6,0,0,1-2.26-1.2l-17-14,9.19,19.56-6.39,2.93L238.4,314.39l6.26-2.66a2.18,2.18,0,0,1,1.59,0Z"/><path class="cls-1" d="M167.34,347.93l-6.92-1.73a1.34,1.34,0,0,1-.8-1.2c0-2.79-1.06-5.72-1.46-8.52s0-3.59-4.26-4.39l-3.73,10.65-6.78-2.26L153.63,310c5.33,2.13,10.65,3.86,15.71,6.39a7.57,7.57,0,0,1,4.25,8.38,10.1,10.1,0,0,1-7.05,9.05h-1.86Zm-11.58-22.22,3.86,1.33h1.47a4.26,4.26,0,0,0,5-2.93,3.59,3.59,0,0,0-1.52-4.85,4,4,0,0,0-.47-.21c-1.73-.8-3.6-1.33-5.59-2.13Z"/><path class="cls-1" d="M205,351.92l-7.45-.66a4.93,4.93,0,0,1-1.2-1.2,61.69,61.69,0,0,1-3.33-7.59c-.93-2.53-2.26-3.86-5.32-3.06l-.8,11.18h-7.18L182,318.52c5.45.67,10.78,1.06,16,2a7.85,7.85,0,0,1,6.92,6.92,10.24,10.24,0,0,1-4.53,11h-.93Zm-16.9-18.23a38.08,38.08,0,0,0,6.92,0A3.86,3.86,0,0,0,198,329.3a3.45,3.45,0,0,0-3.06-3.59,15.8,15.8,0,0,1-6-.8Z"/><path class="cls-1" d="M212.58,351.52c1.47-10.78,2.93-21.29,4.4-31.8,0,0,.66-1.2,1.06-1.2a51.56,51.56,0,0,1,6.52-1.2,2.27,2.27,0,0,1,1.73.93L240.8,347l-7.06,1.06s-.93-.66-1.06-1.06a50.15,50.15,0,0,1-2.13-4.66c0-.93-.8-1.33-1.73-1.06s-4.92.66-7.32,1.19a2.39,2.39,0,0,0-1.06,1.2V349c0,1.73,0,1.47-1.6,1.6Zm10-27.68h0l-.94,13.31,6.52-1.06Z"/><path class="cls-1" d="M133.81,335.42,128.08,332a2.45,2.45,0,0,1,0-1.73c0-2.13,1.2-4.12,1.87-6.25l-8.52-5.19-4.92,5.85-7.46-4,12-10.51,12.11-10.52a1.74,1.74,0,0,1,2.4,0,33.74,33.74,0,0,0,4.65,2.8,2,2,0,0,1,1.07,2.53c-2.13,8.11-4.13,16.36-6.12,24.61C135.67,331.16,134.47,332.89,133.81,335.42Zm1.86-29.14-9.32,9.45,5.46,3.19Z"/><path class="cls-1" d="M286.17,286.18a68,68,0,0,1,4.26-5.32,2.57,2.57,0,0,1,2,0l11.31,3.86h1.86c-2.39-4.13-4.52-8.12-6.78-11.84a2.13,2.13,0,0,1,0-2.93,44.77,44.77,0,0,0,3.72-4.53c1.6,3.2,2.93,6.12,4.26,8.92S310,281.66,312,285a20.29,20.29,0,0,0,4.53,4.39L322,293l-4.52,5.59L308.66,293a7.41,7.41,0,0,0-2.52-1.2Z"/><path class="cls-1" d="M297.75,317.46,292,321.85l-15.84-20.23-7.45,4.66L265,301.49l19.56-15.17,3.72,4.92-6.78,5.32Z"/><path class="cls-1" d="M216.84,120l-6.92,6.13a2.77,2.77,0,0,0-.66,2c0,2.93,1.2,5.72,2,9l-7.18-4.26a3.08,3.08,0,0,0-3.73,0c-2.13,1.47-4.52,2.66-7.18,4.26,0-3.19,1.19-5.86,1.86-8.65a2,2,0,0,0-.93-2.66L187.57,120l9.05-.93a3,3,0,0,0,1.86-1.33l3.73-9,3.72,8.39a2,2,0,0,0,1.86,1.46Z"/><path class="cls-1" d="M246.12,136.61l-5.46-3.33a2.78,2.78,0,0,0-3.19,0,48.23,48.23,0,0,1-5.46,3.33c0-2.53,1.07-4.53,1.33-6.66a2.9,2.9,0,0,0-.66-2.26c-1.46-1.46-3.19-2.79-5.06-4.52h6.52a2.41,2.41,0,0,0,2.4-1.73,62.2,62.2,0,0,1,2.53-6c.79,2.13,1.59,3.86,2.26,5.59a2.8,2.8,0,0,0,2.93,2.13h6.25l-5.06,4.52a1.74,1.74,0,0,0-.84,2.3.93.93,0,0,0,0,.1C245.19,132,245.59,134,246.12,136.61Z"/><path class="cls-1" d="M172.4,136.47l-5.86-3.19a2.53,2.53,0,0,0-2.39,0l-5.86,3.33c0-2.4.93-4.39,1.46-6.39a2.39,2.39,0,0,0-.93-2.66l-4.92-4.39h6.52a2.4,2.4,0,0,0,1.86-2.4c.67-1.86,1.47-3.72,2.53-6,.93,2.27,1.86,4.13,2.53,6.13a2.13,2.13,0,0,0,2.26,1.59h6.66l-5.06,4.39c-.8.8-1.2,1.47-.8,2.53A67.15,67.15,0,0,1,172.4,136.47Z"/><path class="cls-1" d="M202.21,261.56c1.33,3.2,2.52,5.86,3.72,8.52a2.81,2.81,0,0,0,1.73,1.2l9.05.93-4.92,4.39a10.08,10.08,0,0,1-1.73,1.6,1.86,1.86,0,0,0-.8,2.26c.66,2.93,1.2,5.72,2,9.05-2.52-1.6-4.79-2.79-6.92-4.26a3.45,3.45,0,0,0-4.39,0,78.07,78.07,0,0,1-6.78,4.13c0-3.2,1.46-6,1.86-8.92a2.4,2.4,0,0,0-.67-2.13l-6.78-6.12,9.05-.93a1.73,1.73,0,0,0,1.86-1.33C199.54,267.29,200.87,264.62,202.21,261.56Z"/><path class="cls-1" d="M246.12,283.26l-6.26-3.6a2,2,0,0,0-1.72,0l-6.13,3.6c0-2.4.94-4.53,1.47-6.53a2.27,2.27,0,0,0-.8-2.52c-1.73-1.33-3.19-2.8-5.06-4.4h6.26a2.39,2.39,0,0,0,2.66-2c.66-1.86,1.6-3.59,2.53-5.72.93,2.13,1.73,3.86,2.39,5.59a3,3,0,0,0,2.8,2.26h6.12c-1.73,1.59-3.2,3.06-4.93,4.39a2,2,0,0,0-.79,2.53C245.19,278.73,245.59,280.86,246.12,283.26Z"/><path class="cls-1" d="M165.34,261.56a57.33,57.33,0,0,1,2.4,5.59,2.65,2.65,0,0,0,2.93,2.13h6.12l-5.06,4.39a2.15,2.15,0,0,0-.8,2.4c0,2.13.93,4.26,1.47,6.65-2.27-1.33-4-2.53-6-3.46a2.7,2.7,0,0,0-2.26,0l-5.86,3.33c0-2.4.93-4.52,1.46-6.65a2.13,2.13,0,0,0-.79-2.4l-5.06-4.39a46.39,46.39,0,0,0,6.65-.67,3.39,3.39,0,0,0,1.73-.79C163.61,266.35,164.28,264,165.34,261.56Z"/><path class="cls-1" d="M128,65.28l-2.13-6.52c4.92-1.6,10-3.06,15-4.26L150.44,92l-7.59,2.13c-2.92-10.25-6-20.5-9-30.61Z"/><path class="cls-1" d="M154.3,56a14.79,14.79,0,0,1,12.24-7.46,15.06,15.06,0,0,1,13.31,3.6,23.79,23.79,0,0,1,5.45,14.63,27.45,27.45,0,0,1-2.39,14.78,13.32,13.32,0,0,1-10.78,6.65A13.31,13.31,0,0,1,160,84.84a26.6,26.6,0,0,1-6.52-13.31A22.88,22.88,0,0,1,154.3,56Zm21.29,4.52a8.63,8.63,0,0,0-2.93-4.13,7.06,7.06,0,0,0-5.45-.93,7.19,7.19,0,0,0-4.93,2.4,9.34,9.34,0,0,0-1.59,4.79,32.13,32.13,0,0,0,0,6.65,30,30,0,0,0,1.73,6.52,9,9,0,0,0,2.79,4,7,7,0,0,0,5.06.93,6.82,6.82,0,0,0,5.32-2.27,8.49,8.49,0,0,0,1.6-4.65,30.83,30.83,0,0,0,0-6.79A33.93,33.93,0,0,0,175.59,60.49Z"/><path class="cls-1" d="M194.75,51.31A14.65,14.65,0,0,1,208.06,46a14.67,14.67,0,0,1,13.31,5.86,23.15,23.15,0,0,1,2.13,14.9,28,28,0,0,1-4.79,14.11A13.31,13.31,0,0,1,207,85.64a13.32,13.32,0,0,1-11.32-5.32A26.6,26.6,0,0,1,191.56,66,22.15,22.15,0,0,1,194.75,51.31Zm20.36,8A7.89,7.89,0,0,0,213,54.77a7.7,7.7,0,0,0-5.19-1.33,7.14,7.14,0,0,0-5.32,1.73,7.71,7.71,0,0,0-2.26,4.39,30.8,30.8,0,0,0,0,6.65,45.26,45.26,0,0,0,0,6.79,9.93,9.93,0,0,0,2.26,4.39,7.19,7.19,0,0,0,4.79,1.73,6.91,6.91,0,0,0,4.79-1.6,9.38,9.38,0,0,0,2.4-4.26A60.15,60.15,0,0,0,215.51,66a33.69,33.69,0,0,0,0-6.66Z"/><path class="cls-1" d="M233.48,52a10.56,10.56,0,0,1,7.45-1.33,10.93,10.93,0,0,1,6.79,3.6A7.57,7.57,0,0,1,249.31,61a8.07,8.07,0,0,1-3.86,5.72,11.79,11.79,0,0,1-7.18,1.07,11.34,11.34,0,0,1-6.52-3.33,8,8,0,0,1-1.87-6.65A7.19,7.19,0,0,1,233.48,52Zm2.66,6.66c0,2.84.93,4.43,2.79,4.79a3.81,3.81,0,0,0,2.66,0,5.08,5.08,0,0,0,1.47-2.93q0-4.26-2.8-4.79C237.87,54.77,236.54,56,236.14,58.63Zm34.86,0A244.78,244.78,0,0,0,239.86,89.5l-7.31-1.2a242.26,242.26,0,0,1,30.07-31.94Zm-15.57,19a9.67,9.67,0,0,1,7.06,0,9,9,0,0,1,5.72,4.12,8,8,0,0,1,0,6.79A8.36,8.36,0,0,1,264,93.89a8.8,8.8,0,0,1-6.65,0A9.78,9.78,0,0,1,251.84,90a8.89,8.89,0,0,1-.93-6.78A8.12,8.12,0,0,1,255.43,77.66Zm1.6,6.92c-.66,2.79,0,4.39,2,4.92s3.32,0,4.12-3.19,0-4.26-1.86-4.79-3.33.39-4,3.06Z"/></svg>