<svg id="Layer_1" data-name="Layer 1" xmlns="http://www.w3.org/2000/svg" viewBox="0 0 400 400"><defs><style>.cls-1{fill:#231f20;}</style></defs><path class="cls-1" d="M61.82,298v3.06l.8,2.53c2.66,9.58,1.07,12.24-8.51,14.77Q44.39,320.9,34.54,324c-6.92,2.13-10.24,0-12.24-6.79-3.59-13.3-7.32-25.68-11-38.59C8.59,268.34,5.8,258,3,247.71a81.33,81.33,0,0,1-2.67-9.45A6,6,0,0,1,4,230.62a4.91,4.91,0,0,1,.75-.21c5.72-1.86,11.57-3.46,17.3-5.19l10-2.66a6.25,6.25,0,0,1,8.12,3.5l.13.36a19.72,19.72,0,0,1,1.59,3.86,9.57,9.57,0,0,0,1.2,5.05,8.13,8.13,0,0,1,6.65-6.12c11-4.26,22.09-8.65,33.27-13.3a255.93,255.93,0,0,1,36.2-12,63.61,63.61,0,0,1,39.92,5.45,263.44,263.44,0,0,0,34.47,11.72,334.26,334.26,0,0,0,37.92,7.05,114.24,114.24,0,0,0,35.67-1.73c3.59-.67,7-2.13,10.64-2.53a32.07,32.07,0,0,1,11.31,0,5.72,5.72,0,0,1,4,7.05,5.65,5.65,0,0,1-.64,1.47,25.4,25.4,0,0,1-14,13.3,197,197,0,0,1-44.58,12.11c-4.39.8-8.92,1.2-13.31,2-2.26,0-4.92.8-5.45,3.73a5.2,5.2,0,0,0,3.59,5.59,40,40,0,0,0,25.55,4.92A293.78,293.78,0,0,0,292.17,262a413.91,413.91,0,0,0,63.08-26.62c5.86-3.06,11.31-7.05,17.17-10.24a47.26,47.26,0,0,1,11-4.53A12.39,12.39,0,0,1,396.77,225a13.32,13.32,0,0,1,0,15,54.72,54.72,0,0,1-15.83,16.9A288.65,288.65,0,0,1,331.56,293a262.41,262.41,0,0,1-42.45,18.63,247,247,0,0,1-97.81,13.3,268,268,0,0,1-51.23-8.78,255.3,255.3,0,0,1-43.91-16.37,18.77,18.77,0,0,1-4.66-2.26,13.3,13.3,0,0,0-14.9-1.2,94.52,94.52,0,0,0-8.92,4.39C64.09,301.74,63.69,301.74,61.82,298Z"/><path class="cls-1" d="M268.89,211.51H230.16c-2.93,0-4-.79-4-3.86,0-11.31,0-22.75.93-34.06a38.35,38.35,0,0,1,17.83-27,5.35,5.35,0,0,1,4.26,0A45.7,45.7,0,0,0,275.81,150a43.62,43.62,0,0,0,10.64-2.92,6.52,6.52,0,0,1,7.32,0,40.86,40.86,0,0,1,17,32.07v29.27c0,2.53-.94,3.33-3.46,3.33C294.84,211.38,281.8,211.51,268.89,211.51Z"/><path class="cls-1" d="M348.6,202.6H318c-2.53,0-3.46-.93-3.46-3.33V183a45.89,45.89,0,0,0-9.18-29.15,3.59,3.59,0,0,1,0-4.65,37.42,37.42,0,0,1,12.51-12.51,4.34,4.34,0,0,1,3.46,0,47.52,47.52,0,0,0,39.92,0,3.57,3.57,0,0,1,3.06,0,37,37,0,0,1,16.9,21.82,80,80,0,0,1,2.26,17.83v22.09c0,3.06-1.06,4.13-4.12,4.13Z"/><path class="cls-1" d="M188.64,202.73H157.77c-2.13,0-3.19-.8-3.19-2.93,0-11.57,0-23.28.66-34.73a38.32,38.32,0,0,1,18.1-27.81,4.24,4.24,0,0,1,4.66,0,47.09,47.09,0,0,0,39.92,0,3.17,3.17,0,0,1,2.66,0,35,35,0,0,1,13.31,13.31,4.53,4.53,0,0,1,0,4.12,47.83,47.83,0,0,0-9.32,31v14.24c0,4.79-1.06,4-4,4H188.64Z"/><path class="cls-1" d="M196.49,74.85A29.14,29.14,0,0,1,226.57,103v0A30.14,30.14,0,1,1,193,74.69a31.12,31.12,0,0,1,3.48-.11Z"/><path class="cls-1" d="M340.88,74.85A29,29,0,0,1,370,103.72c0,.22,0,.45,0,.67a29.41,29.41,0,1,1-29.27-29.54Z"/><path class="cls-1" d="M268.49,142.18a29.41,29.41,0,1,1,.66-58.82A29.82,29.82,0,0,1,298.3,113a29.41,29.41,0,0,1-29.68,29.14Z"/></svg>