<svg width="48" height="48" viewBox="0 0 48 48" fill="none" xmlns="http://www.w3.org/2000/svg">
<g id="Group 108">
<circle id="Ellipse 9" cx="24" cy="24" r="24" fill="white"/>
<path id="Setting" fill-rule="evenodd" clip-rule="evenodd" d="M19.3448 11.7333C19.1172 11.1838 19 10.5948 19 10H18.1765C18.1765 10.703 18.3149 11.399 18.5839 12.0485C18.8529 12.6979 19.2472 13.288 19.7443 13.7851C20.2414 14.2822 20.8315 14.6765 21.4809 14.9455C21.5889 14.9902 21.6981 15.0313 21.8084 15.0688C16.2572 15.8996 12 20.6879 12 26.4706C12 32.8381 17.1619 38 23.5294 38C29.8969 38 35.0588 32.8381 35.0588 26.4706C35.0588 20.6879 30.8016 15.8996 25.2504 15.0688C25.3607 15.0313 25.4699 14.9902 25.5779 14.9455C26.2273 14.6765 26.8174 14.2822 27.3145 13.7851C27.8116 13.288 28.2059 12.6979 28.4749 12.0485C28.7439 11.399 28.8824 10.703 28.8824 10H28.0588C28.0588 10.5948 27.9417 11.1838 27.714 11.7333C27.4864 12.2829 27.1528 12.7822 26.7322 13.2028C26.3116 13.6234 25.8123 13.957 25.2627 14.1846C24.7132 14.4123 24.1242 14.5294 23.5294 14.5294C22.9346 14.5294 22.3456 14.4123 21.7961 14.1846C21.2465 13.957 20.7472 13.6234 20.3266 13.2028C19.906 12.7822 19.5724 12.2829 19.3448 11.7333ZM34.2353 26.4706C34.2353 32.3833 29.4421 37.1765 23.5294 37.1765C17.6167 37.1765 12.8235 32.3833 12.8235 26.4706C12.8235 20.5579 17.6167 15.7647 23.5294 15.7647C29.4421 15.7647 34.2353 20.5579 34.2353 26.4706Z" fill="#0B131A"/>
</g>
</svg>
