<svg width="48" height="48" viewBox="0 0 48 48" fill="none" xmlns="http://www.w3.org/2000/svg">
<g id="Group 108">
<circle id="Ellipse 9" cx="24" cy="24" r="24" fill="white"/>
<path id="Union" fill-rule="evenodd" clip-rule="evenodd" d="M18.5989 10.8137L21.0089 8H26.4536L28.8496 10.797C29.1616 10.8012 29.4133 11.0554 29.4133 11.3684C29.4133 12.107 29.2679 12.8383 28.9852 13.5206C28.7026 14.203 28.2883 14.823 27.7661 15.3452C27.2438 15.8675 26.6238 16.2817 25.9415 16.5644C25.9116 16.5768 25.8816 16.5889 25.8515 16.6007C31.3795 17.5759 35.579 22.4028 35.579 28.2105C35.579 34.7217 30.3006 40 23.7895 40C17.2783 40 12 34.7217 12 28.2105C12 22.4029 16.1993 17.5761 21.7271 16.6008C21.697 16.5889 21.667 16.5768 21.637 16.5644C20.9547 16.2817 20.3347 15.8675 19.8124 15.3452C19.2902 14.823 18.8759 14.203 18.5933 13.5206C18.3107 12.8383 18.1652 12.107 18.1652 11.3684C18.1652 11.1003 18.3498 10.8753 18.5989 10.8137ZM20.0567 10.8686L23.731 14.3774L27.406 10.8685L25.9278 9.14286H21.5348L20.0567 10.8686ZM28.2628 11.6306L23.8444 15.8493C24.4141 15.8423 24.9774 15.7267 25.5041 15.5085C26.0478 15.2833 26.5418 14.9532 26.958 14.5371C27.3741 14.121 27.7042 13.627 27.9294 13.0833C28.121 12.6205 28.2336 12.1295 28.2628 11.6306ZM23.6144 15.8462L19.3243 11.7494C19.3634 12.2073 19.4727 12.6573 19.6492 13.0833C19.8744 13.627 20.2044 14.121 20.6206 14.5371C21.0367 14.9532 21.5307 15.2833 22.0744 15.5085C22.5641 15.7114 23.0856 15.8256 23.6144 15.8462ZM23.7895 38.8571C29.6695 38.8571 34.4361 34.0905 34.4361 28.2105C34.4361 22.3305 29.6695 17.5639 23.7895 17.5639C17.9095 17.5639 13.1429 22.3305 13.1429 28.2105C13.1429 34.0905 17.9095 38.8571 23.7895 38.8571Z" fill="#0B131A"/>
</g>
</svg>
