<svg width="36" height="36" viewBox="0 0 36 36" fill="none" xmlns="http://www.w3.org/2000/svg">
<path fill-rule="evenodd" clip-rule="evenodd" d="M7.5 18C6.67157 18 6 18.6716 6 19.5V30C6 30.8284 6.67157 31.5 7.5 31.5H28.5C29.3284 31.5 30 30.8284 30 30V19.5C30 18.6716 29.3284 18 28.5 18H7.5ZM3 19.5C3 17.0147 5.01472 15 7.5 15H28.5C30.9853 15 33 17.0147 33 19.5V30C33 32.4853 30.9853 34.5 28.5 34.5H7.5C5.01472 34.5 3 32.4853 3 30V19.5Z" fill="#999999"/>
<path fill-rule="evenodd" clip-rule="evenodd" d="M18 4.5C16.4087 4.5 14.8826 5.13214 13.7574 6.25736C12.6321 7.38258 12 8.9087 12 10.5V16.5C12 17.3284 11.3284 18 10.5 18C9.67157 18 9 17.3284 9 16.5V10.5C9 8.11305 9.94821 5.82387 11.636 4.13604C13.3239 2.44821 15.6131 1.5 18 1.5C20.3869 1.5 22.6761 2.44821 24.364 4.13604C26.0518 5.82387 27 8.11305 27 10.5V16.5C27 17.3284 26.3284 18 25.5 18C24.6716 18 24 17.3284 24 16.5V10.5C24 8.9087 23.3679 7.38258 22.2426 6.25736C21.1174 5.13214 19.5913 4.5 18 4.5Z" fill="#999999"/>
</svg>
