<svg width="24" height="24" viewBox="0 0 24 24" fill="none" xmlns="http://www.w3.org/2000/svg">
<path fill-rule="evenodd" clip-rule="evenodd" d="M18.0169 7.42974L15.6874 7.42818V4.25159C15.6874 2.45864 14.2021 1 12.3755 1C10.5489 1 9.06283 2.4586 9.06283 4.25159V7.42818H6.76211C6.59186 7.43287 6.44469 7.56021 6.41764 7.73052L6.12102 10.4353C5.70869 14.1945 5.01124 20.5529 5 20.6633C5.0008 20.8406 5.16309 21 5.36357 21H19.4206C19.6203 21 19.7826 20.8398 19.7826 20.6438L19.3536 16.7328L19.3458 16.6613C18.9325 12.8938 18.374 7.80164 18.365 7.7212C18.3395 7.56026 18.1923 7.43292 18.0165 7.4298L18.0169 7.42974ZM9.78821 4.25091C9.78821 2.84936 10.9489 1.71032 12.3753 1.71032C13.8025 1.71032 14.9623 2.84938 14.9623 4.25091V7.4275H9.78821V4.25091ZM5.79646 20.0404L5.76941 20.2873L19.0143 20.2872L17.6817 8.14124H15.6865V9.52328C15.6865 9.71858 15.5242 9.87874 15.3245 9.87874C15.1249 9.87874 14.9618 9.71859 14.9618 9.52328V8.14124H9.78766V9.52328C9.78766 9.71858 9.62537 9.87874 9.4257 9.87874C9.22603 9.87874 9.06294 9.71859 9.06294 9.52328V8.14124H7.10114L6.96511 9.38264C6.557 13.0998 5.99693 18.2029 5.79646 20.0404Z" fill="black"/>
<path d="M15.6874 7.42818H15.4374V7.67801L15.6872 7.67818L15.6874 7.42818ZM18.0169 7.42974L18.0604 7.67592L18.017 7.17974L18.0169 7.42974ZM9.06283 7.42818V7.67818H9.31283V7.42818H9.06283ZM6.76211 7.42818V7.17809L6.75523 7.17828L6.76211 7.42818ZM6.41764 7.73052L6.17045 7.69126L6.16913 7.70327L6.41764 7.73052ZM6.12102 10.4353L6.36953 10.4625L6.36953 10.4625L6.12102 10.4353ZM5 20.6633L4.75129 20.638L4.74994 20.6511L4.75 20.6644L5 20.6633ZM19.7826 20.6438H20.0326V20.6301L20.0311 20.6165L19.7826 20.6438ZM19.3536 16.7328L19.1051 16.7601V16.7601L19.3536 16.7328ZM19.3458 16.6613L19.0973 16.6885L19.3458 16.6613ZM18.365 7.7212L18.6137 7.69321L18.6119 7.68214L18.365 7.7212ZM18.0165 7.4298L17.973 7.18362L18.0121 7.67976L18.0165 7.4298ZM14.9623 7.4275V7.6775H15.2123V7.4275H14.9623ZM9.78821 7.4275H9.53821V7.6775H9.78821V7.4275ZM5.76941 20.2873L5.5209 20.2601L5.49052 20.5373L5.76941 20.5373L5.76941 20.2873ZM5.79646 20.0404L6.04497 20.0676L6.04498 20.0675L5.79646 20.0404ZM19.0143 20.2872L19.0143 20.5372L19.2932 20.5372L19.2628 20.2599L19.0143 20.2872ZM17.6817 8.14124L17.9302 8.11398L17.9058 7.89124H17.6817V8.14124ZM15.6865 8.14124V7.89124H15.4365V8.14124H15.6865ZM14.9618 8.14124H15.2118V7.89124H14.9618V8.14124ZM9.78766 8.14124V7.89124H9.53766V8.14124H9.78766ZM9.06294 8.14124H9.31294V7.89124H9.06294V8.14124ZM7.10114 8.14124V7.89124H6.87704L6.85263 8.11401L7.10114 8.14124ZM6.96511 9.38264L7.21361 9.40992L7.21362 9.40987L6.96511 9.38264ZM15.6872 7.67818L18.0167 7.67974L18.017 7.17974L15.6876 7.17818L15.6872 7.67818ZM15.4374 4.25159V7.42818H15.9374V4.25159H15.4374ZM12.3755 1.25C14.0684 1.25 15.4374 2.601 15.4374 4.25159H15.9374C15.9374 2.31627 14.3359 0.75 12.3755 0.75V1.25ZM9.31283 4.25159C9.31283 2.60104 10.6826 1.25 12.3755 1.25V0.75C10.4153 0.75 8.81283 2.31615 8.81283 4.25159H9.31283ZM9.31283 7.42818V4.25159H8.81283V7.42818H9.31283ZM6.76211 7.67818H9.06283V7.17818H6.76211V7.67818ZM6.66455 7.76973C6.67257 7.71919 6.71809 7.67949 6.76899 7.67809L6.75523 7.17828C6.46563 7.18625 6.2168 7.40123 6.17074 7.69131L6.66455 7.76973ZM6.36953 10.4625L6.66615 7.75777L6.16913 7.70327L5.87251 10.408L6.36953 10.4625ZM5.24871 20.6886C5.25983 20.5795 5.95706 14.223 6.36953 10.4625L5.87251 10.408C5.46031 14.1659 4.76266 20.5262 4.75129 20.638L5.24871 20.6886ZM5.36357 20.75C5.33037 20.75 5.30022 20.7368 5.27846 20.7163C5.256 20.6951 5.25005 20.6739 5.25 20.6622L4.75 20.6644C4.75147 20.9918 5.03826 21.25 5.36357 21.25V20.75ZM19.4206 20.75H5.36357V21.25H19.4206V20.75ZM19.5326 20.6438C19.5326 20.6982 19.4858 20.75 19.4206 20.75V21.25C19.7548 21.25 20.0326 20.9815 20.0326 20.6438H19.5326ZM19.1051 16.7601L19.5341 20.671L20.0311 20.6165L19.6021 16.7055L19.1051 16.7601ZM19.0973 16.6885L19.1051 16.7601L19.6021 16.7055L19.5943 16.634L19.0973 16.6885ZM18.1165 7.74916C18.1255 7.82913 18.684 12.9206 19.0973 16.6885L19.5943 16.634C19.1811 12.867 18.6225 7.77415 18.6134 7.69324L18.1165 7.74916ZM18.0121 7.67976C18.0729 7.68084 18.1125 7.72524 18.118 7.76026L18.6119 7.68214C18.5665 7.39528 18.3118 7.185 18.021 7.17984L18.0121 7.67976ZM17.9733 7.18357L17.973 7.18362L18.0601 7.67598L18.0604 7.67592L17.9733 7.18357ZM12.3753 1.46032C10.8152 1.46032 9.53821 2.70698 9.53821 4.25091H10.0382C10.0382 2.99173 11.0826 1.96032 12.3753 1.96032V1.46032ZM15.2123 4.25091C15.2123 2.70705 13.9362 1.46032 12.3753 1.46032V1.96032C13.6687 1.96032 14.7123 2.9917 14.7123 4.25091H15.2123ZM15.2123 7.4275V4.25091H14.7123V7.4275H15.2123ZM9.78821 7.6775H14.9623V7.1775H9.78821V7.6775ZM9.53821 4.25091V7.4275H10.0382V4.25091H9.53821ZM6.01792 20.3145L6.04497 20.0676L5.54794 20.0132L5.5209 20.2601L6.01792 20.3145ZM19.0143 20.0372L5.76941 20.0373L5.76941 20.5373L19.0143 20.5372L19.0143 20.0372ZM17.4332 8.16851L18.7657 20.3145L19.2628 20.2599L17.9302 8.11398L17.4332 8.16851ZM15.6865 8.39124H17.6817V7.89124H15.6865V8.39124ZM15.9365 9.52328V8.14124H15.4365V9.52328H15.9365ZM15.3245 10.1287C15.6584 10.1287 15.9365 9.86055 15.9365 9.52328H15.4365C15.4365 9.57662 15.3901 9.62874 15.3245 9.62874V10.1287ZM14.7118 9.52328C14.7118 9.86127 14.9915 10.1287 15.3245 10.1287V9.62874C15.2583 9.62874 15.2118 9.57591 15.2118 9.52328H14.7118ZM14.7118 8.14124V9.52328H15.2118V8.14124H14.7118ZM9.78766 8.39124H14.9618V7.89124H9.78766V8.39124ZM10.0377 9.52328V8.14124H9.53766V9.52328H10.0377ZM9.4257 10.1287C9.75951 10.1287 10.0377 9.86055 10.0377 9.52328H9.53766C9.53766 9.57661 9.49123 9.62874 9.4257 9.62874V10.1287ZM8.81294 9.52328C8.81294 9.86127 9.09261 10.1287 9.4257 10.1287V9.62874C9.35944 9.62874 9.31294 9.57591 9.31294 9.52328H8.81294ZM8.81294 8.14124V9.52328H9.31294V8.14124H8.81294ZM7.10114 8.39124H9.06294V7.89124H7.10114V8.39124ZM7.21362 9.40987L7.34966 8.16848L6.85263 8.11401L6.71659 9.35541L7.21362 9.40987ZM6.04498 20.0675C6.24545 18.2301 6.8055 13.1272 7.21361 9.40992L6.7166 9.35536C6.3085 13.0725 5.74842 18.1757 5.54793 20.0133L6.04498 20.0675Z" fill="black"/>
</svg>
