<svg id="Layer_1" data-name="Layer 1" xmlns="http://www.w3.org/2000/svg" viewBox="0 0 512 250"><defs><style>.cls-1{fill:#231f20;}</style></defs><path class="cls-1" d="M257,218.11h-.94l.42-21.48.94,0Z"/><path class="cls-1" d="M257.93,219.07l-2.82,0,.47-23.35,2.82.07Z"/><path class="cls-1" d="M256.54,219.05h-.19l-35.78-7.42L190.15,191.2v-.15l-20.24-30.47-7-36v-.18l7.34-35.65,20.51-30.42h.14L221.28,38l36-7h.17l35.78,7.29,30.42,20.54v.15l20.14,30.46,7,36v.17l-7.41,35.78-20.53,30.42h-.15l-30.47,20.14ZM221.28,210l35.24,7.16,35.28-6.84,30-19.77,20.12-29.8,7.19-35.24-6.75-35.36-19.77-30L292.79,40l-35.21-7.16L222.27,39.7l-30,19.77L172,89.34l-7.19,35.24,6.85,35.29,19.76,30Z"/><path class="cls-1" d="M256.52,219.81h-.32l-36-7.41-30.62-20.76-20.36-30.91-7-36.17v-.33l7.41-36,20.88-30.71,30.84-20.26,36.18-7h.15l36.22,7.41,30.64,20.76,20.36,30.91,7,36.17v.15l-7.41,36.23-20.86,30.69-30.89,20.36ZM220.86,211l35.68,7.26,35.73-6.92,30.32-20.06L343,161.1l7.29-35.68-6.95-35.73L323.24,59.35,293.06,39l-35.65-7.26-35.76,6.92L191.33,58.7,171,88.9l-7.27,35.63,6.95,35.85,20.06,30.37Zm35.68,6.89h-.14l-35.51-7.41-30-20.24-20-30.25-6.87-35.43v-.15l7.42-35.51,20.16-30,30.25-20,35.45-6.87h.15l35.46,7.22,30,20.33L342.9,89.89l6.9,35.43v.15L342.51,161,322.2,191l-30.27,20Zm-34.94-8.65,34.94,7.12,35-6.8,29.65-19.77,20-29.65,7.11-34.94-6.79-35L321.73,60.56,292.08,40.62l-34.7-7-35,6.8L192.74,60.19,172.8,89.84l-7.21,34.74,6.79,35,19.77,29.65Z"/><path class="cls-1" d="M256.52,220h-.35l-36.12-7.41-30.67-20.88-20.38-31-7-36.2v-.2l7.41-36.28,20.78-30.69L221.28,37l36.2-7h.2L294,37.4l30.66,20.78L345,89.12l7,36.23v.17l-7.42,36.3-20.95,30.69-30.94,20.38Zm-34.84-10.92,34.86,7.09,34.94-6.77,29.66-19.77,19.91-29.26,7.09-34.86-6.77-35L321.75,60.83l-29.5-19.92-34.87-7.09-34.91,6.77L192.82,60.24,173.05,89.71l-7.27,34.87,6.8,34.94,19.62,29.65Z"/><path class="cls-1" d="M256.52,220.78H256l-36.37-7.57-30.89-21L168.26,160.9l-7.07-36.37v-.35l7.58-36.52,21-30.88L221,36.29l36.37-7.07h.32l36.62,7.61,30.89,21L345.7,89.05l7,36.35v.34l-7.56,36.55-21,30.88-31.23,20.56Zm-36.18-9,36.2,7.41,35.91-6.94,30.71-20.22,20.61-30.44,7.41-36.2-7-35.9L324,58.8,293.56,38.19l-36.2-7.41-35.9,7L190.79,57.94,170.16,88.38l-7.42,36.18,6.95,35.82,20.24,30.72Zm36.2,5.14h-.14l-35.12-7.15-29.65-20.21-19.77-30L165,124.58v-.15l7.24-35.14,20.09-29.65,30-19.77,35.08-6.82h.15l35.11,7.19L322.3,60.36l19.76,30,6.8,35.06v.15l-7.22,35.14-20.11,29.65-29.95,19.77ZM222,208.37l34.59,7,34.6-6.72,29.43-19.44L340.34,160l7-34.59-6.69-34.6L321.18,61.4,292,41.63l-34.59-7-34.59,6.72L193.36,60.78,173.59,90l-7,34.59,6.72,34.6,19.47,29.43Z"/><path class="cls-1" d="M308.09,176.12H205.84V73.9H308.09Zm-101.31-.93H307.17V74.81H206.78Z"/><path class="cls-1" d="M309.05,177.06H204.9V72.94H309.05Zm-101.31-2.81h98.5V75.75H207.72Z"/><path class="cls-1" d="M257,197.3,184.66,125,257,52.7l72.3,72.3ZM186,125l71,71,71-71L257,54.13Z"/><path class="cls-1" d="M257,198.64l-.66-.67-73-73,.67-.67,73-73,.67.67,73,73-.61.79ZM187.33,125,257,194.66,326.62,125,257,55.34Z"/><path class="cls-1" d="M292.45,211.78,257,197.15l-36.27,14.31L205.86,176l-35.68-15.65,14.63-35.48L170.53,88.73,206,73.9,221.5,38.14,257,52.77l36.3-14.3,14.83,35.45,35.75,15.55-14.62,35.46,14.3,36.27L308.09,176ZM257,196.14l35,14.43,15.32-35.36h.18l34.76-14.45L328.13,125l14.4-35L307.27,74.67v-.18L292.82,39.73,257,53.84l-35-14.44L206.73,74.67h-.17L171.71,89.22,185.82,125l-14.43,35,35.26,15.22v.17l14.63,34.87Z"/><path class="cls-1" d="M292.94,213l-36-14.83L220.17,212.7l-14.83-35.93L169,161l14.83-36L169.39,88.21l36-14.83,15.74-36.27,36,14.82,36.77-14.5,15,35.93,36.25,15.79-14.83,36,14.51,36.77-35.93,15ZM257,195.13l.34.15,34.13,14.08,15.1-34.79h.34L341,160.38l-13.91-35.26.15-.37,14.08-34.12-34.76-15.1-.15-.35L292.22,41.09,257,54.87l-.37-.15-34.1-14.06L207.37,75.43l-.35.13L173,89.74,186.84,125v.35L172.75,159.5l34.77,15.09L221.85,209Z"/><path class="cls-1" d="M206,74.67l-14.85-15.5.67-.64L206.65,74Z"/><path class="cls-1" d="M189.78,59.15l2-1.95L208,74.05l-2,2"/><path class="cls-1" d="M257.43,53.37l-.91,0,.42-21.45.94,0Z"/><path class="cls-1" d="M258.37,54.33l-2.84-.07L256,30.93l2.82.05Z"/><path class="cls-1" d="M307.32,74l15.41-14.92.65.67L308,74.71Z"/><path class="cls-1" d="M306,74l16.86-16.16,1.95,2L307.92,76Z"/><path class="cls-1" d="M350.07,125.89l-21.47-.42,0-.94,21.45.42Z"/><path class="cls-1" d="M327.62,126.36l.06-2.81L351,124l0,2.81Z"/><path class="cls-1" d="M322.15,191.47,307.3,176l.67-.65,14.87,15.5Z"/><path class="cls-1" d="M322.15,192.8,306,176l2-1.95,16.18,16.83Z"/><path class="cls-1" d="M190.51,190.19,206,175.34l.65.68-15.48,14.84Z"/><path class="cls-1" d="M191.14,192.21l-2-2.05L206,174l2,2.05Z"/><path class="cls-1" d="M185.3,125.47l-21.44-.42,0-.94,21.45.42Z"/><path class="cls-1" d="M162.89,125.94l.06-2.81,23.35.47-.06,2.82Z"/><path class="cls-1" d="M485.68,145.31H346.83v-6H485.68c7.56,0,13.71-7.26,13.71-16.18S493.09,107,485.68,107H347v-6l138.72.17c10.87,0,19.77,9.88,19.77,22.24s-8.85,22.24-19.77,22.24"/><path class="cls-1" d="M165.93,143.43H26.32c-11,0-19.77-9.88-19.77-22.24S15.45,99,26.32,99H165.93v6H26.32c-7.63,0-13.84,7.26-13.84,16.21s6.21,16.18,13.84,16.18H165.93Z"/></svg>