<svg width="24" height="24" viewBox="0 0 24 24" fill="none" xmlns="http://www.w3.org/2000/svg">
<path fill-rule="evenodd" clip-rule="evenodd" d="M19.4136 17.806L19.0806 17.3661C18.5922 16.7209 17.7448 16.2239 16.5326 15.8905C15.3245 15.5582 13.7952 15.4 12 15.4C10.2048 15.4 8.67545 15.5582 7.46734 15.8905C6.2552 16.2239 5.40783 16.7209 4.91941 17.3661L4.58639 17.806L4.27186 17.3527C3.21777 15.8335 2.59999 13.9883 2.59999 12C2.59999 6.80854 6.80851 2.60002 12 2.60002C17.1915 2.60002 21.4 6.80854 21.4 12C21.4 13.9883 20.7822 15.8335 19.7281 17.3527L19.4136 17.806ZM17.9647 18.7398L17.9647 18.7398L18.3501 18.6326L17.9647 18.7398ZM18.2299 19.0392L18.417 18.8735L18.3501 18.6326C18.1436 17.8902 17.352 17.4008 16.3263 17.0922C15.266 16.7732 13.8048 16.6 12 16.6C10.1952 16.6 8.73403 16.7732 7.67365 17.0922C6.64794 17.4008 5.85641 17.8902 5.64993 18.6326L5.58295 18.8735L5.7701 19.0392C7.42841 20.5079 9.61051 21.4 12 21.4C14.3895 21.4 16.5716 20.5079 18.2299 19.0392ZM6.03531 18.7398L5.64993 18.6326L6.03527 18.7398L6.03531 18.7398ZM1.39999 12C1.39999 17.8542 6.14577 22.6 12 22.6C17.8542 22.6 22.6 17.8542 22.6 12C22.6 6.1458 17.8542 1.40002 12 1.40002C6.14577 1.40002 1.39999 6.1458 1.39999 12ZM9.46112 13.5216C10.0945 14.2442 10.9781 14.6 12 14.6C13.0152 14.6 13.9013 14.2544 14.5366 13.5599C15.1745 12.8626 15.6 11.769 15.6 10.2C15.6 8.10724 14.1596 6.40002 12 6.40002C9.81167 6.40002 8.39999 7.96485 8.39999 10C8.39999 11.6484 8.82315 12.7937 9.46112 13.5216ZM10.2377 12.5921C9.80837 12.0238 9.59999 11.1694 9.59999 10C9.59999 9.32539 9.81025 8.71807 10.2382 8.27734C10.6679 7.83467 11.2784 7.60002 12 7.60002C12.7193 7.60002 13.3295 7.88447 13.7556 8.36654C14.1776 8.84408 14.4 9.49285 14.4 10.2C14.4 11.2899 14.1885 12.0977 13.7531 12.6379C13.3034 13.1959 12.6719 13.4 12 13.4C11.3199 13.4 10.685 13.1842 10.2377 12.5921Z" fill="black"/>
</svg>
