<svg id="Layer_1" data-name="Layer 1" xmlns="http://www.w3.org/2000/svg" xmlns:xlink="http://www.w3.org/1999/xlink" viewBox="0 0 512 250"><defs><style>.cls-1{fill:#231f20;}.cls-2{clip-path:url(#clip-path);}.cls-3{clip-path:url(#clip-path-2);}.cls-4{clip-path:url(#clip-path-3);}.cls-5{clip-path:url(#clip-path-5);}.cls-6{clip-path:url(#clip-path-7);}.cls-7{clip-path:url(#clip-path-9);}.cls-8{clip-path:url(#clip-path-11);}.cls-9{clip-path:url(#clip-path-13);}.cls-10{clip-path:url(#clip-path-15);}.cls-11{clip-path:url(#clip-path-17);}.cls-12{clip-path:url(#clip-path-19);}.cls-13{clip-path:url(#clip-path-21);}.cls-14{clip-path:url(#clip-path-23);}.cls-15{clip-path:url(#clip-path-25);}.cls-16{clip-path:url(#clip-path-27);}.cls-17{clip-path:url(#clip-path-29);}.cls-18{clip-path:url(#clip-path-31);}.cls-19{clip-path:url(#clip-path-33);}.cls-20{clip-path:url(#clip-path-35);}.cls-21{clip-path:url(#clip-path-37);}.cls-22{clip-path:url(#clip-path-39);}.cls-23{clip-path:url(#clip-path-41);}.cls-24{clip-path:url(#clip-path-43);}.cls-25{clip-path:url(#clip-path-45);}.cls-26{clip-path:url(#clip-path-47);}.cls-27,.cls-28,.cls-29{fill:none;stroke:#231f20;stroke-miterlimit:10;}.cls-27{stroke-width:3px;}.cls-28{stroke-width:2px;}.cls-29{stroke-width:4px;}</style><clipPath id="clip-path"><polygon class="cls-1" points="255.92 228.29 255.26 228.29 255.48 204.44 256.14 204.44 255.92 228.29"/></clipPath><clipPath id="clip-path-2"><rect class="cls-1" x="4.7" y="2.45" width="495.65" height="391.93"/></clipPath><clipPath id="clip-path-3"><polygon class="cls-1" points="256.58 229.38 254.39 229.38 254.83 203.34 257.01 203.56 256.58 229.38"/></clipPath><clipPath id="clip-path-5"><path class="cls-1" d="M227.69,219.32l27.79,8.09,27.58-7.66,23.85-22.32,15.75-33,5.69-39.17-5.47-39.39L307.13,52.35,283.49,30l-27.79-8.1-27.79,7.44-23.63,22.1L188.52,84.52l-5.69,39.39,5.47,39.39,15.76,33.48Zm27.79,10.06L227,221.29l-24.08-23-15.75-33.92-5.47-40.27v-.21l5.69-39.83,16.19-33.92,24.07-22.54,28.23-7.88,28.45,8.1,24.07,23L324.2,84.74l5.69,40.48-5.47,39.83L308.22,199,284.15,221.5Z"/></clipPath><clipPath id="clip-path-7"><path class="cls-1" d="M228.13,218.44l27.57,7.88,27.58-7.44L306.91,197,322.66,164l5.26-38.51-5.26-38.95L306.91,53l-23.2-22.32-27.57-7.87-27.57,7.65L204.93,52.35l-15.75,33-5.25,38.73,5.25,39,15.53,33Zm27.57,12h-.22L227,222.16,202.75,199l-16.2-34.35-5.47-40.49L187,83.64,203.4,49.5l24.29-22.76,28.45-7.87,28.67,8.31,24.29,23.2L325.29,85,331,125.22l-5.91,40.48-16.41,34.14L284.37,222.6Z"/></clipPath><clipPath id="clip-path-9"><path class="cls-1" d="M216.31,180.58h79.22v-112H216.31Zm79.88.88H215.44v-114h80.75Z"/></clipPath><clipPath id="clip-path-11"><path class="cls-1" d="M217.19,179.49h77.68V69.64H217.19Zm79.87,3.06H214.78v-116h82.06Z"/></clipPath><clipPath id="clip-path-13"><path class="cls-1" d="M199.9,124.56l56,79.22,56-79.22-56-79.21Zm56,81-57.11-81,57.11-80.75L313,124.56Z"/></clipPath><clipPath id="clip-path-15"><path class="cls-1" d="M201,124.56l54.93,77.69,54.93-77.69L255.92,46.88Zm54.93,82.06-.66-.65-57.55-81.41.44-.65L255.92,42.5l.44.66,57.55,81.4-.44.66Z"/></clipPath><clipPath id="clip-path-17"><path class="cls-1" d="M255.92,203.78,283.49,220l12-39.39,27.35-16-10.94-40.05,11.38-38.95L295.53,68.54,284.15,29.37,255.92,45.13l-27.57-16.2-12,39.39L188.74,84.74l11.16,39.82-11.38,38.95,27.79,17.07,11.38,39Zm28,17.51-28-16.42-28.67,16-11.59-39.39L187.43,164,199,124.34,187.65,83.86l28-16.41,12.25-39.83,28,16.41,28.67-16,11.6,39.61L324.63,85,313,124.56l11.38,40.49-28,16.41Z"/></clipPath><clipPath id="clip-path-19"><path class="cls-1" d="M255.92,202.69h.22l26.92,15.75,11.81-38.73h.22l26.92-16-10.94-39.39v-.43l11.16-38.08L294.87,69v-.44L283.49,30.46,255.7,46h-.22L228.57,30.25,216.75,69h-.22L189.62,84.74l10.94,39.38v.44L189.4,162.42l27.35,16.85,11.38,38.51Zm28.45,20.13-28.45-16.63L227,222.38l-11.82-40-28.67-17.72,11.6-40.05L186.77,83.42,215,66.79l12.47-40.48L255.7,42.94l28.89-16.2,11.82,40.05L325.07,84.3l-11.6,40.26,11.38,41.14-28.23,16.63Z"/></clipPath><clipPath id="clip-path-21"><polygon class="cls-1" points="215.66 68.32 203.84 51.03 204.5 50.38 216.31 67.67 215.66 68.32"/></clipPath><clipPath id="clip-path-23"><polygon class="cls-1" points="215.66 69.85 202.96 51.03 204.5 48.85 217.19 67.67 215.66 69.85"/></clipPath><clipPath id="clip-path-25"><polygon class="cls-1" points="256.14 44.69 255.48 44.69 255.92 20.62 256.58 20.62 256.14 44.69"/></clipPath><clipPath id="clip-path-27"><polygon class="cls-1" points="257.01 45.56 254.83 45.56 255.05 19.52 257.45 19.74 257.01 45.56"/></clipPath><clipPath id="clip-path-29"><polygon class="cls-1" points="296.19 68.32 295.53 67.67 307.78 51.03 308.22 51.91 296.19 68.32"/></clipPath><clipPath id="clip-path-31"><polygon class="cls-1" points="296.19 69.85 294.44 67.67 307.78 49.5 309.32 51.91 296.19 69.85"/></clipPath><clipPath id="clip-path-33"><polygon class="cls-1" points="329.23 125.44 312.38 125 312.38 123.91 329.23 124.56 329.23 125.44"/></clipPath><clipPath id="clip-path-35"><polygon class="cls-1" points="330.11 126.53 311.5 126.09 311.72 122.81 330.11 123.47 330.11 126.53"/></clipPath><clipPath id="clip-path-37"><polygon class="cls-1" points="307.35 198.75 295.53 181.46 296.19 180.58 307.78 197.87 307.35 198.75"/></clipPath><clipPath id="clip-path-39"><polygon class="cls-1" points="307.35 200.06 294.44 181.46 296.19 179.27 308.88 197.87 307.35 200.06"/></clipPath><clipPath id="clip-path-41"><polygon class="cls-1" points="204.06 197.87 203.4 197.21 215.66 180.58 216.09 181.46 204.06 197.87"/></clipPath><clipPath id="clip-path-43"><polygon class="cls-1" points="204.06 199.4 202.31 197.21 215.66 179.27 217.19 181.46 204.06 199.4"/></clipPath><clipPath id="clip-path-45"><polygon class="cls-1" points="199.24 125 182.39 124.56 182.39 123.47 199.46 123.91 199.24 125"/></clipPath><clipPath id="clip-path-47"><polygon class="cls-1" points="200.12 126.09 181.74 125.66 181.74 122.37 200.12 123.03 200.12 126.09"/></clipPath></defs><path class="cls-1" d="M255.92,228.29h-.66l.22-23.85h.66Z"/><polygon class="cls-1" points="255.92 228.29 255.26 228.29 255.48 204.44 256.14 204.44 255.92 228.29"/><g class="cls-2"><path class="cls-1" d="M4.7,2.45H500.36V394.38H4.7Z"/><rect class="cls-1" x="4.7" y="2.45" width="495.65" height="391.93"/><g class="cls-3"><path class="cls-1" d="M231.63,180.8H280v71.12H231.63Z"/></g></g><path class="cls-1" d="M256.58,229.38h-2.19l.44-26,2.19.22Z"/><polygon class="cls-1" points="256.58 229.38 254.39 229.38 254.83 203.34 257.01 203.56 256.58 229.38"/><g class="cls-4"><path class="cls-1" d="M4.7,2.45H500.36V394.38H4.7Z"/><rect class="cls-1" x="4.7" y="2.45" width="495.65" height="391.93"/><g class="cls-3"><path class="cls-1" d="M230.76,179.71h49.67V253H230.76Z"/></g></g><path class="cls-1" d="M227.69,219.32l27.79,8.09,27.58-7.66,23.85-22.32,15.75-33,5.69-39.17-5.47-39.39L307.13,52.35,283.49,30l-27.79-8.1-27.79,7.44-23.63,22.1L188.52,84.52l-5.69,39.39,5.47,39.39,15.76,33.48Zm27.79,10.06L227,221.29l-24.08-23-15.75-33.92-5.47-40.27v-.21l5.69-39.83,16.19-33.92,24.07-22.54,28.23-7.88,28.45,8.1,24.07,23L324.2,84.74l5.69,40.48-5.47,39.83L308.22,199,284.15,221.5Z"/><path class="cls-1" d="M227.69,219.32l27.79,8.09,27.58-7.66,23.85-22.32,15.75-33,5.69-39.17-5.47-39.39L307.13,52.35,283.49,30l-27.79-8.1-27.79,7.44-23.63,22.1L188.52,84.52l-5.69,39.39,5.47,39.39,15.76,33.48Zm27.79,10.06L227,221.29l-24.08-23-15.75-33.92-5.47-40.27v-.21l5.69-39.83,16.19-33.92,24.07-22.54,28.23-7.88,28.45,8.1,24.07,23L324.2,84.74l5.69,40.48-5.47,39.83L308.22,199,284.15,221.5Z"/><g class="cls-5"><path class="cls-1" d="M4.7,2.45H500.36V394.38H4.7Z"/><rect class="cls-1" x="4.7" y="2.45" width="495.65" height="391.93"/><g class="cls-3"><path class="cls-1" d="M158.1-3.89H353.74V253H158.1Z"/></g></g><path class="cls-1" d="M228.13,218.44l27.57,7.88,27.58-7.44L306.91,197,322.66,164l5.26-38.51-5.26-38.95L306.91,53l-23.2-22.32-27.57-7.87-27.57,7.65L204.93,52.35l-15.75,33-5.25,38.73,5.25,39,15.53,33Zm27.57,12h-.22L227,222.16,202.75,199l-16.2-34.35-5.47-40.49L187,83.64,203.4,49.5l24.29-22.76,28.45-7.87,28.67,8.31,24.29,23.2L325.29,85,331,125.22l-5.91,40.48-16.41,34.14L284.37,222.6Z"/><path class="cls-1" d="M228.13,218.44l27.57,7.88,27.58-7.44L306.91,197,322.66,164l5.26-38.51-5.26-38.95L306.91,53l-23.2-22.32-27.57-7.87-27.57,7.65L204.93,52.35l-15.75,33-5.25,38.73,5.25,39,15.53,33Zm27.57,12h-.22L227,222.16,202.75,199l-16.2-34.35-5.47-40.49L187,83.64,203.4,49.5l24.29-22.76,28.45-7.87,28.67,8.31,24.29,23.2L325.29,85,331,125.22l-5.91,40.48-16.41,34.14L284.37,222.6Z"/><g class="cls-6"><path class="cls-1" d="M4.7,2.45H500.36V394.38H4.7Z"/><rect class="cls-1" x="4.7" y="2.45" width="495.65" height="391.93"/><g class="cls-3"><path class="cls-1" d="M157.45-4.77h197V254.11H157.45Z"/></g></g><path class="cls-1" d="M216.31,180.58h79.22v-112H216.31Zm79.88.88H215.44v-114h80.75Z"/><path class="cls-1" d="M216.31,180.58h79.22v-112H216.31Zm79.88.88H215.44v-114h80.75Z"/><g class="cls-7"><path class="cls-1" d="M4.7,2.45H500.36V394.38H4.7Z"/><rect class="cls-1" x="4.7" y="2.45" width="495.65" height="391.93"/><g class="cls-3"><path class="cls-1" d="M192,43.81h127.8V205.09H192Z"/></g></g><path class="cls-1" d="M217.19,179.49h77.68V69.64H217.19Zm79.87,3.06H214.78v-116h82.06Z"/><path class="cls-1" d="M217.19,179.49h77.68V69.64H217.19Zm79.87,3.06H214.78v-116h82.06Z"/><g class="cls-8"><path class="cls-1" d="M4.7,2.45H500.36V394.38H4.7Z"/><rect class="cls-1" x="4.7" y="2.45" width="495.65" height="391.93"/><g class="cls-3"><path class="cls-1" d="M191.15,42.94H320.48V206.41H191.15Z"/></g></g><path class="cls-1" d="M199.9,124.56l56,79.22,56-79.22-56-79.21Zm56,81-57.11-81,57.11-80.75L313,124.56Z"/><path class="cls-1" d="M199.9,124.56l56,79.22,56-79.22-56-79.21Zm56,81-57.11-81,57.11-80.75L313,124.56Z"/><g class="cls-9"><path class="cls-1" d="M4.7,2.45H500.36V394.38H4.7Z"/><rect class="cls-1" x="4.7" y="2.45" width="495.65" height="391.93"/><g class="cls-3"><path class="cls-1" d="M175.17,20.18H336.45V228.94H175.17Z"/></g></g><path class="cls-1" d="M201,124.56l54.93,77.69,54.93-77.69L255.92,46.88Zm54.93,82.06-.66-.65-57.55-81.41.44-.65L255.92,42.5l.44.66,57.55,81.4-.44.66Z"/><path class="cls-1" d="M201,124.56l54.93,77.69,54.93-77.69L255.92,46.88Zm54.93,82.06-.66-.65-57.55-81.41.44-.65L255.92,42.5l.44.66,57.55,81.4-.44.66Z"/><g class="cls-10"><path class="cls-1" d="M4.7,2.45H500.36V394.38H4.7Z"/><rect class="cls-1" x="4.7" y="2.45" width="495.65" height="391.93"/><g class="cls-3"><path class="cls-1" d="M174.08,18.87H337.55V230.48H174.08Z"/></g></g><path class="cls-1" d="M255.92,203.78,283.49,220l12-39.39,27.35-16-10.94-40.05,11.38-38.95L295.53,68.54,284.15,29.37,255.92,45.13l-27.57-16.2-12,39.39L188.74,84.74l11.16,39.82-11.38,38.95,27.79,17.07,11.38,39Zm28,17.51-28-16.42-28.67,16-11.59-39.39L187.43,164,199,124.34,187.65,83.86l28-16.41,12.25-39.83,28,16.41,28.67-16,11.6,39.61L324.63,85,313,124.56l11.38,40.49-28,16.41Z"/><path class="cls-1" d="M255.92,203.78,283.49,220l12-39.39,27.35-16-10.94-40.05,11.38-38.95L295.53,68.54,284.15,29.37,255.92,45.13l-27.57-16.2-12,39.39L188.74,84.74l11.16,39.82-11.38,38.95,27.79,17.07,11.38,39Zm28,17.51-28-16.42-28.67,16-11.59-39.39L187.43,164,199,124.34,187.65,83.86l28-16.41,12.25-39.83,28,16.41,28.67-16,11.6,39.61L324.63,85,313,124.56l11.38,40.49-28,16.41Z"/><g class="cls-11"><path class="cls-1" d="M4.7,2.45H500.36V394.38H4.7Z"/><rect class="cls-1" x="4.7" y="2.45" width="495.65" height="391.93"/><g class="cls-3"><path class="cls-1" d="M163.79,4H348.05V244.92H163.79Z"/></g></g><path class="cls-1" d="M255.92,202.69h.22l26.92,15.75,11.81-38.73h.22l26.92-16-10.94-39.39v-.43l11.16-38.08L294.87,69v-.44L283.49,30.46,255.7,46h-.22L228.57,30.25,216.75,69h-.22L189.62,84.74l10.94,39.38v.44L189.4,162.42l27.35,16.85,11.38,38.51Zm28.45,20.13-28.45-16.63L227,222.38l-11.82-40-28.67-17.72,11.6-40.05L186.77,83.42,215,66.79l12.47-40.48L255.7,42.94l28.89-16.2,11.82,40.05L325.07,84.3l-11.6,40.26,11.38,41.14-28.23,16.63Z"/><path class="cls-1" d="M255.92,202.69h.22l26.92,15.75,11.81-38.73h.22l26.92-16-10.94-39.39v-.43l11.16-38.08L294.87,69v-.44L283.49,30.46,255.7,46h-.22L228.57,30.25,216.75,69h-.22L189.62,84.74l10.94,39.38v.44L189.4,162.42l27.35,16.85,11.38,38.51Zm28.45,20.13-28.45-16.63L227,222.38l-11.82-40-28.67-17.72,11.6-40.05L186.77,83.42,215,66.79l12.47-40.48L255.7,42.94l28.89-16.2,11.82,40.05L325.07,84.3l-11.6,40.26,11.38,41.14-28.23,16.63Z"/><g class="cls-12"><path class="cls-1" d="M4.7,2.45H500.36V394.38H4.7Z"/><rect class="cls-1" x="4.7" y="2.45" width="495.65" height="391.93"/><g class="cls-3"><path class="cls-1" d="M162.92,2.67h186V246.23h-186Z"/></g></g><path class="cls-1" d="M215.66,68.32,203.84,51l.66-.65,11.81,17.29Z"/><polygon class="cls-1" points="215.66 68.32 203.84 51.03 204.5 50.38 216.31 67.67 215.66 68.32"/><g class="cls-13"><path class="cls-1" d="M4.7,2.45H500.36V394.38H4.7Z"/><rect class="cls-1" x="4.7" y="2.45" width="495.65" height="391.93"/><g class="cls-3"><path class="cls-1" d="M180.42,26.74H240V92H180.42Z"/></g></g><path class="cls-1" d="M215.66,69.85,203,51l1.54-2.18,12.69,18.82Z"/><polygon class="cls-1" points="215.66 69.85 202.96 51.03 204.5 48.85 217.19 67.67 215.66 69.85"/><g class="cls-14"><path class="cls-1" d="M4.7,2.45H500.36V394.38H4.7Z"/><rect class="cls-1" x="4.7" y="2.45" width="495.65" height="391.93"/><g class="cls-3"><path class="cls-1" d="M179.33,25.21h61.49V93.27H179.33Z"/></g></g><path class="cls-1" d="M256.14,44.69h-.66l.44-24.07h.66Z"/><polygon class="cls-1" points="256.14 44.69 255.48 44.69 255.92 20.62 256.58 20.62 256.14 44.69"/><g class="cls-15"><path class="cls-1" d="M4.7,2.45H500.36V394.38H4.7Z"/><rect class="cls-1" x="4.7" y="2.45" width="495.65" height="391.93"/><g class="cls-3"><path class="cls-1" d="M231.85-3h48.36V68.1H231.85Z"/></g></g><path class="cls-1" d="M257,45.56h-2.19l.22-26,2.4.22Z"/><polygon class="cls-1" points="257.01 45.56 254.83 45.56 255.05 19.52 257.45 19.74 257.01 45.56"/><g class="cls-16"><path class="cls-1" d="M4.7,2.45H500.36V394.38H4.7Z"/><rect class="cls-1" x="4.7" y="2.45" width="495.65" height="391.93"/><g class="cls-3"><path class="cls-1" d="M231.19-4.11h49.9V69.2h-49.9Z"/></g></g><path class="cls-1" d="M296.19,68.32l-.66-.65L307.78,51l.44.88Z"/><polygon class="cls-1" points="296.19 68.32 295.53 67.67 307.78 51.03 308.22 51.91 296.19 68.32"/><g class="cls-17"><path class="cls-1" d="M4.7,2.45H500.36V394.38H4.7Z"/><rect class="cls-1" x="4.7" y="2.45" width="495.65" height="391.93"/><g class="cls-3"><path class="cls-1" d="M272.11,27.4h60V92h-60Z"/></g></g><path class="cls-1" d="M296.19,69.85l-1.75-2.18L307.78,49.5l1.54,2.41Z"/><polygon class="cls-1" points="296.19 69.85 294.44 67.67 307.78 49.5 309.32 51.91 296.19 69.85"/><g class="cls-18"><path class="cls-1" d="M4.7,2.45H500.36V394.38H4.7Z"/><rect class="cls-1" x="4.7" y="2.45" width="495.65" height="391.93"/><g class="cls-3"><path class="cls-1" d="M271,25.87h62.15v67.4H271Z"/></g></g><path class="cls-1" d="M329.23,125.44,312.38,125v-1.09l16.85.65Z"/><polygon class="cls-1" points="329.23 125.44 312.38 125 312.38 123.91 329.23 124.56 329.23 125.44"/><g class="cls-19"><path class="cls-1" d="M4.7,2.45H500.36V394.38H4.7Z"/><rect class="cls-1" x="4.7" y="2.45" width="495.65" height="391.93"/><g class="cls-3"><path class="cls-1" d="M288.75,100.49h64.11v48.8H288.75Z"/></g></g><path class="cls-1" d="M330.11,126.53l-18.61-.44.22-3.28,18.39.66Z"/><polygon class="cls-1" points="330.11 126.53 311.5 126.09 311.72 122.81 330.11 123.47 330.11 126.53"/><g class="cls-20"><path class="cls-1" d="M4.7,2.45H500.36V394.38H4.7Z"/><rect class="cls-1" x="4.7" y="2.45" width="495.65" height="391.93"/><g class="cls-3"><path class="cls-1" d="M288.09,99.4h65.65v51H288.09Z"/></g></g><path class="cls-1" d="M307.35,198.75l-11.82-17.29.66-.88,11.59,17.29Z"/><polygon class="cls-1" points="307.35 198.75 295.53 181.46 296.19 180.58 307.78 197.87 307.35 198.75"/><g class="cls-21"><path class="cls-1" d="M4.7,2.45H500.36V394.38H4.7Z"/><rect class="cls-1" x="4.7" y="2.45" width="495.65" height="391.93"/><g class="cls-3"><path class="cls-1" d="M271.9,157.17h59.52v65.21H271.9Z"/></g></g><path class="cls-1" d="M307.35,200.06l-12.91-18.6,1.75-2.19,12.69,18.6Z"/><polygon class="cls-1" points="307.35 200.06 294.44 181.46 296.19 179.27 308.88 197.87 307.35 200.06"/><g class="cls-22"><path class="cls-1" d="M4.7,2.45H500.36V394.38H4.7Z"/><rect class="cls-1" x="4.7" y="2.45" width="495.65" height="391.93"/><g class="cls-3"><path class="cls-1" d="M271,155.64h61.49v68.27H271Z"/></g></g><path class="cls-1" d="M204.06,197.87l-.66-.66,12.26-16.63.43.88Z"/><polygon class="cls-1" points="204.06 197.87 203.4 197.21 215.66 180.58 216.09 181.46 204.06 197.87"/><g class="cls-23"><path class="cls-1" d="M4.7,2.45H500.36V394.38H4.7Z"/><rect class="cls-1" x="4.7" y="2.45" width="495.65" height="391.93"/><g class="cls-3"><path class="cls-1" d="M179.77,157h60V221.5h-60Z"/></g></g><path class="cls-1" d="M204.06,199.4l-1.75-2.19,13.35-17.94,1.53,2.19Z"/><polygon class="cls-1" points="204.06 199.4 202.31 197.21 215.66 179.27 217.19 181.46 204.06 199.4"/><g class="cls-24"><path class="cls-1" d="M4.7,2.45H500.36V394.38H4.7Z"/><rect class="cls-1" x="4.7" y="2.45" width="495.65" height="391.93"/><g class="cls-3"><path class="cls-1" d="M178.89,155.64h61.93V223H178.89Z"/></g></g><path class="cls-1" d="M199.24,125l-16.85-.44v-1.09l17.07.44Z"/><polygon class="cls-1" points="199.24 125 182.39 124.56 182.39 123.47 199.46 123.91 199.24 125"/><g class="cls-25"><path class="cls-1" d="M4.7,2.45H500.36V394.38H4.7Z"/><rect class="cls-1" x="4.7" y="2.45" width="495.65" height="391.93"/><g class="cls-3"><path class="cls-1" d="M158.76,99.83h64.12v48.8H158.76Z"/></g></g><path class="cls-1" d="M200.12,126.09l-18.38-.43v-3.29l18.38.66Z"/><polygon class="cls-1" points="200.12 126.09 181.74 125.66 181.74 122.37 200.12 123.03 200.12 126.09"/><g class="cls-26"><path class="cls-1" d="M4.7,2.45H500.36V394.38H4.7Z"/><rect class="cls-1" x="4.7" y="2.45" width="495.65" height="391.93"/><g class="cls-3"><path class="cls-1" d="M158.1,98.74h65.65v51H158.1Z"/></g></g><ellipse class="cls-27" cx="255.26" cy="125" rx="89.36" ry="121.53"/><circle class="cls-27" cx="139.32" cy="152.66" r="21.53"/><circle class="cls-28" cx="139.32" cy="152.66" r="14.48"/><circle class="cls-27" cx="139.32" cy="95.15" r="21.53"/><circle class="cls-28" cx="139.32" cy="95.15" r="14.48"/><circle class="cls-27" cx="111.08" cy="124.27" r="16.27"/><circle class="cls-28" cx="111.08" cy="124.27" r="10.94"/><line class="cls-29" x1="136.05" y1="73.62" x2="185.62" y2="48.85"/><line class="cls-29" x1="136.05" y1="174.85" x2="185.62" y2="199.62"/><circle class="cls-27" cx="371.82" cy="152.66" r="21.53"/><circle class="cls-28" cx="371.82" cy="152.66" r="14.48"/><circle class="cls-27" cx="371.82" cy="95.15" r="21.53"/><circle class="cls-28" cx="371.82" cy="95.15" r="14.48"/><circle class="cls-27" cx="400.06" cy="124.27" r="16.27"/><circle class="cls-28" cx="400.06" cy="124.27" r="10.94"/><line class="cls-29" x1="375.09" y1="73.62" x2="325.52" y2="48.85"/><line class="cls-29" x1="375.09" y1="174.85" x2="325.52" y2="199.62"/><rect class="cls-29" x="9.84" y="108" width="117.51" height="32.53" rx="16.27"/><rect class="cls-29" x="384.65" y="107.73" width="117.51" height="32.53" rx="16.27"/></svg>