<svg id="Layer_1" data-name="Layer 1" xmlns="http://www.w3.org/2000/svg" viewBox="0 0 400 400"><defs><style>.cls-1{fill:#231f20;}</style></defs><path class="cls-1" d="M191.87,266.67v94.22H123.74a26.61,26.61,0,0,0-52,0H38.17a13.32,13.32,0,0,1-8.51-2.13,6.92,6.92,0,0,1-2.27-8.39,5.16,5.16,0,0,1,1.47-.66h16a9.12,9.12,0,0,0,5.85-1.33,4.13,4.13,0,0,0,2.13-4.26,3.33,3.33,0,0,0-3.66-3l-.2,0H17.68a14.27,14.27,0,0,1-3.33,0,2.38,2.38,0,0,1-1.86-2.66A2.66,2.66,0,0,1,13.86,335l.23-.08a17.79,17.79,0,0,1,3.86,0H38.57a5.2,5.2,0,0,0,5.86-4.39,3.86,3.86,0,0,0-2.93-4.26,16.57,16.57,0,0,0-3.59,0H5.57A7.51,7.51,0,0,1,2,325a2.4,2.4,0,0,1-1.2-4.13,6.55,6.55,0,0,1,2.79-2.26,14.29,14.29,0,0,1,4.13,0H43.63a16.51,16.51,0,0,0,5.06-.93,3.73,3.73,0,0,0-.67-7.06,10.86,10.86,0,0,0-2.79,0H27.39a8,8,0,0,1-4.26-1.33,2.4,2.4,0,0,1,0-4.39A10.5,10.5,0,0,1,27.39,303H54.54a4.25,4.25,0,0,0,4-2.93,3.59,3.59,0,0,0-1.2-4.26A6.65,6.65,0,0,0,52.41,294H19.28a10,10,0,0,1-4.4-.67,3.32,3.32,0,0,1-.79-2.92,2.78,2.78,0,0,1,1.73-2.13,9,9,0,0,1,3.86-.8H47.49a8.26,8.26,0,0,0,2.53,0,4.24,4.24,0,0,0,2.92-3.06A3.84,3.84,0,0,0,51.35,280a8.42,8.42,0,0,0-5.59-1.6H27.39a18.94,18.94,0,0,1,0-7.72,7.87,7.87,0,0,1,7.06-4,61.44,61.44,0,0,1,6.92,0Zm-72.39,39.92L97.26,319.9l22.35,13.31v-6.79h39.93V314.18H119.61ZM97.39,282.64v12.51h39.92v6.52l22.09-13.31-22.09-13.31v6.66Zm59.48,70.53h20.36c2,0,3.2-1.33,2.8-3.06s-1.2-2.26-3.19-2.26H136.91a2.65,2.65,0,0,0-3,2.23,3,3,0,0,0,0,.43c0,1.73,1.07,2.66,3.2,2.66Z"/><path class="cls-1" d="M249.89,50.69v18.1L212.37,42.84l37.52-26.61V34.86A160.89,160.89,0,0,1,381.64,167h-15a145.45,145.45,0,0,0-65.47-96.61A128.22,128.22,0,0,0,249.89,50.69Z"/><path class="cls-1" d="M73.84,204.26,47.22,166.6H64.65c.94,0,1.33,0,1.6-1.2a161.57,161.57,0,0,1,108.32-125c6.92-2.26,14.37-3.46,21.56-5.19h2V49.89a141.63,141.63,0,0,0-76.25,39.92A138.79,138.79,0,0,0,82,166.33h18Z"/><path class="cls-1" d="M400,218.9H382a162.23,162.23,0,0,1-93.16,119.76V323.09a1.61,1.61,0,0,1,1.07-1.73,146.41,146.41,0,0,0,74.39-94.61c.66-2.66,1.06-5.46,1.59-8.52H347.84l26.61-37.53Z"/><path class="cls-1" d="M198.93,266.67H227a3.17,3.17,0,0,1,3.06,1.2L260,296.48c3.32,3.19,6.65,6.52,9.84,9.85a5.9,5.9,0,0,1,1.33,3.59v10.51H198.93Zm21.69,37.39V282c0-2.52-1.2-3.86-3.33-4s-3.33,1.47-3.33,3.86v24.35c0,3.6.93,4.53,4.53,4.53h20.62a3.27,3.27,0,0,0,.4-6.52H220.62Z"/><path class="cls-1" d="M64.65,259.35V246a8.27,8.27,0,0,1,6-6,19.84,19.84,0,0,1,6.26-.94H181.09a18.07,18.07,0,0,1,4.53,0,8.12,8.12,0,0,1,6.12,7.32v13.31Zm63.75-11.44H75.17c-1.33,0-2.13,0-2.13,1.73s0,2.26,2.79,2.26H182.29c1.73,0,2.4-.67,2.26-2.4s-1.46-1.59-2.52-1.59Z"/><path class="cls-1" d="M250.69,188.69H199.06c-1.6,0-2,0-2-2,0-11.44.93-22.75,1.47-34.06a2.12,2.12,0,0,1,1.84-2.38l.29,0h45.11c2.66,0,3.32,0,3.46,3.19,0,9.19.93,18.37,1.46,27.42C250.82,183.37,250.69,185.89,250.69,188.69Z"/><path class="cls-1" d="M251.09,197.07v13.31c0,7.32-.93,14.77-1.2,22.09,0,2.26,0,2.66-2.79,2.66H205.85a2.67,2.67,0,0,1-2.4-1.33l-3.73-4.39a3.28,3.28,0,0,1-.79-1.86c0-9.72-1.07-19.57-1.47-29.41v-1.33Z"/><path class="cls-1" d="M248.43,142.25H199.06l1.33-8.65,4.79-25.82v-1.33a3.49,3.49,0,0,1,3.19-2.53h29.15c2.66,0,3.59.8,4.12,3.33,1.33,6.52,2.4,13.3,3.6,19.56s1.73,9.45,2.52,14.11A3.63,3.63,0,0,1,248.43,142.25Z"/><path class="cls-1" d="M147.16,188.56a87.63,87.63,0,0,1,0-10.25c.8-7.32,1.86-14.77,2.93-22.09a26,26,0,0,1,0-3.06,3.46,3.46,0,0,1,3.46-2.8h36.06l-1.86,38.06Z"/><path class="cls-1" d="M257,235.13l1.86-38.06h42.05v7.06a176.53,176.53,0,0,1-4.26,28.74,2.53,2.53,0,0,1-2.64,2.41l-.15,0H257Z"/><path class="cls-1" d="M301.26,188.56H258.81L257,150.23h35.66c3.06,0,3.59,0,4.26,3.46a183.69,183.69,0,0,1,4,29.54Z"/><path class="cls-1" d="M198.93,360.62v-33.4h71.72v33.27h-6.78a26.77,26.77,0,0,0-4.53-10.92,25.16,25.16,0,0,0-25.55-11,25.55,25.55,0,0,0-21.16,18.63c-1.06,3.46-.93,3.46-4.52,3.46Z"/><path class="cls-1" d="M197.86,104.05l-4.39,26.62c0,3.06-.8,6.12-1.33,9.18a2.66,2.66,0,0,1-2.78,2.54H153.55c1.46-4.26,2.92-8.52,4.52-13.31a124.17,124.17,0,0,1,12.24-23.55,4.43,4.43,0,0,1,3.46-1.47h24.09Z"/><path class="cls-1" d="M293.54,142.38H256.28l-6.52-38.33h23.29a4.54,4.54,0,0,1,4.52,2.93,129.57,129.57,0,0,1,16,33Z"/><path class="cls-1" d="M304.85,235.26l4.66-38.19h32.6v8a121.06,121.06,0,0,1-6.25,27.28c-.93,2.26-1.6,2.92-4.13,2.92Z"/><path class="cls-1" d="M138.24,188.56H105.51a37.32,37.32,0,0,1,.93-10.25,113.22,113.22,0,0,1,5.85-24.89,4,4,0,0,1,4.13-3.06H142.9Z"/><path class="cls-1" d="M304.72,150.23h26.61a3.61,3.61,0,0,1,3.6,2.66,115.22,115.22,0,0,1,6.12,26.62c0,2.92.8,5.85,1.2,8.78H309.51Z"/><path class="cls-1" d="M146.23,196.94h42.71l1.34,27.68a119.81,119.81,0,0,0-24.89-1.07h-16.5Z"/><path class="cls-1" d="M293.54,243.38A124.31,124.31,0,0,1,283,269.07c-1.86,3.59-4,6.92-6,10.24a4.52,4.52,0,0,1-3.86,2.13,6.66,6.66,0,0,1-5.85-2.26c-4.53-4.53-9.19-8.92-13.31-13.31a3.06,3.06,0,0,1-1.07-3.06c1.2-6.52,2.27-13.31,3.46-19.43Z"/><path class="cls-1" d="M285.16,281.44a145.76,145.76,0,0,0,12-23.69c1.6-4.12,2.93-8.38,4.4-12.64a2.11,2.11,0,0,1,2.26-2H330.4V245a116.51,116.51,0,0,1-26.61,35.26,4.56,4.56,0,0,1-3.2,1.2Z"/><path class="cls-1" d="M117.09,142.51a14.43,14.43,0,0,1,0-1.86,110.8,110.8,0,0,1,26.61-35,5.48,5.48,0,0,1,4-1.6H162.2a17,17,0,0,0-.8,1.6A141.63,141.63,0,0,0,146.1,140c0,1.87-1.2,2.53-3.6,2.53Z"/><path class="cls-1" d="M285.69,104.05h15a5,5,0,0,1,3.06,1.6,106.28,106.28,0,0,1,20.62,24.89c2,3.32,3.86,6.78,5.73,10.24l.79,1.6H305c-2.27,0-3.07,0-3.73-2.8A143.13,143.13,0,0,0,286.75,107l-.79-1.46S285.82,104.59,285.69,104.05Z"/><path class="cls-1" d="M117.09,364.21a19.43,19.43,0,1,1,0-3.21A21.5,21.5,0,0,1,117.09,364.21Zm-9.72,0a9.71,9.71,0,0,0-9.58-9.84h-.13a9.71,9.71,0,1,0,9.58,9.84Z"/><path class="cls-1" d="M237.92,344.92a19.43,19.43,0,1,1-19.43,19.43h0a19.28,19.28,0,0,1,19.16-19.43Zm9.58,19.29a9.45,9.45,0,0,0-9.31-9.58h-.41a9.72,9.72,0,0,0-2.27,19.3,9.58,9.58,0,0,0,2.27,0,9.45,9.45,0,0,0,9.72-9.18Z"/><path class="cls-1" d="M105,196.94h33.13l3.33,26.61H111.23c-1.33,0-1.86,0-2-1.73-1.33-8-2.79-16.1-4.25-24.08Z"/><path class="cls-1" d="M238.85,96.07H208.64a65.13,65.13,0,0,1,9.18-19.43,9.18,9.18,0,0,1,12.38,0A64,64,0,0,1,238.85,96.07Z"/><path class="cls-1" d="M239.11,75.84A52.1,52.1,0,0,1,268.66,96.2H250.29a4,4,0,0,1-4.12-2.53C243.9,87.55,241.51,81.7,239.11,75.84Z"/><path class="cls-1" d="M208.77,75c-2.53,6.52-5.05,12.51-7.32,18.63a3.57,3.57,0,0,1-3.59,2.53H177.77A69.56,69.56,0,0,1,208.77,75Z"/><path class="cls-1" d="M245.9,258.15c-1.46-1.33-2.53-2.53-3.86-3.59s-4.66-3.46-7-5.19a4.13,4.13,0,0,0-2.26,0H207.18v-5.46h41.91Z"/><path class="cls-1" d="M268.92,83.29a5.17,5.17,0,0,1,1.47,0l12.11,6.79,7.85,4.13a4.16,4.16,0,0,1,.93,1.19,4,4,0,0,1-1.2,0H282a4.6,4.6,0,0,1-3.72-1.73L268.66,82.9Z"/><path class="cls-1" d="M178.17,83.83c-3.06,3.72-6.13,7.58-9.32,11.31a3.3,3.3,0,0,1-2.39,1.06H156.34c-.4,0,0-.93.67-1.06L177.9,83.83Z"/></svg>