<svg id="Layer_1" data-name="Layer 1" xmlns="http://www.w3.org/2000/svg" viewBox="0 0 60 60"><defs><style>.cls-1{fill:#231f20;}</style></defs><path class="cls-1" d="M51.08,21.39a45.72,45.72,0,0,1-1.57,12,41.74,41.74,0,0,1-5.74,13,43.35,43.35,0,0,1-8.14,9.28A53.2,53.2,0,0,1,31.12,59a1.76,1.76,0,0,1-2.24,0A44.83,44.83,0,0,1,19,50.07a42.59,42.59,0,0,1-6-9.55A43.61,43.61,0,0,1,9.55,29a39.18,39.18,0,0,1-.44-10.7,19.22,19.22,0,0,1,3.5-8.79,20.22,20.22,0,0,1,8.63-7.06,21.23,21.23,0,0,1,12-1.59A20.91,20.91,0,0,1,43.09,5a20,20,0,0,1,7.33,11.1A19.18,19.18,0,0,1,51.08,21.39ZM18,31.14c.1.35.15.65.26.93,1.69,4.22,3.4,8.44,5,12.68a2.56,2.56,0,0,0,1.28,1.44q2.4,1.2,4.79,2.43a1,1,0,0,0,1,0c1.67-.86,3.35-1.72,5-2.55a1.68,1.68,0,0,0,.9-.95c.57-1.47,1.18-2.93,1.77-4.39l3.54-8.77a1.67,1.67,0,0,0,.19-.88,33,33,0,0,1-.34-3.71c-.19-4.09-.82-8.15-.87-12.25a1.8,1.8,0,0,0-1-1.69c-2.82-1.67-5.65-3.34-8.42-5.09a2.43,2.43,0,0,0-3,.13C26.22,9.77,24.13,11.07,22,12.3c-2.7,1.57-2.79,1.67-2.85,4.75,0,.61,0,1.22,0,1.82-.11,1.61-.21,3.23-.46,4.8C18.26,26.17,18.64,28.71,18,31.14Zm32.1-11.89a1.14,1.14,0,0,0-.58.6c-2.07,3.6-4.12,7.21-6.2,10.8A3.48,3.48,0,0,0,43,32.92c.26,2.16.78,4.27,1,6.43a9.81,9.81,0,0,0,.83,3.51A44.58,44.58,0,0,0,50.12,19.25Zm-40-.06a6,6,0,0,0-.23.66,6.73,6.73,0,0,0-.07,1,53.44,53.44,0,0,0,1.35,11.61A44.41,44.41,0,0,0,14.72,42c.1.2.14.53.46.47s.23-.33.26-.53c.48-2.83.91-5.67,1.44-8.49a4.46,4.46,0,0,0-.74-3.6c-.5-.72-.88-1.52-1.31-2.29Zm31.4-4A40.92,40.92,0,0,0,42,21.31c.2,2.5.16,5,.57,7.51,0,.25,0,.64.29.69s.38-.32.51-.55c1.94-3.39,3.86-6.79,5.81-10.18.32-.55.24-.91-.32-1.16l-6.73-3C41.57,14.39,41.39,14.61,41.52,15.15Zm-23,.09c.09-.63-.12-.87-.76-.58-2.2,1-4.41,2-6.63,3-.57.25-.49.58-.25,1Q13.76,23.84,16.64,29c.12.21.2.53.47.5s.32-.41.33-.66c.06-1,.06-2.07.14-3.09C17.87,22.24,18.19,18.74,18.5,15.24Zm31.17,1.63a12.88,12.88,0,0,0-.35-1.64,20.2,20.2,0,0,0-8.5-10.76c-.21-.13-.42-.33-.66-.22s-.09.44-.06.65c.34,2.6.61,5.21,1.12,7.78a1.09,1.09,0,0,0,.7.87c1.44.64,2.85,1.33,4.31,1.93A18.59,18.59,0,0,0,49.67,16.87ZM19.83,5c0-.32.05-.55-.19-.67s-.34,0-.5.15a19.94,19.94,0,0,0-8.63,11.41c-.07.25-.24.55,0,.77s.52,0,.74-.1c2.22-1,4.43-2,6.65-2.95a1.42,1.42,0,0,0,.81-1,21.78,21.78,0,0,0,.37-2.24C19.44,8.59,19.39,6.72,19.83,5ZM29.9,1.5a18.24,18.24,0,0,0-7.44,1.39c-.21.08-.54.1-.54.4s.33.31.54.39l6.87,2.67a1.46,1.46,0,0,0,1.14,0l7.05-2.7c.19-.08.47-.1.51-.33s-.3-.33-.5-.42A17.54,17.54,0,0,0,29.9,1.5ZM40.25,11.89c-.1-.42-.24-.86-.31-1.3-.26-1.86-.52-3.72-.76-5.58-.1-.74-.53-.91-1.17-.67s-1,.47-1.59.66c-1.58.54-3.13,1.13-4.69,1.73-.2.08-.5.14-.52.43,0,.1.16.23.28.31l8.12,4.86C40.09,12.61,40.29,12.43,40.25,11.89Zm-20.63.74c.33-.17.58-.27.81-.41,2.52-1.53,5-3.05,7.55-4.59.22-.13.62-.2.56-.51s-.44-.38-.73-.48C25.89,5.91,24,5.19,22,4.44c-.92-.36-1.13-.28-1.28.66C20.38,7.56,20,10,19.62,12.63ZM42.17,33.47c-.23.43-.4.68-.51,1-.65,1.56-1.3,3.13-1.93,4.69-.7,1.74-1.38,3.49-2.09,5.23-.31.77,0,.91.68.73,1.46-.39,2.92-.78,4.4-1.11a1.05,1.05,0,0,0,1-1.41C43.17,39.6,42.7,36.65,42.17,33.47ZM21.89,45.19c.66.08.56-.23.4-.65-1.36-3.37-2.69-6.75-4-10.12-.1-.24-.08-.65-.45-.57s-.27.44-.29.71c-.27,2.77-.94,5.47-1.37,8.22-.08.56.05.9.57,1Zm21.85-.53c-2.26.38-4.26,1.08-6.31,1.55-.38.08-.51.35-.63.69-.53,1.52-.67,3.13-1,4.68-.19.8-.36,1.6-.53,2.4,0,.17-.08.4.12.48a.62.62,0,0,0,.41-.13,5,5,0,0,0,.55-.47,41.34,41.34,0,0,0,4.28-4.6A34.1,34.1,0,0,0,43.74,44.66ZM33.56,55.75a3,3,0,0,0-.22-.46c-1-1.41-1.93-2.8-2.87-4.21-.41-.64-.71-.71-1.15,0-.93,1.46-1.9,2.89-2.86,4.32a.61.61,0,0,0,.15,1c.86.62,1.74,1.22,2.6,1.84A1.31,1.31,0,0,0,31,58.1c.72-.56,1.48-1.06,2.23-1.57A.73.73,0,0,0,33.56,55.75Zm-8.81-1.2A70.18,70.18,0,0,0,23,46.79a.69.69,0,0,0-.47-.52q-2.72-.72-5.45-1.41c-.18,0-.44-.15-.57.09s.09.4.2.56c.76,1.06,1.48,2.15,2.29,3.17A29.75,29.75,0,0,0,24.75,54.55Zm11-7.61c-1.73.69-3.24,1.57-4.8,2.36-.47.23-.3.58-.07.91.85,1.29,1.7,2.58,2.57,3.86.13.19.26.49.52.45s.31-.41.36-.66C34.85,51.62,35.3,49.37,35.8,46.94Zm-11.7-.06c.39,2.47,1.16,4.68,1.48,7,0,.18.08.38.27.43s.38-.13.5-.3c.83-1.3,1.65-2.61,2.5-3.9.31-.46.17-.7-.27-.93C27.12,48.44,25.68,47.69,24.1,46.88Z"/></svg>