<svg id="Layer_1" data-name="Layer 1" xmlns="http://www.w3.org/2000/svg" viewBox="0 0 60 60"><path d="M60,30.09c-.4,1.52-.81,3.1-1.23,4.69-.76,2.83-1.6,5.65-2.25,8.5a8,8,0,0,1-2.66,3.89c-2.76,2.71-5.52,5.42-8.22,8.19-1,1-2.27,1-3.43,1.38-3.85,1.12-7.75,2.11-11.63,3.15a2,2,0,0,1-1,0L15.48,56.14c-.73-.19-1.1-.84-1.59-1.31C11.26,52.27,8.76,49.57,6,47.14a10.14,10.14,0,0,1-2.93-5.37c-.94-3.5-1.92-7-2.88-10.5a3.21,3.21,0,0,1-.14-1.74c1.25-4.61,2.46-9.24,3.72-13.86.36-1.31,1.55-2,2.42-2.95,2.36-2.47,4.84-4.84,7.21-7.31A6.72,6.72,0,0,1,16.69,3.5C20.78,2.42,24.85,1.29,28.93.19A2.86,2.86,0,0,1,30.47.06Q37.3,1.92,44.13,3.72a3.47,3.47,0,0,1,1.58,1c3,3.07,6.1,6.15,9.19,9.18a5.68,5.68,0,0,1,1.6,2.76c1.1,4.19,2.22,8.37,3.33,12.55C59.9,29.45,59.93,29.73,60,30.09Zm-21-.58h7c1.34,0,1.36,0,.68-1.23Q43.35,22.53,40,16.79c-1-1.64-1-1.64-1.91,0-2.26,4-4.51,7.94-6.81,11.9-.39.67-.24.81.47.81C34.18,29.5,36.59,29.51,39,29.51Zm-18.1,0v0H28c1,0,1.08-.12.58-1L21.45,16.24c-.56-1-.68-1-1.25,0q-3.49,6.13-7,12.25c-.49.86-.43,1,.58,1h7.12ZM30,45.26h7.33c.62,0,.88-.11.46-.76S37,43,36.54,42.22Q33.48,37,30.43,31.73c-.24-.41-.41-.82-.81-.11Q26,38,22.27,44.41c-.44.75-.17.86.55.86,2.41,0,4.82,0,7.23,0Zm-9.14-.47c.35-.56.6-.94.82-1.32l6.73-11.72c.17-.29.55-.56.4-.91s-.68-.26-1-.26q-6.91,0-13.83,0c-.36,0-.85-.19-1,.24s.2.71.39,1l3.86,6.6c1.21,2,2.41,4.08,3.72,6.32ZM30,29.07C31.22,26.94,32.34,25,33.47,23l4.22-7.36c.13-.23.39-.46.19-.76s-.51-.14-.78-.13c-1.6,0-3.21.05-4.82.06H23.17c-1.38,0-1.39,0-.74,1.27.3.59.67,1.14,1,1.71,2.15,3.67,4.29,7.35,6.56,11.25Zm9.07,15.59c.15-.11.22-.14.25-.19q3.78-6.51,7.55-13c.45-.77.09-.87-.59-.87H32c-.88,0-1,.22-.57,1,1.58,2.71,3.11,5.45,4.68,8.16C37.1,41.39,38.09,43,39.07,44.66Zm-.88-31c-2.68-4-5.26-7.9-7.82-11.76-.45-.67-.69-.3-1,.14q-3.49,5.34-7,10.68c-.16.25-.49.54-.34.83s.64.18,1,.18h14l1.13-.07ZM11.83,29c.42-.74.75-1.3,1.07-1.87l6.53-11.35c.43-.74.24-1-.59-1-1,.08-2.09.15-3.13.21-3.07.21-6.14.39-9.2.62-1.28.09-1.37.29-.81,1.39q1.71,3.36,3.43,6.72Zm29,16.12c4.37-.08,8.71-.58,13.06-.75.77,0,.79-.4.52-1-.77-1.56-1.53-3.13-2.3-4.7L48.73,32c-.37-.75-.72-.78-1.12,0-.27.53-.56,1.05-.86,1.56Q43.59,39,40.41,44.38C40.14,44.84,40,45.25,40.78,45.16Zm.59-30.27c-.17,0-.77-.25-1,.11s.24.81.45,1.18Q44.17,22.09,47.58,28c.44.76.7.77,1.12,0,.71-1.33,1.35-2.68,2-4,1.2-2.4,2.41-4.8,3.6-7.21.3-.6.46-1.13-.56-1.18-4-.2-8.08-.42-12.39-.65ZM11.83,31.11C9.71,35.38,7.66,39.5,5.62,43.62c-.33.65.06.76.6.82,4.21.44,8.44.47,12.65.79.3,0,.7.15.88-.15s-.13-.65-.29-.94L15,36.54C14,34.78,13,33,11.83,31.11Zm18.3,15.2h-6.7c-.4,0-1-.21-1.17.19s.25.82.49,1.18c2.25,3.4,4.54,6.78,6.77,10.21.44.67.63.66,1.05,0q3.48-5.36,7-10.67c.48-.74.31-1-.52-1C34.74,46.33,32.44,46.31,30.13,46.31ZM5.45,14.6c1.45,0,2.49.05,3.52,0,3.33-.22,6.66-.51,10-.73.82-.06.94-.28.52-1q-2-3.37-3.93-6.78c-.37-.64-.7-.67-1.19-.18Q12.83,7.47,11.25,9ZM31,1.25,39.07,13.3c1.57-2.72,3-5.23,4.5-7.73.41-.68.22-1-.52-1.14C41.26,4,39.49,3.44,37.7,3,35.58,2.41,33.45,1.87,31,1.25ZM53.94,14.56c.06-.12.13-.22.19-.33L45.46,5.75c-.42-.42-.72-.46-1,.11q-2,3.49-4,7c-.38.65-.28.91.52,1,2.33.15,4.66.44,7,.52A45,45,0,0,0,53.94,14.56ZM27.87,1.48l-.56.15c-3.53,1-7.06,2-10.6,2.88-.94.25-.65.68-.35,1.2,1.31,2.23,2.63,4.44,3.9,6.69.47.82.82.69,1.24,0,.64-1,1.29-2,1.94-3q2.4-3.64,4.77-7.27c.11-.17.29-.34.18-.57S28.1,1.46,27.87,1.48ZM4.62,43.56l6.05-12.29c.27-.54,0-.68-.47-.68L2,30.62c-.65,0-.88.28-.7.92.33,1.18.64,2.37,1,3.54Zm1.42,2a1.82,1.82,0,0,0,.17.38l8.59,8.46c.4.4.56.21.77-.16,1.29-2.27,2.61-4.54,3.91-6.81.57-1,.53-1.15-.68-1.24-2.68-.2-5.36-.38-8-.46A28,28,0,0,0,6,45.57ZM55.38,16.75l-2.33,4.64c-1.19,2.37-2.36,4.74-3.56,7.1-.39.76-.26,1.05.65,1,2.51,0,5,0,7.54,0,.91,0,1.16-.24.92-1.15-.88-3.27-1.7-6.55-2.56-9.82C55.9,18,55.66,17.52,55.38,16.75Zm-24,41.67.17.2,1-.24,10.41-2.83c1-.27,1.1-.38.56-1.31-1.29-2.24-2.61-4.46-3.86-6.73-.44-.8-.7-.66-1.11,0-1.23,1.91-2.49,3.8-3.73,5.69Zm-2.53.25a3.29,3.29,0,0,0-.17-.39l-7-10.64c-.56-.85-.72-.87-1.25,0-1.32,2.3-2.6,4.62-3.94,6.91-.38.65-.13.81.48,1,2.44.62,4.85,1.3,7.28,1.94C25.71,57.9,27.22,58.27,28.83,58.67ZM54,45.94l-.3-.36a.75.75,0,0,0-.29-.09c-4.19.08-8.38.34-12.56.65-.72.06-.79.38-.43,1,1.3,2.23,2.6,4.46,3.85,6.73.45.83.8.76,1.39.15q1.92-2,3.93-3.93C51.07,48.68,52.56,47.32,54,45.94ZM4.47,16.69c-1.08,4.11-2.1,8-3.13,11.85-.18.7-.16,1.23.75,1.15,2.68-.24,5.37-.12,8.06-.15.6,0,.73-.19.45-.74-.85-1.64-1.66-3.3-2.5-4.95C6.93,21.52,5.74,19.2,4.47,16.69ZM55.41,43.35C56,41.3,56.48,39.53,57,37.76c.56-2.09,1.11-4.18,1.67-6.27.14-.52.13-.91-.57-.9H49.77c-.49,0-.62.22-.41.66.14.28.25.58.39.86q2.07,4.13,4.12,8.24C54.34,41.28,54.82,42.19,55.41,43.35Z"/></svg>