<svg id="Layer_1" data-name="Layer 1" xmlns="http://www.w3.org/2000/svg" viewBox="0 0 60 60"><defs><style>.cls-1{fill:#231f20;}</style></defs><path class="cls-1" d="M14.64,30.28a36.6,36.6,0,0,1,3.91-15.73A43.8,43.8,0,0,1,28.75,1.61C30,.49,30.28.55,31.55,1.72a47.87,47.87,0,0,1,8.24,9.72,38.82,38.82,0,0,1,4.38,10,31.65,31.65,0,0,1,1.21,8.69,32.86,32.86,0,0,1-2.12,11.7,40.32,40.32,0,0,1-12,16.69c-1.12,1-1.23,1-2.38,0A39.49,39.49,0,0,1,16.22,40.23,23.23,23.23,0,0,1,14.94,34,29.94,29.94,0,0,1,14.64,30.28Zm7.55-.44c.31,1.25.53,2.44.9,3.57.94,2.88,1.58,5.84,2.46,8.73.12.38.05.81.36,1.15,1.17,1.32,2.36,2.63,3.48,4,.57.69,1,.55,1.45,0,.65-.79,1.33-1.57,2-2.31a6.65,6.65,0,0,0,2-3.55,16.15,16.15,0,0,1,.48-1.78c.8-2.82,1.61-5.64,2.4-8.46a4.92,4.92,0,0,0-.08-2.69C36.8,25.29,36,22.11,35.1,19a7,7,0,0,0-1.49-3.34c-1-1-2-2.07-2.94-3.16-.51-.59-.84-.5-1.3,0-1.13,1.31-2.3,2.59-3.46,3.88a1.49,1.49,0,0,0-.3.71q-1.07,4.09-2.15,8.18C23,26.8,22.6,28.35,22.19,29.84ZM19,23.16c-.22.25-.32.32-.36.42q-1.37,2.87-2.7,5.74a2,2,0,0,0,.13,1.86c.8,1.61,1.56,3.23,2.34,4.85.11.21.08.61.43.57s.39-.37.43-.61a13.7,13.7,0,0,1,1-3.1,6.74,6.74,0,0,0,0-5.91A37.21,37.21,0,0,1,19,23.16ZM41.29,36.68c.81-1.15,1.09-2.43,1.75-3.52,1.15-1.9,1.6-3.77.23-5.8-.81-1.2-1.12-2.68-1.93-3.93a1.52,1.52,0,0,0-.52.86c-.38,1.1-.73,2.22-1.12,3.32-.45,1.25-.89,2.46-.3,3.81C40.13,33.1,40.46,34.93,41.29,36.68ZM25.76,49.61c-.24-1.86-.49-3.72-.73-5.58a1.27,1.27,0,0,0-.52-.79L20,39.66c-.13-.1-.26-.28-.46-.15s-.15.31-.12.48a44.08,44.08,0,0,1,.18,4.74,2.5,2.5,0,0,0,1.14,2.15C22.24,47.86,23.62,49,25,50c.18.13.34.44.58.33S25.71,49.85,25.76,49.61Zm14.89-8.54h0c0-.29,0-.59,0-.88s.12-.51-.16-.63-.37.14-.52.26l-4.27,3.4a1,1,0,0,0-.44.63q-.4,3-.78,6c0,.16-.05.38.13.47s.37-.12.53-.23c1.53-1.18,3.06-2.37,4.61-3.54a1.33,1.33,0,0,0,.58-1C40.41,44.05,40.53,42.56,40.65,41.07ZM25.76,9.36c-2,1.47-3.72,2.81-5.48,4.16-.32.24-.31.61-.32,1a8.19,8.19,0,0,1-.13,2.1,14.19,14.19,0,0,0-.22,3.5.5.5,0,0,0,.12.39c.19.12.31-.09.43-.2.91-.79,1.79-1.62,2.74-2.36,1.3-1,2.35-2.13,2.39-3.94C25.32,12.53,25.83,11.11,25.76,9.36ZM40.6,19.55c-.12-1.49-.28-3-.35-4.47a2.42,2.42,0,0,0-1-1.94c-1.31-1-2.59-2-3.89-3-.22-.17-.45-.5-.74-.37s-.19.54-.15.8c.21,1.6.48,3.19.68,4.78a1.77,1.77,0,0,0,.62,1.21c1.33,1.16,2.64,2.34,4,3.5.2.17.4.53.72.35S40.56,19.83,40.6,19.55ZM30.21,49.45a1.06,1.06,0,0,0-.76.34,20.74,20.74,0,0,1-1.71,1.39c-.7.44-.65.93-.32,1.55.75,1.42,1.51,2.84,2.23,4.29.3.6.52.53.8,0,.85-1.58,1.68-3.16,2.54-4.73.21-.38.07-.6-.21-.83l-2.17-1.8A2.36,2.36,0,0,0,30.21,49.45Zm0-47c-.3,0-.37.24-.46.41-.61,1.18-1.2,2.36-1.8,3.54-.87,1.71-.86,1.71.6,2.89a7.49,7.49,0,0,1,.61.51A1.17,1.17,0,0,0,31,9.8a12.81,12.81,0,0,1,1.52-1.21.8.8,0,0,0,.25-1.15c-.79-1.51-1.57-3-2.35-4.54C30.37,2.74,30.27,2.61,30.19,2.48Zm5.7,39.45c1.35-1.08,2.67-2.2,4-3.23A1.31,1.31,0,0,0,40.41,37c-.54-1.45-1-2.93-1.54-4.39-.06-.18,0-.47-.31-.45s-.28.27-.34.47c-.21.78-.4,1.58-.62,2.37A53.1,53.1,0,0,0,35.89,41.93Zm-11.28.22L21.82,31.94a.45.45,0,0,0-.4.34q-.89,2.63-1.76,5.25a.7.7,0,0,0,.21.81ZM36,17.85l-.24.13,2.68,9.87.31,0c.61-1.82,1.23-3.63,1.83-5.45a.59.59,0,0,0-.2-.64C38.89,20.44,37.42,19.15,36,17.85ZM24.46,18l-.21-.12-4.43,3.95c-.25.23-.15.52-.05.81.49,1.47,1,2.95,1.45,4.42a1.49,1.49,0,0,0,.58,1Zm9.61,27.25-.23-.08c-.84,1-1.64,1.91-2.51,2.82-.51.55-.45.92.17,1.31a11.44,11.44,0,0,1,1.07.91c.23.19.46.49.75.39s.19-.5.23-.77.1-.76.13-1.14A23.53,23.53,0,0,0,34.07,45.23ZM26,44.79c.43,1.91.27,3.64.65,5.32.1.43.21.62.6.32.61-.46,1.2-.94,1.8-1.41a.45.45,0,0,0,.05-.75C28.14,47.17,27.15,46.07,26,44.79Zm7.9-30.18c.1-.16.15-.21.15-.26,0-1.62-.55-3.18-.57-4.81,0-.45-.37-.26-.58-.11-.59.44-1.17.89-1.75,1.34-.3.22-.32.44-.08.74A40.67,40.67,0,0,0,33.91,14.61Zm-7.86.3c.69-.77,1.24-1.4,1.79-2,1.59-1.83,1.59-1.83-.38-3.24l-.07-.06c-.4-.31-.63-.23-.7.28C26.49,11.47,26.28,13.08,26.05,14.91ZM15.72,32.39c.07,1.07.13,2.09.21,3.11a7.75,7.75,0,0,0,.56,2.11c.23.63.81.46,1.29.35.28-.07.5-.23.33-.58C17.32,35.72,16.52,34.05,15.72,32.39Zm5.63,16a13.77,13.77,0,0,0,2.79,4.15c.58.65.79-.27,1.17-.45s.4-.44.05-.7ZM15.9,27.47c.77-1.66,1.44-3.13,2.15-4.59.2-.42.26-.73-.28-.86s-1-.44-1.19.34A13.23,13.23,0,0,0,15.9,27.47Zm28.45,5.46-.22,0c-.64,1.35-1.29,2.69-1.9,4-.18.39-.34.89.31,1.06s1,.12,1.16-.57C44.05,36,44.14,34.43,44.35,32.93ZM38.81,48.58c-.34-.1-.5.11-.67.24-1,.78-2,1.6-3.07,2.36-.49.36-.47.59,0,1s.92.65,1.3-.13a2.43,2.43,0,0,1,.38-.48A17.23,17.23,0,0,0,38.81,48.58ZM18.66,43.91c0-1.65,0-3.1,0-4.55,0-.78-.65-.43-1.08-.43s-.76.17-.6.69A25.62,25.62,0,0,0,18.66,43.91ZM44.29,27.27a28.93,28.93,0,0,0-.73-4.78.69.69,0,0,0-1-.55c-.58.17-.63.52-.4,1,.46,1,.89,2,1.4,3C43.77,26.38,43.78,26.9,44.29,27.27ZM19,16a18.11,18.11,0,0,0-1.88,4.51c-.18.62.57.54.91.71s.65,0,.67-.43A28.61,28.61,0,0,1,19,16ZM41.36,43.56a14.11,14.11,0,0,0,1.74-3.89c.15-.42.09-.69-.41-.72s-1-.39-1.11.37C41.45,40.73,41.42,42.15,41.36,43.56ZM38.54,11.49a18.29,18.29,0,0,0-2.48-3.8c-.46-.56-.8-.14-1.18.15s-.24.57.08.83C36.16,9.6,37.35,10.55,38.54,11.49Zm-16.91-.1c1.23-1,2.3-1.8,3.38-2.62.4-.3.69-.55.19-1s-.84-.46-1.23.07q-.75,1-1.53,2A2.89,2.89,0,0,0,21.63,11.39ZM28.3,56.87l.19-.14-1.87-3.65c-.17-.35-.4-.64-.8-.3s-.88.6-.45,1.14A23.33,23.33,0,0,0,28.3,56.87ZM41.21,16.48c.11,1.43.21,2.86.33,4.29a.46.46,0,0,0,.68.43c.36-.13.93-.22.72-.79A11.89,11.89,0,0,0,41.21,16.48ZM28.41,3.42l-.19-.12c-.91.9-1.85,1.77-2.72,2.71-.51.55,0,.88.4,1.21s.52.22.7-.13Zm3.47,53.42c.92-.93,1.83-1.86,2.74-2.81.19-.19.52-.38.27-.73a1.32,1.32,0,0,0-.82-.62c-.37-.06-.49.28-.62.53-.37.7-.75,1.4-1.06,2.13C32.19,55.8,31.7,56.13,31.88,56.84ZM31.7,3.38C32.35,4.64,33,5.9,33.64,7.14c.18.34.46.16.67,0s.8-.46.45-.88A12.7,12.7,0,0,0,31.7,3.38Z"/></svg>