<svg id="Layer_1" data-name="Layer 1" xmlns="http://www.w3.org/2000/svg" viewBox="0 0 60 60"><path d="M44.85,30V58.48c0,1,0,1-1,1a29.51,29.51,0,0,1-27-19.63,28.74,28.74,0,0,1-.24-19A29,29,0,0,1,28.2,5.51,27.78,27.78,0,0,1,40,.9c1.31-.19,2.64-.24,4-.39.72-.08.91.2.91.91,0,7.85,0,15.7,0,23.55ZM38,29.93c0-4.52,0-9,0-13.57a1.4,1.4,0,0,0-.83-1.47,18.16,18.16,0,0,1-2.1-1.21,1,1,0,0,0-1.56.23C31.05,17,28.48,20.1,26,23.22a2.46,2.46,0,0,0-.5,1.4q-.06,5.25,0,10.48a2.31,2.31,0,0,0,.37,1.24c2.42,3.4,4.88,6.77,7.32,10.15.37.51.72.52,1.23.16.9-.63,1.84-1.22,2.8-1.77a1.52,1.52,0,0,0,.87-1.52C38,38.88,38,34.41,38,29.93ZM44,4.7l-.17,0c-.26.75-.51,1.5-.79,2.25a15.94,15.94,0,0,0-1.11,5.58c.06,11.54,0,23.07,0,34.61a17.27,17.27,0,0,0,.92,7c.39.93.65,1.91,1,2.88l.16,0ZM40.54,48l.33,0A7.46,7.46,0,0,0,41,47q0-6.3,0-12.61Q41,24,41,13.68a6.4,6.4,0,0,0-.12-1h-.24c-.16.27-.31.54-.47.8a7.76,7.76,0,0,0-1.21,4.36C39,26.41,39,35,39,43.53,38.94,45.27,40.06,46.5,40.54,48ZM24,43.69c.08-.34.14-.53.16-.71.11-1.52.15-3,.33-4.56a4.22,4.22,0,0,0-1.19-3.79c-1.1-1.11-2-2.39-3.05-3.63-.1.12-.16.17-.18.23-.82,2.36-1.64,4.72-2.42,7.09a.84.84,0,0,0,.19.72C19.86,40.57,21.88,42.08,24,43.69ZM20.24,28.44a5.86,5.86,0,0,0,.69-.56,19.52,19.52,0,0,1,1.66-2,5.6,5.6,0,0,0,1.91-5.51c-.18-1.11-.13-2.26-.21-3.38,0-.37-.07-.87-.64-.48-1.79,1.2-3.55,2.44-5.33,3.65a.8.8,0,0,0-.37,1c.16.46.29.93.43,1.4ZM17,37.31c.15-.31.23-.43.28-.56.68-2,1.38-4,2-6a3.22,3.22,0,0,0,.28-1.63c-.59-2.12-1.31-4.21-2-6.31,0-.13-.2-.32-.26-.31a.78.78,0,0,0-.37.28,1.47,1.47,0,0,0-.13.42,28.91,28.91,0,0,0-.35,11.86C16.57,35.77,16.75,36.44,17,37.31Zm8.5-15.21.22.08,7.22-8.8-.17-.22-2.35.74c-1.45.45-2.91.9-4.35,1.37-.49.16-.86.39-.83,1,.09,1.74.11,3.49.17,5.24A3.5,3.5,0,0,0,25.45,22.1Zm6.67,24.82.11-.23-6.7-9.21a2.34,2.34,0,0,0-.17.51q-.18,3-.34,6c0,.51.28.71.73.86,1.5.47,3,1,4.47,1.48C30.85,46.57,31.48,46.73,32.12,46.92Zm4-44-.23-.21a21.31,21.31,0,0,0-6.56,3.18l4.42,5.32ZM28.9,6.53a6.54,6.54,0,0,0-.35.64c-.91,2.14-1.82,4.28-2.71,6.43a2,2,0,0,0,0,.69,3.25,3.25,0,0,0,.77-.08c1.94-.61,3.87-1.25,5.81-1.86.75-.24.83-.42.3-1.06-1.09-1.32-2.19-2.64-3.28-4A8.07,8.07,0,0,1,28.9,6.53Zm14.56-5c-.32-.09-.41-.15-.5-.13-1.74.26-3.49.5-5.23.82a1.08,1.08,0,0,0-.63.7c-.67,2.18-1.29,4.37-1.91,6.56a3.84,3.84,0,0,0,0,.93ZM25.67,45.77l-.19.18,3.25,7.7,4.2-5.46ZM34.81,50c0,.33-.1.48-.06.6.56,2.06,1.14,4.11,1.7,6.17a1.33,1.33,0,0,0,1.14,1c.6.11,1.19.29,1.8.38,1,.16,2.1.27,3.15.4l.11-.22Zm-1.46-.92c-1.29,1.69-2.45,3.17-3.58,4.68-.31.4,0,.7.32.88,1.5.72,3,1.44,4.51,2.14a3.64,3.64,0,0,0,.82.2,4.45,4.45,0,0,0-.05-.9c-.35-1.33-.72-2.65-1.1-4C34,51.18,33.7,50.24,33.35,49.1Zm-9-14.57c.36-.94.29-8.69-.06-9.23-.19.21-.37.39-.54.59-.82,1-1.65,2-2.46,2.94s-.85,1,0,2Zm18.88-31L43,3.34,35.9,10.93l.14.2a2.65,2.65,0,0,0,.63-.07c1.28-.47,2.56-1,3.85-1.41a1.58,1.58,0,0,0,1-1.12c.4-1.19.81-2.37,1.2-3.55C42.93,4.49,43.07,4,43.22,3.48ZM35.63,49.31l-.09.22c2.35,2.49,4.69,5,7.18,7.59a2.89,2.89,0,0,0,0-.64c-.4-1.31-.8-2.63-1.23-3.93-.22-.66-.38-1.33-1.21-1.61-1.3-.43-2.56-1-3.84-1.47A5.66,5.66,0,0,0,35.63,49.31ZM21.82,47.13c.59-.7,1.06-1.3,1.58-1.85s.34-.74-.12-1.07c-1.37-1-2.72-2-4.08-3-.32-.24-.65-.45-1-.68l-.16.15A24.22,24.22,0,0,0,21.82,47.13ZM27.39,7.5l-.22-.09a22.61,22.61,0,0,0-4.51,4.23.65.65,0,0,0,.07,1c.4.4.79.8,1.2,1.19s.71.41,1-.19c.66-1.58,1.33-3.15,2-4.73C27.07,8.43,27.22,8,27.39,7.5Zm-9.1,11.34a2.09,2.09,0,0,0,.46,0c1.63-1.1,3.25-2.18,4.85-3.31a.76.76,0,0,0,0-.73c-.43-.53-1-1-1.43-1.47s-.62-.24-.84.11c-.68,1.07-1.37,2.14-2,3.24C19,17.3,18.67,18,18.29,18.84Zm20,26.36c-1.15.74-2.15,1.37-3.13,2-.16.1-.39.34-.36.44a.85.85,0,0,0,.46.41c.62.28,1.27.52,1.91.76L40.21,50l.21-.19ZM27,52.52l.2-.23-2.85-6.75c-.58.68-1,1.24-1.52,1.77a.79.79,0,0,0,0,1.27c.69.69,1.32,1.45,2,2.12S26.28,51.91,27,52.52Zm8.36-40.07-.08.23a13.82,13.82,0,0,0,3.06,1.74c.1,0,.38-.17.47-.32.42-.75.81-1.51,1.2-2.27.16-.32.29-.66.43-1l-.18-.16Z"/></svg>