<svg id="Layer_1" data-name="Layer 1" xmlns="http://www.w3.org/2000/svg" viewBox="0 0 600 600"><path d="M400.64,299.91V493c0,7,0,7.06-6.84,6.86a196.82,196.82,0,0,1-97.68-28.67C255.42,446.49,227,411.54,211,366.78c-15.16-42.5-15.55-85.49-1.67-128.46,14.15-43.78,40.75-78.48,78.52-104.26a188.42,188.42,0,0,1,79.88-31.2c8.89-1.28,17.9-1.63,26.83-2.63,4.89-.54,6.21,1.35,6.2,6.14q-.24,79.77-.11,159.53Zm-46.18-.37c0-30.66-.07-61.32.08-92,0-4.68-1.2-7.83-5.62-10a129.9,129.9,0,0,1-14.26-8.16c-4.18-2.71-7.13-2.65-10.54,1.57-17,21.11-34.4,41.93-51.39,63.06a16.59,16.59,0,0,0-3.43,9.51c-.29,23.66-.24,47.32-.05,71a15.47,15.47,0,0,0,2.47,8.4c16.41,23,33.09,45.84,49.64,68.76,2.48,3.43,4.83,3.55,8.3,1.11,6.11-4.31,12.46-8.32,18.95-12,4.23-2.4,6-5.27,6-10.31C354.34,360.19,354.46,329.86,354.46,299.54Zm40-171-1.15-.19c-1.77,5.08-3.47,10.19-5.32,15.25-4.45,12.22-7.63,24.43-7.56,37.81.41,78.16.29,156.32.13,234.48,0,16-.09,31.9,6.28,47.08,2.64,6.31,4.38,13,6.53,19.5l1.09-.22ZM371.42,422l2.21-.24a56.64,56.64,0,0,0,.72-6.44q.07-42.74,0-85.47,0-70.23,0-140.45a55.51,55.51,0,0,0-.8-6.63l-1.64,0c-1.07,1.8-2.1,3.63-3.21,5.4a52.5,52.5,0,0,0-8.17,29.56c.5,58,.39,116,.11,173.93C360.58,403.47,368.16,411.77,371.42,422ZM259.48,392.74a39.51,39.51,0,0,0,1.07-4.82c.76-10.29,1-20.63,2.28-30.86,1.23-10-.68-18.24-8.12-25.72S241,315.18,234.06,306.77a8.1,8.1,0,0,0-1.21,1.57c-5.52,16-11.07,32-16.37,48.05-.45,1.36.21,4,1.29,4.83C231.29,371.64,245,381.84,259.48,392.74Zm-25.6-103.3c2-1.58,3.53-2.49,4.65-3.78,3.81-4.39,7-9.48,11.28-13.28C261.32,262.24,265.2,250,262.76,235c-1.22-7.51-.89-15.26-1.43-22.9-.17-2.46-.46-5.85-4.33-3.24-12.12,8.17-24.1,16.52-36.16,24.76-2.5,1.71-3.49,3.81-2.46,6.81s1.91,6.34,2.92,9.5C225.35,262.72,229.43,275.5,233.88,289.44Zm-22.32,60.09c1.07-2.1,1.61-2.91,1.92-3.8,4.64-13.5,9.35-27,13.78-40.54,1.16-3.55,2.76-7.76,1.85-11-4-14.38-8.83-28.54-13.42-42.75-.27-.84-1.34-2.16-1.72-2.06a4.94,4.94,0,0,0-2.52,1.89,8.38,8.38,0,0,0-.85,2.85,195.64,195.64,0,0,0-2.43,80.3C209,339.06,210.24,343.66,211.56,349.53Zm57.62-103,1.46.49,48.93-59.6-1.15-1.5-15.93,5c-9.83,3.1-19.67,6.14-29.47,9.32-3.29,1.07-5.81,2.61-5.59,7,.6,11.82.73,23.66,1.1,35.49A27.4,27.4,0,0,0,269.18,246.5Zm45.16,168.1.78-1.5-45.38-62.43c-.7,2-1.16,2.69-1.21,3.45q-1.17,20.44-2.26,40.91c-.18,3.46,1.88,4.84,5,5.82,10.13,3.2,20.17,6.74,30.27,10C305.74,412.27,310.06,413.37,314.34,414.6Zm27.34-297.78-1.55-1.46c-15.64,5.09-30.82,11.13-44.44,21.54l29.91,36C331.23,153.27,336.46,135.05,341.68,116.82ZM292.52,141c-1.43,2.61-2,3.42-2.35,4.3-6.16,14.53-12.34,29-18.38,43.62-.56,1.35-.18,3.08-.24,4.64a24.3,24.3,0,0,0,5.23-.52c13.14-4.15,26.22-8.51,39.37-12.65,5.09-1.6,5.57-2.81,2-7.12-7.41-9-14.87-17.94-22.26-27A60.34,60.34,0,0,1,292.52,141Zm98.7-33.8c-2.17-.61-2.81-1-3.39-.92-11.83,1.76-23.68,3.4-35.45,5.55-1.7.31-3.71,2.85-4.29,4.75-4.51,14.76-8.75,29.61-12.95,44.47-.42,1.49-.06,3.2-.06,6.27ZM270.64,406.84l-1.28,1.24c7.18,17,14.35,34,22,52.14l28.48-37Zm61.92,28.79c-.24,2.26-.62,3.25-.39,4.07,3.81,13.94,7.73,27.86,11.55,41.8,1.1,4,3.71,6.07,7.69,6.82s8.1,2,12.21,2.59c7.1,1.07,14.24,1.84,21.37,2.74l.73-1.53Zm-9.83-6.2c-8.78,11.41-16.62,21.47-24.29,31.65-2.07,2.74-.29,4.77,2.19,6q15.21,7.38,30.54,14.54a28.65,28.65,0,0,0,5.53,1.35c-.08-2.05.2-4.19-.31-6.13-2.35-9-4.87-17.93-7.44-26.86C327.1,443.52,325.07,437.14,322.73,429.43Zm-61.08-98.75c2.42-6.33,2-58.88-.38-62.5-1.29,1.39-2.55,2.64-3.69,4q-8.35,9.91-16.67,19.88c-5.76,6.93-5.73,6.93-.12,13.64C247.59,313.8,254.35,321.93,261.65,330.68ZM389.53,120.32l-1.64-.93q-24,25.71-47.95,51.43l.95,1.33a18.63,18.63,0,0,0,4.27-.49c8.73-3.14,17.34-6.63,26.14-9.55,4-1.33,5.8-4,7-7.6,2.72-8,5.49-16,8.16-24C387.59,127.14,388.52,123.71,389.53,120.32ZM338.12,430.83l-.6,1.51,48.63,51.4c0-2.49.22-3.48,0-4.33-2.72-8.89-5.43-17.8-8.34-26.64-1.48-4.47-2.56-9-8.2-10.89-8.81-2.91-17.34-6.67-26-9.95A33.25,33.25,0,0,0,338.12,430.83ZM244.58,416c4-4.75,7.19-8.8,10.68-12.55,2.75-2.94,2.32-4.95-.8-7.23-9.26-6.76-18.39-13.7-27.6-20.53-2.17-1.61-4.45-3.06-6.68-4.59l-1.07,1C225.64,387.63,233.11,402.59,244.58,416Zm37.71-268.46-1.43-.63c-11.82,7.8-21.39,18-30.57,28.69-2,2.29-1.65,4.52.46,6.6,2.71,2.69,5.35,5.46,8.11,8.1,3.23,3.1,4.83,2.75,6.56-1.33,4.5-10.68,9-21.34,13.48-32C280.17,153.9,281.16,150.71,282.29,147.58Zm-61.65,76.8c2.22-.13,2.81,0,3.15-.22,11-7.39,22-14.75,32.86-22.41.82-.58.85-3.91,0-4.93-3-3.56-6.51-6.62-9.73-10-2.31-2.39-4.17-1.59-5.65.73-4.61,7.27-9.29,14.49-13.58,21.94C225.13,214,223.25,218.82,220.64,224.38ZM356,403c-7.82,5-14.55,9.27-21.19,13.65-1.08.72-2.69,2.3-2.47,3a5.78,5.78,0,0,0,3.1,2.83c4.25,1.85,8.6,3.48,12.94,5.12,6.89,2.61,13.82,5.15,20.73,7.72l1.42-1.24Zm-76.38,49.55,1.4-1.52c-6.28-14.86-12.55-29.72-19.32-45.76-3.94,4.63-7,8.44-10.31,12-2.76,3-2.92,5.58.06,8.58,4.67,4.69,8.92,9.8,13.71,14.36C269.78,444.6,274.82,448.47,279.66,452.55Zm56.65-271.48-.54,1.59a94,94,0,0,0,20.77,11.81c.67.27,2.53-1.17,3.13-2.21,2.86-5,5.52-10.19,8.15-15.36,1.1-2.18,2-4.48,2.93-6.73l-1.21-1.08Z"/></svg>