<svg id="Layer_1" data-name="Layer 1" xmlns="http://www.w3.org/2000/svg" viewBox="0 0 600 600"><path d="M500,300.71c-2.65,10.14-5.38,20.72-8.2,31.27-5,18.9-10.64,37.66-15,56.71-2.6,11.31-10.11,18.4-17.73,25.9-18.37,18.07-36.79,36.12-54.77,54.58-6.5,6.68-15.15,6.94-22.92,9.22-25.68,7.49-51.65,14.06-77.5,21a13.13,13.13,0,0,1-6.9.05l-93.76-25c-4.91-1.31-7.36-5.61-10.63-8.78-17.55-17-34.21-35-52.48-51.22-11.25-10-15.84-22.3-19.5-35.82-6.31-23.36-12.79-46.68-19.2-70-1-3.8-2-7.49-.91-11.61,8.31-30.7,16.37-61.59,24.75-92.35,2.39-8.78,10.32-13.58,16.13-19.69,15.75-16.49,32.31-32.23,48.08-48.73a44.94,44.94,0,0,1,21.84-12.74c27.21-7.22,54.37-14.72,81.55-22.07,3.35-.91,6.61-1.82,10.27-.83q45.5,12.33,91.05,24.4a22.6,22.6,0,0,1,10.53,6.41c20.34,20.52,40.68,41,61.33,61.24A38.22,38.22,0,0,1,476.69,211c7.3,27.93,14.77,55.8,22.15,83.7C499.31,296.46,499.54,298.31,500,300.71Zm-140-3.84h46.78c8.92,0,9.07-.3,4.5-8.2q-22.22-38.3-44.46-76.6c-6.36-10.95-6.4-10.94-12.74.13C339,238.64,324,265.15,308.69,291.51c-2.62,4.49-1.61,5.45,3.13,5.42C327.88,296.8,343.93,296.87,360,296.87Zm-120.7.12v-.1c15.82,0,31.63.07,47.45,0,6.82,0,7.22-.83,3.91-6.53q-23.78-41-47.63-82c-3.75-6.46-4.5-6.37-8.32.28Q211.33,249.54,188,290.35c-3.27,5.7-2.85,6.6,3.84,6.64,15.88.06,31.72,0,47.53,0Zm61,104.88v-.07h48.88c4.09,0,5.83-.75,3.07-5.07-3.13-4.89-5.73-10.12-8.65-15.15l-40.71-69.92c-1.57-2.71-2.75-5.45-5.43-.75q-24.4,42.73-49,85.29c-2.91,5-1.12,5.76,3.65,5.72,16.12-.14,32.17-.05,48.23-.05Zm-60.95-3.13c2.35-3.75,4-6.25,5.49-8.83q22.43-39,44.83-78.09c1.13-2,3.7-3.75,2.67-6.09-1.27-2.93-4.5-1.71-6.91-1.72q-46.11-.06-92.22.11c-2.39,0-5.69-1.26-6.94,1.62-1.1,2.52,1.38,4.7,2.64,6.86q12.84,22,25.72,44c8,13.63,16,27.25,24.78,42.16ZM300,293.91l23.15-40.32q14.08-24.53,28.13-49.06c.88-1.54,2.62-3.09,1.27-5s-3.36-.93-5.18-.9c-10.7.17-21.4.34-32.11.38-20.24.07-40.48,0-60.77.09-9.17,0-9.26.12-4.94,8.46,2,3.92,4.5,7.59,6.75,11.41,14.33,24.49,28.61,49,43.76,75Zm60.52,104c1-.75,1.44-.92,1.64-1.26l50.35-86.87c3-5.15.59-5.85-3.93-5.84q-47.46.09-94.94,0c-5.9,0-6.95,1.5-3.84,6.75,10.58,18,20.76,36.32,31.22,54.42C347.34,376.07,354,386.9,360.49,397.88Zm-5.9-206.39c-17.87-26.92-35.06-52.67-52.15-78.41-2.95-4.5-4.55-2-6.44.89q-23.31,35.61-46.66,71.23c-1.1,1.68-3.25,3.61-2.25,5.54,1.25,2.41,4.22,1.17,6.4,1.18q46.8.11,93.6,0c2,0,4.07-.24,7.5-.43ZM178.88,293.73c2.81-4.91,5-8.69,7.14-12.46q21.73-37.84,43.54-75.67c2.86-4.95,1.57-6.75-3.95-6.35-7,.54-13.93,1-20.89,1.44-20.44,1.35-40.89,2.55-61.31,4.09-8.56.64-9.14,2-5.41,9.3q11.38,22.41,22.86,44.78C166.65,270.15,172.53,281.42,178.88,293.73Zm193,107.49c29.09-.56,58-3.92,87.05-5,5.09-.19,5.24-2.65,3.43-6.36q-7.65-15.66-15.32-31.33Q436,336,424.85,313.5c-2.43-4.95-4.81-5.16-7.43-.14q-2.76,5.26-5.73,10.39-21.1,36.13-42.28,72.22C367.6,399.1,366.39,401.81,371.9,401.22Zm3.89-201.85c-1.15.14-5.11-1.63-6.87.75-2.11,2.87,1.63,5.4,3,7.86q22.49,39.45,45.24,78.72c2.93,5.09,4.69,5.18,7.5-.17,4.68-8.84,9-17.88,13.46-26.83,8-16,16.06-32,24-48.08,2-4,3.08-7.57-3.75-7.9-26.89-1.31-53.85-2.82-82.61-4.35ZM178.9,307.5c-14.17,28.49-27.82,55.95-41.45,83.41-2.16,4.36.39,5.1,4,5.48,28,3,56.22,3.12,84.32,5.25,2,.15,4.67,1,5.88-.95,1.42-2.32-.88-4.37-2-6.28Q215,369,200.11,343.76Zm122,101.4h0c-14.9,0-29.79-.06-44.69.05-2.68,0-6.4-1.4-7.8,1.22-1.56,2.95,1.7,5.47,3.29,7.89,15,22.69,30.27,45.24,45.11,68,2.93,4.5,4.23,4.43,7,.17Q327,450.59,350.45,415.1c3.24-4.89,2.07-6.34-3.47-6.29C331.61,409,316.25,408.9,300.89,408.9ZM136.31,197.43c9.66,0,16.6.39,23.48-.07,22.23-1.5,44.44-3.42,66.68-4.91,5.43-.37,6.29-1.83,3.48-6.53q-13.38-22.46-26.24-45.19c-2.43-4.3-4.62-4.5-7.93-1.17Q185.49,149.93,175,160.12C162.55,172.19,150,184.18,136.31,197.43Zm170.42-89c18.59,27.8,35.93,53.74,53.74,80.35,10.5-18.14,20.14-34.88,30-51.51,2.71-4.6,1.45-6.38-3.43-7.63-12-3-23.79-6.59-35.71-9.74C337.18,116.18,323,112.62,306.73,108.46Zm152.84,88.71c.43-.75.87-1.46,1.29-2.18Q432,166.73,403.1,138.44c-2.82-2.77-4.83-3.06-7,.75q-13.28,23.34-26.8,46.55c-2.5,4.29-1.82,6.07,3.49,6.41,15.55,1,31.05,2.88,46.61,3.44C432.79,196.07,446.13,198.52,459.57,197.17ZM285.81,110c-1,.26-2.37.59-3.74,1C258.51,117.42,235,124,211.38,130.23c-6.23,1.64-4.34,4.5-2.28,8,8.71,14.84,17.52,29.62,26,44.58,3.08,5.46,5.41,4.59,8.24.11,4.28-6.65,8.62-13.24,12.94-19.85q16-24.22,31.8-48.42c.75-1.14,1.9-2.32,1.18-3.8C288.65,109.58,287.31,109.87,285.81,110Zm-155,280.49C144.89,362,158,335.24,171.15,308.63c1.81-3.65.18-4.57-3.15-4.55q-27.25.12-54.51.19c-4.38,0-5.87,1.89-4.67,6.16,2.21,7.83,4.24,15.74,6.4,23.55C120.21,352.12,125.23,370.25,130.83,390.51Zm9.4,13.4c.62,1.38.75,2.14,1.19,2.56Q170,434.7,198.67,462.88c2.65,2.63,3.7,1.39,5.1-1.07,8.66-15.17,17.46-30.25,26.09-45.43,3.83-6.75,3.55-7.64-4.5-8.25-17.88-1.35-35.79-2.55-53.7-3.08C161.45,404.74,151.3,402.52,140.23,403.91Zm329-192.12-15.51,30.93c-7.91,15.8-15.75,31.63-23.78,47.38-2.54,5-1.71,6.95,4.34,6.86q25.14-.4,50.29,0c6.1.12,7.76-1.6,6.14-7.64-5.87-21.79-11.33-43.68-17.07-65.5C472.67,220.31,471.09,216.94,469.19,211.79ZM309.09,489.61l1.08,1.31c2.25-.52,4.45-1,6.64-1.58,23.13-6.28,46.25-12.63,69.39-18.85,6.88-1.85,7.33-2.57,3.75-8.78-8.6-14.93-17.42-29.73-25.73-44.81-2.94-5.34-4.66-4.44-7.42-.16-8.2,12.7-16.59,25.3-24.87,37.95Q320.49,472.14,309.09,489.61Zm-16.9,1.68a20.38,20.38,0,0,0-1.11-2.59q-23.43-35.47-46.88-70.95c-3.75-5.7-4.77-5.83-8.3.28-8.84,15.29-17.4,30.74-26.29,46-2.54,4.36-.9,5.41,3.21,6.47,16.22,4.15,32.34,8.67,48.53,12.94C271.38,486.12,281.46,488.58,292.19,491.29Zm168-84.87-2-2.44a6.63,6.63,0,0,0-1.95-.57c-28,.51-55.84,2.25-83.72,4.33-4.8.36-5.25,2.54-2.9,6.5,8.7,14.88,17.36,29.79,25.66,44.89,3,5.51,5.39,5.07,9.29,1q12.82-13.35,26.18-26.18C440.45,424.64,450.39,415.59,460.22,406.42Zm-330.42-195c-7.22,27.38-14,53.23-20.86,79-1.24,4.63-1.06,8.16,5,7.62,17.88-1.57,35.79-.75,53.69-1,4.06-.06,4.91-1.25,3-5-5.66-10.94-11-22-16.61-33C146.17,243.6,138.28,228.13,129.8,211.41ZM469.42,389.14c3.75-13.64,7.1-25.44,10.3-37.27,3.75-13.93,7.44-27.89,11.16-41.84.92-3.41.86-6-3.81-6-18.42.05-36.83,0-55.24,0-3.29,0-4.18,1.5-2.73,4.45.91,1.88,1.64,3.86,2.58,5.73q13.74,27.48,27.48,54.94C462.24,375.3,465.44,381.38,469.42,389.14Z"/></svg>