<svg xmlns="http://www.w3.org/2000/svg" xmlns:xlink="http://www.w3.org/1999/xlink" width="500" zoomAndPan="magnify" viewBox="0 0 375 374.999991" height="500" preserveAspectRatio="xMidYMid meet" version="1.0"><rect x="-37.5" width="450" fill="#ffffff" y="-37.499999" height="449.999989" fill-opacity="1"/><rect x="-37.5" width="450" fill="#ffffff" y="-37.499999" height="449.999989" fill-opacity="1"/><path fill="#231f20" d="M 270.816406 260.929688 L 270.800781 260.996094 C 270.609375 261.617188 251.113281 322.957031 185.832031 322.957031 L 184.773438 322.949219 L 183.6875 322.957031 C 118.5 322.957031 98.898438 261.582031 98.691406 260.894531 C 86.007812 206.292969 109.839844 152.636719 132.066406 117.242188 C 147.167969 93.507812 164.738281 71.773438 184.785156 52.042969 C 204.804688 71.785156 222.363281 93.519531 237.453125 117.246094 C 259.679688 152.636719 283.511719 206.300781 270.816406 260.929688 Z M 216.695312 92.675781 L 203.433594 108.246094 L 242.667969 131.964844 C 240.136719 127.429688 237.539062 123.035156 234.921875 118.863281 C 229.472656 110.183594 223.34375 101.378906 216.695312 92.675781 Z M 166.171875 108.015625 L 152.953125 92.507812 C 146.257812 101.261719 140.085938 110.125 134.601562 118.863281 C 132.011719 122.984375 129.421875 127.367188 126.871094 131.9375 Z M 271.3125 226.78125 C 270.984375 219.203125 270.222656 211.667969 269.027344 204.175781 C 267.828125 196.683594 266.207031 189.289062 264.160156 181.984375 C 262.113281 174.679688 259.65625 167.515625 256.785156 160.496094 C 253.914062 153.472656 250.648438 146.640625 246.988281 139.996094 L 238.457031 188.222656 Z M 214.105469 159.640625 L 200.183594 112.058594 L 186.871094 127.679688 Z M 182.921875 127.679688 L 169.40625 111.820312 L 155.269531 160.136719 Z M 187.765625 273.28125 L 204.75 283.066406 L 207.960938 261.644531 Z M 134.320312 189.363281 L 138.972656 205.132812 L 148.429688 172.804688 Z M 157.015625 256.53125 L 139.238281 214.949219 L 129.183594 249.3125 Z M 160.8125 257.753906 L 184.753906 271.542969 L 208.742188 257.726562 L 228.949219 210.441406 L 228.957031 210.417969 L 216.167969 166.699219 L 184.894531 130 L 153.203125 167.195312 L 140.566406 210.40625 Z M 220.945312 172.3125 L 230.554688 205.132812 L 235.058594 190.164062 L 235.246094 189.089844 Z M 240.339844 249.308594 L 230.289062 214.957031 L 212.507812 256.53125 Z M 232.101562 210.421875 L 243.003906 247.703125 L 270.5625 230.550781 L 237.660156 191.925781 Z M 241.175781 252.183594 L 211.261719 259.964844 L 207.644531 284.070312 L 251.347656 286.953125 Z M 161.539062 261.65625 L 164.761719 283.054688 L 181.734375 273.28125 Z M 158.257812 259.964844 L 128.335938 252.203125 L 118.171875 286.957031 L 161.910156 284.070312 Z M 126.523438 247.679688 L 137.421875 210.429688 L 131.941406 192.160156 L 99.285156 230.480469 Z M 133.640625 185.527344 L 150.496094 165.742188 L 166.390625 111.40625 L 124.988281 136.609375 Z M 218.878906 165.25 L 235.925781 185.253906 L 244.53125 136.609375 L 203.1875 111.613281 Z M 243.878906 250.703125 L 254.09375 285.613281 C 260 277.855469 264.597656 269.386719 267.898438 260.210938 C 269.898438 251.476562 271.015625 242.625 271.25 233.664062 Z M 208.753906 287.167969 L 224.585938 310.957031 C 229.589844 308.359375 234.289062 305.292969 238.679688 301.753906 C 243.066406 298.210938 247.0625 294.269531 250.660156 289.929688 Z M 205.9375 288.371094 L 187.324219 319.933594 C 193.285156 319.894531 199.175781 319.230469 204.996094 317.941406 C 210.8125 316.652344 216.433594 314.769531 221.855469 312.289062 Z M 184.753906 275.019531 L 165.652344 286.019531 L 184.761719 318.371094 L 203.867188 286.03125 Z M 147.660156 312.292969 C 153.082031 314.773438 158.699219 316.65625 164.519531 317.941406 C 170.339844 319.230469 176.230469 319.894531 182.1875 319.933594 L 163.554688 288.398438 Z M 118.851562 289.933594 C 122.453125 294.273438 126.445312 298.214844 130.835938 301.753906 C 135.226562 305.292969 139.921875 308.363281 144.929688 310.960938 L 160.765625 287.167969 Z M 115.421875 285.625 L 125.648438 250.664062 L 98.246094 233.382812 C 98.46875 242.414062 99.585938 251.332031 101.601562 260.136719 C 104.910156 269.335938 109.519531 277.832031 115.421875 285.625 Z M 131.113281 188.496094 L 122.53125 139.996094 C 118.855469 146.667969 115.578125 153.527344 112.695312 160.574219 C 109.816406 167.625 107.351562 174.816406 105.300781 182.152344 C 103.253906 189.484375 101.632812 196.914062 100.445312 204.4375 C 99.253906 211.960938 98.503906 219.527344 98.1875 227.136719 Z M 168.082031 105.625 L 181.640625 59.277344 C 172.132812 69.046875 163.199219 79.3125 154.839844 90.082031 Z M 184.898438 125.363281 L 199.171875 108.601562 L 184.761719 59.335938 L 170.417969 108.363281 Z M 214.816406 90.246094 C 206.417969 79.414062 197.4375 69.089844 187.878906 59.273438 L 201.511719 105.863281 Z M 214.816406 90.246094 " fill-opacity="1" fill-rule="nonzero"/></svg>