<svg id="Layer_1" data-name="Layer 1" xmlns="http://www.w3.org/2000/svg" viewBox="0 0 60 60"><defs><style>.cls-1{fill:none;stroke:#000;stroke-miterlimit:10;}</style></defs><polygon class="cls-1" points="44.73 55.55 15.23 55.57 0.5 30.01 15.27 4.45 44.77 4.43 59.5 29.99 44.73 55.55"/><polygon class="cls-1" points="40.64 48.37 19.36 48.38 8.74 29.96 19.38 11.52 40.66 11.51 51.28 29.94 40.64 48.37"/><polygon class="cls-1" points="36.34 40.93 23.76 40.93 17.48 30.04 23.77 19.14 36.35 19.13 42.63 30.03 36.34 40.93"/><line class="cls-1" x1="15.26" y1="4.45" x2="23.77" y2="19.14"/><line class="cls-1" x1="44.76" y1="4.43" x2="36.35" y2="19.13"/><line class="cls-1" x1="42.63" y1="30.03" x2="59.5" y2="29.99"/><line class="cls-1" x1="0.5" y1="30.01" x2="17.48" y2="30.04"/><line class="cls-1" x1="23.76" y1="40.93" x2="15.24" y2="55.57"/><line class="cls-1" x1="36.34" y1="40.93" x2="44.74" y2="55.55"/></svg>