<svg id="Layer_1" data-name="Layer 1" xmlns="http://www.w3.org/2000/svg" viewBox="0 0 600 600"><defs><style>.cls-1{fill:none;stroke:#000;stroke-miterlimit:10;stroke-width:5px;}</style></defs><polygon class="cls-1" points="399.01 471.68 200.79 471.82 101.79 300.07 200.99 128.32 399.21 128.18 498.21 299.93 399.01 471.68"/><polygon class="cls-1" points="371.47 423.45 228.53 423.52 157.13 299.73 228.67 175.81 371.6 175.74 443 299.6 371.47 423.45"/><polygon class="cls-1" points="342.58 373.42 258.09 373.42 215.91 300.27 258.15 227.06 342.65 226.99 384.83 300.2 342.58 373.42"/><line class="cls-1" x1="200.99" y1="128.32" x2="258.15" y2="227.06"/><line class="cls-1" x1="399.21" y1="128.18" x2="342.65" y2="226.99"/><line class="cls-1" x1="384.83" y1="300.2" x2="498.21" y2="299.93"/><line class="cls-1" x1="101.79" y1="300.07" x2="215.91" y2="300.27"/><line class="cls-1" x1="258.09" y1="373.41" x2="200.79" y2="471.82"/><line class="cls-1" x1="342.58" y1="373.41" x2="399.01" y2="471.68"/></svg>