<svg width="60" height="60" viewBox="0 0 60 60" fill="none" xmlns="http://www.w3.org/2000/svg">
<path fill-rule="evenodd" clip-rule="evenodd" d="M6.85649 0.624094C6.50592 0.967325 6.01364 1.39364 5.76237 1.57154C5.51123 1.74931 4.80458 2.39803 4.19214 3.0131C3.57969 3.62817 2.87227 4.27611 2.62009 4.45296C2.3679 4.62982 1.67515 5.26794 1.08079 5.87095L0 6.96722V30V53.0328L1.08079 54.129C1.67515 54.7321 2.3679 55.3702 2.62009 55.5473C2.87227 55.7243 3.63865 56.431 4.32314 57.1179C5.00764 57.8048 5.77402 58.5128 6.0262 58.6915C6.27838 58.8701 6.71294 59.2376 6.99185 59.5081L7.49882 60H30.0043H52.5098L53.2778 59.244C53.7001 58.8282 54.2505 58.3428 54.5009 58.1653C54.7514 57.9879 55.5164 57.2807 56.2009 56.5939C56.8854 55.907 57.6517 55.2005 57.9039 55.0239C58.1561 54.8474 58.731 54.3255 59.1812 53.8645L60 53.0264V30.0024V6.97848L59.3122 6.26844C58.934 5.87792 58.4181 5.41401 58.1659 5.23755C57.9138 5.06109 57.0884 4.2959 56.3319 3.53712C55.5753 2.77834 54.7514 2.01237 54.5009 1.83486C54.2505 1.65735 53.7001 1.17183 53.2778 0.756026L52.5098 0H30.0018H7.49383L6.85649 0.624094ZM51.2876 0.915975C51.3688 1.04737 50.6961 2.12725 50.3076 2.48908C50.1917 2.59716 49.955 2.89192 49.7818 3.1441C49.6085 3.39629 49.4316 3.6321 49.3886 3.66812C49.3457 3.70415 49.1679 3.93996 48.9937 4.19214C48.8193 4.44432 48.6008 4.72898 48.5078 4.82461C48.4149 4.92025 48.2783 5.11191 48.2041 5.25038C48.0722 5.49693 47.691 5.50218 30.0021 5.50218H11.9348L11.5686 5.01092C11.3671 4.74079 11.1697 4.49017 11.1299 4.45415C11.0899 4.41812 10.9155 4.18231 10.7422 3.93013C10.569 3.67795 10.3316 3.38319 10.2147 3.27511C9.82126 2.91144 8.63357 1.04358 8.71361 0.914152C8.82339 0.73651 51.1778 0.738202 51.2876 0.915975ZM7.67006 1.27924C7.74565 1.33217 7.94908 1.58188 8.12227 1.83406C8.29546 2.08624 8.47231 2.32205 8.51528 2.35808C8.55825 2.3941 8.73511 2.62991 8.9083 2.8821C9.08148 3.13428 9.25834 3.37009 9.30131 3.40611C9.34428 3.44214 9.52114 3.67795 9.69432 3.93013C9.86751 4.18231 10.0444 4.41812 10.0873 4.45415C10.1303 4.49017 10.3081 4.72598 10.4823 4.97817C10.6567 5.23035 10.8748 5.51463 10.9673 5.60974C11.2636 5.91498 10.7737 6.58086 9.69432 7.33938C9.44214 7.51676 8.69333 8.19274 8.03019 8.84174C5.92299 10.9043 6.09222 10.7832 5.64182 10.5503C5.42685 10.4391 5.11585 10.2146 4.95079 10.0512C4.78572 9.88783 4.44432 9.61086 4.19214 9.4357C3.93996 9.26068 3.70415 9.08227 3.66812 9.0393C3.6321 8.99633 3.39629 8.81792 3.1441 8.6429C2.89192 8.46774 2.5546 8.19485 2.39438 8.03633C2.23416 7.87795 1.92656 7.64397 1.71067 7.51638C1.04766 7.12467 1.05106 6.75968 1.72154 6.36366C1.94333 6.23265 2.72268 5.52787 3.45329 4.79752C4.1839 4.0673 4.98799 3.32331 5.24017 3.14449C5.49236 2.96567 6.06826 2.45018 6.51996 1.99913C7.36166 1.1586 7.43359 1.11352 7.67006 1.27924ZM53.6936 2.19432C54.2662 2.75266 54.9833 3.41594 55.2871 3.66812C57.9402 5.87031 58.8436 7.07739 58.1987 7.55805C57.9286 7.75953 57.6779 7.95694 57.6419 7.99677C57.6059 8.03672 57.3701 8.21109 57.1179 8.38441C56.8657 8.5576 56.571 8.79341 56.4629 8.9083C56.3548 9.02319 56.06 9.259 55.8079 9.43219C55.5557 9.6055 55.3199 9.78341 55.2838 9.82769C55.2478 9.87197 54.9354 10.1007 54.5896 10.336C53.8542 10.8364 54.0237 10.9168 52.4048 9.29894C51.7906 8.68519 51.0819 8.03818 50.8297 7.86106C50.3201 7.50329 48.8646 6.0642 48.8646 5.91826C48.8646 5.8183 49.511 4.82515 49.647 4.71616C49.692 4.68013 49.8705 4.44432 50.0437 4.19214C50.2169 3.93996 50.3937 3.70415 50.4367 3.66812C50.4796 3.6321 50.6565 3.39629 50.8298 3.1441C51.003 2.89192 51.2388 2.59716 51.3537 2.48908C51.4686 2.381 51.7044 2.08624 51.8776 1.83406C52.4716 0.969563 52.429 0.961048 53.6936 2.19432ZM47.0937 6.41541C47.1942 6.57798 46.8546 7.23746 46.4704 7.62563C46.307 7.7907 46.0301 8.1321 45.8549 8.38428C45.6799 8.63646 45.5015 8.87227 45.4585 8.9083C45.4155 8.94432 45.2387 9.18013 45.0655 9.43231C44.8923 9.6845 44.7155 9.92031 44.6725 9.95633C44.6295 9.99236 44.4527 10.2282 44.2793 10.4803C44.106 10.7325 43.8142 11.0714 43.6306 11.2335L43.2969 11.5281H30H16.7031L16.3694 11.2335C16.1858 11.0714 15.894 10.7325 15.7207 10.4803C15.5473 10.2282 15.3705 9.99236 15.3275 9.95633C15.2845 9.92031 15.1077 9.6845 14.9344 9.43231C14.7612 9.18013 14.5254 8.88537 14.4105 8.77729C14.2956 8.66921 14.0589 8.37445 13.8845 8.12227C13.7103 7.87009 13.4906 7.5845 13.3965 7.48756C13.118 7.20092 12.8215 6.55244 12.9063 6.41541C12.9565 6.33419 19.1412 6.28821 30 6.28821C40.8588 6.28821 47.0435 6.33419 47.0937 6.41541ZM12.07 7.10699C12.2336 7.34109 12.4615 7.62118 12.5764 7.72926C12.6913 7.83734 12.9271 8.1321 13.1003 8.38428C13.2736 8.63646 13.4505 8.87227 13.4934 8.9083C13.5364 8.94432 13.7133 9.18013 13.8865 9.43231C14.0597 9.6845 14.2365 9.92031 14.2795 9.95633C14.3224 9.99236 14.5005 10.2282 14.6752 10.4803C14.85 10.7325 15.0976 11.0531 15.2257 11.1929C15.6608 11.6674 14.8313 12.8663 13.3624 13.8857C13.1103 14.0607 12.7565 14.3535 12.5764 14.5364C11.8543 15.2697 11.523 15.2894 10.8531 14.6384C10.7561 14.5444 10.4705 14.3247 10.2183 14.1504C9.96616 13.9761 9.6714 13.7393 9.56332 13.6245C9.45524 13.5096 9.16048 13.2738 8.9083 13.1006C8.65611 12.9272 8.42031 12.7504 8.38428 12.7074C8.34825 12.6645 8.11244 12.4876 7.86026 12.3143C6.51825 11.3921 6.5869 11.1393 8.64354 9.43231C8.94734 9.18013 9.72301 8.45803 10.3673 7.82751C11.7004 6.52284 11.6707 6.53541 12.07 7.10699ZM49.9563 8.15502C50.7118 8.89349 51.5776 9.70415 51.8802 9.95633C53.4086 11.2297 53.4355 11.3375 52.4017 12.051C52.1496 12.2251 51.8548 12.4615 51.7467 12.5764C51.6386 12.6913 51.3439 12.9271 51.0917 13.1003C50.8395 13.2736 50.6037 13.4505 50.5677 13.4934C50.5317 13.5364 50.2958 13.7148 50.0437 13.8899C49.7915 14.065 49.4501 14.342 49.285 14.5053C48.5916 15.1915 48.1231 15.2769 47.6856 14.7972C47.6496 14.7576 47.4138 14.5818 47.1616 14.4065C46.606 14.0202 44.4105 11.8285 44.4105 11.6603C44.4105 11.5943 44.5444 11.405 44.7081 11.2395C44.8717 11.0742 45.149 10.7325 45.3241 10.4803C45.4991 10.2282 45.6776 9.99236 45.7205 9.95633C45.7635 9.92031 45.9403 9.6845 46.1135 9.43231C46.2867 9.18013 46.4652 8.94432 46.5101 8.9083C46.555 8.87227 46.8489 8.45961 47.1633 7.99127C48.1914 6.45969 48.2241 6.46166 49.9563 8.15502ZM1.67948 8.53978C2.01669 8.76943 2.381 9.05228 2.48908 9.16835C2.59716 9.28429 2.89192 9.52101 3.1441 9.69419C3.39629 9.86751 3.6321 10.0444 3.66812 10.0873C3.70415 10.1303 3.93996 10.3074 4.19214 10.4809C4.44432 10.6543 4.84231 11.002 5.07642 11.2534L5.50218 11.7106V30V48.2894L5.07642 48.7466C4.84231 48.998 4.44432 49.3457 4.19214 49.5191C3.93996 49.6926 3.70415 49.8697 3.66812 49.9127C3.6321 49.9556 3.39629 50.1325 3.1441 50.3058C2.89192 50.479 2.59716 50.7157 2.48908 50.8316C2.12725 51.2201 1.04737 51.8928 0.915975 51.8116C0.769119 51.7208 0.72668 8.35624 0.873405 8.20965C1.00166 8.08127 1.01267 8.08572 1.67948 8.53978ZM59.1816 29.9384C59.2014 42.9169 59.1665 51.7155 59.0952 51.7869C58.9945 51.8875 57.8803 51.2559 57.6419 50.9631C57.6059 50.9188 57.3701 50.7409 57.1179 50.5676C56.8657 50.3944 56.571 50.1586 56.4629 50.0437C56.3548 49.9288 56.06 49.6921 55.8079 49.5177C55.5557 49.3435 55.271 49.1248 55.1754 49.0318C55.0798 48.9389 54.8881 48.8023 54.7496 48.7281C54.3539 48.5163 54.3539 11.4837 54.7496 11.2719C54.8881 11.1977 55.0798 11.0611 55.1754 10.9682C55.271 10.8752 55.5557 10.6567 55.8079 10.4823C56.06 10.3081 56.2958 10.1303 56.3319 10.0873C56.3679 10.0444 56.6037 9.86751 56.8559 9.69419C57.1081 9.52101 57.4028 9.28454 57.5109 9.16887C57.8362 8.82079 58.8772 8.13211 59.0175 8.1722C59.1039 8.19683 59.1597 15.5933 59.1816 29.9384ZM42.5473 12.3726C42.6394 12.4647 42.4516 12.9132 42.211 13.1756C42.0838 13.3144 41.8369 13.6343 41.6621 13.8865C41.4874 14.1386 41.3093 14.3745 41.2664 14.4105C41.2234 14.4465 41.0466 14.6823 40.8734 14.9345C40.7002 15.1867 40.5258 15.4225 40.4859 15.4585C40.446 15.4945 40.2486 15.7452 40.0471 16.0153L39.681 16.5065L30.0261 16.5024C22.6394 16.4992 20.3239 16.4607 20.1698 16.3386C20.0591 16.2508 19.8262 15.9727 19.6521 15.7205C19.4781 15.4683 19.3006 15.2325 19.2576 15.1965C19.2147 15.1605 19.0378 14.9247 18.8646 14.6725C18.6914 14.4203 18.5146 14.1845 18.4716 14.1485C18.4286 14.1124 18.2506 13.8766 18.0759 13.6245C17.9011 13.3723 17.6535 13.0517 17.5254 12.9119C16.8842 12.2126 16.2284 12.2459 29.8934 12.2843C36.8239 12.3037 42.5181 12.3435 42.5473 12.3726ZM7.0221 12.6761C7.23092 12.875 7.60808 13.1816 7.86026 13.3576C8.11244 13.5334 8.34825 13.7125 8.38428 13.7555C8.42031 13.7984 8.65611 13.9753 8.9083 14.1485C9.16048 14.3217 9.39629 14.4985 9.43231 14.5415C9.46834 14.5845 9.70415 14.7613 9.95633 14.9346C10.2085 15.1078 10.5033 15.3457 10.6114 15.4631C10.7194 15.5806 10.97 15.7818 11.1681 15.9102L11.5284 16.1437V29.8585V43.5732L11.1026 44.0305C10.8685 44.2818 10.4705 44.6295 10.2183 44.8031C9.96616 44.9766 9.6714 45.2126 9.56332 45.3275C9.45524 45.4424 9.16048 45.6782 8.9083 45.8514C8.65611 46.0247 8.42031 46.2016 8.38428 46.2445C8.34825 46.2875 8.11244 46.4666 7.86026 46.6424C7.60808 46.8184 7.22934 47.1264 7.01855 47.3271C6.32488 47.9881 6.35593 48.7534 6.32003 30.1201C6.28191 10.3749 6.22009 11.9122 7.0221 12.6761ZM53.6463 30C53.6463 48.1856 53.6535 47.9473 53.1164 47.4548C52.9756 47.3256 52.6539 47.0769 52.4017 46.9022C52.1496 46.7274 51.8548 46.4904 51.7467 46.3755C51.6386 46.2607 51.3439 46.0248 51.0917 45.8517C50.8395 45.6783 50.6037 45.5015 50.5677 45.4585C50.5317 45.4155 50.2958 45.2387 50.0437 45.0654C49.7915 44.8922 49.4967 44.6543 49.3886 44.5369C49.2806 44.4194 49.03 44.2182 48.8319 44.0898L48.4716 43.8563V30V16.1437L48.8319 15.9102C49.03 15.7818 49.2806 15.5806 49.3886 15.4631C49.4967 15.3457 49.7915 15.1078 50.0437 14.9346C50.2958 14.7613 50.5317 14.5845 50.5677 14.5415C50.6037 14.4985 50.8395 14.3217 51.0917 14.1483C51.3439 13.9752 51.6386 13.7393 51.7467 13.6245C51.8548 13.5096 52.1496 13.2726 52.4017 13.0978C52.6539 12.9231 52.9756 12.6744 53.1164 12.5452C53.6535 12.0527 53.6463 11.8144 53.6463 30ZM16.5224 13.0022C16.7755 13.2363 17.2398 13.8111 17.5541 14.2795C17.8685 14.7478 18.2219 15.2194 18.3396 15.3275C18.9258 15.8658 19.4133 16.7773 19.2356 17.0032C18.7788 17.5839 17.1128 19.1266 16.9425 19.1266C16.7725 19.1266 15.6297 18.4222 15.4585 18.212C15.4225 18.1677 15.1867 17.9898 14.9345 17.8165C14.6823 17.6433 14.3876 17.4075 14.2795 17.2926C14.1714 17.1777 13.8766 16.9419 13.6245 16.7686C13.1151 16.4185 12.7074 16.0015 12.7074 15.8306C12.7074 15.6929 15.8253 12.5764 15.9632 12.5764C16.0176 12.5764 16.2694 12.7681 16.5224 13.0022ZM44.3869 12.9979C45.005 13.4228 47.2943 15.6508 47.2906 15.8239C47.287 15.9939 47.101 16.1882 46.6376 16.5067C46.3854 16.6799 46.0906 16.9157 45.9825 17.0306C45.8745 17.1455 45.5797 17.3813 45.3275 17.5546C45.0753 17.7279 44.7806 17.9646 44.6725 18.0806C43.409 19.4371 42.4767 19.1801 40.7644 17.0032C40.6058 16.8017 41.0953 15.8092 41.526 15.4585C41.5703 15.4225 41.7482 15.1867 41.9214 14.9345C42.0946 14.6823 42.2714 14.4465 42.3144 14.4105C42.3574 14.3745 42.5351 14.1386 42.7094 13.8865C42.8837 13.6343 43.1023 13.3496 43.1953 13.254C43.2882 13.1584 43.4248 12.9667 43.499 12.8282C43.6725 12.5037 43.6663 12.5025 44.3869 12.9979ZM12.8653 17.1972C13.0306 17.3608 13.3723 17.6381 13.6245 17.8132C13.8766 17.9882 14.1124 18.1666 14.1485 18.2096C14.1845 18.2526 14.4203 18.4294 14.6725 18.6027C14.9247 18.7759 15.2194 19.0095 15.3275 19.1219C15.4356 19.2342 15.7452 19.4906 16.0153 19.6915L16.5065 20.057V30V39.943L16.0153 40.3085C15.7452 40.5094 15.4356 40.7658 15.3275 40.8781C15.2194 40.9905 14.9247 41.2241 14.6725 41.3973C14.4203 41.5706 14.1845 41.7474 14.1485 41.7904C14.1124 41.8334 13.8766 42.0118 13.6245 42.1868C13.3723 42.3619 13.0306 42.6392 12.8653 42.8028C12.6998 42.9666 12.5083 43.1004 12.4395 43.1004C12.3609 43.1004 12.3144 38.2303 12.3144 30C12.3144 21.7696 12.3609 16.8996 12.4395 16.8996C12.5083 16.8996 12.6998 17.0334 12.8653 17.1972ZM47.6856 30C47.6856 37.9745 47.638 43.1004 47.5639 43.1004C47.4971 43.1004 47.3644 43.0249 47.2691 42.9324C47.174 42.8399 46.8897 42.6216 46.6376 42.4474C46.3854 42.273 46.0906 42.0363 45.9825 41.9214C45.8745 41.8065 45.5797 41.5707 45.3275 41.3975C45.0753 41.2242 44.8395 41.0473 44.8035 41.0044C44.7675 40.9614 44.5317 40.7839 44.2795 40.6099C44.0273 40.4358 43.7492 40.2029 43.6614 40.0922C43.5392 39.938 43.5008 37.5666 43.4976 29.9739L43.4935 20.057L43.9847 19.6915C44.255 19.4906 44.5644 19.2342 44.6725 19.1219C44.7806 19.0095 45.0753 18.7759 45.3275 18.6027C45.5797 18.4294 45.8155 18.2526 45.8515 18.2096C45.8876 18.1666 46.1234 17.9882 46.3755 17.8132C46.6277 17.6381 46.9694 17.3608 47.1347 17.1972C47.3002 17.0334 47.4917 16.8996 47.5605 16.8996C47.6391 16.8996 47.6856 21.7696 47.6856 30ZM39.8988 17.5254C40.0386 17.6535 40.3592 17.9022 40.6114 18.078C40.8635 18.2538 41.4384 18.7749 41.8886 19.2359L42.7074 20.0741V29.9944V39.9147L42.1507 40.4975C41.8444 40.8181 41.3876 41.225 41.1354 41.402C40.8832 41.5788 40.4486 41.945 40.1697 42.2155L39.6628 42.7074H30.0089C20.9412 42.7074 20.3396 42.6933 20.1012 42.4746C19.9614 42.3465 19.6408 42.0978 19.3886 41.922C19.1365 41.7462 18.5617 41.2251 18.1114 40.7641L17.2926 39.9259V29.9982V20.0705L18.2424 19.1021C18.7648 18.5695 19.4574 17.9471 19.7817 17.719L20.3712 17.3043L30.008 17.2985C39.0643 17.293 39.6603 17.3066 39.8988 17.5254ZM18.098 41.8242C19.5371 43.2448 19.4805 43.1152 18.9819 43.8473C18.7463 44.193 18.4586 44.5644 18.3426 44.6725C18.2266 44.7806 17.9899 45.0753 17.8167 45.3275C17.6434 45.5797 17.4665 45.8155 17.4236 45.8515C17.3806 45.8876 17.2038 46.1234 17.0304 46.3755C16.1459 47.6633 16.0556 47.639 13.9847 45.5555C12.4482 44.0093 12.4524 44.0367 13.6245 43.2316C13.8766 43.0583 14.1124 42.8814 14.1485 42.8384C14.1845 42.7955 14.4203 42.6186 14.6725 42.4453C14.9247 42.2721 15.2194 42.0356 15.3275 41.92C16.4599 40.7079 16.95 40.691 18.098 41.8242ZM43.8629 41.2909C44.2001 41.5205 44.5644 41.8034 44.6725 41.9194C44.7806 42.0354 45.0753 42.2721 45.3275 42.4453C45.5797 42.6186 45.8155 42.7955 45.8515 42.8384C45.8876 42.8814 46.1234 43.0583 46.3755 43.2316C47.5347 44.0278 47.5349 44.0251 46.1463 45.425C44.5734 47.0106 43.7808 47.5542 43.5366 47.2144C43.438 47.0772 43.2841 46.8766 43.1944 46.7686C43.1046 46.6605 42.8875 46.3657 42.7119 46.1135C42.5362 45.8614 42.3574 45.6255 42.3144 45.5895C42.2714 45.5535 42.0946 45.3177 41.9214 45.0655C41.7482 44.8133 41.5703 44.5775 41.526 44.5415C41.0953 44.1908 40.6058 43.1983 40.7644 42.9968C42.1864 41.1889 43.0306 40.7241 43.8629 41.2909ZM40.0471 43.9847C40.2486 44.255 40.446 44.5055 40.4859 44.5415C40.5258 44.5775 40.7002 44.8133 40.8734 45.0655C41.0466 45.3177 41.2234 45.5535 41.2664 45.5895C41.3093 45.6255 41.4884 45.8614 41.6642 46.1135C41.8402 46.3657 42.1483 46.7445 42.349 46.9552C43.0062 47.6451 43.4708 47.6201 30 47.6201C16.958 47.6201 17.0345 47.6234 17.5234 47.0902C17.6526 46.9494 17.9011 46.6277 18.0759 46.3755C18.2506 46.1234 18.4286 45.8876 18.4716 45.8515C18.5146 45.8155 18.6914 45.5797 18.8646 45.3275C19.0378 45.0753 19.2147 44.8395 19.2576 44.8035C19.3006 44.7675 19.4781 44.5317 19.6521 44.2795C19.8262 44.0273 20.0591 43.7492 20.1698 43.6614C20.3239 43.5393 22.6394 43.5008 30.0261 43.4976L39.681 43.4935L40.0471 43.9847ZM12.3968 45.2954C12.6757 45.5659 13.1103 45.9325 13.3624 46.11C14.8457 47.1537 15.6604 48.333 15.2257 48.8071C15.0976 48.9469 14.85 49.2675 14.6752 49.5196C14.5005 49.7718 14.3224 50.0076 14.2795 50.0437C14.2365 50.0797 14.0597 50.3155 13.8865 50.5677C13.7133 50.8199 13.5364 51.0557 13.4934 51.0917C13.4505 51.1277 13.2736 51.3635 13.1003 51.6157C12.9271 51.8679 12.6913 52.1627 12.5764 52.2707C12.4615 52.3788 12.2336 52.6589 12.07 52.893C11.6704 53.465 11.6839 53.4703 10.4494 52.2369C9.85401 51.6419 9.16048 51.0101 8.9083 50.8328C8.42293 50.4917 6.81209 48.8919 6.81236 48.7512C6.81262 48.5982 7.39716 48.0039 7.86026 47.6857C8.11244 47.5124 8.34825 47.3355 8.38428 47.2926C8.42031 47.2496 8.65611 47.0728 8.9083 46.8994C9.16048 46.7262 9.45524 46.4904 9.56332 46.3755C9.6714 46.2607 9.96616 46.0248 10.2183 45.8517C10.4705 45.6783 10.7063 45.497 10.7424 45.4486C10.8284 45.3329 11.7012 44.8047 11.8073 44.804C11.8527 44.8037 12.118 45.0249 12.3968 45.2954ZM48.7336 45.0838C48.9858 45.2375 49.2806 45.4613 49.3886 45.5809C49.4967 45.7005 49.7915 45.9402 50.0437 46.1134C50.2958 46.2867 50.5317 46.4636 50.5677 46.5065C50.6037 46.5495 50.8395 46.7264 51.0917 46.8997C51.3439 47.0729 51.6386 47.3087 51.7467 47.4236C51.8548 47.5385 52.1496 47.7749 52.4017 47.949C52.8439 48.2541 53.1749 48.5894 53.1836 48.7408C53.1912 48.8729 52.3442 49.7222 51.882 50.0459C51.6324 50.2208 50.7892 50.9993 50.0085 51.7758C48.4341 53.342 48.2591 53.4126 47.7265 52.6965C47.5255 52.4264 47.2677 52.1168 47.1537 52.0087C47.0397 51.9007 46.6896 51.429 46.3755 50.9607C46.0615 50.4924 45.7091 50.0207 45.5925 49.9127C45.4759 49.8046 45.2379 49.5098 45.0635 49.2576C44.8893 49.0055 44.671 48.7212 44.5786 48.6261C44.4861 48.5308 44.4105 48.4005 44.4105 48.3363C44.4105 48.1721 46.6079 45.979 47.1616 45.5907C47.4138 45.4138 47.7343 45.1644 47.8741 45.0363C48.1901 44.7465 48.1791 44.746 48.7336 45.0838ZM43.4983 48.6396C43.609 48.7273 43.8421 49.0055 44.016 49.2576C44.1901 49.5098 44.4266 49.8046 44.5415 49.9127C44.6564 50.0207 44.8922 50.3155 45.0654 50.5677C45.2387 50.8199 45.4155 51.0557 45.4585 51.0917C45.5015 51.1277 45.6783 51.3635 45.8515 51.6157C46.0247 51.8679 46.2026 52.1037 46.2469 52.1397C46.5001 52.3459 47.163 53.4726 47.0954 53.5818C46.9862 53.7586 13.0154 53.7613 12.9063 53.5846C12.8215 53.4476 13.118 52.7991 13.3965 52.5124C13.4906 52.4155 13.7103 52.1299 13.8845 51.8777C14.0589 51.6255 14.2969 51.3308 14.4135 51.2227C14.5301 51.1146 14.8826 50.643 15.197 50.1747C15.5113 49.7063 15.9756 49.1315 16.2287 48.8974L16.6888 48.4716L29.9928 48.4758C40.2481 48.4789 43.3431 48.5165 43.4983 48.6396ZM7.64239 50.7314C8.46942 51.5421 9.39315 52.4116 9.69525 52.6638C11.0753 53.8157 11.2694 54.0791 10.9673 54.3903C10.8748 54.4854 10.6567 54.7696 10.4823 55.0218C10.3081 55.274 10.1303 55.5098 10.0873 55.5458C10.0444 55.5819 9.86751 55.8177 9.69432 56.0699C9.52114 56.3221 9.34428 56.5579 9.30131 56.5939C9.25834 56.6299 9.08148 56.8657 8.9083 57.1179C8.73511 57.3701 8.55825 57.6059 8.51528 57.6419C8.47231 57.6779 8.29546 57.9138 8.12227 58.1659C7.53812 59.0165 7.53669 59.0163 6.51996 58.0009C6.06826 57.5498 5.49236 57.0343 5.24017 56.8555C4.98799 56.6767 4.1839 55.9327 3.45329 55.2025C2.72268 54.4721 1.94333 53.7673 1.72154 53.6363C1.05106 53.2403 1.04766 52.8753 1.71067 52.4836C1.92656 52.356 2.23416 52.1221 2.39438 51.9637C2.5546 51.8052 2.89192 51.5323 3.1441 51.3571C3.39629 51.1821 3.6321 51.0037 3.66812 50.9607C3.70415 50.9177 3.93996 50.7409 4.19214 50.5676C4.44432 50.3944 4.73908 50.1546 4.84716 50.035C5.05559 49.8042 5.89964 49.2589 6.04977 49.2582C6.0989 49.2579 6.81549 49.9209 7.64239 50.7314ZM54.4978 49.538C54.75 49.6916 55.0448 49.9154 55.1528 50.035C55.2609 50.1546 55.5557 50.3944 55.8079 50.5676C56.06 50.7409 56.2958 50.9177 56.3319 50.9607C56.3679 51.0037 56.6037 51.1805 56.8559 51.3538C57.1081 51.527 57.4028 51.7606 57.5109 51.873C57.619 51.9853 57.9286 52.2417 58.1987 52.4426C58.469 52.6436 58.69 52.8596 58.69 52.9225C58.69 53.0853 56.0955 55.6842 55.5458 56.072C55.2937 56.2498 54.5413 56.9412 53.8738 57.6081C52.4179 59.0633 52.4819 59.0455 51.8776 58.1659C51.7044 57.9138 51.4686 57.619 51.3537 57.5109C51.2388 57.4028 51.003 57.1081 50.8298 56.8559C50.6565 56.6037 50.4796 56.3679 50.4367 56.3319C50.3937 56.2958 50.2169 56.06 50.0437 55.8079C49.8705 55.5557 49.692 55.3199 49.647 55.2838C49.512 55.1758 48.8646 54.1821 48.8646 54.0832C48.8646 53.9395 50.0587 52.7576 50.5634 52.4017C50.8131 52.2255 51.6562 51.4461 52.4369 50.6696C54.0329 49.082 53.8838 49.1638 54.4978 49.538ZM48.4314 54.9891C48.6329 55.2593 48.8319 55.5098 48.8737 55.5458C48.9156 55.5819 49.2065 55.9945 49.5202 56.4629C49.8339 56.9312 50.187 57.4028 50.3046 57.5109C50.6913 57.8661 51.3696 58.9514 51.2876 59.084C51.235 59.169 43.877 59.214 30 59.214C16.123 59.214 8.76496 59.169 8.71243 59.084C8.64483 58.9748 9.30772 57.8481 9.56095 57.6419C9.60523 57.6059 9.78314 57.3701 9.95633 57.1179C10.1295 56.8657 10.3064 56.6299 10.3493 56.5939C10.3923 56.5579 10.5692 56.3221 10.7424 56.0699C10.9155 55.8177 11.0899 55.5819 11.1299 55.5458C11.1697 55.5098 11.3671 55.2593 11.5686 54.9891L11.9348 54.4978H30H48.0652L48.4314 54.9891Z" fill="black"/>
</svg>
