<svg id="Layer_1" data-name="Layer 1" xmlns="http://www.w3.org/2000/svg" viewBox="0 0 600 600"><defs><style>.cls-1{fill:#231f20;}</style></defs><path class="cls-1" d="M393.49,300V491c0,8.12,0,8.18-8,8.18H214.29c-7.71,0-7.78,0-7.78-8V108.69c0-7.85,0-7.91,7.85-7.91H386.05c7.37,0,7.44,0,7.44,7.71ZM211.18,490.23a9.39,9.39,0,0,0,4.4-3.39c8.52-8.72,16.77-17.72,25.43-26.18a15.8,15.8,0,0,0,4.87-12.44V148.81a8.79,8.79,0,0,0-2.3-6.77c-10.21-10.42-20.29-21-30.51-31.45a1.28,1.28,0,0,0-1.81-.15,1.06,1.06,0,0,0-.15.15Zm177.17,0V110.59c-10.69,10.28-20.7,20.29-30.92,30.23a11,11,0,0,0-3.31,8.73V449A12.63,12.63,0,0,0,358,459.24c6.3,6,12.25,12.32,18.27,18.61a125.82,125.82,0,0,0,12.11,12.65ZM349,149.75,322,176.27a7.18,7.18,0,0,0-1.7,5.75V417a6.75,6.75,0,0,0,1.43,5.35l27,25ZM250.68,450.58l27.54-28.81a6.8,6.8,0,0,0,.94-5V183a9.22,9.22,0,0,0-2.7-6.77c-7.58-7.64-14.95-15.49-22.46-23.2-.88-.88-1.42-2.57-3.38-1.83ZM216.12,105.92c0,2.57,2,3.65,3.24,5,8.59,8.87,17.39,17.59,25.85,26.72a12.17,12.17,0,0,0,9.67,4c25.91,0,51.82-.82,77.73,0a35.06,35.06,0,0,0,31.66-13.53,305.9,305.9,0,0,1,22.52-22.46Zm-1.49,388H385.17c-10.76-11.3-21.65-22.39-32.07-33.35a8.23,8.23,0,0,0-6.76-2H253.53a10.34,10.34,0,0,0-8.26,3.58c-5.14,5.62-10.48,11.1-15.83,16.58ZM316.1,415.81V182.22c-4.19,4.2-7.51,7.72-11,11a9.1,9.1,0,0,0-2.84,6.77V398.29a6.8,6.8,0,0,0,1.56,5.35ZM284.24,183.92V415.81c4.06-4.19,7.24-7.78,10.75-11.16a10.06,10.06,0,0,0,3.18-7.85v-194a7.74,7.74,0,0,0-1.55-5.89ZM253.12,454.51h93.69l-26.52-27.87A5.65,5.65,0,0,0,316.1,425H284.31a5.17,5.17,0,0,0-3.93,1.15Zm0-308.75,27.06,28.08a6.77,6.77,0,0,0,5.41,1.42h27.6A9.83,9.83,0,0,0,321,172c7.51-7.71,15.15-15.29,22.73-22.93.88-.88,2.5-1.49,1.89-3.39ZM314,420.35,302.44,408a2.31,2.31,0,0,0-3.23-.43,2.5,2.5,0,0,0-.43.43l-12.24,12.44ZM287.82,180.2,286.4,182c3.79,3.25,7.65,6.36,11.37,9.61,1.28,1,2.5,1.42,3.72,0A95.18,95.18,0,0,0,312.38,180Z"/></svg>