<svg width="60" height="60" viewBox="0 0 60 60" fill="none" xmlns="http://www.w3.org/2000/svg">
<path fill-rule="evenodd" clip-rule="evenodd" d="M29.4368 0.0570865C29.3722 0.121915 28.2553 0.219655 26.9546 0.274269C23.4024 0.423502 20.7555 0.761118 18.2772 1.38075C17.9261 1.46856 17.3516 1.59183 17.0005 1.65481C16.6494 1.71766 16.0111 1.87795 15.582 2.01101C15.1529 2.14407 14.3549 2.38013 13.8088 2.53546C12.579 2.88556 11.6323 3.2158 9.3403 4.0946C7.28806 4.88147 4.79027 7.36212 4.00254 9.39563C3.9119 9.62969 3.70931 10.1404 3.55228 10.5305C3.10259 11.6477 2.03001 14.9239 1.81056 15.8501C1.74601 16.1232 1.62231 16.6338 1.53578 16.9849C1.44925 17.336 1.31663 17.9425 1.24102 18.3326C1.16541 18.7227 1.03889 19.361 0.959731 19.7511C-0.321515 26.0721 -0.319815 34.1921 0.964268 40.6395C1.04584 41.0491 1.1725 41.6875 1.24556 42.058C1.31875 42.4286 1.44642 43.0031 1.52927 43.3347C1.61225 43.6664 1.73666 44.1771 1.80574 44.4696C2.04279 45.4729 2.51674 46.9448 3.50746 49.7537C4.3769 52.2186 5.75487 54.0266 7.79051 55.3734C9.00679 56.178 9.03063 56.188 12.3193 57.2795C15.6251 58.3766 16.247 58.5653 17.0005 58.7003C17.3516 58.7633 17.9261 58.8874 18.2772 58.9764C18.6283 59.0652 19.2827 59.1968 19.7313 59.2689C20.1798 59.3409 20.946 59.4666 21.4335 59.548C23.7715 59.9387 24.9387 60 30.0513 60C35.164 60 36.3312 59.9387 38.6691 59.548C39.1568 59.4666 39.9228 59.3409 40.3714 59.2689C40.8199 59.1968 41.4424 59.0721 41.7545 58.9917C42.0665 58.9113 42.6091 58.7758 42.9602 58.6907C43.3113 58.6056 43.838 58.4749 44.1306 58.4004C44.4232 58.326 44.902 58.2092 45.1945 58.1408C47.7338 57.5477 51.8515 55.8402 52.737 55.013C52.9964 54.7706 53.3838 54.4689 53.5976 54.3425C53.8115 54.2162 54.0855 53.9459 54.2063 53.7419C54.327 53.538 54.5787 53.1937 54.7652 52.9771C55.2776 52.3823 55.9843 51.1652 56.3157 50.3068C56.8528 48.9164 58.0465 45.2373 58.2904 44.2213C58.3559 43.9483 58.4803 43.4376 58.5668 43.0865C58.6534 42.7354 58.786 42.129 58.8616 41.7388C58.9372 41.3487 59.0645 40.7104 59.1445 40.3203C59.2829 39.6446 59.3679 39.0788 59.7194 36.4902C59.92 35.0142 59.9217 25.076 59.7218 23.5813C59.5459 22.2668 59.3486 21.0552 59.1384 19.9994C59.0568 19.5897 58.9301 18.9513 58.8571 18.5808C58.7839 18.2103 58.6562 17.6356 58.5734 17.3041C58.4904 16.9726 58.366 16.4619 58.2969 16.1693C58.0408 15.0853 56.9231 11.5517 56.5581 10.6723C55.9599 9.23079 55.3772 8.03012 55.1614 7.79421C55.0393 7.66072 54.7825 7.32807 54.5909 7.055C53.2834 5.19186 49.4841 3.22984 45.2299 2.22082C44.9569 2.15599 44.4781 2.0391 44.166 1.96108C43.8539 1.88306 43.3433 1.75539 43.0312 1.67737C42.7191 1.59935 42.1765 1.46401 41.8254 1.37649C41.4743 1.28882 40.8359 1.16115 40.4068 1.09264C39.9777 1.02412 39.2755 0.896589 38.8464 0.809347C37.6994 0.57571 35.8145 0.38974 33.1722 0.24916C31.8848 0.180644 30.5441 0.0829041 30.1929 0.0319777C29.8415 -0.0190906 29.5013 -0.00774182 29.4368 0.0570865ZM27.7816 1.23789C27.7816 1.37521 26.6924 2.11613 24.2352 3.65045C23.572 4.06453 22.4958 4.74983 21.8434 5.17313C21.1911 5.59657 20.0126 6.32799 19.2246 6.79852C18.4365 7.26906 17.3201 7.97252 16.7435 8.36164C15.5081 9.19518 15.4857 9.18312 15.376 7.62242C15.0587 3.1087 15.0858 2.91365 16.0519 2.75307C16.3006 2.71179 16.7913 2.60554 17.1424 2.51702C17.7563 2.36211 18.1335 2.2821 19.8377 1.94462C20.8447 1.74531 22.3218 1.54118 23.6917 1.41224C24.29 1.35592 24.8273 1.26201 24.8856 1.20343C25.0479 1.04086 27.7816 1.07334 27.7816 1.23789ZM30.5085 1.39692C31.068 1.68233 31.5567 1.98732 34.2873 3.75613C34.9396 4.17872 36.0975 4.89708 36.8604 5.35272C37.6233 5.80836 38.7813 6.52829 39.4335 6.95258C40.0859 7.37701 41.1941 8.0819 41.8963 8.51924C44.1179 9.90248 44.1219 9.90759 43.2794 10.2629C42.9869 10.3862 40.6409 11.512 38.0662 12.7646C35.4915 14.017 33.2892 15.086 33.1722 15.1401C33.0551 15.1941 32.8317 15.3038 32.6757 15.3838C32.5196 15.4638 31.8686 15.7722 31.229 16.0691L30.0659 16.609L29.4558 16.3602C29.1202 16.2233 26.6432 15.0388 23.9515 13.7278C21.2598 12.4169 18.4303 11.0475 17.664 10.6848C15.8794 9.84049 15.8155 9.96603 19.0575 7.9494C23.7553 5.02716 27.1793 2.86428 28.9165 1.72177C30.0231 0.993903 29.8055 1.03831 30.5085 1.39692ZM36.3639 1.36585C36.9881 1.44515 37.8978 1.57665 38.3854 1.65822C38.8731 1.73964 39.6391 1.86717 40.0876 1.94164C42.4191 2.32863 43.9776 2.71646 44.6523 3.07749C44.9513 3.2375 44.9616 3.30616 44.8835 4.61805C44.8387 5.37315 44.7665 6.62943 44.7231 7.40964C44.628 9.1183 44.575 9.1888 43.7887 8.65145C43.1771 8.23354 42.567 7.8535 39.9813 6.28003C38.6872 5.49259 37.7253 4.88247 33.9169 2.43332C31.6658 0.985674 32.0498 0.818147 36.3639 1.36585ZM14.3348 5.22222C14.3901 6.19124 14.4759 7.38978 14.5254 7.88571C14.6541 9.1705 14.5971 9.18029 12.587 8.21609C11.6205 7.7525 10.2075 7.07854 9.44669 6.71851C7.48652 5.79077 7.85407 5.43457 12.3193 3.93501C14.4003 3.23608 14.2148 3.11764 14.3348 5.22222ZM46.9322 3.64336C47.2053 3.69797 47.5743 3.82095 47.7521 3.91657C47.93 4.01218 48.446 4.20893 48.8989 4.35349C51.0405 5.0378 52.4248 5.98823 51.6043 6.21137C51.4143 6.26301 50.0217 6.9252 48.5097 7.68299C45.3627 9.26029 45.4626 9.26526 45.5727 7.5339C45.6166 6.84136 45.6876 5.70027 45.7304 4.99808C45.8249 3.44646 45.8663 3.30573 46.1886 3.44078C46.3245 3.49752 46.6591 3.58874 46.9322 3.64336ZM7.27971 7.18976C7.39873 7.41999 7.49617 7.74172 7.49617 7.90471C7.49617 8.06771 7.62384 8.45143 7.77988 8.75727C7.93592 9.06311 8.06531 9.42769 8.06744 9.56728C8.06956 9.707 8.44843 10.937 8.90947 12.301C9.86175 15.1181 9.37362 15.2376 6.63083 12.8588C6.46656 12.7163 5.95803 12.3576 5.50069 12.0615C4.36669 11.3276 4.23659 11.0543 4.63279 10.2388C4.8033 9.88786 4.94275 9.53578 4.94275 9.45634C4.94275 9.26086 6.35693 7.16976 6.63554 6.95314C6.96238 6.69908 7.04097 6.72788 7.27971 7.18976ZM53.8484 7.60313C55.9555 9.76318 56.0455 11.1202 54.1633 12.3556C53.4661 12.8132 52.7622 13.3035 52.5992 13.4449C50.2343 15.4959 50.1094 15.2513 51.4529 11.2034C53.12 6.18088 52.8527 6.58248 53.8484 7.60313ZM9.3403 7.62242C9.53535 7.77506 9.77423 7.90132 9.87112 7.90302C9.96801 7.90472 11.1077 8.4327 12.4037 9.07645L14.7601 10.2468L16.8106 14.3406C19.198 19.1071 19.1966 18.7569 16.8253 17.9409C11.9709 16.2705 11.2959 16.0212 11.1294 15.8358C10.8712 15.5482 8.31753 7.76286 8.4059 7.53263C8.5113 7.25785 8.92523 7.29771 9.3403 7.62242ZM51.6651 7.63774C51.64 7.89478 49.0825 15.5515 48.9317 15.8209C48.8684 15.9341 47.834 16.3645 46.6332 16.7771C45.4322 17.1899 43.8114 17.7539 43.0312 18.0306C41.1432 18.7 40.8132 18.6255 41.5417 17.6942C41.6943 17.4992 41.822 17.2438 41.8254 17.1268C41.8288 17.0098 41.9565 16.7544 42.1091 16.5594C42.2617 16.3643 42.388 16.1188 42.3897 16.0138C42.3914 15.9088 42.5127 15.6535 42.6593 15.4464C42.8059 15.2393 43.4695 13.9847 44.1338 12.6583L45.342 10.2468L47.733 9.09191C51.6339 7.20778 51.7098 7.17968 51.6651 7.63774ZM43.7365 11.1624C43.8196 11.2969 42.5836 13.8926 42.1122 14.5734C41.9773 14.7684 41.8281 15.0876 41.7808 15.2827C41.7336 15.4777 41.4689 16.0121 41.1927 16.4701C40.9165 16.9282 40.6905 17.3652 40.6905 17.4413C40.6905 17.5173 40.5704 17.749 40.4234 17.9561C40.2765 18.1632 40.1311 18.4602 40.1003 18.6163C40.0301 18.9726 39.3677 18.924 37.3214 18.4124C36.9898 18.3294 36.4473 18.1938 36.1157 18.1109C35.784 18.028 35.2255 17.9043 34.8744 17.8361C34.5233 17.7678 33.9488 17.6402 33.5977 17.5525C33.2466 17.4648 32.7679 17.357 32.5338 17.313C31.8946 17.1928 31.4248 16.7012 31.9492 16.7012C32.0567 16.7012 32.5183 16.4762 32.9748 16.2015C33.4313 15.9265 34.0295 15.6366 34.3042 15.5573C34.5788 15.4779 36.7505 14.4295 39.1301 13.2276C43.7439 10.8973 43.6098 10.9575 43.7365 11.1624ZM17.3875 11.5426C18.5805 12.0872 18.8342 12.2096 19.5539 12.5874C19.749 12.6898 20.0043 12.8178 20.1214 12.8717C20.2384 12.9257 21.7868 13.6817 23.5623 14.5518C25.3376 15.422 26.8696 16.1352 26.9668 16.1369C27.0638 16.1386 27.3028 16.2649 27.4979 16.4175C27.693 16.5701 27.9642 16.6964 28.1008 16.6981C28.7004 16.7056 28.2395 17.1865 27.4979 17.3271C26.4086 17.5336 25.6968 17.6834 25.1218 17.8271C24.7901 17.9101 24.2636 18.0418 23.9515 18.1198C23.6394 18.1978 23.1128 18.3294 22.7812 18.4124C22.4495 18.4953 21.891 18.619 21.5399 18.6873C21.1888 18.7557 20.7296 18.8542 20.5194 18.9062C20.1425 18.9997 20.1114 18.9491 18.2142 15.1568C15.8983 10.5272 15.984 10.9019 17.3875 11.5426ZM4.45859 12.4214C4.61179 12.5641 5.53357 13.2143 6.50684 13.8661C7.48012 14.5178 8.35028 15.1246 8.44064 15.2147C8.53114 15.3046 8.93005 15.5868 9.32724 15.8417C9.72458 16.0966 10.0496 16.335 10.0496 16.3713C10.0496 16.4521 9.18058 17.7372 9.05915 17.8361C9.0112 17.8751 8.81855 18.1304 8.63088 18.4035C8.44334 18.6766 8.18659 18.9957 8.06034 19.1128C7.93408 19.2298 7.55275 19.7405 7.21301 20.2476C6.8734 20.7548 6.55567 21.2016 6.50702 21.2406C6.45836 21.2796 6.26514 21.535 6.0776 21.808C5.89007 22.0811 5.69856 22.3365 5.65204 22.3755C5.60551 22.4145 5.414 22.6698 5.22647 22.9429C5.03893 23.216 4.84743 23.4713 4.8009 23.5103C4.75437 23.5493 4.56286 23.8047 4.37533 24.0777C4.1878 24.3508 3.99629 24.6062 3.94976 24.6452C3.90323 24.6842 3.71173 24.9395 3.52419 25.2126C3.33666 25.4857 3.14515 25.741 3.09862 25.78C3.05209 25.819 2.86059 26.0744 2.67305 26.3474C2.48552 26.6205 2.29287 26.8759 2.24492 26.9149C2.19698 26.9539 1.95157 27.2891 1.69935 27.6596C1.44713 28.0301 1.17661 28.3334 1.09788 28.3334C0.737992 28.3334 1.18613 23.1167 1.81087 20.0348C1.89002 19.6447 2.01655 19.0064 2.09216 18.6163C2.16777 18.2262 2.29459 17.6517 2.37403 17.3396C2.45333 17.0275 2.57774 16.5168 2.65037 16.2047C2.72314 15.8926 2.89054 15.2862 3.0226 14.8571C3.15453 14.428 3.33284 13.8215 3.41867 13.5095C3.77132 12.2265 3.99656 11.9909 4.45859 12.4214ZM56.5137 13.3025C56.6929 13.8844 56.9477 14.7117 57.0799 15.1408C57.212 15.5699 57.3737 16.1444 57.4392 16.4175C57.5048 16.6906 57.6292 17.2013 57.7157 17.5524C57.8674 18.168 57.9517 18.5683 58.2842 20.2476C58.7983 22.8447 59.3012 28.3334 59.025 28.3334C58.8796 28.3334 58.4955 27.9074 58.0018 27.1986C57.8116 26.9255 57.618 26.6702 57.5714 26.6312C57.5249 26.5922 57.3334 26.3368 57.1459 26.0637C56.9583 25.7907 56.7668 25.5353 56.7203 25.4963C56.6738 25.4573 56.4823 25.202 56.2947 24.9289C56.1072 24.6558 55.9157 24.4005 55.8692 24.3615C55.8226 24.3225 55.6311 24.0671 55.4436 23.794C55.2561 23.521 55.0628 23.2656 55.0142 23.2266C54.9655 23.1876 54.6481 22.7408 54.3087 22.2336C53.9694 21.7265 53.652 21.2796 53.6033 21.2406C53.5546 21.2016 53.3614 20.9463 53.1739 20.6732C52.9864 20.4001 52.7948 20.1448 52.7483 20.1058C52.7018 20.0668 52.5103 19.8114 52.3228 19.5383C52.1352 19.2653 51.9437 19.0099 51.8972 18.9709C51.8507 18.9319 51.6591 18.6766 51.4716 18.4035C51.2841 18.1304 51.0914 17.8751 51.0435 17.8361C50.5073 17.3996 50.0282 16.3612 50.2796 16.1805C50.4281 16.0738 50.6578 15.8956 50.7903 15.7844C50.9226 15.6732 51.8037 15.0643 52.7483 14.4315C53.6929 13.7987 54.574 13.1891 54.7064 13.0769C56.007 11.9747 56.1086 11.9875 56.5137 13.3025ZM13.8797 17.8527C14.7769 18.1706 16.2958 18.702 17.255 19.0333C19.4152 19.7798 19.3644 19.7311 19.065 20.7681C18.9335 21.223 18.6971 22.0421 18.5398 22.5883C18.3825 23.1344 18.0717 24.1877 17.8493 24.9289C17.6268 25.6701 17.297 26.7709 17.1163 27.3751C16.8005 28.4309 16.6368 28.6228 16.4266 28.1831C16.2384 27.7891 15.1848 25.4149 14.7308 24.3615C14.4786 23.7763 14.0318 22.7549 13.7378 22.0918C13.4439 21.4286 12.9969 20.4072 12.7446 19.8221C12.4922 19.2369 12.1644 18.4827 12.0161 18.146C11.5506 17.0888 11.671 17.0699 13.8797 17.8527ZM48.2744 17.4017C48.3197 17.475 48.1715 17.9378 47.945 18.4302C47.2858 19.8638 45.487 23.9116 44.8049 25.4963C43.5447 28.4244 43.314 28.7447 43.0773 27.8962C43.0246 27.7076 42.7852 26.899 42.5453 26.0992C42.3054 25.2994 41.9129 23.9909 41.6732 23.1911C41.4334 22.3914 41.1165 21.3541 40.9688 20.8861C40.6329 19.8208 40.6575 19.792 42.4192 19.1746C43.1459 18.9199 44.6341 18.394 45.7264 18.0059C47.8178 17.2627 48.1411 17.1861 48.2744 17.4017ZM50.0614 17.991C50.3163 18.3882 50.5964 18.7871 50.6838 18.8776C50.7711 18.9679 50.997 19.2653 51.1858 19.5383C51.3745 19.8114 51.5669 20.0668 51.6135 20.1058C51.66 20.1448 51.8515 20.4001 52.039 20.6732C52.2266 20.9463 52.4181 21.2016 52.4646 21.2406C52.5111 21.2796 52.7026 21.535 52.8902 21.808C53.0777 22.0811 53.2692 22.3365 53.3157 22.3755C53.3623 22.4145 53.5538 22.6698 53.7413 22.9429C53.9288 23.216 54.1204 23.4713 54.1669 23.5103C54.2134 23.5493 54.4049 23.8047 54.5924 24.0777C54.78 24.3508 54.9715 24.6062 55.018 24.6452C55.0645 24.6842 55.2561 24.9395 55.4436 25.2126C55.6311 25.4857 55.8226 25.741 55.8692 25.78C55.9157 25.819 56.1072 26.0744 56.2947 26.3474C56.4823 26.6205 56.6755 26.8759 56.7241 26.9149C56.7728 26.9539 57.0886 27.3953 57.426 27.896C57.7635 28.3966 58.2196 28.9945 58.4396 29.2247C59.1008 29.9166 59.0413 30.5105 58.2267 31.3517C58.1342 31.447 57.9042 31.7486 57.7154 32.0217C57.5267 32.2948 57.3325 32.5501 57.2839 32.5891C57.2352 32.6281 56.9178 33.075 56.5784 33.5821C56.2391 34.0893 55.9217 34.5361 55.873 34.5751C55.8243 34.6141 55.6311 34.8695 55.4436 35.1425C55.2561 35.4156 55.0645 35.671 55.018 35.71C54.9715 35.749 54.78 36.0043 54.5924 36.2774C54.4049 36.5505 54.2134 36.8058 54.1669 36.8448C54.1204 36.8838 53.9289 37.1392 53.7412 37.4122C53.5536 37.6853 53.2969 38.0045 53.1706 38.1215C53.0444 38.2386 52.6631 38.7492 52.3233 39.2564C51.9837 39.7635 51.666 40.2104 51.6173 40.2494C51.5687 40.2884 51.3745 40.5437 51.1858 40.8168C50.997 41.0899 50.7711 41.3872 50.6838 41.4775C50.5964 41.568 50.3163 41.9669 50.0614 42.3641C49.57 43.1299 49.3821 43.241 49.2591 42.8382C49.2174 42.7016 48.9323 42.0315 48.6253 41.3487C47.4142 38.6557 46.6807 36.9835 45.6383 34.5396C44.953 32.933 44.4256 31.7038 44.0863 30.9223L43.7629 30.1776L44.0542 29.5038C44.2145 29.1332 44.4873 28.4788 44.6607 28.0497C44.834 27.6206 45.217 26.7269 45.512 26.0637C45.8069 25.4006 46.2544 24.3792 46.5066 23.794C46.7589 23.2089 47.2057 22.1875 47.4996 21.5243C47.9753 20.4513 48.3613 19.5599 49.1121 17.8006C49.4079 17.1076 49.5073 17.1275 50.0614 17.991ZM11.2066 18.552C11.6865 19.5305 11.932 20.0835 13.0457 22.6947C14.2454 25.5074 15.0077 27.2455 15.8766 29.1491L16.346 30.1776L15.8766 31.206C15.2815 32.5098 14.4691 34.342 13.8797 35.71C13.6275 36.2951 13.1806 37.3165 12.8867 37.9797C12.5928 38.6428 12.1603 39.6323 11.9256 40.1784C10.9599 42.4264 10.8394 42.6769 10.6478 42.8361C10.491 42.9662 10.4193 42.9513 10.3164 42.7676C10.2442 42.6386 10.1046 42.4501 10.0063 42.3487C9.90802 42.2474 9.67308 41.941 9.48427 41.6679C9.2956 41.3948 9.1014 41.1395 9.05274 41.1005C9.00408 41.0615 8.68635 40.6146 8.34675 40.1075C8.007 39.6004 7.62567 39.0897 7.49942 38.9727C7.37317 38.8556 7.11641 38.5364 6.92888 38.2634C6.7412 37.9903 6.54799 37.735 6.49933 37.696C6.45067 37.6569 6.13294 37.2101 5.79334 36.703C5.45359 36.1958 5.07085 35.6851 4.94275 35.5681C4.81466 35.4511 4.43192 34.9404 4.09217 34.4333C3.75257 33.9261 3.43484 33.4793 3.38618 33.4403C3.33752 33.4013 3.1443 33.1459 2.95677 32.8728C2.76923 32.5998 2.57773 32.3444 2.5312 32.3054C2.48467 32.2664 2.29189 32.0111 2.10265 31.738C1.91341 31.4649 1.64276 31.1151 1.50104 30.9606C1.0149 30.4304 1.04141 29.854 1.57734 29.302C1.67806 29.1985 1.91471 28.8902 2.10352 28.6171C2.29219 28.3441 2.48467 28.0887 2.5312 28.0497C2.57773 28.0107 2.76923 27.7554 2.95677 27.4823C3.1443 27.2092 3.33752 26.9539 3.38618 26.9149C3.43484 26.8759 3.75257 26.429 4.09217 25.9219C4.43192 25.4147 4.81466 24.9041 4.94275 24.787C5.07085 24.67 5.45359 24.1593 5.79334 23.6522C6.13294 23.145 6.45067 22.6982 6.49933 22.6592C6.54799 22.6202 6.74121 22.3648 6.92874 22.0918C7.11628 21.8187 7.30778 21.5633 7.35431 21.5243C7.40084 21.4853 7.59235 21.23 7.77988 20.9569C7.96741 20.6838 8.15892 20.4285 8.20545 20.3895C8.25198 20.3505 8.44348 20.0951 8.63102 19.8221C8.81855 19.549 9.01006 19.2936 9.05659 19.2546C9.10312 19.2156 9.2959 18.9603 9.48513 18.6872C9.67437 18.4141 9.94246 18.067 10.0812 17.9157C10.2198 17.7644 10.3333 17.5836 10.3333 17.5138C10.3333 17.1284 10.7529 17.6274 11.2066 18.552ZM31.1152 17.8488C31.4273 17.927 31.938 18.0558 32.2501 18.1351C32.5622 18.2145 33.1048 18.3353 33.4559 18.4035C34.064 18.5217 34.6768 18.6655 35.9384 18.9862C36.2504 19.0657 36.793 19.1864 37.1441 19.2546C37.8961 19.4007 38.7562 19.6081 39.3235 19.7799C39.7445 19.9075 40.0433 20.6611 40.9855 23.9714C41.6962 26.4686 41.8757 27.0756 42.2619 28.2855C42.49 29.0004 42.6765 29.8519 42.6765 30.1776C42.6765 30.5033 42.49 31.3547 42.2619 32.0696C41.8757 33.2795 41.6962 33.8865 40.9855 36.3838C39.7784 40.6244 39.8347 40.5321 38.279 40.8219C37.9279 40.8873 37.3853 41.0057 37.0732 41.0852C35.8117 41.4059 35.1989 41.5498 34.5907 41.6679C34.2396 41.7362 33.6811 41.8599 33.3495 41.9427C33.0178 42.0257 32.4754 42.1613 32.1437 42.2443C30.0027 42.7795 30.0547 42.7798 27.8525 42.22C27.5405 42.1406 26.9979 42.0199 26.6468 41.9516C26.2957 41.8834 25.7372 41.7597 25.4055 41.6769C25.0739 41.5939 24.5314 41.4583 24.1997 41.3753C23.8681 41.2924 23.3096 41.1687 22.9585 41.1005C22.6074 41.0323 22.0648 40.9114 21.7527 40.832C21.4406 40.7527 21.0073 40.645 20.7898 40.5928C20.3625 40.4904 20.1363 40.1338 19.8517 39.1145C19.5124 37.8995 19.1031 36.4844 18.7028 35.1425C18.4817 34.4013 18.172 33.3481 18.0147 32.8019C17.1556 29.8207 17.1719 30.2807 17.8463 28.0497C18.0704 27.3085 18.392 26.2233 18.561 25.6382C18.7299 25.053 19.0494 23.9678 19.2709 23.2266C19.4924 22.4854 19.7538 21.5917 19.8517 21.2406C20.1363 20.2215 20.3625 19.8648 20.7898 19.7623C21.0073 19.7101 21.4406 19.6025 21.7527 19.5232C22.0648 19.4437 22.6074 19.3229 22.9585 19.2546C23.639 19.1224 24.4835 18.92 26.5758 18.3882C26.8879 18.3087 27.4305 18.188 27.7816 18.1198C29.0829 17.8669 29.6395 17.7277 29.736 17.6312C29.7905 17.5768 29.9954 17.5715 30.1915 17.6196C30.3875 17.6675 30.8032 17.7708 31.1152 17.8488ZM17.259 33.4062C17.5182 34.2442 17.848 35.3447 17.9918 35.8518C18.2374 36.7169 18.497 37.6208 19.0638 39.5835C19.1946 40.0364 19.2786 40.4274 19.2505 40.4521C19.0448 40.6327 18.0449 41.0401 16.4862 41.5784C15.4817 41.9253 14.0688 42.4186 13.3463 42.6747C11.7903 43.2264 11.5961 43.1601 12.0107 42.2202C12.162 41.8774 12.4922 41.1182 12.7446 40.5331C12.9969 39.9479 13.4446 38.9266 13.7395 38.2634C14.0345 37.6002 14.4161 36.7065 14.5876 36.2774C14.7592 35.8483 15.2126 34.8421 15.5953 34.0414C15.978 33.2408 16.2913 32.5034 16.2913 32.403C16.2913 32.2192 16.5645 31.8786 16.7097 31.8813C16.7527 31.8821 16.9998 32.5684 17.259 33.4062ZM1.69935 32.6955C1.95157 33.066 2.19698 33.4013 2.24492 33.4403C2.29287 33.4793 2.48552 33.7346 2.67305 34.0077C2.86059 34.2808 3.05209 34.5361 3.09862 34.5751C3.14515 34.6141 3.33666 34.8695 3.52419 35.1425C3.71173 35.4156 3.90323 35.671 3.94976 35.71C3.99629 35.749 4.1878 36.0043 4.37533 36.2774C4.56286 36.5505 4.75437 36.8058 4.8009 36.8448C4.84743 36.8838 5.03893 37.1392 5.22647 37.4122C5.414 37.6853 5.60551 37.9407 5.65204 37.9797C5.69856 38.0187 5.89007 38.274 6.0776 38.5471C6.26514 38.8202 6.45664 39.0755 6.50317 39.1145C6.5497 39.1535 6.74121 39.4089 6.92874 39.6819C7.11628 39.955 7.30778 40.2104 7.35431 40.2494C7.40084 40.2884 7.59235 40.5437 7.77988 40.8168C7.96741 41.0899 8.16064 41.3452 8.20929 41.3842C8.25795 41.4232 8.57695 41.8701 8.9184 42.3772C9.25985 42.8843 9.65407 43.423 9.79437 43.5743C10.1658 43.9745 10.188 43.9493 8.46419 45.0885C7.5922 45.6649 6.81029 46.2038 6.72645 46.2861C6.64261 46.3683 6.15917 46.7163 5.65204 47.0593C5.1449 47.4023 4.60628 47.7978 4.45492 47.9381C3.99658 48.3635 3.77033 48.1249 3.41867 46.8457C3.33284 46.5336 3.15453 45.9272 3.0226 45.498C2.89054 45.0689 2.72893 44.4944 2.66339 44.2213C2.59785 43.9483 2.47345 43.4376 2.38692 43.0865C2.30038 42.7354 2.16989 42.1448 2.09669 41.7743C2.02364 41.4038 1.89697 40.7654 1.81541 40.3558C1.17918 37.1609 0.736716 32.0217 1.09788 32.0217C1.17661 32.0217 1.44713 32.325 1.69935 32.6955ZM43.9378 32.9083C44.4768 34.0816 45.3711 36.0938 45.9392 37.4122C46.5184 38.7563 47.4098 40.7615 47.9505 41.936C48.5427 43.2228 48.4298 43.2645 46.3313 42.533C45.3745 42.1993 43.8054 41.6543 42.8445 41.3218C40.6206 40.5521 40.6257 40.5572 40.969 39.469C41.1167 39.001 41.375 38.1393 41.5432 37.5541C41.7113 36.9689 42.0301 35.8837 42.2516 35.1425C42.4731 34.4013 42.7344 33.5076 42.8323 33.1566C43.2255 31.7454 43.3867 31.7092 43.9378 32.9083ZM59.0767 33.4048C58.9916 34.997 58.7873 36.9488 58.5718 38.2279C58.4898 38.7156 58.3617 39.4815 58.2872 39.9302C58.1041 41.0331 57.9048 42.0349 57.7157 42.8028C57.6292 43.1539 57.5048 43.6645 57.4392 43.9376C57.3737 44.2107 57.2123 44.7852 57.0806 45.2143C56.9488 45.6434 56.7067 46.4414 56.5424 46.9875C56.3782 47.5337 56.197 48.0354 56.1401 48.1025C56.0524 48.2058 54.8084 47.4785 54.5924 47.1978C54.5534 47.147 53.9151 46.6998 53.1739 46.2042C52.4327 45.7086 51.7524 45.2296 51.662 45.14C51.5715 45.0502 51.1726 44.7683 50.7754 44.5134C50.378 44.2585 50.0531 44.0202 50.0531 43.9839C50.0531 43.8997 50.926 42.6137 51.0473 42.5191C51.0974 42.48 51.4163 42.0332 51.7559 41.5261C52.0956 41.0189 52.4784 40.5083 52.6065 40.3912C52.7346 40.2742 53.1173 39.7635 53.457 39.2564C53.7966 38.7492 54.1144 38.3024 54.163 38.2634C54.2117 38.2244 54.4049 37.969 54.5924 37.696C54.78 37.4229 54.9715 37.1675 55.018 37.1285C55.0645 37.0895 55.2561 36.8342 55.4436 36.5611C55.6311 36.288 55.8226 36.0327 55.8692 35.9937C55.9157 35.9547 56.1072 35.6993 56.2947 35.4263C56.4823 35.1532 56.6738 34.8978 56.7203 34.8588C56.7668 34.8198 56.9583 34.5645 57.1459 34.2914C57.3334 34.0183 57.5249 33.763 57.5714 33.724C57.618 33.685 57.8116 33.4296 58.0018 33.1566C59.0399 31.6662 59.1682 31.6957 59.0767 33.4048ZM21.5399 41.6678C22.1482 41.7862 22.762 41.9302 24.0224 42.2507C24.3345 42.3301 24.8771 42.4508 25.2282 42.5191C25.5793 42.5873 26.1538 42.715 26.5049 42.8026C26.856 42.8903 27.3348 42.9981 27.5688 43.0421C28.2208 43.1646 28.675 43.6539 28.1369 43.6539C28.0203 43.6539 26.2488 44.4764 24.2004 45.4817C18.1596 48.4464 16.4484 49.249 16.3592 49.1596C16.0817 48.8823 20.1428 41.3556 20.5194 41.4489C20.7296 41.501 21.1888 41.5994 21.5399 41.6678ZM41.3507 44.1859C42.8388 47.2318 42.8266 47.2077 43.4293 48.3081C44.1165 49.5628 44.3584 49.6435 37.5697 46.351C35.1901 45.1969 32.8713 44.0843 32.4168 43.8786C31.4591 43.4452 31.4337 43.199 32.3324 43.0614C32.6772 43.0086 33.2147 42.8998 33.5268 42.8197C34.7051 42.5169 35.3908 42.3556 36.0093 42.2353C36.3604 42.1671 36.9349 42.0394 37.286 41.9516C37.6371 41.8638 38.2266 41.7437 38.5962 41.6847C38.9656 41.6258 39.3114 41.534 39.3645 41.4808C39.7529 41.0924 40.0122 41.4455 41.3507 44.1859ZM18.8447 41.8817C18.8447 41.9211 17.926 43.7884 16.8034 46.031L14.762 50.1084L12.9378 50.9903C11.9344 51.4753 10.9806 51.9071 10.8182 51.9498C10.6556 51.9925 10.1531 52.25 9.70145 52.5219C8.55724 53.2109 8.23341 53.1688 8.48421 52.3635C11.0283 44.1948 10.8945 44.4655 12.7003 43.8329C18.3521 41.8536 18.8447 41.6973 18.8447 41.8817ZM42.9602 42.2951C43.7014 42.5555 44.5154 42.8401 44.7689 42.9275C45.0224 43.015 45.4375 43.158 45.691 43.2455C49.409 44.5275 48.6891 43.6919 50.3484 48.6511C52.0683 53.7912 52.3616 53.4983 47.733 51.2631L45.342 50.1084L44.1338 47.6968C43.4695 46.3705 42.8152 45.1257 42.6801 44.9306C42.5447 44.7356 42.3955 44.4164 42.3483 44.2213C42.301 44.0263 42.0363 43.4919 41.7601 43.0339C40.9212 41.6424 40.987 41.6018 42.9602 42.2951ZM31.0057 44.1659C31.4561 44.3696 34.0268 45.607 36.7186 46.9158C39.4103 48.2247 42.1074 49.5258 42.712 49.8072C44.232 50.5145 44.6929 50.0981 37.2505 54.742C36.6459 55.1193 35.6244 55.7569 34.9808 56.159C34.3372 56.561 33.1987 57.2883 32.451 57.7754C31.7032 58.2624 30.8261 58.7962 30.502 58.9616L29.9124 59.2624L28.9535 58.6447C27.4363 57.6676 24.9814 56.108 23.6678 55.287C23.0046 54.8723 21.9283 54.1867 21.2759 53.7634C20.6237 53.34 19.4427 52.609 18.6516 52.1389C15.7945 50.4409 15.8219 50.544 17.9581 49.5231C18.8749 49.0849 21.6995 47.7189 24.2352 46.4875C30.6548 43.3698 29.8529 43.6447 31.0057 44.1659ZM9.69705 45.7463C9.64258 45.8829 9.50444 46.3137 9.3901 46.7038C9.27591 47.0939 9.12214 47.5886 9.04852 47.8032C8.97489 48.0178 8.85089 48.3848 8.77287 48.6189C8.69485 48.8529 8.56718 49.236 8.48916 49.47C8.41114 49.7041 8.28701 50.0711 8.21324 50.2857C8.13947 50.5003 7.90955 51.2309 7.70244 51.9095C7.21233 53.5146 7.01327 53.7859 6.67665 53.3072C6.54217 53.116 6.30229 52.8288 6.14327 52.6689C5.75047 52.2735 4.94275 51.0849 4.94275 50.9023C4.94275 50.8209 4.8033 50.4673 4.63279 50.1163C4.27205 49.3738 4.38781 48.9822 5.09057 48.567C5.31569 48.434 5.58197 48.2441 5.68241 48.1451C5.7827 48.0461 6.27975 47.686 6.78689 47.345C7.29402 47.0041 7.74087 46.6831 7.77988 46.6316C8.21339 46.0605 9.87863 45.2915 9.69705 45.7463ZM51.0499 45.7381C51.2428 45.8701 51.4326 46.0168 51.4716 46.064C51.5106 46.1114 51.766 46.3045 52.039 46.4932C52.3121 46.682 52.6046 46.903 52.6892 46.9844C52.7736 47.0658 53.4251 47.5148 54.1368 47.9821C56.0757 49.2548 55.8944 50.8727 53.5694 53.0445C52.879 53.6894 53.0858 54.0666 51.4777 49.2294C50.1157 45.1322 50.1114 45.0957 51.0499 45.7381ZM14.4827 52.3196C14.3758 55.0772 14.2194 56.9173 14.0925 56.9159C13.9363 56.9142 12.494 56.4946 11.8228 56.2557C7.66001 54.7739 7.49333 54.5638 9.65948 53.5297C10.5373 53.1106 11.9256 52.4446 12.7448 52.0497C14.5437 51.1825 14.527 51.18 14.4827 52.3196ZM16.6831 51.9305C17.2088 52.2694 18.1815 52.8856 18.8447 53.2999C19.5078 53.7141 20.5841 54.3995 21.2365 54.8228C21.8888 55.2463 23.0638 55.9756 23.8474 56.4435C25.8731 57.6533 27.7816 58.9562 27.7816 59.1296C27.7816 59.4417 23.1219 59.004 20.1568 58.4135C19.7473 58.3319 19.1089 58.2052 18.7383 58.1322C18.3676 58.059 17.7932 57.9313 17.4616 57.8485C17.1299 57.7655 16.6194 57.6451 16.3267 57.5807C15.0443 57.2985 14.9971 57.0563 15.3692 52.6618C15.5045 51.0636 15.4154 51.1131 16.6831 51.9305ZM44.7 52.9568C45.0279 57.6439 45.0987 57.2897 43.7759 57.5807C43.4834 57.6451 42.9727 57.7655 42.6411 57.8485C42.0602 57.9937 41.6676 58.0766 39.9813 58.4105C38.3363 58.7361 35.2762 59.1147 33.5623 59.2045C31.8154 59.296 31.8232 59.268 33.9169 57.9227C34.8727 57.3084 36.1883 56.4588 36.8407 56.0347C37.493 55.6104 38.6671 54.881 39.4497 54.4136C40.2323 53.9461 40.9667 53.4697 41.0816 53.3547C41.1967 53.2398 41.6503 52.9614 42.0899 52.7358C42.5296 52.5103 43.2085 52.1019 43.5986 51.8282C44.5533 51.1587 44.5758 51.1816 44.7 52.9568ZM48.1014 52.4361C49.3699 53.0532 50.7429 53.7024 51.1524 53.8789C51.9623 54.2279 52.0115 54.3004 51.6696 54.6422C51.2333 55.0786 50.4955 55.4 47.5713 56.4275C45.7403 57.071 45.8381 57.1205 45.7375 55.4989C45.6941 54.7967 45.621 53.6585 45.5752 52.9695C45.4433 50.9794 45.2088 51.0289 48.1014 52.4361Z" fill="black"/>
</svg>
