<svg width="46" height="60" viewBox="0 0 46 60" fill="none" xmlns="http://www.w3.org/2000/svg">
<path fill-rule="evenodd" clip-rule="evenodd" d="M6.05227 0.264631C5.81436 0.409653 5.04799 1.10305 4.34921 1.80563C3.6503 2.50807 2.87227 3.22769 2.62009 3.40467C2.3679 3.58179 1.67515 4.2199 1.08079 4.82292L0 5.91917V29.9986V54.078L0.949782 55.045C1.47223 55.5769 2.1059 56.1567 2.35808 56.3336C2.61026 56.5104 3.37664 57.218 4.06114 57.9059C4.74563 58.5938 5.58156 59.3464 5.91877 59.5783L6.53189 60H22.7007H38.8694L39.2492 59.6383C39.458 59.4394 39.8352 59.1309 40.0873 58.9529C40.3395 58.7748 41.0469 58.126 41.6594 57.5109C42.2718 56.8959 42.9793 56.2484 43.2314 56.0722C43.4836 55.8959 43.9995 55.4321 44.3777 55.0416L45.0655 54.3316V30V5.66843L44.3777 4.95838C43.9995 4.56786 43.4836 4.10411 43.2314 3.92778C42.9793 3.75158 42.2718 3.10415 41.6594 2.48908C41.0469 1.87402 40.3395 1.22516 40.0873 1.04712C39.8352 0.869088 39.458 0.560566 39.2492 0.361701L38.8694 0L22.6771 0.000527728C6.68188 0.000920741 6.47947 0.00419469 6.05227 0.264631ZM37.8603 0.88663C37.8603 0.991958 37.2194 1.98275 37.0779 2.09607C37.0328 2.1321 36.8544 2.3679 36.6811 2.62009C36.5079 2.87227 36.2721 3.16703 36.1572 3.27511C36.0423 3.38319 35.8059 3.67795 35.6317 3.93013C35.4578 4.18231 35.2247 4.46044 35.114 4.54821C34.9591 4.67109 32.0898 4.7087 22.6638 4.71184L10.4148 4.7159L10.0812 4.42127C9.89763 4.25922 9.60563 3.92031 9.43231 3.66812C9.259 3.41594 9.02188 3.12118 8.90529 3.0131C8.66071 2.78646 7.62916 1.28096 7.51558 0.985155C7.44745 0.807644 9.09459 0.786026 22.6497 0.786026C31.0156 0.786026 37.8603 0.831346 37.8603 0.88663ZM6.55022 1.29066C6.55022 1.35197 6.71292 1.57311 6.91192 1.78193C7.11078 1.99075 7.41745 2.3679 7.59339 2.62009C7.7692 2.87227 7.9483 3.10808 7.99127 3.1441C8.03424 3.18013 8.21227 3.41594 8.38703 3.66812C8.56179 3.92031 8.80938 4.24087 8.9375 4.38065C9.37165 4.8541 8.19524 6.44109 6.55022 7.60113C6.29803 7.77904 5.86348 8.14585 5.58457 8.41637C4.97855 9.00445 4.98602 9.00354 4.50628 8.5466C4.29746 8.34773 3.92031 8.04105 3.66812 7.86511C3.41594 7.6893 3.18013 7.51022 3.1441 7.46725C3.10808 7.42428 2.87227 7.24716 2.62009 7.07371C1.47524 6.28611 1.16528 5.75817 1.65812 5.43524C1.84965 5.30974 2.6307 4.57991 3.39393 3.81341C4.15716 3.04677 4.98799 2.27436 5.24017 2.09685C5.49236 1.91947 5.83401 1.6403 5.99933 1.47668C6.30641 1.17288 6.55022 1.09049 6.55022 1.29066ZM39.7242 1.86838C40.1041 2.24738 40.6212 2.70327 40.8734 2.88144C41.4114 3.26148 43.8865 5.72436 43.8865 5.87973C43.8865 6.04571 43.4728 6.46638 42.9694 6.81223C42.7172 6.98555 42.4225 7.22135 42.3144 7.33624C42.2063 7.45114 41.9116 7.68695 41.6594 7.86013C41.4072 8.03345 41.1714 8.21083 41.1354 8.25459C40.7705 8.69686 40.1974 8.86586 39.9329 8.60922C39.8378 8.51673 39.5535 8.29664 39.3013 8.11992C38.7394 7.72638 36.0262 5.01654 36.0262 4.84886C36.0262 4.78244 36.1614 4.59276 36.3267 4.4273C36.492 4.26197 36.8857 3.74345 37.2017 3.27511C37.5177 2.80677 37.8717 2.33515 37.9883 2.22707C38.1049 2.119 38.3341 1.83891 38.4977 1.6048C38.8842 1.05157 38.9117 1.05746 39.7242 1.86838ZM34.1921 5.66947C34.1921 5.82498 33.8502 6.40113 33.6694 6.55022C33.6257 6.58624 33.4483 6.82205 33.2751 7.07424C33.1019 7.32642 32.9251 7.56223 32.8821 7.59825C32.8391 7.63428 32.6614 7.87009 32.4871 8.12227C32.3128 8.37445 32.0942 8.65913 32.0012 8.75476C31.9083 8.85039 31.7717 9.04205 31.6976 9.18052C31.5667 9.42511 31.3085 9.43231 22.6659 9.43231H13.7688L13.4026 8.94105C13.2012 8.67092 13.0038 8.42031 12.9639 8.38428C12.924 8.34825 12.7496 8.11244 12.5764 7.86026C12.4032 7.60808 12.2264 7.37227 12.1834 7.33624C12.1404 7.30022 11.962 7.06441 11.787 6.81223C11.6118 6.56004 11.3346 6.21838 11.171 6.05305C11.0072 5.88759 10.8734 5.69606 10.8734 5.62729C10.8734 5.54882 15.2173 5.50218 22.5328 5.50218C31.9068 5.50218 34.1921 5.53493 34.1921 5.66947ZM35.9776 6.25611C36.2565 6.52664 36.691 6.89397 36.9432 7.07227C37.9573 7.78952 39.6883 9.69432 39.3261 9.69432C39.2675 9.69432 39.1055 9.79912 38.9658 9.92711C38.826 10.0552 38.5055 10.303 38.2533 10.4777C38.0011 10.6525 37.7063 10.8895 37.5983 11.0044C37.4902 11.1193 37.1954 11.356 36.9432 11.5304C36.691 11.7046 36.4055 11.9243 36.3085 12.0183C35.7317 12.5786 35.4 12.6088 34.7464 12.1601C33.8555 11.5482 32.3268 9.96497 32.4122 9.74239C32.5213 9.45811 33.5581 7.95 33.7961 7.72926C33.9127 7.62118 34.1507 7.32642 34.3251 7.07424C34.4993 6.82205 34.718 6.53738 34.811 6.44175C34.9039 6.34611 35.0405 6.15445 35.1147 6.01598C35.3014 5.66699 35.3982 5.69397 35.9776 6.25611ZM10.1717 6.12445C10.3123 6.25061 10.569 6.56004 10.7424 6.81223C10.9157 7.06441 11.1528 7.35917 11.2694 7.46725C11.386 7.57533 11.7393 8.04694 12.0545 8.51528C12.3697 8.98362 12.7044 9.44477 12.7985 9.53988C13.0978 9.84302 12.4273 10.7141 11.2664 11.5306C11.0142 11.708 10.637 12.0159 10.4282 12.2147C10.2194 12.4137 9.94808 12.5764 9.82533 12.5764C9.70258 12.5764 9.43126 12.4137 9.22244 12.2147C9.01362 12.0159 8.63646 11.709 8.38428 11.5332C8.1321 11.3573 7.83734 11.1193 7.72926 11.0044C7.62118 10.8895 7.32642 10.6517 7.07424 10.476C6.82205 10.3004 6.52729 10.0831 6.41921 9.9934C6.31114 9.90366 6.1048 9.73912 5.9607 9.62777C5.70131 9.4272 5.70183 9.42302 6.02214 9.19952C6.20017 9.07533 6.81917 8.50165 7.39768 7.92471C7.97633 7.34763 8.65611 6.73061 8.9083 6.5535C9.16048 6.37625 9.44477 6.15576 9.53988 6.06327C9.76848 5.84135 9.86686 5.85092 10.1717 6.12445ZM1.73149 7.37122C1.96808 7.6065 2.3679 7.94267 2.62009 8.11808C2.87227 8.29363 3.10808 8.47231 3.1441 8.51528C3.18013 8.55825 3.41594 8.73511 3.66812 8.90842C3.92031 9.08174 4.25922 9.37362 4.42127 9.55716L4.7159 9.89083V30V50.1092L4.42127 50.4428C4.25922 50.6264 3.92031 50.9184 3.66812 51.0917C3.41594 51.265 3.12118 51.5008 3.0131 51.6157C2.90502 51.7306 2.61026 51.9676 2.35808 52.1424C2.1059 52.3171 1.78284 52.5672 1.64005 52.6981C1.49739 52.8289 1.26158 52.9189 1.11603 52.8981C0.800573 52.8529 0.619011 7.49895 0.932766 7.12087C1.14735 6.86227 1.25332 6.89554 1.73149 7.37122ZM44.2795 30C44.2795 44.5518 44.2334 53.0568 44.1544 53.0568C44.0856 53.0568 43.8941 52.9229 43.7286 52.7591C43.5633 52.5955 43.2216 52.3183 42.9694 52.1431C42.7172 51.9681 42.4814 51.7897 42.4454 51.7467C42.4094 51.7038 42.1736 51.5266 41.9214 51.3532C41.6692 51.1797 41.2712 50.8321 41.0371 50.5807L40.6114 50.1235V30V9.87655L41.0371 9.41934C41.2712 9.16795 41.6692 8.82027 41.9214 8.64682C42.1736 8.47337 42.4094 8.29624 42.4454 8.25327C42.4814 8.21031 42.7172 8.03188 42.9694 7.85686C43.2216 7.6817 43.5633 7.40449 43.7286 7.24087C43.8941 7.07711 44.0856 6.94323 44.1544 6.94323C44.2334 6.94323 44.2795 15.4482 44.2795 30ZM30.5889 10.3483C30.6565 10.4575 29.9936 11.5842 29.7404 11.7904C29.6961 11.8264 29.5173 12.0622 29.343 12.3144C29.1687 12.5666 28.9501 12.8513 28.8571 12.9469C28.7642 13.0425 28.6276 13.2342 28.5534 13.3727C28.3431 13.7659 16.9845 13.7659 16.7741 13.3727C16.6999 13.2342 16.5633 13.0425 16.4704 12.9469C16.3774 12.8513 16.1588 12.5666 15.9845 12.3144C15.8102 12.0622 15.6314 11.8264 15.5872 11.7904C15.3339 11.5842 14.671 10.4575 14.7386 10.3483C14.7902 10.2647 17.6196 10.2183 22.6638 10.2183C27.7079 10.2183 30.5373 10.2647 30.5889 10.3483ZM39.7598 30C39.7598 43.7467 39.7186 49.446 39.619 49.4793C39.5414 49.5051 39.3056 49.3621 39.095 49.1612C38.8842 48.9605 38.5055 48.6524 38.2533 48.4765C38.0011 48.3007 37.7653 48.1216 37.7293 48.0786C37.6932 48.0356 37.4574 47.8588 37.2052 47.6855C36.9531 47.5123 36.6583 47.2744 36.5502 47.157C36.4421 47.0395 36.1915 46.8383 35.9935 46.7099L35.6332 46.4764V29.9895C35.6332 13.8597 35.6387 13.4997 35.885 13.3679C36.0235 13.2938 36.2151 13.1572 36.3108 13.0643C36.4064 12.9713 36.691 12.7526 36.9432 12.5784C37.1954 12.404 37.4902 12.1673 37.5983 12.0524C37.7063 11.9375 38.0011 11.6995 38.2533 11.5235C38.5055 11.3477 38.8842 11.0395 39.095 10.8388C39.3056 10.6379 39.5414 10.4949 39.619 10.5207C39.7186 10.554 39.7598 16.2533 39.7598 30ZM6.16076 10.833C6.33892 10.955 6.51419 11.0904 6.55022 11.1341C6.58624 11.1778 6.82205 11.3552 7.07424 11.5285C7.32642 11.7017 7.62118 11.9375 7.72926 12.0524C7.83734 12.1673 8.1321 12.4047 8.38428 12.5798C9.78891 13.5554 9.68802 12.2074 9.68802 30C9.68802 47.7926 9.78891 46.4446 8.38428 47.4202C8.1321 47.5953 7.83734 47.8327 7.72926 47.9476C7.62118 48.0625 7.32642 48.2983 7.07424 48.4715C6.82205 48.6448 6.58624 48.8222 6.55022 48.8659C6.40113 49.0467 5.82499 49.3886 5.66949 49.3886C5.53455 49.3886 5.50218 45.6461 5.50218 30C5.50218 14.3539 5.53455 10.6114 5.66949 10.6114C5.76158 10.6114 5.98272 10.7111 6.16076 10.833ZM13.6963 10.7116C13.7718 10.7645 13.9753 11.0142 14.1485 11.2664C14.3217 11.5186 14.4985 11.7544 14.5415 11.7904C14.5845 11.8264 14.7613 12.0622 14.9345 12.3144C15.1077 12.5666 15.2861 12.8024 15.3312 12.8384C15.4733 12.9524 16.1135 13.9428 16.1135 14.0488C16.1135 14.1774 14.2928 15.9825 14.1632 15.9825C14.1102 15.9825 13.9526 15.8777 13.813 15.7497C13.6732 15.6216 13.3526 15.3739 13.1004 15.1991C12.8483 15.0244 12.5535 14.7874 12.4454 14.6725C12.3373 14.5576 12.0426 14.3218 11.7904 14.1485C10.6196 13.344 10.6172 13.3598 12.1196 11.8576C13.3861 10.591 13.4539 10.5418 13.6963 10.7116ZM33.2079 11.8576C34.7103 13.3598 34.7079 13.3441 33.5371 14.1483C33.2849 14.3217 33.0491 14.4985 33.0131 14.5415C32.9771 14.5845 32.7413 14.7635 32.4891 14.9393C32.2369 15.1153 31.8597 15.422 31.6509 15.6208C31.4421 15.8198 31.2255 15.9825 31.1696 15.9825C30.9959 15.9825 29.214 14.1599 29.214 13.9821C29.214 13.8258 29.5555 13.2499 29.7367 13.1004C29.7804 13.0644 29.9578 12.8286 30.1311 12.5764C30.3043 12.3242 30.5401 12.0295 30.655 11.9214C30.7699 11.8133 31.0057 11.5186 31.1789 11.2664C31.7844 10.385 31.7152 10.3649 33.2079 11.8576ZM34.8149 29.8909C34.7806 46.0167 34.7866 45.8492 34.2518 45.3587C34.1109 45.2295 33.7893 44.981 33.5371 44.8062C33.2849 44.6315 33.0491 44.4534 33.0131 44.4105C32.9771 44.3675 32.7413 44.1907 32.4891 44.0173C32.2369 43.844 31.898 43.5521 31.7359 43.3686L31.4413 43.0349V30V16.9651L31.7359 16.6314C31.898 16.4479 32.2369 16.1559 32.4891 15.9825C32.7413 15.8092 33.036 15.5734 33.1441 15.4585C33.2522 15.3436 33.5469 15.1069 33.7991 14.9325C34.0513 14.7583 34.3356 14.54 34.4307 14.4475C34.5259 14.3551 34.6589 14.2795 34.726 14.2795C34.8012 14.2795 34.8354 20.2986 34.8149 29.8909ZM11.0779 14.6433C11.2176 14.7714 11.5382 15.0191 11.7904 15.1939C12.0426 15.3686 12.3373 15.6056 12.4454 15.7205C12.5535 15.8354 12.8483 16.0719 13.1004 16.246C13.3526 16.42 13.6307 16.653 13.7185 16.7637C13.8415 16.9188 13.879 19.9562 13.8821 30L13.8862 43.0349L13.5916 43.3686C13.4295 43.5521 13.0906 43.844 12.8384 44.0173C12.5862 44.1907 12.3504 44.3675 12.3144 44.4105C12.2784 44.4534 12.0426 44.6315 11.7904 44.8062C11.5382 44.981 11.2176 45.2286 11.0779 45.3567C10.3746 46.0015 10.412 46.9034 10.4493 30.1638C10.4877 12.9455 10.4425 14.0608 11.0779 14.6433ZM28.6413 14.9024C28.9202 15.1729 29.3548 15.5386 29.607 15.715C29.8592 15.8914 30.1981 16.1859 30.3601 16.3694L30.6548 16.7031L30.6549 30.0072L30.655 43.3112L30.2293 43.7684C29.9952 44.0198 29.5972 44.3697 29.345 44.5458C29.0928 44.722 28.7156 45.029 28.5068 45.2278L28.127 45.5895H22.6638H17.2005L16.8207 45.2278C16.6119 45.029 16.2347 44.722 15.9825 44.5458C15.7303 44.3697 15.3324 44.0198 15.0983 43.7684L14.6725 43.3112V29.992V16.6728L15.3603 15.9613C15.7385 15.5701 16.3133 15.0637 16.6376 14.8361L17.2271 14.4221L22.6806 14.4164L28.1344 14.4105L28.6413 14.9024ZM15.1864 44.9336C15.6964 45.4374 16.1135 45.8953 16.1135 45.9512C16.1135 46.0572 15.4733 47.0476 15.3312 47.1616C15.2861 47.1976 15.1077 47.4334 14.9345 47.6856C14.7613 47.9378 14.5845 48.1736 14.5415 48.2096C14.4985 48.2456 14.3217 48.4814 14.1485 48.7336C13.5397 49.6201 13.614 49.6437 12.0515 48.0713C10.6534 46.6644 10.6061 46.5887 10.9942 46.381C11.1326 46.3069 11.3243 46.1703 11.4199 46.0774C11.5156 45.9844 11.8002 45.7657 12.0524 45.5915C12.3046 45.4171 12.5993 45.1797 12.7074 45.0641C12.9379 44.8175 14.0428 44.0317 14.1711 44.0234C14.2198 44.0201 14.6766 44.4297 15.1864 44.9336ZM31.6509 44.3792C31.8597 44.578 32.2369 44.8847 32.4891 45.0607C32.7413 45.2365 32.9771 45.4155 33.0131 45.4585C33.0491 45.5015 33.2849 45.6783 33.5371 45.8517C34.7036 46.6529 34.7034 46.6541 33.267 48.0795C31.9368 49.3998 31.7401 49.4657 31.2199 48.7664C31.019 48.4962 30.7626 48.1867 30.6503 48.0786C30.5379 47.9705 30.3034 47.6758 30.1291 47.4236C29.9548 47.1714 29.7351 46.8858 29.641 46.7889C29.1517 46.2852 29.0321 45.8083 29.3434 45.6016C29.5056 45.4939 29.9634 45.0934 30.3608 44.7115C31.2037 43.9018 31.1612 43.9127 31.6509 44.3792ZM28.5534 46.6273C28.6276 46.7658 28.7642 46.9575 28.8571 47.0531C28.9501 47.1487 29.1687 47.4334 29.343 47.6856C29.5173 47.9378 29.6961 48.1736 29.7404 48.2096C29.9936 48.4158 30.6565 49.5424 30.5889 49.6517C30.5373 49.7353 27.7079 49.7817 22.6638 49.7817C17.6196 49.7817 14.7902 49.7353 14.7386 49.6517C14.671 49.5424 15.3339 48.4158 15.5872 48.2096C15.6314 48.1736 15.8102 47.9378 15.9845 47.6856C16.1588 47.4334 16.3774 47.1487 16.4704 47.0531C16.5633 46.9575 16.6999 46.7658 16.7741 46.6273C16.9845 46.2341 28.3431 46.2341 28.5534 46.6273ZM10.5126 47.8493C10.7746 48.0835 11.234 48.4814 11.5338 48.7336C12.9199 49.9001 13.1029 50.1494 12.8014 50.4601C12.7089 50.5552 12.4907 50.8395 12.3164 51.0917C12.1421 51.3439 11.9644 51.5797 11.9214 51.6157C11.8784 51.6517 11.7016 51.8876 11.5284 52.1397C11.3552 52.3919 11.1783 52.6277 11.1354 52.6638C11.0924 52.6998 10.9155 52.9356 10.7422 53.1878C10.1593 54.0364 9.84459 54.2325 9.53988 53.9367C9.44477 53.8442 9.16048 53.6241 8.9083 53.4477C7.86852 52.7197 5.63529 50.3057 6.00145 50.3057C6.06 50.3057 6.22206 50.2009 6.36171 50.0729C6.50149 49.9448 6.82205 49.697 7.07424 49.5223C7.32642 49.3475 7.62118 49.1105 7.72926 48.9956C7.83734 48.8807 8.1321 48.6427 8.38428 48.4668C8.63646 48.291 9.01362 47.9841 9.22244 47.7853C9.71226 47.3188 9.93106 47.3297 10.5126 47.8493ZM35.8952 47.7026C36.1474 47.8555 36.3832 48.0202 36.4192 48.0686C36.4552 48.1171 36.691 48.2984 36.9432 48.4717C37.1954 48.6449 37.4902 48.8807 37.5983 48.9956C37.7063 49.1105 38.0011 49.3463 38.2533 49.5196C38.7134 49.8359 39.3008 50.432 39.3012 50.5829C39.3014 50.7217 37.9478 52.0681 37.4704 52.4037C37.2199 52.5797 36.6696 53.064 36.2472 53.4798C35.402 54.312 35.3117 54.3521 35.1147 53.984C35.0405 53.8455 34.9039 53.6539 34.811 53.5583C34.718 53.4626 34.4995 53.1779 34.3251 52.9258C34.1509 52.6736 33.9731 52.4378 33.9301 52.4017C33.8872 52.3657 33.7103 52.1299 33.5371 51.8777C33.3639 51.6255 33.1855 51.3897 33.1404 51.3537C33.0038 51.2442 32.3581 50.2513 32.3581 50.1507C32.3581 49.8764 35.0372 47.4572 35.3712 47.4299C35.4072 47.427 35.643 47.5496 35.8952 47.7026ZM31.6976 50.8195C31.7717 50.9579 31.9083 51.1496 32.0012 51.2452C32.0942 51.3409 32.3128 51.6255 32.4871 51.8777C32.6614 52.1299 32.8391 52.3657 32.8821 52.4017C32.9251 52.4378 33.1042 52.6736 33.28 52.9258C33.4559 53.1779 33.764 53.5567 33.9647 53.7675C34.6205 54.4558 35.0198 54.4323 22.6638 54.4323C10.7045 54.4323 10.7475 54.4343 11.2352 53.9024C11.3644 53.7616 11.6129 53.44 11.7876 53.1878C11.9624 52.9356 12.1404 52.6998 12.1834 52.6638C12.2264 52.6277 12.4032 52.3919 12.5764 52.1397C12.7496 51.8876 12.924 51.6517 12.9639 51.6157C13.0038 51.5797 13.2012 51.3292 13.4026 51.059L13.7688 50.5677H22.6659C31.3085 50.5677 31.5667 50.5749 31.6976 50.8195ZM5.31367 51.3245C5.45345 51.4526 5.77402 51.7018 6.0262 51.8783C6.76389 52.3945 9.17031 54.8895 9.17031 55.138C9.17031 55.2631 9.06549 55.4797 8.9375 55.6193C8.80938 55.7591 8.56179 56.0797 8.38703 56.3319C8.21227 56.5841 8.03424 56.8199 7.99127 56.8559C7.9483 56.8919 7.7692 57.1277 7.59339 57.3799C7.41745 57.6321 7.11078 58.0093 6.91192 58.2181C6.71292 58.4269 6.55022 58.648 6.55022 58.7093C6.55022 58.9331 6.28729 58.8113 5.86676 58.393C5.63017 58.1577 5.23035 57.8196 4.97817 57.6417C4.42677 57.2527 1.44105 54.2756 1.44105 54.1148C1.44105 53.9477 2.0945 53.2894 2.62009 52.9271C2.87227 52.7531 3.10808 52.5757 3.1441 52.5327C3.18013 52.4898 3.41594 52.3107 3.66812 52.1349C3.92031 51.959 4.29746 51.6523 4.50628 51.4534C4.95445 51.0266 4.98367 51.0219 5.31367 51.3245ZM40.7459 51.4446C40.9241 51.5667 41.1583 51.7611 41.2664 51.8767C41.3745 51.9921 41.6692 52.2284 41.9214 52.4016C42.1736 52.5749 42.4094 52.7518 42.4454 52.7948C42.4814 52.8377 42.7172 53.0146 42.9694 53.1879C43.4731 53.5339 43.8865 53.9543 43.8865 54.1207C43.8865 54.2764 41.1502 56.9997 40.6114 57.3802C40.3592 57.5582 39.9008 57.9553 39.5927 58.2624C38.9202 58.9328 38.8769 58.9381 38.4977 58.3952C38.3342 58.1611 38.1652 57.94 38.1223 57.9039C38.0793 57.8679 37.9024 57.6321 37.7291 57.3799C37.5559 57.1277 37.3201 56.833 37.2052 56.7249C37.0903 56.6168 36.8536 56.3221 36.6793 56.0699C36.505 55.8177 36.2868 55.5334 36.1943 55.4383C35.9176 55.1534 35.9671 55.083 37.5216 53.5495C40.0718 51.0339 40.11 51.0089 40.7459 51.4446ZM35.2463 55.5787C35.4299 55.7408 35.7217 56.0797 35.8951 56.3319C36.0684 56.5841 36.2452 56.8199 36.2882 56.8559C36.3312 56.8919 36.508 57.1277 36.6812 57.3799C36.8544 57.6321 37.0328 57.8679 37.0779 57.9039C37.2194 58.0172 37.8603 59.008 37.8603 59.1134C37.8603 59.1687 31.0156 59.214 22.6497 59.214C9.09459 59.214 7.44745 59.1924 7.51558 59.0148C7.59955 58.7961 8.643 57.2228 8.77374 57.1179C8.81868 57.0819 8.99737 56.8461 9.17082 56.5939C9.34427 56.3417 9.69195 55.9437 9.94335 55.7096L10.4006 55.2838L22.6566 55.284L34.9127 55.2841L35.2463 55.5787Z" fill="black"/>
</svg>
