<svg width="61" height="60" viewBox="0 0 61 60" fill="none" xmlns="http://www.w3.org/2000/svg">
<path fill-rule="evenodd" clip-rule="evenodd" d="M12.5033 0.0844318C12.395 0.156386 12.0151 0.216124 11.6591 0.217306C11.3032 0.218356 10.8305 0.274028 10.6087 0.341124C10.3869 0.408089 9.76233 0.596251 9.22071 0.759462C7.05932 1.41046 4.72447 2.88539 3.84067 4.15838C3.66524 4.41114 3.48197 4.64749 3.43352 4.68359C3.2254 4.83879 2.29418 6.41483 1.9159 7.25228C1.13976 8.97052 1.04168 9.21461 0.929551 9.70595C0.867838 9.97683 0.753748 10.4494 0.676016 10.7564C0.51622 11.3874 0.345381 12.4032 0.140416 13.9405C-0.0423583 15.3118 -0.0483998 22.2441 0.132274 23.263C0.209217 23.6963 0.335677 24.3019 0.413409 24.6089C0.666956 25.6103 0.815308 26.2088 0.934007 26.7097C1.50399 29.1155 3.49104 33.1926 5.71728 36.5247C6.15151 37.1746 6.54423 37.7359 6.58993 37.7721C6.63562 37.8082 6.81497 38.0445 6.98855 38.2973C7.16213 38.55 7.33939 38.7864 7.38246 38.8225C7.42553 38.8586 7.60278 39.0949 7.7765 39.3477C7.95008 39.6005 8.18643 39.8959 8.30158 40.0042C8.41674 40.1125 8.65361 40.408 8.82798 40.6607C9.00222 40.9135 9.29713 41.268 9.48331 41.4486C9.6695 41.6291 9.96665 41.9836 10.1438 42.2364C10.3209 42.4891 10.9391 43.1811 11.5175 43.7742C12.0957 44.3673 12.8348 45.1554 13.1598 45.5255C13.9591 46.436 15.2429 47.7166 15.9176 48.2763C16.2222 48.5291 17.0115 49.2681 17.6715 49.9187C18.3315 50.5692 19.0783 51.2471 19.3311 51.425C19.5838 51.603 20.0565 52.0178 20.3815 52.3467C20.7065 52.6757 21.1792 53.089 21.4319 53.2652C21.6847 53.4414 22.0983 53.7963 22.351 54.0537C22.6038 54.311 23.0174 54.6653 23.2702 54.8407C23.5229 55.0161 23.8775 55.3118 24.058 55.498C24.2385 55.6842 24.5931 55.9791 24.8458 56.1534C25.0986 56.3277 25.394 56.5646 25.5023 56.6798C25.6107 56.7949 25.9061 57.0313 26.1588 57.205C26.4116 57.3787 26.707 57.615 26.8154 57.7302C26.9237 57.8453 27.2191 58.0817 27.4719 58.2553C27.7246 58.429 27.961 58.6062 27.9971 58.6493C28.0332 58.6924 28.2696 58.8696 28.5223 59.0433C28.7751 59.2169 29.0705 59.4505 29.1788 59.5624C29.7514 60.1539 30.1442 60.1469 30.7748 59.5343C30.872 59.44 31.1582 59.2198 31.411 59.0452C31.6637 58.8704 31.9592 58.6332 32.0675 58.518C32.1758 58.4029 32.4713 58.1665 32.724 57.9928C32.9768 57.8191 33.2722 57.5827 33.3805 57.4676C33.4889 57.3524 33.7843 57.1161 34.0371 56.9424C34.2898 56.7686 34.5852 56.5323 34.6936 56.4171C34.8019 56.302 35.0973 56.0651 35.3501 55.8907C35.6028 55.7165 35.9574 55.4216 36.1379 55.2354C36.3185 55.0492 36.673 54.7538 36.9257 54.5789C37.1785 54.404 37.533 54.1086 37.7136 53.9224C37.8941 53.7362 38.2486 53.44 38.5014 53.264C38.7541 53.0879 39.2859 52.6162 39.6831 52.2154C40.0803 51.8147 40.6121 51.3411 40.8648 51.1628C41.1176 50.9845 41.9242 50.2473 42.6572 49.5246C43.3903 48.8019 44.1289 48.0848 44.2985 47.9308C44.6524 47.6095 45.0008 47.2624 45.7698 46.4643C46.069 46.1537 46.9052 45.2969 47.6279 44.5604C48.3506 43.8238 49.0873 43.0144 49.265 42.7616C49.4426 42.5088 49.7987 42.0952 50.0561 41.8425C50.3134 41.5897 50.6672 41.1761 50.8419 40.9233C51.0167 40.6706 51.254 40.3751 51.3691 40.2668C51.4843 40.1585 51.7206 39.8631 51.8942 39.6103C52.0679 39.3575 52.2468 39.1212 52.2918 39.0851C52.3368 39.049 52.6307 38.6354 52.9447 38.166C53.2588 37.6966 53.5543 37.283 53.6013 37.2468C53.8907 37.0243 56.6191 32.5941 56.6241 32.3385C56.6257 32.2577 56.7426 32.0439 56.8839 31.8634C57.0251 31.6829 57.142 31.4598 57.1436 31.3677C57.1451 31.2757 57.3558 30.7847 57.6115 30.2767C58.6125 28.2893 59.5877 24.8767 59.7285 22.8691C59.764 22.3636 59.8475 21.8939 59.9141 21.8253C60.0733 21.6611 60.0722 15.8033 59.9128 15.6409C59.8455 15.5722 59.7616 14.9843 59.7263 14.3344C59.6596 13.1068 59.4995 11.9758 59.2573 11.019C59.1796 10.712 59.0648 10.2394 59.0022 9.96856C58.9394 9.69781 58.7867 9.21028 58.6625 8.8853C58.5384 8.56033 58.3521 8.06847 58.2485 7.79234C57.2927 5.24439 55.0129 2.70892 52.5663 1.47336C48.4258 -0.61791 41.3707 -0.440648 36.7742 1.8699C35.8988 2.3099 34.7277 3.03377 34.5623 3.2369C34.5262 3.28128 34.2898 3.46181 34.0371 3.63815C33.448 4.04913 32.0942 5.40182 31.6766 5.99663C31.4991 6.24939 31.2808 6.53155 31.1914 6.62386C31.102 6.71604 30.8111 7.14435 30.5448 7.57581C29.9282 8.57464 30.0041 8.60287 28.9044 6.9638C27.9598 5.55597 27.005 4.49058 26.1588 3.9005C25.9061 3.72416 25.6107 3.48204 25.5023 3.36229C25.2027 3.03101 23.12 1.81526 22.3293 1.50998C19.9918 0.607536 19.6092 0.502499 17.5585 0.200108C16.2402 0.00577861 12.7423 -0.074314 12.5033 0.0844318ZM17.1646 0.975586C18.7078 1.14628 18.8079 1.22598 19.1868 2.58274C19.2774 2.90771 19.5196 3.73493 19.725 4.42099C20.5895 7.30914 20.7279 7.07751 18.4776 6.50713C18.1887 6.43399 17.6865 6.32239 17.3615 6.25923C16.8026 6.15065 16.2219 6.01435 15.0965 5.72798C14.8258 5.65904 14.3678 5.54363 14.0789 5.47141C13.7901 5.3992 13.3174 5.28102 13.0285 5.20881C12.7396 5.13659 12.2522 5.01474 11.9453 4.93793C11.6383 4.86125 11.1213 4.74675 10.7963 4.68359C10.4714 4.62044 9.95443 4.50594 9.64744 4.42926C9.34046 4.35244 8.85306 4.2306 8.56419 4.15838C8.27532 4.08616 7.78792 3.96365 7.48094 3.88632C7.17395 3.80885 6.7308 3.71379 6.49616 3.67492C5.48499 3.5079 7.18865 2.25803 9.31524 1.60676C9.94931 1.41257 10.6496 1.19827 10.8713 1.13039C11.0931 1.06263 11.6249 1.00618 12.0531 1.00513C12.4812 1.00394 12.9202 0.943815 13.0285 0.871467C13.2425 0.728477 15.4278 0.78349 17.1646 0.975586ZM48.1522 0.9857C49.8582 1.1925 50.6242 1.4169 52.015 2.11766C53.9963 3.11583 54.3367 3.47902 53.4592 3.65825C53.0388 3.74412 52.7326 3.81751 51.3363 4.16665C51.0293 4.24333 50.5124 4.35783 50.1874 4.42099C49.6166 4.53194 48.9162 4.69672 47.9552 4.9462C47.7025 5.01185 47.2446 5.12726 46.9376 5.20276C46.6306 5.27826 46.1285 5.40287 45.8215 5.47968C45.5145 5.55637 44.9976 5.66574 44.6726 5.72259C44.3477 5.77958 43.8159 5.92271 43.4909 6.04075C43.1659 6.1588 42.7565 6.25621 42.5811 6.25726C42.4057 6.25831 42.066 6.31832 41.8261 6.39054C39.2883 7.15472 39.2985 7.16142 39.9356 5.16442C40.4607 3.51893 40.8518 2.17465 40.8957 1.86517C40.9653 1.37501 41.7322 1.00736 42.6897 1.00513C43.1664 1.00394 43.6452 0.94394 43.7535 0.871723C43.9771 0.722563 46.526 0.788614 48.1522 0.9857ZM21.1848 1.92754C22.3157 2.2944 24.982 3.79625 25.371 4.28548C25.4071 4.33078 25.6435 4.51159 25.8962 4.68701C26.4765 5.08985 26.8029 5.41627 27.2059 5.99663C27.3814 6.24939 27.6222 6.54482 27.7411 6.65314C28.0429 6.92849 29.0475 8.60917 29.0475 8.83908C29.0475 9.03511 28.5814 9.00519 27.6688 8.75046C27.4522 8.68993 27.009 8.57346 26.6841 8.49139C26.3591 8.40933 25.9117 8.28722 25.69 8.21986C25.4682 8.15263 25.1474 8.09748 24.9771 8.09748C24.8068 8.09748 24.486 8.04233 24.2643 7.97511C24.0425 7.90775 23.5951 7.78472 23.2702 7.7016C21.4665 7.24059 21.1693 7.08723 21.1693 6.61716C21.1693 6.36296 21.0588 5.981 20.261 3.48059C19.7414 1.85164 19.7372 1.40245 20.2434 1.60611C20.3554 1.65127 20.7791 1.79584 21.1848 1.92754ZM40.0207 1.67871C40.108 1.81986 39.9776 2.30122 39.1478 4.90182C38.9367 5.56359 38.764 6.20173 38.764 6.3199C38.764 6.74244 38.3803 7.2771 38.014 7.36494C37.8127 7.41326 37.4116 7.51293 37.1227 7.58633C36.8338 7.65986 36.3316 7.77172 36.0066 7.83488C35.6816 7.89803 35.1794 8.00977 34.8905 8.0833C34.6017 8.1567 34.1143 8.27855 33.8073 8.35405C33.5003 8.42955 32.9982 8.55324 32.6912 8.62874C32.3842 8.70424 31.9263 8.81493 31.6736 8.8748C31.4208 8.93468 31.1107 9.02699 30.9842 9.0799C30.5322 9.26898 31.1711 7.84262 31.938 6.95015C32.0474 6.82292 32.283 6.51199 32.4615 6.25923C32.8809 5.66535 33.7168 4.83158 34.2997 4.42559C34.5524 4.24951 34.7888 4.06569 34.8249 4.01724C34.9843 3.80334 36.5679 2.87239 37.4592 2.46863C37.9962 2.22533 38.6721 1.91874 38.9609 1.78743C39.5756 1.50789 39.8949 1.47519 40.0207 1.67871ZM7.25116 4.68005C7.57613 4.7633 8.10791 4.88304 8.43289 4.9462C8.99185 5.05479 9.57247 5.19108 10.6979 5.47746C10.9687 5.54639 11.4119 5.65904 11.6826 5.72798C11.9535 5.79691 12.4409 5.91785 12.7659 5.99663C13.0909 6.07541 13.5784 6.19634 13.8492 6.26528C15.0965 6.58264 15.4981 6.67744 16.0485 6.78445C16.3735 6.84761 16.8757 6.95934 17.1646 7.03287C17.7195 7.17389 18.5673 7.38097 19.3311 7.56177C20.0488 7.73181 20.2708 7.85456 20.199 8.04167C20.1073 8.28051 17.4848 12.1938 17.2767 12.4024C17.184 12.4954 17.0079 12.7409 16.8855 12.9481C16.6495 13.3479 15.8371 13.8748 15.457 13.8748C15.3318 13.8748 14.8672 13.9889 14.4244 14.1283C13.9817 14.2677 13.3535 14.4496 13.0285 14.5325C12.2063 14.7424 10.7505 15.16 9.79436 15.4603C8.54776 15.8517 8.03898 15.6346 8.03898 14.7114C8.03898 14.5865 7.98384 14.3029 7.91662 14.0811C7.79477 13.6796 7.60095 12.9411 7.37156 12.0038C7.30538 11.733 7.18721 11.2603 7.10895 10.9533C6.92802 10.2428 6.73723 9.47932 6.58374 8.85248C6.51756 8.58173 6.40911 8.13858 6.34293 7.8677C6.16094 7.12413 5.93341 6.2402 5.81038 5.79967C5.74998 5.58302 5.66147 5.17796 5.61381 4.89946L5.52716 4.39315L6.09372 4.46104C6.40531 4.49833 6.92618 4.59694 7.25116 4.68005ZM54.1719 4.9462C54.1609 5.19896 54.0869 5.65681 54.0078 5.9638C53.9286 6.27079 53.8048 6.75819 53.7326 7.04706C53.6604 7.33592 53.5422 7.80861 53.47 8.09748C53.3977 8.38635 53.2796 8.85904 53.2074 9.14791C53.1351 9.43678 53.0133 9.92418 52.9365 10.2312C52.8598 10.5381 52.7494 11.0551 52.6911 11.3801C52.6329 11.705 52.4843 12.2959 52.3608 12.6931C52.2374 13.0903 52.0864 13.6221 52.0252 13.8748C51.5648 15.7757 51.4875 15.8638 50.5267 15.5853C49.9987 15.4322 49.0764 15.1691 47.3315 14.6736C46.844 14.5352 46.0316 14.3018 45.5261 14.155C45.0206 14.0082 44.3257 13.813 43.982 13.7212C43.3839 13.5613 43.3163 13.4925 42.4063 12.1158C41.8835 11.3247 41.3925 10.6139 41.3155 10.5363C41.0402 10.2594 39.6831 8.1626 39.6831 8.01423C39.6831 7.83802 39.9382 7.71775 40.6679 7.54981C40.9567 7.48337 41.4147 7.37255 41.6855 7.30362C41.9564 7.23468 42.4142 7.11927 42.7031 7.04706C42.992 6.97484 43.4793 6.85299 43.7863 6.77618C44.0933 6.6995 44.6103 6.585 44.9352 6.52184C45.4857 6.41483 45.8872 6.32003 47.1346 6.00267C47.4055 5.93374 47.8928 5.8128 48.2178 5.73402C48.8692 5.57606 49.5823 5.39841 50.3843 5.19462C50.6732 5.12109 51.1754 5.00936 51.5004 4.9462C52.6962 4.71379 53.2198 4.58353 53.3063 4.49714C53.6098 4.19356 54.1917 4.49544 54.1719 4.9462ZM55.6454 5.04468C55.7754 5.24334 55.9625 5.48704 56.0615 5.5863C56.6055 6.13226 58.0338 9.49613 58.2518 10.7447C58.3281 11.1813 58.2962 11.2531 57.9053 11.5262C57.6684 11.6917 57.4452 11.8622 57.4091 11.9053C57.373 11.9483 57.1366 12.1256 56.8839 12.2992C56.6311 12.4728 56.3947 12.6521 56.3586 12.6978C56.3225 12.7435 55.7317 13.155 55.0456 13.6122C54.3595 14.0694 53.7687 14.4815 53.7326 14.5279C53.5876 14.7141 53.0065 15.0566 52.8355 15.0566C52.6417 15.0566 52.6655 14.7056 52.9293 13.6779C53.0035 13.389 53.1232 12.9163 53.1954 12.6274C53.2676 12.3386 53.3858 11.8659 53.458 11.577C53.5302 11.2882 53.6538 10.7859 53.7326 10.4609C53.8114 10.136 53.9323 9.64857 54.0012 9.37769C54.0701 9.10694 54.1828 8.66379 54.2518 8.39291C54.3207 8.12217 54.4416 7.63464 54.5204 7.30966C54.5992 6.98469 54.7175 6.51199 54.7831 6.25923C54.8488 6.00648 54.9395 5.62241 54.9847 5.40576C55.1649 4.54218 55.2768 4.48099 55.6454 5.04468ZM4.73014 4.97245C4.8168 5.05911 4.88769 5.24702 4.88769 5.38988C4.88769 5.53274 4.94283 5.83118 5.01005 6.05295C5.15304 6.52394 5.4309 7.60024 5.81772 9.18074C5.88389 9.45161 5.99263 9.89476 6.0592 10.1655C6.12577 10.4364 6.28122 10.9829 6.40464 11.3801C6.52807 11.7773 6.67672 12.3681 6.73489 12.6931C6.79319 13.0181 6.90098 13.5203 6.97451 13.8092C7.28438 15.0269 7.28727 15.0566 7.10055 15.0566C6.93222 15.0566 5.55984 14.2023 5.41291 14.006C5.3768 13.9578 4.78593 13.5429 4.09987 13.0841C3.41381 12.6254 2.77648 12.1745 2.68365 12.0823C2.59069 11.99 2.34422 11.8138 2.13584 11.6907C1.42325 11.2698 1.4025 11.0539 1.9243 9.49415C2.39121 8.09866 3.26937 6.19397 3.60524 5.84838C3.70149 5.74938 3.91527 5.47627 4.08032 5.24163C4.4095 4.77341 4.4955 4.73782 4.73014 4.97245ZM22.548 8.37415C22.8369 8.44768 23.3391 8.55441 23.6641 8.61127C23.9891 8.66825 24.5208 8.81139 24.8458 8.92943C25.1708 9.04747 25.5802 9.14489 25.7556 9.14594C25.931 9.14699 26.256 9.20306 26.4778 9.27029C26.6995 9.33764 27.1321 9.46528 27.4391 9.55391C28.2421 9.78592 28.1813 9.832 26.2573 10.4493C25.3005 10.7562 23.0995 11.4716 21.3663 12.0389C19.6331 12.6063 18.1656 13.0219 18.1054 12.9625C17.9898 12.8487 18.2835 12.1843 18.5817 11.8849C18.6785 11.7878 19.2515 10.9697 19.8551 10.067C21.3057 7.89777 21.1243 8.01188 22.548 8.37415ZM39.1933 8.8853C39.4697 9.2825 39.826 9.77397 39.985 9.97736C40.144 10.1809 40.4978 10.7125 40.7716 11.1587C41.0452 11.605 41.3998 12.1406 41.5594 12.3488C42.2142 13.2034 42.1402 13.2005 39.2235 12.2563C30.6334 9.47551 31.3275 9.83056 33.4462 9.30088C33.7351 9.22867 34.2078 9.11049 34.4966 9.03828C34.7855 8.96606 35.2582 8.84789 35.547 8.77567C36.7754 8.46855 37.2732 8.33527 37.5822 8.23048C38.3182 7.98114 38.661 8.12046 39.1933 8.8853ZM33.0578 11.1175C34.6074 11.623 37.1432 12.4502 38.6928 12.9557C40.2423 13.4612 41.6043 13.8748 41.7192 13.8748C41.8343 13.8748 42.1026 13.965 42.3157 14.0752L42.7031 14.2754V19.9023V25.5292L42.2101 26.0373C41.9389 26.3169 41.5724 26.7524 41.3957 27.0052C41.2188 27.2579 40.98 27.5534 40.8648 27.6617C40.7497 27.77 40.5128 28.0654 40.3384 28.3182C40.1642 28.571 39.8693 28.9255 39.6831 29.106C39.4969 29.2866 39.202 29.6411 39.0278 29.8938C38.8534 30.1466 38.6165 30.442 38.5014 30.5504C38.3862 30.6587 38.1493 30.9541 37.975 31.2069C37.8007 31.4596 37.5058 31.8142 37.3196 31.9947C37.1335 32.1752 36.8386 32.5298 36.6643 32.7825C36.4899 33.0353 36.2531 33.3307 36.1379 33.439C36.0228 33.5474 35.7864 33.8428 35.6127 34.0956C35.439 34.3483 35.2026 34.6438 35.0875 34.7521C34.9723 34.8604 34.736 35.1558 34.5623 35.4086C34.3886 35.6614 34.1522 35.9568 34.0371 36.0651C33.9219 36.1734 33.685 36.4689 33.5107 36.7216C33.3364 36.9744 33.0415 37.3289 32.8553 37.5094C32.6691 37.69 32.3742 38.0445 32.2 38.2973C32.0256 38.55 31.7887 38.8455 31.6736 38.9538C31.5584 39.0621 31.3218 39.3575 31.148 39.6103C30.4307 40.6526 29.7974 41.0805 29.5783 40.671C29.5039 40.5322 29.367 40.3401 29.2739 40.2442C29.1807 40.1484 28.961 39.8631 28.7857 39.6103C28.6103 39.3575 28.3146 39.003 28.1284 38.8225C27.9422 38.6419 27.6473 38.2874 27.4731 38.0347C27.2987 37.7819 27.0618 37.4865 26.9467 37.3781C26.8315 37.2698 26.5946 36.9744 26.4203 36.7216C26.246 36.4689 25.9511 36.1143 25.7649 35.9338C25.5787 35.7533 25.2838 35.3987 25.1096 35.146C24.9352 34.8932 24.6984 34.5978 24.5832 34.4895C24.4681 34.3811 24.2312 34.0857 24.0568 33.833C23.8826 33.5802 23.5877 33.2257 23.4015 33.0451C23.2153 32.8646 22.9204 32.5101 22.7461 32.2573C22.5718 32.0046 22.3349 31.7091 22.2197 31.6008C22.1046 31.4925 21.8682 31.197 21.6945 30.9443C21.5208 30.6915 21.2845 30.3961 21.1693 30.2878C21.0542 30.1794 20.8173 29.884 20.6429 29.6312C20.4687 29.3785 20.1738 29.024 19.9876 28.8434C19.8014 28.6629 19.5065 28.3084 19.3323 28.0556C19.1579 27.8028 18.921 27.5074 18.8059 27.3991C18.6907 27.2908 18.4544 26.9953 18.2806 26.7426C18.1069 26.4898 17.8685 26.1944 17.7508 26.0861C17.0454 25.437 17.078 25.7385 17.0612 19.7178C17.046 14.2542 17.1183 13.8786 18.1866 13.8755C18.3932 13.875 21.4528 12.8948 27.6032 10.8591C30.0333 10.0547 29.7602 10.0417 33.0578 11.1175ZM1.99902 12.5789C2.25178 12.7321 2.48812 12.8992 2.52423 12.9505C2.56034 13.0017 3.15121 13.4189 3.83727 13.8777C4.52333 14.3365 5.15199 14.7787 5.23432 14.8604C5.31678 14.9422 5.73827 15.2383 6.17117 15.5186C7.32979 16.2689 7.43892 16.6713 6.6918 17.4404C6.59753 17.5375 6.37732 17.8238 6.20268 18.0765C6.02792 18.3293 5.79067 18.6247 5.67552 18.7331C5.56036 18.8414 5.32402 19.1368 5.1503 19.3896C4.97659 19.6423 4.74024 19.9378 4.62509 20.0461C4.50993 20.1544 4.27359 20.4499 4.1 20.7026C3.92629 20.9554 3.74903 21.1917 3.70596 21.2278C3.6629 21.2639 3.4838 21.5003 3.30785 21.753C3.13204 22.0058 2.80049 22.4013 2.5711 22.6318C2.34158 22.8625 2.0484 23.2299 1.91933 23.4484C1.41118 24.3086 1.00625 24.0669 0.8823 22.8292C0.658952 20.6018 0.82595 13.6756 1.12112 12.9229C1.17062 12.7964 1.2389 12.6045 1.27278 12.4961C1.35393 12.2362 1.4524 12.2473 1.99902 12.5789ZM58.7608 13.163C59.3323 17.4208 59.2384 24.1165 58.6073 24.1165C58.4928 24.1165 57.7938 23.3456 57.4084 22.7944C57.2352 22.5466 57.0582 22.3144 57.0152 22.2782C56.9721 22.2421 56.7948 22.0058 56.6211 21.753C56.4475 21.5003 56.2112 21.2048 56.096 21.0965C55.9809 20.9882 55.7445 20.6928 55.5709 20.44C55.3972 20.1872 55.22 19.9509 55.1769 19.9148C55.1338 19.8787 54.9566 19.6423 54.7829 19.3896C54.6093 19.1368 54.3729 18.8414 54.2578 18.7331C54.1426 18.6247 53.9063 18.3293 53.7326 18.0765C53.5589 17.8238 53.322 17.5283 53.2063 17.42C52.4225 16.6868 52.4112 16.3925 53.1492 15.9262C53.4781 15.7185 53.8178 15.4782 53.904 15.3923C53.9902 15.3063 54.7994 14.743 55.7021 14.1405C56.6048 13.5378 57.373 13.0026 57.4091 12.9511C57.5368 12.7689 58.3957 12.3009 58.5251 12.3429C58.5974 12.3663 58.7034 12.7354 58.7608 13.163ZM16.2198 19.3567C16.2339 21.9747 16.2037 24.1165 16.1527 24.1165C16.0331 24.1165 12.8426 20.9061 12.2407 20.18C11.9879 19.8751 11.1459 18.9798 10.3696 18.1904C9.59335 17.401 8.95835 16.7127 8.95874 16.6608C8.9594 16.5575 10.0062 16.2308 13.685 15.1862C14.1544 15.0529 14.8339 14.854 15.195 14.7442C16.273 14.4163 16.1913 14.0487 16.2198 19.3567ZM45.2463 14.9161C45.689 15.0555 46.3172 15.2374 46.6422 15.3204C48.6096 15.8226 50.9738 16.5558 50.9746 16.664C50.9749 16.7175 50.0738 17.6629 48.972 18.7648C47.8704 19.8667 46.8231 20.9751 46.6447 21.2278C46.1547 21.9224 43.8727 24.1344 43.7043 24.0783C43.5562 24.0289 43.4095 15.1955 43.5507 14.8276C43.6422 14.5893 44.3207 14.6247 45.2463 14.9161ZM8.59112 17.4733C8.75682 17.6472 9.09925 18.0379 9.35201 18.3419C9.60477 18.6457 10.8754 19.9659 12.1757 21.2756C13.476 22.5854 14.6849 23.8637 14.8623 24.1165C15.0397 24.3693 15.3348 24.7238 15.5181 24.9043C16.2038 25.5795 16.2293 25.6474 15.9466 26.0486C15.8048 26.2498 15.5566 26.6802 15.3949 27.0052C14.214 29.3785 13.8409 29.7864 13.1691 29.4391C12.9648 29.3334 12.2144 29.044 11.5016 28.7959C10.7887 28.5478 9.71795 28.1616 9.12223 27.9377C6.56601 26.9767 5.79684 26.6907 4.49378 26.2171C1.58384 25.1594 1.71382 25.2499 2.13202 24.5733C2.29576 24.3083 2.55563 23.9643 2.70965 23.8086C2.86354 23.653 3.1331 23.3188 3.30866 23.0661C3.48421 22.8133 3.72211 22.5179 3.83727 22.4096C3.95242 22.3012 4.18877 22.0058 4.36235 21.753C4.53607 21.5003 4.71332 21.2639 4.75639 21.2278C4.79946 21.1917 4.97672 20.9554 5.15043 20.7026C5.32401 20.4499 5.56036 20.1544 5.67552 20.0461C5.79067 19.9378 6.02701 19.6423 6.20073 19.3896C6.37444 19.1368 6.61079 18.8414 6.72594 18.7331C6.8411 18.6247 7.07744 18.3293 7.25116 18.0765C7.90859 17.1199 8.15007 17.0111 8.59112 17.4733ZM52.1102 17.3872C52.2511 17.5136 52.5084 17.8238 52.6821 18.0765C52.8559 18.3293 53.0922 18.6247 53.2074 18.7331C53.3225 18.8414 53.5589 19.1368 53.7324 19.3896C53.9062 19.6423 54.0834 19.8787 54.1265 19.9148C54.1695 19.9509 54.3468 20.1872 54.5205 20.44C54.6941 20.6928 54.9305 20.9882 55.0456 21.0965C55.1608 21.2048 55.3971 21.5003 55.5708 21.753C55.7445 22.0058 55.9809 22.3012 56.096 22.4096C56.2112 22.5179 56.4475 22.8133 56.6211 23.0661C56.7948 23.3188 56.9721 23.5552 57.0152 23.5913C57.0582 23.6274 57.2364 23.8637 57.411 24.1165C57.5858 24.3693 57.8044 24.6542 57.8971 24.7495C58.305 25.1697 58.2796 25.1848 55.4395 26.2171C54.6812 26.4927 53.5586 26.9064 52.9447 27.1365C52.3309 27.3665 51.2083 27.7801 50.45 28.0556C48.6681 28.7029 47.0839 29.2947 46.5354 29.5179C46.0191 29.7281 45.9462 29.6561 45.0539 28.0556C44.7521 27.514 44.333 26.7634 44.1227 26.3877C43.6079 25.4675 43.6294 25.4324 46.4823 22.5533C47.7618 21.2621 49.0155 19.9564 49.2683 19.6519C49.9261 18.8594 51.616 17.1574 51.745 17.1574C51.805 17.1574 51.9694 17.2608 52.1102 17.3872ZM2.64675 26.4097C2.85132 26.5155 3.42446 26.7466 3.92039 26.9231C4.41632 27.0997 5.47199 27.4809 6.26638 27.77C9.36724 28.899 10.6325 29.3568 11.4529 29.6471C11.9223 29.8132 12.3296 29.9648 12.3579 29.9839C12.4878 30.0718 12.0482 30.4191 11.8073 30.4191C11.6586 30.4191 11.3557 30.4738 11.1339 30.5409C10.9122 30.6079 10.3171 30.7804 9.81157 30.9244C8.9493 31.17 8.615 31.2583 7.21833 31.61C6.91134 31.6872 6.29801 31.8644 5.85526 32.0039C4.32505 32.4855 4.09631 32.3738 3.39607 30.8022C3.18953 30.3387 2.87665 29.6424 2.7007 29.2549C1.56729 26.7585 1.54984 25.8426 2.64675 26.4097ZM58.1166 26.325C58.1814 26.4298 57.7312 27.7812 57.1463 29.2373C56.9868 29.6345 56.7863 30.1368 56.7009 30.3534C56.0245 32.069 55.5339 32.4596 54.4641 32.1349C54.2423 32.0676 53.7949 31.9448 53.47 31.862C53.145 31.7791 52.4803 31.5979 51.9928 31.4591C50.0861 30.9164 49.1862 30.6576 48.7994 30.5409C48.5776 30.4738 48.2747 30.4191 48.126 30.4191C47.8871 30.4191 47.4425 30.0698 47.5753 29.9866C47.6594 29.9339 48.4573 29.634 49.9248 29.1035C50.683 28.8295 51.8057 28.4169 52.4195 28.1869C53.0334 27.9569 54.156 27.5439 54.9143 27.2691C55.6726 26.9944 56.5884 26.651 56.9495 26.506C57.6744 26.2149 58.0158 26.1619 58.1166 26.325ZM17.2478 26.7754C17.4118 27.01 17.6403 27.2908 17.7554 27.3991C17.8706 27.5074 18.1075 27.8028 18.2818 28.0556C18.4561 28.3084 18.751 28.6629 18.9372 28.8434C19.1233 29.024 19.4183 29.3785 19.5925 29.6312C19.7669 29.884 20.0037 30.1794 20.1189 30.2878C20.234 30.3961 20.4722 30.6915 20.6482 30.9443C20.8241 31.197 21.161 31.5978 21.3969 31.8349C22.0543 32.4956 21.8709 32.7536 21.0468 32.3276C20.8422 32.2217 20.2691 31.9906 19.7732 31.8142C18.6954 31.4304 16.1929 30.5215 15.4576 30.2467C14.7918 29.9978 14.7563 29.7941 15.2311 28.9416C16.9176 25.9137 16.7624 26.0804 17.2478 26.7754ZM43.5097 26.907C43.7006 27.2137 44.0183 27.7897 44.2158 28.1869C44.4134 28.5841 44.6898 29.0719 44.8302 29.2709C45.1814 29.7688 45.0915 30.0166 44.4757 30.2467C42.865 30.8486 38.2292 32.5099 38.1403 32.5173C38.0089 32.5279 38.1589 32.2171 38.4058 31.9678C38.5698 31.8021 38.8476 31.4596 39.0232 31.2069C39.1987 30.9541 39.4366 30.6587 39.5518 30.5504C39.667 30.442 39.9038 30.1466 40.0782 29.8938C40.2524 29.6411 40.5473 29.2866 40.7335 29.106C40.9197 28.9255 41.2152 28.571 41.39 28.3182C41.5649 28.0654 41.8604 27.7109 42.0466 27.5304C42.2328 27.3498 42.5196 27.01 42.6843 26.7754C43.0649 26.2326 43.0929 26.237 43.5097 26.907ZM13.499 31.4367C13.4543 31.7796 13.3608 32.4444 13.2912 32.9138C13.2217 33.3832 13.1033 34.2104 13.0285 34.7521C12.9537 35.2937 12.8355 36.1209 12.7659 36.5903C12.5621 37.966 12.3733 39.3426 12.2437 40.3981C11.9467 42.8175 11.8295 43.0904 11.3814 42.4054C11.2497 42.2041 10.9295 41.8326 10.6695 41.5799C10.4097 41.3271 10.0539 40.9135 9.87918 40.6607C9.70441 40.408 9.46716 40.1125 9.35201 40.0042C9.23686 39.8959 9.00051 39.6005 8.8268 39.3477C8.65308 39.0949 8.4149 38.7995 8.29751 38.6912C8.18 38.5829 7.70821 37.9329 7.24904 37.2468C6.78987 36.5608 6.33519 35.92 6.23868 35.8229C6.14231 35.7258 5.96754 35.4599 5.85042 35.232C5.73329 35.0042 5.40371 34.4723 5.11773 34.05C4.5463 33.206 4.55707 33.1647 5.41291 32.9258C5.96465 32.7717 6.21333 32.7077 7.57941 32.3675C7.86828 32.2955 8.48869 32.1277 8.9581 31.9947C9.42751 31.8617 10.0479 31.6939 10.3368 31.6219C11.6452 31.296 11.9531 31.2141 12.5689 31.0278C13.5833 30.7209 13.5917 30.7246 13.499 31.4367ZM47.3164 31.0202C47.7039 31.1341 48.2572 31.2864 48.5461 31.3588C48.8349 31.431 49.4554 31.5991 49.9248 31.7321C50.3942 31.8651 51.0146 32.0329 51.3035 32.1049C55.3379 33.1097 55.3175 33.0949 54.5057 34.4345C53.8762 35.4731 52.417 37.674 52.2929 37.7721C52.2472 37.8082 52.0679 38.0445 51.8942 38.2973C51.7206 38.55 51.4843 38.8455 51.3691 38.9538C51.254 39.0621 51.0171 39.3575 50.8427 39.6103C50.6685 39.8631 50.3736 40.2176 50.1874 40.3981C50.0012 40.5787 49.7055 40.9332 49.5301 41.1859C49.166 41.7105 48.2491 42.6303 48.0902 42.6303C47.9584 42.6303 47.8952 42.2809 47.4325 38.9866C47.3588 38.4631 47.2386 37.6062 47.1649 37.0827C47.0914 36.5592 46.9716 35.7172 46.8988 35.2116C46.7517 34.1919 46.5454 32.558 46.4304 31.5023C46.3456 30.7241 46.333 30.7309 47.3164 31.0202ZM15.5145 31.1366C15.7191 31.2425 16.2922 31.4736 16.7881 31.65C17.2841 31.8266 18.3397 32.2073 19.1341 32.496C19.9285 32.7846 21.0706 33.1984 21.6721 33.4154C22.2736 33.6324 22.8012 33.8453 22.8444 33.8885C22.9914 34.0355 23.526 35.7355 23.5294 36.067C23.5312 36.2485 23.651 36.7204 23.7954 37.1155C23.9398 37.5106 24.058 37.9748 24.058 38.1469C24.058 38.3189 24.1721 38.8221 24.3114 39.2648C24.5832 40.1283 24.7693 40.8279 25.2586 42.8272C25.3294 43.1161 25.4422 43.5272 25.5093 43.7409C25.6732 44.2617 25.5133 44.3863 24.8244 44.275C24.5112 44.2243 23.2061 44.129 21.9243 44.0631C18.3539 43.8796 15.054 43.6952 13.7908 43.6088L12.6492 43.5305L12.7156 42.8506C12.7522 42.4767 12.8157 42.0526 12.8566 41.9081C12.8976 41.7637 12.9809 41.2024 13.0418 40.6607C13.1027 40.1191 13.2132 39.2475 13.2874 38.724C13.3616 38.2005 13.4826 37.3436 13.5562 36.8201C13.6298 36.2966 13.7479 35.4694 13.8188 34.9819C13.8896 34.4943 14.0041 33.6968 14.0732 33.2093C14.2731 31.7967 14.3559 31.2841 14.4121 31.1084C14.4831 30.8864 15.059 30.9011 15.5145 31.1366ZM45.6272 31.7977C45.6829 32.231 45.7879 32.9992 45.8607 33.5047C45.9334 34.0102 46.0478 34.867 46.1149 35.4086C46.1818 35.9502 46.3009 36.7774 46.3796 37.2468C46.4582 37.7163 46.5764 38.5435 46.6422 39.0851C46.708 39.6267 46.8284 40.4539 46.9095 40.9233C46.9908 41.3927 47.0674 42.1609 47.0796 42.6303L47.1017 43.4838L45.92 43.5875C45.2701 43.6445 43.7043 43.7473 42.4405 43.8158C38.1445 44.049 35.9424 44.1902 35.2389 44.2772C34.3544 44.3869 34.2032 44.2627 34.3979 43.5862C34.5312 43.1228 34.5981 42.8672 34.9666 41.4157C35.0444 41.1087 35.2171 40.4736 35.3501 40.0042C35.5973 39.132 35.8034 38.3516 36.0175 37.4766C36.0837 37.2059 36.2019 36.7332 36.2801 36.4262C36.5381 35.4128 36.6493 34.9531 36.7166 34.6208C36.8609 33.9078 36.9181 33.8751 39.9457 32.7803C41.7572 32.1251 43.2704 31.5576 44.0818 31.2291C45.2325 30.7629 45.5073 30.8642 45.6272 31.7977ZM24.7991 36.0323C24.94 36.1587 25.1973 36.4689 25.371 36.7216C25.5447 36.9744 25.7811 37.2698 25.8962 37.3781C26.0114 37.4865 26.2477 37.7819 26.4215 38.0347C26.5952 38.2874 26.8315 38.5829 26.9467 38.6912C27.0618 38.7995 27.2987 39.0949 27.4731 39.3477C27.6473 39.6005 27.9436 39.955 28.1314 40.1355C29.3897 41.3451 29.3655 41.8166 27.9971 42.7604C27.7443 42.9348 27.4489 43.1689 27.3406 43.2808C26.7275 43.914 26.1588 43.8326 26.1588 43.1116C26.1588 42.9655 26.1037 42.6644 26.0365 42.4427C25.9691 42.2209 25.8558 41.8031 25.7846 41.5142C25.2444 39.3209 24.8814 37.969 24.4424 36.5153C24.2158 35.7653 24.3297 35.6111 24.7991 36.0323ZM35.5447 36.0323C35.4918 36.1587 35.3968 36.4837 35.3337 36.7545C35.2156 37.2604 35.0435 37.9656 34.8129 38.8881C34.7407 39.177 34.633 39.6202 34.5737 39.8729C34.5143 40.1257 34.3702 40.5984 34.2533 40.9233C34.1364 41.2483 34.0392 41.6619 34.0371 41.8425C34.0304 42.4136 33.4816 43.812 33.2641 43.812C33.2051 43.812 32.9856 43.6489 32.7763 43.4495C32.567 43.2502 32.189 42.9423 31.9362 42.7653C30.6211 41.8444 30.5097 41.3716 31.4099 40.5294C31.5256 40.4211 31.763 40.1257 31.9374 39.8729C32.1116 39.6202 32.4065 39.2656 32.5927 39.0851C32.7789 38.9045 33.0743 38.55 33.2492 38.2973C33.4241 38.0445 33.7196 37.69 33.9058 37.5094C34.0919 37.3289 34.3868 36.9744 34.5611 36.7216C34.9234 36.1964 35.3324 35.8025 35.5155 35.8025C35.5845 35.8025 35.5975 35.9058 35.5447 36.0323ZM30.5599 42.7194C30.8474 42.9128 31.1714 43.1668 31.2797 43.2836C31.388 43.4005 31.6834 43.6386 31.9362 43.8124C32.6505 44.3039 33.2671 45.0228 33.1716 45.2524C33.1257 45.363 33.0621 45.5715 33.0302 45.7159C32.9983 45.8604 32.9115 46.2149 32.8373 46.5037C32.7632 46.7926 32.6481 47.2506 32.5818 47.5213C32.5156 47.7922 32.4023 48.2501 32.3301 48.5389C32.2579 48.8278 32.1397 49.3005 32.0675 49.5894C31.9953 49.8782 31.8771 50.3509 31.8049 50.6398C31.7327 50.9287 31.6096 51.4161 31.5314 51.723C31.4533 52.03 31.3351 52.5027 31.2688 52.7735C31.2026 53.0444 31.0844 53.5169 31.0062 53.8239C30.928 54.1309 30.8147 54.5887 30.7545 54.8415C30.3415 56.5725 30.0743 57.4676 29.9706 57.4676C29.851 57.4676 29.3101 55.8546 29.3101 55.498C29.3101 55.3364 29.196 54.8419 29.0567 54.3991C28.9173 53.9564 28.74 53.3431 28.6628 53.0361C28.5855 52.7291 28.4632 52.2417 28.391 51.9528C28.3188 51.664 28.2006 51.1913 28.1284 50.9024C28.0562 50.6135 27.938 50.1408 27.8658 49.852C27.7936 49.5631 27.6705 49.0757 27.5923 48.7687C27.5142 48.4617 27.396 47.9892 27.3297 47.7183C27.065 46.6362 26.9233 46.0914 26.8064 45.7066C26.6067 45.0486 26.662 44.7757 27.0451 44.5274C27.2437 44.3987 27.4949 44.197 27.6032 44.0792C27.7115 43.9616 28.0069 43.7231 28.2597 43.5495C28.5125 43.3758 28.7488 43.197 28.7849 43.1518C29.3246 42.4784 29.9684 42.3215 30.5599 42.7194ZM16.8363 44.6061C18.0279 44.6713 20.0959 44.7795 21.4319 44.8466C25.3454 45.043 25.3244 45.0339 24.2862 46.0741C23.9063 46.4549 23.4497 46.9731 23.2715 47.2259C22.9067 47.7435 20.0225 50.6398 19.8719 50.6398C19.8183 50.6398 19.66 50.5348 19.52 50.4065C19.3799 50.2781 19.0586 50.0275 18.8059 49.8498C16.7566 48.4078 13.1443 44.2713 14.0461 44.3992C14.3892 44.4478 15.6447 44.5409 16.8363 44.6061ZM46.3434 44.5541C46.3985 44.7225 42.1138 49.0786 41.39 49.59C41.1373 49.7686 40.7593 50.078 40.55 50.2773C40.3407 50.4767 40.1217 50.6398 40.0634 50.6398C39.9363 50.6398 36.7909 47.489 36.1379 46.7077C35.8852 46.4053 35.5158 45.9783 35.3173 45.7589C34.635 45.005 34.6385 45.0045 43.0536 44.6336C44.2937 44.579 45.3552 44.4871 45.4124 44.4295C45.5627 44.2785 46.2847 44.3752 46.3434 44.5541ZM26.0013 45.9391C26.0879 46.0258 26.1588 46.2137 26.1588 46.3566C26.1588 46.4994 26.214 46.7979 26.2812 47.0196C26.4234 47.4881 26.6465 48.351 27.0979 50.1802C27.1692 50.4691 27.3416 51.0677 27.4811 51.5105C27.6204 51.9532 27.7345 52.4477 27.7345 52.6093C27.7345 52.771 27.8486 53.2655 27.9879 53.7082C28.1273 54.151 28.3046 54.7643 28.3818 55.0713C28.4591 55.3783 28.5854 55.8804 28.6626 56.1874C28.7396 56.4944 28.8578 56.9269 28.9252 57.1486C29.2643 58.2659 28.7555 58.4197 27.8658 57.4686C27.7575 57.353 27.462 57.1161 27.2093 56.9425C26.9565 56.7688 26.7202 56.5915 26.6841 56.5485C26.648 56.5054 26.4116 56.3281 26.1588 56.1544C25.9061 55.9808 25.6107 55.7445 25.5023 55.6293C25.394 55.5142 25.0986 55.2773 24.8458 55.1029C24.5931 54.9287 24.2385 54.6338 24.058 54.4476C23.8775 54.2614 23.5229 53.9655 23.2702 53.7896C23.0174 53.6138 22.5447 53.2026 22.2197 52.8756C21.8948 52.5485 21.4074 52.1156 21.1365 51.9133C20.5744 51.4934 20.5576 51.4402 20.8774 51.0913C21.0059 50.9512 21.2561 50.63 21.4338 50.3772C21.6113 50.1244 22.4968 49.179 23.4015 48.2763C24.3062 47.3736 25.1825 46.4429 25.349 46.2083C25.681 45.7399 25.7668 45.7046 26.0013 45.9391ZM35.5779 47.3244C36.4296 48.173 37.2721 49.0726 37.45 49.3236C37.6281 49.5747 38.1147 50.1263 38.5314 50.5496C39.4282 51.4604 39.4251 51.4442 38.7968 51.9129C38.5261 52.115 38.1567 52.4304 37.9762 52.6139C37.7956 52.7975 37.4411 53.0912 37.1883 53.2667C36.9356 53.4421 36.522 53.7963 36.2692 54.0537C36.0165 54.311 35.6028 54.6648 35.3501 54.8395C35.0973 55.0143 34.8019 55.2516 34.6936 55.3667C34.5852 55.4819 34.2898 55.7182 34.0371 55.8919C33.7843 56.0656 33.4889 56.302 33.3805 56.4171C33.2722 56.5323 32.9768 56.7702 32.724 56.9458C32.4713 57.1213 32.1371 57.3909 31.9815 57.5448C31.1752 58.3422 30.5572 58.5294 30.748 57.9185C31.0415 56.979 31.5145 55.2521 31.8158 54.0209C31.882 53.7501 31.9904 53.307 32.0566 53.0361C32.1229 52.7653 32.2459 52.2778 32.3301 51.9528C32.4982 51.3037 32.6808 50.5765 32.8662 49.8192C32.9879 49.3212 33.1338 48.7358 33.3895 47.7183C33.4666 47.4113 33.5847 46.9788 33.6521 46.757C33.7193 46.5352 33.7744 46.225 33.7744 46.0677C33.7744 45.587 33.9726 45.725 35.5779 47.3244Z" fill="black"/>
</svg>
