<svg width="30" height="60" viewBox="0 0 30 60" fill="none" xmlns="http://www.w3.org/2000/svg">
<path fill-rule="evenodd" clip-rule="evenodd" d="M14.5985 0.0771069C14.467 0.197589 14.1656 0.430412 13.9284 0.594751C13.6913 0.75909 13.4695 0.926509 13.4357 0.966916C13.4018 1.00732 13.18 1.17597 12.9429 1.34179C12.383 1.73305 8.90475 5.21115 8.51311 5.77143C8.3473 6.00858 8.12321 6.28576 8.01517 6.3874C7.90713 6.48903 7.68538 6.76622 7.52252 7.00336C7.35954 7.24051 7.19127 7.46226 7.1484 7.49613C7.02619 7.59272 5.64789 9.67763 5.03081 10.6991C4.40327 11.7382 3.30069 13.9017 3.03928 14.6072C2.94442 14.8631 2.74425 15.3774 2.59445 15.7501C2.16364 16.8212 1.56518 18.6774 1.34306 19.6306C1.21937 20.1618 1.05674 20.8186 0.854951 21.6017C0.728062 22.0941 0.604009 22.8113 0.364646 24.4351C0.204372 25.5226 0 28.6639 0 30.0404C0 31.417 0.204372 34.5583 0.364646 35.6457C0.60672 37.2882 0.728697 37.9889 0.868275 38.5407C0.945516 38.8456 1.05294 39.3446 1.10702 39.6495C1.27493 40.5953 1.78852 42.1452 3.0372 45.4737C3.30564 46.1893 4.40906 48.3524 5.03081 49.3817C5.64789 50.4032 7.02619 52.4881 7.1484 52.5847C7.19127 52.6186 7.35954 52.8403 7.52252 53.0775C7.68538 53.3146 7.90713 53.5918 8.01517 53.6934C8.12321 53.7951 8.3473 54.0722 8.51311 54.3094C8.9024 54.8662 12.3795 58.3448 12.9429 58.741C13.18 58.9078 13.4382 59.1063 13.5167 59.1822C14.3646 60.0018 15.2122 60.2252 15.7172 59.7621C15.8513 59.6391 16.1551 59.4039 16.3923 59.2396C16.6294 59.0752 16.9066 58.8524 17.0082 58.7443C17.1099 58.6363 17.3871 58.4122 17.6242 58.2465C18.1815 57.857 20.9225 55.1169 21.3161 54.5558C21.4824 54.3186 21.763 53.986 21.9397 53.8166C22.1164 53.6472 22.6128 52.982 23.0429 52.3383C23.4728 51.6946 23.8629 51.1403 23.9097 51.1064C24.2271 50.8766 26.8255 45.9547 27.3075 44.6703C27.8145 43.3197 28.3851 41.6356 28.4871 41.1894C28.5489 40.9183 28.6525 40.4888 28.7172 40.2346C28.7819 39.9806 28.8902 39.5509 28.9579 39.2799C29.0257 39.0089 29.1408 38.5516 29.2137 38.2635C29.3634 37.6727 29.5232 36.7229 29.7166 35.2761C29.789 34.7341 29.8483 32.378 29.8483 30.0404C29.8483 27.7028 29.789 25.3468 29.7166 24.8047C29.5207 23.3395 29.3629 22.4065 29.206 21.7865C29.1288 21.4816 29.021 20.9827 28.9663 20.6778C28.8319 19.9271 28.2572 18.0986 27.4077 15.7183C26.8919 14.2731 24.2843 9.24559 23.9097 8.97445C23.8629 8.94057 23.4728 8.3862 23.0429 7.74252C22.6128 7.09884 22.1164 6.4336 21.9397 6.26421C21.763 6.09482 21.4824 5.7622 21.3159 5.52505C20.9221 4.96354 17.9355 1.97772 17.3778 1.58793C17.1407 1.42224 16.8635 1.19458 16.7619 1.08223C16.0903 0.339253 14.9104 -0.208824 14.5985 0.0771069ZM14.102 1.68797C14.1378 1.74587 14.117 1.95369 14.0559 2.14994C13.9948 2.34631 13.8255 2.9226 13.6799 3.43077C13.5343 3.93894 13.2581 4.88137 13.0661 5.52505C12.874 6.16873 12.5968 7.11116 12.4501 7.61933C12.3034 8.1275 12.0262 9.06992 11.8341 9.7136C11.6421 10.3573 11.3738 11.272 11.2379 11.7463C10.2978 15.0264 10.3285 14.9849 9.296 14.3677C8.89649 14.1288 7.83494 13.5014 6.93723 12.9734C5.08355 11.8831 5.12432 11.9619 5.8402 10.8517C6.13451 10.3951 6.67396 9.55543 7.03886 8.98567C7.40376 8.4159 7.76077 7.88925 7.83198 7.81533C7.9033 7.74142 8.09634 7.48689 8.2608 7.24975C8.42539 7.0126 8.70283 6.67998 8.87752 6.51059C9.05221 6.3412 9.33112 6.00858 9.4973 5.77143C9.88487 5.21879 12.1323 2.96903 12.6965 2.5689C12.9336 2.40075 13.2883 2.11002 13.4847 1.92301C13.8598 1.56575 13.9947 1.51439 14.102 1.68797ZM16.8434 2.16976C17.1731 2.49253 17.636 2.89377 17.8723 3.06143C18.4295 3.45701 19.4542 4.4837 19.8391 5.03228C20.0055 5.26942 20.3394 5.65748 20.5808 5.89463C20.8223 6.13177 21.1542 6.51983 21.3182 6.75698C21.4821 6.99412 21.7047 7.27131 21.8128 7.37294C21.9208 7.47458 22.1437 7.75176 22.308 7.98891C22.4723 8.22605 22.6915 8.51286 22.795 8.62619C23.0773 8.93565 24.7694 11.7986 24.7694 11.967C24.7694 11.9956 24.312 12.2839 23.7531 12.6075C23.1941 12.9313 22.0823 13.5847 21.2824 14.0597C19.7223 14.9864 19.7171 14.9866 19.4839 14.1485C19.399 13.8436 19.1722 13.0675 18.9799 12.4238C18.7875 11.7802 18.5101 10.8377 18.3634 10.3296C18.2166 9.8214 17.9395 8.87897 17.7474 8.23529C17.5553 7.59161 17.2782 6.64918 17.1314 6.14101C16.9011 5.34322 16.3943 3.63564 16.0137 2.37488C15.7221 1.40868 15.9968 1.34067 16.8434 2.16976ZM14.6676 8.77056C14.6676 14.5888 14.7153 14.2747 13.8052 14.4462C13.5681 14.4909 13.0969 14.5831 12.7581 14.6512C11.0796 14.9881 11.0716 14.9827 11.4486 13.7648C11.5928 13.2983 11.8264 12.5148 11.9676 12.0235C12.1087 11.5322 12.3812 10.6037 12.5733 9.95999C12.7654 9.31631 13.0425 8.37388 13.1893 7.86571C13.336 7.35754 13.6134 6.41512 13.8058 5.77143C13.9981 5.12775 14.2242 4.36556 14.3081 4.07753C14.6177 3.015 14.6676 3.66631 14.6676 8.77056ZM15.8685 4.6319C16.0098 5.08932 16.2362 5.85151 16.3717 6.3258C16.5071 6.80009 16.8491 7.93655 17.1314 8.85126C17.4138 9.76596 17.7554 10.9024 17.8904 11.3767C18.0254 11.851 18.3015 12.7578 18.5042 13.3918C19.0266 15.0276 19.0577 14.9966 17.2546 14.6412C16.882 14.5678 16.3276 14.4684 16.0227 14.4204L15.4683 14.3333L15.4362 9.06684C15.4029 3.60743 15.4387 3.24081 15.8685 4.6319ZM5.77911 13.2074C6.162 13.435 6.89104 13.859 7.39921 14.1495C9.18821 15.1723 9.61669 15.4332 9.61484 15.4989C9.6109 15.6378 9.4171 15.8337 9.00071 16.1196C8.76357 16.2825 8.54182 16.4508 8.50794 16.4936C8.47406 16.5365 7.9197 16.9226 7.27601 17.3516C6.63233 17.7805 6.07796 18.1686 6.04409 18.2139C6.01021 18.2592 5.45584 18.6473 4.81216 19.0763C4.16848 19.5052 3.61411 19.8913 3.58023 19.9342C3.54635 19.9771 3.32461 20.1464 3.08746 20.3108C2.85031 20.4751 2.54787 20.7088 2.41543 20.8303C1.86217 21.3376 1.72828 20.8356 2.09774 19.6391C2.24569 19.1602 2.47568 18.4079 2.60885 17.9675C2.74203 17.5271 2.95319 16.9173 3.07799 16.6124C3.2029 16.3075 3.4281 15.7531 3.57852 15.3805C4.69932 12.6035 4.72347 12.5796 5.77911 13.2074ZM25.3866 13.0398C25.5852 13.4512 26.485 15.4819 26.724 16.058C26.9561 16.6177 27.726 18.9678 28.1075 20.2811C28.3522 21.1235 27.4217 21.0573 26.7405 20.1839C26.7066 20.1404 26.3185 19.8637 25.8781 19.569C25.4377 19.2743 25.0497 18.9972 25.0158 18.9531C24.9819 18.909 24.5938 18.6318 24.1534 18.3371C23.713 18.0424 23.325 17.7646 23.2911 17.72C23.2572 17.6753 22.7028 17.2875 22.0592 16.858C20.3579 15.7232 20.2039 15.5089 20.8381 15.1591C21.3223 14.892 22.838 14.022 24.0302 13.3267C24.9802 12.7727 25.2319 12.7195 25.3866 13.0398ZM13.9284 15.3614C13.9284 15.4795 12.9583 17.0108 12.8236 17.1052C12.7753 17.139 12.227 17.9291 11.6053 18.8607C10.1109 21.0996 10.1043 21.0972 10.4811 18.4603C10.5537 17.9521 10.6431 17.1893 10.6798 16.765C10.7561 15.8837 10.8726 15.7718 11.8957 15.5979C12.2345 15.5402 12.7612 15.4475 13.0661 15.3917C13.8541 15.2474 13.9284 15.2448 13.9284 15.3614ZM17.6469 15.5207C17.7611 15.5791 18.0446 15.6269 18.2769 15.6269C18.9467 15.6269 19.3134 16.0837 19.3949 17.0193C19.4545 17.7045 19.5442 18.3899 19.7893 20.031C19.893 20.7253 19.7101 20.7058 19.209 19.9694C18.9899 19.6475 18.7731 19.3565 18.727 19.3226C18.5826 19.2163 16.1459 15.4923 16.1459 15.3778C16.1459 15.2508 17.342 15.3646 17.6469 15.5207ZM15.4233 15.904C15.577 16.1242 15.7384 16.3321 15.7817 16.366C15.8251 16.3999 16.4337 17.2869 17.1343 18.3371C17.8349 19.3873 18.4683 20.3071 18.5421 20.381C18.6158 20.4549 18.98 20.9781 19.3513 21.5436L20.0265 22.5718L20.1096 28.9239C20.1553 32.4177 20.229 35.6734 20.2732 36.1589L20.3539 37.0417L19.4618 38.3764C18.9711 39.1105 18.5319 39.7388 18.486 39.7726C18.44 39.8065 17.8371 40.6814 17.1462 41.717C16.4554 42.7526 15.812 43.695 15.7166 43.8113C15.6212 43.9276 15.4427 44.1509 15.3199 44.3075C14.9974 44.7187 14.821 44.5877 13.9914 43.3214C13.5856 42.702 13.1938 42.1352 13.1209 42.0619C13.0479 41.9885 12.5255 41.2356 11.9602 40.3886C11.3947 39.5417 10.8927 38.821 10.8444 38.7871C10.7963 38.7532 10.5279 38.3705 10.2483 37.9365L9.73987 37.1474L9.74035 30.0521C9.74084 22.4701 9.74171 22.4579 10.3521 22.0329C10.4007 21.999 11.1231 20.9457 11.9573 19.6922C12.7916 18.4387 13.5112 17.3854 13.5565 17.3516C13.6018 17.3177 13.8801 16.9296 14.1748 16.4892C14.9395 15.3466 15.0106 15.3132 15.4233 15.904ZM9.94424 17.0128C9.90753 17.3008 9.81575 17.8412 9.74011 18.2139C9.66447 18.5866 9.55237 19.2518 9.49078 19.6922C9.25326 21.3919 9.14965 21.9857 9.02116 22.3836C8.8896 22.7905 8.23261 23.8919 7.9558 24.1693C7.87757 24.2478 7.24028 25.1712 6.53968 26.2214C5.83909 27.2717 5.23051 28.1586 5.18715 28.1925C5.14379 28.2264 4.98241 28.4343 4.82867 28.6545C4.6748 28.8746 4.50405 29.0549 4.44911 29.0549C4.39416 29.0549 4.28218 28.8746 4.20025 28.6545C3.98479 28.0755 3.6055 27.1439 3.19724 26.1906C2.53865 24.6528 2.07432 23.5762 1.84137 23.0469C1.57699 22.4457 1.65893 22.2022 2.24126 21.8581C2.43073 21.7462 2.65704 21.5839 2.74426 21.4973C2.83136 21.4108 3.42932 20.9877 4.073 20.5573C4.71668 20.1268 5.27105 19.7381 5.30493 19.6933C5.33881 19.6487 5.72686 19.3709 6.16728 19.0763C6.60769 18.7816 6.99575 18.5044 7.02963 18.4603C7.06351 18.4162 7.45156 18.139 7.89198 17.8443C8.33239 17.5497 8.72045 17.2723 8.75433 17.2282C8.86261 17.0873 9.79297 16.4892 9.90409 16.4892C9.96297 16.4892 9.98107 16.7248 9.94424 17.0128ZM21.2947 17.2492C21.8168 17.5995 22.2717 17.9224 22.3055 17.9668C22.3394 18.0112 22.7275 18.2888 23.1679 18.5835C23.6083 18.8782 23.9964 19.1553 24.0302 19.1994C24.0641 19.2436 24.4522 19.5207 24.8926 19.8154C25.333 20.1101 25.7211 20.3879 25.7549 20.4325C25.7888 20.4772 26.3432 20.8648 26.9869 21.2937C28.5539 22.338 28.5429 22.3058 27.8452 23.8192C27.6577 24.2257 27.3818 24.8632 27.2321 25.2359C26.966 25.8984 26.4502 27.1115 25.9868 28.1651C25.8593 28.4548 25.7549 28.7735 25.7549 28.8734C25.7549 29.3161 25.4218 29.0443 24.7694 28.0693C24.4747 27.6289 24.1964 27.2409 24.1511 27.207C23.6683 26.8465 20.8446 22.2441 20.7824 21.7164C20.7431 21.3823 20.6549 20.7209 20.5865 20.2466C20.5181 19.7723 20.4106 18.9962 20.3474 18.5219C20.2842 18.0476 20.1938 17.508 20.1463 17.3229C19.9294 16.4757 20.1232 16.4632 21.2947 17.2492ZM1.49395 24.1346C1.542 24.2321 1.70451 24.6169 1.85505 24.9895C2.00559 25.3622 2.28301 26.0274 2.4715 26.4678C2.65998 26.9082 2.93705 27.5735 3.0871 27.9461C3.23727 28.3188 3.46504 28.8609 3.59328 29.1506C3.95732 29.9725 3.88315 30.4393 3.11985 32.1347C2.75212 32.9513 2.1671 34.319 1.85505 35.0913C1.48091 36.0172 1.42696 36.117 1.27235 36.1687C1.04358 36.2449 0.970023 34.7527 0.970023 30.0404C0.970023 24.4164 1.07128 23.2747 1.49395 24.1346ZM29.001 25.0609C29.2768 27.6335 29.0832 35.9343 28.7448 36.0458C28.5959 36.095 28.5178 35.9487 27.9728 34.5985C27.8222 34.2259 27.5449 33.5606 27.3564 33.1202C27.168 32.6798 26.9027 32.0423 26.767 31.7035C26.6313 31.3647 26.4229 30.852 26.3038 30.564C26.0971 30.0644 26.0971 30.0164 26.3038 29.5168C26.4229 29.2288 26.6188 28.7438 26.7391 28.4389C27.2663 27.1036 27.4916 26.5607 28.3918 24.4565C28.6911 23.7567 28.8815 23.9455 29.001 25.0609ZM9.00071 30.0404C9.00071 33.4456 8.95501 35.7073 8.88627 35.7073C8.70764 35.7073 8.39842 35.3545 8.14636 34.8629C8.0196 34.6159 7.81005 34.2924 7.68045 34.1441C7.55085 33.9958 6.87231 33.0119 6.17257 31.9578L4.90025 30.0414L5.93407 28.4796C6.50272 27.6205 7.02692 26.8581 7.09898 26.7852C7.17093 26.7122 7.57425 26.1399 7.9952 25.5131C8.41627 24.8863 8.81468 24.3735 8.88071 24.3735C8.95684 24.3735 9.00071 26.4447 9.00071 30.0404ZM22.5694 26.2522C23.2588 27.2855 23.8624 28.1586 23.9109 28.1925C24.1092 28.3312 25.0158 29.8475 25.0158 30.0404C25.0158 30.2333 24.1092 31.7496 23.9109 31.8883C23.8624 31.9222 23.2588 32.7954 22.5694 33.8286C21.88 34.8618 21.2615 35.7073 21.1948 35.7073C21.1171 35.7073 21.0736 33.6747 21.0736 30.0404C21.0736 26.4061 21.1171 24.3735 21.1948 24.3735C21.2615 24.3735 21.88 25.219 22.5694 26.2522ZM4.82867 31.4263C4.98241 31.6465 5.14355 31.8544 5.18679 31.8883C5.22991 31.9222 5.72784 32.6429 6.2933 33.4898C6.85863 34.3368 7.39601 35.1047 7.48742 35.1965C7.57895 35.2883 7.75734 35.5655 7.88398 35.8125C8.01074 36.0595 8.23606 36.4002 8.38475 36.5696C8.87074 37.1231 9.1738 37.8481 9.27284 38.6947C9.42955 40.0323 9.59277 41.1405 9.74011 41.8669C10.0655 43.4713 10.0293 43.8615 9.59463 43.4299C9.50519 43.341 8.90524 42.916 8.26156 42.4856C7.61787 42.0552 7.06351 41.6659 7.02963 41.6205C6.99575 41.5752 6.44138 41.1871 5.7977 40.7582C5.15402 40.3292 4.59965 39.9417 4.56577 39.8969C4.53189 39.8524 4.14384 39.5734 3.70342 39.2774C3.26301 38.9813 2.83136 38.6686 2.74426 38.5826C2.65704 38.4966 2.43073 38.3346 2.24126 38.2228C1.60719 37.8481 1.56872 37.6473 1.96651 36.7872C2.16288 36.3627 2.44007 35.7242 2.58236 35.3685C3.23072 33.7477 3.38239 33.3781 3.707 32.6275C3.89746 32.187 4.11982 31.6465 4.20125 31.4263C4.28268 31.2062 4.39416 31.026 4.44911 31.026C4.50405 31.026 4.6748 31.2062 4.82867 31.4263ZM25.9269 31.7959C26.3286 32.684 26.9057 34.0321 27.2321 34.8449C27.3818 35.2176 27.6577 35.8551 27.8452 36.2617C28.5152 37.7151 28.5026 37.7736 27.3564 38.5407C26.916 38.8354 26.528 39.1132 26.4941 39.1578C26.4602 39.2025 25.9058 39.5901 25.2622 40.019C24.6185 40.448 24.0641 40.8355 24.0302 40.8803C23.9964 40.9249 23.6083 41.2027 23.1679 41.4973C22.7275 41.792 22.3394 42.0696 22.3055 42.1141C21.6404 42.9861 20.0231 43.5507 20.1434 42.8687C20.1867 42.6226 20.2732 42.061 20.3356 41.6205C20.398 41.1801 20.5095 40.4594 20.5834 40.019C20.6572 39.5786 20.7478 38.8902 20.7845 38.4893C20.8437 37.8422 23.0861 34.0384 23.6592 33.613C23.7048 33.5791 24.0365 33.1079 24.3965 32.5659C25.5114 30.8867 25.515 30.8849 25.9269 31.7959ZM28.1653 39.1699C28.2577 39.3194 28.1877 39.5897 27.4668 41.8669C26.9908 43.3707 26.8559 43.7291 26.0988 45.5011C25.1931 47.621 25.4062 47.5593 23.2911 46.3142C19.7615 44.2365 20.0128 44.573 21.3396 43.702C21.8925 43.339 22.4052 42.9821 22.4791 42.9088C22.553 42.8355 23.1402 42.4233 23.7839 41.9928C24.4275 41.5624 24.9819 41.1736 25.0158 41.1289C25.0497 41.0843 25.4324 40.8083 25.8664 40.5157C26.3004 40.2233 26.7439 39.909 26.852 39.8175C27.6233 39.1643 28.0361 38.9607 28.1653 39.1699ZM3.21176 39.8538C3.78708 40.2373 4.28551 40.5879 4.31939 40.633C4.35326 40.6782 4.74132 40.9563 5.18174 41.251C5.62215 41.5456 6.01021 41.8228 6.04409 41.8669C6.07796 41.911 6.46602 42.1882 6.90644 42.4829C7.34685 42.7776 7.73491 43.0547 7.76878 43.0989C7.80266 43.143 8.19072 43.4201 8.63113 43.7148C9.3783 44.2149 9.61016 44.4192 9.61484 44.582C9.61669 44.6476 9.18821 44.9085 7.39921 45.9313C6.89104 46.2218 6.15399 46.6507 5.76125 46.8844C4.77263 47.4729 4.63253 47.334 3.59229 44.7312C3.45013 44.3755 3.22519 43.8211 3.09239 43.4992C2.95959 43.1773 2.73784 42.5399 2.59962 42.0825C2.4614 41.6251 2.23743 40.8971 2.10192 40.4649C1.62183 38.9329 1.73592 38.8703 3.21176 39.8538ZM11.3615 40.8506C11.8498 41.5789 12.3241 42.2499 12.4154 42.3417C12.5067 42.4335 12.685 42.7107 12.8117 42.9577C12.9385 43.2047 13.1637 43.5454 13.3122 43.7148C14.1087 44.6227 14.066 44.8436 13.1243 44.6887C10.7431 44.2967 10.7727 44.3118 10.6779 43.4395C10.6391 43.0827 10.5517 42.3474 10.4837 41.8053C10.1308 38.9916 10.1217 39.0016 11.3615 40.8506ZM19.7893 40.0498C19.642 41.0366 19.4807 42.1753 19.3798 42.9414C19.2467 43.9531 18.9378 44.3653 18.2275 44.4795C17.0583 44.6676 16.4438 44.7928 16.2168 44.889C15.8553 45.0423 15.9726 44.8316 17.6219 42.3633C19.6483 39.3305 19.9439 39.0148 19.7893 40.0498ZM10.4509 45.5113C10.4693 45.6412 10.5941 46.1216 10.7281 46.579C10.8622 47.0365 11.0872 47.8125 11.2284 48.3037C11.3696 48.795 11.6468 49.7373 11.8444 50.398C12.042 51.0587 12.3655 52.1396 12.5631 52.8003C12.9048 53.9424 13.1091 54.6452 13.6909 56.6809C13.8314 57.1721 13.9977 57.7443 14.0605 57.9523C14.2999 58.7447 14.1412 58.8246 13.5321 58.2187C13.3096 57.9974 12.9336 57.6791 12.6965 57.5113C12.1317 57.1117 9.88413 54.8614 9.49842 54.3094C9.33272 54.0722 9.10875 53.7951 9.00071 53.6934C8.89267 53.5918 8.67093 53.3146 8.50794 53.0775C8.34496 52.8403 8.12148 52.5631 8.01135 52.4615C7.58042 52.0641 5.30493 48.4981 5.30493 48.2205C5.30493 48.1038 8.44092 46.1455 9.92466 45.3355C10.2432 45.1616 10.4092 45.217 10.4509 45.5113ZM12.7581 45.4296C13.0969 45.4978 13.5681 45.5899 13.8052 45.6346C14.7153 45.8061 14.6676 45.492 14.6676 51.3103C14.6676 56.4145 14.6177 57.0658 14.3081 56.0033C14.2242 55.7153 13.9936 54.9393 13.7956 54.2786C12.6816 50.561 12.5055 49.9627 11.9471 47.9958C11.8171 47.5383 11.5928 46.7826 11.4486 46.316C11.0716 45.0981 11.0796 45.0927 12.7581 45.4296ZM18.7833 45.2982C18.8192 45.3561 18.7984 45.5639 18.7372 45.7602C18.6328 46.0956 18.4415 46.7601 17.8809 48.7349C17.7511 49.1923 17.4138 50.3149 17.1314 51.2296C16.8491 52.1443 16.5071 53.2807 16.3717 53.755C15.392 57.185 15.3985 57.2041 15.4362 51.014L15.4683 45.7475L16.0227 45.6641C16.8386 45.5414 17.6231 45.3584 17.7112 45.2704C17.8271 45.1544 18.7087 45.1774 18.7833 45.2982ZM20.4187 45.5458C20.7451 45.7399 21.4001 46.1205 21.8744 46.3918C23.9781 47.595 24.7694 48.0651 24.7694 48.1118C24.7694 48.2744 23.3367 50.739 23.1717 50.86C23.1255 50.8939 22.8466 51.2819 22.5519 51.7223C22.2572 52.1628 21.9816 52.5508 21.9393 52.5847C21.897 52.6186 21.7281 52.8403 21.5638 53.0775C21.3996 53.3146 21.0126 53.7581 20.704 54.063C20.3954 54.3679 20.0064 54.8114 19.8396 55.0485C19.4518 55.5998 18.1836 56.8694 17.6242 57.2666C17.3871 57.435 16.9784 57.781 16.7161 58.0354C15.9908 58.7392 15.7376 58.6204 16.0137 57.7059C16.3943 56.4452 16.9011 54.7376 17.1314 53.9398C17.2782 53.4316 17.56 52.4754 17.7576 51.8147C17.9552 51.1541 18.2787 50.0732 18.4763 49.4125C18.8311 48.2265 19.1827 47.0126 19.4842 45.9323C19.7308 45.0489 19.6434 45.085 20.4187 45.5458Z" fill="black"/>
</svg>
