<svg width="30" height="34" viewBox="0 0 30 34" fill="none" xmlns="http://www.w3.org/2000/svg">
<path d="M11.4143 8.32716L8.92787 8.64243L7.72034 9.04098L6.5128 9.44547L6.14995 10.5757C5.80494 11.6642 5.7752 11.8189 5.37665 14.3589C5.0019 16.7145 4.96621 17.0476 5.01974 17.3629C5.09707 17.8566 5.32311 19.302 5.5789 20.926C5.7633 22.0978 5.84658 22.4547 6.16184 23.4243L6.5247 24.5486L8.78511 25.31L14.1387 26L19.4923 25.3219L20.5035 24.9471C21.0627 24.7449 21.5445 24.5486 21.5802 24.5069C21.6159 24.4712 21.8122 23.9716 22.0145 23.4005L22.3833 22.3596L23.1447 16.9822L22.764 14.3173L22.3892 11.6523L22.0026 10.5638C21.7944 9.96894 21.61 9.46332 21.5921 9.45142C21.5743 9.43358 21.0805 9.24917 20.4857 9.03503L19.409 8.65433L16.8096 8.32122C15.3819 8.14276 14.1387 8 14.0554 8C13.9722 8.00595 12.7825 8.14871 11.4143 8.32716ZM16.0184 9.39194C18.3681 10.9861 18.2729 10.9207 18.2729 10.9385C18.2729 10.9504 17.4758 11.3787 16.5062 11.8962C15.5306 12.4137 14.6027 12.9075 14.4361 12.9967L14.1447 13.1633L13.4249 12.7885C13.0323 12.5803 12.0984 12.0985 11.3429 11.7118C10.5934 11.3252 9.951 10.9921 9.92126 10.9683C9.87962 10.9266 10.4269 10.5519 13.187 8.7495C13.7104 8.40449 14.1566 8.13681 14.1744 8.14871C14.1922 8.16061 15.025 8.71976 16.0184 9.39194ZM13.8056 8.1963C13.6807 8.30337 9.74876 10.8493 9.70712 10.8493C9.5822 10.8493 6.79238 9.51685 6.83402 9.47521C6.86376 9.45737 7.33964 9.28486 7.90474 9.10046L8.92192 8.7614L11.2061 8.46993C13.3714 8.1963 13.8651 8.14276 13.8056 8.1963ZM17.0178 8.46993L19.3852 8.76735L20.3013 9.09451C20.8069 9.27892 21.259 9.43952 21.3066 9.45737C21.3958 9.48711 20.9973 9.68936 19.3555 10.4448C18.8558 10.6709 18.4097 10.8493 18.374 10.8315C18.3145 10.8077 14.5432 8.26173 14.4718 8.1963C14.4183 8.14871 14.7157 8.17845 17.0178 8.46993ZM21.3839 9.70126C21.3601 9.76074 21.0627 10.4329 20.7177 11.1943L20.0872 12.5744L18.6952 13.2287C17.9279 13.5856 17.2914 13.8711 17.2795 13.8592C17.2676 13.8473 17.4877 13.2941 17.7732 12.6279C18.0587 11.9617 18.3264 11.3192 18.374 11.2062C18.4573 11.004 18.5406 10.9564 19.9266 10.302C20.7355 9.92135 21.4018 9.60608 21.4077 9.60608C21.4137 9.60013 21.4018 9.64772 21.3839 9.70126ZM7.57163 10.0106C7.97612 10.2009 8.61855 10.5043 8.9933 10.6827L9.68332 11.0099L10.2841 12.4316C10.6113 13.2108 10.879 13.8592 10.8671 13.8711C10.8433 13.8949 8.13078 12.6279 8.06535 12.5565C8.01181 12.503 6.95894 10.2366 6.75074 9.731C6.6972 9.61203 6.80428 9.64772 7.57163 10.0106ZM7.24446 11.1051C7.57757 11.8308 7.82741 12.4316 7.80362 12.4435C7.76198 12.4613 6.03098 11.7118 5.97149 11.6583C5.9596 11.6464 6.09046 11.2003 6.25702 10.6709C6.42952 10.1414 6.58418 9.72505 6.60203 9.74884C6.62582 9.76669 6.91135 10.3794 7.24446 11.1051ZM21.8955 10.6233C22.0739 11.1229 22.2286 11.5631 22.2405 11.5929C22.2583 11.6523 20.3727 12.497 20.3251 12.4435C20.2954 12.4137 21.4969 9.7191 21.5445 9.7191C21.5624 9.7191 21.723 10.1295 21.8955 10.6233ZM11.9378 12.158C12.9847 12.6874 13.8651 13.1454 13.8889 13.1692C13.9127 13.187 13.2881 13.3774 12.5029 13.5796C11.7117 13.7878 11.0574 13.9425 11.0515 13.9306C11.0158 13.8771 9.92126 11.2776 9.89747 11.1765C9.87368 11.0813 9.87962 11.0694 9.951 11.1229C9.99859 11.1586 10.8909 11.6226 11.9378 12.158ZM17.7018 12.4911C17.3866 13.2406 17.107 13.8771 17.0832 13.9009C17.0535 13.9365 14.4242 13.2644 14.3588 13.1989C14.3469 13.193 14.8823 12.8956 15.5485 12.5387C16.2147 12.1877 17.0891 11.7178 17.4996 11.5036C17.91 11.2835 18.2491 11.111 18.255 11.117C18.2669 11.1229 18.0171 11.7416 17.7018 12.4911ZM6.29271 11.9438C7.24446 12.3424 7.83336 12.6279 7.82741 12.7052C7.82146 12.7469 7.59542 13.1097 7.32179 13.5083C7.04816 13.9068 6.44737 14.7872 5.98934 15.4594C5.53131 16.1315 5.15061 16.6788 5.13871 16.6788C5.12681 16.6788 5.12681 16.6193 5.14466 16.542C5.16251 16.4706 5.32906 15.4475 5.51346 14.2697C5.84658 12.1104 5.90011 11.8011 5.92391 11.8011C5.92985 11.8011 6.09641 11.8665 6.29271 11.9438ZM22.6093 14.0436C22.7818 15.2809 22.9365 16.3873 22.9543 16.5003C22.9841 16.7026 22.9781 16.7026 22.7283 16.3397C22.187 15.5783 20.3013 12.7647 20.2835 12.6993C20.2656 12.6398 22.0442 11.8249 22.2286 11.807C22.2702 11.8011 22.419 12.7112 22.6093 14.0436ZM9.11227 14.8764C9.70712 16.0185 10.1949 16.9703 10.2008 17.0059C10.2008 17.0595 8.31518 20.4382 7.97017 21.0093L7.8512 21.2056L7.11954 20.0872C6.71505 19.4746 6.10236 18.5347 5.7514 18.0053C5.37665 17.4342 5.12681 17 5.14466 16.9465C5.20414 16.7978 7.94043 12.8123 7.98802 12.8123C8.01181 12.8123 8.51743 13.7403 9.11227 14.8764ZM9.5941 13.4309C10.4031 13.8057 10.9266 14.0793 10.9206 14.1328C10.9147 14.1745 10.7719 14.7991 10.5994 15.5129C10.3852 16.3933 10.2663 16.7918 10.2306 16.7323C10.183 16.655 9.63574 15.614 8.55907 13.5677C8.33898 13.1514 8.18432 12.8123 8.21406 12.8123C8.2438 12.8123 8.86244 13.0919 9.5941 13.4309ZM19.9384 12.842C19.9384 12.8599 19.7243 13.2822 19.4626 13.7819C19.2008 14.2816 18.7369 15.1619 18.4394 15.7389C18.1361 16.3159 17.8743 16.7799 17.8624 16.7621C17.8149 16.7204 17.2557 14.4005 17.2438 14.2161C17.2319 14.0436 17.2616 14.0317 18.5406 13.4309C19.8314 12.8242 19.9384 12.7826 19.9384 12.842ZM21.5981 14.8883C22.413 16.1077 22.9781 17 22.9543 17.0535C22.9365 17.0952 22.6688 17.5235 22.3654 17.9934C22.0561 18.4633 21.485 19.3437 21.0984 19.9504C20.7117 20.5572 20.3667 21.0806 20.331 21.1223C20.2835 21.1758 20.1347 20.9557 19.7243 20.23C19.4209 19.7006 18.8915 18.7607 18.5406 18.1421L17.9041 17.0119L18.142 16.5658C18.2729 16.3159 18.6774 15.5367 19.0462 14.8348C19.9384 13.1276 20.1169 12.8123 20.1645 12.8123C20.1883 12.8182 20.8307 13.7521 21.5981 14.8883ZM15.5782 13.6748C16.3515 13.883 17.0059 14.0793 17.0297 14.1031C17.0891 14.1626 17.7375 16.8215 17.7375 17C17.7375 17.1963 17.0178 19.7958 16.9404 19.8672C16.9047 19.9088 16.2742 20.1051 15.5366 20.3073C14.567 20.575 14.1447 20.6642 13.99 20.6404C13.758 20.6048 11.1942 19.9147 11.1704 19.879C11.1585 19.8731 10.9741 19.2188 10.754 18.4395L10.3555 17.0119L10.6946 15.614C10.879 14.8407 11.0634 14.1745 11.105 14.1328C11.1407 14.0912 11.7355 13.9128 12.4196 13.7343C13.1037 13.5558 13.7461 13.3833 13.8413 13.3536C14.1149 13.2703 14.0852 13.2644 15.5782 13.6748ZM10.6946 18.6656C10.8849 19.3556 11.0098 19.9207 10.9801 19.9326C10.9503 19.9445 10.2841 20.23 9.49892 20.5691C8.71373 20.9022 8.0594 21.1758 8.05345 21.1639C8.04155 21.158 8.09509 21.033 8.17837 20.8903C8.30329 20.6702 9.42159 18.6834 9.82609 17.9577C10.2306 17.232 10.2603 17.1904 10.3079 17.3093C10.3317 17.3688 10.5102 17.9815 10.6946 18.6656ZM18.719 18.7013C19.1651 19.5043 19.6351 20.3311 19.76 20.5453C20.1645 21.2472 20.1526 21.2174 19.9266 21.1223C18.9986 20.7297 17.2735 19.9861 17.1962 19.9445C17.1129 19.9028 17.1427 19.7482 17.452 18.6299C17.8386 17.2201 17.8505 17.1904 17.8803 17.2201C17.8922 17.232 18.2669 17.8982 18.719 18.7013ZM5.72761 18.1778C6.03098 18.6477 6.60798 19.534 7.01247 20.1467C7.41697 20.7594 7.73818 21.2829 7.72034 21.3067C7.6787 21.3781 5.9596 22.1692 5.92391 22.1335C5.90606 22.1157 5.73356 21.1044 5.54321 19.879C5.34691 18.6596 5.1744 17.5889 5.16251 17.4937C5.14466 17.4045 5.13871 17.3331 5.15061 17.3331C5.16251 17.3331 5.42424 17.7138 5.72761 18.1778ZM22.6331 19.7779C22.4487 21.0985 22.2881 22.187 22.2821 22.1989C22.2524 22.2465 20.4203 21.3424 20.4143 21.2769C20.4143 21.2412 20.7891 20.6404 21.2471 19.9385C21.6992 19.2426 22.2643 18.3681 22.5022 17.9993C22.7342 17.6305 22.9365 17.3391 22.9484 17.351C22.9603 17.3629 22.8175 18.4514 22.6331 19.7779ZM12.5683 20.4025C13.2702 20.5869 13.8591 20.7535 13.8829 20.7773C13.9067 20.7951 13.0382 21.2769 11.9556 21.842C10.873 22.4071 9.98075 22.8592 9.96885 22.8473C9.95695 22.8414 10.2187 22.193 10.5518 21.4197C10.9384 20.5155 11.1823 20.0159 11.2299 20.0337C11.2656 20.0456 11.8724 20.2122 12.5683 20.4025ZM17.5888 21.4375C17.8981 22.1751 18.148 22.7938 18.142 22.8116C18.1301 22.8354 17.565 22.544 16.875 22.1692C16.1909 21.7944 15.37 21.3543 15.0607 21.1877C14.7514 21.0271 14.454 20.8546 14.4064 20.807C14.335 20.7356 14.335 20.7237 14.4361 20.7178C14.5016 20.7178 15.0905 20.5631 15.7448 20.3728C16.3991 20.1824 16.9523 20.0456 16.9761 20.0634C16.9999 20.0813 17.2735 20.6999 17.5888 21.4375ZM10.3496 21.5803L9.73686 22.996L9.17176 23.2518C8.86244 23.3886 8.19621 23.698 7.6906 23.9299C7.18498 24.1619 6.75669 24.3404 6.74479 24.3225C6.7329 24.3106 6.97678 23.6682 7.29205 22.8949C7.60732 22.1216 7.8631 21.4673 7.8631 21.4435C7.8631 21.4137 8.2319 21.2353 8.68399 21.0449C9.13012 20.8546 9.82014 20.5631 10.2127 20.3966C10.6053 20.2241 10.9325 20.1051 10.9444 20.1229C10.9503 20.1467 10.6827 20.8011 10.3496 21.5803ZM18.838 20.7832C19.5577 21.0866 20.1704 21.3543 20.1942 21.3781C20.2537 21.4316 21.4256 24.3106 21.4018 24.3404C21.3899 24.3463 21.027 24.1917 20.5868 23.9894C20.1466 23.7931 19.641 23.5611 19.4626 23.4779C19.2841 23.4005 18.9629 23.2518 18.7488 23.1566L18.3621 22.9782L17.797 21.6338C17.4877 20.8962 17.2141 20.2419 17.1903 20.1765C17.1486 20.0753 17.1605 20.0753 17.339 20.1467C17.446 20.1943 18.1182 20.4798 18.838 20.7832ZM15.9113 21.7885C16.869 22.306 17.7792 22.7938 17.9398 22.8771L18.2253 23.0258L16.2028 24.4296C15.0905 25.2029 14.1625 25.8394 14.1387 25.8394C14.103 25.8394 11.4619 24.0846 10.4923 23.4124L9.93316 23.0258L10.6113 22.6748C10.9801 22.4785 11.8069 22.0502 12.4434 21.7231C13.0799 21.39 13.7045 21.0568 13.8413 20.9795C13.9722 20.9081 14.103 20.8427 14.1268 20.8427C14.1506 20.8427 14.9536 21.265 15.9113 21.7885ZM7.67275 21.5981C7.6549 21.6576 7.40507 22.2882 7.1136 23.0079L6.59013 24.3106L6.25702 23.3113C6.06667 22.7284 5.95365 22.3001 5.98934 22.2882C6.02503 22.2763 6.39978 22.0978 6.82212 21.8896C7.25041 21.6755 7.61921 21.503 7.64896 21.503C7.67275 21.497 7.68465 21.5446 7.67275 21.5981ZM21.3601 21.9194L22.2524 22.3417L21.9312 23.2697C21.61 24.1798 21.5683 24.275 21.5207 24.2274C21.5088 24.2155 21.3006 23.7217 21.0627 23.1328C20.4679 21.6398 20.4084 21.497 20.4441 21.497C20.456 21.497 20.8724 21.6874 21.3601 21.9194ZM9.28478 24.1738C9.08253 24.6973 8.89218 25.1434 8.87434 25.1553C8.80295 25.197 6.78643 24.5129 6.83402 24.4653C6.89945 24.3999 9.61194 23.1745 9.64169 23.1983C9.65358 23.2042 9.49297 23.6444 9.28478 24.1738ZM11.7831 24.4177C12.8182 25.1137 13.7045 25.7145 13.7521 25.7621C13.8294 25.8394 13.8175 25.8453 13.6628 25.8156C13.5677 25.7978 12.4791 25.6609 11.2537 25.5063C10.0283 25.3576 9.0171 25.2267 9.01115 25.2208C8.99925 25.2148 9.60599 23.6742 9.7666 23.2935C9.79635 23.2221 9.83798 23.1626 9.86178 23.1626C9.88557 23.1626 10.7481 23.7277 11.7831 24.4177ZM18.719 24.1738C18.9391 24.733 19.1057 25.2029 19.0878 25.2208C19.07 25.2386 18.1242 25.3754 16.9821 25.5182C15.8459 25.655 14.8049 25.7918 14.6741 25.8096C14.3707 25.8572 14.4123 25.8096 15.2094 25.2624C15.5366 25.0364 16.1671 24.6021 16.6073 24.2928C18.0706 23.2756 18.2372 23.1626 18.2788 23.1626C18.2967 23.1626 18.4989 23.6206 18.719 24.1738ZM19.9028 23.811C20.6761 24.1679 21.3244 24.4713 21.3363 24.4831C21.3601 24.5069 19.5458 25.1613 19.3496 25.197C19.302 25.2089 19.177 24.9888 19.0045 24.5605C18.6774 23.7634 18.4513 23.1626 18.4751 23.1626C18.4811 23.1626 19.1235 23.4541 19.9028 23.811Z" fill="#0B131A" stroke="#0B131A" stroke-width="0.1"/>
</svg>
