<svg width="43" height="60" viewBox="0 0 43 60" fill="none" xmlns="http://www.w3.org/2000/svg">
<path fill-rule="evenodd" clip-rule="evenodd" d="M19.7904 0.185835C19.6823 0.257916 19.3621 0.317825 19.0789 0.319004C18.7957 0.320053 18.3829 0.376136 18.1615 0.44363C14.8546 1.45212 12.8204 2.38497 11.5668 3.46816C11.4406 3.57733 11.1308 3.81286 10.8785 3.99149C10.2762 4.41808 7.62438 7.07317 7.2143 7.66017C7.03816 7.91246 6.85874 8.14836 6.81575 8.1844C6.77276 8.22044 6.59466 8.45635 6.41983 8.70863C6.24499 8.96092 6.01199 9.26615 5.9019 9.38699C5.79181 9.50782 5.5188 9.92066 5.29521 10.3044C5.0715 10.6881 4.64831 11.415 4.35474 11.9195C4.06104 12.4241 3.69161 13.1318 3.53355 13.4922C3.37563 13.8526 3.10105 14.468 2.92373 14.8597C2.56791 15.6451 1.35 19.2172 1.15577 20.0451C1.03808 20.5471 0.973871 20.8556 0.651601 22.4697C-0.306822 27.2699 -0.195682 34.4612 0.904021 38.7863C1.08907 39.5142 1.29036 40.3349 1.4264 40.916C1.65457 41.8905 2.62021 44.6226 3.00801 45.3907C3.22596 45.8224 3.48609 46.4132 3.58609 46.7036C3.81203 47.3592 6.10712 51.2028 6.55507 51.6757C6.73606 51.8668 7.03054 52.2295 7.20943 52.4818C7.6317 53.0771 10.2848 55.7299 10.8785 56.1505C11.1308 56.3291 11.4419 56.5647 11.57 56.6738C11.9334 56.9835 14.0276 58.2483 14.1771 58.2483C14.2508 58.2483 14.4677 58.3554 14.659 58.4862C15.0068 58.7239 16.7705 59.3491 17.759 59.5849C21.1537 60.3948 25.2422 59.9973 28.0253 58.587C28.3929 58.4008 28.7485 58.2483 28.8157 58.2483C28.9472 58.2483 30.6909 57.2181 30.7993 57.0763C30.8353 57.0292 31.0712 56.8489 31.3235 56.6757C31.5758 56.5024 31.8117 56.3255 31.8477 56.2825C31.8838 56.2395 32.1197 56.0602 32.372 55.8841C32.9653 55.4697 35.0974 53.3376 35.5121 52.7439C35.6884 52.4916 35.9286 52.1968 36.046 52.0886C36.9179 51.2854 39.6819 46.331 40.4321 44.2265C40.6122 43.7213 40.9148 42.8803 41.1046 42.3576C41.2942 41.835 41.5006 41.1864 41.5633 40.916C41.6258 40.6458 41.7397 40.174 41.8163 39.8675C41.8929 39.5611 42.0108 39.0305 42.0785 38.688C42.146 38.3456 42.2642 37.7558 42.341 37.3774C42.6755 35.7301 42.7552 34.3241 42.7552 30.071C42.7552 25.8057 42.6771 24.4366 42.3368 22.7318C42.0123 21.1069 41.9502 20.8086 41.8313 20.3072C41.6941 19.729 41.3462 18.5593 41.1296 17.9482C41.0529 17.7319 40.7908 16.9792 40.547 16.2752C39.7274 13.9077 37.0071 8.93864 36.046 8.05335C35.9286 7.94522 35.6884 7.65034 35.5121 7.39806C34.9635 6.61302 32.584 4.3173 31.7038 3.724C31.2424 3.41287 30.8335 3.11233 30.7951 3.05598C30.7369 2.9704 29.7508 2.39822 28.6368 1.80348C26.3834 0.600372 20.7213 -0.434984 19.7904 0.185835ZM20.5768 1.14189C20.5768 1.42025 20.1253 2.54435 19.4325 3.99056C19.07 4.74742 18.4198 6.13335 17.9876 7.07041C15.8849 11.629 16.3034 11.3666 14.8526 9.03628C14.4487 8.38754 13.7494 7.29151 13.2985 6.60071C12.2788 5.03824 11.8735 4.25333 12.0147 4.11375C12.2626 3.86828 15.0323 2.2695 15.3345 2.19729C15.5147 2.15417 15.8391 2.02889 16.0553 1.91867C16.2715 1.80845 16.6549 1.67202 16.9072 1.6154C17.1595 1.55879 17.6313 1.44504 17.9556 1.36247C18.28 1.28004 18.9287 1.16865 19.3973 1.11504C19.8658 1.06144 20.3229 1.00822 20.413 0.996817C20.5031 0.985546 20.5768 1.0508 20.5768 1.14189ZM24.574 1.25487C29.4858 2.52101 31.3418 3.9236 30.2864 5.57113C29.9197 6.14345 29.3249 7.08352 28.9645 7.66017C26.536 11.5459 27.0871 11.7127 24.6367 6.3496C24.2579 5.52066 23.8881 4.72449 23.8147 4.58032C23.7413 4.43616 23.6395 4.22974 23.5885 4.12162C23.5375 4.0135 23.2139 3.32859 22.8694 2.59952C22.0792 0.927357 22.3807 0.689486 24.574 1.25487ZM22.2681 3.23698C22.6526 4.04797 23.3801 5.59602 23.8848 6.67724C24.3896 7.75847 25.0903 9.24832 25.4419 9.98801C26.3635 11.9267 26.5319 11.7112 22.3303 13.9712L21.3971 14.4732L19.9713 13.6335C16.4815 11.5785 16.677 11.8397 17.427 10.2337C17.7345 9.57518 18.3403 8.26959 18.773 7.33253C19.2057 6.39547 19.8476 5.02356 20.1994 4.28388C20.5511 3.54419 20.8391 2.86597 20.8394 2.77672C20.8401 2.56008 21.3314 1.76259 21.4643 1.76259C21.522 1.76259 21.8837 2.42613 22.2681 3.23698ZM32.2996 5.25644C32.9237 5.68041 34.0289 6.77409 34.4642 7.39806C34.6402 7.65034 34.8782 7.94522 34.9931 8.05335C35.108 8.16147 35.3439 8.45635 35.5172 8.70863C35.6906 8.96092 35.8695 9.19682 35.9147 9.23286C36.2181 9.47414 37.3579 11.3764 37.2585 11.4758C37.1897 11.5446 35.1412 11.5806 32.4292 11.5608C26.9782 11.521 27.368 11.6675 28.4048 10.0479C28.7611 9.49157 29.3475 8.56447 29.7081 7.98782C31.1374 5.70217 31.654 4.91124 31.719 4.90966C31.7564 4.90875 32.0176 5.0647 32.2996 5.25644ZM12.0709 6.21854C14.3873 9.73547 15.353 11.3251 15.2621 11.4718C15.1649 11.6291 5.80687 11.631 5.70976 11.4738C5.64476 11.3686 6.59375 9.65906 6.80829 9.49498C6.85534 9.45894 7.03566 9.22303 7.20892 8.97075C7.38218 8.71846 7.55911 8.48256 7.60209 8.44652C7.64508 8.41048 7.82331 8.17457 7.99827 7.92229C9.85916 5.23849 11.087 4.72475 12.0709 6.21854ZM15.5404 12.5244C15.5901 12.6048 15.5097 13.0618 15.3619 13.5401C15.214 14.0183 15.0248 14.675 14.9413 14.9994C14.8578 15.3238 14.6793 15.9725 14.5445 16.441C14.4096 16.9096 14.2226 17.5797 14.1289 17.9302C13.9247 18.6936 13.6476 18.9913 12.5833 19.591C12.1402 19.8408 11.3328 20.3283 10.789 20.6746C9.64081 21.4059 9.56245 21.3849 9.05185 20.2088C8.64911 19.2814 8.04453 17.876 7.58622 16.8014C6.79306 14.9417 6.38182 13.9927 6.07986 13.3255C5.90792 12.9455 5.76729 12.5769 5.76729 12.5064C5.76729 12.3156 15.4224 12.3334 15.5404 12.5244ZM37.2211 12.5071C37.2211 12.578 37.0212 13.0646 36.7768 13.5883C36.5325 14.1121 36.1562 14.9535 35.9408 15.4581C35.4987 16.4933 34.914 17.8528 34.3483 19.1605C34.1378 19.6471 33.8965 20.2325 33.8121 20.4616C33.4278 21.5042 33.6466 21.5703 29.6846 19.2137C29.1131 18.8737 29.0068 18.7419 28.8588 18.1892C28.7654 17.8405 28.5788 17.1717 28.4439 16.7031C28.2134 15.9019 28.1016 15.4796 27.7849 14.213C27.7129 13.9247 27.5876 13.4592 27.5064 13.1786C27.4253 12.8979 27.3994 12.603 27.4487 12.5233C27.5665 12.3326 37.2211 12.3166 37.2211 12.5071ZM17.018 12.8857C17.2094 13.0206 17.6902 13.293 18.0867 13.491C18.4831 13.6891 19.1614 14.0629 19.5939 14.3217C20.0263 14.5804 20.3963 14.8008 20.4161 14.8114C20.5798 14.8998 20.1782 15.293 19.619 15.5918C19.2447 15.7918 18.6142 16.1456 18.2177 16.378C14.8168 18.3718 14.7899 18.3777 15.194 17.0401C15.2608 16.8187 15.442 16.1953 15.5966 15.6547C15.7512 15.1141 15.9324 14.4906 15.9992 14.2693C16.0662 14.0479 16.1208 13.7648 16.1208 13.6402C16.1208 13.3905 16.4769 12.6404 16.5954 12.6404C16.6366 12.6404 16.8267 12.7507 17.018 12.8857ZM26.6993 13.3675C27.1648 14.9845 27.3806 15.7581 27.5017 16.2444C27.5736 16.5328 27.7057 17.0196 27.7953 17.3263C28.0728 18.275 27.7406 18.1926 25.2949 16.7054C24.6101 16.289 23.6813 15.7634 23.2307 15.5375C22.1991 15.0201 22.1972 15.0298 23.4928 14.2804C24.0874 13.9365 24.9574 13.4272 25.4259 13.1486C26.4462 12.5419 26.4623 12.5447 26.6993 13.3675ZM5.29496 13.5905C5.59573 14.2554 6.00869 15.2086 6.79988 17.0635C7.29973 18.2355 7.96565 19.7767 8.28032 20.4898C8.57245 21.152 8.47415 21.3388 7.92423 21.1667C7.34601 20.9858 5.78302 20.5452 5.112 20.3739C4.78763 20.2911 4.16064 20.1096 3.71872 19.9704C3.27679 19.8313 2.78834 19.7175 2.6333 19.7175C2.12375 19.7175 2.54641 17.8154 3.61204 15.3126C4.71843 12.7145 4.84176 12.5883 5.29496 13.5905ZM38.7205 14.0892C39.0045 14.6259 39.4079 15.5367 39.6167 16.1134C40.9107 19.686 40.9173 19.7175 40.3551 19.7175C40.2 19.7175 39.7116 19.8313 39.2696 19.9704C38.5214 20.2059 38.12 20.315 36.8607 20.6247C36.2443 20.7763 35.1318 21.1059 34.8303 21.2262C34.374 21.4085 34.4183 20.8913 34.9582 19.7354C35.529 18.5133 36.1041 17.1936 36.5652 16.0478C37.8465 12.8632 37.9984 12.7251 38.7205 14.0892ZM23.2552 16.4591C24.1248 16.9738 25.1605 17.5859 25.557 17.8197C25.9534 18.0536 26.6436 18.4283 27.0906 18.6522C28.1031 19.1597 28.3341 19.4052 28.5468 20.2002C28.6397 20.5473 28.8259 21.2148 28.9608 21.6833C29.0956 22.1518 29.2741 22.8006 29.3576 23.125C29.4411 23.4493 29.618 24.0981 29.7508 24.5666C29.9775 25.3666 30.0677 25.7087 30.4153 27.0894C30.4923 27.3959 30.6693 28.008 30.8084 28.45C30.9475 28.8919 31.0614 29.6213 31.0614 30.071C31.0614 30.5207 30.9475 31.2501 30.8084 31.692C30.6693 32.134 30.4972 32.7315 30.426 33.0198C30.1906 33.9735 29.9952 34.7132 29.7508 35.5754C29.5163 36.4025 29.355 37.0173 29.106 38.0327C28.4325 40.7794 28.5731 40.619 25.0732 42.638C24.1499 43.1707 23.0076 43.8341 22.5348 44.1123C21.4775 44.7346 21.5118 44.7349 20.4208 44.0941C19.93 43.8058 19.1303 43.3424 18.6437 43.0643C14.9341 40.9439 14.4923 40.6233 14.3518 39.9498C14.2471 39.448 14.0554 38.7081 13.7618 37.6723C13.629 37.2038 13.4567 36.5699 13.379 36.2635C13.3011 35.957 13.174 35.4559 13.0961 35.1495C13.0184 34.8431 12.8461 34.2091 12.7133 33.7406C12.5806 33.2721 12.4042 32.6233 12.3213 32.299C12.2385 31.9746 12.0538 31.3386 11.911 30.8857C11.7097 30.2477 11.6801 29.9671 11.7795 29.6406C11.8502 29.4088 12.0253 28.8063 12.1687 28.3017C12.312 27.7971 12.5475 26.9715 12.6921 26.4669C12.8365 25.9623 13.023 25.2841 13.1065 24.9598C13.19 24.6354 13.3669 23.9867 13.4997 23.5181C13.6324 23.0496 13.8087 22.4009 13.8914 22.0765C13.9741 21.7521 14.0967 21.3056 14.1639 21.0842C14.231 20.8629 14.286 20.576 14.286 20.4468C14.286 19.9382 14.845 19.2159 15.5163 18.8573C15.8848 18.6605 16.5107 18.3098 16.9072 18.0781C17.3036 17.8463 18.3357 17.2426 19.2007 16.7364C21.2179 15.5557 21.2622 15.5324 21.4859 15.5276C21.5895 15.5255 22.3856 15.9446 23.2552 16.4591ZM13.4997 20.2651C13.4997 20.3501 13.4446 20.6008 13.3775 20.8221C13.3103 21.0435 13.1878 21.49 13.1051 21.8144C13.0224 22.1387 12.8415 22.8022 12.703 23.2888C12.5646 23.7754 12.3379 24.5714 12.1995 25.058C12.0609 25.5447 11.8799 26.2081 11.7971 26.5324C11.5189 27.6224 11.4688 27.7559 11.3202 27.8053C11.2387 27.8323 11.1391 27.6897 11.0988 27.4882C11.0586 27.2869 10.9631 26.8716 10.8867 26.5652C10.8101 26.2588 10.6885 25.7723 10.6164 25.484C10.5443 25.1957 10.4236 24.7092 10.3483 24.4028C10.2729 24.0963 10.1507 23.6099 10.0766 23.3215C9.76311 22.1002 9.61579 22.2871 11.9925 20.8903C13.3881 20.07 13.4997 20.0237 13.4997 20.2651ZM30.2487 20.4904C31.3839 21.0696 33.0905 22.2049 33.0642 22.3635C33.0486 22.458 32.9776 22.7711 32.9064 23.0594C32.8352 23.3477 32.7154 23.8342 32.6401 24.1406C32.5647 24.4471 32.4404 24.9482 32.3637 25.2546C32.2256 25.8072 32.0365 26.7294 31.8935 27.5481C31.8526 27.7823 31.7783 27.9741 31.7286 27.9741C31.5492 27.9741 31.3235 27.6543 31.3235 27.4002C31.3235 27.2576 31.2688 26.9597 31.2019 26.7383C30.9856 26.0221 30.5618 24.5165 30.4061 23.9113C30.2597 23.342 29.9416 22.2036 29.6137 21.0748C29.3708 20.2383 29.5077 20.1123 30.2487 20.4904ZM3.0713 20.6254C3.4439 20.7379 4.06236 20.9168 6.29152 21.5566C6.76005 21.691 7.42346 21.8758 7.76592 21.9673C8.10837 22.0588 8.38754 22.1651 8.38649 22.2034C8.38229 22.3495 8.17586 22.5589 7.73315 22.8666C7.48087 23.0419 6.83213 23.63 6.29152 24.1734C5.75091 24.7168 5.10217 25.3065 4.84989 25.4837C4.5976 25.6609 4.00784 26.1918 3.53931 26.6635C3.07078 27.1352 2.48102 27.666 2.22874 27.843C1.97645 28.0201 1.63467 28.299 1.46927 28.4627C1.30374 28.6265 1.10884 28.7604 1.0361 28.7604C0.869135 28.7604 0.965066 25.6175 1.16729 24.4683C1.35758 23.386 1.56309 22.1353 1.65693 21.4867C1.78733 20.5862 2.17002 20.3532 3.0713 20.6254ZM41.0423 20.7987C41.1951 21.0788 41.2515 21.3407 41.5566 23.1905C41.8717 25.101 41.9629 25.9035 42.0225 27.286C42.0575 28.097 42.0372 28.7604 41.9775 28.7604C41.7427 28.7604 40.7834 28.0091 39.9733 27.1907C39.5048 26.7175 38.915 26.1852 38.6627 26.0077C38.4104 25.8304 37.7027 25.1819 37.09 24.5666C36.4773 23.9513 35.7696 23.3044 35.5173 23.1289C35.0455 22.8006 34.5994 22.3585 34.6006 22.2203C34.6012 22.1452 36.0583 21.6783 37.1555 21.4017C37.7854 21.2428 39.3858 20.7886 39.8422 20.6391C40.4687 20.4338 40.8726 20.4876 41.0423 20.7987ZM9.32904 23.5286C9.37779 23.8472 9.48093 24.3585 9.55839 24.6649C9.63571 24.9713 9.76073 25.4725 9.83609 25.7789C9.91144 26.0853 10.0267 26.5423 10.0922 26.7946C10.1577 27.0468 10.2757 27.5187 10.3543 27.843C10.4329 28.1674 10.5606 28.6687 10.6379 28.957C10.8629 29.7963 10.8045 30.4985 10.3626 32.2662C10.2859 32.5726 10.1643 33.0591 10.0922 33.3474C10.0201 33.6358 9.90215 34.1076 9.83007 34.3959C9.75799 34.6842 9.63571 35.1707 9.55839 35.4771C9.48093 35.7835 9.37779 36.2948 9.32904 36.6134C9.2065 37.4133 9.06089 37.4026 8.17272 36.5281C7.74731 36.1092 7.19425 35.6214 6.94367 35.4442C6.69309 35.2669 6.04579 34.6771 5.50517 34.1338C4.96456 33.5904 4.31583 33.0009 4.06354 32.8238C3.81126 32.6468 3.28035 32.1762 2.88364 31.7779C2.48693 31.3797 1.94147 30.8888 1.67136 30.6868C1.05159 30.2235 1.05144 29.9187 1.67082 29.4552C1.94066 29.2532 2.54523 28.7034 3.01415 28.2333C3.48321 27.7633 4.07337 27.2336 4.32566 27.0562C4.57794 26.8788 5.28565 26.2304 5.89835 25.615C6.51104 24.9997 7.21875 24.3503 7.47104 24.1717C7.72332 23.9932 8.16001 23.6237 8.44139 23.3507C9.06313 22.7475 9.2141 22.7778 9.32904 23.5286ZM34.821 23.6192C35.2436 24.0351 35.7941 24.5206 36.0447 24.6978C36.2953 24.8751 36.9426 25.4649 37.4832 26.0082C38.0238 26.5516 38.6725 27.1411 38.9248 27.3181C39.4535 27.689 41.8081 30.0407 41.8081 30.1979C41.8081 30.2557 41.6489 30.4073 41.4541 30.5349C41.2595 30.6625 40.7139 31.1571 40.2418 31.634C39.7698 32.111 39.1771 32.6461 38.9248 32.8232C38.6725 33.0003 38.0828 33.531 37.6143 34.0027C37.1457 34.4744 36.5577 35.0049 36.3075 35.1819C36.0573 35.3586 35.4458 35.9055 34.9484 36.397C33.9613 37.3723 33.795 37.4172 33.6575 36.7442C33.6072 36.4978 33.5038 36.0456 33.4276 35.7392C33.3516 35.4328 33.2276 34.9317 33.1523 34.6252C33.0769 34.3188 32.9553 33.8323 32.882 33.544C32.8086 33.2557 32.6971 32.7544 32.6341 32.43C32.571 32.1057 32.449 31.5749 32.3628 31.2505C32.2767 30.9261 32.2062 30.3954 32.2062 30.071C32.2062 29.7466 32.2767 29.2158 32.3628 28.8915C32.449 28.5671 32.571 28.0363 32.6341 27.712C32.6971 27.3876 32.8086 26.8863 32.882 26.598C32.9553 26.3096 33.0797 25.8084 33.1583 25.484C33.2369 25.1596 33.355 24.6878 33.4205 24.4355C33.4861 24.1832 33.5766 23.7999 33.6217 23.5837C33.8165 22.6507 33.838 22.6513 34.821 23.6192ZM1.46927 31.6793C1.63467 31.843 1.97645 32.1219 2.22874 32.299C2.48102 32.476 3.07078 33.0068 3.53931 33.4785C4.00784 33.9502 4.5976 34.4811 4.84989 34.6583C5.10217 34.8355 5.75091 35.4252 6.29152 35.9686C6.83213 36.5119 7.48087 37.1001 7.73315 37.2753C8.17233 37.5806 8.3828 37.7932 8.38581 37.9344C8.38647 37.9705 7.93041 38.1368 7.3721 38.304C6.40988 38.5922 6.00712 38.701 4.78436 39.0028C4.49603 39.074 3.89853 39.2461 3.4566 39.3853C1.94433 39.8613 1.92706 39.8439 1.4255 37.3447C1.05579 35.5024 0.786447 31.3816 1.03572 31.3816C1.10872 31.3816 1.30374 31.5155 1.46927 31.6793ZM42.0225 32.856C41.9629 34.2385 41.8717 35.041 41.5566 36.9515C41.0675 39.9175 41.0996 39.8788 39.5318 39.3853C38.7708 39.1457 38.1326 38.9716 37.09 38.7192C36.1007 38.4796 34.6012 37.9956 34.6006 37.9156C34.5995 37.7751 35.2911 37.0931 35.7794 36.7531C36.0317 36.5774 36.5625 36.1065 36.959 35.7065C37.3554 35.3065 37.8862 34.8345 38.1385 34.6576C38.3908 34.4808 38.9805 33.9502 39.4491 33.4785C39.9176 33.0068 40.5073 32.476 40.7596 32.299C41.0119 32.1219 41.3537 31.843 41.5191 31.6793C42.0391 31.1647 42.0903 31.2841 42.0225 32.856ZM31.8935 32.5939C32.1003 33.7778 32.2285 34.3638 32.646 36.0341C32.7181 36.3224 32.8259 36.7648 32.8857 37.017C32.9454 37.2693 33.0352 37.5728 33.0852 37.6916C33.18 37.9171 33.1039 37.9711 30.7577 39.3382C29.558 40.0374 29.3437 39.9902 29.6078 39.0851C29.9238 38.0021 30.2559 36.8147 30.4061 36.2307C30.5618 35.6255 30.9856 34.1199 31.2019 33.4036C31.2688 33.1823 31.3235 32.8844 31.3235 32.7418C31.3235 32.4877 31.5492 32.1679 31.7286 32.1679C31.7783 32.1679 31.8526 32.3597 31.8935 32.5939ZM11.5568 32.7029C11.6055 32.8772 11.763 33.4326 11.9069 33.9372C12.0507 34.4418 12.2367 35.12 12.3202 35.4444C12.4036 35.7687 12.5806 36.4175 12.7133 36.886C12.8461 37.3545 13.0184 37.9884 13.0961 38.2948C13.174 38.6013 13.3061 39.088 13.3899 39.3767C13.6032 40.1126 13.5288 40.1192 12.3676 39.4668C9.62956 37.9285 9.72681 38.0164 9.94161 37.275C10.0244 36.9889 10.1512 36.519 10.2232 36.2307C10.2953 35.9424 10.4181 35.4559 10.4962 35.1495C10.5742 34.8431 10.6961 34.3566 10.7671 34.0682C10.8382 33.7799 10.9513 33.3629 11.0185 33.1415C11.0856 32.9202 11.1406 32.6351 11.1406 32.5081C11.1406 32.1794 11.4513 32.3247 11.5568 32.7029ZM8.44872 38.9744C8.49026 39.0418 8.41229 39.3513 8.27533 39.6624C8.13838 39.9734 7.84231 40.6555 7.61755 41.1781C7.39278 41.7008 7.0249 42.5558 6.79988 43.0784C6.57498 43.6011 6.21432 44.4414 5.99846 44.946C4.83979 47.6552 4.89194 47.6147 4.27296 46.2894C2.70053 42.9226 2.00213 40.4245 2.6333 40.4245C2.78834 40.4245 3.27679 40.3107 3.71872 40.1716C4.16064 40.0324 4.78763 39.8509 5.112 39.7681C5.81696 39.5881 7.40564 39.1373 7.86421 38.9871C8.32225 38.837 8.36327 38.8361 8.44872 38.9744ZM33.5365 39.1902C33.6829 39.3765 33.8377 39.6565 33.8804 39.8128C33.9787 40.1721 34.3585 41.0982 34.9915 42.5215C35.264 43.1341 35.6772 44.0778 35.9097 44.6184C36.1423 45.159 36.5325 46.0299 36.7768 46.5537C37.0212 47.0774 37.2211 47.564 37.2211 47.6349C37.2211 47.8254 27.5665 47.8094 27.4487 47.6187C27.3994 47.539 27.4253 47.2441 27.5064 46.9634C27.5876 46.6828 27.7175 46.2026 27.7953 45.8962C27.873 45.5898 28.0454 44.9558 28.1781 44.4873C28.3109 44.0188 28.4799 43.3995 28.5539 43.1112C29.0224 41.2811 28.9916 41.3405 29.6846 40.9279C30.0454 40.7131 30.9598 40.1642 31.7167 39.7083C33.3432 38.7282 33.2042 38.7678 33.5365 39.1902ZM35.7139 39.2018C36.3336 39.3859 36.7088 39.4849 37.9419 39.7892C38.2302 39.8603 38.8277 40.0324 39.2696 40.1716C39.7116 40.3107 40.1946 40.4245 40.3431 40.4245C40.7033 40.4245 40.7747 40.5724 40.6346 41.0278C40.5704 41.2367 40.3929 41.8203 40.2403 42.3249C39.9357 43.3318 39.6764 43.9879 38.9197 45.6668C38.6437 46.2795 38.3863 46.884 38.3478 47.0102C38.1756 47.5746 37.8546 47.0622 36.7271 44.4218C35.8282 42.3166 35.4594 41.4795 34.9582 40.4066C34.4183 39.2507 34.374 38.7335 34.8303 38.9158C34.9559 38.9659 35.3535 39.0946 35.7139 39.2018ZM10.8827 39.554C11.421 39.8681 12.3481 40.4072 12.9427 40.7522C13.7377 41.2132 14.0239 41.4499 14.0239 41.6463C14.0239 41.793 14.0786 42.0942 14.1455 42.3156C14.3766 43.0807 14.7901 44.5548 14.9202 45.0771C15.2224 46.2905 15.3573 46.8022 15.4695 47.1605C15.5349 47.3693 15.5573 47.5904 15.5191 47.652C15.4208 47.8111 5.76729 47.7964 5.76729 47.6371C5.76729 47.4997 5.92732 47.1099 6.68418 45.4047C7.23908 44.1542 8.09879 42.1608 8.97308 40.0969C9.52457 38.7952 9.56337 38.7842 10.8827 39.554ZM15.9819 42.5039C16.4548 42.7826 17.3014 43.2691 17.8634 43.5851C20.7986 45.2356 20.7491 45.1617 19.4256 45.9137C18.8694 46.2297 18.0088 46.7275 17.5133 47.0199C16.5259 47.6025 16.3455 47.5615 16.1742 46.7153C16.0504 46.104 15.7085 44.8441 15.1476 42.9323C14.8148 41.7983 14.7987 41.8067 15.9819 42.5039ZM27.916 42.2828C27.916 42.3677 27.861 42.6184 27.7939 42.8398C27.7266 43.0611 27.6041 43.5077 27.5214 43.832C27.4387 44.1564 27.2624 44.8051 27.1297 45.2737C26.9969 45.7422 26.8143 46.3909 26.724 46.7153C26.4826 47.5824 26.4436 47.5909 25.4329 46.9967C24.9245 46.6977 24.081 46.206 23.5583 45.9038C23.0357 45.6017 22.5921 45.3447 22.5723 45.3328C22.4137 45.2371 22.8071 44.8506 23.3694 44.55C23.7437 44.3497 24.6101 43.8484 25.2949 43.4358C27.3912 42.1726 27.916 41.9418 27.916 42.2828ZM22.215 46.1251C22.6475 46.3755 23.4437 46.8115 23.9843 47.0939C26.3504 48.3304 26.3324 48.2858 25.3103 50.4164C24.8863 51.3001 24.1858 52.7898 23.7535 53.7269C21.5773 58.444 21.4718 58.6271 21.2271 58.1094C21.1779 58.0056 20.7685 57.1245 20.317 56.1514C19.8657 55.1783 19.0972 53.527 18.6091 52.4818C16.5739 48.1225 16.6444 48.5234 17.7885 47.8156C21.646 45.4292 21.2644 45.575 22.215 46.1251ZM15.2621 48.6701C15.3336 48.7857 14.7291 49.8325 13.4774 51.761C12.3085 53.5619 11.4202 54.9853 11.3684 55.1404C11.2493 55.498 9.62077 54.1071 8.25738 52.483C8.0051 52.1825 7.73774 51.8677 7.6633 51.7833C7.58886 51.699 7.38531 51.4235 7.21087 51.1712C7.03657 50.919 6.85534 50.6831 6.80829 50.647C6.59375 50.4829 5.64476 48.7734 5.70976 48.6682C5.80687 48.511 15.1649 48.5129 15.2621 48.6701ZM37.2848 48.6783C37.3511 48.7855 36.173 50.7038 35.9147 50.9091C35.8695 50.9452 35.6906 51.1811 35.5172 51.4334C35.3439 51.6856 35.108 51.9805 34.9931 52.0886C34.8782 52.1968 34.6402 52.4916 34.4642 52.7439C33.6973 53.8434 31.7994 55.4403 31.6083 55.147C31.2758 54.6367 30.2583 53.0328 29.7095 52.1542C29.3494 51.5775 28.8082 50.7224 28.5069 50.2538C27.7611 49.0944 27.6285 48.8283 27.7211 48.6784C27.8287 48.5044 37.1772 48.5041 37.2848 48.6783ZM16.7279 50.3521C16.9886 50.9107 17.5554 52.1345 17.9876 53.0716C18.4198 54.0086 19.0612 55.3805 19.413 56.1202C19.7648 56.8599 20.0526 57.5291 20.0526 57.6072C20.0526 57.6853 20.1744 57.9203 20.3234 58.1296C20.6724 58.6198 20.6282 59.2509 20.2491 59.1874C20.105 59.1631 19.6627 59.0939 19.2662 59.0335C17.9572 58.8339 17.046 58.5612 15.0068 57.7583C14.4253 57.5294 12.2994 56.2978 12.0147 56.0248C11.8865 55.902 12.2625 55.1317 13.0361 53.9322C13.3413 53.4588 14.0409 52.3639 14.5906 51.4989C16.2571 48.8766 16.0831 48.97 16.7279 50.3521ZM27.4451 50.0649C27.7112 50.4655 28.2872 51.3944 28.725 52.129C29.163 52.8637 29.5695 53.4955 29.6284 53.5333C29.7323 53.5999 30.9303 55.7036 30.9303 55.8196C30.9303 56.2324 27.7015 57.967 25.9501 58.4951C25.4095 58.6582 24.7861 58.8462 24.5647 58.9131C24.3434 58.98 23.8825 59.0347 23.5404 59.0347C23.1985 59.0347 22.7982 59.0992 22.651 59.1779C22.0901 59.4781 22.1246 59.0887 22.7809 57.7094C23.1371 56.9606 23.7965 55.5518 24.2461 54.5787C26.9004 48.834 26.7597 49.0325 27.4451 50.0649Z" fill="black"/>
</svg>
