<?xml version="1.0" standalone="no"?>
<!DOCTYPE svg PUBLIC "-//W3C//DTD SVG 20010904//EN"
 "http://www.w3.org/TR/2001/REC-SVG-20010904/DTD/svg10.dtd">
<svg version="1.0" xmlns="http://www.w3.org/2000/svg"
 width="250.000000pt" height="250.000000pt" viewBox="0 0 250.000000 250.000000"
 preserveAspectRatio="xMidYMid meet">

<g transform="translate(0.000000,250.000000) scale(0.100000,-0.100000)"
fill="#000000" stroke="none">
<path d="M1157 2070 c-239 -253 -413 -553 -488 -840 -25 -93 -36 -328 -20
-415 27 -149 171 -336 311 -404 172 -83 393 -79 562 11 110 59 224 192 271
318 40 105 38 338 -3 501 -73 283 -231 553 -503 853 l-53 58 -77 -82z m11
-124 c-24 -80 -46 -146 -49 -146 -3 0 -25 23 -48 50 l-43 51 48 57 c61 74 127
143 131 138 2 -2 -16 -69 -39 -150z m116 -9 l46 -159 -47 -59 -48 -60 -47 53
c-26 29 -48 61 -48 71 0 11 18 80 40 155 46 158 49 166 54 161 2 -2 25 -75 50
-162z m20 116 c58 -63 126 -146 126 -154 0 -8 -84 -109 -87 -105 -2 2 -25 78
-77 254 -8 28 -13 52 -11 52 2 0 24 -21 49 -47z m-236 -222 c31 -37 38 -51 29
-59 -28 -23 -247 -151 -247 -144 0 19 157 252 170 252 4 0 25 -22 48 -49z
m420 -4 c48 -64 133 -200 128 -204 -8 -8 -251 149 -250 162 2 16 64 93 76 94
4 1 25 -23 46 -52z m-429 -253 c-51 -175 -54 -181 -107 -242 -30 -35 -58 -60
-62 -55 -4 4 -17 67 -29 138 -12 72 -25 140 -27 151 -5 19 13 33 133 107 75
47 139 84 141 83 1 -2 -21 -84 -49 -182z m121 126 c41 -49 41 -50 23 -73 -57
-72 -158 -186 -161 -182 -7 6 81 305 89 305 4 0 26 -22 49 -50z m189 -56 c56
-190 60 -204 57 -204 -8 0 -176 199 -176 208 0 11 81 104 86 99 2 -2 17 -48
33 -103z m125 31 c69 -42 128 -80 131 -86 8 -12 -45 -319 -55 -319 -3 0 -31
29 -60 65 -51 62 -57 75 -102 228 -46 156 -53 187 -44 187 3 0 61 -34 130 -75z
m-153 -165 l103 -120 43 -147 42 -146 -68 -159 -68 -159 -79 -46 -79 -45 -63
34 c-34 18 -73 42 -87 53 -14 12 -48 79 -86 169 l-62 150 17 68 c53 205 59
217 169 347 56 66 105 121 109 121 4 0 53 -54 109 -120z m-491 -112 c26 -145
27 -154 11 -173 -35 -40 -195 -230 -198 -234 -24 -35 6 188 42 313 27 93 102
263 111 253 4 -3 19 -75 34 -159z m854 54 c52 -123 91 -273 101 -388 7 -79 7
-79 -13 -59 -53 55 -202 237 -202 248 0 6 11 75 25 151 14 77 25 144 25 148 0
4 4 8 9 8 5 0 30 -49 55 -108z m-140 -237 c-9 -42 -24 -79 -29 -73 -3 3 -17
44 -30 91 -14 47 -28 94 -31 104 -3 10 17 -7 45 -37 44 -48 50 -59 45 -85z
m-600 34 c-33 -111 -34 -113 -39 -107 -3 2 -11 25 -19 50 l-14 46 45 52 c25
28 47 49 49 47 2 -2 -8 -41 -22 -88z m-61 -98 c16 -55 16 -56 -20 -175 -19
-67 -37 -123 -39 -125 -2 -2 -44 22 -94 54 l-90 57 22 28 c94 116 194 228 199
222 4 -4 14 -32 22 -61z m791 -55 c58 -68 106 -128 106 -133 -1 -13 -174 -114
-181 -105 -10 10 -69 216 -69 239 0 20 28 123 34 123 2 0 51 -56 110 -124z
m-703 -168 c31 -73 55 -134 54 -136 -2 -3 -177 39 -183 43 -5 4 61 225 67 225
4 0 31 -60 62 -132z m583 17 c14 -49 26 -94 26 -100 0 -11 -169 -59 -178 -51
-2 3 12 45 33 93 21 48 47 108 57 133 23 54 26 51 62 -75z m-829 -55 c43 -27
82 -53 87 -58 10 -10 -54 -227 -67 -226 -15 2 -74 113 -89 169 -19 65 -30 165
-19 165 5 0 44 -22 88 -50z m1065 18 c0 -53 -27 -163 -51 -209 -27 -55 -60
-102 -66 -96 -2 3 -19 55 -38 116 l-33 110 87 55 c47 30 89 55 94 55 4 1 7
-14 7 -31z m-886 -104 c33 -8 77 -19 97 -25 l37 -9 12 -81 c6 -45 10 -82 8
-84 -8 -8 -288 -17 -288 -9 0 15 63 224 68 224 2 0 32 -7 66 -16z m711 -71
c15 -49 30 -101 36 -117 l9 -29 -148 8 c-81 4 -148 8 -149 9 -5 5 20 152 28
160 8 8 160 54 186 55 7 1 24 -37 38 -86z m-257 -50 l-10 -72 -30 15 c-17 9
-44 24 -60 34 l-30 18 69 40 c37 22 69 39 70 38 1 -1 -3 -34 -9 -73z m-233 36
c30 -17 57 -34 59 -38 3 -4 -19 -21 -49 -39 -30 -17 -57 -27 -59 -24 -8 13
-19 132 -12 132 3 0 31 -14 61 -31z m149 -86 c33 -20 63 -38 64 -39 5 -3 -121
-214 -128 -214 -3 0 -33 49 -67 108 l-62 107 62 36 c34 21 64 38 66 38 2 1 31
-16 65 -36z m-224 -48 c0 -10 -100 -155 -107 -155 -15 0 -101 62 -137 98 l-38
40 83 6 c91 7 154 12 182 14 9 1 17 0 17 -3z m524 -11 l78 -6 -38 -40 c-41
-42 -116 -98 -132 -98 -8 0 -29 29 -97 133 l-18 28 64 -5 c35 -3 99 -8 143
-12z m-114 -158 c0 -8 -131 -44 -182 -50 -27 -3 -48 -3 -48 1 0 4 28 53 61
110 l62 104 53 -80 c30 -44 54 -83 54 -85z m-326 60 c31 -52 56 -99 56 -105 0
-7 -15 -9 -42 -5 -94 13 -178 40 -178 55 0 13 92 149 100 149 4 0 33 -42 64
-94z"/>
</g>
</svg>
