<svg width="38" height="60" viewBox="0 0 38 60" fill="none" xmlns="http://www.w3.org/2000/svg">
<path fill-rule="evenodd" clip-rule="evenodd" d="M18.4408 0.262646C18.2772 0.407044 18.016 0.709031 17.8604 0.93374C17.7047 1.15845 17.3379 1.57868 17.0455 1.86759C16.7531 2.15651 16.386 2.57674 16.2297 2.80145C16.0734 3.02616 15.8103 3.34133 15.6447 3.50184C15.4792 3.66234 15.217 3.97752 15.0621 4.20223C14.9071 4.42694 14.6965 4.68958 14.5941 4.78589C14.4918 4.88219 14.2816 5.14484 14.1272 5.36955C13.9728 5.59426 13.7615 5.8569 13.6576 5.95321C13.5537 6.04951 13.2399 6.46974 12.9603 6.88706C12.6809 7.30438 12.4174 7.67208 12.3752 7.70418C12.3328 7.73628 11.9656 8.26158 11.5591 8.8715C11.1527 9.48142 10.7849 10.0067 10.742 10.0388C9.99187 10.5998 4.65278 20.1052 3.80788 22.3839C3.65193 22.8044 3.43726 23.3466 2.90683 24.6595C2.5362 25.5769 1.62045 28.2454 1.50476 28.7451C1.39013 29.2405 1.21552 29.954 1.04066 30.642C0.975289 30.8988 0.872672 31.3584 0.812439 31.6634C0.752322 31.9684 0.647509 32.4937 0.579688 32.8307C-0.0901192 36.1587 -0.192166 40.9351 0.339897 44.0661C0.722777 46.3189 0.834268 46.7282 1.68548 49.0036C2.08902 50.0827 3.57676 52.6852 3.96782 52.9961C4.00809 53.0282 4.16953 53.2383 4.3263 53.463C4.69424 53.9902 6.12922 55.4252 6.65638 55.7931C6.88109 55.9499 7.0912 56.1113 7.12331 56.1516C7.15541 56.192 7.57645 56.4899 8.0589 56.8136C10.3882 58.376 13.5043 59.5117 16.0533 59.7271C16.4385 59.7595 16.8035 59.8344 16.8646 59.8931C16.9255 59.9519 17.8475 60 18.9132 60C19.979 60 20.9009 59.9519 20.9619 59.8931C21.0229 59.8344 21.3879 59.7595 21.7731 59.7271C22.9377 59.6287 24.2219 59.3414 25.3918 58.9177C26.9601 58.3495 27.218 58.2434 28.0531 57.823C28.945 57.3738 30.5272 56.351 30.8199 56.0344C30.9162 55.9302 31.1788 55.7168 31.4035 55.56C31.9226 55.1979 32.8956 54.2273 33.2713 53.6965C33.4303 53.4718 33.6924 53.1481 33.8536 52.9771C34.1731 52.6383 35.3724 50.705 35.3724 50.5287C35.3724 50.4689 35.4643 50.2795 35.5766 50.1082C35.8024 49.7636 35.9056 49.508 36.5083 47.8015C37.0184 46.3576 37.2173 45.5337 37.4948 43.7159C37.6587 42.6423 37.6568 35.7837 37.4922 34.7276C37.1006 32.2126 36.9852 31.6253 36.5344 29.854C36.4731 29.6133 36.3775 29.2194 36.3217 28.9785C36.2294 28.5799 35.3037 25.8324 34.6797 24.105C34.3056 23.0696 33.8341 22.0171 32.6662 19.6108C31.6147 17.444 31.4661 17.1702 29.879 14.4746C29.0643 13.0908 26.5527 9.22963 26.3862 9.10496C26.3432 9.07286 26.0796 8.70516 25.8004 8.28784C25.5212 7.87052 25.2599 7.50282 25.2199 7.47072C25.1799 7.43862 25.0209 7.2285 24.8665 7.00379C24.7122 6.77908 24.5546 6.56897 24.5163 6.53686C24.4781 6.50476 24.3205 6.29465 24.1661 6.06994C24.0118 5.84523 23.8542 5.63511 23.8159 5.60301C23.7777 5.57091 23.6201 5.36079 23.4656 5.13608C23.3113 4.91137 23.1012 4.64873 22.9988 4.55242C22.8965 4.45612 22.6859 4.19347 22.5308 3.96877C22.3759 3.74406 22.1138 3.42888 21.9482 3.26838C21.7827 3.10787 21.5194 2.79269 21.363 2.56798C21.0578 2.12954 18.9454 -0.000233444 18.816 1.91925e-08C18.7731 0.000116751 18.6043 0.118249 18.4408 0.262646ZM18.0395 2.18861C17.9946 2.30102 17.8801 2.65553 17.785 2.97655C17.6899 3.29756 17.4623 4.05923 17.2795 4.66916C17.0966 5.27908 16.8863 6.01449 16.812 6.3034C16.7378 6.59231 16.527 7.32772 16.3437 7.93765C16.1603 8.54757 15.8887 9.45342 15.74 9.9507C15.5913 10.448 15.4345 10.855 15.3917 10.8554C15.2639 10.8563 14.4334 10.012 14.1289 9.57189C13.9736 9.34718 13.7622 9.08453 13.6593 8.98823C13.1302 8.49317 12.9728 8.06127 13.2264 7.80002C13.3088 7.71528 13.5032 7.46196 13.6585 7.23725C13.8138 7.01255 13.9722 6.80243 14.0105 6.77033C14.0488 6.73823 14.2064 6.52811 14.3608 6.3034C14.5151 6.07869 14.7252 5.81605 14.8276 5.71974C14.93 5.62344 15.1401 5.36079 15.2944 5.13608C15.4489 4.91137 15.6064 4.70126 15.6447 4.66916C15.683 4.63705 15.8414 4.42694 15.9968 4.20223C16.1522 3.97752 16.4665 3.60982 16.6953 3.38511C16.9241 3.1604 17.2384 2.79269 17.3938 2.56798C17.7934 1.98993 18.2185 1.74012 18.0395 2.18861ZM19.1372 2.59717C19.2167 2.87009 19.387 3.46098 19.5158 3.9104C19.6444 4.35982 19.8985 5.22655 20.0805 5.83647C20.3973 6.89838 20.6307 7.70231 21.1225 9.42597C21.474 10.6578 21.6871 11.3655 21.7653 11.5604C21.8049 11.6589 21.7426 11.8428 21.6269 11.969C21.5112 12.0952 21.2887 12.3822 21.1324 12.6069C20.9762 12.8316 20.713 13.1468 20.5475 13.3073C20.3819 13.4678 20.1196 13.783 19.9645 14.0077C19.2527 15.0383 18.7909 15.3049 18.4986 14.854C18.3842 14.6775 18.2049 14.4542 18.1002 14.3579C17.9956 14.2616 17.7831 13.9989 17.6281 13.7742C17.4732 13.5495 17.2102 13.2343 17.0438 13.0738C16.3853 12.4388 15.9961 11.7284 16.1085 11.3669C16.2065 11.0516 16.3839 10.4354 16.9191 8.55049C17.406 6.83558 17.8563 5.30102 18.4548 3.31845C18.5143 3.12129 18.563 2.86834 18.563 2.75628C18.563 2.06021 18.9495 1.95316 19.1372 2.59717ZM20.2629 2.42207C20.3778 2.59857 20.6092 2.87441 20.777 3.03491C20.9446 3.19542 21.2091 3.51059 21.3646 3.7353C21.5201 3.96001 21.7827 4.27519 21.9482 4.43569C22.1138 4.5962 22.3759 4.91137 22.5308 5.13608C22.6859 5.36079 22.8965 5.62344 22.9988 5.71974C23.1012 5.81605 23.3113 6.07869 23.4656 6.3034C23.6201 6.52811 23.7777 6.73823 23.8159 6.77033C23.8542 6.80243 24.0126 7.01255 24.1679 7.23725C24.3233 7.46196 24.5176 7.71528 24.6 7.80002C24.821 8.02765 24.5129 8.6866 23.9355 9.22169C23.8316 9.318 23.6197 9.58064 23.4647 9.80535C23.1517 10.2592 22.5565 10.8559 22.417 10.8559C22.3206 10.8559 22.154 10.4687 21.9649 9.80535C21.9009 9.58064 21.744 9.02909 21.6163 8.57967C21.4886 8.13025 21.2746 7.38177 21.1408 6.91624C21.0071 6.45072 20.7886 5.68916 20.6553 5.22363C20.5221 4.75811 20.263 3.90703 20.0795 3.33224C19.896 2.75757 19.7717 2.24535 19.8033 2.19411C19.9075 2.02555 20.0508 2.09651 20.2629 2.42207ZM12.7308 9.02115C12.8294 9.09936 13.0371 9.34718 13.1921 9.57189C13.3472 9.7966 13.5579 10.0592 13.6603 10.1555C13.7627 10.2519 13.9742 10.5145 14.1302 10.7392C14.2863 10.9639 14.5333 11.2683 14.6791 11.4157C15.0647 11.8053 15.0467 11.8319 13.8646 12.6232C13.2706 13.0207 12.7585 13.3816 12.7264 13.425C12.6943 13.4683 11.8539 14.0458 10.8587 14.7081C9.86358 15.3704 9.02312 15.9478 8.99101 15.9912C8.86856 16.1565 7.64486 16.926 7.50419 16.926C7.30353 16.926 7.30984 16.9037 7.69109 16.2625C7.87506 15.9533 8.41121 15.0437 8.88269 14.2412C9.75981 12.7483 11.7119 9.75377 11.9897 9.47525C12.0747 9.39004 12.1983 9.21926 12.2644 9.09587C12.403 8.83696 12.4824 8.82422 12.7308 9.02115ZM25.5296 9.19251C25.7648 9.39983 27.2476 11.5731 28.098 12.9571C28.3545 13.3744 28.8411 14.1624 29.1795 14.7081C30.3843 16.6511 30.7035 17.5458 29.9371 16.8319C29.8127 16.7159 29.2119 16.287 28.6019 15.8787C27.992 15.4704 27.4667 15.101 27.4346 15.0577C27.4025 15.0145 26.7197 14.542 25.9171 14.0077C25.1146 13.4734 24.4317 13.0013 24.3996 12.9587C24.3675 12.9161 24.013 12.6599 23.6117 12.3896C23.2105 12.1191 22.8821 11.8595 22.8821 11.8126C22.8821 11.6698 23.4905 10.816 23.8133 10.5057C23.9802 10.3452 24.2437 10.0301 24.3986 9.80535C24.697 9.37263 25.0819 8.98823 25.2167 8.98823C25.2613 8.98823 25.4021 9.0801 25.5296 9.19251ZM14.8276 13.2008C14.8276 13.3348 14.6741 13.9257 14.4864 14.5141C14.1607 15.5345 13.8998 16.4161 13.4268 18.0933C12.0757 22.8846 11.7554 23.9195 11.5559 24.1408C11.4579 24.2495 11.2502 24.5223 11.0945 24.747C10.9388 24.9717 10.7276 25.2344 10.6253 25.3307C10.5229 25.427 10.3123 25.6896 10.1573 25.9143C10.0024 26.139 9.7402 26.4542 9.57467 26.6147C9.40915 26.7752 9.14487 27.0904 8.98739 27.3151C8.03311 28.6762 7.72003 28.7272 7.56512 27.5468C7.5147 27.1626 7.41911 26.5199 7.35269 26.1186C7.00775 24.0357 6.67891 21.5351 6.4814 19.4941C6.41264 18.7827 6.47451 18.6591 7.12331 18.2113C7.34801 18.0563 7.55813 17.8958 7.59023 17.8547C7.62233 17.8136 8.4628 17.2381 9.45794 16.5758C10.4531 15.9135 11.2935 15.3366 11.3256 15.2937C11.3577 15.2509 11.7255 14.9863 12.1428 14.7058C12.5601 14.4251 12.9726 14.1254 13.0596 14.0394C13.1465 13.9535 13.4092 13.7851 13.6432 13.6651C13.8773 13.545 14.195 13.3366 14.3494 13.202C14.7035 12.8929 14.8276 12.8925 14.8276 13.2008ZM16.1868 13.1614C16.3121 13.2738 16.5409 13.5495 16.6953 13.7742C16.8497 13.9989 17.0599 14.2616 17.1622 14.3579C17.2646 14.4542 17.4747 14.7168 17.629 14.9416C17.7835 15.1663 17.9385 15.3764 17.9737 15.4085C18.4081 15.8047 18.1861 16.403 17.2807 17.2762C17.1142 17.4367 16.8508 17.7519 16.6953 17.9766C16.5398 18.2013 16.2772 18.5165 16.1117 18.677C15.9461 18.8375 15.684 19.1526 15.529 19.3774C15.374 19.6021 15.1634 19.8647 15.0611 19.961C14.9587 20.0573 14.7469 20.32 14.5905 20.5447C14.4341 20.7694 14.1478 21.1157 13.9541 21.3143C13.7603 21.5128 13.4899 21.828 13.3528 22.0147C13.056 22.4193 12.9223 22.3551 13.0709 21.8794C13.1297 21.691 13.2908 21.1429 13.4288 20.6614C13.5668 20.1799 13.8285 19.2869 14.0105 18.677C14.4696 17.138 14.8985 15.6494 15.4231 13.7742C15.6593 12.9299 15.8016 12.8157 16.1868 13.1614ZM22.1584 13.0972C22.2354 13.1742 22.2984 13.338 22.2984 13.4613C22.2984 13.5844 22.3995 14.0073 22.5231 14.401C22.6468 14.7946 22.8526 15.4844 22.9804 15.9338C23.9598 19.3769 24.1641 20.0743 24.5183 21.1838C24.7023 21.76 24.8372 22.2472 24.8181 22.2664C24.7215 22.3628 24.4222 22.1321 24.237 21.8185C24.1222 21.6242 23.8616 21.2976 23.6576 21.0925C23.4536 20.8875 23.1589 20.5359 23.0024 20.3112C22.846 20.0865 22.6343 19.8239 22.5319 19.7276C22.4295 19.6312 22.2189 19.3686 22.0639 19.1439C21.909 18.9192 21.6468 18.604 21.4813 18.4435C21.3158 18.283 21.0521 17.9678 20.8951 17.7431C20.7381 17.5184 20.439 17.1629 20.2304 16.9533C19.3446 16.063 19.3652 15.6645 20.3477 14.679C20.6198 14.4061 20.9706 13.9989 21.1272 13.7742C21.644 13.0324 21.9154 12.8543 22.1584 13.0972ZM24.491 13.91C25.1791 14.3699 25.7683 14.7816 25.8004 14.825C25.8325 14.8685 26.5154 15.3411 27.3179 15.8754C28.1204 16.4097 28.8033 16.8822 28.8354 16.9254C28.8675 16.9687 29.3928 17.3373 30.0027 17.7447C31.3467 18.6423 31.4269 18.7333 31.3399 19.2606C31.3028 19.4853 31.225 20.1157 31.167 20.6614C31.1091 21.2071 31.0058 22.0476 30.9375 22.5291C30.8692 23.0106 30.7657 23.7986 30.7076 24.2801C30.6494 24.7616 30.5429 25.4445 30.4707 25.7976C30.3987 26.1507 30.2947 26.7811 30.2397 27.1984C30.0403 28.7108 29.9514 28.8371 29.5202 28.2198C29.3744 28.0112 29.1713 27.7616 29.0689 27.6653C28.9665 27.569 28.7559 27.3064 28.6009 27.0817C28.446 26.8569 28.1838 26.5418 28.0183 26.3813C27.8528 26.2208 27.5891 25.9056 27.4321 25.6809C27.2751 25.4562 26.9751 25.0998 26.7653 24.8891C26.3587 24.4803 25.8004 23.4806 25.8004 23.1612C25.8004 23.0551 25.6993 22.6462 25.5757 22.2526C25.4521 21.859 25.2463 21.1692 25.1184 20.7198C24.7301 19.3544 24.4318 18.3123 24.1661 17.3929C24.027 16.9114 23.8126 16.1629 23.6895 15.7295C23.5664 15.2961 23.3538 14.5799 23.2171 14.1379C23.0008 13.439 22.9897 13.0738 23.1847 13.0738C23.2151 13.0738 23.803 13.4501 24.491 13.91ZM19.3431 17.0135C19.529 17.19 19.8078 17.5184 19.9627 17.7431C20.1178 17.9678 20.3284 18.2305 20.4307 18.3268C20.5331 18.4231 20.7437 18.6857 20.8987 18.9104C21.0536 19.1351 21.3158 19.4503 21.4813 19.6108C21.6468 19.7713 21.909 20.0865 22.0639 20.3112C22.2189 20.5359 22.4295 20.7986 22.5319 20.8949C22.6343 20.9912 22.8452 21.2538 23.0006 21.4785C23.1559 21.7032 23.4704 22.0709 23.6992 22.2957C23.928 22.5204 24.2425 22.8881 24.3979 23.1128C24.5532 23.3375 24.7677 23.6001 24.8742 23.6964C25.1656 23.9597 25.566 24.6596 25.5665 24.9068C25.5667 25.0268 25.668 25.447 25.7916 25.8407C25.9153 26.2343 26.1298 26.9503 26.2683 27.4318C26.4068 27.9134 26.669 28.8064 26.851 29.4163C27.1666 30.4742 27.3682 31.1688 27.91 33.0642C28.043 33.5297 28.2477 34.215 28.3648 34.5873C28.5104 35.0508 28.5469 35.3633 28.4802 35.5795C28.4266 35.753 28.323 36.1313 28.2498 36.4202C28.1766 36.7091 28.0198 37.2869 27.9016 37.7042C27.7833 38.1216 27.6254 38.6994 27.5507 38.9883C27.2658 40.0906 26.1125 43.5433 25.9533 43.7706C25.8616 43.9015 24.726 44.5523 23.4297 45.2167C22.1334 45.8812 20.5887 46.6821 19.9969 46.9964L18.921 47.5681L17.0203 46.5991C13.7318 44.9227 11.8983 43.9207 11.7554 43.7219C11.6233 43.5379 10.845 41.1673 10.3928 39.5719C10.2746 39.1546 10.0725 38.4455 9.94379 37.9961C9.81515 37.5466 9.64961 36.9426 9.57595 36.6537C9.5023 36.3647 9.38976 35.9576 9.32579 35.749C9.24863 35.4977 9.24841 35.2416 9.32522 34.9902C9.38896 34.7815 9.54992 34.2301 9.683 33.7645C9.81595 33.299 10.0344 32.5375 10.168 32.0719C10.3018 31.6064 10.5119 30.8711 10.6349 30.4377C10.7581 30.0043 10.9682 29.269 11.1019 28.8034C11.2356 28.3379 11.4502 27.5894 11.5786 27.14C12.267 24.7307 12.4509 24.2265 12.7568 23.9118C12.8406 23.8254 13.0372 23.5709 13.1935 23.3462C13.3498 23.1215 13.665 22.7538 13.8937 22.5291C14.1225 22.3044 14.437 21.9367 14.5924 21.712C14.7478 21.4873 14.9587 21.2246 15.0611 21.1283C15.1634 21.032 15.374 20.7694 15.529 20.5447C15.684 20.32 15.9461 20.0048 16.1117 19.8443C16.2772 19.6838 16.5394 19.3686 16.6943 19.1439C16.8493 18.9192 17.0599 18.6565 17.1622 18.5602C17.2646 18.4639 17.4755 18.2013 17.6309 17.9766C18.4302 16.8209 18.8762 16.57 19.3431 17.0135ZM5.8152 20.3405C5.88186 20.4209 5.96417 20.9068 5.99802 21.4203C6.03188 21.9339 6.11602 22.748 6.18501 23.2295C6.5631 25.8671 6.69105 26.6699 6.89218 27.6653C7.21763 29.2761 7.1546 29.7206 6.50744 30.3745C6.36188 30.5216 6.11464 30.8258 5.95798 31.0505C5.80133 31.2752 5.53786 31.5904 5.37233 31.7509C5.2068 31.9114 4.94463 32.2266 4.78973 32.4513C4.63471 32.676 4.42412 32.9387 4.32174 33.035C4.21937 33.1313 4.00878 33.3939 3.85376 33.6186C3.69886 33.8433 3.43668 34.1585 3.27116 34.319C3.10563 34.4795 2.84299 34.7947 2.6875 35.0194C2.53201 35.2441 2.26937 35.5593 2.10384 35.7198C1.93831 35.8803 1.67625 36.1955 1.52135 36.4202C1.22917 36.8438 1.06318 36.999 0.898819 37.0021C0.781387 37.0042 0.872212 35.3478 1.04439 34.3482C1.1135 33.947 1.21856 33.3165 1.27786 32.9474C1.33715 32.5783 1.44548 32.0398 1.51856 31.7509C1.59175 31.462 1.69387 30.9892 1.74569 30.7003C1.79741 30.4114 1.92909 29.8861 2.03835 29.533C2.68329 27.4471 3.42711 25.194 3.63734 24.6887C4.16812 23.4134 4.60142 22.4265 5.03484 21.506C5.28465 20.9754 5.48906 20.4632 5.48906 20.3678C5.48906 20.1563 5.65096 20.1428 5.8152 20.3405ZM32.4714 20.9012C33.3662 22.7416 34.1199 24.5571 34.7703 26.4396C35.0223 27.169 35.5215 28.7904 35.6147 29.1828C35.7863 29.9042 35.9636 30.6296 36.0854 31.1089C36.1507 31.3657 36.2551 31.8385 36.3173 32.1595C36.3796 32.4805 36.4847 33.0058 36.5511 33.3268C36.6621 33.8634 36.7908 34.8245 36.9615 36.391C37.0543 37.2427 36.61 37.0692 35.8404 35.9533C35.6854 35.7286 35.4748 35.4659 35.3724 35.3696C35.27 35.2733 35.0594 35.0107 34.9044 34.7859C34.7495 34.5612 34.4873 34.2461 34.3218 34.0856C34.1563 33.9251 33.8941 33.6099 33.7392 33.3852C33.5842 33.1605 33.3736 32.8978 33.2712 32.8015C33.1688 32.7052 32.9583 32.4426 32.8032 32.2178C32.6483 31.9931 32.3862 31.678 32.2206 31.5175C32.0551 31.357 31.7911 31.0418 31.6337 30.8171C31.4763 30.5924 31.1989 30.2523 31.0171 30.0615C30.6521 29.6784 30.6269 28.8966 30.9326 27.4318C31.0063 27.0787 31.1142 26.4484 31.1726 26.0311C31.2309 25.6138 31.3353 24.9309 31.4046 24.5136C31.58 23.4569 31.7515 22.0424 31.8262 21.0343C31.9013 20.02 32.03 19.9935 32.4714 20.9012ZM11.0356 26.4688C10.9252 26.7453 10.5476 28.0248 9.92487 30.2334C9.8072 30.6507 9.59756 31.3861 9.45899 31.8677C9.32043 32.3492 9.1716 32.8701 9.12818 33.0254C9.00935 33.4511 8.79514 33.4436 8.70876 33.0108C8.6665 32.7994 8.58478 32.39 8.52699 32.1011C8.46921 31.8122 8.36147 31.3394 8.28746 31.0505C7.97544 29.8314 7.99668 29.6235 8.48567 29.1194C8.73209 28.8654 9.06234 28.4737 9.21946 28.249C9.3767 28.0243 9.58903 27.7616 9.6914 27.6653C9.79378 27.569 10.0039 27.3064 10.1583 27.0817C10.4788 26.6154 10.8426 26.2645 11.0058 26.2645C11.0671 26.2645 11.0805 26.3564 11.0356 26.4688ZM27.0317 26.3538C27.099 26.401 27.2808 26.6235 27.4358 26.8482C27.5907 27.0729 27.8528 27.3881 28.0183 27.5486C28.1838 27.7091 28.4473 28.0243 28.6039 28.249C28.7606 28.4737 29.0078 28.7779 29.1534 28.925C29.6444 29.4211 29.8088 29.8717 29.6699 30.3395C29.6014 30.5701 29.5202 30.9163 29.4895 31.1089C29.4586 31.3015 29.373 31.6955 29.2991 31.9844C29.2252 32.2733 29.1379 32.7329 29.1051 33.0058C29.0723 33.2787 29.0087 33.5019 28.9637 33.5019C28.8051 33.5019 28.6019 33.2188 28.6019 32.9977C28.6019 32.8746 28.5009 32.4517 28.3772 32.0581C28.2536 31.6644 28.0435 30.9616 27.9103 30.4961C27.7771 30.0305 27.5591 29.269 27.4259 28.8034C27.2927 28.3379 27.0826 27.6351 26.959 27.2414C26.6588 26.2854 26.6738 26.103 27.0317 26.3538ZM30.7687 30.9046C30.8837 31.0811 31.1151 31.357 31.2828 31.5175C31.4504 31.678 31.7145 31.9931 31.8694 32.2178C32.0244 32.4426 32.235 32.7052 32.3374 32.8015C32.4397 32.8978 32.6503 33.1605 32.8053 33.3852C32.9603 33.6099 33.2224 33.9251 33.388 34.0856C33.5535 34.2461 33.8161 34.5612 33.9716 34.7859C34.1271 35.0107 34.3897 35.3258 34.5553 35.4863C34.7208 35.6468 34.9846 35.962 35.1417 36.1867C35.5241 36.7336 35.734 36.9961 36.0207 37.2864C36.2934 37.5624 36.7732 38.2308 36.7732 38.3346C36.7732 38.9549 30.9895 41.2134 30.8393 40.6517C30.6635 39.9937 30.3405 38.8766 29.8854 37.354C29.2325 35.1692 29.255 35.2875 29.4004 34.7859C29.6165 34.0409 29.7547 33.4742 29.8273 33.035C29.9413 32.3453 30.2192 30.9916 30.3004 30.7295C30.3729 30.4956 30.5438 30.5594 30.7687 30.9046ZM7.44606 30.8463C7.51096 30.9266 7.59186 31.2023 7.62594 31.4591C7.66003 31.7159 7.74805 32.1624 7.82147 32.4513C7.8949 32.7402 7.99738 33.213 8.04921 33.5019C8.10092 33.7908 8.2374 34.3044 8.35249 34.6432L8.56168 35.2593L8.20236 36.3942C8.00473 37.0185 7.72973 37.9231 7.59117 38.4046C7.45273 38.8861 7.23818 39.6022 7.11456 39.9958C6.99094 40.3894 6.88984 40.8197 6.88984 40.952C6.88984 41.3551 6.66631 41.364 6.0565 40.9849C5.73584 40.7856 5.40851 40.6225 5.32901 40.6225C5.24963 40.6225 4.93202 40.4624 4.62338 40.2666C4.31474 40.0708 3.3852 39.5715 2.55769 39.1569C1.73029 38.7422 1.05325 38.3734 1.05325 38.3373C1.05325 38.2335 1.77735 37.1976 1.98537 37.0038C2.08868 36.9075 2.30007 36.6449 2.45509 36.4202C2.60999 36.1955 2.87217 35.8803 3.03769 35.7198C3.20322 35.5593 3.46587 35.2441 3.62135 35.0194C3.77684 34.7947 4.03949 34.4795 4.20501 34.319C4.37054 34.1585 4.63271 33.8433 4.78762 33.6186C4.94264 33.3939 5.15322 33.1313 5.2556 33.035C5.35797 32.9387 5.56856 32.676 5.72358 32.4513C5.87848 32.2266 6.14066 31.9114 6.30618 31.7509C6.47171 31.5904 6.72676 31.2883 6.87314 31.0797C7.1631 30.6663 7.26652 30.6241 7.44606 30.8463ZM9.07939 37.5583C9.14861 37.7991 9.26616 38.2324 9.34075 38.5214C9.48317 39.0737 10.0202 40.8857 10.4005 42.097C10.8168 43.4229 10.8252 43.4206 8.99324 42.4866C7.21541 41.5802 7.27646 41.9144 8.29798 38.6812C8.4223 38.2875 8.52409 37.8769 8.52409 37.7688C8.52409 37.1161 8.91036 36.9698 9.07939 37.5583ZM29.2729 37.9085C29.4068 38.3419 29.6295 39.0904 29.768 39.5719C29.9064 40.0535 30.0683 40.6088 30.1279 40.8059C30.3925 41.682 30.3044 41.7789 28.3891 42.7176C26.8172 43.4882 26.8845 43.5496 27.4331 41.846C27.6808 41.0767 27.9965 40.0535 28.1345 39.5719C28.2725 39.0904 28.4341 38.5351 28.4936 38.338C28.5533 38.1408 28.6019 37.8879 28.6019 37.7758C28.6019 37.5269 28.8094 37.1206 28.9365 37.1206C28.9876 37.1206 29.139 37.4751 29.2729 37.9085ZM2.31012 39.8602C2.99918 40.2113 3.69431 40.5719 3.85482 40.6614C4.01532 40.7511 4.43556 40.9572 4.78867 41.1196C6.39303 41.8574 6.57606 42.147 6.1982 43.3504C6.07458 43.744 5.86003 44.4601 5.72158 44.9416C5.58302 45.4231 5.32085 46.3161 5.13887 46.926C4.95688 47.536 4.70205 48.4027 4.57259 48.8521C3.72115 51.8069 3.81619 51.745 2.90965 49.9384C1.69821 47.5245 1.03014 44.8745 0.825862 41.6731C0.774616 40.8706 0.693828 40.0704 0.646318 39.895C0.418108 39.0525 0.712759 39.0463 2.31012 39.8602ZM36.9307 40.9826C36.8925 44.6115 35.6824 49.1823 34.2633 51.0581C34.0321 51.3638 33.8329 51.1737 33.6436 50.4663C33.5607 50.1563 33.3904 49.5482 33.2653 49.1148C33.1401 48.6813 32.9327 47.9591 32.8043 47.5097C32.6759 47.0603 32.4658 46.3249 32.3374 45.8755C31.963 44.565 31.6666 43.5321 31.4566 42.8045C31.2128 41.9603 30.9868 42.1489 34.2051 40.5105C37.2262 38.9724 36.9523 38.925 36.9307 40.9826ZM9.20242 43.4167C11.2151 44.4349 11.2288 44.4479 11.714 45.8223C12.3348 47.5809 12.5173 48.0635 12.8377 48.7938C13.7476 50.8687 13.752 50.8438 12.4569 50.9381C11.9952 50.9719 11.2235 51.0561 10.742 51.1255C10.2605 51.1949 9.47253 51.3013 8.99101 51.3619C8.50949 51.4224 7.72156 51.5287 7.24004 51.5978C4.53279 51.9862 4.40731 51.9448 4.76801 50.7809C4.90785 50.3301 5.12276 49.6066 5.24591 49.1731C5.36894 48.7397 5.57906 48.0044 5.71284 47.5389C5.84649 47.0734 6.06501 46.3118 6.1982 45.8463C6.33139 45.3807 6.54151 44.6779 6.66513 44.2843C6.78875 43.8907 6.88984 43.4809 6.88984 43.3738C6.88984 42.3509 7.10335 42.3548 9.20242 43.4167ZM30.7866 43.1379C30.8781 43.4559 31.1028 44.215 31.2858 44.8249C31.4689 45.4348 31.6795 46.1702 31.7538 46.4591C31.8281 46.748 31.9897 47.3389 32.1131 47.7724C32.2364 48.2058 32.438 48.9148 32.5611 49.3482C32.6842 49.7817 32.903 50.517 33.0477 50.9822C33.1922 51.4477 33.2885 51.8483 33.2616 51.8726C33.2001 51.9284 30.927 51.6727 28.7187 51.3619C27.4643 51.1852 26.085 51.016 25.2751 50.9392C24.1735 50.8346 24.0839 50.5865 24.7035 49.3569C24.9902 48.7877 25.0677 48.5915 25.8005 46.5758C26.0455 45.9017 26.3236 45.1434 26.4184 44.8906C26.5821 44.4541 26.6863 44.3829 28.501 43.4672C30.6904 42.3624 30.5685 42.3801 30.7866 43.1379ZM13.9521 45.8136C14.7225 46.2254 15.9439 46.8664 16.6661 47.238C18.2722 48.0643 18.3083 47.8733 16.2922 49.2164C14.4631 50.4352 14.3546 50.4616 14.0551 49.7604C11.7997 44.4807 11.8045 44.6656 13.9521 45.8136ZM25.5065 45.1717C25.545 45.2339 25.492 45.4483 25.3887 45.648C25.2855 45.8477 25.1054 46.3088 24.9885 46.6729C24.8717 47.0368 24.6853 47.5447 24.5742 47.8015C24.4632 48.0583 24.2246 48.6099 24.0441 49.0272C23.8635 49.4445 23.6868 49.8791 23.6517 49.9929C23.5193 50.4212 23.2255 50.3387 21.9741 49.5218C21.2858 49.0725 20.5535 48.6094 20.3468 48.4928C19.5544 48.0456 19.6567 47.9166 21.5105 47.0243C21.8761 46.8484 22.1767 46.6954 22.4444 46.5488C24.6778 45.3264 25.401 45.001 25.5065 45.1717ZM20.6878 49.5873C21.5415 50.1585 22.4108 50.714 22.6194 50.8217C23.2079 51.1256 22.8939 52.0097 21.0179 55.3307C20.637 56.0049 20.1389 56.8979 19.911 57.3152C18.9793 59.0209 18.8734 59.0321 17.9932 57.5179C17.6485 56.9248 17.1952 56.1508 16.9857 55.7977C16.4959 54.9717 14.7109 51.4012 14.7109 51.2472C14.7109 51.1827 15.1443 50.8492 15.6739 50.506C16.2035 50.1628 17.136 49.5585 17.7459 49.1629C18.3558 48.7674 18.918 48.4672 18.9951 48.4962C19.0723 48.525 19.834 49.016 20.6878 49.5873ZM13.0766 51.7038C13.0766 51.7633 13.0093 51.8815 12.9269 51.9664C12.8444 52.0511 12.65 52.3045 12.4947 52.5292C12.3393 52.7539 12.1284 53.0165 12.026 53.1128C11.9237 53.2091 11.7135 53.4718 11.5591 53.6965C11.4047 53.9212 11.1946 54.1838 11.0922 54.2801C10.9898 54.3764 10.7792 54.6391 10.6242 54.8638C10.4693 55.0885 10.2071 55.4037 10.0416 55.5642C9.87607 55.7247 9.62102 56.0268 9.47464 56.2354C9.11137 56.7535 8.32728 56.463 7.35677 55.451C7.19626 55.2836 6.88109 55.0188 6.65638 54.8625C5.71342 54.2068 4.63261 52.8664 4.8663 52.6423C4.91988 52.5909 5.27894 52.5195 5.66416 52.4837C6.31552 52.4231 6.73179 52.3738 9.22448 52.0622C9.7381 51.998 10.5742 51.9061 11.0827 51.858C11.5911 51.8099 12.0463 51.731 12.0943 51.6829C12.2203 51.5567 13.0766 51.5748 13.0766 51.7038ZM26.7342 51.8287C27.2158 51.8894 28.0037 51.9944 28.4852 52.0622C29.7396 52.2389 31.1189 52.4081 31.9288 52.4849C32.8435 52.5718 33.1143 52.7803 32.7713 53.1337C32.6889 53.2185 32.4937 53.4718 32.3374 53.6965C31.9852 54.2028 31.9119 54.2763 31.4035 54.6322C31.1788 54.7896 30.8354 55.0767 30.6403 55.2704C29.4888 56.4138 28.5637 56.7433 28.2059 56.1376C28.0911 55.9434 27.8305 55.6167 27.6264 55.4116C27.4225 55.2067 27.1277 54.855 26.9713 54.6303C26.8149 54.4056 26.6032 54.143 26.5008 54.0467C26.3984 53.9504 26.1878 53.6877 26.0328 53.463C25.8779 53.2383 25.6152 52.9231 25.4493 52.7626C24.5896 51.9315 24.5395 51.544 25.3043 51.6452C25.6093 51.6854 26.2527 51.7681 26.7342 51.8287ZM23.9983 52.1498C24.1133 52.3263 24.3446 52.6021 24.5124 52.7626C24.68 52.9231 24.944 53.2383 25.0989 53.463C25.254 53.6877 25.4646 53.9504 25.5669 54.0467C25.6693 54.143 25.8794 54.4056 26.0339 54.6303C26.1883 54.855 26.3984 55.1177 26.5008 55.214C26.6032 55.3103 26.8153 55.5729 26.972 55.7977C27.1287 56.0224 27.4021 56.3584 27.5793 56.5445C28.0149 57.0019 28.0042 57.0266 27.1913 57.4369C25.7639 58.1575 23.6057 58.7738 21.4813 59.0675C21.064 59.1253 20.5318 59.2061 20.2986 59.2472C19.6465 59.3622 19.6516 59.1551 20.328 58.0402C21.0974 56.7721 22.5467 54.0929 23.1355 52.8502C23.1887 52.7378 23.281 52.554 23.3405 52.4416C23.4 52.3292 23.4772 52.1455 23.512 52.0331C23.6019 51.7424 23.7571 51.7796 23.9983 52.1498ZM15.1856 53.9355C16.2442 55.9686 16.8115 56.9886 17.6069 58.2898C18.1562 59.1884 18.1424 59.3555 17.5278 59.2472C17.2946 59.2061 16.7624 59.1253 16.3451 59.0675C14.8202 58.8567 13.8391 58.6283 12.4153 58.1527C11.3697 57.8036 9.92487 57.1426 9.92487 57.0135C9.92487 56.8885 10.6742 55.8531 10.9737 55.5642C11.1402 55.4037 11.4032 55.0885 11.5581 54.8638C11.7131 54.6391 11.9237 54.3764 12.026 54.2801C12.1284 54.1838 12.3385 53.9212 12.493 53.6965C12.6474 53.4718 12.8575 53.2091 12.9599 53.1128C13.0623 53.0165 13.2724 52.7539 13.4267 52.5292C14.0146 51.6735 14.0031 51.6644 15.1856 53.9355Z" fill="black"/>
</svg>
