<svg width="60" height="60" viewBox="0 0 60 60" fill="none" xmlns="http://www.w3.org/2000/svg">
<path fill-rule="evenodd" clip-rule="evenodd" d="M0.181668 0.0829036C0.0372057 0.141173 0 6.23056 0 29.8483C0 46.1789 0.0396756 59.6437 0.0882174 59.7701C0.168297 59.9786 2.93416 60 29.9459 60C47.2649 60 59.749 59.9457 59.7957 59.8702C59.8398 59.7987 59.8773 46.3492 59.8789 29.9823C59.8814 6.15442 59.8454 0.201186 59.6983 0.107752C59.5973 0.0436696 46.2056 -0.00471892 29.939 0.000366951C13.6724 0.00545282 0.281659 0.0426526 0.181668 0.0829036ZM56.3899 1.14919C56.3899 1.22911 56.2591 1.2945 56.0992 1.2945C55.9394 1.2945 55.8085 1.35989 55.8085 1.43981C55.8085 1.51973 55.6451 1.58512 55.4452 1.58512C55.2454 1.58512 55.0819 1.65051 55.0819 1.73044C55.0819 1.81036 54.9184 1.87575 54.7185 1.87575C54.5187 1.87575 54.3552 1.94114 54.3552 2.02106C54.3552 2.10098 54.1917 2.16637 53.9919 2.16637C53.792 2.16637 53.6285 2.23176 53.6285 2.31168C53.6285 2.3916 53.4323 2.45699 53.1925 2.45699C52.9527 2.45699 52.7565 2.52238 52.7565 2.6023C52.7565 2.68222 52.6257 2.74761 52.4659 2.74761C52.306 2.74761 52.1752 2.813 52.1752 2.89292C52.1752 2.97284 51.979 3.03823 51.7392 3.03823C51.4994 3.03823 51.3032 3.10362 51.3032 3.18354C51.3032 3.26346 51.2042 3.32885 51.0831 3.32885C50.9622 3.32885 50.7496 3.38654 50.6108 3.45716C50.472 3.52778 50.1787 3.65856 49.9588 3.74778C49.7389 3.837 49.4119 3.96648 49.2322 4.03521C49.0524 4.10408 48.6576 4.26756 48.3552 4.39848C48.0528 4.52955 47.7093 4.63665 47.5922 4.63665C47.475 4.63665 47.3791 4.70204 47.3791 4.78196C47.3791 4.86188 47.2778 4.92727 47.1542 4.92727C47.0303 4.92727 46.6584 5.05805 46.3275 5.21789C45.9966 5.37773 45.6696 5.50851 45.6008 5.50851C45.5321 5.50851 45.2051 5.63929 44.8741 5.79913C44.5432 5.95897 44.154 6.08975 44.0091 6.08975C43.8642 6.08975 43.7458 6.15514 43.7458 6.23506C43.7458 6.31499 43.615 6.38038 43.4551 6.38038C43.2952 6.38038 43.1644 6.44577 43.1644 6.52569C43.1644 6.62145 38.6833 6.671 30.0116 6.671C21.3399 6.671 16.8588 6.62145 16.8588 6.52569C16.8588 6.44577 16.732 6.38038 16.5767 6.38038C16.4215 6.38038 16.2542 6.31499 16.2048 6.23506C16.1554 6.15514 15.9554 6.08975 15.7602 6.08975C15.5651 6.08975 15.4055 6.02436 15.4055 5.94444C15.4055 5.86452 15.3067 5.79913 15.1859 5.79913C15.0651 5.79913 14.6891 5.67707 14.3502 5.52798C14.0114 5.37889 13.2763 5.0797 12.7168 4.86333C12.1573 4.64697 11.4197 4.34385 11.0779 4.18996C10.736 4.03608 10.36 3.91009 10.2422 3.91009C10.1245 3.91009 10.0281 3.8447 10.0281 3.76478C10.0281 3.68486 9.89934 3.61947 9.74179 3.61947C9.5844 3.61947 9.22265 3.48869 8.93809 3.32885C8.65352 3.16901 8.29178 3.03823 8.13438 3.03823C7.97684 3.03823 7.84808 2.97284 7.84808 2.89292C7.84808 2.813 7.71728 2.74761 7.55741 2.74761C7.39754 2.74761 7.26674 2.68222 7.26674 2.6023C7.26674 2.52238 7.07054 2.45699 6.83073 2.45699C6.59093 2.45699 6.39473 2.3916 6.39473 2.31168C6.39473 2.23176 6.23123 2.16637 6.03139 2.16637C5.83156 2.16637 5.66806 2.10098 5.66806 2.02106C5.66806 1.94114 5.50455 1.87575 5.30472 1.87575C5.10488 1.87575 4.94138 1.81036 4.94138 1.73044C4.94138 1.65051 4.74518 1.58512 4.50538 1.58512C4.26558 1.58512 4.06937 1.51973 4.06937 1.43981C4.06937 1.35989 3.93857 1.2945 3.7787 1.2945C3.61884 1.2945 3.48803 1.22911 3.48803 1.14919C3.48803 1.05285 12.4019 1.00388 29.939 1.00388C47.4761 1.00388 56.3899 1.05285 56.3899 1.14919ZM2.18002 1.73044C2.18002 1.81036 2.37622 1.87575 2.61603 1.87575C2.85583 1.87575 3.05203 1.94114 3.05203 2.02106C3.05203 2.10098 3.1789 2.16637 3.33412 2.16637C3.48934 2.16637 3.65662 2.23176 3.70604 2.31168C3.75545 2.3916 3.95543 2.45699 4.15062 2.45699C4.3458 2.45699 4.50538 2.52238 4.50538 2.6023C4.50538 2.68222 4.63225 2.74761 4.78747 2.74761C4.94269 2.74761 5.10198 2.80007 5.14165 2.86415C5.18118 2.92823 5.54481 3.07078 5.94957 3.18107C6.35418 3.29122 6.6854 3.43493 6.6854 3.50046C6.6854 3.56585 6.78611 3.61947 6.90921 3.61947C7.03231 3.61947 7.38867 3.74996 7.70129 3.90937C8.0139 4.06877 8.58362 4.30505 8.96716 4.43423C9.35084 4.56341 9.90311 4.78341 10.1947 4.92291C10.486 5.06255 11.0255 5.2657 11.3937 5.37439C11.7617 5.48308 12.0628 5.62302 12.0628 5.6855C12.0628 5.74798 12.1897 5.79913 12.3449 5.79913C12.5001 5.79913 12.6674 5.86452 12.7168 5.94444C12.7662 6.02436 12.9662 6.08975 13.1614 6.08975C13.3566 6.08975 13.5161 6.15514 13.5161 6.23506C13.5161 6.31499 13.6796 6.38038 13.8795 6.38038C14.0793 6.38038 14.2428 6.44577 14.2428 6.52569C14.2428 6.60561 14.4063 6.671 14.6061 6.671C14.806 6.671 14.9695 6.73639 14.9695 6.81631C14.9695 6.89623 15.133 6.96162 15.3328 6.96162C15.5327 6.96162 15.6962 7.02701 15.6962 7.10693C15.6962 7.18685 15.8434 7.25427 16.0232 7.25689C16.2029 7.25936 16.4647 7.34829 16.6045 7.45451C16.8376 7.63135 16.8588 8.04375 16.8588 12.3904V17.1334H12.0628H7.26674V16.6974C7.26674 16.4577 7.20134 16.2615 7.1214 16.2615C7.04147 16.2615 6.97607 16.1307 6.97607 15.9709C6.97607 15.811 6.91067 15.6803 6.83073 15.6803C6.7508 15.6803 6.6854 15.4841 6.6854 15.2443C6.6854 15.0046 6.62 14.8084 6.54006 14.8084C6.46013 14.8084 6.39473 14.6815 6.39473 14.5263C6.39473 14.3712 6.34226 14.2119 6.27817 14.1722C6.21408 14.1327 6.07151 13.7691 5.9612 13.3644C5.85104 12.9599 5.70729 12.6287 5.64175 12.6287C5.57635 12.6287 5.52272 12.4326 5.52272 12.1928C5.52272 11.953 5.45732 11.7569 5.37739 11.7569C5.29745 11.7569 5.23205 11.6581 5.23205 11.5373C5.23205 11.4166 5.10997 11.0406 4.96085 10.7018C4.81174 10.363 4.51177 9.62807 4.2945 9.06862C4.07722 8.50918 3.76664 7.7245 3.60445 7.32489C3.44226 6.92529 3.25157 6.48485 3.18079 6.34608C3.11002 6.20731 3.05203 5.96203 3.05203 5.80117C3.05203 5.64016 2.98663 5.50851 2.9067 5.50851C2.82676 5.50851 2.76136 5.38166 2.76136 5.22646C2.76136 5.07127 2.69596 4.90402 2.61603 4.85461C2.53609 4.80521 2.47069 4.57257 2.47069 4.33745C2.47069 4.10234 2.40529 3.91009 2.32536 3.91009C2.24542 3.91009 2.18002 3.77932 2.18002 3.61947C2.18002 3.45963 2.11462 3.32885 2.03469 3.32885C1.95475 3.32885 1.88935 3.1382 1.88935 2.90498C1.88935 2.6719 1.83413 2.45946 1.76655 2.43272C1.69897 2.40613 1.59955 2.20458 1.54578 1.98473C1.45843 1.62857 1.48765 1.58512 1.81393 1.58512C2.01521 1.58512 2.18002 1.65051 2.18002 1.73044ZM58.4246 1.87575C58.4246 2.03559 58.3592 2.16637 58.2792 2.16637C58.1993 2.16637 58.1339 2.36254 58.1339 2.6023C58.1339 2.84206 58.0685 3.03823 57.9886 3.03823C57.9086 3.03823 57.8432 3.16901 57.8432 3.32885C57.8432 3.48869 57.7778 3.61947 57.6979 3.61947C57.618 3.61947 57.5526 3.81564 57.5526 4.05541C57.5526 4.29517 57.4872 4.49134 57.4072 4.49134C57.3273 4.49134 57.2619 4.65481 57.2619 4.85461C57.2619 5.05442 57.1965 5.21789 57.1166 5.21789C57.0366 5.21789 56.9712 5.41406 56.9712 5.65382C56.9712 5.89359 56.9058 6.08975 56.8259 6.08975C56.746 6.08975 56.6806 6.22053 56.6806 6.38038C56.6806 6.54022 56.6152 6.671 56.5352 6.671C56.4553 6.671 56.3899 6.86717 56.3899 7.10693C56.3899 7.34669 56.3245 7.54286 56.2446 7.54286C56.1646 7.54286 56.0992 7.63368 56.0992 7.74455C56.0992 7.85557 55.8115 8.64257 55.4597 9.49351C55.108 10.3444 54.7339 11.3327 54.6286 11.6894C54.5234 12.0462 54.3978 12.3381 54.3497 12.3381C54.3017 12.3381 54.1734 12.6651 54.0645 13.0647C53.9557 13.4643 53.8131 13.7912 53.7476 13.7912C53.6822 13.7912 53.6285 13.9508 53.6285 14.1459C53.6285 14.3411 53.5631 14.541 53.4832 14.5904C53.4033 14.6398 53.3379 14.8398 53.3379 15.0349C53.3379 15.2301 53.2725 15.3896 53.1925 15.3896C53.1126 15.3896 53.0472 15.5492 53.0472 15.7443C53.0472 15.9395 52.9818 16.1394 52.9019 16.1888C52.8219 16.2382 52.7565 16.3776 52.7565 16.4984C52.7565 16.6193 52.6631 16.8116 52.5488 16.9257C52.3778 17.0969 51.5377 17.1334 47.7683 17.1334C43.975 17.1334 43.1822 17.0986 43.1172 16.9292C43.074 16.8169 43.0368 14.7315 43.0345 12.295C43.0306 8.20824 43.0509 7.84133 43.2961 7.5587C43.4423 7.39014 43.7013 7.25224 43.8718 7.25224C44.0422 7.25224 44.1818 7.18685 44.1818 7.10693C44.1818 7.02701 44.3453 6.96162 44.5451 6.96162C44.7449 6.96162 44.9084 6.89623 44.9084 6.81631C44.9084 6.73639 45.0719 6.671 45.2718 6.671C45.4716 6.671 45.6351 6.60561 45.6351 6.52569C45.6351 6.44577 45.7947 6.38038 45.9899 6.38038C46.1851 6.38038 46.385 6.31499 46.4345 6.23506C46.4839 6.15514 46.6511 6.08975 46.8064 6.08975C46.9616 6.08975 47.0885 6.02436 47.0885 5.94444C47.0885 5.86452 47.248 5.79913 47.4432 5.79913C47.6384 5.79913 47.8384 5.73374 47.8878 5.65382C47.9372 5.5739 48.1045 5.50851 48.2597 5.50851C48.4149 5.50851 48.5418 5.44312 48.5418 5.3632C48.5418 5.28328 48.6922 5.21789 48.8761 5.21789C49.0599 5.21789 49.2726 5.1618 49.3484 5.09307C49.4243 5.02448 49.9443 4.7885 50.5038 4.56879C51.0634 4.34893 51.7828 4.07313 52.1025 3.95587C52.4222 3.83846 52.9128 3.64272 53.1925 3.52081C53.4723 3.39889 53.8647 3.23179 54.0645 3.14925C54.2644 3.06686 54.5914 2.93506 54.7912 2.85659C54.991 2.77798 55.268 2.65592 55.4068 2.5853C55.5456 2.51468 55.7583 2.45699 55.8792 2.45699C56.0002 2.45699 56.0992 2.3916 56.0992 2.31168C56.0992 2.23176 56.2954 2.16637 56.5352 2.16637C56.775 2.16637 56.9712 2.10098 56.9712 2.02106C56.9712 1.94114 57.102 1.87575 57.2619 1.87575C57.4218 1.87575 57.5526 1.81036 57.5526 1.73044C57.5526 1.65051 57.7488 1.58512 57.9886 1.58512C58.3276 1.58512 58.4246 1.64964 58.4246 1.87575ZM1.30801 3.97418C1.30801 4.16933 1.37341 4.36928 1.45335 4.41868C1.53328 4.46809 1.59868 4.66803 1.59868 4.86319C1.59868 5.05834 1.66408 5.21789 1.74402 5.21789C1.82395 5.21789 1.88935 5.38136 1.88935 5.58117C1.88935 5.78097 1.95475 5.94444 2.03469 5.94444C2.11462 5.94444 2.18002 6.10792 2.18002 6.30772C2.18002 6.50752 2.24542 6.671 2.32536 6.671C2.40529 6.671 2.47069 6.86717 2.47069 7.10693C2.47069 7.34669 2.53609 7.54286 2.61603 7.54286C2.69596 7.54286 2.76136 7.67364 2.76136 7.83348C2.76136 7.99332 2.82676 8.1241 2.9067 8.1241C2.98663 8.1241 3.05203 8.32027 3.05203 8.56003C3.05203 8.7998 3.11743 8.99597 3.19736 8.99597C3.2773 8.99597 3.3427 9.15944 3.3427 9.35924C3.3427 9.55905 3.39385 9.72252 3.45635 9.72252C3.51884 9.72252 3.66011 10.0332 3.77042 10.4127C3.88058 10.7923 4.08623 11.3645 4.22735 11.6842C4.36847 12.0039 4.65987 12.7232 4.87497 13.2826C5.09006 13.8421 5.33146 14.4633 5.41125 14.6631C5.49118 14.8629 5.60338 15.1244 5.66064 15.2443C5.71776 15.3642 5.85525 15.7728 5.96599 16.1525C6.07688 16.5322 6.21859 16.8427 6.28108 16.8427C6.34357 16.8427 6.39473 16.9696 6.39473 17.1248C6.39473 17.28 6.46013 17.4472 6.54006 17.4966C6.63511 17.5553 6.6854 22.0027 6.6854 30.3652C6.6854 38.7875 6.63584 43.144 6.54006 43.144C6.46013 43.144 6.39473 43.2747 6.39473 43.4346C6.39473 43.5944 6.32933 43.7252 6.24939 43.7252C6.16946 43.7252 6.10406 43.8569 6.10406 44.0179C6.10406 44.1787 6.04636 44.424 5.97573 44.5628C5.9051 44.7016 5.78098 44.9785 5.69988 45.1783C5.61879 45.3781 5.45267 45.7705 5.33074 46.0502C5.2088 46.3299 5.01376 46.8203 4.89735 47.14C4.78094 47.4597 4.50625 48.1463 4.28679 48.6658C4.06733 49.1853 3.82303 49.7738 3.74367 49.9736C3.66432 50.1734 3.54166 50.4503 3.47103 50.5891C3.4004 50.7279 3.3427 50.9405 3.3427 51.0614C3.3427 51.1824 3.2773 51.2814 3.19736 51.2814C3.11743 51.2814 3.05203 51.4121 3.05203 51.572C3.05203 51.7318 2.98663 51.8626 2.9067 51.8626C2.82676 51.8626 2.76136 52.0588 2.76136 52.2985C2.76136 52.5383 2.69596 52.7345 2.61603 52.7345C2.53609 52.7345 2.47069 52.9306 2.47069 53.1704C2.47069 53.4102 2.40529 53.6063 2.32536 53.6063C2.24542 53.6063 2.18002 53.7371 2.18002 53.8969C2.18002 54.0568 2.11462 54.1876 2.03469 54.1876C1.95475 54.1876 1.88935 54.351 1.88935 54.5508C1.88935 54.7507 1.82395 54.9141 1.74402 54.9141C1.66408 54.9141 1.59868 55.0737 1.59868 55.2688C1.59868 55.464 1.53328 55.6639 1.45335 55.7133C1.37341 55.7627 1.30801 55.9262 1.30801 56.0766C1.30801 56.227 1.24261 56.3905 1.16268 56.4399C1.06603 56.4996 1.01734 47.6743 1.01734 30.0746C1.01734 12.5347 1.06632 3.61947 1.16268 3.61947C1.24261 3.61947 1.30801 3.77903 1.30801 3.97418ZM59.0059 30.0935V56.5673L58.7152 56.2553C58.5554 56.0839 58.4246 55.8137 58.4246 55.6554C58.4246 55.4968 58.3592 55.3268 58.2792 55.2774C58.1993 55.228 58.1339 55.028 58.1339 54.8329C58.1339 54.6377 58.0685 54.4782 57.9886 54.4782C57.9086 54.4782 57.8432 54.3513 57.8432 54.1961C57.8432 54.041 57.7778 53.8737 57.6979 53.8243C57.618 53.7749 57.5526 53.5749 57.5526 53.3798C57.5526 53.1846 57.4872 53.0251 57.4072 53.0251C57.3273 53.0251 57.2619 52.8943 57.2619 52.7345C57.2619 52.5746 57.1965 52.4438 57.1166 52.4438C57.0366 52.4438 56.9712 52.2477 56.9712 52.0079C56.9712 51.7682 56.9058 51.572 56.8259 51.572C56.746 51.572 56.6806 51.4124 56.6806 51.2173C56.6806 51.0221 56.6152 50.8222 56.5352 50.7728C56.4553 50.7234 56.3899 50.5561 56.3899 50.4009C56.3899 50.2457 56.3245 50.1189 56.2446 50.1189C56.1646 50.1189 56.0992 49.9554 56.0992 49.7556C56.0992 49.5558 56.0338 49.3923 55.9539 49.3923C55.874 49.3923 55.8085 49.2655 55.8085 49.1103C55.8085 48.9551 55.7431 48.7878 55.6632 48.7384C55.5833 48.689 55.5179 48.4891 55.5179 48.2939C55.5179 48.0988 55.4685 47.9392 55.4082 47.9392C55.3477 47.9392 55.2246 47.7268 55.1346 47.467C55.0445 47.2073 54.8396 46.6677 54.6792 46.2681C54.5188 45.8685 54.2658 45.2146 54.117 44.815C53.9683 44.4154 53.8082 44.0558 53.7614 44.0158C53.7144 43.9759 53.5856 43.6326 53.4752 43.2529C53.3647 42.8733 53.2233 42.5627 53.1608 42.5627C53.0983 42.5627 53.0472 37.0373 53.0472 30.284C53.0472 23.5307 53.1008 18.0052 53.1662 18.0052C53.2318 18.0052 53.3743 17.6783 53.4832 17.2787C53.592 16.8791 53.7204 16.5521 53.7683 16.5521C53.8165 16.5521 53.9464 16.2416 54.0573 15.8619C54.168 15.4822 54.3119 15.0736 54.3769 14.9537C54.4417 14.8338 54.7251 14.1509 55.0063 13.4361C55.2877 12.7212 55.5179 12.051 55.5179 11.9466C55.5179 11.8423 55.5833 11.7569 55.6632 11.7569C55.7431 11.7569 55.8085 11.5607 55.8085 11.3209C55.8085 11.0812 55.874 10.885 55.9539 10.885C56.0338 10.885 56.0992 10.7581 56.0992 10.603C56.0992 10.4478 56.1646 10.2805 56.2446 10.2311C56.3245 10.1817 56.3899 9.98175 56.3899 9.7866C56.3899 9.59145 56.4553 9.4319 56.5352 9.4319C56.6152 9.4319 56.6806 9.26842 56.6806 9.06862C56.6806 8.86882 56.746 8.70535 56.8259 8.70535C56.9058 8.70535 56.9712 8.50918 56.9712 8.26941C56.9712 8.02965 57.0366 7.83348 57.1166 7.83348C57.1965 7.83348 57.2619 7.7027 57.2619 7.54286C57.2619 7.38302 57.3273 7.25224 57.4072 7.25224C57.4872 7.25224 57.5526 7.05607 57.5526 6.81631C57.5526 6.57655 57.6037 6.38038 57.6662 6.38038C57.7287 6.38038 57.8704 6.0697 57.9813 5.69015C58.092 5.3106 58.2317 4.90184 58.2916 4.78196C58.3513 4.66208 58.4791 4.35155 58.5754 4.09173C58.6718 3.83192 58.808 3.61947 58.8782 3.61947C58.9511 3.61947 59.0059 14.9778 59.0059 30.0935ZM39.4244 7.94246C39.386 8.04229 39.1981 8.1241 39.0068 8.1241C38.8156 8.1241 38.659 8.17525 38.659 8.23774C38.659 8.30022 38.3483 8.44248 37.9687 8.55408C37.5891 8.66568 36.9187 8.91517 36.479 9.10858C36.0394 9.30214 35.4024 9.58476 35.0636 9.73676C34.7247 9.88875 34.3525 10.0131 34.2365 10.0131C34.1204 10.0131 33.9851 10.0785 33.9357 10.1585C33.8863 10.2384 33.719 10.3038 33.5638 10.3038C33.4085 10.3038 33.2817 10.3574 33.2817 10.4228C33.2817 10.4883 32.9547 10.6309 32.555 10.7397C32.1553 10.8485 31.8283 10.9911 31.8283 11.0566C31.8283 11.122 31.6687 11.1756 31.4736 11.1756C31.2784 11.1756 31.0784 11.241 31.029 11.3209C30.9796 11.4009 30.8123 11.4662 30.6571 11.4662C30.5018 11.4662 30.375 11.5316 30.375 11.6116C30.375 11.6915 30.2115 11.7569 30.0116 11.7569C29.8118 11.7569 29.6483 11.6915 29.6483 11.6116C29.6483 11.5316 29.4887 11.4662 29.2935 11.4662C29.0983 11.4662 28.8984 11.4009 28.849 11.3209C28.7995 11.241 28.6323 11.1756 28.477 11.1756C28.3218 11.1756 28.1949 11.1102 28.1949 11.0303C28.1949 10.9504 27.9987 10.885 27.7589 10.885C27.5191 10.885 27.3229 10.8356 27.3229 10.7753C27.3229 10.7148 27.1105 10.5906 26.8506 10.4991C26.5907 10.4075 26.0885 10.2243 25.7343 10.0919C25.3801 9.95952 24.8114 9.72412 24.4706 9.56893C24.1298 9.41359 23.7942 9.28659 23.7249 9.28659C23.6556 9.28659 23.3281 9.15581 22.9972 8.99597C22.6663 8.83612 22.2943 8.70535 22.1705 8.70535C22.0468 8.70535 21.9455 8.63996 21.9455 8.56003C21.9455 8.48011 21.8187 8.41472 21.6635 8.41472C21.5082 8.41472 21.341 8.34933 21.2915 8.26941C21.2421 8.18949 21.0421 8.1241 20.847 8.1241C20.6518 8.1241 20.4922 8.04244 20.4922 7.94246C20.4922 7.79904 22.4894 7.76083 29.9932 7.76083C37.5342 7.76083 39.4798 7.79832 39.4244 7.94246ZM18.6828 8.24326C18.7586 8.30879 19.2787 8.5426 19.8382 8.7626C20.3977 8.98274 21.1353 9.28877 21.4771 9.44265C21.819 9.59653 22.1949 9.72252 22.3128 9.72252C22.4305 9.72252 22.5269 9.78791 22.5269 9.86783C22.5269 9.94775 22.7231 10.0131 22.9629 10.0131C23.2027 10.0131 23.3989 10.0785 23.3989 10.1585C23.3989 10.2384 23.5297 10.3038 23.6896 10.3038C23.8494 10.3038 23.9802 10.3692 23.9802 10.4491C23.9802 10.529 24.1398 10.5944 24.335 10.5944C24.5302 10.5944 24.7302 10.6598 24.7796 10.7397C24.829 10.8196 25.029 10.885 25.2242 10.885C25.4193 10.885 25.5789 10.9504 25.5789 11.0303C25.5789 11.1102 25.7097 11.1756 25.8696 11.1756C26.0295 11.1756 26.1603 11.241 26.1603 11.3209C26.1603 11.4009 26.3565 11.4662 26.5963 11.4662C26.8361 11.4662 27.0323 11.5316 27.0323 11.6116C27.0323 11.6915 27.1631 11.7569 27.3229 11.7569C27.4828 11.7569 27.6136 11.8223 27.6136 11.9022C27.6136 11.9821 27.8098 12.0475 28.0496 12.0475C28.2894 12.0475 28.4856 12.0848 28.4856 12.1305C28.4856 12.1762 28.4039 12.2951 28.3039 12.3946C28.2041 12.4943 27.8116 12.6674 27.4319 12.7793C27.0523 12.8912 26.7416 13.0339 26.7416 13.0963C26.7416 13.1588 26.6426 13.21 26.5216 13.21C26.4006 13.21 26.188 13.27 26.0492 13.3434C25.9104 13.4168 25.4869 13.6129 25.1082 13.7793C24.7293 13.9457 24.3834 14.0818 24.3395 14.0818C24.2956 14.0818 23.7226 14.3193 23.0662 14.6095C22.4099 14.8996 21.5956 15.2593 21.2568 15.4087C20.9179 15.558 20.5419 15.6803 20.4211 15.6803C20.3004 15.6803 20.2015 15.7456 20.2015 15.8256C20.2015 15.9055 20.038 15.9709 19.8382 15.9709C19.6384 15.9709 19.4749 16.0363 19.4749 16.1162C19.4749 16.1961 19.3244 16.2615 19.1406 16.2615C18.9567 16.2615 18.7443 16.3212 18.6683 16.3943C18.5924 16.4673 18.3667 16.5489 18.1668 16.576L17.8035 16.6248L17.765 12.3744L17.7265 8.1241H18.1356C18.3606 8.1241 18.6069 8.17772 18.6828 8.24326ZM42.0017 12.3381C42.0017 16.4646 41.9956 16.5521 41.709 16.5521C41.5482 16.5521 41.3028 16.4944 41.164 16.4238C41.0252 16.3532 40.732 16.2224 40.5121 16.1332C40.2922 16.044 39.9326 15.8978 39.7127 15.8086C39.4928 15.7193 39.1995 15.5886 39.0607 15.5179C38.922 15.4473 38.7093 15.3896 38.5884 15.3896C38.4673 15.3896 38.3684 15.3318 38.3684 15.2613C38.3684 15.1907 38.2212 15.0989 38.0414 15.0572C37.8616 15.0155 37.2239 14.778 36.6244 14.5295C36.0249 14.2809 35.3708 14.0056 35.171 13.9175C34.9712 13.8294 34.6942 13.6995 34.5554 13.6289C34.4166 13.5583 34.204 13.5006 34.083 13.5006C33.962 13.5006 33.863 13.447 33.863 13.3816C33.863 13.3161 33.536 13.1735 33.1363 13.0647C32.7367 12.9558 32.4097 12.8133 32.4097 12.7477C32.4097 12.6824 32.3069 12.6287 32.1813 12.6287C32.0556 12.6287 31.8594 12.5353 31.7453 12.4211C31.6311 12.307 31.5376 12.1762 31.5376 12.1305C31.5376 12.0848 31.6684 12.0475 31.8283 12.0475C31.9882 12.0475 32.119 11.9821 32.119 11.9022C32.119 11.8223 32.3152 11.7569 32.555 11.7569C32.7948 11.7569 32.991 11.6915 32.991 11.6116C32.991 11.5316 33.1545 11.4662 33.3543 11.4662C33.5542 11.4662 33.7177 11.4009 33.7177 11.3209C33.7177 11.241 33.8812 11.1756 34.081 11.1756C34.2808 11.1756 34.4443 11.1102 34.4443 11.0303C34.4443 10.9504 34.6078 10.885 34.8077 10.885C35.0075 10.885 35.171 10.8196 35.171 10.7397C35.171 10.6598 35.3306 10.5944 35.5258 10.5944C35.721 10.5944 35.9209 10.529 35.9704 10.4491C36.0198 10.3692 36.187 10.3038 36.3423 10.3038C36.4975 10.3038 36.6244 10.2526 36.6244 10.1901C36.6244 10.1276 36.9351 9.98742 37.3147 9.87844C37.6943 9.76945 38.0704 9.64086 38.1502 9.59247C38.2302 9.54408 39.015 9.20071 39.8943 8.82929C40.7737 8.45774 41.6075 8.14721 41.7474 8.13907C41.9842 8.12512 42.0017 8.41603 42.0017 12.3381ZM30.6656 13.0647C30.6656 13.1446 30.7646 13.21 30.8857 13.21C31.0066 13.21 31.2192 13.2727 31.358 13.3496C31.4968 13.4265 31.9763 13.6554 32.4236 13.8582C32.8711 14.0611 33.2805 14.2271 33.3335 14.2271C33.3867 14.2271 33.74 14.3633 34.1189 14.5297C34.4977 14.6961 34.9212 14.8922 35.06 14.9656C35.1988 15.039 35.4114 15.099 35.5323 15.099C35.6534 15.099 35.7524 15.1526 35.7524 15.218C35.7524 15.2836 36.0794 15.4261 36.479 15.5349C36.8787 15.6438 37.2057 15.7863 37.2057 15.8519C37.2057 15.9173 37.3365 15.9709 37.4964 15.9709C37.6562 15.9709 37.787 16.0363 37.787 16.1162C37.787 16.1961 37.9832 16.2615 38.223 16.2615C38.4628 16.2615 38.659 16.3269 38.659 16.4068C38.659 16.4867 38.7898 16.5521 38.9497 16.5521C39.1096 16.5521 39.2404 16.6175 39.2404 16.6974C39.2404 16.7774 39.4366 16.8427 39.6764 16.8427C39.9162 16.8427 40.1124 16.9081 40.1124 16.9881C40.1124 17.068 40.2759 17.1334 40.4757 17.1334C40.6756 17.1334 40.8391 17.1988 40.8391 17.2787C40.8391 17.3586 40.9699 17.424 41.1297 17.424C41.2896 17.424 41.4204 17.4894 41.4204 17.5693C41.4204 17.6492 41.6166 17.7146 41.8564 17.7146C42.2245 17.7146 42.2924 17.7711 42.2924 18.0779C42.2924 18.2777 42.3578 18.4412 42.4378 18.4412C42.5177 18.4412 42.5831 18.6046 42.5831 18.8044C42.5831 19.0042 42.6485 19.1677 42.7284 19.1677C42.8084 19.1677 42.8738 19.3312 42.8738 19.531C42.8738 19.7308 42.9274 19.8943 42.9928 19.8943C43.0583 19.8943 43.2009 20.2212 43.3098 20.6208C43.4186 21.0204 43.5612 21.3474 43.6267 21.3474C43.6921 21.3474 43.7458 21.4462 43.7458 21.5669C43.7458 21.6877 43.8702 22.0636 44.0222 22.4025C44.1744 22.7412 44.5995 23.7623 44.9669 24.6714C45.3344 25.5804 45.6351 26.4142 45.6351 26.5241C45.6351 26.6339 45.7005 26.7239 45.7805 26.7239C45.8604 26.7239 45.9258 26.8507 45.9258 27.0059C45.9258 27.1611 45.9912 27.3284 46.0711 27.3778C46.1511 27.4272 46.2165 27.6271 46.2165 27.8223C46.2165 28.0174 46.2819 28.177 46.3618 28.177C46.4417 28.177 46.5071 28.3404 46.5071 28.5402C46.5071 28.74 46.5725 28.9035 46.6525 28.9035C46.7324 28.9035 46.7978 29.067 46.7978 29.2668C46.7978 29.4666 46.8632 29.6301 46.9431 29.6301C47.0231 29.6301 47.0885 29.7935 47.0885 29.9934C47.0885 30.1932 47.1539 30.3566 47.2338 30.3566C47.3137 30.3566 47.3791 30.4547 47.3791 30.5746C47.3791 30.6945 47.3137 30.7926 47.2338 30.7926C47.1539 30.7926 47.0885 30.956 47.0885 31.1558C47.0885 31.3556 47.0231 31.5191 46.9431 31.5191C46.8632 31.5191 46.7978 31.7153 46.7978 31.955C46.7978 32.1948 46.7324 32.391 46.6525 32.391C46.5725 32.391 46.5071 32.5178 46.5071 32.673C46.5071 32.8282 46.4417 32.9955 46.3618 33.0449C46.2819 33.0943 46.2165 33.2942 46.2165 33.4894C46.2165 33.6845 46.1511 33.8441 46.0711 33.8441C45.9912 33.8441 45.9258 33.9757 45.9258 34.1367C45.9258 34.2976 45.8681 34.5429 45.7974 34.6817C45.7268 34.8204 45.6046 35.0974 45.5257 35.2972C45.4469 35.497 45.2501 35.9874 45.0882 36.387C44.9265 36.7866 44.6811 37.4078 44.5432 37.7675C44.4052 38.1271 44.2347 38.5684 44.1643 38.7483C44.094 38.9282 43.971 39.2387 43.8911 39.4385C43.8112 39.6383 43.6727 39.9817 43.5834 40.2014C43.4942 40.4211 43.3634 40.7145 43.2928 40.8533C43.2221 40.9921 43.1644 41.2373 43.1644 41.3982C43.1644 41.5592 43.1034 41.6909 43.0288 41.6909C42.9543 41.6909 42.8518 41.8216 42.8011 41.9815C42.7421 42.1672 42.5812 42.2721 42.3553 42.2721C42.1609 42.2721 42.0017 42.3375 42.0017 42.4174C42.0017 42.4973 41.8422 42.5627 41.647 42.5627C41.4518 42.5627 41.2518 42.6281 41.2024 42.708C41.153 42.788 40.9857 42.8533 40.8305 42.8533C40.6753 42.8533 40.5484 42.9187 40.5484 42.9987C40.5484 43.0786 40.3849 43.144 40.1851 43.144C39.9852 43.144 39.8217 43.2094 39.8217 43.2893C39.8217 43.3692 39.6972 43.4346 39.5449 43.4346C39.3924 43.4346 39.0164 43.5574 38.7092 43.7075C38.4018 43.8574 37.8234 44.1132 37.4237 44.2755C37.024 44.438 36.3373 44.7143 35.8977 44.8897C35.458 45.0651 34.8694 45.3053 34.5897 45.4236C34.3099 45.5419 33.9675 45.6985 33.8287 45.7718C33.6899 45.845 33.4446 45.9049 33.2837 45.9049C33.1227 45.9049 32.991 45.9703 32.991 46.0502C32.991 46.1301 32.8602 46.1955 32.7003 46.1955C32.5405 46.1955 32.4097 46.2609 32.4097 46.3408C32.4097 46.4207 32.2135 46.4861 31.9736 46.4861C31.7338 46.4861 31.5376 46.5515 31.5376 46.6314C31.5376 46.7113 31.4068 46.7767 31.247 46.7767C31.0871 46.7767 30.9563 46.8421 30.9563 46.922C30.9563 47.002 30.7656 47.0674 30.5324 47.0674C30.2992 47.0674 30.0703 47.1492 30.0237 47.249C29.956 47.3943 29.922 47.3943 29.8542 47.249C29.8076 47.149 29.6114 47.0674 29.4182 47.0674C29.2249 47.0674 29.067 47.002 29.067 46.922C29.067 46.8421 28.8708 46.7767 28.6309 46.7767C28.3911 46.7767 28.1949 46.7113 28.1949 46.6314C28.1949 46.5515 28.0641 46.4861 27.9043 46.4861C27.7444 46.4861 27.6136 46.4207 27.6136 46.3408C27.6136 46.2609 27.4174 46.1955 27.1776 46.1955C26.9378 46.1955 26.741 46.1465 26.7404 46.0865C26.7399 46.0265 26.5633 45.8959 26.3482 45.7959C26.1329 45.6961 25.871 45.6142 25.766 45.6142C25.6609 45.6142 25.4613 45.5489 25.3226 45.4689C25.1838 45.389 24.5164 45.0948 23.8393 44.815C23.1623 44.5353 22.5247 44.3064 22.4223 44.3064C22.3199 44.3064 22.2362 44.2411 22.2362 44.1611C22.2362 44.0812 22.1374 44.0158 22.0166 44.0158C21.8958 44.0158 21.4872 43.8785 21.1083 43.7107C20.7295 43.543 20.256 43.3391 20.0562 43.2579C19.8564 43.1765 19.5794 43.0523 19.4406 42.9817C19.3018 42.911 19.0564 42.8533 18.8956 42.8533C18.7345 42.8533 18.6028 42.788 18.6028 42.708C18.6028 42.6281 18.476 42.5627 18.3208 42.5627C18.1655 42.5627 17.9983 42.4973 17.9488 42.4174C17.8994 42.3375 17.7274 42.2721 17.5666 42.2721C17.4057 42.2721 17.1806 42.1787 17.0665 42.0645C16.9523 41.9504 16.8588 41.6888 16.8588 41.4832C16.8588 41.2777 16.7934 41.1096 16.7135 41.1096C16.6336 41.1096 16.5682 40.9788 16.5682 40.819C16.5682 40.6592 16.5028 40.5284 16.4228 40.5284C16.3429 40.5284 16.2775 40.3967 16.2775 40.2357C16.2775 40.0749 16.2121 39.8133 16.1322 39.6545C16.0522 39.4958 15.9214 39.236 15.8415 39.0773C15.7616 38.9185 15.6962 38.6608 15.6962 38.5046C15.6962 38.3484 15.6308 38.1802 15.5508 38.1307C15.4709 38.0813 15.4055 37.9141 15.4055 37.7589C15.4055 37.6037 15.3401 37.4768 15.2601 37.4768C15.1802 37.4768 15.1148 37.2862 15.1148 37.053C15.1148 36.8199 15.0637 36.6075 15.001 36.5807C14.9385 36.5541 14.6072 35.813 14.2649 34.9339C13.9225 34.0548 13.5355 33.0085 13.4048 32.6089C13.2742 32.2093 13.1309 31.8497 13.0865 31.8097C13.0422 31.7698 12.9245 31.5036 12.8251 31.2182C12.7255 30.9328 12.6441 30.5567 12.6441 30.3826C12.6441 30.2086 12.7095 30.066 12.7895 30.066C12.8694 30.066 12.9348 29.9373 12.9348 29.7797C12.9348 29.6224 13.0656 29.2607 13.2255 28.9762C13.3853 28.6917 13.5161 28.33 13.5161 28.1726C13.5161 28.0151 13.574 27.8863 13.6445 27.8863C13.7151 27.8863 13.8077 27.7393 13.8503 27.5594C13.8928 27.3795 14.2004 26.5459 14.5338 25.7067C14.8672 24.8675 15.2651 23.9295 15.4181 23.6222C15.571 23.315 15.6962 22.9391 15.6962 22.7867C15.6962 22.6344 15.7498 22.5099 15.8152 22.5099C15.8807 22.5099 16.0233 22.1829 16.1322 21.7833C16.241 21.3837 16.3836 21.0567 16.4491 21.0567C16.5145 21.0567 16.5682 20.8933 16.5682 20.6935C16.5682 20.4937 16.6336 20.3302 16.7135 20.3302C16.7934 20.3302 16.8588 20.1667 16.8588 19.9669C16.8588 19.7671 16.9242 19.6036 17.0042 19.6036C17.0841 19.6036 17.1495 19.4402 17.1495 19.2404C17.1495 19.0406 17.2149 18.8771 17.2948 18.8771C17.3748 18.8771 17.4402 18.7136 17.4402 18.5138C17.4402 18.314 17.5056 18.1505 17.5855 18.1505C17.6654 18.1505 17.7308 18.0525 17.7308 17.9326C17.7308 17.7983 17.8672 17.7146 18.0856 17.7146C18.2808 17.7146 18.4808 17.6492 18.5302 17.5693C18.5796 17.4894 18.7469 17.424 18.9021 17.424C19.0573 17.424 19.1842 17.3586 19.1842 17.2787C19.1842 17.1988 19.3477 17.1334 19.5475 17.1334C19.7474 17.1334 19.9109 17.068 19.9109 16.9881C19.9109 16.9081 20.0744 16.8427 20.2742 16.8427C20.474 16.8427 20.6375 16.7774 20.6375 16.6974C20.6375 16.6175 20.801 16.5521 21.0009 16.5521C21.2007 16.5521 21.3642 16.4867 21.3642 16.4068C21.3642 16.3269 21.495 16.2615 21.6549 16.2615C21.8147 16.2615 21.9455 16.1961 21.9455 16.1162C21.9455 16.0363 22.1051 15.9709 22.3003 15.9709C22.4955 15.9709 22.6955 15.9055 22.7449 15.8256C22.7943 15.7456 22.9616 15.6803 23.1168 15.6803C23.272 15.6803 23.3989 15.6149 23.3989 15.5349C23.3989 15.455 23.5173 15.3896 23.6622 15.3896C23.8071 15.3896 24.1963 15.2589 24.5273 15.099C24.8582 14.9392 25.2301 14.8084 25.3539 14.8084C25.4776 14.8084 25.5789 14.743 25.5789 14.6631C25.5789 14.5832 25.6449 14.5178 25.7256 14.5178C25.8062 14.5178 26.5747 14.2231 27.4332 13.8627C28.2919 13.5025 29.0924 13.1468 29.2123 13.0721C29.3322 12.9975 29.7083 12.9326 30.048 12.9279C30.3876 12.9231 30.6656 12.9847 30.6656 13.0647ZM16.5682 18.2146C16.5682 18.3298 16.5028 18.4644 16.4228 18.5138C16.3429 18.5632 16.2775 18.7305 16.2775 18.8857C16.2775 19.0409 16.2121 19.1677 16.1322 19.1677C16.0522 19.1677 15.9868 19.2946 15.9868 19.4498C15.9868 19.6049 15.9214 19.7722 15.8415 19.8216C15.7616 19.871 15.6962 20.0063 15.6962 20.1224C15.6962 20.2384 15.5715 20.6105 15.419 20.9494C15.2665 21.2881 14.83 22.35 14.4487 23.3091C14.0675 24.2681 13.7113 25.1182 13.6571 25.1981C13.6027 25.278 13.4692 25.6539 13.3602 26.0336C13.2512 26.4132 13.1109 26.7239 13.0484 26.7239C12.9859 26.7239 12.9348 26.8834 12.9348 27.0786C12.9348 27.2737 12.8694 27.4737 12.7895 27.5231C12.7095 27.5725 12.6441 27.7397 12.6441 27.8949C12.6441 28.0501 12.5787 28.177 12.4988 28.177C12.4189 28.177 12.3535 28.3404 12.3535 28.5402C12.3535 28.74 12.3261 28.9035 12.2927 28.9035C12.2593 28.9035 12.1285 28.8639 12.002 28.8153C11.8756 28.7668 11.7721 28.5706 11.7721 28.3794C11.7721 28.1882 11.7067 28.0317 11.6268 28.0317C11.5468 28.0317 11.4814 27.8682 11.4814 27.6684C11.4814 27.4686 11.416 27.3051 11.3361 27.3051C11.2562 27.3051 11.1908 27.1089 11.1908 26.8692C11.1908 26.6294 11.1254 26.4332 11.0454 26.4332C10.9655 26.4332 10.9001 26.3064 10.9001 26.1512C10.9001 25.996 10.8347 25.8287 10.7548 25.7793C10.6748 25.7299 10.6094 25.53 10.6094 25.3348C10.6094 25.1397 10.544 24.9801 10.4641 24.9801C10.3842 24.9801 10.3188 24.8937 10.3188 24.7879C10.3188 24.6822 10.0545 23.9465 9.73176 23.1531C9.40883 22.3597 9.04593 21.4164 8.92515 21.0567C8.80424 20.6971 8.65207 20.2721 8.58681 20.1122C8.5217 19.9524 8.38655 19.6254 8.28656 19.3857C8.18657 19.1459 8.04704 18.8363 7.97641 18.6975C7.90577 18.5587 7.84808 18.3461 7.84808 18.2252C7.84808 18.0337 8.41198 18.0052 12.2081 18.0052C15.9075 18.0052 16.5682 18.0369 16.5682 18.2146ZM52.1752 18.1505C52.1752 18.2305 52.1098 18.2958 52.0298 18.2958C51.9499 18.2958 51.8845 18.492 51.8845 18.7318C51.8845 18.9715 51.8191 19.1677 51.7392 19.1677C51.6592 19.1677 51.5938 19.3312 51.5938 19.531C51.5938 19.7308 51.5284 19.8943 51.4485 19.8943C51.3686 19.8943 51.3032 20.0447 51.3032 20.2285C51.3032 20.4123 51.2491 20.6247 51.1831 20.7007C51.1171 20.7766 50.9727 21.133 50.8622 21.4927C50.7518 21.8523 50.6259 22.1793 50.5826 22.2192C50.5393 22.2592 50.3818 22.6188 50.2326 23.0184C50.0835 23.418 49.8296 24.1046 49.6684 24.5442C49.5073 24.9838 49.3282 25.4088 49.2704 25.4887C49.2127 25.5686 49.0762 25.9446 48.9672 26.3243C48.8582 26.704 48.718 27.0145 48.6555 27.0145C48.593 27.0145 48.5418 27.174 48.5418 27.3692C48.5418 27.5643 48.4764 27.7643 48.3965 27.8137C48.3165 27.8631 48.2511 28.0304 48.2511 28.1855C48.2511 28.3407 48.1857 28.4676 48.1058 28.4676C48.0259 28.4676 47.9605 28.5984 47.9605 28.7582C47.9605 28.9181 47.8951 29.0488 47.8151 29.0488C47.7352 29.0488 47.6698 28.9181 47.6698 28.7582C47.6698 28.5984 47.6044 28.4676 47.5245 28.4676C47.4445 28.4676 47.3791 28.3368 47.3791 28.177C47.3791 28.0171 47.3137 27.8863 47.2338 27.8863C47.1539 27.8863 47.0885 27.6902 47.0885 27.4504C47.0885 27.2107 47.0231 27.0145 46.9431 27.0145C46.8632 27.0145 46.7978 26.8183 46.7978 26.5786C46.7978 26.3388 46.7324 26.1426 46.6525 26.1426C46.5725 26.1426 46.5071 26.0118 46.5071 25.852C46.5071 25.6922 46.456 25.5614 46.3935 25.5614C46.331 25.5614 46.1893 25.2508 46.0784 24.8712C45.9676 24.4915 45.8278 24.0828 45.7679 23.963C45.7079 23.8431 45.5228 23.435 45.3564 23.0564C45.19 22.6775 45.0538 22.3233 45.0538 22.2691C45.0538 22.2149 44.6941 21.3309 44.2544 20.3046C43.8148 19.2784 43.4551 18.3413 43.4551 18.222C43.4551 18.0346 44.0468 18.0052 47.8151 18.0052C50.6249 18.0052 52.1752 18.057 52.1752 18.1505ZM8.13875 21.7833C8.13875 22.0231 8.20415 22.2192 8.28408 22.2192C8.36402 22.2192 8.42942 22.3461 8.42942 22.5013C8.42942 22.6565 8.49482 22.8237 8.57475 22.8731C8.65469 22.9225 8.72009 23.1094 8.72009 23.2886C8.72009 23.4677 8.77662 23.6764 8.8458 23.7523C8.91498 23.8281 9.21742 24.5115 9.51797 25.2708C9.81852 26.03 10.208 27.0592 10.3837 27.5578C10.5594 28.0565 10.7475 28.5087 10.8016 28.5629C10.8558 28.617 10.9001 28.7812 10.9001 28.9278C10.9001 29.0743 10.9655 29.1941 11.0454 29.1941C11.1254 29.1941 11.1908 29.3537 11.1908 29.5488C11.1908 29.744 11.2562 29.9439 11.3361 29.9934C11.416 30.0428 11.4814 30.3408 11.4814 30.6558C11.4814 30.9709 11.416 31.2285 11.3361 31.2285C11.2562 31.2285 11.1908 31.3593 11.1908 31.5191C11.1908 31.679 11.1396 31.8097 11.0771 31.8097C11.0146 31.8097 10.8732 32.1203 10.7628 32.5C10.6523 32.8797 10.5235 33.2229 10.4766 33.2628C10.4298 33.3028 10.2696 33.6624 10.121 34.062C9.97214 34.4617 9.73292 35.0829 9.58948 35.4425C9.44589 35.8021 9.24053 36.3253 9.13328 36.605C9.02587 36.8847 8.89972 37.1463 8.85292 37.1862C8.80598 37.2262 8.67721 37.5694 8.56676 37.9491C8.4563 38.3288 8.31489 38.6393 8.2524 38.6393C8.1899 38.6393 8.13875 38.8028 8.13875 39.0026C8.13875 39.2024 8.07335 39.3659 7.99341 39.3659C7.89807 39.3659 7.84808 36.266 7.84808 30.3566C7.84808 24.4473 7.89807 21.3474 7.99341 21.3474C8.07335 21.3474 8.13875 21.5435 8.13875 21.7833ZM52.1752 30.4293C52.1752 36.387 52.1252 39.5112 52.0298 39.5112C51.9499 39.5112 51.8845 39.3804 51.8845 39.2206C51.8845 39.0607 51.8191 38.93 51.7392 38.93C51.6592 38.93 51.5938 38.8031 51.5938 38.6479C51.5938 38.4927 51.5284 38.3255 51.4485 38.2761C51.3686 38.2267 51.3032 38.0267 51.3032 37.8316C51.3032 37.6364 51.2495 37.4768 51.1841 37.4768C51.1186 37.4768 50.976 37.1499 50.8672 36.7503C50.7583 36.3507 50.63 36.0237 50.582 36.0237C50.5339 36.0237 50.4054 35.7132 50.2964 35.3335C50.1874 34.9538 50.0545 34.5779 50.001 34.498C49.9476 34.4181 49.7218 33.8949 49.4993 33.3355C49.2766 32.7761 48.9333 31.9414 48.7364 31.4806C48.5133 30.9588 48.4135 30.5205 48.4718 30.3181C48.5232 30.1395 48.6908 29.7161 48.8443 29.3774C48.9976 29.0385 49.1231 28.6996 49.1231 28.6241C49.1231 28.5485 49.2936 28.0738 49.502 27.569C49.7106 27.0642 49.9471 26.4877 50.0277 26.2879C50.1084 26.0881 50.2322 25.8112 50.3028 25.6724C50.3735 25.5336 50.4312 25.321 50.4312 25.2001C50.4312 25.0791 50.4966 24.9801 50.5765 24.9801C50.6564 24.9801 50.7218 24.8206 50.7218 24.6254C50.7218 24.4303 50.7872 24.2303 50.8672 24.1809C50.9471 24.1315 51.0125 23.9316 51.0125 23.7364C51.0125 23.5413 51.0779 23.3817 51.1578 23.3817C51.2378 23.3817 51.3032 23.1855 51.3032 22.9458C51.3032 22.706 51.3686 22.5099 51.4485 22.5099C51.5284 22.5099 51.5938 22.3791 51.5938 22.2192C51.5938 22.0594 51.6592 21.9286 51.7392 21.9286C51.8191 21.9286 51.8845 21.7978 51.8845 21.638C51.8845 21.4781 51.9499 21.3474 52.0298 21.3474C52.1252 21.3474 52.1752 24.4715 52.1752 30.4293ZM12.3535 32.5363C12.3535 32.7761 12.4189 32.9722 12.4988 32.9722C12.5787 32.9722 12.6441 33.1318 12.6441 33.3269C12.6441 33.5221 12.7095 33.722 12.7895 33.7714C12.8694 33.8208 12.9348 34.0208 12.9348 34.2159C12.9348 34.4111 12.9859 34.5706 13.0484 34.5706C13.1109 34.5706 13.2512 34.8812 13.3602 35.2609C13.4692 35.6406 13.6033 36.0165 13.6583 36.0964C13.7132 36.1763 13.8286 36.4379 13.9148 36.6776C14.001 36.9174 14.3769 37.8983 14.75 38.8573C15.1232 39.8163 15.4888 40.7145 15.5623 40.8533C15.636 40.9921 15.6962 41.2373 15.6962 41.3982C15.6962 41.5592 15.7616 41.6909 15.8415 41.6909C15.9214 41.6909 15.9868 41.7562 15.9868 41.8362C15.9868 41.9295 14.5819 41.9815 12.0628 41.9815C9.50315 41.9815 8.13875 41.9302 8.13875 41.8338C8.13875 41.7528 8.22013 41.4258 8.3194 41.1073C8.4188 40.7889 8.54961 40.5284 8.61006 40.5284C8.67067 40.5284 8.72009 40.4412 8.72009 40.3347C8.72009 40.2283 9.01439 39.429 9.37409 38.5587C9.7338 37.6883 10.0281 36.8927 10.0281 36.7906C10.0281 36.6885 10.0935 36.605 10.1734 36.605C10.2534 36.605 10.3188 36.506 10.3188 36.385C10.3188 36.2641 10.374 36.0515 10.4414 35.9127C10.5089 35.774 10.6397 35.5143 10.7321 35.3356C10.8245 35.1568 10.9001 34.8788 10.9001 34.718C10.9001 34.557 10.9655 34.4253 11.0454 34.4253C11.1254 34.4253 11.1908 34.2619 11.1908 34.062C11.1908 33.8622 11.2562 33.6988 11.3361 33.6988C11.416 33.6988 11.4814 33.5353 11.4814 33.3355C11.4814 33.1357 11.5468 32.9722 11.6268 32.9722C11.7067 32.9722 11.7721 32.7761 11.7721 32.5363C11.7721 32.1973 11.8366 32.1004 12.0628 32.1004C12.2889 32.1004 12.3535 32.1973 12.3535 32.5363ZM47.9605 32.391C47.9605 32.5508 48.0259 32.6816 48.1058 32.6816C48.1857 32.6816 48.2511 32.8124 48.2511 32.9722C48.2511 33.1321 48.3165 33.2628 48.3965 33.2628C48.4764 33.2628 48.5418 33.3813 48.5418 33.5261C48.5418 33.671 48.6726 34.0602 48.8325 34.391C48.9923 34.7219 49.1231 35.0489 49.1231 35.1177C49.1231 35.1865 49.2867 35.5817 49.4865 35.9958C49.6863 36.41 49.8498 36.8472 49.8498 36.9675C49.8498 37.0879 49.9152 37.1862 49.9952 37.1862C50.0751 37.1862 50.1405 37.2875 50.1405 37.4112C50.1405 37.535 50.2713 37.9068 50.4312 38.2377C50.591 38.5686 50.7218 38.923 50.7218 39.0254C50.7218 39.1279 50.8526 39.4446 51.0125 39.7292C51.1724 40.0137 51.3032 40.3754 51.3032 40.5327C51.3032 40.6903 51.3686 40.819 51.4485 40.819C51.5284 40.819 51.5938 40.9498 51.5938 41.1096C51.5938 41.2695 51.6592 41.4002 51.7392 41.4002C51.8191 41.4002 51.8845 41.531 51.8845 41.6909C51.8845 41.9744 51.7876 41.9815 47.9605 41.9815C44.2787 41.9815 44.0364 41.9654 44.0364 41.7199C44.0364 41.5761 44.0933 41.3962 44.1627 41.3203C44.2321 41.2443 44.4069 40.8553 44.5511 40.4557C44.6952 40.0561 44.8577 39.6638 44.9124 39.5839C44.9669 39.5039 45.1007 39.128 45.2097 38.7483C45.3187 38.3686 45.459 38.0581 45.5215 38.0581C45.584 38.0581 45.6351 37.8619 45.6351 37.6222C45.6351 37.3824 45.7005 37.1862 45.7805 37.1862C45.8604 37.1862 45.9258 37.0554 45.9258 36.8956C45.9258 36.7358 45.9912 36.605 46.0711 36.605C46.1511 36.605 46.2165 36.4088 46.2165 36.1691C46.2165 35.9293 46.2819 35.7331 46.3618 35.7331C46.4417 35.7331 46.5071 35.5696 46.5071 35.3698C46.5071 35.17 46.5725 35.0066 46.6525 35.0066C46.7324 35.0066 46.7978 34.8431 46.7978 34.6433C46.7978 34.4435 46.8632 34.28 46.9431 34.28C47.0231 34.28 47.0885 34.1165 47.0885 33.9167C47.0885 33.7169 47.1539 33.5535 47.2338 33.5535C47.3137 33.5535 47.3791 33.3573 47.3791 33.1175C47.3791 32.8778 47.4445 32.6816 47.5245 32.6816C47.6044 32.6816 47.6698 32.5508 47.6698 32.391C47.6698 32.2311 47.7352 32.1004 47.8151 32.1004C47.8951 32.1004 47.9605 32.2311 47.9605 32.391ZM16.2775 47.7584V52.6636L15.8052 52.8565C15.5453 52.9626 15.1693 53.1181 14.9695 53.2021C14.7696 53.2859 14.4589 53.4112 14.2791 53.4805C14.0994 53.5497 13.8049 53.6631 13.6251 53.7326C13.4454 53.8021 12.9711 53.9927 12.5715 54.1563C12.1718 54.3198 11.387 54.6347 10.8274 54.8561C10.2679 55.0776 9.7447 55.3025 9.66476 55.3559C9.58483 55.4093 9.2087 55.5423 8.82909 55.6513C8.44947 55.7603 8.13875 55.8887 8.13875 55.9368C8.13875 55.9848 7.81174 56.1131 7.41207 56.2219C7.0124 56.3308 6.6854 56.4733 6.6854 56.5388C6.6854 56.6042 6.4892 56.6579 6.24939 56.6579C6.00959 56.6579 5.81339 56.7232 5.81339 56.8032C5.81339 56.8831 5.68259 56.9485 5.52272 56.9485C5.36285 56.9485 5.23205 57.0139 5.23205 57.0938C5.23205 57.1737 5.03585 57.2391 4.79605 57.2391C4.55624 57.2391 4.36004 57.3045 4.36004 57.3844C4.36004 57.4643 4.19654 57.5297 3.99671 57.5297C3.79687 57.5297 3.63337 57.5951 3.63337 57.675C3.63337 57.7549 3.50649 57.8203 3.35128 57.8203C3.19606 57.8203 3.02878 57.8857 2.97936 57.9656C2.92995 58.0456 2.72997 58.111 2.53478 58.111C2.3396 58.111 2.18002 58.1763 2.18002 58.2563C2.18002 58.3362 2.02785 58.4016 1.84182 58.4016C1.54883 58.4016 1.51221 58.3435 1.56772 57.9656C1.6029 57.7259 1.68966 57.5297 1.76044 57.5297C1.83136 57.5297 1.88935 57.3335 1.88935 57.0938C1.88935 56.854 1.95475 56.6579 2.03469 56.6579C2.11462 56.6579 2.18002 56.5271 2.18002 56.3672C2.18002 56.2074 2.24542 56.0766 2.32536 56.0766C2.40529 56.0766 2.47069 55.9498 2.47069 55.7946C2.47069 55.6394 2.53609 55.4721 2.61603 55.4227C2.69596 55.3733 2.76136 55.1734 2.76136 54.9782C2.76136 54.7831 2.82676 54.6235 2.9067 54.6235C2.98663 54.6235 3.05203 54.5043 3.05203 54.3586C3.05203 54.213 3.24823 53.6889 3.48803 53.1938C3.72784 52.6989 3.92404 52.2375 3.92404 52.1685C3.92404 52.0995 4.09277 51.6592 4.29901 51.19C4.50523 50.7208 4.73414 50.1898 4.80768 50.0099C4.88122 49.83 5.0155 49.503 5.10619 49.2833C5.19673 49.0636 5.33524 48.7203 5.41372 48.5205C5.49235 48.3207 5.61443 48.0437 5.68506 47.9049C5.75569 47.7662 5.81339 47.5209 5.81339 47.36C5.81339 47.199 5.87879 47.0674 5.95873 47.0674C6.03866 47.0674 6.10406 46.9405 6.10406 46.7853C6.10406 46.6301 6.16946 46.4629 6.24939 46.4135C6.32933 46.364 6.39473 46.1641 6.39473 45.9689C6.39473 45.7738 6.46013 45.6142 6.54006 45.6142C6.62 45.6142 6.6854 45.4508 6.6854 45.251C6.6854 45.0512 6.7508 44.8877 6.83073 44.8877C6.91067 44.8877 6.97607 44.7242 6.97607 44.5244C6.97607 44.3246 7.04147 44.1611 7.1214 44.1611C7.20134 44.1611 7.26674 43.9977 7.26674 43.7979C7.26674 43.5981 7.33214 43.4346 7.41207 43.4346C7.49201 43.4346 7.55741 43.3038 7.55741 43.144C7.55741 42.8597 7.65435 42.8533 11.9175 42.8533H16.2775V47.7584ZM52.2582 43.061C52.3724 43.1751 52.4659 43.3712 52.4659 43.4969C52.4659 43.6225 52.5312 43.7252 52.6112 43.7252C52.6911 43.7252 52.7565 43.8887 52.7565 44.0885C52.7565 44.2883 52.8219 44.4518 52.9019 44.4518C52.9818 44.4518 53.0472 44.6152 53.0472 44.815C53.0472 45.0148 53.1126 45.1783 53.1925 45.1783C53.2725 45.1783 53.3379 45.2967 53.3379 45.4416C53.3379 45.5865 53.4687 45.9756 53.6285 46.3065C53.7884 46.6374 53.9192 46.9962 53.9192 47.104C53.9192 47.2116 53.9744 47.3619 54.0419 47.4379C54.1093 47.5137 54.3155 47.9683 54.5001 48.4478C54.6845 48.9273 54.989 49.6649 55.1768 50.0869C55.3644 50.5087 55.5179 50.9502 55.5179 51.0678C55.5179 51.1852 55.5715 51.2814 55.6369 51.2814C55.7024 51.2814 55.845 51.6083 55.9539 52.0079C56.0627 52.4075 56.2053 52.7345 56.2709 52.7345C56.3363 52.7345 56.3899 52.894 56.3899 53.0892C56.3899 53.2843 56.4553 53.4843 56.5352 53.5337C56.6152 53.5831 56.6806 53.7503 56.6806 53.9055C56.6806 54.0607 56.746 54.1876 56.8259 54.1876C56.9058 54.1876 56.9712 54.351 56.9712 54.5508C56.9712 54.7507 57.0366 54.9141 57.1166 54.9141C57.1965 54.9141 57.2619 55.0776 57.2619 55.2774C57.2619 55.4772 57.3273 55.6407 57.4072 55.6407C57.4872 55.6407 57.5526 55.8041 57.5526 56.004C57.5526 56.2038 57.618 56.3672 57.6979 56.3672C57.7778 56.3672 57.8432 56.5634 57.8432 56.8032C57.8432 57.0429 57.9086 57.2391 57.9886 57.2391C58.0685 57.2391 58.1339 57.3699 58.1339 57.5297C58.1339 57.6896 58.1993 57.8203 58.2792 57.8203C58.3592 57.8203 58.4246 57.9511 58.4246 58.111C58.4246 58.3018 58.3276 58.4016 58.1425 58.4016C57.9873 58.4016 57.82 58.3362 57.7706 58.2563C57.7212 58.1763 57.5212 58.111 57.326 58.111C57.1308 58.111 56.9712 58.0456 56.9712 57.9656C56.9712 57.8857 56.8443 57.8203 56.6891 57.8203C56.5339 57.8203 56.3666 57.7549 56.3172 57.675C56.2678 57.5951 56.0678 57.5297 55.8727 57.5297C55.6775 57.5297 55.5179 57.4643 55.5179 57.3844C55.5179 57.3045 55.3544 57.2391 55.1545 57.2391C54.9547 57.2391 54.7912 57.1737 54.7912 57.0938C54.7912 57.0139 54.6277 56.9485 54.4279 56.9485C54.228 56.9485 54.0645 56.8831 54.0645 56.8032C54.0645 56.7232 53.8356 56.6579 53.5559 56.6579C53.2761 56.6579 53.0466 56.6089 53.046 56.5489C53.0454 56.4889 52.8689 56.3582 52.6538 56.2582C52.4385 56.1584 52.2095 56.0766 52.1447 56.0766C52.0797 56.0766 51.7495 55.9543 51.4106 55.8047C51.0718 55.6552 50.0424 55.2296 49.1231 54.8591C48.2039 54.4885 47.3701 54.1858 47.2701 54.1864C47.1703 54.1871 47.0885 54.1364 47.0885 54.0739C47.0885 54.0115 46.7777 53.8698 46.3981 53.7589C46.0185 53.6482 45.6097 53.5107 45.4898 53.4536C45.3699 53.3964 45.1083 53.2853 44.9084 53.2067C44.7086 53.1283 44.3653 52.9787 44.1454 52.8747L43.7458 52.6854V47.8663C43.7458 45.2157 43.7894 43.0034 43.8427 42.9503C43.8959 42.8969 45.7645 42.8533 47.9951 42.8533C51.3161 42.8533 52.0883 42.891 52.2582 43.061ZM17.5512 43.2774C17.69 43.3507 18.0978 43.5372 18.4575 43.6915C18.8172 43.8458 19.602 44.1597 20.2015 44.3888C20.801 44.618 21.3242 44.846 21.3642 44.8955C21.4042 44.9449 21.7476 45.0759 22.1272 45.1863C22.5068 45.2967 22.8176 45.4381 22.8176 45.5006C22.8176 45.5631 22.9444 45.6142 23.0996 45.6142C23.2549 45.6142 23.4222 45.6796 23.4716 45.7596C23.521 45.8395 23.721 45.9049 23.9161 45.9049C24.1113 45.9049 24.2709 45.9703 24.2709 46.0502C24.2709 46.1301 24.4344 46.1955 24.6342 46.1955C24.8341 46.1955 24.9976 46.2609 24.9976 46.3408C24.9976 46.4207 25.1284 46.4861 25.2882 46.4861C25.4481 46.4861 25.5789 46.5515 25.5789 46.6314C25.5789 46.7113 25.7751 46.7767 26.0149 46.7767C26.2547 46.7767 26.4509 46.8421 26.4509 46.922C26.4509 47.002 26.6471 47.0674 26.8869 47.0674C27.1267 47.0674 27.3229 47.1327 27.3229 47.2127C27.3229 47.2926 27.4537 47.358 27.6136 47.358C27.7735 47.358 27.9043 47.4234 27.9043 47.5033C27.9043 47.5832 28.0351 47.6486 28.1949 47.6486C28.3548 47.6486 28.4856 47.714 28.4856 47.7939C28.4856 47.8738 28.3548 47.9392 28.1949 47.9392C28.0351 47.9392 27.9043 48.0046 27.9043 48.0845C27.9043 48.1644 27.8054 48.2298 27.6847 48.2298C27.5639 48.2298 27.1879 48.3522 26.849 48.5017C26.5102 48.6512 25.4481 49.0814 24.4889 49.4574C23.5297 49.8336 22.4651 50.2669 22.1233 50.4207C21.7815 50.5744 21.4375 50.7001 21.3587 50.7001C21.2801 50.7001 20.9058 50.8363 20.5269 51.0027C20.1482 51.169 19.7247 51.3652 19.5859 51.4386C19.4471 51.512 19.2018 51.572 19.0409 51.572C18.8799 51.572 18.7482 51.6374 18.7482 51.7173C18.7482 51.7972 18.5847 51.8626 18.3848 51.8626C18.185 51.8626 18.0215 51.928 18.0215 52.0079C18.0215 52.0878 17.8253 52.1532 17.5855 52.1532H17.1495V47.6486C17.1495 45.171 17.1831 43.144 17.2242 43.144C17.2652 43.144 17.4124 43.204 17.5512 43.2774ZM42.8738 47.7212V52.1532H42.4378C42.1979 52.1532 42.0017 52.0878 42.0017 52.0079C42.0017 51.928 41.8055 51.8626 41.5657 51.8626C41.3259 51.8626 41.1297 51.7972 41.1297 51.7173C41.1297 51.6374 40.9662 51.572 40.7664 51.572C40.5666 51.572 40.4031 51.5066 40.4031 51.4267C40.4031 51.3468 40.2714 51.2814 40.1104 51.2814C39.9495 51.2814 39.7042 51.2213 39.5654 51.148C39.4266 51.0746 39.0031 50.8784 38.6243 50.712C38.2454 50.5457 37.8712 50.4095 37.7926 50.4095C37.7138 50.4095 37.3698 50.2835 37.028 50.1296C36.6861 49.9757 35.9486 49.6693 35.389 49.4487C34.8295 49.2281 34.3063 49.0039 34.2263 48.9506C34.1464 48.8971 33.7703 48.7641 33.3907 48.6552C33.011 48.5462 32.7003 48.406 32.7003 48.3435C32.7003 48.281 32.6053 48.2298 32.4892 48.2298C32.373 48.2298 32.1114 48.154 31.9078 48.0611C31.7042 47.9684 31.5376 47.8376 31.5376 47.7705C31.5376 47.7035 31.6684 47.6486 31.8283 47.6486C31.9882 47.6486 32.119 47.5832 32.119 47.5033C32.119 47.4234 32.2498 47.358 32.4097 47.358C32.5695 47.358 32.7003 47.2926 32.7003 47.2127C32.7003 47.1327 32.8965 47.0674 33.1363 47.0674C33.3761 47.0674 33.5723 47.002 33.5723 46.922C33.5723 46.8421 33.7031 46.7767 33.863 46.7767C34.0229 46.7767 34.1537 46.7113 34.1537 46.6314C34.1537 46.5515 34.3172 46.4861 34.517 46.4861C34.7168 46.4861 34.8803 46.4207 34.8803 46.3408C34.8803 46.2609 35.0765 46.1955 35.3163 46.1955C35.5561 46.1955 35.7524 46.1301 35.7524 46.0502C35.7524 45.9703 35.8832 45.9049 36.043 45.9049C36.2029 45.9049 36.3337 45.8395 36.3337 45.7596C36.3337 45.6796 36.5299 45.6142 36.7697 45.6142C37.0095 45.6142 37.2057 45.5489 37.2057 45.4689C37.2057 45.389 37.3365 45.3236 37.4964 45.3236C37.6562 45.3236 37.787 45.2582 37.787 45.1783C37.787 45.0984 37.879 45.033 37.9915 45.033C38.104 45.033 38.8984 44.7388 39.757 44.3791C40.6155 44.0195 41.4064 43.7252 41.5146 43.7252C41.6226 43.7252 41.7111 43.6643 41.7111 43.5901C41.7111 43.5157 41.8583 43.4264 42.0381 43.3919C42.2179 43.3571 42.4795 43.3199 42.6194 43.309C42.8565 43.2906 42.8738 43.5896 42.8738 47.7212ZM30.9794 48.7251C31.4908 48.9174 32.2671 49.2364 32.7044 49.4339C33.1418 49.6314 33.8518 49.9316 34.282 50.1011C34.7123 50.2707 35.1539 50.4095 35.263 50.4095C35.3723 50.4095 35.4617 50.4749 35.4617 50.5548C35.4617 50.6347 35.6213 50.7001 35.8164 50.7001C36.0116 50.7001 36.2116 50.7655 36.261 50.8454C36.3104 50.9254 36.4777 50.9907 36.6329 50.9907C36.7882 50.9907 36.915 51.0561 36.915 51.1361C36.915 51.216 37.1112 51.2814 37.351 51.2814C37.5908 51.2814 37.787 51.3468 37.787 51.4267C37.787 51.5066 37.9178 51.572 38.0777 51.572C38.2376 51.572 38.3684 51.6374 38.3684 51.7173C38.3684 51.7972 38.5646 51.8626 38.8044 51.8626C39.0442 51.8626 39.2404 51.928 39.2404 52.0079C39.2404 52.0878 39.4414 52.1532 39.687 52.1532C40.0348 52.1532 40.1226 52.2095 40.083 52.4075C40.0454 52.597 39.9037 52.656 39.5274 52.6389C39.2497 52.6264 34.9391 52.6111 29.9483 52.6051C24.9573 52.5992 20.6246 52.6342 20.3198 52.683C20.0149 52.7317 19.7655 52.7359 19.7655 52.6923C19.7655 52.6486 19.8052 52.5095 19.8537 52.3831C19.9023 52.2567 20.0985 52.1532 20.2897 52.1532C20.481 52.1532 20.6375 52.0878 20.6375 52.0079C20.6375 51.928 20.801 51.8626 21.0009 51.8626C21.2007 51.8626 21.3642 51.7972 21.3642 51.7173C21.3642 51.6374 21.5604 51.572 21.8002 51.572C22.04 51.572 22.2362 51.5066 22.2362 51.4267C22.2362 51.3468 22.367 51.2814 22.5269 51.2814C22.6868 51.2814 22.8176 51.216 22.8176 51.1361C22.8176 51.0561 22.9492 50.9907 23.1103 50.9907C23.2711 50.9907 23.5492 50.9152 23.7279 50.8228C23.9067 50.7303 24.151 50.6106 24.2709 50.5565C24.3908 50.5025 24.7996 50.3676 25.1792 50.2569C25.5589 50.1461 25.8696 50.0044 25.8696 49.9419C25.8696 49.8794 25.9841 49.8284 26.1239 49.8287C26.2637 49.8288 26.6399 49.7034 26.9596 49.5497C27.2793 49.3961 27.8352 49.1592 28.1949 49.0234C28.5546 48.8875 28.9798 48.7235 29.1396 48.6589C29.2995 48.5944 29.5284 48.5094 29.6483 48.4699C29.7682 48.4304 29.9076 48.3929 29.958 48.3866C30.0084 48.3804 30.4681 48.5327 30.9794 48.7251ZM43.7026 53.7721C43.9261 53.8632 44.3053 54.0168 44.5451 54.1136C44.7849 54.2102 45.21 54.3755 45.4898 54.4808C45.7696 54.586 46.0639 54.7171 46.1438 54.772C46.2237 54.8269 46.5998 54.9611 46.9795 55.07C47.3591 55.179 47.6698 55.3075 47.6698 55.3556C47.6698 55.4035 47.9968 55.5318 48.3965 55.6407C48.7961 55.7495 49.1231 55.8921 49.1231 55.9576C49.1231 56.023 49.2867 56.0766 49.4865 56.0766C49.6863 56.0766 49.8498 56.142 49.8498 56.2219C49.8498 56.3018 50.0133 56.3672 50.2132 56.3672C50.413 56.3672 50.5765 56.4326 50.5765 56.5125C50.5765 56.5925 50.74 56.6579 50.9398 56.6579C51.1397 56.6579 51.3032 56.7232 51.3032 56.8032C51.3032 56.8831 51.4994 56.9485 51.7392 56.9485C51.979 56.9485 52.1752 57.0139 52.1752 57.0938C52.1752 57.1737 52.306 57.2391 52.4659 57.2391C52.6257 57.2391 52.7565 57.3045 52.7565 57.3844C52.7565 57.4643 52.9527 57.5297 53.1925 57.5297C53.4323 57.5297 53.6285 57.5951 53.6285 57.675C53.6285 57.7549 53.7463 57.8203 53.8901 57.8203C54.034 57.8203 54.2139 57.8724 54.2898 57.936C54.3658 57.9996 54.6895 58.1364 55.0092 58.2401C55.3289 58.3438 55.7703 58.5039 55.9902 58.5959C56.2101 58.6878 56.3899 58.8125 56.3899 58.873C56.3899 58.9334 44.4706 58.9808 29.9026 58.9782C6.09505 58.9741 3.44472 58.9511 3.70604 58.7512C3.8659 58.6288 4.17794 58.4918 4.39943 58.4465C4.62092 58.4011 4.83732 58.3071 4.88034 58.2375C4.92336 58.1679 5.08541 58.111 5.24063 58.111C5.39585 58.111 5.52272 58.0456 5.52272 57.9656C5.52272 57.8857 5.71892 57.8203 5.95873 57.8203C6.19853 57.8203 6.39473 57.7549 6.39473 57.675C6.39473 57.5951 6.52553 57.5297 6.6854 57.5297C6.84527 57.5297 6.97607 57.4643 6.97607 57.3844C6.97607 57.3045 7.17227 57.2391 7.41207 57.2391C7.65188 57.2391 7.84808 57.1737 7.84808 57.0938C7.84808 57.0139 8.01158 56.9485 8.21141 56.9485C8.41125 56.9485 8.57475 56.8831 8.57475 56.8032C8.57475 56.7232 8.73825 56.6579 8.93809 56.6579C9.13792 56.6579 9.30142 56.5925 9.30142 56.5125C9.30142 56.4326 9.46493 56.3672 9.66476 56.3672C9.8646 56.3672 10.0281 56.3018 10.0281 56.2219C10.0281 56.142 10.2243 56.0766 10.4641 56.0766C10.7039 56.0766 10.9001 56.0112 10.9001 55.9313C10.9001 55.8514 11.0309 55.786 11.1908 55.786C11.3506 55.786 11.4814 55.7206 11.4814 55.6407C11.4814 55.5608 11.6776 55.4954 11.9175 55.4954C12.1573 55.4954 12.3535 55.43 12.3535 55.3501C12.3535 55.2701 12.4524 55.2047 12.5735 55.2047C12.6944 55.2047 12.907 55.1471 13.0458 55.0764C13.1846 55.0058 13.4616 54.8826 13.6615 54.8027C13.8613 54.7229 14.4826 54.4812 15.0421 54.2657C15.6017 54.0504 16.1576 53.8178 16.2775 53.7487C16.3974 53.6799 22.5256 53.6196 29.8958 53.6149C39.6133 53.6087 43.4079 53.6518 43.7026 53.7721Z" fill="black"/>
</svg>
