<svg width="47" height="60" viewBox="0 0 47 60" fill="none" xmlns="http://www.w3.org/2000/svg">
<path fill-rule="evenodd" clip-rule="evenodd" d="M3.08071 3.08071L0 6.1614V30V53.8386L3.08071 56.9193L6.1614 60H23.4498H40.7382L43.8188 56.9193L46.8996 53.8386V30V6.1614L43.8188 3.08071L40.7382 0H23.4498H6.1614L3.08071 3.08071ZM38.0933 0.949782C38.0289 1.15795 37.0145 1.64988 32.4891 3.66787C31.8046 3.97298 30.5076 4.56275 29.607 4.97817C28.7063 5.39358 27.4389 5.96921 26.7904 6.25715C26.1419 6.54523 25.126 7.00559 24.5328 7.28018L23.4542 7.77957L22.6332 7.41275C22.1817 7.211 21.1784 6.75761 20.4039 6.40508C16.4768 4.61792 16.271 4.52528 12.5437 2.86703C11.8771 2.57044 10.8447 2.09882 10.2491 1.819C9.65373 1.53904 9.08239 1.31004 8.97956 1.31004C8.74977 1.31004 8.60253 1.09389 8.71179 0.917031C8.84214 0.706114 38.1587 0.738734 38.0933 0.949782ZM6.31479 1.5393C6.42378 1.66546 6.74883 2.2107 7.03691 2.75109C7.32499 3.29148 7.87272 4.29367 8.2542 4.97817C8.63569 5.66266 9.34217 6.95961 9.8244 7.86026C10.3065 8.76092 10.8934 9.84027 11.1287 10.2588C11.7363 11.3399 11.6755 11.3308 8.73904 9.90222C7.28293 9.19388 5.119 8.14403 3.93013 7.56918C0.713319 6.0135 0.75 6.46087 3.60537 3.60537C6.04978 1.16096 6.01243 1.18952 6.31479 1.5393ZM43.2942 3.60537C46.0826 6.3938 46.0383 6.12499 43.8741 7.12416C43.2685 7.40373 42.6698 7.68368 42.5437 7.74643C42.4175 7.80905 42.2113 7.91045 42.0852 7.97176C41.959 8.0332 40.429 8.78253 38.6848 9.63707C34.7198 11.5797 34.8546 11.9114 37.5629 6.87773C38.0669 5.94105 38.8319 4.51401 39.2632 3.70663C40.8253 0.782351 40.4798 0.791004 43.2942 3.60537ZM9.07061 2.14689C9.88205 2.53506 11.1059 3.10219 11.7904 3.40704C12.4749 3.71189 13.6539 4.24205 14.4105 4.58515C15.167 4.92825 16.3461 5.45882 17.0306 5.76419C18.6941 6.50633 21.0508 7.57639 21.607 7.84206C22.2725 8.15988 22.2235 8.28904 21.3195 8.59966C20.87 8.75424 20.0158 9.06367 19.4214 9.28743C18.827 9.51118 17.8837 9.86502 17.3253 10.0737C16.767 10.2824 15.9858 10.584 15.5895 10.7438C12.7622 11.8843 12.9193 11.9086 12.0178 10.1936C11.6272 9.45066 10.9952 8.28275 10.6133 7.59825C10.2313 6.91376 9.5814 5.73472 9.16899 4.97817C8.75659 4.22162 8.17715 3.16048 7.88121 2.62009C7.08562 1.16725 7.05157 1.18087 9.07061 2.14689ZM39.5633 1.54637C39.5633 1.6044 39.384 1.93467 39.1647 2.28039C38.9454 2.62624 38.4438 3.53673 38.05 4.30389C37.6562 5.07105 37.0409 6.19978 36.683 6.81223C36.325 7.42467 35.6472 8.66266 35.1766 9.56332C33.9283 11.9532 34.1881 11.785 32.5911 11.2369C31.8506 10.9827 30.9203 10.6435 30.524 10.483C30.1277 10.3225 29.3319 10.0153 28.7555 9.80044C28.179 9.58547 27.2358 9.23188 26.6594 9.0148C26.083 8.7976 25.4197 8.55236 25.1853 8.46996C24.9511 8.38756 24.7782 8.26073 24.8012 8.18841C24.8549 8.01902 24.641 8.11978 33.0458 4.30702C36.199 2.87659 37.446 2.30528 38.3188 1.89144C39.2586 1.44576 39.5633 1.36126 39.5633 1.54637ZM3.24105 8.13839C13.211 12.9224 12.3344 12.2714 11.7757 14.476C11.7027 14.7642 11.5914 15.2653 11.5284 15.5895C11.4654 15.9138 11.3475 16.4443 11.2664 16.7686C11.1853 17.0928 11.0674 17.6234 11.0044 17.9476C10.9414 18.2718 10.8234 18.8024 10.7424 19.1266C10.6613 19.4509 10.5434 19.9814 10.4803 20.3057C10.4173 20.6299 10.3031 21.1457 10.2266 21.452C10.15 21.7583 10.0247 22.2592 9.94808 22.5655C9.87157 22.8718 9.75734 23.3876 9.69432 23.7118C9.63131 24.036 9.51341 24.5666 9.43231 24.8908C9.35122 25.2151 9.23332 25.7456 9.17031 26.0699C8.67563 28.6145 8.64132 28.623 7.86237 26.3974C7.55975 25.5328 6.90497 23.6611 6.40716 22.238C5.90947 20.8149 5.08454 18.4568 4.57415 16.9978C4.06363 15.5388 3.23659 13.1365 2.73628 11.6594C2.23585 10.1823 1.70227 8.69816 1.55043 8.36135C1.00519 7.15126 1.14524 7.1328 3.24105 8.13839ZM45.5075 7.44051C45.5783 7.55501 45.5446 7.65393 41.5396 19.0939C40.5908 21.8042 39.2906 25.4933 38.7347 27.0524C38.3528 28.1235 38.0965 28.2331 37.9681 27.3799C37.9193 27.0557 37.8162 26.5399 37.7388 26.2336C37.3841 24.8285 37.3125 24.5259 37.2052 23.9738C37.1422 23.6496 37.0243 23.119 36.9432 22.7948C36.8621 22.4705 36.7442 21.94 36.6812 21.6157C36.5721 21.0541 36.4393 20.4882 36.1431 19.3231C36.0697 19.0349 35.9582 18.5338 35.8952 18.2096C35.8322 17.8854 35.7143 17.3548 35.6332 17.0306C35.5521 16.7063 35.4342 16.1758 35.3712 15.8515C35.3082 15.5273 35.1905 14.9967 35.1098 14.6725C34.5304 12.3447 34.0985 12.8035 39.2594 10.2658C45.4879 7.20328 45.3886 7.2482 45.5075 7.44051ZM23.9645 8.83793C24.1685 8.94339 24.5634 9.11515 24.8423 9.21956C25.1211 9.32397 25.821 9.58637 26.3974 9.80252C28.3766 10.5449 29.6737 11.0283 30.4258 11.3037C31.6998 11.7702 31.4112 11.7904 23.4498 11.7904C19.1987 11.7904 15.7205 11.7444 15.7205 11.6881C15.7205 11.577 16.0216 11.4439 17.6201 10.8482C18.1965 10.6334 19.1251 10.2859 19.6834 10.0759C20.2417 9.86608 21.1556 9.529 21.714 9.32699C22.2723 9.12498 22.8472 8.89101 22.9913 8.80691C23.34 8.60372 23.5226 8.60946 23.9645 8.83793ZM46.1135 30C46.1135 41.3843 46.0664 50.6987 46.0087 50.6987C45.8042 50.6987 45.5895 50.38 45.5895 50.0764C45.5895 49.9072 45.5035 49.6023 45.3983 49.3988C45.2932 49.1955 44.827 47.9161 44.3623 46.5561C43.8976 45.1958 43.1653 43.0808 42.7348 41.8559C41.9501 39.6225 41.75 39.0494 41.5003 38.3188C41.4264 38.1026 40.9551 36.7467 40.453 35.3057C39.9507 33.8646 39.3305 32.0813 39.0745 31.3428L38.6092 30L39.0745 28.6572C39.3305 27.9187 39.9507 26.1354 40.453 24.6943C40.9551 23.2533 41.4264 21.8974 41.5003 21.6812C41.7509 20.9479 41.951 20.3747 42.7349 18.1441C43.1654 16.9192 43.9995 14.5022 44.5884 12.7729C45.6971 9.51707 45.7842 9.30131 45.9903 9.30131C46.0668 9.30131 46.1135 17.1537 46.1135 30ZM1.74694 11.3422C2.09528 12.3453 2.78803 14.3302 3.28624 15.7533C3.78445 17.1764 4.61006 19.5345 5.12084 20.9935C5.63163 22.4524 6.42994 24.7592 6.89474 26.1194C7.35955 27.4795 7.82594 28.7588 7.93101 28.9622C8.03621 29.1656 8.12227 29.6325 8.12227 30C8.12227 30.3675 8.03621 30.8344 7.93101 31.0378C7.82594 31.2411 7.35955 32.5205 6.89474 33.8806C6.04518 36.3668 4.90559 39.635 3.40599 43.8865C2.96123 45.1474 2.2635 47.1471 1.85543 48.3302C1.44735 49.5135 1.03991 50.5058 0.949782 50.5356C0.819301 50.5785 0.786026 46.413 0.786026 30C0.786026 13.5869 0.819301 9.42145 0.949782 9.46455C1.03991 9.49429 1.3986 10.3393 1.74694 11.3422ZM33.5829 12.8166C33.7833 13.0379 33.7975 14.3883 33.7669 30.2074L33.7336 47.3581H23.4498H13.1659L13.1323 30.131C13.1137 20.6561 13.1266 12.8303 13.1608 12.7402C13.2774 12.434 33.3045 12.509 33.5829 12.8166ZM12.3144 30C12.3144 42.139 12.2648 44.1424 11.9968 42.8057C11.9498 42.5716 11.8585 42.1146 11.7937 41.7904C11.6807 41.2255 11.541 40.6335 11.2522 39.4978C11.1789 39.2096 11.0674 38.7085 11.0044 38.3843C10.9414 38.06 10.8234 37.5295 10.7424 37.2052C10.6613 36.881 10.5434 36.3504 10.4803 36.0262C10.4173 35.702 10.2994 35.1714 10.2183 34.8472C10.1372 34.5229 10.0193 33.9924 9.95633 33.6681C9.83672 33.0532 9.66801 32.3517 9.41255 31.4083C9.21617 30.6829 9.2201 29.3031 9.4208 28.559C9.50818 28.2347 9.63131 27.7041 9.69432 27.3799C9.75734 27.0557 9.87157 26.5399 9.94808 26.2336C10.0247 25.9273 10.15 25.4264 10.2266 25.1201C10.3031 24.8138 10.4173 24.298 10.4803 23.9738C10.5434 23.6496 10.6613 23.119 10.7424 22.7948C10.8234 22.4705 10.9414 21.94 11.0044 21.6157C11.0674 21.2915 11.1853 20.7609 11.2664 20.4367C11.3475 20.1124 11.4654 19.5819 11.5284 19.2576C11.5914 18.9334 11.7093 18.4028 11.7903 18.0786C11.8712 17.7544 11.97 17.3269 12.0098 17.1288C12.2633 15.8657 12.3144 18.0232 12.3144 30ZM34.8883 17.2598C34.926 17.5301 35.0243 18.0164 35.1067 18.3406C35.1891 18.6648 35.3082 19.1954 35.3712 19.5196C35.4342 19.8439 35.5521 20.3745 35.6332 20.6987C35.7143 21.0229 35.8322 21.5535 35.8952 21.8777C35.9582 22.202 36.0697 22.7031 36.1431 22.9913C36.4393 24.1563 36.5721 24.7222 36.6812 25.2838C36.7442 25.6081 36.8621 26.1386 36.9432 26.4629C37.0243 26.7871 37.1422 27.3177 37.2052 27.6419C37.2683 27.9662 37.3902 28.4967 37.4764 28.821C37.5625 29.1452 37.633 29.6758 37.633 30C37.633 30.3242 37.5625 30.8548 37.4764 31.179C37.3902 31.5033 37.2683 32.0338 37.2052 32.3581C37.1422 32.6823 37.028 33.1981 36.9515 33.5044C36.8748 33.8107 36.7496 34.3116 36.673 34.6179C36.5965 34.9242 36.4822 35.44 36.4192 35.7642C36.3562 36.0884 36.2383 36.619 36.1572 36.9432C36.0761 37.2675 35.9582 37.798 35.8952 38.1223C35.8322 38.4465 35.7143 38.9771 35.6332 39.3013C35.5521 39.6255 35.4342 40.1561 35.3712 40.4803C35.3082 40.8046 35.1891 41.3352 35.1067 41.6594C35.0243 41.9836 34.926 42.47 34.8883 42.7402C34.6454 44.4794 34.5852 41.9475 34.5852 30C34.5852 18.0525 34.6454 15.5206 34.8883 17.2598ZM8.7258 32.1187C8.82038 32.2719 8.95284 32.8114 9.17031 33.9301C9.23332 34.2544 9.35122 34.7849 9.43231 35.1092C9.51341 35.4334 9.63131 35.964 9.69432 36.2882C9.75734 36.6124 9.87524 37.143 9.95633 37.4672C10.0374 37.7915 10.1553 38.3221 10.2183 38.6463C10.2814 38.9705 10.3956 39.4863 10.4721 39.7926C10.5487 40.0989 10.674 40.5998 10.7506 40.9061C10.8271 41.2124 10.9414 41.7282 11.0044 42.0524C11.0674 42.3766 11.1853 42.9072 11.2664 43.2314C11.3475 43.5557 11.4654 44.0862 11.5284 44.4105C11.5914 44.7347 11.7117 45.2653 11.7956 45.5895C11.8796 45.9138 11.9771 46.4861 12.0122 46.8614L12.076 47.5437L9.73888 48.6825C8.45346 49.3087 7.25437 49.903 7.07424 50.003C6.8941 50.103 6.30458 50.3972 5.76419 50.6568C5.2238 50.9163 4.67856 51.1794 4.5524 51.2412C4.42624 51.303 4.22004 51.4043 4.09389 51.466C0.838952 53.0599 0.92933 53.5649 3.25937 46.8013C3.34007 46.5672 3.47216 46.1839 3.55285 45.9498C3.84106 45.1133 5.51791 40.3043 6.40796 37.762C6.90617 36.3389 7.56536 34.4526 7.87283 33.5699C8.42004 31.9994 8.53309 31.807 8.7258 32.1187ZM38.5038 32.2055C38.5745 32.3378 39.0723 33.7378 39.6101 35.3168C40.1479 36.8958 41.0057 39.3816 41.5166 40.8406C45.5337 52.3141 45.5783 52.445 45.5075 52.5595C45.3959 52.7401 45.0124 52.6676 44.6725 52.4017C44.4924 52.2608 44.2709 52.1442 44.1804 52.1426C43.9692 52.1389 34.8914 47.6012 34.8004 47.4538C34.7244 47.3308 34.8837 46.2362 35.1098 45.3275C35.1905 45.0033 35.3082 44.4727 35.3712 44.1485C35.4342 43.8242 35.5484 43.3085 35.6249 43.0022C35.7016 42.6959 35.8268 42.1949 35.9034 41.8886C35.98 41.5824 36.0942 41.0666 36.1572 40.7424C36.2202 40.4181 36.3381 39.8876 36.4192 39.5633C36.5003 39.2391 36.6182 38.7085 36.6812 38.3843C36.7442 38.06 36.8621 37.5295 36.9432 37.2052C37.0243 36.881 37.1422 36.3504 37.2052 36.0262C37.3124 35.4747 37.3812 35.1838 37.7387 33.7664C37.816 33.4601 37.9085 33.0033 37.9442 32.7511C38.0645 31.9026 38.2466 31.7249 38.5038 32.2055ZM31.179 48.3151C31.179 48.373 30.84 48.5435 30.4258 48.6941C30.0115 48.8445 29.3483 49.098 28.952 49.2573C28.1671 49.5727 26.7183 50.1175 25.4803 50.5626C25.048 50.7179 24.4212 50.9665 24.0874 51.1146L23.4806 51.3841L22.7118 51.0941C22.2891 50.9345 21.5011 50.6391 20.9607 50.4375C20.4203 50.2359 19.6539 49.9407 19.2576 49.7817C18.8614 49.6226 18.095 49.3279 17.5546 49.1269C16.0292 48.5592 15.7205 48.4221 15.7205 48.3119C15.7205 48.2556 19.1987 48.2096 23.4498 48.2096C27.7009 48.2096 31.179 48.257 31.179 48.3151ZM14.0175 48.6586C14.4858 48.8274 15.1932 49.0964 15.5895 49.2562C15.9858 49.416 16.767 49.7176 17.3253 49.9263C17.8837 50.135 18.827 50.4876 19.4214 50.7101C20.0158 50.9327 20.7326 51.2008 21.0143 51.3062C22.1674 51.7375 22.2601 51.9063 21.5175 52.2215C21.2473 52.3362 20.3924 52.7185 19.6179 53.0709C16.6259 54.4324 15.3485 55.0104 14.1485 55.5458C12.3384 56.3535 10.1794 57.3372 8.9391 57.9195C7.28569 58.696 7.18153 58.6256 7.9462 57.2489C8.20625 56.7806 8.71439 55.8668 9.07544 55.2183C9.99902 53.5593 11.1994 51.352 11.8896 50.0437C12.9265 48.0783 12.7414 48.1987 14.0175 48.6586ZM34.1896 48.6354C34.2951 48.7976 34.7727 49.667 35.2512 50.5677C35.7296 51.4683 36.4906 52.8832 36.9422 53.7118C37.3939 54.5404 38.1012 55.8507 38.5138 56.6238C38.9266 57.3967 39.34 58.1202 39.4324 58.2317C39.7703 58.6386 39.4021 58.5973 38.3485 58.11C37.7557 57.8358 36.6517 57.3308 35.8952 56.9878C35.1386 56.6449 33.8712 56.0692 33.0786 55.7087C32.286 55.348 31.0775 54.8032 30.393 54.4978C24.1627 51.7182 24.333 51.8277 25.58 51.4026C26.0295 51.2493 26.7216 50.9927 27.1179 50.8322C27.5142 50.6717 28.2954 50.3697 28.8537 50.161C29.4121 49.9524 30.3554 49.5991 30.9498 49.3758C34.086 48.1984 33.9289 48.2342 34.1896 48.6354ZM11.526 48.9629C11.5247 49.0169 11.3387 49.3854 11.1126 49.7817C10.6408 50.6087 9.52585 52.6539 8.2559 55.0218C6.49887 58.298 6.25886 58.69 6.01021 58.69C5.872 58.69 1.17904 54.0082 1.17904 53.8704C1.17904 53.8128 1.72428 53.5117 2.39083 53.2015C3.05738 52.8912 3.82376 52.5253 4.09389 52.3885C7.08039 50.8762 11.2095 48.8792 11.3646 48.8721C11.4548 48.868 11.5273 48.9089 11.526 48.9629ZM39.4323 50.7642C41.5209 51.809 43.2947 52.6638 43.3741 52.6638C43.4535 52.6638 43.675 52.773 43.8663 52.9066C44.0575 53.0403 44.3664 53.1863 44.553 53.2313C45.6735 53.5017 45.7587 53.9253 44.8647 54.7841C44.0238 55.592 44.1508 55.4645 42.3731 57.2817C40.6099 59.0838 40.772 59.144 39.1621 56.0885C38.6822 55.1776 37.9193 53.7544 37.467 52.9258C35.3029 48.9614 35.2562 48.8646 35.5031 48.8646C35.5756 48.8646 37.3437 49.7194 39.4323 50.7642ZM24.9216 52.9107C25.5172 53.1905 26.5496 53.6621 27.2162 53.9587C27.8827 54.2552 28.9732 54.7406 29.6397 55.0372C30.3063 55.3337 31.5884 55.9162 32.4891 56.3314C33.3897 56.7465 34.8046 57.3946 35.6332 57.7716C37.8973 58.8016 38.0348 58.8731 38.0916 59.0502C38.1334 59.1806 35.135 59.214 23.3952 59.214C13.5787 59.214 8.64629 59.1698 8.64629 59.082C8.64629 58.9514 9.64074 58.4543 12.0524 57.3794C12.7369 57.0743 13.9307 56.5369 14.7052 56.1853C15.4797 55.8335 16.7473 55.2582 17.5218 54.9064C18.2963 54.5548 19.4902 54.0172 20.1747 53.7118C20.8592 53.4064 21.7729 52.9902 22.2052 52.787C23.2564 52.2929 23.6449 52.3106 24.9216 52.9107Z" fill="black"/>
</svg>
