<svg id="Layer_1" data-name="Layer 1" xmlns="http://www.w3.org/2000/svg" viewBox="0 0 600 600"><defs><style>.cls-1{fill:#231f20;}</style></defs><path class="cls-1" d="M154.87,299.39V174.94c0-31.3,13.17-55.19,42.77-68.43A45,45,0,0,1,216,102.09H383.46c27.16,0,54.32,25.39,59.34,53.77A135.79,135.79,0,0,1,445,180.58V423.7a70.75,70.75,0,0,1-28.58,60.36,68,68,0,0,1-40.26,13.58c-50.78,0-101.84.61-152.35,0a67.9,67.9,0,0,1-67-57.1,207.22,207.22,0,0,1-1.9-26.68ZM296.63,414.81a85.43,85.43,0,0,0,15.48-1.29c20.37-5.71,41.35-8.83,61.85-13.58a7.82,7.82,0,0,0,6.79-7.81c3.12-22.47,3.19-45.22,6-67.89a139.5,139.5,0,0,0,1.36-26.07c-1.77-27.84-4.21-55.68-6.38-83.44-1.22-14.87-1.29-14.8-16.09-17l-3.87-.82c-19.83-4.34-39.58-8.76-59.41-13a14,14,0,0,0-5.84,0L230.3,198.3c-2.85.61-5.36,1.35-5.84,5.09-1.9,14.46-4.34,28.79-5.43,43.38a315,315,0,0,1-4.89,37.48,71.27,71.27,0,0,0-.81,26c2.85,16.5,5,33.07,6.24,49.77.88,12,3.33,23.76,5,35.57.34,2.65,2.1,3.26,4.14,4.35a72.2,72.2,0,0,0,17.24,3.66c17,4.21,34,7.74,50.72,11.34ZM300,177.18a38,38,0,0,0,6.18-1L371,153.15c1.22-.41,2.72-.61,2.85-2.24s-1.35-2-2.44-2.72c-21.73-12.69-43.38-25.32-65-38.15a8.52,8.52,0,0,0-9.3,0l-65,36.59c-1.63,1-4.54,1.09-4.41,3.33s3,2.65,5,3.39c14.39,5.3,28.58,10.86,43.11,15.75A154.22,154.22,0,0,0,300,177.18Zm-74.28,271.1c1.29,1.08,1.7,1.63,2.24,2q35.58,19.62,71,39.37a6,6,0,0,0,6.79-.4L369.68,452c1.5-.81,3.4-1.7,3.33-3.66s-2.44-2.31-3.94-2.86c-19.48-6.79-39.1-13.57-58.45-21a23.58,23.58,0,0,0-19.42,0c-5,2.31-10.25,3.8-15.34,5.63ZM189.56,384.8c.48-4,.61-6.18,1.09-8.29,4.89-22.26,9.91-44.53,14.87-66.87a39.84,39.84,0,0,0,.54-17.45c-5.57-25.39-11.07-50.85-16.63-76.78a12.48,12.48,0,0,0-3.26,6.11C179,243.24,172.05,265,164.71,286.63a35.27,35.27,0,0,0-.54,24.16c4.89,14,8.69,28.38,13.58,42.23A206.63,206.63,0,0,0,189.56,384.8ZM413,215.07a12.18,12.18,0,0,0-3.12,7.46c-2.92,17.39-7.2,34.49-10.73,51.74-2.38,11.34-5.91,22.4-3.19,34.62,2.31,10.66,5.56,21.12,6.79,31.91,1.69,13,6.79,25.26,7.53,38.36a4.82,4.82,0,0,0,2.79,3.94c.95-2.78,2-5.36,2.71-8.08,5.3-18.87,11.48-37.48,17.18-56.21,3.12-10.12,7.26-20.37,2.37-31.64a186.06,186.06,0,0,1-7.94-24.78c-4-15.62-9.37-31-14.39-47.19ZM218.89,188.79c-.81-9.91-1.76-20.37-2.64-31.23a7.9,7.9,0,0,0-5.5-6.79c-9.71-4.07-19.35-8.08-29.13-12-1.7-.68-3.39-3-5.23-1.49s0,3.67,0,5.57c4.14,17.11,9.44,33.94,12.83,51.32a5.65,5.65,0,0,0,6.34,4.84L196,199a118.27,118.27,0,0,0,18.13-2.92C217.87,195.17,219.44,193.14,218.89,188.79Zm0,220.86c.89-5-1.56-7.2-6.79-7.47a132.56,132.56,0,0,1-14.93-2,5.9,5.9,0,0,0-7.43,3.81c-.07.22-.13.44-.18.67-4.55,17.38-9,34.9-13.58,52.41-1.15,4.42,1.09,5,4.62,3.53l30.28-12.42a7.6,7.6,0,0,0,5.09-6.79c1.16-10.59,2-21,3-31.77Zm72.85-302a11.37,11.37,0,0,0-7.53-1.36H226.5c-3.87,0-7.81.82-11.68,1-5.36,0-6,2.92-4.62,7.4,2.85,9.1,5.57,18.26,8.22,27.16,1,3.53,2.44,4.48,6,2.44C246.53,132.31,268.73,120.22,291.74,107.66Zm21.8-1.43-.41,1.7,64,37.95c3.12,1.84,4.41,0,5.23-2.51,3-9.1,5.63-18.26,8.89-27.16,2.11-5.7.55-7.87-5.29-8.82a322.09,322.09,0,0,0-41.21-1C333.9,106,323.72,106.23,313.54,106.23ZM289.77,492c-.4-1-.47-1.36-.61-1.43l-65-36.59c-3.26-1.83-4.82,0-5.7,2.85-2.72,9.17-5.37,18.4-8.29,27.5-1.62,5.16,0,6.79,5.37,7.4,23.83,2.1,47.52.47,71.56.95A15.81,15.81,0,0,0,289.77,492Zm60.09.75a301,301,0,0,0,35.91-1.16c5.37-.74,7.47-2.58,5.5-8.14-2.44-6.79-4.68-13.58-6.79-20.37-3-11.48-3.19-11.68-13.58-6-.74.4-1.56.74-2.3,1.22L317.81,488c-1.29.75-3.26,1.43-2.92,3.2s2.72,1.63,4.35,1.63Zm35-67.9h0v15.69c0,2.37,0,5.23,2.58,6.18q17.52,6.45,35.24,12.28c2.71.89,4.14,0,3.12-3.46s-1.9-7.13-3.05-10.59c-4.48-13.58-6-27.77-11.68-40.73-4-9.24-11.47-1.29-17.31-2.38-3.19-.61-7.81-.48-8.63,4.68a20,20,0,0,0,0,3.94Zm0-250h0v15c0,2.17,0,4.82,2,5.9a43.66,43.66,0,0,0,21.66,3.2c2,0,2.24-2.38,2.78-4,5.84-16.57,9.17-33.95,14.4-50.72,1.15-3.73,0-4.82-3.67-3.46-8.42,3-17,5.37-25.39,8.56-11.95,4.48-11.88,4.68-11.82,17.72Zm-4.14.89h0V163.33c0-6.79-1.15-7.53-7.81-5.23l-20.36,7.13-36.6,12.7c-1.22.41-3.39.54-2.92,2.71s2.11,1.36,3.33,1.43a109,109,0,0,1,18,3.53c13.58,2.92,27.16,5.64,40.74,8.49,4.14.88,5.63-.82,5.43-4.82s.13-9.24.13-13.79ZM311.84,419c20.37,9.23,42.09,14.32,62.12,23.22,3.53,1.56,6.79.54,6.79-4.28v-29.2c0-4-2-4.61-5.64-3.73C354.27,410,333,413,311.84,419ZM222,166.32c-.61,5.77,2.37,12.9,2.51,20.37s2.38,8.62,9,6.79a502.16,502.16,0,0,1,51-11.34c1.29,0,2.92,0,3.19-1.63a2.32,2.32,0,0,0-2.44-2.58L270.9,173c-14.33-5.23-28.72-10.32-43-15.75-5.43-2-6.79,0-6,4.82C222,162.86,222,163.74,222,166.32Zm67.21,253.1c-13.58-5.36-27.16-6.11-40.73-9.71-6.79-1.83-13.58-2.58-20.37-3.93-2-.41-3.74-.55-3.6,2,.34,10.12-3.19,19.83-2.72,29.88,0,5.36,3,5.77,6.79,4.27ZM162.88,322.2h-1.49v80.52c0,3.87,1.63,4.55,4.89,2.79a108.75,108.75,0,0,1,13.57-6.79,6.77,6.77,0,0,0,4.28-10.32Q173.48,355.4,162.88,322.2Zm-1.56-45.56H163c.88-2.91,1.56-5.83,2.65-8.69,6.31-17.1,10.66-34.89,17.17-52,4.28-11.27,3.47-12-7.26-17.65l-7.47-4c-5.77-2.92-6.79-2.44-6.79,4.14v62.06Zm48.48,44.47a5.67,5.67,0,0,0-2.65,4.89c-3.06,14-6.11,28-8.9,42.1a106.51,106.51,0,0,0-4.34,21.72c0,3.53,1.15,5.37,4.68,5.77,4.76.48,9.58,1,14.33,1.7s5.91-.88,5.43-5.77c-1.63-16-4.41-31.91-5-48.14A132.06,132.06,0,0,0,209.8,321.11Zm-1.29-43a73.44,73.44,0,0,0,4.82-22.34c.95-13.91,2.58-27.76,4.27-41.61s1.5-14.19-12.56-11.07c-12.62,2.85-13.17,4.21-9.5,17.38a215.79,215.79,0,0,1,5.5,25.39C202.87,256.75,206,267.34,208.51,278.07Zm229.2,46.44c-1.22,0-1.42,1-1.63,1.83-5.16,17.45-11.47,34.63-15.75,52.35-1.29,5.43-6.45,10.93-4,15.88S425.9,401,430.85,404l.61.34c6.79,3.46,7.2,3.19,7.2-4.34V329.94C438.66,328.11,439.41,326.07,437.71,324.51ZM437,274.68h1.77V197.75c0-4.55-1.36-6.24-5.84-3.66l-13.58,7.81c-3.32,1.83-4.07,4.07-2.78,8.07,6,18.81,11.47,37.89,17.24,56.76A66,66,0,0,0,437,274.68ZM392.16,320c-.41,23.29-4.28,46.37-5.37,69.66,0,7.19,0,7.67,6.79,6.79,14.94-2.18,14.6-2.18,11.95-16.91C401.8,359.47,397,339.92,392.16,320Zm0-39.72c1.42-5.43,3-10.79,4.2-16.23,3.47-16.43,6.79-32.86,10.19-49.22,2.17-9.5,2.65-9.3-6.79-10.72-2.78-.41-5.5-1.23-8.35-1.77-3.87-.75-5.7.68-5.37,5,2.18,24.23,5.57,48.4,6.25,73ZM161.32,426.48a61.16,61.16,0,0,0,4.75,29.33c.55,1.29,1.22,3.06,3.13,2.86s1.76-1.77,2.1-3c3.8-14.33,6.79-28.79,11.54-42.91.88-2.72,2.45-6.79.41-8.69s-5.23,1.7-7.94,2.72c-9.17,3.73-17.93,8.14-13.79,19.68Zm0-256v9.85a7.54,7.54,0,0,0,4.55,7.26c3.67,1.9,7.2,4.14,11,5.84,2,.88,4.41,3.26,6.79,1.63s.4-4.21,0-6.18c-3.74-14.8-7.67-29.47-11.61-44.2-.41-1.63,0-4.07-2.24-4.28s-3.06,2.11-3.81,3.87a59.63,59.63,0,0,0-4.61,26.21Zm226.9-29.13c-.61,3.2-.68,5.5,2.51,4.42,10.66-3.53,21-7.2,31.43-10.93,2.92-1,4.62-2.72,2-5.77a59.67,59.67,0,0,0-21.45-16.57c-2.45-1-4.89-1.15-5.91,2C393.92,123.61,391.07,133.05,388.22,141.33ZM425.49,468.1c0-2.85-1.83-3.12-3.39-3.66-10.05-3.6-20.37-7.2-30.22-10.66-3.8-1.29-4.68.47-3.53,4,2.72,8.69,5.37,17.45,8.08,26.14,1.16,3.6,3.8,4.07,6.79,2.45A76.19,76.19,0,0,0,423.59,471a20.93,20.93,0,0,0,2.1-2.85Zm-212-326.43a242.44,242.44,0,0,1-9.37-28.31c-.81-2.31-2.51-2.71-4.75-1.9a60.29,60.29,0,0,0-21.59,14.46c-1.9,2-2.51,4.48.68,5.84,10.59,4.42,21.32,8.62,32,13C212.85,145.61,213.87,144.87,213.46,141.67ZM176.87,470.82a11.16,11.16,0,0,0,1.22,1.9,62.85,62.85,0,0,0,19.55,14c3.67,1.77,6.18,0,7.47-3.8a232.33,232.33,0,0,1,7.94-24.85c1.36-2.85,0-5.16-3.53-3.8-10.11,4.14-20.36,8.55-30.07,12.9C178.09,467.76,176.46,468.44,176.87,470.82Zm240-274.76a76.35,76.35,0,0,0,18.87-9.51,5.63,5.63,0,0,0,2.72-5c0-12.16,1.36-24.38-3.87-36-.55-1.15-.61-2.78-2.24-2.71s-1.9,1.69-2.24,2.92c-2,6.79-3.87,14.19-5.71,21.31C422.16,176.44,419.58,185.8,416.87,196.06Zm-.55,206.46c5.16,18.33,9.78,35,14.47,51.73a2.29,2.29,0,0,0,1.63,1.7c1.69,0,1.62-1.63,2.17-2.78,5.23-11.34,4.14-23.43,4.07-35.38a5.15,5.15,0,0,0-2.92-5A133.2,133.2,0,0,0,416.32,402.52Z"/></svg>