<svg width="60" height="60" viewBox="0 0 60 60" fill="none" xmlns="http://www.w3.org/2000/svg">
<path fill-rule="evenodd" clip-rule="evenodd" d="M27.6472 0.119097C27.5787 0.186028 27.0501 0.270413 26.4726 0.306503C25.343 0.376977 24.2017 0.545353 23.2574 0.780923C22.9325 0.861896 22.4601 0.976727 22.2075 1.03605C21.7847 1.13539 19.9062 1.77714 18.5638 2.28096C17.0367 2.85393 12.8811 5.15188 12.496 5.63641C12.4599 5.68169 12.2236 5.86082 11.971 6.03432C11.7184 6.20781 11.4822 6.38498 11.4461 6.42803C11.41 6.47107 11.1738 6.65074 10.9211 6.82725C10.325 7.24379 7.14361 10.4252 6.72707 11.0213C6.55056 11.2739 6.37089 11.5102 6.32785 11.5462C6.2848 11.5823 6.10763 11.8186 5.93414 12.0712C5.76064 12.3238 5.58151 12.5601 5.53623 12.5961C4.52269 13.4021 1.57446 19.6277 0.93718 22.3076C0.877074 22.5603 0.761717 23.0327 0.680744 23.3575C-0.224525 26.9882 -0.227281 33.149 0.674707 36.7108C0.752399 37.0175 0.867231 37.4901 0.929831 37.7607C1.03377 38.2097 1.65688 40.0411 2.1813 41.4389C2.6342 42.6459 4.69107 46.4824 5.01142 46.7176C5.06063 46.7537 5.35775 47.1671 5.67167 47.6363C5.98558 48.1054 6.27929 48.5188 6.32431 48.5549C6.36932 48.591 6.55056 48.8272 6.72707 49.0799C7.14361 49.676 10.325 52.8574 10.9211 53.2739C11.1738 53.4504 11.41 53.6301 11.4461 53.6732C11.4822 53.7162 11.7184 53.8946 11.971 54.0696C12.2236 54.2447 12.5292 54.478 12.6499 54.5883C13.2734 55.1572 17.2308 57.3203 18.5615 57.8194C19.961 58.3444 21.7913 58.9672 22.2403 59.0712C22.511 59.1338 22.9833 59.2486 23.2902 59.3263C26.3658 60.1052 32.0305 60.2303 35.1671 59.5885C35.5459 59.5109 36.1365 59.3922 36.4794 59.3246C37.8873 59.0468 38.924 58.7256 41.3381 57.82C42.2458 57.4793 44.7868 56.1716 45.5676 55.6431C45.9645 55.3745 46.4757 55.059 46.7034 54.9419C46.9312 54.8249 47.197 54.652 47.294 54.5577C47.3911 54.4635 47.6772 54.2434 47.9298 54.0688C48.1824 53.8942 48.4777 53.657 48.586 53.5419C48.6943 53.4268 48.9895 53.1882 49.2422 53.0116C49.8376 52.5956 52.4954 49.9378 52.9114 49.3424C53.0881 49.0897 53.328 48.7944 53.4448 48.6862C53.5616 48.5779 53.9143 48.1054 54.2286 47.6363C54.5428 47.1671 54.8402 46.7537 54.8894 46.7176C55.2098 46.4824 57.2666 42.6459 57.7195 41.4389C58.6258 39.0231 58.9465 37.9876 59.2244 36.5796C59.292 36.2367 59.4108 35.6461 59.4883 35.2672C60.0364 32.5887 60.0383 27.486 59.4925 24.8668C59.4173 24.5058 59.2986 23.9153 59.2286 23.5544C58.9528 22.132 58.6366 21.107 57.7193 18.6616C57.2202 17.331 55.057 13.3736 54.4881 12.7501C54.3778 12.6293 54.1444 12.3238 53.9693 12.0712C53.7942 11.8186 53.5568 11.5233 53.4417 11.415C53.3266 11.3067 53.0881 11.0115 52.9114 10.7588C52.4954 10.1634 49.8376 7.50561 49.2422 7.08959C48.9895 6.91295 48.6943 6.67436 48.586 6.55926C48.4777 6.44417 48.1824 6.20676 47.9298 6.03169C47.6772 5.85662 47.3717 5.62315 47.2509 5.51292C46.6274 4.94401 42.67 2.78083 41.3394 2.28174C39.9916 1.77609 38.1162 1.13539 37.6934 1.03605C37.4407 0.976727 36.9683 0.861896 36.6435 0.780923C35.6991 0.545353 34.5579 0.376977 33.4282 0.306503C32.8507 0.270413 32.3221 0.186028 32.2536 0.119097C32.0909 -0.039699 27.8099 -0.039699 27.6472 0.119097ZM28.7304 0.994313C28.7564 1.07345 28.5541 1.36873 28.2807 1.6505C28.0073 1.93226 27.6392 2.36954 27.4626 2.62217C27.2859 2.8748 27.1063 3.11103 27.0632 3.14712C27.0202 3.18321 26.8425 3.41943 26.6682 3.67206C26.494 3.92469 26.1994 4.27903 26.0133 4.45948C25.8272 4.63993 25.5326 4.99427 25.3584 5.2469C25.1842 5.49953 25.0049 5.73575 24.9599 5.77185C24.9149 5.80794 24.6212 6.22133 24.3072 6.6905C23.9933 7.15967 23.698 7.57307 23.6511 7.60916C23.6041 7.64525 23.3147 8.04735 23.0077 8.50261C22.4639 9.30945 22.2538 9.43111 22.0712 9.04488C22.022 8.94094 21.612 8.05864 21.1599 7.08421C20.708 6.10978 20.1032 4.81251 19.8161 4.20147L19.2941 3.09042L19.6415 2.7916C19.8326 2.62729 20.1485 2.45983 20.3435 2.41941C20.5387 2.37899 20.9935 2.25379 21.3544 2.14106C21.7153 2.02833 22.2468 1.88108 22.5356 1.81375C22.8243 1.74656 23.2967 1.63068 23.5854 1.55627C24.3841 1.35049 25.5627 1.17476 26.823 1.07332C27.4488 1.02292 28.0075 0.934994 28.0644 0.877775C28.2059 0.735646 28.6722 0.817275 28.7304 0.994313ZM34.3054 1.19655C34.427 1.25889 34.7476 1.30981 35.0178 1.30981C35.2882 1.30981 35.6907 1.36492 35.9124 1.43212C36.134 1.49944 36.5811 1.62215 36.9059 1.70483C37.8363 1.94184 40.8972 2.92244 41.0151 3.02139C41.1108 3.10171 40.6903 4.08165 39.68 6.13275C39.6178 6.25913 39.2509 7.02686 38.8645 7.83882C38.4783 8.65091 38.1305 9.31431 38.0918 9.31326C37.9188 9.30827 37.7008 9.06089 37.1684 8.26534C36.8545 7.79617 36.5608 7.38277 36.5158 7.34668C36.4708 7.31059 36.292 7.07437 36.1185 6.82174C35.945 6.56911 35.7679 6.33288 35.7248 6.29679C35.6818 6.2607 35.5046 6.02448 35.331 5.77185C35.1575 5.51922 34.9213 5.22393 34.8062 5.11566C34.6911 5.00739 34.4548 4.71211 34.2812 4.45948C34.1076 4.20685 33.8714 3.91157 33.7563 3.8033C33.6412 3.69503 33.4034 3.40119 33.2279 3.15027C33.0523 2.89934 32.5679 2.34802 32.1514 1.92491C31.7348 1.5018 31.394 1.1014 31.394 1.03526C31.394 0.889193 33.9861 1.0329 34.3054 1.19655ZM31.4902 2.58936C32.2696 3.36536 33.0511 4.20685 33.2271 4.45948C33.403 4.71211 33.6412 5.00739 33.7563 5.11566C33.8714 5.22393 34.1076 5.51922 34.2811 5.77185C34.4547 6.02448 34.6319 6.2607 34.6749 6.29679C34.718 6.33288 34.8951 6.56911 35.0686 6.82174C35.2421 7.07437 35.4193 7.31059 35.4623 7.34668C35.5054 7.38277 35.6826 7.619 35.8561 7.87163C36.0295 8.12426 36.2088 8.36048 36.2544 8.39657C36.4238 8.53057 37.2997 9.90724 37.2997 10.0394C37.2997 10.1655 36.9647 10.2798 35.528 10.6436C35.2392 10.7168 34.8216 10.8317 34.6 10.899C34.3783 10.9662 34.0613 11.0213 33.8954 11.0213C33.7296 11.0213 33.2317 11.135 32.7892 11.2739C32.3467 11.4129 31.5564 11.6592 31.0329 11.8212L30.0813 12.1157L28.4081 11.5788C27.488 11.2835 26.4842 10.9781 26.1774 10.9003C25.8705 10.8225 25.3687 10.6958 25.0619 10.6187C24.755 10.5416 24.3227 10.4235 24.1011 10.3562C23.8794 10.289 23.5728 10.2339 23.4198 10.2339C23.2668 10.2339 23.1059 10.1761 23.0623 10.1055C22.9949 9.99661 24.1843 8.06494 24.4377 7.87163C24.4851 7.83554 24.781 7.42214 25.0952 6.95297C25.4095 6.4838 25.7623 6.01135 25.8791 5.90308C25.9959 5.79481 26.2334 5.49953 26.407 5.2469C26.5807 4.99427 26.8169 4.69899 26.932 4.59072C27.0471 4.48245 27.2838 4.18716 27.4581 3.93453C27.6323 3.6819 27.927 3.32757 28.1131 3.14712C28.2992 2.96667 28.5945 2.61233 28.7693 2.3597C29.1343 1.83239 29.7935 1.17857 29.9601 1.17857C30.0223 1.17857 30.7109 1.81336 31.4902 2.58936ZM19.1762 4.75476C19.5608 5.56685 20.2245 6.95796 20.6509 7.8463C21.4563 9.52416 21.4955 9.79398 20.9126 9.64581C20.7225 9.59752 20.2274 9.50329 19.8124 9.43662C19.3974 9.36982 18.6887 9.25355 18.2376 9.17822C16.9926 8.97021 15.4798 8.79252 13.8083 8.65826C10.4202 8.38594 10.5269 8.42886 11.282 7.64393C12.2418 6.6464 17.6459 3.30775 18.3407 3.28321C18.4155 3.28045 18.7915 3.9428 19.1762 4.75476ZM43.3644 4.1453C44.3909 4.66093 47.2026 6.42855 47.4049 6.68538C47.441 6.73131 47.6772 6.91072 47.9298 7.08434C48.1824 7.25784 48.4777 7.49616 48.586 7.61375C48.6943 7.73147 48.9474 7.93436 49.1486 8.06481C49.7497 8.45445 49.5157 8.58687 48.0505 8.68582C47.2984 8.73674 46.1959 8.84002 45.6004 8.91548C45.0048 8.99094 44.0599 9.10919 43.5006 9.17822C42.9412 9.24712 42.1145 9.36523 41.6633 9.44069C41.2122 9.51602 40.5035 9.62757 40.0884 9.68847C39.6733 9.74936 39.2304 9.84424 39.1042 9.89936C38.6834 10.0828 38.6267 10.2247 40.8049 5.64061C41.9722 3.18373 41.7306 3.32481 43.3644 4.1453ZM13.6115 9.43925C15.743 9.6298 18.473 9.98296 19.6484 10.2201C21.7014 10.6343 21.621 10.5386 20.8792 11.6858C20.0329 12.9944 18.4327 15.6717 18.1799 16.2019C17.9999 16.5793 17.7323 16.7965 16.8975 17.2427C14.2858 18.6384 12.7034 19.5438 11.5996 20.2743C10.8907 20.7434 10.7043 20.5999 10.6097 19.5118C10.5709 19.0645 10.4748 18.2557 10.3963 17.7144C10.0183 15.1056 9.7064 9.81721 9.90614 9.40434C10.0323 9.14357 10.3391 9.14646 13.6115 9.43925ZM49.9421 11.6885C49.9178 14.3458 49.7671 15.9559 49.243 19.158C49.1662 19.6271 49.0695 20.2472 49.028 20.5359C48.9168 21.3118 48.8168 21.3343 47.9753 20.7726C47.0455 20.1519 44.331 18.5443 43.3365 18.0254C42.639 17.6613 42.5857 17.5938 41.7516 16.0083C41.2768 15.106 40.6335 13.9249 40.322 13.3836C38.6959 10.5575 38.6946 10.6975 40.3509 10.4692C40.766 10.412 41.4747 10.304 41.9257 10.2293C43.9935 9.8869 46.0592 9.63965 48.2147 9.47678C48.9128 9.42403 49.5291 9.33531 49.5844 9.27966C49.9006 8.96181 49.9629 9.3819 49.9421 11.6885ZM51.6044 10.5099C51.8571 10.8046 52.1832 11.1733 52.3291 11.3289C52.4751 11.4846 52.7379 11.8186 52.9134 12.0712C53.0887 12.3238 53.2697 12.5601 53.3156 12.5961C53.3614 12.6322 53.8159 13.2857 54.3255 14.0481C56.3007 17.0035 56.8897 18.633 55.9825 18.633C55.8864 18.633 55.3197 18.8628 54.7233 19.1437C54.1267 19.4246 53.1957 19.8446 52.6543 20.0771C52.113 20.3096 51.2973 20.6715 50.8417 20.8815C49.8806 21.3244 49.71 21.2803 49.8246 20.6189C50.4687 16.8986 50.6845 14.9934 50.7628 12.3337C50.8423 9.63938 50.848 9.62718 51.6044 10.5099ZM8.90166 10.3323C8.96124 10.4587 9.05363 11.4183 9.10691 12.4649C9.19904 14.2754 9.29668 15.3194 9.60981 17.8456C9.68593 18.4591 9.78121 19.3361 9.8215 19.7943L9.89472 20.6276L9.45653 20.5332C9.21544 20.4812 8.86294 20.3594 8.67305 20.2625C8.48328 20.1655 8.09941 20.0006 7.82001 19.896C7.54074 19.7914 6.81014 19.5178 6.19661 19.2879C5.58308 19.058 4.71259 18.7385 4.26232 18.5779C3.81191 18.4173 3.40967 18.252 3.3682 18.2107C3.23329 18.0757 5.44712 13.912 5.79529 13.646C5.84254 13.6099 6.02312 13.3737 6.19661 13.1211C6.37011 12.8685 6.54728 12.6322 6.59032 12.5961C6.63337 12.5601 6.81054 12.3238 6.98416 12.0712C7.15766 11.8186 7.39388 11.5233 7.50898 11.415C7.62407 11.3067 7.8603 11.0115 8.03379 10.7588C8.51727 10.0551 8.72305 9.95396 8.90166 10.3323ZM23.8479 11.1561C24.0645 11.2166 24.5074 11.3336 24.8322 11.4165C25.4103 11.5637 26.5705 11.8876 27.6901 12.2142C28.4867 12.4467 28.34 12.5977 26.7901 13.1412C25.2317 13.6876 23.6537 14.2733 22.6012 14.6961C22.2042 14.8555 21.6535 15.0696 21.3775 15.1717C21.1017 15.2739 20.5776 15.5085 20.2133 15.6932C19.1999 16.2067 19.2066 15.9694 20.2545 14.2266C22.4132 10.6365 22.3081 10.7263 23.8479 11.1561ZM38.5173 11.8415C38.7635 12.2927 39.2199 13.1047 39.5316 13.646C41.4235 16.9323 41.4234 16.9309 39.6909 16.1155C36.7765 14.7438 33.3817 13.2838 32.3127 12.9425C31.3483 12.6345 31.5241 12.4183 33.0345 12.0544C33.3232 11.9848 33.7956 11.8679 34.0844 11.7945C34.3731 11.7211 34.8751 11.6094 35.1999 11.5462C36.3764 11.3175 36.9179 11.1843 36.9986 11.1036C37.3955 10.7067 38.0792 11.039 38.5173 11.8415ZM30.8192 13.2375C31.2436 13.3737 31.7976 13.5739 32.0502 13.6823C32.4787 13.866 32.772 13.9854 34.5765 14.7102C36.1572 15.3452 37.2279 15.8311 39.4774 16.9346C42.129 18.2354 41.8574 17.9717 42.7822 20.1422C42.9974 20.6475 43.3549 21.4743 43.5764 21.9795C44.0701 23.1052 44.2719 23.662 45.5861 27.5278L46.6247 30.5826L46.11 32.0555C45.3913 34.112 45.065 35.0094 44.7877 35.6938C44.6561 36.0186 44.4173 36.6091 44.2569 37.0061C43.9322 37.8101 43.0574 39.7899 42.6471 40.649C42.3608 41.2486 41.7307 41.6045 37.759 43.4102C36.4151 44.0211 35.9324 44.2254 34.2156 44.9104C33.8547 45.0543 33.3591 45.2571 33.1145 45.3609C29.3509 46.9586 28.6412 46.9423 24.2088 45.1577C22.573 44.4991 22.1136 44.3174 21.6455 44.1439C21.3724 44.0428 20.6207 43.6946 19.9749 43.3703C19.3289 43.0459 18.739 42.7805 18.6639 42.7805C18.2595 42.7805 17.5049 42.0719 17.2276 41.4315C17.0643 41.0548 16.7068 40.2444 16.4331 39.6309C16.1593 39.0173 15.8111 38.2052 15.6593 37.8264C15.5074 37.4475 15.2686 36.8569 15.1284 36.514C14.8078 35.7295 14.4518 34.7369 13.9396 33.2003C13.8674 32.9837 13.7539 32.6441 13.6873 32.4457C12.962 30.2831 12.8779 29.6581 13.2225 28.9915C13.3334 28.7772 13.5927 28.0862 13.799 27.456C14.1888 26.2649 14.2808 26.0349 15.1501 24.0793C17.3912 19.038 18.4275 17.2745 19.3483 16.9349C19.5855 16.8475 20.2816 16.5503 20.8951 16.2746C22.2534 15.6641 23.0945 15.318 24.0448 14.9787C24.4418 14.837 25.0619 14.6027 25.4228 14.4583C26.0318 14.2143 26.2635 14.1313 27.3257 13.7773C27.5422 13.7051 27.8819 13.5901 28.0803 13.5218C29.7656 12.9417 29.8654 12.9315 30.8192 13.2375ZM16.958 18.3037C16.958 18.3392 16.5512 19.2103 16.0538 20.2395C15.0891 22.2361 14.2617 24.0612 13.8373 25.1292C13.6939 25.4901 13.4567 26.0807 13.3103 26.4416C13.164 26.8025 12.9726 27.2898 12.8853 27.5243C12.6512 28.1533 12.3414 28.0213 12.1924 27.229C12.1517 27.0125 12.052 26.5695 11.9709 26.2447C11.8898 25.9199 11.7717 25.3884 11.7085 25.0636C11.6454 24.7388 11.5273 24.2073 11.4461 23.8825C11.3648 23.5577 11.2514 23.0262 11.1941 22.7013C11.1367 22.3765 11.0497 22.0185 11.0008 21.9057C10.8861 21.641 11.0845 21.4786 12.6886 20.5257C14.9734 19.1683 16.958 18.1355 16.958 18.3037ZM4.22807 19.4231C5.10171 19.7706 6.61001 20.3355 8.05098 20.8549C9.42713 21.3508 9.5207 21.4484 9.0182 21.8642C8.80166 22.0433 8.46713 22.3289 8.27474 22.4987C8.08222 22.6687 7.55071 23.0599 7.09361 23.368C6.63639 23.6763 6.2327 23.9652 6.19661 24.0102C6.16052 24.0552 5.9243 24.2348 5.67167 24.4095C5.41904 24.5842 5.00564 24.9376 4.75301 25.1948C4.50038 25.4521 4.08895 25.8068 3.83869 25.9829C3.58842 26.159 2.85848 26.8243 2.21674 27.4613C1.09781 28.5717 0.69518 28.7998 0.798069 28.2647C0.824317 28.1282 0.895053 27.5144 0.955159 26.9009C1.08351 25.593 1.26461 24.4328 1.46213 23.6528C1.53982 23.346 1.65964 22.8737 1.72854 22.6029C1.79744 22.3323 1.90557 21.8746 1.96896 21.5858C2.03222 21.2971 2.18248 20.8719 2.30296 20.6409C2.42343 20.4098 2.52225 20.1441 2.52252 20.0504C2.52278 19.9565 2.64378 19.6817 2.79129 19.4396C3.08447 18.9587 3.06177 18.959 4.22807 19.4231ZM44.2354 19.4658C44.6433 19.7073 45.3609 20.1283 45.83 20.4013C48.1664 21.761 48.744 22.2027 48.6542 22.5609C48.6078 22.7465 48.5181 23.164 48.4549 23.4888C48.3439 24.0594 48.1789 24.7603 47.9298 25.7198C47.8642 25.9724 47.7555 26.4153 47.6883 26.7041C47.1517 29.0078 46.9853 29.0141 46.2041 26.7593C45.5589 24.8973 44.9961 23.3683 44.5175 22.1764C44.3581 21.7794 44.144 21.2287 44.0419 20.9528C43.9397 20.6769 43.7096 20.1621 43.5308 19.8089C43.0398 18.8401 43.1159 18.803 44.2354 19.4658ZM57.1144 19.4169C57.2892 19.7434 58.0279 21.9484 58.1817 22.6029C58.2454 22.8737 58.3617 23.346 58.4401 23.6528C58.6017 24.2839 58.7794 25.5241 58.9434 27.1634C59.0049 27.7769 59.0765 28.3907 59.1028 28.5272C59.1852 28.9557 58.8823 28.8968 58.3505 28.3809C58.0687 28.1075 57.6315 27.7394 57.3788 27.5627C57.1262 27.386 56.8309 27.1472 56.7227 27.0322C56.6144 26.9171 56.3191 26.6808 56.0665 26.5072C55.8138 26.3336 55.5186 26.0974 55.4103 25.9823C55.302 25.8672 55.0067 25.6309 54.7541 25.4574C54.5015 25.2838 54.2653 25.1067 54.2292 25.0636C54.1931 25.0206 53.9568 24.8425 53.7042 24.6679C53.4516 24.4933 53.181 24.2888 53.1028 24.2135C53.0247 24.1381 52.4209 23.7228 51.761 23.2905C50.1363 22.226 50.1039 22.0801 51.3706 21.531C52.8126 20.9058 54.4626 20.1601 55.4759 19.6756C56.6854 19.0971 56.9232 19.0595 57.1144 19.4169ZM10.4348 22.909C10.4926 23.1918 10.5943 23.6889 10.6608 24.0137C10.7272 24.3385 10.8387 24.8996 10.9087 25.2605C10.9786 25.6214 11.0959 26.1529 11.1694 26.4416C11.5997 28.1345 11.8461 29.1482 11.9306 29.5738C11.9778 29.8113 11.8578 30.4163 11.6054 31.2143C11.3853 31.9096 11.078 32.9214 10.9222 33.4627C10.7665 34.0041 10.5253 34.8091 10.3863 35.2516C10.2474 35.6942 10.1337 36.2138 10.1337 36.4065C10.1337 36.7435 9.80548 37.5311 9.66506 37.5311C9.54669 37.5311 7.58365 36.1826 7.37774 35.9599C7.26947 35.8427 6.97419 35.6049 6.72156 35.4313C6.46893 35.2577 6.17365 35.0214 6.06538 34.9063C5.95711 34.7912 5.66182 34.5538 5.40919 34.3788C5.15656 34.2037 4.68411 33.7915 4.3593 33.4627C4.03449 33.134 3.56204 32.7203 3.30941 32.5437C1.98195 31.6151 0.792295 30.0737 1.10293 29.6848C1.49651 29.192 3.14589 27.5969 3.57188 27.297C3.82451 27.1193 4.29696 26.7047 4.62178 26.376C4.94659 26.0472 5.41904 25.635 5.67167 25.4599C5.9243 25.2849 6.21958 25.0475 6.32785 24.9324C6.43612 24.8173 6.7314 24.581 6.98403 24.4076C7.23666 24.2339 7.47289 24.0526 7.50898 24.0045C8.25781 23.0061 10.2984 22.242 10.4348 22.909ZM50.9494 23.7065C51.5623 24.115 52.0933 24.4885 52.1294 24.5366C52.1655 24.5847 52.5789 24.8812 53.048 25.1954C53.5172 25.5097 53.9897 25.8624 54.0979 25.9792C54.2062 26.096 54.5015 26.3336 54.7541 26.5071C55.0067 26.6807 55.243 26.8579 55.2791 26.9009C55.3151 26.944 55.5514 27.1223 55.804 27.2974C56.0566 27.4723 56.5291 27.8845 56.8539 28.2133C57.1787 28.542 57.6511 28.9542 57.9038 29.1293C59.0003 29.889 59.0367 30.1089 58.1663 30.7069C57.9136 30.8804 57.6183 31.1166 57.5101 31.2317C57.4018 31.3468 57.1065 31.583 56.8539 31.7567C56.6013 31.9303 56.306 32.1665 56.1977 32.2816C56.0894 32.3967 55.7942 32.6329 55.5415 32.8064C55.2889 32.98 55.0527 33.1572 55.0166 33.2003C54.9805 33.2433 54.7443 33.4205 54.4916 33.594C54.239 33.7675 54.0028 33.9467 53.9667 33.9924C53.9306 34.0381 53.34 34.4494 52.6543 34.9063C51.9686 35.3633 51.378 35.778 51.342 35.8279C51.2451 35.9616 49.2788 37.1374 49.152 37.1374C49.021 37.1374 48.7172 36.2057 48.7172 35.8036C48.7172 35.6452 48.6621 35.3342 48.5949 35.1125C48.4813 34.7384 48.4133 34.4777 48.061 33.069C47.7071 31.6532 47.6403 31.3984 47.5214 31.0095C47.4177 30.6704 47.4602 30.3953 47.7442 29.5659C47.9373 29.0024 48.1494 28.3051 48.2154 28.0164C48.3336 27.4995 48.4687 26.9504 48.7314 25.9166C48.8584 25.4172 48.9954 24.7677 49.1881 23.7512C49.3758 22.7608 49.5249 22.7571 50.9494 23.7065ZM59.1018 31.574C59.0752 31.7105 59.0049 32.3833 58.9457 33.069C58.8266 34.4466 58.6538 35.5987 58.4387 36.4484C58.361 36.7551 58.2457 37.2276 58.1823 37.4983C57.3926 40.8704 57.2678 40.9557 54.6557 39.9074C52.9395 39.2186 52.5438 39.0647 51.8669 38.8231C49.5041 37.9796 49.5169 38.0535 51.506 36.7251C52.3903 36.1346 53.1432 35.6123 53.1793 35.5644C53.2154 35.5165 53.6288 35.2203 54.0979 34.9063C54.5671 34.5924 54.9805 34.2987 55.0166 34.2537C55.0527 34.2087 55.2889 34.0299 55.5415 33.8564C55.7942 33.683 56.0304 33.5058 56.0665 33.4627C56.1026 33.4197 56.3388 33.2425 56.5914 33.0689C56.844 32.8954 57.1393 32.6592 57.2476 32.5441C57.3559 32.429 57.6511 32.1916 57.9038 32.0165C58.1564 31.8414 58.4786 31.5924 58.6197 31.463C58.9297 31.1788 59.1685 31.2337 59.1018 31.574ZM2.35493 32.7774C3.06518 33.4831 3.85102 34.2042 4.10116 34.38C4.35143 34.5557 4.7038 34.8515 4.88425 35.0376C5.0647 35.2237 5.41904 35.5184 5.67167 35.6926C5.9243 35.8669 6.21958 36.1036 6.32785 36.2187C6.43612 36.3338 6.7314 36.5709 6.98403 36.7456C7.23666 36.9202 7.51173 37.1292 7.59533 37.2101C7.67906 37.2909 8.0481 37.55 8.41556 37.7858C9.12397 38.2404 9.22673 38.4143 8.85415 38.5281C8.63761 38.5941 7.88418 38.9268 5.17953 40.1504C3.37004 40.9689 3.05731 41.052 2.85021 40.7688C2.54023 40.3448 1.77171 37.8773 1.46383 36.3171C1.39625 35.9742 1.27748 35.3836 1.19992 35.0048C1.12235 34.6259 1.01907 33.8138 0.970252 33.2003C0.921432 32.5867 0.833766 32.011 0.775365 31.9207C0.660271 31.7428 0.760536 31.4942 0.947548 31.4942C1.01146 31.4942 1.64481 32.0716 2.35493 32.7774ZM12.5848 31.7895C12.6422 31.8798 12.9931 32.8394 13.3646 33.9221C14.5839 37.475 14.8265 38.0983 15.7504 40.0536C16.5862 41.8225 16.53 41.8169 13.1521 39.7946C10.3817 38.1361 10.5207 38.3261 10.9198 36.7437C11.0018 36.4188 11.1164 35.8873 11.1747 35.5625C11.2328 35.2377 11.3724 34.6767 11.4849 34.3158C11.5974 33.9549 11.8265 33.2022 11.9942 32.6432C12.3009 31.6206 12.3929 31.4876 12.5848 31.7895ZM47.185 32.905C47.2682 33.3198 47.3763 33.7576 47.9373 35.9562C48.0201 36.281 48.1163 36.8456 48.1508 37.2107L48.2137 37.8748L47.1202 38.509C46.5189 38.8579 45.5858 39.4007 45.0468 39.7151C43.5814 40.5701 43.5321 40.5428 44.188 39.2402C44.4398 38.7402 44.729 38.1068 44.8305 37.8327C44.932 37.5585 45.1455 37.0094 45.3049 36.6124C45.4644 36.2154 45.771 35.4182 45.9863 34.8407C46.2017 34.2633 46.4651 33.5576 46.5716 33.2727C46.8957 32.4059 47.0646 32.3047 47.185 32.905ZM48.4872 39.0731C48.5995 39.1993 48.7242 39.598 48.7642 39.9589C48.8042 40.3198 48.9007 40.999 48.9785 41.4682C49.377 43.8686 49.8518 47.7709 49.9778 49.6802L50.0476 50.7399L48.8902 50.6934C48.2537 50.6678 47.5263 50.616 47.2736 50.5782C47.021 50.5403 46.3714 50.4551 45.83 50.3888C44.8293 50.2663 43.5616 50.0933 42.0242 49.8694C41.555 49.8012 40.8168 49.6964 40.3837 49.6366C38.7405 49.4099 38.7354 49.3741 40.0341 47.2426C40.6227 46.2763 41.3927 44.9009 42.479 42.8751C43.0809 41.7528 43.1645 41.6775 44.7801 40.8008C46.6786 39.7708 47.8588 39.0963 47.9889 38.9672C48.165 38.7924 48.2544 38.8114 48.4872 39.0731ZM50.1779 39.0491C50.3967 39.1622 50.9104 39.3623 51.3198 39.4937C51.729 39.6251 52.2705 39.8211 52.5231 39.9295C53.0009 40.1344 53.9578 40.5247 55.0822 40.9733C56.4249 41.5088 56.5914 41.5998 56.5914 41.7974C56.5914 42.2946 53.8433 47.0804 53.314 47.505C53.269 47.5411 53.0885 47.7774 52.9126 48.03C52.7369 48.2826 52.4149 48.6761 52.1972 48.9044C51.9794 49.1326 51.6729 49.4723 51.516 49.659C51.0291 50.2383 50.849 50.1081 50.7614 49.1127C50.6039 47.3268 50.4312 45.7095 50.2952 44.7491C50.0415 42.9565 49.9091 42.0682 49.7669 41.2057C49.3708 38.8041 49.4007 38.6472 50.1779 39.0491ZM11.1602 39.5895C11.4979 39.7833 12.0399 40.1218 12.3647 40.3416C12.6895 40.5616 13.4573 41.0146 14.0708 41.3485C14.6843 41.6823 15.6445 42.2103 16.2044 42.5216L17.2224 43.0878L18.0286 44.6731C18.4721 45.5449 19.0538 46.5831 19.3216 46.9801C20.4892 48.7118 20.5333 49.0014 19.6484 49.1282C19.3596 49.1696 18.7395 49.2664 18.2704 49.3431C15.3313 49.8243 13.406 50.0102 11.0524 50.04L9.14943 50.0642L9.17896 49.0799C9.23762 47.1268 9.55075 43.9092 9.86546 42.0259C9.94079 41.5749 10.0523 40.8662 10.1132 40.4511C10.3089 39.1169 10.3205 39.1075 11.1602 39.5895ZM9.25731 40.1558C9.24445 40.5528 9.16794 41.2615 9.08736 41.7306C8.8321 43.2173 8.71032 44.3115 8.35283 48.3253C8.30952 48.8124 8.22474 49.2111 8.16463 49.2111C7.95085 49.2111 7.02655 48.2138 6.46171 47.3738C6.14635 46.9046 5.84805 46.4912 5.79883 46.4552C5.44515 46.1956 3.2518 42.0612 3.36807 41.8732C3.40482 41.8136 3.62818 41.6936 3.86441 41.6066C4.40943 41.4057 6.34347 40.5382 7.70583 39.8834C9.12515 39.2012 9.28736 39.2297 9.25731 40.1558ZM41.6305 42.7548C41.6305 42.8129 41.453 43.1401 41.2362 43.482C41.0194 43.8239 40.6867 44.4111 40.4968 44.7873C39.9432 45.8836 38.1968 48.7364 37.9683 48.9179C37.7515 49.0901 37.3682 49.0677 36.4138 48.8269C36.1071 48.7496 35.6198 48.6271 35.3311 48.5549C35.0424 48.4828 34.5699 48.3646 34.2812 48.2925C33.9925 48.2203 33.52 48.1022 33.2313 48.03C31.8642 47.6882 31.559 47.6153 31.1315 47.5284C30.4366 47.3871 30.5775 47.1213 31.5253 46.7857C33.4694 46.0975 33.9939 45.899 34.8062 45.5441C35.2753 45.3391 35.984 45.0409 36.381 44.8814C37.0473 44.6138 38.8312 43.8149 40.5806 43.0011C41.3396 42.648 41.6305 42.5797 41.6305 42.7548ZM20.1385 44.3411C22.4138 45.4123 23.1064 45.6915 25.8821 46.6553C27.2082 47.1158 27.4392 47.3718 26.6695 47.5284C26.4169 47.5797 25.9739 47.6814 25.6852 47.7543C25.3965 47.8271 24.9094 47.9485 24.6025 48.024C24.2957 48.0994 23.7938 48.223 23.487 48.2985C23.1802 48.374 22.7226 48.4846 22.4699 48.5444C22.2173 48.6043 21.9177 48.6926 21.804 48.7405C21.4269 48.8998 20.1582 47.108 19.0044 44.7862C18.4311 43.6329 18.542 43.5893 20.1385 44.3411ZM29.613 47.8893C30.3792 48.1207 31.8553 48.5347 32.3783 48.665C34.5296 49.2009 35.0709 49.3409 35.5373 49.4825C35.7589 49.5497 36.0957 49.6048 36.2857 49.6048C37.0221 49.6048 37.4549 49.9538 37.1284 50.2845C37.0342 50.3798 36.6989 50.8417 36.3831 51.3109C36.0673 51.7801 35.7121 52.2525 35.5936 52.3608C35.4751 52.4691 35.1202 52.9415 34.805 53.4107C34.4896 53.8799 34.0782 54.4114 33.8905 54.5918C33.7029 54.7723 33.4059 55.1266 33.2305 55.3792C33.0552 55.6319 32.7011 56.0453 32.4439 56.2979C32.1867 56.5505 31.8319 56.9639 31.6558 57.2165C31.2726 57.7663 30.113 58.9226 29.945 58.9226C29.7782 58.9226 26.2768 55.4136 25.8855 54.8543C25.7087 54.6017 25.412 54.2473 25.2259 54.0669C25.0398 53.8864 24.7452 53.5321 24.571 53.2794C24.3967 53.0268 24.2191 52.7906 24.176 52.7545C24.133 52.7184 23.9549 52.4822 23.7803 52.2296C23.6057 51.9769 23.3991 51.7042 23.3211 51.6235C22.2926 50.5583 21.9299 49.3424 22.6407 49.3424C22.7892 49.3424 23.092 49.2872 23.3137 49.22C23.6878 49.1064 23.9484 49.0384 25.3571 48.6862C26.7691 48.3331 27.0489 48.2561 27.7194 48.035C28.5598 47.7579 29.0526 47.72 29.613 47.8893ZM20.3265 50.074C20.3702 50.1876 20.2831 50.5568 20.1333 50.8942C19.9834 51.2316 19.7333 51.8621 19.5776 52.2952C18.7801 54.5133 18.0366 56.4441 17.9445 56.5362C17.7576 56.7231 12.8848 53.9358 12.496 53.4195C12.4599 53.3716 12.2236 53.1899 11.971 53.0157C11.7184 52.8415 11.364 52.5489 11.1836 52.3654C11.0031 52.1819 10.631 51.8642 10.3564 51.6595C9.58698 51.0852 9.74932 50.9937 11.719 50.8908C12.6877 50.8402 14.0117 50.7381 14.6614 50.664C18.1683 50.2644 19.2611 50.1014 19.4058 49.9567C19.5808 49.7817 20.2469 49.8666 20.3265 50.074ZM40.3509 50.4127C40.766 50.4736 41.4747 50.5846 41.9257 50.6593C44.1304 51.0244 46.3861 51.3029 48.0505 51.4154C49.5157 51.5143 49.7497 51.6467 49.1486 52.0364C48.9474 52.1668 48.6943 52.3697 48.586 52.4874C48.4777 52.605 48.1824 52.8433 47.9298 53.0168C47.6772 53.1905 47.441 53.3692 47.4049 53.4142C47.1735 53.7026 44.223 55.5254 42.962 56.1589C41.9986 56.643 41.8379 56.6182 41.5513 55.9411C41.4358 55.6681 40.8063 54.3457 40.1525 53.0023C38.9805 50.5942 38.8014 49.9551 39.3677 50.2023C39.4934 50.2572 39.9358 50.3518 40.3509 50.4127ZM22.2237 51.4683C22.6118 52.06 23.0487 52.6653 23.1946 52.8134C23.3406 52.9615 23.6034 53.2893 23.7789 53.5419C23.9544 53.7945 24.1922 54.0898 24.3072 54.1981C24.4223 54.3064 24.66 54.6017 24.8352 54.8543C25.0105 55.1069 25.4816 55.6384 25.8821 56.0354C26.2826 56.4324 26.7545 56.9639 26.9309 57.2165C27.2871 57.7268 28.1432 58.5899 28.4835 58.7819C29.1442 59.1549 26.7914 59.1678 24.9962 58.801C24.6174 58.7235 24.0268 58.6048 23.6839 58.5372C22.5173 58.3069 22.0117 58.1673 20.441 57.6421C18.4342 56.9709 18.4162 57.7036 20.5821 51.9221C21.2519 50.1341 21.334 50.1114 22.2237 51.4683ZM39.3238 53.181C41.098 56.8076 41.0957 56.8009 40.7455 57.0844C40.4729 57.305 38.4154 58.0407 37.3981 58.2813C37.1275 58.3453 36.6549 58.4612 36.3482 58.5389C35.4986 58.754 34.3464 58.9268 32.9689 59.0458C32.2831 59.105 31.6103 59.1754 31.4738 59.202C30.9898 59.2969 31.1305 58.9466 31.8837 58.1817C32.3031 57.7557 32.7904 57.2018 32.9665 56.9509C33.1427 56.7 33.4389 56.3471 33.625 56.1666C33.8111 55.9862 34.1059 55.6319 34.28 55.3792C34.4543 55.1266 34.6911 54.8313 34.8062 54.723C34.9213 54.6148 35.1575 54.3195 35.331 54.0669C35.5046 53.8142 35.6818 53.578 35.7248 53.5419C35.7679 53.5058 35.945 53.2696 36.1185 53.017C36.292 52.7643 36.4692 52.5281 36.5122 52.492C36.5553 52.4559 36.7334 52.2197 36.9079 51.9671C37.0826 51.7145 37.3015 51.4293 37.3947 51.3335C37.4877 51.2377 37.6246 51.0457 37.6989 50.907C37.9445 50.4478 38.078 50.6344 39.3238 53.181Z" fill="black"/>
</svg>
