<?xml version="1.0" encoding="utf-8"?>
<!-- Generator: Adobe Illustrator 25.2.0, SVG Export Plug-In . SVG Version: 6.00 Build 0)  -->
<svg version="1.1" id="Layer_1" xmlns="http://www.w3.org/2000/svg" xmlns:xlink="http://www.w3.org/1999/xlink" x="0px" y="0px"
	 viewBox="0 0 49 49" style="enable-background:new 0 0 49 49;" xml:space="preserve">
<path d="M1.04,43.65"/>
<g>
	<g>
		<path d="M24.9,45.46l-0.4-0.2l-0.4,0.2L-1.16,3.54l1.27,0.82h46.44c0.76-0.01,1.54-0.01,2.33,0l1.27-0.82L24.9,45.46z
			 M15.63,23.35l8.87,21.12l8.87-21.12l-8.52,9.83l-0.36-0.27l-0.36,0.27L15.63,23.35z M2.57,8.28l19.5,32.36l-8.03-19.11L2.57,8.28
			z M34.95,21.53l-8.03,19.11l19.5-32.36L34.95,21.53z M10.71,11.47L24.5,32.37l13.82-20.95c-2.91-1.89-8.18-3.22-13.91-4.16
			C16.51,8.86,11.97,10.86,10.71,11.47z M14.69,21.13l6.26,7.23l-8.88-13.47L14.69,21.13z M36.93,14.89l-8.88,13.47l6.26-7.23
			L36.93,14.89z M2.01,6.49l11.1,12.82l-3.25-7.73L2.01,6.49z M39.14,11.57l-3.25,7.73l11.1-12.82L39.14,11.57z M1.33,5.15
			l8.85,5.73c0.92-0.45,4.94-2.32,12.15-3.94C13.75,5.7,4.68,5.27,1.33,5.15z M26.55,6.86c5.08,0.94,9.63,2.24,12.29,4.01l8.89-5.76
			h-1.18C38.54,5.18,31.88,5.91,26.55,6.86z M13.09,5.11c3.61,0.32,7.58,0.76,11.37,1.38c2.64-0.53,5.64-1.01,9.01-1.38H13.09z"/>
	</g>
	<g>
		<rect x="24.2" y="32.94" width="0.75" height="12.33"/>
	</g>
	<g>
		<rect x="24.44" y="-2.86" transform="matrix(0.0111 -0.9999 0.9999 0.0111 13.376 35.8535)" width="0.75" height="28.05"/>
	</g>
</g>
</svg>
