<?xml version="1.0" encoding="utf-8"?>
<!-- Generator: Adobe Illustrator 25.2.0, SVG Export Plug-In . SVG Version: 6.00 Build 0)  -->
<svg version="1.1" id="Layer_1" xmlns="http://www.w3.org/2000/svg" xmlns:xlink="http://www.w3.org/1999/xlink" x="0px" y="0px"
	 viewBox="0 0 49 49" style="enable-background:new 0 0 49 49;" xml:space="preserve">
<style type="text/css">
	.st0{stroke:#000000;stroke-width:0.75;stroke-miterlimit:10;}
	.st1{fill:#1E1713;stroke:#000000;stroke-width:0.75;stroke-miterlimit:10;}
</style>
<g>
	<g>
		<path d="M24.45,2.35l-0.1-0.11l-0.1,0.11c-0.13,0.15-0.27,0.31-0.39,0.46c-5.69,6.52-10.24,13.34-13.74,19.45l-0.02,0.03
			l-0.01,0.03C4,32.95,1.06,41.39,0.75,42.3c-0.02,0.05-0.03,0.07-0.03,0.08l-0.11,0.34l0.34,0.13c0.01,0,0.04,0.01,0.09,0.03
			c0,0,0,0,0.01,0l1.5-0.28l6-1.12l0.44-0.09l0.29-0.05l0.09-0.23l0.01-0.04l0.21-0.49l0.71-1.77l0.3-0.73l4.24-10.51l0.01-0.02
			l1.35-3.33v-0.01l5.62-13.9l0.09-0.23l0.16-0.39l0.15-0.37l2.14-5.29l0.49-1.22C24.73,2.66,24.58,2.51,24.45,2.35z M21.64,8.73
			l-0.3,0.76v0.01l-0.17,0.4l-0.83,2.05v0.01l-6.15,15.2v0.01l-0.83,2.05v0.01l-3.55,8.78l-0.29,0.73l-0.78,1.91l-0.01,0.03
			L7.6,40.89l-5.51,1.04H2.07l-0.43,0.08c0.11-0.3,0.26-0.72,0.45-1.23c0.32-0.84,0.76-1.95,1.32-3.29c0.09-0.22,0.19-0.46,0.29-0.7
			c1.27-2.96,3.07-6.85,5.45-11.26l0.01-0.01c0.49-0.9,1-1.82,1.54-2.76l0.01-0.03l0.02-0.03c0.62-1.08,1.28-2.19,1.97-3.32
			c2.17-3.55,4.68-7.28,7.56-11c0.14-0.2,0.3-0.4,0.46-0.6c0.84-1.08,1.71-2.15,2.61-3.22L21.64,8.73z"/>
	</g>
	<g>
		<path d="M48.39,43.46c-7.98,2.45-15.67,3.29-22.45,3.29h-0.58c-0.51-0.01-1.02-0.01-1.52-0.03h-0.02
			C11.14,46.4,2.08,43.26,1.05,42.89c-0.01,0-0.01,0-0.01,0c-0.05-0.02-0.08-0.03-0.09-0.03l-0.34-0.13l0.11-0.34
			c0-0.01,0.01-0.03,0.03-0.08l1.35-1.52l2.68-3.01l0.57-0.65l0.63-0.69l0.01-0.02l1.15-1.3l7.06-7.94v-0.01l0.05-0.05l1.95-2.89
			v-0.01l7.71-11.42l0.25-0.38l-0.32-0.33l-1.87-1.94l-0.06-0.06L21.44,9.6l-0.1-0.1V9.49l-1.08-1.11l-0.31-0.32l0.54-0.52
			l0.23,0.24l0.92,0.95l0.57,0.59l2.14,2.22l0.52,0.54l-0.32,0.33l0.25,0.38l-0.45,0.67l-9.51,14.09l-0.01,0.02l-1.47,1.65v0.01
			l-6.71,7.55L6.64,36.8L6.2,37.29H6.19l-0.41,0.46l-0.16,0.19l-3.54,3.99H2.07l-0.35,0.4c0.21,0.07,0.49,0.16,0.82,0.27
			c1.17,0.36,3.08,0.91,5.57,1.46c0.02,0.01,0.05,0.01,0.07,0.02l0.03,0.01c3.43,0.75,7.97,1.5,13.25,1.78h0.01l0.01,0.01
			c0.79,0.04,1.61,0.07,2.44,0.1h0.02c0.43,0.01,0.86,0.01,1.29,0.01h0.02c0.73,0.01,1.48,0.01,2.24-0.01h0.02
			c3.88-0.07,8.05-0.43,12.38-1.23c0.25-0.04,0.5-0.09,0.75-0.14c2.31-0.44,4.66-1.01,7.04-1.73h0.02c0.14-0.04,0.28-0.08,0.42-0.12
			c0.02-0.01,0.03-0.01,0.05-0.02L48.39,43.46z"/>
	</g>
	<g>
		<polygon points="6.32,37.91 5.6,37.7 10.1,22.3 21.68,9.35 22.24,9.85 10.72,22.74 		"/>
	</g>
	<g>
		<path class="st0" d="M47.64,43.5"/>
	</g>
	<g>
		<path class="st1" d="M47.64,43.11"/>
	</g>
	<g>
		<path d="M28.37,11.96v-0.01L27.54,9.9l-0.17-0.4l-0.1,0.1l-0.46,0.48l0.09,0.23L32.5,24.2l0.01,0.02l1.98,2.93l0.02,0.02
			L28.37,11.96z M28.37,11.96v-0.01L27.54,9.9l-0.17-0.4l-0.1,0.1l-0.46,0.48l0.09,0.23L32.5,24.2l0.01,0.02l1.98,2.93l0.02,0.02
			L28.37,11.96z M28.37,11.96v-0.01L27.54,9.9l-0.17-0.4l-0.1,0.1l-0.46,0.48l0.09,0.23L32.5,24.2l0.01,0.02l1.98,2.93l0.02,0.02
			L28.37,11.96z M28.37,11.96v-0.01L27.54,9.9l-0.17-0.4l-0.1,0.1l-0.46,0.48l0.09,0.23L32.5,24.2l0.01,0.02l1.98,2.93l0.02,0.02
			L28.37,11.96z M28.37,11.96v-0.01L27.54,9.9l-0.17-0.4l-0.1,0.1l-0.46,0.48l0.09,0.23L32.5,24.2l0.01,0.02l1.98,2.93l0.02,0.02
			L28.37,11.96z M48.13,42.76L48,42.39c-0.04-0.13-2.95-8.79-9.28-19.87l-0.02-0.07l-0.03-0.04c-3.52-6.14-8.09-13.02-13.82-19.59
			c-0.12-0.15-0.26-0.31-0.39-0.46l-0.1-0.11l-0.1,0.11c-0.13,0.15-0.27,0.31-0.39,0.46l0.49,1.22l2.14,5.29l0.15,0.37l0.16,0.39
			l0.09,0.23L32.5,24.2l0.01,0.02l1.35,3.33l4.25,10.5l0.29,0.72l0.75,1.86l0.21,0.52l0.07,0.19l0.36,0.07l0.39,0.07l0.36,0.07
			l7.14,1.33h0.02l0.49,0.1L48.13,42.76z M41.58,40.98l-1.42-0.26l-0.19-0.04l-0.82-2.04l-0.29-0.7l-3.52-8.7l-0.01-0.02l-0.82-2.05
			l-6.15-15.21v-0.01L27.54,9.9l-0.17-0.4V9.49l-0.3-0.76l-1.69-4.17c0.9,1.07,1.77,2.14,2.61,3.22c0.16,0.2,0.32,0.4,0.46,0.6
			c2.91,3.76,5.45,7.53,7.64,11.12v0.01c0.66,1.08,1.29,2.15,1.89,3.19L38,22.73L38,22.76c0.57,0.99,1.11,1.96,1.62,2.91l0.01,0.01
			c2.32,4.31,4.08,8.12,5.33,11.03c0.11,0.24,0.2,0.48,0.3,0.7c0.58,1.38,1.03,2.52,1.36,3.38l0.02,0.03
			c0.16,0.5,0.31,0.89,0.42,1.19l-0.44-0.08L41.58,40.98z M28.37,11.96v-0.01L27.54,9.9l-0.17-0.4l-0.1,0.1l-0.46,0.48l0.09,0.23
			L32.5,24.2l0.01,0.02l1.98,2.93l0.02,0.02L28.37,11.96z M28.37,11.96v-0.01L27.54,9.9l-0.17-0.4l-0.1,0.1l-0.46,0.48l0.09,0.23
			L32.5,24.2l0.01,0.02l1.98,2.93l0.02,0.02L28.37,11.96z M28.37,11.96v-0.01L27.54,9.9l-0.17-0.4l-0.1,0.1l-0.46,0.48l0.09,0.23
			L32.5,24.2l0.01,0.02l1.98,2.93l0.02,0.02L28.37,11.96z M28.37,11.96v-0.01L27.54,9.9l-0.17-0.4l-0.1,0.1l-0.46,0.48l0.09,0.23
			L32.5,24.2l0.01,0.02l1.98,2.93l0.02,0.02L28.37,11.96z"/>
	</g>
	<g>
		<polygon points="47.92,42.26 47.36,42.76 46.63,41.93 43.01,37.86 42.92,37.76 42.44,37.22 42.44,37.22 42.07,36.79 42.06,36.78 
			35.35,29.24 35.33,29.22 33.9,27.61 33.87,27.55 24.36,13.46 23.9,12.79 24.15,12.41 23.83,12.08 24.36,11.54 26.5,9.32 
			27.07,8.73 27.99,7.78 28.21,7.54 28.75,8.07 28.44,8.39 27.37,9.49 27.37,9.51 27.26,9.6 26.81,10.08 26.75,10.14 24.88,12.08 
			24.56,12.41 24.81,12.79 32.5,24.2 32.51,24.22 34.5,27.15 34.51,27.17 41.57,35.12 41.57,35.14 42.74,36.42 43.29,37.05 
			43.3,37.05 43.87,37.7 46.63,40.79 46.64,40.82 		"/>
	</g>
	<g>
		<polygon points="42.39,37.91 37.99,22.74 26.47,9.85 27.03,9.35 38.69,22.45 43.11,37.7 		"/>
	</g>
	<g>
		<path d="M45.31,36.64l-0.34,0.07l-1.67,0.34h-0.01l-0.35,0.07l-0.49,0.1h-0.01l-0.24,0.05l-3.33,0.67l-0.41,0.08l-0.34,0.03
			l-13.97,1.24L10.6,38.08l-0.78-0.07l-0.17-0.01l-3.16-0.65L6.2,37.29H6.19L5.75,37.2l-0.41-0.08L3.7,36.79L3,36.64l-0.15,0.73
			l0.57,0.12l1.36,0.28l0.85,0.17l3.9,0.8h0.01l0.76,0.07l9.62,0.85L9.58,40.58l-0.84,0.07l-0.01,0.03L7.6,40.89l0.99,0.36l0.4,0.14
			l0.32,0.12l12.16,4.36h0.01l0.01,0.01l2.34,0.84h0.02c0.5,0.02,1.01,0.02,1.52,0.03h0.02l2.11-0.77h0.02l12.29-4.36l0.38-0.14
			l0.36-0.13l1.04-0.37l-1.42-0.26l-1.01-0.09l-10.78-0.96l10.03-0.9l0.15-0.01l0.6-0.12l3.86-0.78l0.85-0.17l1.4-0.28l0.19-0.04
			L45.31,36.64z M38.43,41.32l-13.17,4.68h-0.02l-0.61,0.23l-0.68-0.24h-0.02l-13.19-4.75l13.41-1.19L38.43,41.32z"/>
	</g>
	<g>
		<rect x="7.16" y="42.2" transform="matrix(0.1652 -0.9863 0.9863 0.1652 -34.6921 44.1607)" width="3.17" height="0.75"/>
	</g>
	<g>
		<rect x="39.84" y="41.1" transform="matrix(0.9996 -0.0287 0.0287 0.9996 -1.216 1.1722)" width="0.75" height="3.67"/>
	</g>
</g>
</svg>
