<svg id="Layer_1" data-name="Layer 1" xmlns="http://www.w3.org/2000/svg" viewBox="0 0 60 60"><defs><style>.cls-1{fill:#231f20;}</style></defs><path class="cls-1" d="M51.19,29.23a43.34,43.34,0,0,1-.38,7.58C49.46,43.75,46.9,50.05,41.57,55A16.82,16.82,0,0,1,33,59.36a16,16,0,0,1-11.2-2c-5-3.07-8.19-7.64-10.36-13A38.69,38.69,0,0,1,8.86,27,37.33,37.33,0,0,1,12,14.38,26.23,26.23,0,0,1,20,3.93,16,16,0,0,1,31.47.46a17.24,17.24,0,0,1,10.4,4.92,29,29,0,0,1,7.68,12.87A31,31,0,0,1,51.19,29.23Zm-9.7.92c0-.36-.05-.64-.1-.91-.63-3.18-1.23-6.38-1.93-9.55-.25-1.1-.25-2.3-1.39-3.11-2.45-1.74-4.81-3.61-7.2-5.44a1,1,0,0,0-1.39-.05c-2.63,2-5.28,3.91-7.94,5.85a1.23,1.23,0,0,0-.44.88c-.39,1.87-.79,3.75-1.18,5.63-.44,2.09-.87,4.17-1.3,6.27a1.72,1.72,0,0,0,0,.64c.78,3.85,1.57,7.69,2.34,11.54a2.09,2.09,0,0,0,.87,1.37c2.52,1.91,5.05,3.81,7.56,5.74a.89.89,0,0,0,1.24,0c2.56-1.91,5.14-3.8,7.71-5.7a1.54,1.54,0,0,0,.68-1c.74-3.63,1.5-7.26,2.25-10.9C41.37,31,41.42,30.54,41.49,30.15ZM9.6,30.43a18.66,18.66,0,0,0,.44,5,12.88,12.88,0,0,0,.57,3.19c.12.29,0,.8.4.83s.49-.44.67-.71c1.89-2.8,3.75-5.62,5.64-8.41a.8.8,0,0,0-.06-1c-1.86-2.93-3.7-5.88-5.56-8.81-.14-.22-.21-.63-.53-.57s-.36.48-.42.77A42.75,42.75,0,0,0,9.6,30.43Zm40.8-.3A37.3,37.3,0,0,0,49.46,21c0-.21,0-.46-.33-.49s-.36.2-.48.38c-1.91,2.88-3.82,5.78-5.75,8.66a1,1,0,0,0,0,1.18c1.83,2.91,3.62,5.84,5.44,8.76.15.25.26.67.62.58s.39-.47.44-.77A38.36,38.36,0,0,0,50.4,30.13ZM30,58.91a18.67,18.67,0,0,0,8.1-2.47c.69-.42.3-.66-.1-.91L30.75,51a1.37,1.37,0,0,0-1.57,0c-2.45,1.45-4.91,2.9-7.39,4.3-.66.38-.67.64-.06,1A18.85,18.85,0,0,0,30,58.91Zm-.2-57.57a14.38,14.38,0,0,0-7.34,2c-1,.53-1,.7-.08,1.31,2.32,1.48,4.66,2.94,7,4.43a1.38,1.38,0,0,0,1.63,0q3.63-2.16,7.32-4.24c.68-.39.7-.65,0-1.07A15,15,0,0,0,29.79,1.34Zm9.84,43.79c0,1,.12,2.1.16,3.15.06,1.95.11,3.9.18,5.85,0,.23-.07.54.23.64s.4-.11.56-.27c.57-.57,1.16-1.11,1.71-1.7a30.11,30.11,0,0,0,5.9-10c.18-.48.15-.72-.43-.65-.31,0-.62.07-.92.12-1.89.32-3.77.69-5.67,1C39.63,43.47,39.62,43.42,39.63,45.13ZM20.36,14.87a22.92,22.92,0,0,1-.14-2.69q0-3.11,0-6.23c0-.24.08-.54-.18-.68s-.45.13-.65.26a4.93,4.93,0,0,0-.49.42,28.42,28.42,0,0,0-7.06,11.23c-.27.75-.14.89.65.75,2.14-.38,4.27-.77,6.41-1.12C20.34,16.57,20.38,16.56,20.36,14.87ZM19.6,54.72c.12-1.66.25-3.07.33-4.49.11-2,.19-4,.28-6,0-.45,0-.86-.61-1-2.42-.52-4.83-1.08-7.25-1.58-.8-.17-.95.07-.67.86A33,33,0,0,0,15,49.42,25.83,25.83,0,0,0,19.6,54.72ZM40,14.58v.92c0,1.18.23,1.49,1.41,1.62,2.1.24,4.11.9,6.19,1.27.3.05.64.2.89,0s.1-.6,0-.88a28.37,28.37,0,0,0-7.1-11.31c-.21-.2-.38-.6-.73-.44s-.23.49-.24.77C40.24,9.15,40.1,11.81,40,14.58ZM17.82,31.31a2,2,0,0,0-.3.25q-2.7,4.07-5.38,8.14c-.53.79-.45.93.47,1.12,2.16.43,4.3.89,6.45,1.37.91.21,1.07.09.89-.82-.37-1.88-.71-3.77-1.15-5.63A32.13,32.13,0,0,0,17.82,31.31ZM39.51,6c.11-.51.07-.94-.61-.54C36.44,6.91,34,8.36,31.53,9.79c-.47.27-.36.51,0,.76l6.83,5.15c.43.32.66.24.69-.33Q39.26,10.69,39.51,6ZM17.9,28.44a2.3,2.3,0,0,0,.17-.39c.68-3.24,1.35-6.48,2-9.72.14-.66-.17-.74-.72-.65-2.08.34-4.16.71-6.25,1-1.28.16-1.39.29-.71,1.37q2.49,4,5,8C17.52,28.18,17.58,28.4,17.9,28.44Zm24.51,3.14-.27.06c-.7,3.37-1.41,6.75-2.1,10.13-.13.62.23.76.77.66,2.21-.4,4.43-.83,6.65-1.2.73-.12.7-.41.38-.93-1.11-1.75-2.2-3.52-3.29-5.28C43.84,33.87,43.13,32.72,42.41,31.58ZM21.26,43.93c-.41,2.18-.24,4.2-.45,6.19-.13,1.29-.15,2.6-.21,3.9,0,.54.12.87.76.49,2.37-1.4,4.75-2.8,7.14-4.17.66-.38.53-.6,0-1s-1.25-.92-1.86-1.38Zm21-15c2.09-3.14,4-6,5.93-8.9.28-.42.09-.49-.29-.6-2.24-.64-4.53-1-6.8-1.48-1.05-.23-1.1-.19-.91.86q.56,2.94,1.16,5.88C41.62,26,41.92,27.3,42.26,28.89ZM39,50.75c0-1.93-.07-3.84-.16-5.76,0-.44-.06-.92-.67-.48-2.29,1.66-4.56,3.33-6.84,5-.41.31-.41.58,0,.85l1.1.69q2.82,1.8,5.65,3.59c.22.15.49.4.75.24s.13-.51.14-.78C39,53,39,51.86,39,50.75ZM21.13,10.48h0c0,1.52,0,3,0,4.56,0,.26-.14.62.17.75s.51-.16.72-.32c2.17-1.59,4.32-3.21,6.5-4.79.61-.44.52-.72-.05-1.08-2.22-1.4-4.45-2.81-6.66-4.24-.58-.38-.74-.26-.74.39C21.14,7.33,21.13,8.91,21.13,10.48Z"/></svg>