<svg id="Layer_1" data-name="Layer 1" xmlns="http://www.w3.org/2000/svg" viewBox="0 0 60 60"><defs><style>.cls-1{fill:#231f20;}</style></defs><path class="cls-1" d="M8.37,29.91V11.36c0-4.67,2-8.23,6.37-10.2A6.69,6.69,0,0,1,17.48.5h25c4.05,0,8.1,3.78,8.85,8a20.56,20.56,0,0,1,.33,3.68V48.44a10.58,10.58,0,0,1-4.26,9,10.22,10.22,0,0,1-6,2c-7.57,0-15.18.09-22.71,0A10.12,10.12,0,0,1,8.66,51a31.19,31.19,0,0,1-.28-4ZM29.5,47.11a12.86,12.86,0,0,0,2.31-.19c3-.85,6.16-1.31,9.21-2a1.18,1.18,0,0,0,1-1.17c.46-3.35.47-6.74.9-10.12a21,21,0,0,0,.2-3.88c-.26-4.15-.63-8.3-1-12.44-.18-2.22-.19-2.21-2.4-2.54l-.58-.12-8.85-2a2.12,2.12,0,0,0-.87,0l-9.88,2.16c-.42.09-.8.2-.87.76-.28,2.15-.65,4.29-.81,6.47a45.56,45.56,0,0,1-.73,5.58,10.55,10.55,0,0,0-.12,3.88A74.08,74.08,0,0,1,18,39c.13,1.78.5,3.54.74,5.3.05.39.31.48.62.65a10.69,10.69,0,0,0,2.57.54c2.53.63,5.07,1.16,7.56,1.69ZM30,11.69a5.68,5.68,0,0,0,.92-.14l9.67-3.44c.18-.06.4-.09.42-.33s-.2-.31-.36-.41c-3.24-1.89-6.47-3.77-9.7-5.69a1.28,1.28,0,0,0-1.38,0L19.87,7.14c-.24.14-.67.16-.65.49s.44.4.73.51c2.15.79,4.27,1.62,6.43,2.35A23.15,23.15,0,0,0,30,11.69ZM18.92,52.1c.19.16.26.25.34.3q5.29,2.93,10.58,5.87a.89.89,0,0,0,1-.07l9.54-5.54c.22-.12.5-.25.49-.55s-.36-.34-.58-.42c-2.91-1-5.83-2-8.72-3.14a3.55,3.55,0,0,0-2.89,0c-.74.34-1.53.57-2.29.84Zm-5.38-9.46c.07-.6.09-.92.16-1.23.73-3.32,1.48-6.64,2.22-10a6,6,0,0,0,.08-2.6c-.83-3.79-1.65-7.58-2.48-11.45a1.89,1.89,0,0,0-.49.91C12,21.54,10.93,24.78,9.83,28a5.24,5.24,0,0,0-.08,3.6c.73,2.08,1.3,4.23,2,6.29A29.65,29.65,0,0,0,13.54,42.64Zm33.3-25.3a1.84,1.84,0,0,0-.46,1.11c-.44,2.59-1.07,5.14-1.6,7.71-.36,1.69-.88,3.34-.48,5.17a48.38,48.38,0,0,1,1,4.75c.25,1.94,1,3.77,1.12,5.72a.72.72,0,0,0,.41.59c.15-.42.3-.8.41-1.21.79-2.81,1.71-5.58,2.56-8.38.46-1.5,1.08-3,.35-4.71A27.93,27.93,0,0,1,49,24.39c-.6-2.32-1.4-4.62-2.15-7ZM17.91,13.42c-.12-1.47-.26-3-.39-4.65a1.19,1.19,0,0,0-.82-1C15.25,7.15,13.81,6.55,12.35,6c-.25-.1-.5-.45-.77-.22s0,.55,0,.83c.61,2.55,1.4,5.06,1.91,7.65a.83.83,0,0,0,.94.72h.07a17.65,17.65,0,0,0,2.7-.43A.84.84,0,0,0,17.91,13.42Zm0,32.92c.13-.73-.23-1.07-1-1.11a20,20,0,0,1-2.23-.29.88.88,0,0,0-1.11.57.3.3,0,0,0,0,.1c-.68,2.59-1.34,5.2-2,7.81-.17.66.17.74.69.52l4.52-1.85a1.15,1.15,0,0,0,.76-1c.17-1.58.3-3.13.44-4.74Zm10.86-45a1.63,1.63,0,0,0-1.12-.2H19c-.57,0-1.16.12-1.74.15-.8,0-.9.43-.69,1.1.43,1.36.83,2.72,1.23,4.05.15.53.36.67.9.36ZM32,1.12,32,1.37,41.5,7c.47.27.66,0,.78-.38.44-1.35.84-2.72,1.33-4.05.31-.85.08-1.17-.79-1.31a48.58,48.58,0,0,0-6.15-.15C35.05,1.09,33.54,1.12,32,1.12Zm-3.54,57.5c-.07-.15-.08-.2-.1-.21L18.69,53c-.49-.27-.72,0-.85.43-.41,1.36-.8,2.74-1.24,4.1-.24.77,0,1,.8,1.1,3.56.31,7.09.07,10.67.14A2,2,0,0,0,28.48,58.62Zm9,.11a45.64,45.64,0,0,0,5.36-.17c.79-.11,1.11-.39.82-1.22-.37-1-.7-2-1-3-.44-1.71-.47-1.74-2-.9l-.35.18L32.66,58c-.2.11-.49.21-.44.48s.4.24.65.24Zm5.21-10.12h0V51c0,.35,0,.78.39.92q2.61,1,5.25,1.83c.41.13.62,0,.47-.51s-.29-1.07-.46-1.58c-.67-2-.89-4.14-1.74-6.08-.6-1.37-1.71-.19-2.58-.35-.48-.09-1.16-.07-1.29.7a2.91,2.91,0,0,0,0,.59Zm0-37.26h0v2.24c0,.32,0,.71.3.88a6.49,6.49,0,0,0,3.23.47c.29,0,.33-.35.41-.6.87-2.47,1.37-5.06,2.15-7.56.17-.55,0-.71-.55-.51-1.26.44-2.54.8-3.79,1.27-1.78.67-1.77.7-1.76,2.64Zm-.61.13h0V9.63c0-1-.18-1.13-1.17-.78l-3,1.06L32.37,11.8c-.18.06-.5.09-.43.41s.31.2.49.21a16.09,16.09,0,0,1,2.68.53l6.08,1.26c.61.13.84-.12.81-.72s0-1.37,0-2.05ZM31.76,47.74c3,1.38,6.28,2.14,9.26,3.46.53.23,1,.08,1-.64V46.21c0-.59-.31-.69-.84-.55C38.09,46.39,34.92,46.84,31.76,47.74ZM18.37,10.07c-.1.86.35,1.93.37,3s.35,1.28,1.34,1a75.78,75.78,0,0,1,7.6-1.69c.19,0,.43,0,.47-.24a.35.35,0,0,0-.36-.39l-2.13-.72c-2.13-.78-4.28-1.54-6.4-2.35-.81-.31-1,0-.89.72C18.38,9.56,18.37,9.69,18.37,10.07Zm10,37.73c-2-.8-4-.91-6.07-1.45-1-.27-2-.38-3-.58-.3-.06-.56-.08-.54.3.05,1.51-.48,3-.4,4.45,0,.8.44.86,1,.64ZM9.56,33.31H9.34v12c0,.58.24.68.73.42a15.92,15.92,0,0,1,2-1,1,1,0,0,0,.78-1.2,1,1,0,0,0-.14-.33Q11.14,38.26,9.56,33.31Zm-.23-6.79h.24c.13-.44.23-.87.4-1.3.94-2.55,1.58-5.2,2.56-7.75.63-1.68.51-1.79-1.09-2.63l-1.11-.6c-.86-.43-1-.36-1,.62V26.52Zm7.22,6.63a.87.87,0,0,0-.39.73c-.46,2.08-.91,4.18-1.33,6.27a16.16,16.16,0,0,0-.64,3.24c0,.53.17.8.69.86.71.07,1.43.14,2.14.25s.88-.13.81-.86c-.24-2.39-.66-4.75-.75-7.17A19.62,19.62,0,0,0,16.55,33.15Zm-.19-6.42a10.84,10.84,0,0,0,.72-3.33c.14-2.07.38-4.14.64-6.2s.22-2.12-1.87-1.65c-1.89.42-2,.63-1.42,2.59a32.63,32.63,0,0,1,.82,3.78C15.52,23.55,16,25.13,16.36,26.73Zm34.17,6.92c-.18,0-.22.16-.25.28-.76,2.6-1.71,5.16-2.34,7.8-.2.81-1,1.63-.6,2.37s1.43.95,2.17,1.4l.09,0c1,.52,1.07.48,1.07-.64V34.46C50.67,34.19,50.78,33.89,50.53,33.65Zm-.11-7.42h.26V14.76c0-.68-.2-.93-.87-.55l-2,1.17c-.49.27-.6.6-.41,1.2.89,2.8,1.71,5.65,2.57,8.46A8.46,8.46,0,0,0,50.42,26.23ZM43.74,33c-.06,3.47-.64,6.91-.8,10.38,0,1.07,0,1.14,1,1,2.23-.32,2.17-.32,1.78-2.52C45.17,38.87,44.46,36,43.74,33Zm0-5.92c.21-.81.45-1.61.62-2.42.52-2.45,1-4.9,1.52-7.34.33-1.42.4-1.39-1-1.6-.41-.06-.82-.18-1.24-.26-.58-.11-.85.1-.8.74.32,3.61.83,7.21.93,10.88ZM9.33,48.85A9,9,0,0,0,10,53.23c.08.19.18.45.46.42s.27-.26.32-.44c.56-2.14,1-4.3,1.72-6.4.13-.41.36-1,.06-1.3s-.78.26-1.19.41c-1.36.56-2.67,1.21-2.05,2.93Zm0-38.16v1.47A1.11,1.11,0,0,0,10,13.24c.54.28,1.07.62,1.64.87.3.13.65.49,1,.24s.06-.62,0-.92c-.56-2.2-1.15-4.39-1.73-6.58-.06-.25,0-.61-.34-.64s-.45.31-.56.57a8.89,8.89,0,0,0-.69,3.91ZM43.15,6.35c-.09.48-.1.82.37.66,1.59-.53,3.14-1.08,4.69-1.63.43-.15.69-.41.3-.86a8.87,8.87,0,0,0-3.19-2.47c-.37-.15-.73-.17-.89.29C44,3.71,43.57,5.11,43.15,6.35Zm5.56,48.71c0-.43-.28-.47-.51-.55l-4.5-1.59c-.57-.19-.7.07-.53.6l1.2,3.9c.18.53.57.6,1,.36a11.35,11.35,0,0,0,3-2.3,3.32,3.32,0,0,0,.32-.42ZM17.1,6.4a37.24,37.24,0,0,1-1.4-4.22c-.12-.34-.37-.4-.7-.28a8.9,8.9,0,0,0-3.22,2.15c-.29.3-.38.67.1.87,1.58.66,3.18,1.29,4.78,1.94C17,7,17.16,6.88,17.1,6.4ZM11.65,55.46a1.75,1.75,0,0,0,.18.29,9.27,9.27,0,0,0,2.91,2.09c.55.26.92,0,1.12-.57A34.57,34.57,0,0,1,17,53.57c.2-.43,0-.77-.53-.57-1.5.62-3,1.28-4.48,1.93C11.83,55,11.59,55.11,11.65,55.46ZM47.42,14.51a11.25,11.25,0,0,0,2.81-1.42.84.84,0,0,0,.41-.74c0-1.81.2-3.63-.58-5.36-.08-.18-.09-.42-.33-.41s-.29.26-.34.44c-.29,1-.57,2.11-.85,3.18C48.21,11.58,47.83,13,47.42,14.51Zm-.08,30.77C48.11,48,48.8,50.5,49.49,53a.36.36,0,0,0,.25.26c.25,0,.24-.25.32-.42.78-1.69.62-3.49.61-5.27a.76.76,0,0,0-.44-.74A20,20,0,0,0,47.34,45.28Z"/></svg>