<svg id="Layer_1" data-name="Layer 1" xmlns="http://www.w3.org/2000/svg" viewBox="0 0 60 60"><defs><style>.cls-1{fill:#231f20;}</style></defs><path class="cls-1" d="M50.74,30a27.56,27.56,0,0,1-.27,6.54A38.94,38.94,0,0,1,46.7,47.66a25.11,25.11,0,0,1-6.34,7.73,15.85,15.85,0,0,1-13.14,3.48,17.3,17.3,0,0,1-9.14-5A29,29,0,0,1,10.76,41,37.82,37.82,0,0,1,9.21,28.69a38.87,38.87,0,0,1,1.47-9.4A30.83,30.83,0,0,1,15.3,9.43c2.64-3.66,5.9-6.6,10.33-7.89C31.34-.11,36.46,1.3,40.91,5.1a27.56,27.56,0,0,1,8.26,13.18A45,45,0,0,1,50.69,25,33.2,33.2,0,0,1,50.74,30Zm-32,0a8.89,8.89,0,0,0,.09,1.39c.59,2.83.57,5.73,1,8.59.2,1.41.34,2.83.49,4.24a1.22,1.22,0,0,0,.95,1.12c2.69.87,5.39,1.74,8.09,2.59a2.88,2.88,0,0,0,1.81,0l7.83-2.51a1.46,1.46,0,0,0,1.21-1.41,11.47,11.47,0,0,1,.14-1.3c.37-2.72.47-5.47.8-8.19a19.4,19.4,0,0,0,.3-5.49c-.26-1.75-.36-3.54-.57-5.3-.28-2.53-.35-5.07-.79-7.58a1.35,1.35,0,0,0-1.1-1.17c-2.17-.68-4.37-1.27-6.49-2.09a6.47,6.47,0,0,0-4.76,0c-2.14.76-4.32,1.41-6.5,2.07a1.18,1.18,0,0,0-1,1.18,40.07,40.07,0,0,1-.45,4.08c-.17,1.82-.26,3.66-.46,5.49C19.09,27.15,18.87,28.64,18.69,30Zm-.84.23a5.84,5.84,0,0,0-.41-1.62c-.76-3.12-1.53-6.22-2.3-9.33,0-.15-.06-.3-.23-.32s-.25.13-.32.26-.15.31-.22.48c-1.34,3.29-2.68,6.58-4,9.86a1.27,1.27,0,0,0,0,1.08c.73,1.72,1.42,3.45,2.12,5.18l2.1,5.09c.07.19.13.43.37.45s.21-.21.25-.38c.51-2,1-4,1.53-6C17.08,33.38,17.47,31.79,17.85,30.21Zm27.4,11.12a13.31,13.31,0,0,0,1.52-3c1-2.46,2-4.9,3-7.35a2,2,0,0,0,0-1.62c-1.17-2.7-2.31-5.41-3.37-8.16-.31-.82-.71-1.61-1.18-2.64-.42,1.63-.78,3-1.13,4.38-.52,2.05-1,4.12-1.57,6.16a3.33,3.33,0,0,0,0,1.8c.45,1.74.83,3.5,1.27,5.24S44.78,39.6,45.25,41.33ZM29.83,11a3,3,0,0,0,1.25-.19c1.74-.75,3.49-1.48,5.24-2.21.83-.34.87-.46.23-1-2-1.77-4-3.52-6-5.29-.35-.31-.61-.36-1,0-2,1.8-4.08,3.59-6.12,5.37-.52.46-.33.69.23.91,1,.39,2,.85,3,1.23A26.85,26.85,0,0,0,29.83,11ZM37,52.19c0-.39-.33-.42-.56-.52-1.59-.67-3.17-1.36-4.76-2a2.71,2.71,0,0,0-2.26-.29c-1.9.83-3.82,1.61-5.74,2.39-.53.22-.54.44-.13.8q3,2.53,5.9,5.08a.83.83,0,0,0,1.24,0q3-2.52,5.93-5A2.94,2.94,0,0,0,37,52.19Zm7.6-36.5L44,10.31c0-.06,0-.11,0-.17,0-.5-.44-.58-.82-.63-1.24-.18-2.48-.32-3.72-.51-.63-.1-.61.17-.45.64.53,1.53,1,3.07,1.55,4.62a.93.93,0,0,0,.52.56c1,.43,2,.84,3.07,1.25C44.48,16.23,44.65,16.1,44.58,15.69ZM21.29,9.28c0-.39-.25-.35-.48-.32L17,9.49c-.58.08-.94.38-.9,1,.1,1.56-.39,3.07-.38,4.61,0,.37-.42.84-.08,1s.75-.16,1.13-.31c2.66-1,2.66-1,3.55-3.54C20.67,11.27,21,10.27,21.29,9.28Zm-.48,42c.54.08.61-.15.45-.61-.42-1.18-.87-2.36-1.2-3.56A2.68,2.68,0,0,0,18.11,45a10.68,10.68,0,0,1-1.85-.78c-.51-.26-.59-.08-.57.4.05,1.69.47,3.35.44,5.05a1,1,0,0,0,1,1.06Zm18.58,0c1.34-.23,2.69-.29,4-.61a.75.75,0,0,0,.59-.75q.35-2.69.72-5.37c0-.41-.1-.58-.49-.42-1.05.44-2.09.9-3.13,1.36a1,1,0,0,0-.53.56q-.79,2.31-1.56,4.63C38.86,51,38.92,51.29,39.39,51.25ZM18,27.1a18.89,18.89,0,0,0,.67-4.69c.25-1.93.37-3.88.55-5.82.05-.66-.2-.86-.83-.56s-1.48.68-2.24,1a.67.67,0,0,0-.46.95c.27,1,.49,2,.74,3C16.93,22.94,17.45,25,18,27.1Zm24.12,5.84c-.35,3.9-.89,7.69-1.11,11.59,1.08-.47,2.1-1,3.16-1.36.47-.18.55-.37.42-.84C43.72,39.23,43.13,36.06,42.11,32.94Zm0-5.61c.74-2.59,1.38-5.15,2-7.72.55-2.33.59-2.33-1.62-3.23-.48-.2-1.07-.74-1.42-.51s.13.93.09,1.43a1,1,0,0,0,0,.17C41.26,20.76,41.84,24,42.1,27.33ZM18,33.21c-.28,1.09-.51,2-.73,2.87-.53,2.09-1.07,4.18-1.58,6.27-.07.27-.2.6.18.76l3.56,1.52a28.09,28.09,0,0,1-.36-2.85A9.9,9.9,0,0,1,18.72,39,19.08,19.08,0,0,0,18,33.21Zm2.55-19c1.42-.47,2.72-.88,4-1.32a42.11,42.11,0,0,0,4.05-1.42c-2-.9-3.92-1.69-5.83-2.38-.42-.15-.59.07-.7.41Zm11-2.59c2.59.86,5,1.69,7.5,2.47.59.19.43-.31.33-.58-.47-1.34-1-2.67-1.45-4-.16-.45-.4-.51-.8-.34-.94.39-1.92.7-2.83,1.15A10.53,10.53,0,0,0,31.62,11.66ZM31.54,48.6c1.86,1,3.75,1.57,5.52,2.39.55.26.87,0,1.06-.51.43-1.23.88-2.46,1.33-3.69.23-.62,0-.74-.55-.55Zm-2.83.06c-1.71-.58-3.24-1.17-4.81-1.6a23.32,23.32,0,0,0-2.41-.78c-.43-.08-.79-.06-.59.56.43,1.3.84,2.61,1.27,3.91.12.35.35.54.74.37C24.78,50.32,26.73,49.67,28.71,48.66ZM31.64,2.13l.79.68c1.32,1.15,2.63,2.32,4,3.45,1.75,1.5,1.74,1.48,2.86-.59.23-.44.17-.65-.21-.93A15.19,15.19,0,0,0,32.58,2,.93.93,0,0,0,31.64,2.13Zm-3.25,0A.76.76,0,0,0,27.56,2a13.16,13.16,0,0,0-5,1.89c-1.87,1.26-2.23.73-.68,3.21.31.49.54.49.94.13,1.05-1,2.13-1.9,3.19-2.85Zm3.16,56a12.47,12.47,0,0,0,6.13-2c2.16-1.38,2.06-.76.69-3-.31-.52-.56-.42-.94-.08-1.3,1.12-2.63,2.21-3.93,3.33C32.89,56.89,32.3,57.43,31.55,58.1ZM49.75,27l.18,0c0-.23,0-.46,0-.69a25,25,0,0,0-.69-4.3,26,26,0,0,0-1.57-5.34c-.08-.2-.17-.38-.42-.38A1.51,1.51,0,0,0,46.05,18c.48,1.16,1,2.32,1.42,3.48ZM28.34,58.14c-.07-.19-.08-.29-.13-.34l-5.58-4.93c-.22-.19-.42-.21-.58.05-.36.57-.7,1.15-1,1.73a.44.44,0,0,0,.14.62A14.57,14.57,0,0,0,28.34,58.14ZM10.21,33.06a19.59,19.59,0,0,0,.24,2,34.54,34.54,0,0,0,2.08,8.56c.07.19.12.47.46.44a1.54,1.54,0,0,0,1.14-1.91c-.8-2-1.56-4-2.43-5.9A16.28,16.28,0,0,0,10.21,33.06Zm.06-5.87a2.58,2.58,0,0,0,.19-.37C11.64,24,12.78,21.09,14,18.26a1.21,1.21,0,0,0-.58-1.83c-.59-.34-.85-.35-1,.34-.35,1.23-.76,2.44-1.13,3.67A40,40,0,0,0,10.27,27.19Zm39.57,6.23a12.21,12.21,0,0,0-1.24,2.8c-.88,2-1.68,4.09-2.53,6.13-.36.87.3,1.18.85,1.46.71.37.73-.34.88-.72a29.16,29.16,0,0,0,1.7-6.21C49.68,35.75,50.17,34.64,49.84,33.42ZM42,8.55c.27,0,.56.09.68-.17s-.17-.4-.29-.58A13.31,13.31,0,0,0,40.7,6.09a.47.47,0,0,0-.84.17c-.24.57-1,1-.67,1.72,0,.07.2.1.31.12Zm-24.16,0,1.66-.3c1.85-.31,1.88-.41.82-2-.27-.4-.5-.49-.91-.18A11.22,11.22,0,0,0,17.61,8c-.12.14-.38.28-.2.5S17.73,8.54,17.88,8.57ZM18,51.81c-.05,0-.27-.12-.34.11a.52.52,0,0,0,.15.38c.3.34.61.69.95,1,1.34,1.27,1.41,1.24,2.29-.37.26-.48.12-.67-.36-.79A18.28,18.28,0,0,0,18,51.81Zm24.87-.12c-1.25.15-2.28.27-3.31.42-.3,0-.62.16-.4.58s.48.86.76,1.28a.42.42,0,0,0,.73.07A15.92,15.92,0,0,0,42.85,51.69ZM15.11,11.34c-.35.56-.63.93-.83,1.34a7.42,7.42,0,0,0-.95,2.06c-.11.68.42.91.89,1.14s.51-.17.5-.42C14.72,14.15,15.31,12.9,15.11,11.34ZM45,11.45c.25,1.24.23,2.47.44,3.67.06.32-.07.94.52.79s1.14-.47.92-1.17A9.74,9.74,0,0,0,45,11.45ZM15.06,48.64c.32-1.54-.35-2.77-.32-4.06,0-.18-.14-.3-.36-.28-.5,0-1.15.77-1,1.21A18.74,18.74,0,0,0,15.06,48.64Zm30.25-.54a11,11,0,0,0,1.5-2.55c.27-.7-.23-.93-.7-1.18-.3-.16-.52-.07-.56.28A13.22,13.22,0,0,0,45.31,48.1Z"/></svg>